<?xml version="1.0" encoding="UTF-8"?>
<svg width="55px" height="60px" viewBox="0 0 55 60" version="1.1" xmlns="http://www.w3.org/2000/svg" xmlns:xlink="http://www.w3.org/1999/xlink">
    <title>target (2)</title>
    <defs>
        <filter id="filter-1">
            <feColorMatrix in="SourceGraphic" type="matrix" values="0 0 0 0 0.470588 0 0 0 0 0.470588 0 0 0 0 0.470588 0 0 0 1.000000 0"></feColorMatrix>
        </filter>
    </defs>
    <g id="Page-1" stroke="none" stroke-width="1" fill="none" fill-rule="evenodd">
        <g id="Our-history" transform="translate(-659.000000, -2966.000000)">
            <g id="target-(2)" transform="translate(3.000000, 2584.000000)" filter="url(#filter-1)">
                <g transform="translate(656.000000, 382.000000)">
                    <path d="M55,24.1140935 C55,10.817557 44.1410917,0 30.7937277,0 C25.572135,0 20.5994585,1.6304265 16.4131734,4.71479548 C12.3111152,7.73728958 9.31753385,11.8792737 7.75592614,16.6930924 L7.71451854,16.8207093 L6.66109503,23.3144076 L0,35.3481341 L0,39.8436722 L5.54132526,39.8436722 L7.77427724,51.9954063 L20.3537184,51.9954063 L22.2517629,60 L51.0064015,60 L47.6781479,41.393591 C52.3432083,36.866178 55,30.624198 55,24.1140935 Z M25.0443057,56.4843819 L23.1462612,48.4797881 L10.7159815,48.4797881 L8.48291188,36.328054 L3.52905697,36.328054 L3.52905697,36.2532886 L10.0472252,24.4777256 L11.1548785,17.6492233 C13.9577732,9.18959143 21.8332168,3.51561813 30.7937277,3.51561813 C42.1952873,3.51561813 51.470943,12.7560688 51.470943,24.1140935 C51.470943,30.3082611 48.5473546,36.1087967 43.8634725,40.106992 L46.7929427,56.4843819 L25.0443057,56.4843819 Z" id="Shape" fill="#000000" fill-rule="nonzero"></path>
                    <path d="M46,22.2436557 L42.5718635,22.2436557 C41.8075054,17.1945171 37.8057491,13.1935648 32.7562789,12.4303746 L32.7562789,9 L29.243604,9 L29.243604,12.4303746 C24.1941338,13.1935648 20.1923775,17.1945171 19.4280194,22.2436557 L16,22.2436557 L16,25.7563443 L19.4273169,25.7563443 C20.1895674,30.8080589 24.1923775,34.8117043 29.243604,35.5751286 L29.243604,39 L32.7562789,39 L32.7562789,35.5751286 C37.8076225,34.8117043 41.8104326,30.8080589 42.5726831,25.7563443 L46,25.7563443 L46,22.2436557 L46,22.2436557 Z M32.7562789,32.0026072 L32.7562789,28.9010202 L29.243604,28.9010202 L29.243604,32.0026072 C26.1335987,31.320326 23.6808149,28.8668301 22.9994731,25.7563443 L26.0989403,25.7563443 L26.0989403,22.2436557 L23.0007611,22.2436557 C23.6837422,19.135863 26.1353551,16.684826 29.243604,16.002896 L29.243604,19.0989798 L32.7562789,19.0989798 L32.7562789,16.002896 C35.8644107,16.684826 38.3161407,19.135863 38.9991218,22.2436557 L35.9009426,22.2436557 L35.9009426,25.7563443 L39.0004098,25.7563443 C38.319068,28.8668301 35.8662842,31.320326 32.7562789,32.0026072 Z" id="Shape" fill="#000000" fill-rule="nonzero"></path>
                </g>
            </g>
        </g>
    </g>
</svg>