<?xml version="1.0" encoding="UTF-8"?>
<svg width="69px" height="57px" viewBox="0 0 69 57" version="1.1" xmlns="http://www.w3.org/2000/svg" xmlns:xlink="http://www.w3.org/1999/xlink">
    <title>respect</title>
    <defs>
        <filter id="filter-1">
            <feColorMatrix in="SourceGraphic" type="matrix" values="0 0 0 0 0.470588 0 0 0 0 0.470588 0 0 0 0 0.470588 0 0 0 1.000000 0"></feColorMatrix>
        </filter>
    </defs>
    <g id="Page-1" stroke="none" stroke-width="1" fill="none" fill-rule="evenodd">
        <g id="Our-history" transform="translate(-352.000000, -3101.000000)">
            <g id="respect" transform="translate(3.000000, 2584.000000)" filter="url(#filter-1)">
                <g transform="translate(349.000000, 517.000000)">
                    <path d="M62.7078832,6.29307069 C62.5208083,6.10608939 62.2637055,6 62.0005002,6 C61.7363946,6 61.4792917,6.10608939 61.2921168,6.29307069 C61.1061425,6.4789521 61,6.7360264 61,7 C61,7.2629737 61.1061425,7.5210479 61.2921168,7.7070293 C61.4791917,7.8930107 61.7362945,8 62.0005002,8 C62.2636054,8 62.5208083,7.89311069 62.7078832,7.7070293 C62.8939576,7.5210479 63,7.26307369 63,7 C63,6.7360264 62.8939576,6.4789521 62.7078832,6.29307069 Z" id="Path" fill="#000000" fill-rule="nonzero"></path>
                    <path d="M32.7078831,37.2930707 C32.5209083,37.1060894 32.2637054,37 32.0005002,37 C31.7363945,37 31.4791917,37.1060894 31.2921168,37.2930707 C31.1061425,37.4789521 31,37.7360264 31,38 C31,38.2629737 31.1061425,38.5209479 31.2921168,38.7070293 C31.4791917,38.8930107 31.7362945,39 32.0005002,39 C32.2636054,39 32.5208083,38.8931107 32.7078831,38.7070293 C32.8939575,38.5210479 33,38.2630737 33,38 C33.0001,37.7360264 32.8940576,37.4789521 32.7078831,37.2930707 Z" id="Path" fill="#000000" fill-rule="nonzero"></path>
                    <path d="M66.3024992,10.4564394 C65.9345885,9.81312694 65.1114388,9.58832931 64.4646976,9.95406086 C63.8176868,10.3197924 63.591415,11.1377986 63.9594604,11.7809771 C67.9628143,18.7791767 66.7542343,27.6478321 61.0202176,33.3477517 L59.9982883,34.363628 C59.7513973,33.7196458 59.3689318,33.1155858 58.8477924,32.5976671 L44.9997943,18.831826 C45.9054207,18.3889291 46.7421818,17.797998 47.4767904,17.0677406 L50.1327554,14.4273731 C50.659016,13.9042296 50.659016,13.0558128 50.1327554,12.5326693 C49.6063601,12.0095258 48.7531576,12.0095258 48.2266275,12.5326693 L45.5706624,15.1730368 C44.3228656,16.4133089 42.6640329,17.0964097 40.8995439,17.0964097 L35.5901743,17.0964097 C35.2327753,17.0964097 34.8900658,17.2376115 34.6371103,17.4888008 L30.5725728,21.5292637 C29.36561,22.7292115 27.4016675,22.7292115 26.1947047,21.5292637 C24.9876071,20.3294498 24.9876071,18.37714 26.1947047,17.1773261 L35.4741409,7.95298677 C41.1449524,2.31563002 49.9981244,1.07589382 57.0025786,4.93817983 C57.6534975,5.2968111 58.4739519,5.0635735 58.8349896,4.41637601 C59.1960273,3.76931249 58.9609957,2.95371772 58.3100767,2.59481851 C54.4466098,0.464867584 49.894759,-0.387568276 45.4922287,0.195324766 C41.3721676,0.740706879 37.6010153,2.45562617 34.5097566,5.17677613 C30.7121902,1.83013143 25.8777354,0 20.759329,0 C15.214254,0 10.0012421,2.14656291 6.08023013,6.04421636 C2.15921819,9.94186981 0,15.1244065 0,20.6365036 C0,26.1487346 2.15935296,31.3308694 6.08023013,35.2286568 L6.58816255,35.7335807 C6.67656894,35.8213295 6.77467847,35.8931362 6.87831339,35.9514121 C6.96847174,37.1104998 7.45699788,38.2444016 8.34685669,39.1288557 C9.3372508,40.1132496 10.6374716,40.6051787 11.9380966,40.6051787 C12.0056143,40.6051787 12.0732668,40.6030352 12.1407844,40.6003558 C12.1380891,40.6681434 12.1357981,40.7359311 12.1357981,40.8041206 C12.1357981,42.1526385 12.6640802,43.4205079 13.6233434,44.3740893 C14.6137375,45.3584832 15.9139583,45.8505462 17.2145833,45.8504122 C17.282101,45.8504122 17.3497534,45.8482688 17.4172711,45.8455894 C17.4145758,45.913377 17.4122848,45.9811646 17.4122848,46.0493541 C17.4122848,47.397872 17.9405669,48.6657414 18.8999648,49.6193228 C19.8902242,50.6035828 21.1907145,51.0956458 22.4912048,51.0956458 C22.5595311,51.0956458 22.6278573,51.0935023 22.6961836,51.090823 C22.6414687,52.4507281 23.1343073,53.8287189 24.1764515,54.8648243 C25.1358495,55.8184057 26.4112734,56.3435587 27.7676915,56.3435587 C29.1243791,56.3435587 30.399803,55.8184057 31.3589314,54.8648243 L33.2425535,52.9922252 L35.7867976,55.5211316 C36.7460609,56.474847 38.0214847,57 39.3780376,57 C40.7345905,57 42.0100143,56.474847 42.9692775,55.5212656 C44.0239549,54.4728351 44.5166588,53.0740794 44.4479283,51.6982321 C44.5325612,51.7023851 44.6174637,51.7047965 44.7022314,51.7047965 C46.0028564,51.7047965 47.3036163,51.2127335 48.2937409,50.2283396 C49.335346,49.1929039 49.8281846,47.8159849 49.7740088,46.4567496 C49.8422003,46.459429 49.9103918,46.4617064 49.9789876,46.4617064 C51.3355405,46.4617064 52.6109643,45.9365534 53.5702275,44.982972 C54.6118327,43.9475364 55.1046713,42.5706174 55.0504955,41.2113821 C55.118687,41.2140614 55.1868785,41.2163389 55.2554743,41.2163389 C56.6120272,41.2163389 57.887451,40.6911859 58.8467142,39.7376045 C59.3338927,39.2533116 59.7007253,38.6938629 59.9481554,38.0967693 C60.0792826,38.0332686 60.2025933,37.9487351 60.3116189,37.8404892 L62.9252674,35.2423215 C69.5154515,28.6925114 70.9038091,18.4999882 66.3024992,10.4564394 Z M11.9382314,37.9279701 C11.3015976,37.9279701 10.7031025,37.6816037 10.2528499,37.2340179 C9.80273199,36.7865661 9.55476285,36.191616 9.55476285,35.558753 C9.55476285,34.926024 9.80259722,34.3309399 10.2528499,33.8834881 L12.5754043,31.5746905 C13.0255221,31.1271047 13.624152,30.8807383 14.2607858,30.8807383 C14.8972848,30.8807383 15.4959146,31.1271047 15.9460325,31.5746905 C16.8753777,32.4985311 16.8753777,34.0015136 15.9460325,34.9252202 L13.6234781,37.2341519 C13.1733603,37.6814697 12.575,37.9279701 11.9382314,37.9279701 Z M15.5297409,42.4795194 C15.0794882,42.0320676 14.8316538,41.4369835 14.8316538,40.8042545 C14.8316538,40.1713916 15.0794882,39.5764414 15.5297409,39.1289896 L17.85243,36.820058 C17.85243,36.820058 17.85243,36.820058 17.85243,36.819924 C18.3025479,36.3724722 18.901043,36.1259719 19.5376768,36.1259719 C20.1741758,36.1259719 20.7728056,36.3723383 21.2229235,36.819924 C22.1522687,37.7437646 22.1522687,39.2467472 21.2229235,40.1704538 L18.9003691,42.4793854 C17.9708892,43.4030921 16.458547,43.4030921 15.5297409,42.4795194 Z M20.8062276,47.724753 C20.3559749,47.2773012 20.1081405,46.6822171 20.1081405,46.0494881 C20.1081405,45.4166251 20.3559749,44.821675 20.8062276,44.3742232 L23.1289167,42.0652916 C23.1289167,42.0652916 23.1289167,42.0652916 23.1289167,42.0651576 C23.5790346,41.6177058 24.1775297,41.3712054 24.8141635,41.3712054 C25.4507973,41.3712054 26.0492923,41.6175718 26.4994102,42.0651576 C27.4287554,42.9891322 27.4287554,44.4921147 26.4994102,45.4158213 L24.1767211,47.724753 C23.2475106,48.6485936 21.7355727,48.6485936 20.8062276,47.724753 Z M31.7760317,50.6613228 L29.4533425,52.9703885 C29.0032246,53.4178403 28.4047296,53.6643406 27.7680958,53.6643406 C27.1315967,53.6643406 26.5329669,53.4179742 26.082849,52.9703885 C25.1535038,52.0464139 25.1535038,50.5434314 26.082849,49.6197247 L28.4055382,47.3107931 C28.4055382,47.3107931 28.4055382,47.3107931 28.4055382,47.3106591 C28.855656,46.8632073 29.4541511,46.6167069 30.0907849,46.6167069 C30.7272839,46.6167069 31.3259138,46.8630734 31.7760317,47.3106591 C32.2262843,47.7581109 32.4741187,48.353195 32.4741187,48.985924 C32.4742535,49.6190549 32.2262843,50.2138711 31.7760317,50.6613228 Z M56.9416644,37.8429007 C56.4915465,38.2904864 55.8929167,38.5368528 55.2564177,38.5368528 C54.6197839,38.5368528 54.0212888,38.2904864 53.5711709,37.8429007 L47.9612735,32.2662312 C47.961004,32.2659633 47.9608692,32.2658293 47.9605997,32.2655614 L42.6845173,27.0207297 C42.158122,26.4975862 41.3049195,26.4975862 40.7783894,27.0207297 C40.2521288,27.5438732 40.2521288,28.39229 40.7783894,28.9154335 L51.665043,39.7373365 C52.5943881,40.6613111 52.5943881,42.1642936 51.665043,43.0880003 C51.2149251,43.535586 50.6162952,43.7819524 49.9797962,43.7819524 C49.3431624,43.7819524 48.7446673,43.535586 48.2945495,43.0880003 L37.4078959,32.2659633 C36.8815005,31.7429538 36.028298,31.7429538 35.5017679,32.2659633 C34.9755073,32.7891068 34.9755073,33.6375236 35.5017679,34.1608011 L40.7773112,39.4049629 C40.7777155,39.4053648 40.7781198,39.4059007 40.7785241,39.4063026 L46.3885563,44.982838 C47.3179015,45.9068126 47.3179015,47.4099291 46.388691,48.3336357 C45.4592111,49.2574763 43.9470037,49.2574763 43.0180628,48.3336357 L37.4080306,42.7568323 C37.3042609,42.6538113 37.1876885,42.5718231 37.0635692,42.5093942 L35.4634944,40.9187968 C34.9370991,40.3957873 34.0838966,40.3957873 33.5573665,40.9187968 C33.0311059,41.4419403 33.0311059,42.2903572 33.5573665,42.8136346 L41.0640929,50.2756301 C41.9934381,51.1996047 41.9934381,52.7025872 41.0640929,53.6262938 C40.613975,54.0738796 40.0153452,54.320246 39.3788462,54.320246 C38.7422124,54.320246 38.1437173,54.0738796 37.6935994,53.6262938 L34.8371028,50.7868505 C35.0547496,50.2192298 35.1698397,49.6114187 35.1698397,48.98579 C35.1698397,47.6372721 34.6415576,46.3694027 33.6822944,45.4158213 C32.7228964,44.4622399 31.4474726,43.9370869 30.0910544,43.9370869 C30.0224586,43.9370869 29.9542671,43.9393644 29.8860756,43.9420437 C29.9401167,42.5828084 29.4474128,41.2058894 28.4058077,40.1704538 C27.4464097,39.2168724 26.1709859,38.6917194 24.8145678,38.6917194 C24.7459719,38.6917194 24.6777804,38.6939968 24.6095889,38.6966762 C24.6637648,37.3374409 24.1709261,35.9605219 23.129321,34.9250863 C22.169923,33.9715049 20.8944992,33.4463519 19.5380811,33.4463519 C19.4694853,33.4463519 19.4012937,33.4486293 19.3331022,33.4513087 C19.3872781,32.0920733 18.8944394,30.7151543 17.8528343,29.6797187 C15.8725851,27.7111988 12.6501993,27.7113327 10.6699501,29.6797187 L8.34739575,31.9885164 C8.05441483,32.279762 7.80604139,32.5984709 7.59958014,32.9358013 C4.43379593,29.5931756 2.69612527,25.2476685 2.69612527,20.6362357 C2.69612527,15.8397935 4.57503053,11.3303101 7.98703191,7.93878621 C11.3987638,4.54726236 15.9352513,2.67935207 20.7601376,2.67935207 C25.1448788,2.67935207 29.2910845,4.22212299 32.5715544,7.04910735 L24.2892505,15.2823544 C23.195491,16.3697694 22.5930877,17.8154138 22.5930877,19.3530939 C22.5930877,20.8909081 23.195491,22.3365525 24.2892505,23.4239675 C25.4183187,24.5462141 26.9014167,25.1074044 28.3843799,25.1074044 C29.8673432,25.1074044 31.3504412,24.5463481 32.4795093,23.4239675 L36.1494525,19.7757617 L40.9003524,19.7757617 C41.2926558,19.7757617 41.6806466,19.7491022 42.0639207,19.7018116 L56.942473,34.491969 C57.8708748,35.4162115 57.8708748,36.919328 56.9416644,37.8429007 Z" id="Shape" fill="#000000" fill-rule="nonzero"></path>
                </g>
            </g>
        </g>
    </g>
</svg>