<?xml version="1.0" encoding="UTF-8"?>
<svg width="56px" height="62px" viewBox="0 0 56 62" version="1.1" xmlns="http://www.w3.org/2000/svg" xmlns:xlink="http://www.w3.org/1999/xlink">
    <title>decision</title>
    <defs>
        <filter id="filter-1">
            <feColorMatrix in="SourceGraphic" type="matrix" values="0 0 0 0 0.470588 0 0 0 0 0.470588 0 0 0 0 0.470588 0 0 0 1.000000 0"></feColorMatrix>
        </filter>
    </defs>
    <g id="Page-1" stroke="none" stroke-width="1" fill="none" fill-rule="evenodd">
        <g id="Our-history" transform="translate(-950.000000, -3337.000000)">
            <g id="decision" transform="translate(3.000000, 2584.000000)" filter="url(#filter-1)">
                <g transform="translate(947.000000, 753.000000)">
                    <path d="M55.6717596,17.5799063 L46.2332397,9.75119531 C45.9617891,9.52596094 45.5844036,9.47776562 45.2650214,9.6274375 C44.9456392,9.77710937 44.7415356,10.0975234 44.7415356,10.4496641 L44.7415356,13.0887813 L39.6452542,13.0887813 C37.0414158,13.0887813 34.7165514,14.2977812 33.2005781,16.1813945 L33.2005781,11.2353203 L35.8453101,11.2353203 C36.1981837,11.2353203 36.5193861,11.0316406 36.6692482,10.7129219 C36.8191102,10.3942031 36.7708146,10.0174805 36.5452327,9.74671484 L28.700226,0.327800781 C28.5270655,0.120003906 28.2705405,0 28.0000607,0 C27.7295809,0 27.4730558,0.120003906 27.300138,0.327679688 L19.4551313,9.74659375 C19.2295494,10.0173594 19.1811325,10.394082 19.3311159,10.7128008 C19.4810993,11.0315195 19.8021803,11.2351992 20.1550539,11.2351992 L22.7997859,11.2351992 L22.7997859,12.1783984 C22.7997859,12.6800898 23.2072651,13.0866016 23.7098795,13.0866016 C24.2124939,13.0866016 24.6199731,12.6800898 24.6199731,12.1783984 L24.6199731,10.3271172 C24.6199731,9.82542578 24.2124939,9.41891406 23.7098795,9.41891406 L22.0948881,9.41891406 L28.0000607,2.32899609 L33.9052333,9.41891406 L32.2902418,9.41891406 C31.7875061,9.41891406 31.3801483,9.82542578 31.3801483,10.3271172 L31.3801483,25.4434922 L24.6198517,25.4434922 L24.6198517,16.4227344 C24.6198517,15.921043 24.2123725,15.5145312 23.7097582,15.5145312 C23.2794659,15.5145312 22.9197969,15.8127852 22.8249045,16.2133633 C21.309538,14.3114648 18.9733884,13.0886602 16.3549885,13.0886602 L11.2587071,13.0886602 L11.2587071,10.449543 C11.2587071,10.0974023 11.0546034,9.77686719 10.7352213,9.62731641 C10.4155964,9.47764453 10.0383323,9.52596094 9.76700304,9.75107422 L0.328361767,17.5797852 C0.120375045,17.7523437 0,18.0082148 0,18.2782539 C0,18.548293 0.120375045,18.8041641 0.328361767,18.9767227 L9.76700304,26.8054336 C10.0384536,27.0305469 10.4158391,27.0789844 10.7352213,26.9291914 C11.0547248,26.7796406 11.2587071,26.4591055 11.2587071,26.1069648 L11.2587071,23.4677266 L14.2190595,23.4677266 L14.2190595,30.3364062 L11.329209,30.3364062 C9.47565175,30.3364062 7.967566,31.8413594 7.967566,33.6910664 L7.967566,35.2468789 C7.967566,35.7485703 8.37504523,36.155082 8.87765959,36.155082 C9.38027394,36.155082 9.78775317,35.7485703 9.78775317,35.2468789 L9.78775317,33.6910664 C9.78775317,32.8428047 10.479303,32.1528125 11.329209,32.1528125 L44.6706696,32.1528125 C45.520697,32.1528125 46.2121255,32.8428047 46.2121255,33.6910664 L46.2121255,42.7430664 C46.2121255,43.5913281 45.520697,44.2813203 44.6706696,44.2813203 L11.3293304,44.2813203 C10.4794243,44.2813203 9.78787452,43.5913281 9.78787452,42.7430664 L9.78787452,39.4910937 C9.78787452,38.9894023 9.38039528,38.5828906 8.87778093,38.5828906 C8.37516658,38.5828906 7.96768734,38.9894023 7.96768734,39.4910937 L7.96768734,58.6453398 C7.96768734,60.4950469 9.47577309,62 11.3293304,62 L44.670791,62 C46.5243483,62 48.032434,60.4950469 48.032434,58.6453398 L48.032434,53.5148398 C48.032434,53.0131484 47.6250761,52.6066367 47.1223404,52.6066367 C46.6196047,52.6066367 46.2122468,53.0131484 46.2122468,53.5148398 L46.2122468,58.6453398 C46.2122468,59.4936016 45.5208184,60.1835937 44.670791,60.1835937 L11.3293304,60.1835937 C10.4794243,60.1835937 9.78787452,59.4936016 9.78787452,58.6453398 L9.78787452,45.7228203 C10.2499594,45.9618594 10.7739306,46.0978477 11.3293304,46.0978477 L24.6384177,46.0978477 L24.6384177,47.6361016 C24.6384177,49.4858086 26.1465034,50.9907617 28.0000607,50.9907617 C29.8536179,50.9907617 31.3617037,49.4858086 31.3617037,47.6361016 L31.3617037,46.0978477 L44.670791,46.0978477 C45.2261908,46.0978477 45.750162,45.9618594 46.2122468,45.7228203 L46.2122468,49.270625 C46.2122468,49.7723164 46.6196047,50.1788281 47.1223404,50.1788281 C47.6250761,50.1788281 48.032434,49.7723164 48.032434,49.270625 L48.032434,33.6911875 C48.032434,31.8414805 46.5243483,30.3365273 44.670791,30.3365273 L41.7810618,30.3365273 L41.7810618,23.4678477 L44.7414142,23.4678477 L44.7414142,26.1070859 C44.7414142,26.4592266 44.9455179,26.7797617 45.2649001,26.9293125 C45.5844036,27.0786211 45.9616677,27.030668 46.2331183,26.8055547 L55.6716382,18.9768437 C55.8797463,18.8042852 56,18.5484141 56,18.278375 C56,18.0083359 55.8798676,17.7524648 55.6717596,17.5799062 L55.6717596,17.5799063 Z M29.5415165,47.6361016 C29.5415165,48.4843633 28.8500881,49.1743555 28.0000607,49.1743555 C27.1501546,49.1743555 26.4586048,48.4843633 26.4586048,47.6361016 L26.4586048,46.0978477 L29.5415165,46.0978477 L29.5415165,47.6361016 Z M15.1292745,21.6514414 L10.3487349,21.6514414 C9.84612051,21.6514414 9.43864127,22.0579531 9.43864127,22.5596445 L9.43864127,24.1712812 L2.33396534,18.278375 L9.43864127,12.3854687 L9.43864127,13.9969844 C9.43864127,14.4986758 9.84612051,14.9051875 10.3487349,14.9051875 L16.3551099,14.9051875 C19.9087219,14.9051875 22.7997859,17.7902461 22.7997859,21.3364766 L22.7997859,25.4436133 L22.2213304,25.4436133 C21.0180654,25.4436133 19.899621,26.0912227 19.3025996,27.1338398 L17.4687004,30.3365273 L16.0394894,30.3365273 L16.0394894,22.5596445 C16.039368,22.0579531 15.6318888,21.6514414 15.1292745,21.6514414 L15.1292745,21.6514414 Z M22.7997859,27.2598984 L22.7997859,30.3364062 L19.5650706,30.3364062 L20.8830075,28.0348984 C21.1567636,27.5568203 21.669571,27.2598984 22.2214518,27.2598984 L22.7997859,27.2598984 Z M24.6199731,27.2598984 L31.3802696,27.2598984 L31.3802696,30.3364062 L24.6199731,30.3364062 L24.6199731,27.2598984 Z M33.2003354,27.2598984 L33.7789123,27.2598984 C34.3306717,27.2598984 34.8434791,27.5568203 35.1172352,28.0347773 L36.4351721,30.3364062 L33.2003354,30.3364062 L33.2003354,27.2598984 Z M46.5616014,24.1711602 L46.5616014,22.5595234 C46.5616014,22.057832 46.1542435,21.6513203 45.6515078,21.6513203 L40.8709682,21.6513203 C40.3682325,21.6513203 39.9608746,22.057832 39.9608746,22.5595234 L39.9608746,30.3364062 L38.5315423,30.3364062 L36.6976431,27.1337187 C36.1006217,26.0912227 34.9821773,25.4434922 33.7789123,25.4434922 L33.2003354,25.4434922 L33.2003354,21.3363555 C33.2003354,17.790125 36.0913994,14.9050664 39.6450115,14.9050664 L45.6513865,14.9050664 C46.1541222,14.9050664 46.5614801,14.4985547 46.5614801,13.9968633 L46.5614801,12.3853477 L53.666156,18.2782539 L46.5616014,24.1711602 Z" id="Shape" fill="#000000" fill-rule="nonzero"></path>
                </g>
            </g>
        </g>
    </g>
</svg>