<?xml version="1.0" encoding="UTF-8"?>
<svg width="54px" height="54px" viewBox="0 0 54 54" version="1.1" xmlns="http://www.w3.org/2000/svg" xmlns:xlink="http://www.w3.org/1999/xlink">
    <title>target (1)</title>
    <defs>
        <filter id="filter-1">
            <feColorMatrix in="SourceGraphic" type="matrix" values="0 0 0 0 0.470588 0 0 0 0 0.470588 0 0 0 0 0.470588 0 0 0 1.000000 0"></feColorMatrix>
        </filter>
    </defs>
    <g id="Page-1" stroke="none" stroke-width="1" fill="none" fill-rule="evenodd">
        <g id="Our-history" transform="translate(-946.000000, -2676.000000)">
            <g id="target-(1)" transform="translate(3.000000, 2584.000000)" filter="url(#filter-1)">
                <g transform="translate(930.000000, 77.000000)">
                    <g id="mission" transform="translate(41.000000, 40.500000) rotate(45.000000) translate(-41.000000, -40.500000) translate(19.227586, 5.062500)">
                        <path d="M42.705102,46.4003649 C41.7436674,39.1791835 37.8750105,32.5283067 32.0857763,28.1196338 L32.0857763,23.1613111 C32.0857763,14.5792015 28.7476847,6.51116932 22.6880112,0.442072165 L22.5825857,0.336502692 C22.1345274,-0.112167564 21.4103002,-0.112167564 20.9622419,0.336502692 L20.8568164,0.442072165 C14.7971429,6.51002182 11.4590513,14.5792015 11.4590513,23.1613111 L11.4590513,28.1196338 C5.66981708,32.5283067 1.8011602,39.1791835 0.839725622,46.4003649 L0.0100729024,52.6335537 C-0.0621206354,53.177466 0.259885462,53.6972809 0.778991376,53.8728475 C0.900459868,53.9130098 1.02422022,53.9325172 1.14568871,53.9325172 C1.54790985,53.9325172 1.93294205,53.7190833 2.14035523,53.3541801 L3.31264077,51.2990179 C5.0223671,48.3040579 8.07626834,46.3441377 11.4590513,45.975792 L11.4590513,47.0475516 C11.4590513,47.6809685 11.9724275,48.1950459 12.6049804,48.1950459 L13.7509096,48.1950459 L13.7509096,51.6375287 C13.7509096,52.2709455 14.2642859,52.7850229 14.8968388,52.7850229 L20.6264846,52.7850229 L20.6264846,57.375 L22.918343,57.375 L22.918343,52.7850229 L28.6479888,52.7850229 C29.2805417,52.7850229 29.793918,52.2709455 29.793918,51.6375287 L29.793918,48.1950459 L30.9398472,48.1950459 C31.5724001,48.1950459 32.0857763,47.6809685 32.0857763,47.0475516 L32.0857763,45.9769395 C35.4685592,46.3441377 38.5224605,48.3052053 40.2321868,51.3001654 L41.4044724,53.3553276 C41.6130315,53.7190833 41.9969177,53.9325172 42.3991389,53.9325172 C42.5206074,53.9325172 42.6443677,53.9130098 42.7658362,53.8717 C43.2849421,53.6961334 43.6069482,53.177466 43.5347547,52.6324062 L42.705102,46.4003649 Z M21.7724138,2.7944354 C24.180011,5.37170752 26.0753778,8.30814533 27.4218446,11.4752295 L16.122983,11.4752295 C17.4694498,8.30814533 19.3648166,5.37170752 21.7724138,2.7944354 Z M2.95052716,47.9093198 L3.11095724,46.7033034 C3.91196173,40.6835485 6.93033917,35.1101688 11.4590513,31.1077088 L11.4590513,43.665886 C8.17825603,43.9596446 5.13466816,45.4869594 2.95052716,47.9093198 Z M27.5020596,50.4900344 L16.0427679,50.4900344 L16.0427679,48.1950459 L27.5020596,48.1950459 L27.5020596,50.4900344 Z M29.793918,45.9000574 L13.7509096,45.9000574 L13.7509096,23.1613111 C13.7509096,19.9207873 14.2688696,16.7605881 15.2555146,13.770218 L28.2904589,13.770218 C29.275958,16.7605881 29.793918,19.9207873 29.793918,23.1613111 L29.793918,45.9000574 Z M32.0857763,43.6670335 L32.0857763,31.1077088 C36.6144884,35.1113163 39.6317199,40.684696 40.4338703,46.7033034 L40.5943004,47.9093198 C38.4101594,45.4869594 35.3665716,43.9596446 32.0857763,43.6670335 Z" id="Shape" fill="#787878"></path>
                        <path d="M22.0551724,20.8125 C18.3125793,20.8125 15.2689655,23.839875 15.2689655,27.5625 C15.2689655,31.285125 18.3125793,34.3125 22.0551724,34.3125 C25.7977655,34.3125 28.8413793,31.285125 28.8413793,27.5625 C28.8413793,23.839875 25.7977655,20.8125 22.0551724,20.8125 Z M22.0551724,32.0625 C19.5601103,32.0625 17.5310345,30.04425 17.5310345,27.5625 C17.5310345,25.08075 19.5601103,23.0625 22.0551724,23.0625 C24.5502345,23.0625 26.5793103,25.08075 26.5793103,27.5625 C26.5793103,30.04425 24.5502345,32.0625 22.0551724,32.0625 Z" id="Shape" fill="#FFCB05"></path>
                        <path d="M27.520331,54 L25.6382897,55.2857695 L26.8405793,57.1350052 C27.4094897,58.0103487 27.7103448,59.0282978 27.7103448,60.0798695 C27.7103448,61.49781 27.1719724,62.8311147 26.1936276,63.8339918 L22.0551724,68.0762195 L17.9167172,63.8339918 C16.9383724,62.8311147 16.4,61.49781 16.4,60.0798695 C16.4,59.0282978 16.7008552,58.0103487 17.2697655,57.1350052 L18.4720552,55.2857695 L16.5900138,54 L15.3877241,55.8492357 C14.5699862,57.1060203 14.137931,58.5691773 14.137931,60.0798695 C14.137931,62.1169272 14.9115586,64.0334078 16.3174345,65.4733768 L21.255531,70.5352971 C21.4760828,70.7613793 21.7656276,70.875 22.0551724,70.875 C22.3447172,70.875 22.6342621,70.7613793 22.8548138,70.5352971 L27.7929103,65.4733768 C29.1987862,64.0334078 29.9724138,62.1169272 29.9724138,60.0798695 C29.9724138,58.5691773 29.5403586,57.1060203 28.7226207,55.8492357 L27.520331,54 Z" id="Path" fill="#787878"></path>
                    </g>
                </g>
            </g>
        </g>
    </g>
</svg>