<?xml version="1.0" encoding="UTF-8"?>
<svg width="60px" height="60px" viewBox="0 0 60 60" version="1.1" xmlns="http://www.w3.org/2000/svg" xmlns:xlink="http://www.w3.org/1999/xlink">
    <title>focus</title>
    <defs>
        <filter id="filter-1">
            <feColorMatrix in="SourceGraphic" type="matrix" values="0 0 0 0 0.470588 0 0 0 0 0.470588 0 0 0 0 0.470588 0 0 0 1.000000 0"></feColorMatrix>
        </filter>
    </defs>
    <g id="Page-1" stroke="none" stroke-width="1" fill="none" fill-rule="evenodd">
        <g id="Our-history" transform="translate(-393.000000, -2669.000000)">
            <g id="focus" transform="translate(3.000000, 2584.000000)" filter="url(#filter-1)">
                <g transform="translate(390.000000, 85.000000)">
                    <path d="M1.81318681,11 C2.81454945,11 3.62637363,10.1881758 3.62637363,9.18681319 L3.62637363,3.62637363 L9.18681319,3.62637363 C10.1881758,3.62637363 11,2.81454945 11,1.81318681 C11,0.811824176 10.1881758,0 9.18681319,0 L1.81318681,0 C0.811824176,0 0,0.811824176 0,1.81318681 L0,9.18681319 C0,10.1881758 0.811824176,11 1.81318681,11 Z" id="Path" fill="#787878"></path>
                    <path d="M1.81318681,60 L9.18681319,60 C10.1881758,60 11,59.1881758 11,58.1868132 C11,57.1854505 10.1881758,56.3736264 9.18681319,56.3736264 L3.62637363,56.3736264 L3.62637363,50.8131868 C3.62637363,49.8118242 2.81454945,49 1.81318681,49 C0.811824176,49 0,49.8118242 0,50.8131868 L0,58.1868132 C0,59.1881758 0.811824176,60 1.81318681,60 Z" id="Path" fill="#787878"></path>
                    <path d="M58.1868132,11 C59.1881758,11 60,10.1881758 60,9.18681319 L60,1.81318681 C60,0.811824176 59.1881758,0 58.1868132,0 L50.8131868,0 C49.8118242,0 49,0.811824176 49,1.81318681 C49,2.81454945 49.8118242,3.62637363 50.8131868,3.62637363 L56.3736264,3.62637363 L56.3736264,9.18681319 C56.3736264,10.1881758 57.1854505,11 58.1868132,11 Z" id="Path" fill="#787878"></path>
                    <path d="M58.1868132,49 C57.1854505,49 56.3736264,49.8118242 56.3736264,50.8131868 L56.3736264,56.3736264 L50.8131868,56.3736264 C49.8118242,56.3736264 49,57.1854505 49,58.1868132 C49,59.1881758 49.8118242,60 50.8131868,60 L58.1868132,60 C59.1881758,60 60,59.1881758 60,58.1868132 L60,50.8131868 C60,49.8118242 59.1881758,49 58.1868132,49 Z" id="Path" fill="#787878"></path>
                    <path d="M30.5,42 C37.3925,42 43,36.3925 43,29.5 C43,22.6075 37.3925,17 30.5,17 C23.6075,17 18,22.6075 18,29.5 C18,36.3925 23.6075,42 30.5,42 Z M30.5,20.5714286 C35.4232143,20.5714286 39.4285714,24.5767857 39.4285714,29.5 C39.4285714,34.4232143 35.4232143,38.4285714 30.5,38.4285714 C25.5767857,38.4285714 21.5714286,34.4232143 21.5714286,29.5 C21.5714286,24.5767857 25.5767857,20.5714286 30.5,20.5714286 Z" id="Shape" fill="#FFCB05"></path>
                    <path d="M30.5,35 C33.5327,35 36,32.5327 36,29.5 C36,26.4673 33.5327,24 30.5,24 C27.4673,24 25,26.4673 25,29.5 C25,32.5327 27.4673,35 30.5,35 Z M30.5,27.6666667 C31.5109,27.6666667 32.3333333,28.4891 32.3333333,29.5 C32.3333333,30.5109 31.5109,31.3333333 30.5,31.3333333 C29.4891,31.3333333 28.6666667,30.5109 28.6666667,29.5 C28.6666667,28.4891 29.4891,27.6666667 30.5,27.6666667 Z" id="Shape" fill="#FFCB05"></path>
                    <path d="M8.9090071,39.7086636 C14.8377397,44.8416545 22.1601792,49 30,49 C37.8401723,49 45.162729,44.8411818 51.0909929,39.7086636 C56.3076964,35.1922273 59.5318666,30.7264909 59.6666318,30.5385818 C60.1111227,29.9186 60.1111227,29.0811636 59.6666318,28.4613 C59.5319838,28.2733909 56.3076964,23.8076545 51.0909929,19.2912182 C45.1622603,14.1583455 37.8398208,10 30,10 C22.1598277,10 14.837271,14.1588182 8.9090071,19.2913364 C3.69230364,23.8077727 0.468133394,28.2735091 0.333368164,28.4614182 C-0.111122721,29.0814 -0.111122721,29.9188364 0.333368164,30.5387 C0.468133394,30.7264909 3.69242082,35.1923455 8.9090071,39.7086636 L8.9090071,39.7086636 Z M30.0561707,12.6719368 C37.8555616,12.6719368 45.0143229,17.4373411 49.6465778,21.4351279 C53.2737913,24.5655007 55.9682332,27.7342852 57.2524324,29.3452323 C55.9857495,30.9319712 53.3453262,34.033319 49.7773985,37.1351609 C44.6684073,41.5768443 37.6579831,46.0197628 30.0561707,46.0197628 C22.2567798,46.0197628 15.0980185,41.2543585 10.4657636,37.2565717 C6.83830517,34.1259519 4.14374073,30.9570438 2.85990902,29.3464674 C4.12659194,27.7597284 6.76713771,24.6585041 10.3350654,21.5565387 C15.4439341,17.1148553 22.4543583,12.6719368 30.0561707,12.6719368 L30.0561707,12.6719368 Z" id="Shape" fill="#787878"></path>
                </g>
            </g>
        </g>
    </g>
</svg>