<?xml version="1.0" encoding="UTF-8"?>
<svg width="20px" height="24px" viewBox="0 0 20 24" version="1.1" xmlns="http://www.w3.org/2000/svg" xmlns:xlink="http://www.w3.org/1999/xlink">
    <title>Group 5</title>
    <g id="Final" stroke="none" stroke-width="1" fill="none" fill-rule="evenodd">
        <g id="Offers_desktop05A" transform="translate(-983.000000, -490.000000)" stroke="#9B1E26" stroke-width="2">
            <g id="Group-5" transform="translate(985.000000, 491.000000)">
                <polygon id="Fill-1" points="14.9333333 5 1.06666667 5 0 22 16 22"></polygon>
                <path d="M11.5627299,4.90209361 L11.5627299,4.08137355 C11.5627299,1.83094578 9.86658403,-4.54747351e-13 7.78157439,-4.54747351e-13 C5.70144489,-4.54747351e-13 4.00517998,1.82696295 4.00029984,4.07263702 C3.99958567,4.40693783 4.00018081,4.67931206 4.00172817,4.90209361 L11.5627299,4.90209361 Z" id="Fill-1-Copy"></path>
                <path d="M5.5,8 C5.77620031,8 6,8.22386422 6,8.5 C6,8.77613578 5.77620031,9 5.5,9 C5.22386422,9 5,8.77613578 5,8.5 C5,8.22386422 5.22386422,8 5.5,8 Z M11.4999677,8 C11.6623427,8 11.8065182,8.07743934 11.8979025,8.19727672 C11.9619232,8.2812984 12,8.38616417 12,8.5 C12,8.77613578 11.7761213,9 11.4999677,9 C11.2238787,9 11,8.77613578 11,8.5 C11,8.31575891 11.0997096,8.15494321 11.2480155,8.06821115 C11.3220394,8.02490965 11.4080671,8 11.4999677,8 Z" id="Path-2"></path>
            </g>
        </g>
    </g>
</svg>