<?xml version="1.0" encoding="UTF-8"?>
<svg width="36px" height="33px" viewBox="0 0 36 33" version="1.1" xmlns="http://www.w3.org/2000/svg" xmlns:xlink="http://www.w3.org/1999/xlink">
    <title>Group</title>
    <g id="Final" stroke="none" stroke-width="1" fill="none" fill-rule="evenodd">
        <g id="Offers_desktop05A" transform="translate(-866.000000, -2977.000000)" fill="#FFFFFF" fill-rule="nonzero">
            <g id="Group-72" transform="translate(118.000000, 2871.000000)">
                <g id="Group-42" transform="translate(662.000000, 24.000000)">
                    <g id="Group-49" transform="translate(47.000000, 42.000000)">
                        <g id="Group" transform="translate(39.000000, 40.000000)">
                            <path d="M32.433852,11.4129593 C32.2111561,12.1690728 31.6915324,13.3788544 31.1347928,14.6264417 C31.4688366,15.4959723 31.4317206,16.6301425 30.800749,17.8777298 C30.6522851,18.1801752 30.4667052,18.4826206 30.2440094,18.785066 C29.6872697,19.5789852 28.9078342,20.4107101 28.0912828,21.355852 C28.0170508,21.4314633 27.9799348,21.469269 27.9057029,21.5448803 C27.683007,21.7717144 27.3489632,21.8473257 27.0891514,21.6582974 C26.7551076,21.4314633 26.7179917,21.0156009 26.9778035,20.7131555 C27.0520354,20.6375441 27.1262674,20.5619328 27.1633834,20.4863214 C28.2397467,19.2765398 29.278994,18.1423695 29.7243857,17.272839 C30.5409372,15.647195 29.9841975,14.5886361 29.204762,14.0971623 C28.5737905,13.7191055 27.683007,13.7191055 27.2004993,14.4374134 C26.4952958,15.4959723 25.5302804,16.6301425 24.602381,17.6887014 C23.5260177,18.9362887 22.4496544,20.2594874 21.8557988,21.2802406 C21.1877112,22.4522166 20.2969278,25.2120309 20.1484639,28.0852622 C20.074232,29.4840722 20.037116,31.1097162 20,32.0926638 C20,32.5841376 20.3711598,33 20.8907834,33 L26.4952958,33 C26.9778035,33 27.3489632,32.5841376 27.3489632,32.1304695 L27.3489632,30.5048254 C27.3489632,30.1267687 27.5345431,29.7487119 27.8314709,29.5218779 C29.8357336,28.1230679 31.6915324,26.4218125 32.7678957,25.1742252 C35.0690862,22.4522166 35.8856377,14.3996077 35.9969856,12.0178501 C36.1083336,9.7495096 33.1019395,9.18242447 32.433852,11.4129593 Z" id="Path"></path>
                            <path d="M14.1750041,21.257812 C13.5426584,20.2040259 12.5011478,18.9244285 11.4224404,17.6824663 C10.4925203,16.6286802 9.52540329,15.4996237 8.81866398,14.4458376 C8.3351055,13.6931333 7.44238215,13.6931333 6.81003645,14.1071207 C6.02890352,14.5587433 5.47095142,15.6501646 6.28928116,17.268479 C6.73564283,18.134089 7.77715341,19.2631455 8.85586078,20.4674725 C8.9302544,20.5427429 9.00464801,20.6180133 9.04184481,20.6932838 C9.30222246,20.9567303 9.22782885,21.4083529 8.9302544,21.6341642 C8.66987675,21.7847051 8.3351055,21.7470699 8.11192466,21.5212586 C8.03753105,21.4459881 8.00033424,21.4083529 7.92594063,21.3330825 C7.10761089,20.3545668 6.32647797,19.4889568 5.76852587,18.7362524 C5.54534504,18.4351707 5.359361,18.0964537 5.21057378,17.8330072 C4.57822808,16.591045 4.54103127,15.4619885 4.87580252,14.5963785 C4.31785043,13.3167811 3.79709515,12.1500893 3.57391431,11.397385 C2.9043718,9.17690712 -0.1085695,9.74143539 0.0030209182,12.1124541 C0.114611337,14.4834728 0.970137878,22.4997742 3.23914305,25.2095099 C4.28065363,26.4514721 6.17769074,28.1074217 8.18631827,29.53756 C8.48389272,29.7633713 8.66987675,30.1020882 8.66987675,30.5160756 L8.66987675,32.13439 C8.66987675,32.6236478 9.07904162,33 9.52540329,33 L15.142121,33 C15.6256795,33 16.0348444,32.5860126 15.9976476,32.0967548 C15.9604508,31.1182391 15.923254,29.4999247 15.8488603,28.1074217 C15.7372699,25.1718747 14.8817434,22.4245038 14.1750041,21.257812 Z" id="Path"></path>
                            <path d="M16,14 C14.6794793,12.5823755 12.7353793,9.97701149 12.7353793,6.83524904 C12.7353793,6.06896552 12.8454227,5.37931034 13.0288283,4.68965517 C11.4515397,4.07662835 9.80088878,4 8.84717936,4 C8.37032465,4 8.00351333,4.38314176 8.00351333,4.88122605 C7.9668322,6.4137931 8.18691899,9.70881226 10.131019,11.7394636 C11.818351,13.5402299 14.3860302,13.9616858 16,14 Z" id="Path"></path>
                            <path d="M20,14 C21.6139698,13.9230769 24.2183301,13.5384615 25.868981,11.7692308 C27.813081,9.73076923 28.0331678,6.42307692 27.9964867,4.88461538 C27.9964867,4.38461538 27.6296754,4 27.1528206,4 C26.1991112,4 24.5484603,4.07692308 22.9711717,4.69230769 C23.1545773,5.38461538 23.2646207,6.07692308 23.2646207,6.84615385 C23.2646207,9.96153846 21.3205207,12.5769231 20,14 Z" id="Path"></path>
                            <path d="M18.6439024,0.270386266 C18.2926829,-0.0901287554 17.7073171,-0.0901287554 17.3560976,0.270386266 C16.2243902,1.39198856 14,3.99570815 14,7 C14,10.0042918 16.2243902,12.6080114 17.3560976,13.7296137 C17.7073171,14.0901288 18.2926829,14.0901288 18.6439024,13.7296137 C19.7756098,12.6080114 22,10.0042918 22,7 C22,3.95565093 19.7756098,1.39198856 18.6439024,0.270386266 Z" id="Path"></path>
                        </g>
                    </g>
                </g>
            </g>
        </g>
    </g>
</svg>