<?xml version="1.0" encoding="UTF-8"?>
<svg width="13px" height="26px" viewBox="0 0 13 26" version="1.1" xmlns="http://www.w3.org/2000/svg" xmlns:xlink="http://www.w3.org/1999/xlink">
    <title>Shape</title>
    <g id="Final" stroke="none" stroke-width="1" fill="none" fill-rule="evenodd">
        <g id="Offers_desktop05A" transform="translate(-1087.000000, -2975.000000)" fill="#FFFFFF" fill-rule="nonzero">
            <g id="Group-72" transform="translate(118.000000, 2871.000000)">
                <g id="Group-48" transform="translate(865.000280, 42.000093)">
                    <g id="Group-49" transform="translate(67.999720, 30.999907)">
                        <path d="M45.9969826,38.7056277 L45.9969826,33.1067821 C46.1872947,33.0519481 46.3356262,32.8787879 46.3356262,32.6681097 L46.3356262,31.4588745 C46.3356262,31.2020202 46.1397167,31 45.8934305,31 L39.1093639,31 C38.8630776,31 38.6671681,31.2020202 38.6671681,31.4588745 L38.6671681,32.6681097 C38.6671681,32.8787879 38.8127009,33.0519481 39.0058117,33.1038961 L39.0058117,38.7027417 C37.3405808,38.7518038 36,40.1544012 36,41.8888889 L36,52.0851371 C36,53.4906205 36.8955864,54.6767677 38.1242189,55.1010101 L38.1242189,55.7070707 C38.1242189,56.4199134 38.6251875,57 39.2437018,57 C39.8622161,57 40.3659835,56.4199134 40.3659835,55.7070707 L40.3659835,55.2741703 L44.6340122,55.2741703 L44.6340122,55.7041847 C44.6340122,56.4170274 45.1377795,56.997114 45.7534951,56.997114 C46.3692107,56.997114 46.872978,56.4170274 46.872978,55.7041847 L46.872978,55.0981241 C48.1044093,54.6767677 49,53.4877345 49,52.0822511 L49,41.8888889 C49.0027943,40.1544012 47.6622135,38.7518038 45.9969826,38.7056277 Z M45,45 L45,48 L41,48 L41,45 L45,45 Z M40,33 L45,33 L45,39 L40,39 L40,33 Z" id="Shape"></path>
                    </g>
                </g>
            </g>
        </g>
    </g>
</svg>