<?xml version="1.0" encoding="UTF-8"?>
<svg width="17px" height="31px" viewBox="0 0 17 31" version="1.1" xmlns="http://www.w3.org/2000/svg" xmlns:xlink="http://www.w3.org/1999/xlink">
    <title>Shape</title>
    <g id="Final" stroke="none" stroke-width="1" fill="none" fill-rule="evenodd">
        <g id="Offers_desktop05A" transform="translate(-468.000000, -2979.000000)" fill="#FFFFFF" fill-rule="nonzero">
            <g id="Group-72" transform="translate(118.000000, 2871.000000)">
                <g id="Group-37" transform="translate(260.000000, 24.000000)">
                    <g id="Group-49" transform="translate(45.000000, 42.000000)">
                        <path d="M62,42 L62,71.7253736 C61.9635893,72.4395458 61.3712741,73 60.6529128,73 C59.9345515,73 59.3422362,72.4395458 59.3058256,71.7253736 L59.3058256,61.5637967 L57.9951461,61.2186345 C57.4075004,61.0609244 56.9994106,60.5301333 57,59.924276 L57,46.9772397 C57.0008333,44.9520796 58.2350645,43.1296369 60.120666,42.3693236 L60.120666,42.3693236 C60.7173439,42.126794 61.3554983,42.0013849 62,42 Z M52.2847682,42 L52.2847682,51.8027202 C52.2548168,52.340087 51.8315651,52.7597362 51.3195364,52.7597362 C50.8075078,52.7597362 50.384256,52.340087 50.3543046,51.8027202 L49.9304636,42 L49.0728477,42 L48.6423841,51.8027202 C48.6423841,52.3621814 48.2109764,52.8157144 47.6788079,52.8157144 C47.1466395,52.8157144 46.7152318,52.3621814 46.7152318,51.8027202 L46.7152318,42 L45.8576159,42 L45,52.80179 C45.0007895,54.5997072 45.9779745,56.2393336 47.5165563,57.0243396 C47.9500869,57.2515182 48.2216052,57.7195912 48.2152318,58.2287932 L48.2152318,71.7144956 C48.2500028,72.4347628 48.8156443,73 49.5016556,73 C50.187667,73 50.7533085,72.4347628 50.7880795,71.7144956 L50.7880795,58.2287932 C50.7844176,57.7230984 51.0539187,57.2589888 51.4834437,57.0313018 C53.0220255,56.2462958 53.9992105,54.6066694 54,52.8087522 L53.1423841,42 L52.2847682,42 Z" id="Shape"></path>
                    </g>
                </g>
            </g>
        </g>
    </g>
</svg>