<?xml version="1.0" encoding="UTF-8"?>
<svg width="34px" height="19px" viewBox="0 0 34 19" version="1.1" xmlns="http://www.w3.org/2000/svg" xmlns:xlink="http://www.w3.org/1999/xlink">
    <title>Group</title>
    <g id="Final" stroke="none" stroke-width="1" fill="none" fill-rule="evenodd">
        <g id="Offers_desktop05A" transform="translate(-267.000000, -2982.000000)" fill="#FFFFFF" fill-rule="nonzero">
            <g id="Group-72" transform="translate(118.000000, 2871.000000)">
                <g id="Group-33" transform="translate(58.000000, 42.000093)">
                    <g id="Group-49" transform="translate(66.000000, 37.999907)">
                        <g id="Group" transform="translate(25.000000, 31.000000)">
                            <path d="M16.7907997,0.050524086 C16.6111725,-0.016841362 16.4128197,-0.016841362 16.2331926,0.050524086 L0,6.07094022 L0.915192776,6.41304465 L16.2942054,12.0922894 C16.4738326,12.1596548 16.6721854,12.1596548 16.8518126,12.0922894 L31.079758,6.80864179 C31.3929338,6.6947662 31.6010479,6.3998196 31.6010479,6.0698517 C31.6010479,5.7398838 31.3929338,5.44493721 31.079758,5.33106161 L16.7907997,0.050524086 Z" id="Path"></path>
                            <path d="M7.12686718,10.52514 C7.00496832,10.4809851 6.86892466,10.4987254 6.76276743,10.5726191 C6.6566102,10.6465128 6.59382571,10.7671724 6.59472474,10.8955458 L6.59472474,15.4256306 C6.59472474,17.4085923 11.0096747,19 16.5143549,19 C20.2395983,19 23.449692,18.2591884 25.1693738,17.1856025 C25.9738629,16.6721348 26.4465554,16.0488827 26.4465554,15.4259416 L26.4465554,10.832412 C26.4465554,10.703644 26.382737,10.5830558 26.2755847,10.509889 C26.1684324,10.4367222 26.0317512,10.4203309 25.9100195,10.4660493 L16.650533,13.8926917 C16.5614257,13.9263841 16.462881,13.9263841 16.3737737,13.8926917 L7.12686718,10.52514 Z M32.5770888,7.12773193 C32.4324336,7.17387421 32.3278517,7.29863246 32.308821,7.44775508 L32.1087995,9.01801446 L31.4275941,13.7878834 C31.4113373,13.9004449 31.445363,14.0144355 31.5208264,14.1002241 C31.5962898,14.1860127 31.7057371,14.2351256 31.8207182,14.2347978 L33.6045579,14.2347978 C33.7191381,14.2346488 33.8280358,14.1854255 33.9031239,14.09984 C33.9782119,14.0142546 34.0121271,13.9006997 33.9961094,13.7885054 L33.0934966,7.44402303 C33.0781477,7.32889975 33.011361,7.226666 32.9115463,7.16550238 C32.8117316,7.10433875 32.6894274,7.09070305 32.5783468,7.12835394 L32.5770888,7.12773193 Z" id="Shape"></path>
                        </g>
                    </g>
                </g>
            </g>
        </g>
    </g>
</svg>