<?xml version="1.0" encoding="UTF-8"?>
<svg width="22px" height="22px" viewBox="0 0 22 22" version="1.1" xmlns="http://www.w3.org/2000/svg" xmlns:xlink="http://www.w3.org/1999/xlink">
    <title>icons / chart</title>
    <g id="Page-1" stroke="none" stroke-width="1" fill="none" fill-rule="evenodd">
        <g id="Insurance-Calculator-Screen-1" transform="translate(-161.000000, -592.000000)">
            <g id="Group-6" transform="translate(0.000000, 107.000000)">
                <g id="Group-7" transform="translate(111.000000, 76.735808)">
                    <g id="Group-84" transform="translate(49.000000, 407.264192)">
                        <rect id="Rectangle-Copy-12" x="0" y="0" width="24" height="24"></rect>
                        <path d="M22.8373633,11.3995976 C21.9753242,6.44878125 17.8044336,2.65197656 12.6875,2.351625 L12.6875,1.64453125 C12.6875,1.28857812 12.3989219,1 12.0429688,1 C11.6870156,1 11.3984375,1.28857812 11.3984375,1.64453125 L11.3984375,2.35153906 C6.29907813,2.64935547 2.03326954,6.42648047 1.16280859,11.3993399 C1.03265625,11.630125 1,11.8442383 1,12 C1,12.3559531 1.28857812,12.6445312 1.64453125,12.6445312 C1.88829297,12.6445312 2.31329687,12.4736016 2.368125,12.0463203 C2.37336719,12.0053711 2.37951171,11.9647656 2.38526953,11.9239883 C2.67144141,11.6997344 3.519,11.3554688 4.8671875,11.3554688 C6.44083203,11.3554688 7.3331211,11.8246445 7.44578516,12.0243203 C7.45760156,12.3355859 7.69354296,12.6262265 8.08958594,12.6452188 C8.4441211,12.6615899 8.74464453,12.3888671 8.76316406,12.0350195 C8.99850391,11.8263633 9.90046094,11.4588945 11.3984375,11.3736875 L11.3984375,20.421875 C11.3984375,21.8434531 12.5549844,23 13.9765625,23 C15.3981406,23 16.5546875,21.8434531 16.5546875,20.421875 L16.5546875,19.7773438 C16.5546875,19.4213906 16.2661094,19.1328125 15.9101562,19.1328125 C15.5542031,19.1328125 15.265625,19.4213906 15.265625,19.7773438 L15.265625,20.421875 C15.265625,21.1326641 14.6873515,21.7109375 13.9765625,21.7109375 C13.2657735,21.7109375 12.6875,21.132664 12.6875,20.421875 L12.6875,11.3742031 C14.143668,11.459625 15.0121524,11.8200899 15.2361485,12.0249649 C15.2362344,12.0271563 15.2363633,12.0293047 15.2364922,12.0314961 C15.2526055,12.3768789 15.5376601,12.6459921 15.8798204,12.6459921 C16.2860039,12.6459921 16.5419688,12.3469296 16.5542149,12.0243633 C16.6668789,11.8246445 17.559168,11.3554688 19.1328125,11.3554688 C20.481043,11.3554688 21.3286016,11.6997344 21.6147305,11.9239883 C21.6201016,11.9618008 21.6258164,11.9994414 21.6307579,12.0374258 C21.6833086,12.4446406 22.0930156,12.6445312 22.3554688,12.6445312 C22.7114219,12.6445312 23,12.3559531 23,12 C23,11.8442812 22.9673438,11.6302969 22.8373633,11.3995976 Z M7.57971875,10.574039 C6.78526954,10.2053242 5.75659765,10.0664062 4.8671875,10.0664062 C4.09873437,10.0664062 3.36147656,10.1668671 2.74491796,10.3525351 C3.75915234,7.18732812 6.3715664,4.75955079 9.59456641,3.93021094 C8.38246094,5.70353125 7.79928906,8.43217579 7.57971875,10.574039 Z M12.0429687,10.0664062 C11.0252539,10.0664062 9.82719921,10.1943242 8.87939453,10.5401367 C9.35428515,6.20115234 10.8734024,3.62109375 12.0429687,3.62109375 C13.2555469,3.62109375 14.671625,6.33775 15.1211211,10.5250976 C14.2761406,10.2136601 13.1571484,10.0664062 12.0429687,10.0664062 Z M19.1328125,10.0664062 C18.2471836,10.0664062 17.2189844,10.2041211 16.4221289,10.5731796 C16.210336,8.45108204 15.6527734,5.70701172 14.470875,3.9313711 C17.6605312,4.76187109 20.2489258,7.18930469 21.2567149,10.3530078 C20.6398125,10.167082 19.9019531,10.0664062 19.1328125,10.0664062 Z" id="Shape-Copy-4" fill="#767676" fill-rule="nonzero" transform="translate(12.000000, 12.000000) scale(-1, 1) translate(-12.000000, -12.000000) "></path>
                    </g>
                </g>
            </g>
        </g>
    </g>
</svg>