<?xml version="1.0" encoding="UTF-8"?>
<svg width="22px" height="22px" viewBox="0 0 22 22" version="1.1" xmlns="http://www.w3.org/2000/svg" xmlns:xlink="http://www.w3.org/1999/xlink">
    <title>icons / chart copy</title>
    <g id="Page-1" stroke="none" stroke-width="1" fill="none" fill-rule="evenodd">
        <g id="Insurance-Calculator-Screen-1" transform="translate(-161.000000, -651.000000)" stroke="#787878" stroke-width="2">
            <g id="Group-6" transform="translate(0.000000, 107.000000)">
                <g id="Group-7" transform="translate(111.000000, 76.735808)">
                    <g id="icons-/-chart-copy" transform="translate(49.000000, 466.264192)">
                        <path d="M12.4728868,2.32942647 L15.0168626,8.6434338 L21.5297691,9.23015742 C21.9814839,9.27106659 22.1652497,9.86209643 21.8223571,10.1732214 L16.8822395,14.6613879 L18.3626322,21.338195 C18.4652947,21.8021911 17.985861,22.167144 17.5977969,21.9206124 L12.0006395,18.3808927 L6.40348215,21.9206124 C6.01439142,22.1660674 5.53598436,21.8011146 5.63864682,21.338195 L7.1190395,14.6613879 L2.17789527,10.1721449 C1.83500265,9.86101987 2.01774183,9.26999003 2.47048328,9.22908086 L8.98338979,8.64235725 L11.5273656,2.32942647 C11.703945,1.89019118 12.2963074,1.89019118 12.4728868,2.32942647 Z" id="Path"></path>
                    </g>
                </g>
            </g>
        </g>
    </g>
</svg>