<svg xmlns="http://www.w3.org/2000/svg" width="33" height="33"><defs><linearGradient id="a" x1=".5" x2=".5" y2="1" gradientUnits="objectBoundingBox"><stop offset="0" stop-color="#6c9ff3"/><stop offset="1" stop-color="#25499b"/></linearGradient></defs><g data-name="CTA Icon" transform="translate(-157.5 -466.17)"><circle data-name="Ellipse 102" cx="16" cy="16" r="16" transform="translate(158 466.67)" stroke="rgba(0,0,0,0)" stroke-miterlimit="10" fill="url(#a)"/><path data-name="Path 419" d="M165.422 483.583h15.493l-5.128 4.568a.573.573 0 0 0 0 .877.758.758 0 0 0 .984 0l6.322-5.625a.573.573 0 0 0 0-.877l-6.316-5.627a.758.758 0 0 0-.984 0 .573.573 0 0 0 0 .877l5.128 4.568h-15.499a.624.624 0 1 0 0 1.24Z" fill="#fff"/></g></svg>