<svg xmlns="http://www.w3.org/2000/svg" xmlns:xlink="http://www.w3.org/1999/xlink" width="56" height="56" viewBox="0 0 56 56">
  <defs>
    <clipPath id="clip-path">
      <rect id="Rectangle_544" data-name="Rectangle 544" width="56" height="56" transform="translate(718 308)" fill="#fff"/>
    </clipPath>
    <linearGradient id="linear-gradient" x1="0.5" x2="0.5" y2="1" gradientUnits="objectBoundingBox">
      <stop offset="0" stop-color="#6c9ff3"/>
      <stop offset="1" stop-color="#25499b"/>
    </linearGradient>
  </defs>
  <g id="Business_Loan" data-name="Business Loan" transform="translate(-718 -308)" clip-path="url(#clip-path)">
    <g id="noun_Briefcase_1799212" transform="translate(715.559 304.897)">
      <g id="Group_1307" data-name="Group 1307" transform="translate(10.441 11.103)">
        <path id="Path_663" data-name="Path 663" d="M40.888,18.273a12.116,12.116,0,0,0-4.753-4.719V11.1H24.662v2.45a12.124,12.124,0,0,0-4.754,4.721H10.441V50.251H50.354V18.273Zm-15.07-6.016H34.98V14.4H25.817Zm-1.155,2.628v.668H36.135v-.667a10.994,10.994,0,0,1,3.415,3.387h-18.3A10.994,10.994,0,0,1,24.662,14.885ZM49.2,49.1H11.6V29.023h5.025A22.391,22.391,0,0,0,30.4,33.38a22.391,22.391,0,0,0,13.777-4.357H49.2V49.1Zm0-21.228H43.766l-.16.13A21.118,21.118,0,0,1,30.4,32.225,21.118,21.118,0,0,1,17.191,28l-.16-.13H11.6v-8.44H49.2v8.44Z" transform="translate(-10.441 -11.103)" fill="url(#linear-gradient)"/>
        <path id="Path_664" data-name="Path 664" d="M39.447,41.653h4.136a2.7,2.7,0,0,0,0-5.394H39.447a2.7,2.7,0,0,0,0,5.394Zm2.645-4.24h1.491a1.542,1.542,0,0,1,0,3.085H42.091Zm-2.645,0h1.49V40.5h-1.49a1.542,1.542,0,0,1,0-3.085Z" transform="translate(-21.558 -21.732)" fill="url(#linear-gradient)"/>
      </g>
    </g>
  </g>
</svg>
