<svg xmlns="http://www.w3.org/2000/svg" width="56" height="56"><defs><linearGradient id="b" x1=".459" y1=".409" x2="1.107" y2="1.167" gradientUnits="objectBoundingBox"><stop offset="0" stop-color="#ffdf66"/><stop offset="1" stop-color="#ba5b03"/></linearGradient><clipPath id="a"><path data-name="Rectangle 505" transform="translate(279 374)" fill="#fff" d="M0 0h56v56H0z"/></clipPath></defs><g data-name="Icon 2 Section 1" transform="translate(-279 -374)" clip-path="url(#a)"><g data-name="Group 975" transform="translate(286 380)" fill="url(#b)"><path data-name="Path 524" d="M36.7 42.818a1 1 0 0 1-.155-.012 1.02 1.02 0 0 1-.749-.535L26.05 23.584 14.274 34.097v5.662a1.02 1.02 0 0 1-.454.848l-3.058 2.039a1.02 1.02 0 0 1-1.546-.569l-1.884-6.591-6.593-1.883a1.02 1.02 0 0 1-.568-1.547l2.039-3.059a1.02 1.02 0 0 1 .848-.454h5.66l10.517-11.777L.549 7.019A1.02 1.02 0 0 1 .3 5.397l3.057-3.062a1.02 1.02 0 0 1 .969-.268l22.918 5.73 5.189-5.811a5.949 5.949 0 1 1 8.4 8.4l-5.811 5.189 5.73 22.922a1.02 1.02 0 0 1-.268.968l-3.059 3.059a1.02 1.02 0 0 1-.725.294ZM2.643 32.026l5.794 1.655a1.02 1.02 0 0 1 .7.7l1.656 5.793 1.443-.961v-5.571a1.02 1.02 0 0 1 .341-.761L25.669 21.19a1.02 1.02 0 0 1 1.583.289l9.712 18.618 1.669-1.668-5.74-22.956a1.02 1.02 0 0 1 .306-1.008l6.276-5.6A3.91 3.91 0 1 0 33.95 3.34l-5.6 6.272a1.02 1.02 0 0 1-1.008.306L4.391 4.184 2.722 5.852l18.617 9.713a1.02 1.02 0 0 1 .289 1.582L9.936 30.243a1.02 1.02 0 0 1-.761.341H3.6Z"/><path data-name="Path 525" d="M31.607 40.778a1.02 1.02 0 0 1-.721-1.74l10.2-10.2a1.02 1.02 0 1 1 1.442 1.442l-10.2 10.2a1.02 1.02 0 0 1-.721.298Z"/><path data-name="Path 526" d="M23.96 39.248a1.02 1.02 0 0 1-.721-1.74l10.2-10.2a1.02 1.02 0 1 1 1.442 1.442l-10.2 10.2a1.02 1.02 0 0 1-.721.298Z"/><path data-name="Path 527" d="M1.02 14.27a1.02 1.02 0 0 1-.686-1.774l11.215-10.2A1.021 1.021 0 1 1 12.92 3.81L1.7 14.005a1.02 1.02 0 0 1-.685.265Z"/><path data-name="Path 528" d="M10.706 18.858a1.02 1.02 0 0 1-.721-1.74l7.646-7.646a1.02 1.02 0 1 1 1.442 1.442l-7.647 7.645a1.02 1.02 0 0 1-.721.3Z"/></g></g></svg>