<svg xmlns="http://www.w3.org/2000/svg" width="56" height="56"><defs><linearGradient id="b" x1=".459" y1=".409" x2="1.107" y2="1.167" gradientUnits="objectBoundingBox"><stop offset="0" stop-color="#ffdf66"/><stop offset="1" stop-color="#ba5b03"/></linearGradient><clipPath id="a"><path data-name="Rectangle 504" transform="translate(598 374)" fill="#fff" d="M0 0h56v56H0z"/></clipPath></defs><g data-name="Icon 4 Section 1" transform="translate(-598 -374)" clip-path="url(#a)"><path data-name="Path 529" d="M38.237 12a5.2 5.2 0 0 1 5.112 4.247 5.2 5.2 0 0 1 4.16 4.16 5.2 5.2 0 0 1 4.247 5.112v20.8a5.2 5.2 0 0 1-5.2 5.2H11.2a5.2 5.2 0 0 1-5.2-5.2v-20.8a5.2 5.2 0 0 1 4.247-5.112 5.2 5.2 0 0 1 4.16-4.16A5.2 5.2 0 0 1 19.373 12h.146Zm8.319 10.4H11.2a3.12 3.12 0 0 0-3.118 3v20.917a3.12 3.12 0 0 0 3 3.118h35.474a3.12 3.12 0 0 0 3.118-3V25.518a3.12 3.12 0 0 0-3-3.118ZM17.439 42.157a1.04 1.04 0 0 1 0 2.08h-5.2a1.04 1.04 0 1 1 0-2.08Zm18.718 0a1.04 1.04 0 1 1 0 2.08h-5.2a1.04 1.04 0 1 1 0-2.08Zm-9.359 0a1.04 1.04 0 1 1 0 2.08H21.6a1.04 1.04 0 1 1 0-2.08Zm18.718 0a1.04 1.04 0 1 1 0 2.08h-5.2a1.04 1.04 0 1 1 0-2.08ZM18.479 27.6a3.12 3.12 0 0 1 3.12 3.12v4.16a3.12 3.12 0 0 1-3.12 3.12h-4.16a3.12 3.12 0 0 1-3.12-3.12v-4.16a3.12 3.12 0 0 1 3.12-3.12Zm1.04 6.239h-6.24v1.04a1.04 1.04 0 0 0 .962 1.037h4.238a1.04 1.04 0 0 0 1.037-.962v-1.118Zm-1.04-4.16h-4.16a1.04 1.04 0 0 0-1.037.962v1.118h6.239v-1.04a1.04 1.04 0 0 0-.962-1.037ZM45.516 27.6a1.04 1.04 0 1 1 0 2.08h-5.2a1.04 1.04 0 0 1 0-2.08ZM42.4 18.239H15.359a3.121 3.121 0 0 0-2.942 2.08h32.921a3.121 3.121 0 0 0-2.825-2.078Zm-4.16-4.16H19.519a3.121 3.121 0 0 0-2.942 2.08h24.6a3.121 3.121 0 0 0-2.825-2.078Z" transform="translate(597 370)" fill="url(#b)"/></g></svg>