<svg xmlns="http://www.w3.org/2000/svg" xmlns:xlink="http://www.w3.org/1999/xlink" width="80" height="80" viewBox="0 0 80 80">
  <defs>
    <clipPath id="clip-path">
      <rect id="Rectangle_557" data-name="Rectangle 557" width="80" height="80" transform="translate(764 462)" fill="#fff"/>
    </clipPath>
    <linearGradient id="linear-gradient" x1="0.5" x2="0.5" y2="1" gradientUnits="objectBoundingBox">
      <stop offset="0" stop-color="#6c9ff3"/>
      <stop offset="1" stop-color="#25499b"/>
    </linearGradient>
  </defs>
  <g id="Mask_Group_179" data-name="Mask Group 179" transform="translate(-764 -462)" clip-path="url(#clip-path)">
    <g id="noun_dollar_3679430" transform="translate(763 462.501)">
      <path id="Path_673" data-name="Path 673" d="M74.86,56.262a1.392,1.392,0,0,0-.059-.236,1.351,1.351,0,0,0-.054-.216,1.317,1.317,0,0,0-.082-.109c-.012-.019-.012-.041-.025-.06l-1.563-2.306A9.454,9.454,0,0,0,66.8,49.314a8.494,8.494,0,0,0,.141-2.723C65.738,36.5,61.872,28.6,54.467,21.1l3.141-10.769A1.435,1.435,0,0,0,56.23,8.5a4.928,4.928,0,0,0-3.424,1.36,2.17,2.17,0,0,1-3.2,0,4.989,4.989,0,0,0-6.848,0,2.161,2.161,0,0,1-3.2,0A4.917,4.917,0,0,0,36.138,8.5a1.435,1.435,0,0,0-1.378,1.837L37.9,21.116c-5.635,5.706-9.094,11.413-11.026,18.2L15.348,36.229l-.189-.049a12.877,12.877,0,0,0-3.243-.413H7.435a1.435,1.435,0,0,0,0,2.87h4.481a9.983,9.983,0,0,1,2.509.318l31.625,8.457a3.358,3.358,0,0,1,2.619,3.43,2,2,0,0,1-1.492,1.742,16.917,16.917,0,0,1-4.973-.361L31.5,49.767a1.435,1.435,0,1,0-.642,2.8l10.706,2.457a19.793,19.793,0,0,0,5.794.424c.027,0,.052.013.08.013.046,0,.093-.018.139-.023a19.444,19.444,0,0,0,2.473-.345L63.8,52.173a6.776,6.776,0,0,1,1.056-.134l.007,0h.01A6.618,6.618,0,0,1,70.7,54.945l.616.91-18.682,8.9a26.473,26.473,0,0,1-15.369,2.3L15.391,58.232a12.849,12.849,0,0,0-4.832-.938H7.435a1.435,1.435,0,0,0,0,2.87h3.124a10,10,0,0,1,3.759.729L36.26,69.746a2.772,2.772,0,0,0,.472.118,29.587,29.587,0,0,0,4.525.35,29.254,29.254,0,0,0,12.614-2.862l19.993-9.53a1.437,1.437,0,0,0,.392-.186,1592.178,1592.178,0,0,1,.3-.3,1.886,1.886,0,0,0,.262-.5,1.4,1.4,0,0,0,.045-.3A1.366,1.366,0,0,0,74.86,56.262Zm-33.7-42.827a4.928,4.928,0,0,0,3.424-1.36,2.166,2.166,0,0,1,3.2,0,4.928,4.928,0,0,0,3.424,1.36,4.621,4.621,0,0,0,2.755-.843L51.805,19.98H40.562C39.045,13.035,39.892,13.436,41.155,13.436ZM51.389,51.872c.058-.226-1.211-5.889-3.77-6.952,1.667-.594-5.36-2.072-4.752-1.33L29.65,40.055c1.831-6.392,5.12-11.777,10.551-17.2H52.168c7.2,7.178,10.771,14.411,11.921,24.074a5.569,5.569,0,0,1-.231,2.354c-.216.031-.432.042-.648.088Z" fill="url(#linear-gradient)"/>
    </g>
  </g>
</svg>
