<svg xmlns="http://www.w3.org/2000/svg" xmlns:xlink="http://www.w3.org/1999/xlink" width="80" height="80" viewBox="0 0 80 80">
  <defs>
    <clipPath id="clip-path">
      <rect id="Rectangle_556" data-name="Rectangle 556" width="80" height="80" transform="translate(1173 576)" fill="#fff"/>
    </clipPath>
    <linearGradient id="linear-gradient" x1="0.5" x2="0.5" y2="1" gradientUnits="objectBoundingBox">
      <stop offset="0" stop-color="#6c9ff3"/>
      <stop offset="1" stop-color="#25499b"/>
    </linearGradient>
  </defs>
  <g id="Mask_Group_178" data-name="Mask Group 178" transform="translate(-1173 -576)" clip-path="url(#clip-path)">
    <g id="Group_1490" data-name="Group 1490" transform="translate(1179 587)">
      <g id="Group_976" data-name="Group 976">
        <path id="Path_529" data-name="Path 529" d="M53.255,12a7.624,7.624,0,0,1,7.494,6.225,7.629,7.629,0,0,1,6.1,6.1,7.624,7.624,0,0,1,6.225,7.494V62.3a7.622,7.622,0,0,1-7.622,7.622H13.622A7.622,7.622,0,0,1,6,62.3V31.817a7.624,7.624,0,0,1,6.225-7.494,7.629,7.629,0,0,1,6.1-6.1A7.624,7.624,0,0,1,25.6,12l.213,0ZM65.45,27.244H13.622a4.573,4.573,0,0,0-4.57,4.4l0,.171V62.3a4.573,4.573,0,0,0,4.4,4.57l.171,0H65.45a4.573,4.573,0,0,0,4.57-4.4l0-.171V31.817a4.573,4.573,0,0,0-4.4-4.57ZM22.768,56.207a1.524,1.524,0,0,1,0,3.049H15.146a1.524,1.524,0,1,1,0-3.049Zm27.439,0a1.524,1.524,0,1,1,0,3.049H42.585a1.524,1.524,0,1,1,0-3.049Zm-13.719,0a1.524,1.524,0,1,1,0,3.049H28.865a1.524,1.524,0,1,1,0-3.049Zm27.439,0a1.524,1.524,0,1,1,0,3.049H56.3a1.524,1.524,0,1,1,0-3.049ZM24.292,34.865a4.573,4.573,0,0,1,4.573,4.573v6.1a4.573,4.573,0,0,1-4.573,4.573h-6.1a4.573,4.573,0,0,1-4.573-4.573v-6.1a4.573,4.573,0,0,1,4.573-4.573Zm1.524,9.146H16.671v1.524a1.524,1.524,0,0,0,1.411,1.52l.114,0h6.1a1.524,1.524,0,0,0,1.52-1.411l0-.114V44.012Zm-1.524-6.1h-6.1a1.524,1.524,0,0,0-1.52,1.411l0,.114v1.524h9.146V39.439a1.524,1.524,0,0,0-1.411-1.52Zm39.634-3.049a1.524,1.524,0,1,1,0,3.049H56.3a1.524,1.524,0,0,1,0-3.049ZM59.353,21.146H19.719A4.575,4.575,0,0,0,15.406,24.2H63.666a4.576,4.576,0,0,0-4.142-3.046Zm-6.1-6.1H25.817A4.575,4.575,0,0,0,21.5,18.1H57.568a4.576,4.576,0,0,0-4.142-3.046Z" transform="translate(-6 -12)" fill="url(#linear-gradient)"/>
      </g>
    </g>
  </g>
</svg>
