<svg xmlns="http://www.w3.org/2000/svg" xmlns:xlink="http://www.w3.org/1999/xlink" width="56" height="56" viewBox="0 0 56 56">
  <defs>
    <clipPath id="clip-path">
      <rect id="Rectangle_540" data-name="Rectangle 540" width="56" height="56" transform="translate(718 308)" fill="#fff"/>
    </clipPath>
    <linearGradient id="linear-gradient" x1="0.5" x2="0.5" y2="1" gradientUnits="objectBoundingBox">
      <stop offset="0" stop-color="#6c9ff3"/>
      <stop offset="1" stop-color="#25499b"/>
    </linearGradient>
  </defs>
  <g id="Rate_of_Interest" data-name="Rate of Interest" transform="translate(-718 -308)" clip-path="url(#clip-path)">
    <g id="Group_1477" data-name="Group 1477" transform="translate(726 315)">
      <path id="Path_284" data-name="Path 284" d="M54.615,32.931h-.944l.3-.59a6.183,6.183,0,0,0,.649-2.75V22.94a6.138,6.138,0,0,0-.354-2.057L48.477,4.59a2.735,2.735,0,1,0-5.272,1.456l2.633,8.012a2.727,2.727,0,0,0-2.541,2.01l-2.147,8.016a8.839,8.839,0,0,0,.815,6.612l1.241,2.234h-.888a.683.683,0,0,0-.683.683v4.1a.683.683,0,0,0,.683.683H43v4.1a.683.683,0,0,0,.683.683h9.565a.683.683,0,0,0,.683-.683V38.4h.683a.683.683,0,0,0,.683-.683v-4.1A.683.683,0,0,0,54.615,32.931Zm-11.457-2.9a7.48,7.48,0,0,1-.69-5.6l2.148-8.015a1.366,1.366,0,0,1,1.919-.875l.01,0a1.366,1.366,0,0,1,.711,1.578l-1.608,6a.683.683,0,1,0,1.32.353l1.608-6a2.693,2.693,0,0,0-1.157-2.99l-2.9-8.838a1.36,1.36,0,0,1,1.321-1.722A1.389,1.389,0,0,1,47.173,5l5.8,16.345a4.782,4.782,0,0,1,.273,1.6V29.59a4.8,4.8,0,0,1-.5,2.139l-.6,1.2H44.768Zm9.407,11.781h-8.2V38.4h8.2Zm1.366-4.783H43V34.3H53.932Z" transform="translate(-14.304 -1.432)" fill="url(#linear-gradient)"/>
      <path id="Path_286" data-name="Path 286" d="M16.149,24.064,14,16.048a2.727,2.727,0,0,0-2.541-2.011L14.1,5.991A2.734,2.734,0,1,0,8.838,4.518l-5.8,16.345a6.131,6.131,0,0,0-.354,2.056V29.57a6.183,6.183,0,0,0,.649,2.75l.3.59H2.683A.683.683,0,0,0,2,33.594v4.1a.683.683,0,0,0,.683.683h.683v4.1a.683.683,0,0,0,.683.683h9.565a.683.683,0,0,0,.683-.683v-4.1h.683a.683.683,0,0,0,.683-.683v-4.1a.683.683,0,0,0-.683-.683h-.888l1.241-2.234A8.839,8.839,0,0,0,16.149,24.064ZM12.932,41.793h-8.2V38.377h8.2ZM14.3,37.01H3.366V34.277H14.3Zm-.159-7-1.61,2.9H5.155l-.6-1.2a4.8,4.8,0,0,1-.5-2.139V22.92a4.783,4.783,0,0,1,.273-1.6l5.816-16.4A1.366,1.366,0,0,1,12.646,4.6a1.345,1.345,0,0,1,.149,1L9.88,14.473a2.693,2.693,0,0,0-1.157,2.99l1.608,6a.683.683,0,1,0,1.32-.353l-1.608-6a1.366,1.366,0,0,1,.711-1.578l.01,0a1.351,1.351,0,0,1,.245-.092,1.366,1.366,0,0,1,1.673.966l2.148,8.015a7.48,7.48,0,0,1-.69,5.6Z" transform="translate(-2 -1.412)" fill="url(#linear-gradient)"/>
      <path id="Path_285" data-name="Path 285" d="M34.583,15.836a.69.69,0,0,0,1.168-.374l.975-5.852a.69.69,0,0,0-.794-.794l-5.852.975a.69.69,0,0,0-.374,1.168l.994.994-8.124,8.778a.69.69,0,0,0,.019.956l1.95,1.95a.69.69,0,0,0,.488.2h.013a.69.69,0,0,0,.493-.221l8.088-8.739ZM33.1,13.417l-8.088,8.739-.974-.975L32.164,12.4a.69.69,0,0,0-.018-.956l-.516-.515,3.577-.6-.6,3.577L34.1,13.4a.671.671,0,0,0-.5-.2A.69.69,0,0,0,33.1,13.417Z" transform="translate(-8.932 -8.807)" fill="url(#linear-gradient)"/>
      <path id="Path_287" data-name="Path 287" d="M36.758,22a2.758,2.758,0,1,0,2.758,2.758A2.758,2.758,0,0,0,36.758,22Zm0,4.137a1.379,1.379,0,1,1,1.379-1.379A1.379,1.379,0,0,1,36.758,26.137Z" transform="translate(-12.535 -12.903)" fill="url(#linear-gradient)"/>
      <path id="Path_288" data-name="Path 288" d="M24.758,16.516A2.758,2.758,0,1,0,22,13.758,2.758,2.758,0,0,0,24.758,16.516Zm0-4.137a1.379,1.379,0,1,1-1.379,1.379A1.379,1.379,0,0,1,24.758,12.379Z" transform="translate(-8.81 -9.488)" fill="url(#linear-gradient)"/>
    </g>
  </g>
</svg>
