<svg xmlns="http://www.w3.org/2000/svg" width="122.893" height="59.814"><g data-name="select Logo"><g data-name="Path 75" fill="none" stroke-linecap="square" stroke-dasharray="1000 1000"><path d="M4.579.105v1.172h-3.1v1.977h2.49v1.131h-2.49v3.108H.004V.105Z"/><path d="M0 .105h4.582v1.172H1.475v1.977h2.49v1.13h-2.49v3.109H0V.105Z" fill="#FFF"/></g><g data-name="Path 76" fill="none" stroke-linecap="square" stroke-dasharray="1000 1000"><path d="M17.514.105v7.388h-1.475V.105Z"/><path d="M16.041.105h1.475v7.388h-1.475V.105Z" fill="#FFF"/></g><g data-name="Path 77" fill="none" stroke-linecap="square" stroke-dasharray="1000 1000"><path d="m33.166 7.493-1.727-2.878h-.649v2.878h-1.475V.105h2.814a2.781 2.781 0 0 1 1.962.628 2.15 2.15 0 0 1 .675 1.653 2.128 2.128 0 0 1-.466 1.4 2.3 2.3 0 0 1-1.344.753l1.842 2.951ZM30.791 3.6h1.213q1.267 0 1.266-1.119a1.1 1.1 0 0 0-.308-.832 1.335 1.335 0 0 0-.958-.3h-1.213Z"/><path d="M34.802 7.493H33.17l-1.727-2.878h-.648v2.878H29.32V.105h2.814c.857 0 1.512.21 1.962.628.45.418.674.969.674 1.653 0 .559-.154 1.026-.466 1.403-.309.376-.758.628-1.344.753l1.842 2.95ZM30.795 1.35V3.6h1.213c.844 0 1.266-.373 1.266-1.12 0-.355-.102-.632-.308-.832-.206-.2-.526-.297-.958-.297h-1.213Z" fill="#FFF"/></g><g data-name="Path 78" fill="none" stroke-linecap="square" stroke-dasharray="1000 1000"><path d="M51.021 6.514a2.023 2.023 0 0 1-.837.764 2.9 2.9 0 0 1-1.35.288 3.513 3.513 0 0 1-1.4-.267 2.367 2.367 0 0 1-.989-.769 2.217 2.217 0 0 1-.424-1.172h1.57a1.2 1.2 0 0 0 .36.748 1.134 1.134 0 0 0 .822.3.955.955 0 0 0 .706-.246.854.854 0 0 0 .247-.633.831.831 0 0 0-.2-.571 1.467 1.467 0 0 0-.5-.361q-.3-.136-.837-.314a8.1 8.1 0 0 1-1.13-.456 2.064 2.064 0 0 1-.748-.653 1.875 1.875 0 0 1-.309-1.119 1.819 1.819 0 0 1 .685-1.5 2.82 2.82 0 0 1 1.815-.549 2.874 2.874 0 0 1 1.868.565 2.13 2.13 0 0 1 .79 1.507h-1.59a1.113 1.113 0 0 0-.335-.654 1.042 1.042 0 0 0-.743-.256.984.984 0 0 0-.659.214.874.874 0 0 0-.058 1.162 1.49 1.49 0 0 0 .491.35 7.919 7.919 0 0 0 .811.3 10.785 10.785 0 0 1 1.156.472 2.026 2.026 0 0 1 .759.659 1.935 1.935 0 0 1 .314 1.151 2 2 0 0 1-.285 1.04Z"/><path d="M48.834 7.566c-.524 0-.991-.09-1.402-.267a2.37 2.37 0 0 1-.99-.77 2.216 2.216 0 0 1-.423-1.171h1.57c.034.299.155.549.36.748.18.174.414.272.7.293l-.01.007.153.153.042-.157v.072l.036-.073.014-.001-.05.103.05-.103-.05.2.29.29.255-.594-.11.009a.755.755 0 0 0 .208-.147.854.854 0 0 0 .247-.632.833.833 0 0 0-.2-.571c-.132-.15-.3-.27-.502-.361a9.395 9.395 0 0 0-.837-.314 8.05 8.05 0 0 1-1.13-.456 2.059 2.059 0 0 1-.748-.653c-.206-.286-.31-.66-.31-1.12 0-.634.229-1.135.686-1.501C47.14.184 47.746 0 48.499 0c.78 0 1.404.188 1.868.565.464.377.727.879.79 1.507h-1.59a1.114 1.114 0 0 0-.335-.654c-.341-.32-1.044-.347-1.402-.042-.168.144-.252.35-.252.623a.77.77 0 0 0 .194.539c.129.143.293.259.49.35.2.092.47.192.812.304.475.168.86.324 1.156.47.297.147.55.367.759.66.21.293.315.676.315 1.15 0 .377-.095.724-.283 1.042a2.032 2.032 0 0 1-.829.76l-.008-.011v.015l-.022-.043-.33-.41-.443.33.308.308c-.259.068-.547.103-.863.103Zm-.033-.998.033.033v-.098l-.033.065Zm0 0 .033-.065-.033.065Zm.903-4.516.001-.002v.002Z" fill="#FFF"/></g><g data-name="Path 79" fill="none" stroke-linecap="square" stroke-dasharray="1000 1000"><path d="M67.878.105v1.172h-2.04v6.216h-1.476V1.277h-2.03V.105Z"/><path d="M62.332.105h5.546v1.172h-2.04v6.216h-1.476V1.277h-2.03V.105Z" fill="#FFF"/></g><path data-name="Path 794" d="M14.971 59.813a24.312 24.312 0 0 1-4.962-.915 22.763 22.763 0 0 1-3.382-1.826 9.118 9.118 0 0 1-2.257-2.743 6.587 6.587 0 0 1-.9-2.74 13.279 13.279 0 0 1-.226-2.743 14.585 14.585 0 0 1 .451-2.054 3.093 3.093 0 0 0 .226-1.143 13.9 13.9 0 0 1 4.962-6.625c1.126-.686 2.48-1.371 3.834-2.057a23.53 23.53 0 0 1 4.737-1.369 34.677 34.677 0 0 1 6.993-1.369c2.482-.229 4.962-.457 7.445-.457a4.516 4.516 0 0 0 .226-1.6 14.706 14.706 0 0 1 .451-1.6 8.634 8.634 0 0 1 .226-1.826 11.392 11.392 0 0 1 .676-3.428 12.676 12.676 0 0 1-2.931.229c-.9 0-1.805.229-2.708.229-1.351 0-2.48-.229-3.608-.229-1.805-.229-3.608-.457-5.188-.686a35.553 35.553 0 0 1-4.737-1.143c-1.128-.457-2.031-.686-2.934-1.14a21.846 21.846 0 0 0-2.48-1.143 11.021 11.021 0 0 1-2.934-1.828 4.9 4.9 0 0 1-2.028-1.6 3.057 3.057 0 0 1-1.354-1.6 1.267 1.267 0 0 1-.451-1.143c-.226-.229 0-.457 0-.686 0-.457.226-.457.451-.686a1.7 1.7 0 0 1 .9-.457 1.333 1.333 0 0 1 .9.229 2.678 2.678 0 0 1 1.128 1.143l1.354 2.74a6.429 6.429 0 0 0 2.257 2.057 11.676 11.676 0 0 0 3.382 1.6 42.385 42.385 0 0 0 4.059 1.371 34.721 34.721 0 0 0 5.188 1.14 50.385 50.385 0 0 0 6.091.229h2.934c1.128 0 2.254-.229 3.157-.229.226-.457.451-1.14.677-1.6l.677-1.371c1.58-3.2 3.385-5.254 5.865-5.94h.451c.226-.229.451-.229.9-.229a1.344 1.344 0 0 1 .9.229 1.7 1.7 0 0 1 1.126.457c.451 0 .677.229.9.686a11.308 11.308 0 0 1 .677 1.6 5.864 5.864 0 0 1-.451 2.743 8.709 8.709 0 0 1-2.028 2.057 19.771 19.771 0 0 1-6.091 2.511l-.677 2.743-.677 3.426a2.932 2.932 0 0 1-.217 1.371v1.143h.9c.226-.229.451-.229.9-.229h2.931a9.993 9.993 0 0 0 2.708-.229l.677.229.226.686-.226.457-.451.226c-1.805.231-3.836.231-5.865.46H35.5l-1.354 6.167a26.388 26.388 0 0 1-2.028 5.94 21.59 21.59 0 0 1-2.708 5.028 15.728 15.728 0 0 1-3.608 4.111 23.155 23.155 0 0 1-4.737 2.511 17.09 17.09 0 0 1-6.094.915ZM7.978 55.93a10.533 10.533 0 0 0 2.254 1.143 5.094 5.094 0 0 0 2.482.686 7.558 7.558 0 0 0 2.257 0 6.157 6.157 0 0 0 2.028-.229 15.643 15.643 0 0 0 4.513-1.828c2.48-1.6 4.511-4.34 6.314-8a66.163 66.163 0 0 0 3.845-12.333 67.447 67.447 0 0 0-11.053 1.6 49.158 49.158 0 0 0-7.219 2.743 15.493 15.493 0 0 0-4.515 3.886 12.011 12.011 0 0 0-2.482 4.34 9.273 9.273 0 0 0-.677 3.428c.226.914.226 1.826.677 2.283a3.7 3.7 0 0 0 .9 1.6Zm34.741-34.952c.451-.457.9-.686 1.128-1.143a1.741 1.741 0 0 0 .451-.914c0-.457.223-.686.223-1.143-.223-.454-.223-.683-.449-.912l-.677-.457c-.226 0-.451-.229-.677-.229a4.515 4.515 0 0 0-1.805.914 3.021 3.021 0 0 0-1.128 1.369 4.617 4.617 0 0 0-.9 1.828 19.672 19.672 0 0 0-.9 2.74 18.933 18.933 0 0 1 2.705-.912 8.091 8.091 0 0 0 2.029-1.141Z" fill="#FFF"/><path data-name="Path 795" d="M50.034 31.485c.451 0 .677.229.9.686.223.229.449.457.449.686A2.083 2.083 0 0 1 51.609 34a2.518 2.518 0 0 1-.226 1.143c-.226.454-.674.912-1.126 1.6a11.828 11.828 0 0 1-2.482 1.6 15.426 15.426 0 0 1-4.285 1.6 8.155 8.155 0 0 0-.9 2.054.847.847 0 0 0-.226.686c0 .229-.226.457-.226.686s-.226.457-.226.914a2.932 2.932 0 0 0 .226 1.371c0 .457.451.683.677.914l.451.229h.451a6.849 6.849 0 0 0 2.254-.229c.677-.231 1.354-.457 2.031-.686.226-.457.677-.686.9-.914a3.119 3.119 0 0 0 .9-.686l1.351-1.371c.451-.686.9-1.143 1.128-1.6a6.033 6.033 0 0 0 1.128-1.369c.451-.686.677-1.143 1.128-1.828a4.786 4.786 0 0 0 .9-1.371l.226-.229.451-.229.226.229a.432.432 0 0 1 0 .686l-.666 1.369-.677 1.371a4.776 4.776 0 0 0-.9 1.369l-.451.457a4.787 4.787 0 0 1-.9 1.371 6.234 6.234 0 0 0-.9 1.143 11.336 11.336 0 0 0-1.8 1.6 19.8 19.8 0 0 1-2.257 1.369 11.27 11.27 0 0 1-2.931 1.143 8.989 8.989 0 0 1-2.482 0c-.677-.229-1.354-.229-1.58-.457-.677-.229-.9-.686-1.351-.914a29.033 29.033 0 0 1-.677-2.283 12.708 12.708 0 0 1 .677-3.657 9.688 9.688 0 0 1 .9-2.74 21.254 21.254 0 0 0 1.128-2.286 12.482 12.482 0 0 1 1.354-1.826 10.492 10.492 0 0 1 1.58-1.6c.451-.229.9-.686 1.351-.914a3.18 3.18 0 0 1 1.354-.457c.226-.229.451-.229.9-.229h.9c.445-.001.671.228 1.122.456Zm.226 2.286-.451-.229h-.451l-.677.229a7.4 7.4 0 0 0-1.805 1.371 11.914 11.914 0 0 0-2.028 2.511l-.451.457c0 .229-.226.457-.451.686a3.557 3.557 0 0 0 1.8-.686 9.113 9.113 0 0 0 2.032-1.141 6.107 6.107 0 0 0 1.805-1.6 2.078 2.078 0 0 0 .677-1.6Z" fill="#FFF"/><path data-name="Path 796" d="M53.644 42.906a19.538 19.538 0 0 1 .9-3.883c.226-1.143.677-2.286.9-3.2.451-1.143.9-2.054 1.354-2.969a32 32 0 0 1 1.8-4.111c.677-1.371 1.354-2.514 2.031-3.657s1.128-2.057 1.58-2.969a11.574 11.574 0 0 0 1.126-1.6 24.234 24.234 0 0 1 2.031-2.514 7.077 7.077 0 0 1 2.031-1.6 2.165 2.165 0 0 1 2.028-.229c.451.229.677.914.451 2.283a25.574 25.574 0 0 1-2.02 5.716 75.452 75.452 0 0 1-9.024 12.794 9.625 9.625 0 0 0-.9 2.286c-.226.686-.677 1.6-.9 2.283s-.223 1.371-.449 2.057a5.093 5.093 0 0 0-.226 1.828l.226.457a.817.817 0 0 0 .674.229 5.324 5.324 0 0 0 2.031-1.371 14.73 14.73 0 0 0 1.805-2.057 24.321 24.321 0 0 0 2.254-2.74c.451-.686.677-1.143 1.128-1.828.226-.457.677-.914.9-1.371l.224-.227.451-.229.226.229a.432.432 0 0 1 0 .686l-.677 1.371a4.788 4.788 0 0 1-.9 1.371l-.677 1.369a24.105 24.105 0 0 0-2.254 2.743 20.438 20.438 0 0 1-2.262 2.053 8.289 8.289 0 0 1-2.482 1.14 2.543 2.543 0 0 1-1.351 0 3.18 3.18 0 0 1-1.354-.457 1.187 1.187 0 0 1-.451-.912c-.226-.229-.226-.457-.226-.914v-2.057Zm14.662-23.073c-.226 0-.677.457-1.128 1.143s-.677 1.371-1.128 2.054a12.365 12.365 0 0 0-1.58 2.971 4.987 4.987 0 0 0-1.128 1.828c-.451.686-.677 1.369-1.126 2.054a6.878 6.878 0 0 0-.9 1.828l-.226.229-.226.457-.226.457a32.7 32.7 0 0 0 3.608-5.483c1.128-1.6 1.805-2.743 2.482-3.883.451-1.143.9-2.057 1.128-2.743Z" fill="#FFF"/><path data-name="Path 797" d="M74.17 31.485c.451 0 .677.229.9.686l.677.686c0 .457.226.686.226 1.143-.226.229-.226.683-.451 1.143a5.306 5.306 0 0 1-1.128 1.6 11.732 11.732 0 0 1-2.48 1.6 15.457 15.457 0 0 1-4.285 1.6 8.156 8.156 0 0 0-.9 2.054c0 .229-.226.457-.226.686s-.226.457-.226.686v.914a1.473 1.473 0 0 0 0 1.371 1.783 1.783 0 0 0 .9.914l.226.229h.451a9.134 9.134 0 0 0 2.48-.229c.677-.231 1.128-.457 1.805-.686a3.97 3.97 0 0 1 1.128-.914l.677-.686 1.351-1.371c.451-.686.9-1.143 1.128-1.6a6.032 6.032 0 0 0 1.128-1.369 8.033 8.033 0 0 0 1.128-1.828c.451-.457.677-.914 1.126-1.371l.226-.229.226-.229.451.229a.847.847 0 0 1-.226.686l-.673 1.369q-.335.686-.674 1.371c-.226.457-.677.912-.9 1.369l-.451.457a4.788 4.788 0 0 1-.9 1.371 6.236 6.236 0 0 0-.9 1.143c-.451.457-1.128.914-1.805 1.6a19.526 19.526 0 0 1-2.265 1.367 13.711 13.711 0 0 1-2.708 1.143 10.554 10.554 0 0 1-2.705 0 14.254 14.254 0 0 1-1.58-.457 4.935 4.935 0 0 1-1.128-.914 3.888 3.888 0 0 1-.679-2.283 7.378 7.378 0 0 1 .451-3.657 9.772 9.772 0 0 1 .9-2.74 20.142 20.142 0 0 1 1.354-2.286 3.534 3.534 0 0 1 1.354-1.826 10.039 10.039 0 0 1 1.351-1.6c.451-.229.9-.686 1.354-.914a3.18 3.18 0 0 1 1.354-.457 1.343 1.343 0 0 1 .9-.229h.9a1.7 1.7 0 0 1 1.138.458Zm.226 2.286-.449-.229h-.451l-.682.227a7.4 7.4 0 0 0-1.8 1.373c-.451.683-1.128 1.369-2.031 2.511l-.226.457c-.226.229-.449.457-.449.686a2.981 2.981 0 0 0 1.577-.686 7.026 7.026 0 0 0 2.256-1.141 5.306 5.306 0 0 0 1.58-1.6c.674-.456.674-.913.674-1.6Z" fill="#FFF"/><path data-name="Path 798" d="m94.696 36.282.226.229a.432.432 0 0 1 0 .686l-.677 1.372a4.787 4.787 0 0 1-.9 1.371l-.682 1.368-.451.457c-.226.457-.677.914-.9 1.371a5.176 5.176 0 0 0-1.126 1.143l-1.58 1.6c-.677.454-1.58.912-2.257 1.369a11.2 11.2 0 0 1-2.931 1.143h-2.483c-.677-.229-1.351-.229-1.8-.457s-.677-.686-1.128-.914a3.888 3.888 0 0 1-.677-2.283 26.708 26.708 0 0 1 .451-3.657 9.977 9.977 0 0 1 1.128-2.74 21.873 21.873 0 0 1 1.126-2.286 12.483 12.483 0 0 1 1.354-1.826 5.307 5.307 0 0 1 1.58-1.6 4.935 4.935 0 0 0 1.128-.914 3.18 3.18 0 0 1 1.354-.457 2 2 0 0 1 1.126-.229h.9a3.784 3.784 0 0 1 1.128.457h.226l.677.686.226.229.226.457.226.229V34l-.223.456-.226.457c-.451 0-.677 0-.677-.231l-.226-.454v-.229l-.451-.229c-.451-.457-1.354-.229-2.257.686a21.5 21.5 0 0 0-2.705 3.2 7.983 7.983 0 0 0-1.358 2.054 6.879 6.879 0 0 0-.9 2.283 70143.657 70143.657 0 0 0-.451 1.371c-.226.229-.226.457-.226.914a2.932 2.932 0 0 0 .226 1.371c0 .457.226.683.677.914.226 0 .451.226.9.226a7.671 7.671 0 0 0 2.257-.226 15.854 15.854 0 0 0 1.8-.686c.451-.457.9-.686 1.128-.914a3.12 3.12 0 0 0 .9-.686l1.354-1.371a9.671 9.671 0 0 1 1.128-1.6c.449-.457.674-.912 1.126-1.369.451-.686.677-1.143 1.128-1.828.226-.457.677-.914.9-1.371l.226-.229Z" fill="#FFF"/><path data-name="Path 799" d="M99.659 31.714a55.5 55.5 0 0 0-2.482 5.254 15.826 15.826 0 0 1-.9 2.286 29.293 29.293 0 0 0-.677 2.283 6.746 6.746 0 0 0-.451 2.057 5.093 5.093 0 0 0-.227 1.828l.226.457c0 .229.226.229.451.229a5.317 5.317 0 0 0 2.028-1.371l2.031-2.057 2.031-2.74a7.929 7.929 0 0 0 1.127-1.832c.451-.457.677-.914 1.128-1.371l.226-.229.226-.229.451.229a.847.847 0 0 1-.226.686c0 .457-.451.914-.677 1.371l-.677 1.371c-.226.457-.674.912-.9 1.369l-2.031 2.743c-.677.686-1.58 1.371-2.257 2.057a11.988 11.988 0 0 1-2.48 1.14c-.451 0-.9.229-1.354 0a3.211 3.211 0 0 1-1.354-.454 1.99 1.99 0 0 1-.677-1.371 5.092 5.092 0 0 1-.226-1.828c.226-.686.226-1.371.451-2.057a6.834 6.834 0 0 1 .451-2.283 11.235 11.235 0 0 1 .9-2.514 25.816 25.816 0 0 1 1.132-2.967A15.994 15.994 0 0 1 96.05 30.8l1.351-2.74c.677-.914 1.128-1.828 1.58-2.514h-4.284a10.4 10.4 0 0 0-2.031.686 5.258 5.258 0 0 1-1.8.457h-.454l-.226-.457v-.457a.846.846 0 0 1 .226-.686c.226-.229.451-.229.677-.457h.9a.7.7 0 0 1 .451-.229h2.708a34.632 34.632 0 0 0 4.511-.229 20.093 20.093 0 0 1 1.354-2.283 13.548 13.548 0 0 1 .9-1.371 7.984 7.984 0 0 1 1.351-2.057 6.092 6.092 0 0 0 1.128-1.369 3.12 3.12 0 0 0 .9-.686c.451 0 .677-.229.9-.229.451 0 .677 0 .9.229a1.192 1.192 0 0 1 .451.914 1.384 1.384 0 0 1-.226.912c-.226.457-.226.914-.451 1.371a4.787 4.787 0 0 0-.9 1.371 5.01 5.01 0 0 0-.677 1.143 3.17 3.17 0 0 0-.677.912c-.226.46-.451.686-.677 1.143h9.024c.677 0 1.351.229 1.8.229h1.805a2.013 2.013 0 0 1 1.128.229h2.031a2 2 0 0 0 1.126.229c.226 0 .677.229.9.229.226.229.677.229.9.457l.226.457v.457l-.226.457h-.677a1.344 1.344 0 0 1-.9-.229c-.226 0-.677-.229-.9-.229-.449-.229-.9-.229-1.351-.457a2.83 2.83 0 0 0-1.354-.229h-1.128a21.64 21.64 0 0 0-4.06-.229h-9.25c-.449.686-.674 1.143-1.126 1.828-.226.686-.677 1.371-.9 2.054-.441.687-.893 1.601-1.344 2.287Z" fill="#FFF"/></g></svg>