<svg xmlns="http://www.w3.org/2000/svg" xmlns:xlink="http://www.w3.org/1999/xlink" width="56" height="56" viewBox="0 0 56 56">
  <defs>
    <clipPath id="clip-path">
      <rect id="Rectangle_540" data-name="Rectangle 540" width="56" height="56" transform="translate(718 308)" fill="#fff"/>
    </clipPath>
    <linearGradient id="linear-gradient" x1="0.5" x2="0.5" y2="1" gradientUnits="objectBoundingBox">
      <stop offset="0" stop-color="#6c9ff3"/>
      <stop offset="1" stop-color="#25499b"/>
    </linearGradient>
  </defs>
  <g id="Mask_Group_170" data-name="Mask Group 170" transform="translate(-718 -308)" clip-path="url(#clip-path)">
    <g id="noun_Man_4291222" transform="translate(726.002 312.995)">
      <g id="Layer_2" data-name="Layer 2" transform="translate(-0.002 0.005)">
        <g id="Layer_1" data-name="Layer 1">
          <path id="Path_801" data-name="Path 801" d="M39.432,38.268l-1.757-6.8a6.193,6.193,0,0,0-4.134-4.346l-8.395-2.608v-2.66a11.844,11.844,0,0,0,1.772-6.141c.331-.808,2.362-5.981,1.266-9.562-.945-3.241-2.835-4.03-3.548-4.219A3.482,3.482,0,0,0,19.864.423,3.623,3.623,0,0,0,18.485.154,3.666,3.666,0,0,0,15.23,2.147a3.009,3.009,0,0,0-.472-.038A2.967,2.967,0,0,0,11.875,4.9c-.34,3.094.642,10.006.746,10.743a10.863,10.863,0,0,0,1.757,6.113v2.764l-8.31,2.527A6.141,6.141,0,0,0,1.889,31.39L.108,38.268a3.307,3.307,0,0,0,2.079,3.954,50.7,50.7,0,0,0,35.162,0,3.307,3.307,0,0,0,2.083-3.954ZM27.276,6.413a12.143,12.143,0,0,1-.3,6.061,17.919,17.919,0,0,0-.6-4.323,3.274,3.274,0,0,0-2.324-2.239A3.486,3.486,0,0,0,25,3.508a4.19,4.19,0,0,0-.028-.425A5.222,5.222,0,0,1,27.276,6.413ZM12.825,5a2.036,2.036,0,0,1,1.942-1.942,1.923,1.923,0,0,1,1.389.609.463.463,0,1,0,.666-.642,2.891,2.891,0,0,0-.713-.553A2.712,2.712,0,0,1,21.2,3.82a.472.472,0,0,0,.945,0,3.652,3.652,0,0,0-1.285-2.783,2.523,2.523,0,0,1,.652-.09,2.561,2.561,0,0,1,0,5.121,2.716,2.716,0,0,1-1.465-.449,4.186,4.186,0,0,0-2.3-.69c-2.15,0-3.831,1.658-4.19,4.124-.1.723-.265,1.857-.42,2.976A39.822,39.822,0,0,1,12.825,5Zm.751,10.681c.028-.2.652-4.653.916-6.486.241-1.649,1.337-3.307,3.255-3.307a3.231,3.231,0,0,1,1.8.543,3.609,3.609,0,0,0,1.97.6c.8,0,1.082-.265,1.809-.265a2.305,2.305,0,0,1,2.15,1.672,22.9,22.9,0,0,1,.472,7.162c-.028.043,0,.028,0,.043v.033a11.991,11.991,0,0,1-4.124,8.773,1.483,1.483,0,0,1-1.025.411H18.763a1.483,1.483,0,0,1-1.02-.411c-4.516-4.342-4.176-8.622-4.167-8.763Zm3.538,9.448a2.4,2.4,0,0,0,1.672.671h2.031a2.4,2.4,0,0,0,1.672-.666,15.779,15.779,0,0,0,1.71-1.89v1.512a4.788,4.788,0,0,1-1.984,4.375,4.422,4.422,0,0,1-4.9,0,4.654,4.654,0,0,1-1.979-4.4h0V23.151a17.99,17.99,0,0,0,1.776,1.965Zm19.917,16.2a49.769,49.769,0,0,1-34.524,0A2.362,2.362,0,0,1,1.019,38.5l1.786-6.841A5.2,5.2,0,0,1,6.343,27.97l8.031-2.442a5.376,5.376,0,0,0,10.748,0l8.135,2.5a5.263,5.263,0,0,1,3.505,3.68L38.515,38.5a2.362,2.362,0,0,1-1.483,2.825Z" transform="translate(0.002 -0.005)" fill="url(#linear-gradient)"/>
          <path id="Path_802" data-name="Path 802" d="M41.322,69.8a.472.472,0,0,0-.472.472v.255a.472.472,0,1,0,.945,0v-.255A.472.472,0,0,0,41.322,69.8Z" transform="translate(-21.551 -36.827)" fill="url(#linear-gradient)"/>
          <path id="Path_803" data-name="Path 803" d="M41.322,76.51a.472.472,0,0,0-.472.472v.255a.472.472,0,0,0,.945,0v-.255A.472.472,0,0,0,41.322,76.51Z" transform="translate(-21.551 -40.367)" fill="url(#linear-gradient)"/>
          <path id="Path_804" data-name="Path 804" d="M41.322,83.23a.472.472,0,0,0-.472.472v.255a.472.472,0,0,0,.945,0V83.7A.472.472,0,0,0,41.322,83.23Z" transform="translate(-21.551 -43.913)" fill="url(#linear-gradient)"/>
        </g>
      </g>
    </g>
  </g>
</svg>
