<svg xmlns="http://www.w3.org/2000/svg" width="41.304" height="41.55" viewBox="0 0 41.304 41.55">
  <defs>
    <style>
      .cls-1, .cls-2 {
        fill: none;
        stroke-linecap: square;
        stroke-width: 1.3px;
      }

      .cls-1 {
        stroke: #d5d5d5;
      }

      .cls-2 {
        stroke: #d6ae0a;
      }
    </style>
  </defs>
  <g id="doctor" transform="translate(0.654 0.65)">
    <path id="Path_188" data-name="Path 188" class="cls-1" d="M20,42v2.683A10.765,10.765,0,0,0,30.733,55.417h1.342A10.765,10.765,0,0,0,42.808,44.683h0" transform="translate(-8.175 -15.167)"/>
    <circle id="Ellipse_47" data-name="Ellipse 47" class="cls-2" cx="5.367" cy="5.367" r="5.367" transform="translate(29.267 18.783)"/>
    <path id="Path_189" data-name="Path 189" class="cls-1" d="M20.906,4h5.165a1.359,1.359,0,0,1,1.342,1.543L23.991,27.211a2.738,2.738,0,0,1-2.683,2.281H8.428a2.729,2.729,0,0,1-2.683-2.281L2.391,5.543A1.311,1.311,0,0,1,3.665,4H8.831" transform="translate(-2.372 -2.658)"/>
    <line id="Line_60" data-name="Line 60" class="cls-1" y2="4.025" transform="translate(6.459 0)"/>
    <line id="Line_61" data-name="Line 61" class="cls-1" y2="4.025" transform="translate(18.534 0)"/>
  </g>
</svg>
