<svg xmlns="http://www.w3.org/2000/svg" xmlns:xlink="http://www.w3.org/1999/xlink" width="35.067" height="52.22" viewBox="0 0 35.067 52.22">
  <defs>
    <style>
      .cls-1 {
        fill: url(#linear-gradient);
      }
    </style>
    <linearGradient id="linear-gradient" x1="-0.168" y1="0.084" x2="1.071" y2="1" gradientUnits="objectBoundingBox">
      <stop offset="0" stop-color="#d6ae0a"/>
      <stop offset="1" stop-color="#876500"/>
    </linearGradient>
  </defs>
  <g id="Group_750" data-name="Group 750" transform="translate(-1068.5 -2178)">
    <path id="Path_302" data-name="Path 302" class="cls-1" d="M53.743,13.63h-19.4a.634.634,0,0,0-.634.634V48.83a.634.634,0,0,0,.634.634h19.4a.634.634,0,0,0,.634-.634V14.264A.634.634,0,0,0,53.743,13.63ZM53.108,48.2H34.979V14.9h18.13Z" transform="translate(1041.977 2167.593)"/>
    <path id="Path_303" data-name="Path 303" class="cls-1" d="M57.4,57.49a.717.717,0,0,0-.1-.165l-2.055-2.372V52.46h0a.552.552,0,0,0-.038-.2h0a.761.761,0,0,0-.1-.152l-1.744-2.093V9.184a.634.634,0,0,0-.634-.634H27.087a.634.634,0,0,0-.634.634V49.96l-1.744,2.093a.761.761,0,0,0-.1.152h0a.552.552,0,0,0-.038.2h0V54.87L22.52,57.243a.717.717,0,0,0-.1.165.463.463,0,0,0-.038.19h0v2.537a.634.634,0,0,0,.634.634h33.8a.634.634,0,0,0,.634-.634V57.68h0A.463.463,0,0,0,57.4,57.49ZM27.721,9.819H52.08V49.561H27.721Zm-.336,41.011H52.416l.806,1H26.579Zm-1.554,2.265H53.97v1.465H25.831Zm-.381,2.734h28.9L55.423,57.1H24.378Zm30.728,3.755H23.623V58.315H56.178Z" transform="translate(1046.12 2169.45)"/>
    <path id="Path_304" data-name="Path 304" class="cls-1" d="M41.117,41.123c1.135,0,2.024-1.167,2.024-2.652s-.888-2.652-2.024-2.652S39.1,36.987,39.1,38.472,39.988,41.123,41.117,41.123Zm0-4.034c.355,0,.755.59.755,1.383s-.4,1.383-.755,1.383-.749-.59-.749-1.383S40.762,37.089,41.117,37.089Z" transform="translate(1040.006 2159.479)"/>
  </g>
</svg>
