<svg xmlns="http://www.w3.org/2000/svg" width="36.667" height="36.521" viewBox="0 0 36.667 36.521">
  <defs>
    <style>
      .cls-1 {
        fill: #d5d5d5;
      }

      .cls-2 {
        fill: #d6ae0a;
      }
    </style>
  </defs>
  <g id="Group_479" data-name="Group 479" transform="translate(0 0)">
    <path id="Path_117" data-name="Path 117" class="cls-1" d="M38.284,29.139l.24-.943a.456.456,0,1,0-.884-.225l-.242.954c-5.662-1.224-11.151,1.332-12.9,6.1a.456.456,0,0,0,.423.613,5.7,5.7,0,0,1,1.322.171A5.016,5.016,0,0,1,29.923,39.2a.457.457,0,0,0,.774.2c1.107-1.177,2.866-1.146,4.29-.851L32.266,49.252c-12.9-.711-21.588,2.084-21.7,2.122a.456.456,0,0,0,.287.867c.112-.037,8.581-2.753,21.187-2.087l-1.364,5.366a.457.457,0,0,0,.33.555.434.434,0,0,0,.112.015.457.457,0,0,0,.442-.344l1.407-5.534a76,76,0,0,1,13.228,2.039.456.456,0,0,0,.218-.886,76.837,76.837,0,0,0-13.217-2.051l2.68-10.542c1.416.428,3,1.262,3.385,2.879a.457.457,0,0,0,.784.2,4.978,4.978,0,0,1,4.915-1.286,5.7,5.7,0,0,1,1.163.44.456.456,0,0,0,.658-.342C47.5,35.629,43.872,30.743,38.284,29.139ZM26.467,34.922h0a6.478,6.478,0,0,0-.876-.159c1.647-3.572,5.908-5.636,10.384-5.149a10.377,10.377,0,0,0-4.667,4.831,16.832,16.832,0,0,0-1.185,3.017A6.148,6.148,0,0,0,26.467,34.922Zm9.191,2.842a9.075,9.075,0,0,0-2.224-.3,4.942,4.942,0,0,0-2.53.62c.508-1.939,2.232-6.907,6.714-8.1,3.347,3.167,2.517,8.324,2.038,10.293A6.311,6.311,0,0,0,35.657,37.764Zm10.28,2.16a6.348,6.348,0,0,0-.757-.245,6.191,6.191,0,0,0-4.577.574,16.844,16.844,0,0,0,.426-3.337,10.369,10.369,0,0,0-1.8-6.487C43.472,32.126,46.209,35.927,45.937,39.924Z" transform="translate(-10.202 -19.569)"/>
    <path id="Path_118" data-name="Path 118" class="cls-2" d="M25.76,22.14a3.53,3.53,0,1,0-3.53,3.53A3.533,3.533,0,0,0,25.76,22.14Zm-3.53,2.617a2.617,2.617,0,1,1,2.617-2.617A2.62,2.62,0,0,1,22.231,24.757Z" transform="translate(-14.796 -14.668)"/>
    <path id="Path_119" data-name="Path 119" class="cls-2" d="M26.349,11.9V10.425a.456.456,0,1,0-.913,0V11.9a.456.456,0,1,0,.913,0Z" transform="translate(-18.458 -9.969)"/>
    <path id="Path_120" data-name="Path 120" class="cls-2" d="M20.239,13.558a.457.457,0,0,0,.417-.642l-.6-1.345a.456.456,0,1,0-.834.371l.6,1.345A.457.457,0,0,0,20.239,13.558Z" transform="translate(-15.059 -10.693)"/>
    <path id="Path_121" data-name="Path 121" class="cls-2" d="M15.561,16.954a.456.456,0,0,0,.306-.8l-1.094-.986a.456.456,0,0,0-.611.678l1.094.986A.453.453,0,0,0,15.561,16.954Z" transform="translate(-12.247 -12.735)"/>
    <path id="Path_122" data-name="Path 122" class="cls-2" d="M10.835,20.91a.457.457,0,0,0,.293.575l1.4.455a.462.462,0,0,0,.141.022.456.456,0,0,0,.141-.89l-1.4-.455A.457.457,0,0,0,10.835,20.91Z" transform="translate(-10.508 -15.746)"/>
    <path id="Path_123" data-name="Path 123" class="cls-2" d="M10.147,27.274a.456.456,0,0,0,.453.409l.048,0,1.464-.154a.456.456,0,1,0-.1-.908l-1.464.154A.456.456,0,0,0,10.147,27.274Z" transform="translate(-10.145 -19.02)"/>
    <path id="Path_124" data-name="Path 124" class="cls-2" d="M12.578,33.068a.454.454,0,0,0,.228-.061l1.275-.737a.456.456,0,1,0-.456-.79l-1.275.737a.456.456,0,0,0,.229.852Z" transform="translate(-11.219 -21.631)"/>
    <path id="Path_125" data-name="Path 125" class="cls-2" d="M16.854,37.278a.456.456,0,0,0,.37-.188l.866-1.191a.456.456,0,1,0-.738-.537l-.866,1.191a.456.456,0,0,0,.369.725Z" transform="translate(-13.544 -23.673)"/>
    <path id="Path_126" data-name="Path 126" class="cls-2" d="M22.556,37.589,22.25,39.03a.456.456,0,1,0,.893.19l.306-1.441a.456.456,0,1,0-.893-.19Z" transform="translate(-16.72 -24.788)"/>
    <path id="Path_127" data-name="Path 127" class="cls-2" d="M28.323,37.237a.456.456,0,0,0-.351.541l.306,1.441a.456.456,0,0,0,.893-.19l-.306-1.441A.454.454,0,0,0,28.323,37.237Z" transform="translate(-19.831 -24.788)"/>
    <path id="Path_128" data-name="Path 128" class="cls-2" d="M33.53,37.089a.456.456,0,0,0,.738-.537L33.4,35.361a.456.456,0,0,0-.738.537Z" transform="translate(-22.34 -23.672)"/>
    <path id="Path_129" data-name="Path 129" class="cls-2" d="M37.688,33.068a.456.456,0,0,0,.229-.852l-1.275-.737a.456.456,0,1,0-.456.79l1.275.737A.454.454,0,0,0,37.688,33.068Z" transform="translate(-24.178 -21.631)"/>
    <path id="Path_130" data-name="Path 130" class="cls-2" d="M39.44,27.681a.456.456,0,0,0,.047-.91l-1.464-.154a.456.456,0,0,0-.1.908l1.464.154Z" transform="translate(-25.027 -19.018)"/>
    <path id="Path_131" data-name="Path 131" class="cls-2" d="M37.012,21.647a.456.456,0,0,0,.575.293l1.4-.455a.456.456,0,1,0-.282-.868l-1.4.455A.456.456,0,0,0,37.012,21.647Z" transform="translate(-24.739 -15.746)"/>
    <path id="Path_132" data-name="Path 132" class="cls-2" d="M35.71,15.174l-1.094.986a.457.457,0,0,0,.611.679l1.094-.986a.457.457,0,0,0-.611-.679Z" transform="translate(-23.367 -12.735)"/>
    <path id="Path_133" data-name="Path 133" class="cls-2" d="M30.833,13.558a.456.456,0,0,0,.417-.271l.6-1.345a.456.456,0,1,0-.834-.371l-.6,1.345a.456.456,0,0,0,.231.6A.461.461,0,0,0,30.833,13.558Z" transform="translate(-21.144 -10.693)"/>
  </g>
</svg>
