<svg xmlns="http://www.w3.org/2000/svg" width="34.581" height="32.646" viewBox="0 0 34.581 32.646">
  <defs>
    <style>
      .cls-1, .cls-2, .cls-3 {
        fill: none;
        stroke-miterlimit: 10;
      }

      .cls-1, .cls-2 {
        stroke: #d5d5d5;
      }

      .cls-1, .cls-3 {
        stroke-linecap: square;
      }

      .cls-3 {
        stroke: #d6ae0a;
      }
    </style>
  </defs>
  <g id="handshake" transform="translate(0.707 0.707)">
    <path id="Path_112" data-name="Path 112" class="cls-1" d="M45.666,38.171l2.178,2.178a2.247,2.247,0,0,1,0,3.176h0a2.246,2.246,0,0,1-3.177,0l-2.177-2.176" transform="translate(-19.908 -19.202)"/>
    <path id="Path_113" data-name="Path 113" class="cls-1" d="M36.557,49.244l1.022,1.022a2.23,2.23,0,0,1,0,3.154h0A2.223,2.223,0,0,1,36,54.073" transform="translate(-17.129 -23.943)"/>
    <path id="Path_114" data-name="Path 114" class="cls-1" d="M5.287,18.724V15.293L3,13.006,11.006,5l1.716,1.716h2.859" transform="translate(-3 -5)"/>
    <rect id="Rectangle_58" data-name="Rectangle 58" class="cls-1" width="5.325" height="4.492" rx="2.246" transform="translate(3.34 22.402) rotate(-45)"/>
    <rect id="Rectangle_59" data-name="Rectangle 59" class="cls-1" width="4.886" height="4.46" rx="2.23" transform="translate(10.327 28.078) rotate(-45)"/>
    <path id="Path_115" data-name="Path 115" class="cls-1" d="M9.608,37.605l-.332.332a2.17,2.17,0,0,1-3.145-.078h0a2.173,2.173,0,0,1,.053-2.971l.332-.339A2.173,2.173,0,0,1,9.571,34.5h0a2.173,2.173,0,0,1,.037,3.108Z" transform="translate(-4.1 -17.372)"/>
    <rect id="Rectangle_60" data-name="Rectangle 60" class="cls-1" width="4.696" height="4.46" rx="2.23" transform="translate(6.963 25.134) rotate(-45)"/>
    <path id="Path_116" data-name="Path 116" class="cls-1" d="M42.623,46.776a2.23,2.23,0,0,1,0,3.154h0a2.23,2.23,0,0,1-3.154,0l-.739-.739" transform="translate(-18.298 -22.887)"/>
    <path id="Path_117" data-name="Path 117" class="cls-2" d="M47.65,33.026a2.173,2.173,0,0,0,3.145-.078h0a2.173,2.173,0,0,0-.053-2.971L43.476,22.51" transform="translate(-20.33 -12.497)"/>
    <path id="Path_118" data-name="Path 118" class="cls-3" d="M40.617,18.724V15.293L42.9,13.006,34.9,5,33.183,6.716H29.436a6.9,6.9,0,0,0-4.88,2.022L19.291,14.21a1.944,1.944,0,0,0,2.487,2.965l5.6-3.613a5.094,5.094,0,0,0,7.71-.08" transform="translate(-9.738 -5)"/>
  </g>
</svg>
