<svg xmlns="http://www.w3.org/2000/svg" xmlns:xlink="http://www.w3.org/1999/xlink" width="48.848" height="44.691" viewBox="0 0 48.848 44.691"><defs><linearGradient id="a" x1="-0.168" y1="0.084" x2="1.071" y2="1" gradientUnits="objectBoundingBox"><stop offset="0" stop-color="#d6ae0a"/><stop offset="1" stop-color="#876500"/></linearGradient></defs><g transform="translate(-2.5 -7.679)"><g transform="translate(2.5 7.679)"><path d="M3.263,52.37H50.585a.8.8,0,0,0,.763-.833V26.818a.8.8,0,0,0-.763-.833H44.162c-.255-10.091-7.831-18.3-17.229-18.3l-.008,0-.008,0c-6.3,0-12.269,4.616-12.606,6.012A19.684,19.684,0,0,0,9.695,25.985H3.263a.8.8,0,0,0-.763.833V51.537A.8.8,0,0,0,3.263,52.37Zm17.31-33.544a16.188,16.188,0,0,0,5.587,1.269v5.89H19.784A36.566,36.566,0,0,1,20.573,18.826Zm7.114-9.371c2.15.577,4.044,3.557,5.2,7.756a14.786,14.786,0,0,1-5.2,1.22Zm3.464.537a15.411,15.411,0,0,1,6.485,3.982,16.1,16.1,0,0,1-3.326,2.519A17.689,17.689,0,0,0,31.151,9.992Zm-8.449,0a17.694,17.694,0,0,0-3.156,6.5,16.1,16.1,0,0,1-3.327-2.519A15.4,15.4,0,0,1,22.7,9.991Zm3.459-.536v8.976a14.788,14.788,0,0,1-5.194-1.219C22.122,13.013,24.013,10.033,26.161,9.455ZM27.687,20.1a16.189,16.189,0,0,0,5.595-1.27,36.522,36.522,0,0,1,.79,7.159H27.687Zm7.909,5.89a38.311,38.311,0,0,0-.873-7.86,17.586,17.586,0,0,0,3.967-2.97,17.958,17.958,0,0,1,3.949,10.83ZM15.164,15.155a17.584,17.584,0,0,0,3.968,2.971,38.35,38.35,0,0,0-.872,7.859H11.216A17.963,17.963,0,0,1,15.164,15.155ZM4.027,27.651h45.8V50.7H4.027Z" transform="translate(-2.5 -7.679)" fill="url(#a)"/><path d="M48.53,38.729A3.7,3.7,0,0,1,45,34.881a.8.8,0,0,0-.763-.833H11.466a.8.8,0,0,0-.763.833,3.7,3.7,0,0,1-3.526,3.848.8.8,0,0,0-.763.833v8.03a.8.8,0,0,0,.763.833A3.7,3.7,0,0,1,10.7,52.273a.8.8,0,0,0,.763.833H44.241A.8.8,0,0,0,45,52.273a3.7,3.7,0,0,1,3.526-3.848.8.8,0,0,0,.763-.833v-8.03A.8.8,0,0,0,48.53,38.729Zm-.763,8.093a5.316,5.316,0,0,0-4.231,4.619H12.172a5.316,5.316,0,0,0-4.231-4.619V40.332a5.315,5.315,0,0,0,4.231-4.618H43.536a5.315,5.315,0,0,0,4.231,4.618Z" transform="translate(-3.427 -12.079)" fill="url(#a)"/><path d="M23.283,44.485H21.294a.836.836,0,0,0,0,1.666h1.989a.836.836,0,0,0,0-1.666Z" transform="translate(-6.769 -13.821)" fill="url(#a)"/><path d="M46.624,44.485H44.634a.836.836,0,0,0,0,1.666h1.989a.836.836,0,0,0,0-1.666Z" transform="translate(-12.294 -13.821)" fill="url(#a)"/><path d="M32.492,36.985c-3.577,0-6.488,3.177-6.488,7.082s2.911,7.082,6.488,7.082,6.488-3.177,6.488-7.082S36.069,36.985,32.492,36.985Zm0,12.5a5.436,5.436,0,0,1,0-10.831,5.436,5.436,0,0,1,0,10.831Z" transform="translate(-8.064 -12.569)" fill="url(#a)"/></g></g></svg>