<svg xmlns="http://www.w3.org/2000/svg" xmlns:xlink="http://www.w3.org/1999/xlink" width="40" height="40" viewBox="0 0 40 40">
  <defs>
    <style>
      .cls-1 {
        fill: url(#linear-gradient);
      }
    </style>
    <linearGradient id="linear-gradient" x1="0.543" y1="0.5" x2="1.071" y2="1" gradientUnits="objectBoundingBox">
      <stop offset="0" stop-color="#d6ae0a"/>
      <stop offset="1" stop-color="#876500"/>
    </linearGradient>
  </defs>
  <g id="noun_Promotion_card_1944196" data-name="noun_Promotion card_1944196" transform="translate(-0.529 -1.058)">
    <g id="Group_614" data-name="Group 614" transform="translate(0.529 1.058)">
      <path id="Path_315" data-name="Path 315" class="cls-1" d="M7.514,290.121v3.636H6.085v-3.636Z" transform="translate(23.915 -286.482)"/>
      <path id="Path_316" data-name="Path 316" class="cls-1" d="M6.615,295.656l5.714,3.033V291.41l-5.714,3.033v-1.97l5.164-2.741a1.172,1.172,0,0,1,1.342.165,1.989,1.989,0,0,1,.636,1.513v7.279a1.99,1.99,0,0,1-.636,1.513,1.172,1.172,0,0,1-1.342.165l-5.164-2.739Z" transform="translate(26.243 -289.591)"/>
      <path id="Path_317" data-name="Path 317" class="cls-1" d="M4.5,298.69a1.99,1.99,0,0,0,.636,1.513,1.173,1.173,0,0,0,1.342.165l5.164-2.741v-1.97L5.927,298.69V291.41l5.714,3.033v-1.97l-5.164-2.741a1.172,1.172,0,0,0-1.342.165A1.989,1.989,0,0,0,4.5,291.41Z" transform="translate(16.931 -289.588)"/>
      <path id="Path_318" data-name="Path 318" class="cls-1" d="M10.914,2.382l-6.2,11.185a9.672,9.672,0,0,1,7.4-4.041V2.382Zm-.226,3.561v1.9a9.752,9.752,0,0,0-1.211.288Z" transform="translate(17.883 6.714)"/>
      <path id="Path_319" data-name="Path 319" class="cls-1" d="M6.35,2.382V9.526a9.672,9.672,0,0,1,7.4,4.041L7.552,2.382ZM7.778,5.943,8.989,8.131a9.753,9.753,0,0,0-1.211-.288Z" transform="translate(25.078 6.714)"/>
      <path id="Path_320" data-name="Path 320" class="cls-1" d="M3.2,3.175A2.488,2.488,0,0,0,1.058,5.9v7.272A2.488,2.488,0,0,0,3.2,15.9H7.487A2.488,2.488,0,0,0,9.63,13.174V5.9A2.488,2.488,0,0,0,7.487,3.175Zm0,1.818H4.63V6.811H2.487V5.9A.829.829,0,0,1,3.2,4.993Zm2.857,0H7.487A.829.829,0,0,1,8.2,5.9v.909H6.058ZM2.487,8.629H4.63v1.818H2.487Zm3.571,0H8.2v1.818H6.058ZM2.487,12.265H4.63v1.818H3.2a.829.829,0,0,1-.714-.909Zm3.571,0H8.2v.909a.829.829,0,0,1-.714.909H6.058Z" transform="translate(1.799 11.371)"/>
      <path id="Path_321" data-name="Path 321" class="cls-1" d="M8.109,296.173v-1.818H1.323v1.818Z" transform="translate(2.963 -261.626)"/>
      <path id="Path_322" data-name="Path 322" class="cls-1" d="M9.63,296.173H2.844v-1.818H9.63Z" transform="translate(9.656 -261.626)"/>
      <path id="Path_323" data-name="Path 323" class="cls-1" d="M5.887,296.173v-1.818h6.786v1.818Z" transform="translate(23.042 -261.626)"/>
      <path id="Path_324" data-name="Path 324" class="cls-1" d="M11.151,296.173v-1.818H4.366v1.818Z" transform="translate(16.349 -261.626)"/>
      <path id="Path_325" data-name="Path 325" class="cls-1" d="M3.386,292.471a1.659,1.659,0,0,0-1.429,1.818v25.453a1.658,1.658,0,0,0,1.429,1.816H37.672A1.659,1.659,0,0,0,39.1,319.74V305.2h1.429V319.74c0,2.008-1.279,3.636-2.857,3.636H3.386c-1.578,0-2.857-1.628-2.857-3.636V294.287c0-2.009,1.279-3.637,2.857-3.637H20.529v1.818Z" transform="translate(-0.529 -283.376)"/>
    </g>
  </g>
</svg>
