<svg xmlns="http://www.w3.org/2000/svg" xmlns:xlink="http://www.w3.org/1999/xlink" width="40" height="40" viewBox="0 0 40 40">
  <defs>
    <style>
      .cls-1 {
        fill: url(#linear-gradient);
      }
    </style>
    <linearGradient id="linear-gradient" x1="0.543" y1="0.5" x2="1.071" y2="1" gradientUnits="objectBoundingBox">
      <stop offset="0" stop-color="#d6ae0a"/>
      <stop offset="1" stop-color="#876500"/>
    </linearGradient>
  </defs>
  <g id="Group_611" data-name="Group 611" transform="translate(-163 -1584.685)">
    <g id="noun_insurance_2006071" transform="translate(163 1584.685)">
      <path id="Path_379" data-name="Path 379" class="cls-1" d="M29.407,18.286a7.279,7.279,0,0,0,7.407-7.143,7.412,7.412,0,0,0-14.815,0,7.279,7.279,0,0,0,7.407,7.143Zm0-12.857a5.823,5.823,0,0,1,5.926,5.714,5.93,5.93,0,0,1-11.852,0A5.823,5.823,0,0,1,29.407,5.429Z" transform="translate(-9.407 -4)"/>
      <path id="Path_380" data-name="Path 380" class="cls-1" d="M45,37V20.571a3.706,3.706,0,0,0-7.407,0V31.793l-.844-.757a3.012,3.012,0,0,0-2.119-.929V27.714a3.639,3.639,0,0,0-3.7-3.571H19.074a3.639,3.639,0,0,0-3.7,3.571v2.393A2.938,2.938,0,0,0,13.3,31l-.889.793V20.571A3.639,3.639,0,0,0,8.7,17,3.639,3.639,0,0,0,5,20.571V37a.7.7,0,0,0,.193.486l7.956,8.364V47a.741.741,0,0,0,1.481,0V45.571a.7.7,0,0,0-.193-.486L6.481,36.721V20.571a2.224,2.224,0,0,1,4.444,0V33.429a.689.689,0,0,0,0,.143.689.689,0,0,0,0,.107.709.709,0,0,0,.141.229h0l6.667,7.143a.762.762,0,0,0,1.048.054.7.7,0,0,0,.056-1.011L12.7,33.471,14.348,32a1.506,1.506,0,0,1,1.059-.464,1.42,1.42,0,0,1,1.081.414l7.77,7.486V47a.741.741,0,0,0,1.481,0V39.436L33.5,31.95a1.4,1.4,0,0,1,1.081-.414,1.5,1.5,0,0,1,1.1.514l1.6,1.429L31.111,40.1a.7.7,0,0,0,.056,1.011.762.762,0,0,0,1.048-.054l6.667-7.143h0a.709.709,0,0,0,.141-.229.689.689,0,0,0,0-.107.689.689,0,0,0,0-.143V20.571a2.224,2.224,0,0,1,4.444,0v16.15l-7.9,8.364a.7.7,0,0,0-.193.486V47a.741.741,0,0,0,1.481,0V45.85l7.956-8.364A.7.7,0,0,0,45,37ZM32.459,30.943,25,38.136l-7.459-7.193a2.96,2.96,0,0,0-.689-.486V27.714a2.184,2.184,0,0,1,2.222-2.143H30.926a2.184,2.184,0,0,1,2.222,2.143v2.743A2.961,2.961,0,0,0,32.459,30.943Z" transform="translate(-5 -7.714)"/>
    </g>
  </g>
</svg>
