<svg xmlns="http://www.w3.org/2000/svg" xmlns:xlink="http://www.w3.org/1999/xlink" width="45.855" height="52.22" viewBox="0 0 45.855 52.22">
  <defs>
    <style>
      .cls-1 {
        fill: url(#linear-gradient);
      }
    </style>
    <linearGradient id="linear-gradient" x1="-0.168" y1="0.084" x2="1.071" y2="1" gradientUnits="objectBoundingBox">
      <stop offset="0" stop-color="#d6ae0a"/>
      <stop offset="1" stop-color="#876500"/>
    </linearGradient>
  </defs>
  <g id="Group_747" data-name="Group 747" transform="translate(-251 -2183)">
    <path id="Path_281" data-name="Path 281" class="cls-1" d="M28.644,15.779a8.985,8.985,0,1,0,6.915,9.761,8.983,8.983,0,0,0-6.915-9.761Zm5.089,10.387a7.3,7.3,0,1,1-5.468-8.732A7.283,7.283,0,0,1,33.733,26.166Z" transform="translate(247.299 2181.394)"/>
    <path id="Path_282" data-name="Path 282" class="cls-1" d="M49.654,5.691H11.79a4.005,4.005,0,0,0-4,3.989V47.558a4.005,4.005,0,0,0,4,3.989h.368a2.008,2.008,0,0,0-.085.594V55.62a2.282,2.282,0,0,0,2.291,2.291h4.979a2.291,2.291,0,0,0,2.291-2.292V52.14a2.614,2.614,0,0,0-.085-.594H39.894a2.008,2.008,0,0,0-.1.594V55.62A2.294,2.294,0,0,0,42.1,57.911h4.965a2.294,2.294,0,0,0,2.305-2.291V52.14a2.011,2.011,0,0,0-.1-.594h.382a4,4,0,0,0,3.989-3.989V9.68a4,4,0,0,0-3.989-3.989ZM19.937,55.62a.6.6,0,0,1-.594.594H14.364a.6.6,0,0,1-.594-.594V52.141a.6.6,0,0,1,.594-.594h4.979a.6.6,0,0,1,.594.594Zm27.736,0a.6.6,0,0,1-.608.594H42.1a.6.6,0,0,1-.608-.594V52.141a.6.6,0,0,1,.608-.594h4.965a.6.6,0,0,1,.608.594Zm4.271-8.062a2.3,2.3,0,0,1-2.291,2.291H11.79a2.3,2.3,0,0,1-2.305-2.291V9.68A2.3,2.3,0,0,1,11.79,7.389H49.654A2.3,2.3,0,0,1,51.945,9.68Z" transform="translate(243.213 2177.309)"/>
    <path id="Path_283" data-name="Path 283" class="cls-1" d="M45.534,12.872H45a2.619,2.619,0,0,0-2.617-2.461H15.152a2.65,2.65,0,0,0-2.645,2.645V40.269a2.641,2.641,0,0,0,2.645,2.645H42.379A2.609,2.609,0,0,0,45,40.453h.537A1.769,1.769,0,0,0,47.3,38.685V30.906a1.769,1.769,0,0,0-1.768-1.768H45.01v-4.95h.523A1.769,1.769,0,0,0,47.3,22.42V14.64a1.769,1.769,0,0,0-1.768-1.768ZM42.379,41.217H15.152a.948.948,0,0,1-.948-.948V13.056a.948.948,0,0,1,.948-.948H42.379a.955.955,0,0,1,.934.764H42.8a1.769,1.769,0,0,0-1.768,1.768V22.42A1.769,1.769,0,0,0,42.8,24.188h.523v4.95H42.8a1.769,1.769,0,0,0-1.768,1.768v7.779A1.769,1.769,0,0,0,42.8,40.453h.509a.955.955,0,0,1-.934.764ZM45.6,30.906v7.779a.067.067,0,0,1-.071.071l-.523-.014L43.327,38.7l-.594-.014.071-7.85.523.014,1.683.042Zm0-8.486a.067.067,0,0,1-.071.071l-.523-.014-1.683-.042-.594-.014.071-7.85.523.014,1.683.042.594.014Z" transform="translate(245.169 2179.264)"/>
  </g>
</svg>
