<svg xmlns="http://www.w3.org/2000/svg" xmlns:xlink="http://www.w3.org/1999/xlink" width="103.339" height="53.744" viewBox="0 0 103.339 53.744">
  <defs>
    <clipPath id="clip-path">
      <rect id="Rectangle_52" data-name="Rectangle 52" transform="translate(0 0)" fill="#fff"/>
    </clipPath>
  </defs>
  <g id="Group_644" data-name="Group 644" transform="translate(0 0)">
    <g id="Group_279" data-name="Group 279" transform="translate(0 0)">
      <path id="Path_13" data-name="Path 13" d="M560.229,210.919v1.009h-2.676v1.7H559.7v.974h-2.145v2.676h-1.27v-6.362Z" transform="translate(-555.326 -210.829)" fill="#fff"/>
      <path id="Path_14" data-name="Path 14" d="M577.758,210.919v6.362h-1.271v-6.362Z" transform="translate(-561.716 -210.829)" fill="#fff"/>
      <path id="Path_15" data-name="Path 15" d="M596.531,217.281l-1.488-2.478h-.558v2.478h-1.271v-6.362h2.425a2.4,2.4,0,0,1,1.69.541,2.027,2.027,0,0,1,.18,2.632,1.977,1.977,0,0,1-1.158.649l1.586,2.541Zm-2.046-3.352h1.045q1.091,0,1.091-.964a.95.95,0,0,0-.266-.717,1.147,1.147,0,0,0-.825-.256h-1.045Z" transform="translate(-567.006 -210.829)" fill="#fff"/>
      <path id="Path_16" data-name="Path 16" d="M618.55,216.4a1.747,1.747,0,0,1-.721.658,2.5,2.5,0,0,1-1.162.248,3.026,3.026,0,0,1-1.208-.23,2.035,2.035,0,0,1-.852-.663,1.91,1.91,0,0,1-.365-1.009h1.353a1.031,1.031,0,0,0,.31.644.977.977,0,0,0,.708.257.824.824,0,0,0,.608-.212.737.737,0,0,0,.212-.545.712.712,0,0,0-.172-.492,1.255,1.255,0,0,0-.432-.311q-.261-.117-.721-.27a6.97,6.97,0,0,1-.974-.392,1.793,1.793,0,0,1-.644-.563,1.616,1.616,0,0,1-.266-.964,1.567,1.567,0,0,1,.59-1.294,2.425,2.425,0,0,1,1.564-.473,2.475,2.475,0,0,1,1.609.487,1.834,1.834,0,0,1,.68,1.3H617.3a.956.956,0,0,0-.288-.563.9.9,0,0,0-.64-.221.849.849,0,0,0-.568.185.753.753,0,0,0-.049,1,1.283,1.283,0,0,0,.423.3,6.9,6.9,0,0,0,.7.261,9.219,9.219,0,0,1,1,.406,1.746,1.746,0,0,1,.654.568,1.666,1.666,0,0,1,.27.991A1.726,1.726,0,0,1,618.55,216.4Z" transform="translate(-573.65 -210.787)" fill="#fff"/>
      <path id="Path_17" data-name="Path 17" d="M639.576,210.919v1.009h-1.758v5.353h-1.271v-5.353H634.8v-1.009Z" transform="translate(-580.157 -210.829)" fill="#fff"/>
      <path id="Path_18" data-name="Path 18" d="M582.989,248.955a23.286,23.286,0,0,1-7.922,2.655c-2.624.343-4.315-.587-4.443-1.564-.094-.721.7-1.452,2.6-1.7,1.132-.147,4.835.155,9.474.02,7.5-4.327,12.463-12.772,11.873-17.3-.269-2.058-1.685-3.287-4.619-2.9-17.494,2.283-34.858,36.052-34.335,40.065.034.256.157.4.362.371,3.087-.4,12.185-17.708,14.576-25.45.077-.221.334-.254.437-.267.206-.027.335.167.376.475.59,4.527-12.308,25.993-15.5,26.409-.566.074-.87-.254-.964-.974-.8-6.122,15.92-38.814,35.114-41.318,4.115-.537,6.094.984,6.415,3.454.605,4.632-4.565,12.737-12.284,17.355,1.352-.07,2.8-.207,4.241-.4.308-.041.708.222.728.375.007.051-.089.117-.243.137C586.669,248.685,584.707,248.888,582.989,248.955Zm-1.506.092c-4.169.125-6.779-.214-8.425,0-1.029.133-1.5.509-1.456.87.081.617,1.474,1.272,3.893.957A18.979,18.979,0,0,0,581.483,249.047Z" transform="translate(-554.884 -216.029)" fill="#d6ae0a"/>
      <path id="Path_19" data-name="Path 19" d="M581.68,273.831a12.323,12.323,0,0,0,2.546-3.92,3,3,0,0,1,1.6-1.737c.289-.038.419.064.435.179.052.4-1.106,1.437-1,2.247s.519,1.284,1.929,1.277a1.771,1.771,0,0,1,.974-.656c.289-.038.508.287.539.518.09.693-2.992,3.213-2.7,5.409.075.579.829.95,1.465.868,1.965-.258,4.575-1.89,6.332-3.3a17.639,17.639,0,0,0,2.921-2.85l.661.56c-1.277,1.931-6.455,5.958-9.982,6.418-1.387.182-2.743-.287-2.931-1.733-.113-.867.715-2.622,1.714-3.988a2.167,2.167,0,0,1-1.959-1.039,35.112,35.112,0,0,1-2.335,2.833,1.083,1.083,0,0,1-.606.315,1.22,1.22,0,0,1-.724-.142C580.968,274.688,581.269,274.295,581.68,273.831Z" transform="translate(-563.001 -228.933)" fill="#d6ae0a"/>
      <path id="Path_20" data-name="Path 20" d="M614.022,266.6l.663.56c-1.278,1.93-6.455,5.957-9.983,6.417a1.525,1.525,0,0,1-1.952-1.449c-.326-2.486,2.124-7.157,2.933-7.262a.439.439,0,0,1,.436.177,1.068,1.068,0,0,1,.168.39c.076.579-2.261,4.295-2.043,5.97.075.578.475.937,1.342.825C608.416,271.853,612.364,268.752,614.022,266.6Zm-3.263-11.041c.289-.038.435.178.472.467.075.58-.54,1.717-1.176,1.8a.574.574,0,0,1-.6-.509A1.922,1.922,0,0,1,610.759,255.554Z" transform="translate(-570.012 -224.943)" fill="#d6ae0a"/>
      <path id="Path_21" data-name="Path 21" d="M634.449,267.424a8.631,8.631,0,0,1-5.616,3.378,2.437,2.437,0,0,1-2.773-1.873c-2.32,2.949-5.58,5.9-7.488,6.152A1.234,1.234,0,0,1,617,273.875c-.294-2.254,2.111-6.8,3.036-6.923a.6.6,0,0,1,.71.5c.1.751-2.922,3.733-2.583,6.334.03.232.277.317.507.287,2.371-.309,5.769-4.458,7.193-6.171-.223-2.148.667-4.792,2.345-5.011.461-.06.631.33.683.734.113.867-.689,2.383-1.931,4.133a2.042,2.042,0,0,0,2.541,1.9,6.744,6.744,0,0,0,4.281-2.794Z" transform="translate(-574.521 -227.262)" fill="#d6ae0a"/>
      <path id="Path_22" data-name="Path 22" d="M646.548,267.016c.173-1.375.948-2.653,2.162-2.812.289-.038.412.006.435.18.053.4-.686,1.5-1.766,2.7.345,2.189,1.608,2.847,3.226,2.636,2.834-.37,6.729-3.406,8.439-5.627l.661.559c-1.277,1.931-6.456,5.958-9.983,6.419-1.965.256-2.907-1.092-3.117-2.711l-.045-.347c-2.129,2.16-5.009,4.417-6.4,4.6-1.155.15-1.693-.367-1.807-1.234-.347-2.659,3.627-8.706,10.218-9.566,1.676-.219,1.787.178,1.825.467.084.637-.553.719-.727.742a10.681,10.681,0,0,0-1.336.116c-5.724.747-8.793,5.617-8.559,7.408a.677.677,0,0,0,.849.654C642.244,270.988,645.714,267.829,646.548,267.016Z" transform="translate(-581.275 -226.903)" fill="#d6ae0a"/>
      <path id="Path_23" data-name="Path 23" d="M659.267,258.1c-.3-2.313,3.371-9.318,7.189-16.108-3.881.448-7.415.85-9.613,1.137-5.2.68-9.531,1.3-11.959,1.618-.81.107-1.947-.04-2.007-.5.1-.6,1.2-.744,1.2-.744,1.677-.22,23.149-2.846,23.149-2.846,1.956-3.488,3.861-6.911,5.171-9.5.7-1.384,1.314-1.64,1.6-1.678a.51.51,0,0,1,.58.394,2.181,2.181,0,0,1-.269,1.094c-1.123,2.205-3.137,5.7-5.294,9.452,3.3-.43,15.8-1.944,15.8-1.944.578-.075,1.162-.092,1.216.311.091.695-.088,1.13-1.417,1.3-.766-.017-8.833.8-16.365,1.664-3.983,6.872-8.154,14.119-7.943,15.737.106.81.455,1.235,1.091,1.151,2.833-.37,7.718-3.947,9.378-6.1l.661.56c-1.278,1.93-6.455,5.957-9.983,6.418C660.354,259.666,659.426,259.316,659.267,258.1Z" transform="translate(-582.711 -216.699)" fill="#d6ae0a"/>
      <path id="Path_24" data-name="Path 24" d="M694.107,260.169l.661.559c-1.276,1.93-6.6,6.623-10.13,7.084a2.657,2.657,0,0,1-3.05-2.189c-.438-3.354,3.89-7.151,6.085-7.438a.955.955,0,0,1,1.227.84c.181,1.387-2.928,4.145-5.839,6.169.128.983.681,1.617,2.126,1.428C687.789,266.284,692.448,262.326,694.107,260.169Zm-10.993,4.079c2.76-1.829,4.572-3.713,4.452-4.637-.031-.231-.219-.325-.508-.286C685.265,259.557,683.436,262.207,683.114,264.248Z" transform="translate(-594.944 -225.772)" fill="#d6ae0a"/>
    </g>
  </g>
</svg>
