<svg id="noun_Trophy_4058119" xmlns="http://www.w3.org/2000/svg" xmlns:xlink="http://www.w3.org/1999/xlink" width="40" height="40" viewBox="0 0 40 40">
  <defs>
    <style>
      .cls-1 {
        fill: url(#linear-gradient);
      }
    </style>
    <linearGradient id="linear-gradient" x1="0.543" y1="0.5" x2="1.071" y2="1" gradientUnits="objectBoundingBox">
      <stop offset="0" stop-color="#d6ae0a"/>
      <stop offset="1" stop-color="#876500"/>
    </linearGradient>
  </defs>
  <g id="Group_627" data-name="Group 627" transform="translate(0 0)">
    <path id="Path_334" data-name="Path 334" class="cls-1" d="M38.764,25.582A8.139,8.139,0,0,0,44.8,19.358l1.648-7.3a3.079,3.079,0,0,0-.769-2.75,2.929,2.929,0,0,0-2.145-.919H39.968l.151-2.2c0-.011-.005-.02,0-.03s.007-.019.007-.029a.775.775,0,0,0-.035-.152.839.839,0,0,0-.041-.18.873.873,0,0,0-.1-.155.928.928,0,0,0-.111-.144,1.047,1.047,0,0,0-.159-.108,1.032,1.032,0,0,0-.167-.1,1.177,1.177,0,0,0-.2-.047,1.118,1.118,0,0,0-.171-.041c-.012,0-.023,0-.035,0s-.021-.006-.033-.006h-25.1c-.011,0-.021.005-.032.006s-.023,0-.035,0a1.166,1.166,0,0,0-.171.041,1.177,1.177,0,0,0-.2.047,1.033,1.033,0,0,0-.167.1A1.021,1.021,0,0,0,13.2,5.5a.929.929,0,0,0-.111.144.875.875,0,0,0-.1.155.829.829,0,0,0-.041.18.778.778,0,0,0-.035.152c0,.01.006.019.007.029s-.005.02,0,.03l.151,2.2H9.5a2.929,2.929,0,0,0-2.145.919,3.083,3.083,0,0,0-.766,2.763l1.644,7.282a8.142,8.142,0,0,0,6.039,6.224c.383,3.619,3.319,6.687,7.63,8.044v3.735a7.513,7.513,0,0,0-6.635,5.992H8.377a.934.934,0,1,0,0,1.853H44.656a.934.934,0,1,0,0-1.853H37.771a7.512,7.512,0,0,0-6.635-5.992V33.626C35.444,32.267,38.373,29.208,38.764,25.582ZM24.007,37.249V34.131a14.286,14.286,0,0,0,5.019,0v3.117Zm19.53-27a.739.739,0,0,1,.525.252,1.387,1.387,0,0,1,.318,1.217L42.734,19a6.3,6.3,0,0,1-3.805,4.584l.912-13.336h3.7ZM10.3,19,8.656,11.729A1.393,1.393,0,0,1,8.972,10.5a.74.74,0,0,1,.525-.252h3.7l.919,13.339A6.3,6.3,0,0,1,10.3,19Zm6.031,6.219L15.245,9.363c0-.015.01-.028.01-.043a.733.733,0,0,0-.018-.08l-.149-2.18H37.946L37.8,9.249c0,.024-.016.046-.016.071s.008.025.009.038L36.725,24.791l-.02.409c-.219,3.16-2.936,5.866-6.93,6.9a13.348,13.348,0,0,1-6.527,0C19.264,31.066,16.547,28.36,16.329,25.217ZM35.673,43.354H17.361a5.747,5.747,0,0,1,5.8-4.251h6.712A5.746,5.746,0,0,1,35.673,43.354Z" transform="translate(-6.518 -5.206)"/>
    <path id="Path_335" data-name="Path 335" class="cls-1" d="M23.811,16.906c0-2.181-3.572-6.3-4.288-7.109a1.194,1.194,0,0,0-1.662,0c-.716.8-4.288,4.927-4.288,7.109,0,2.479,2.3,4.5,5.119,4.5S23.811,19.385,23.811,16.906Zm-8.129,0c0-.95,1.565-3.224,3.01-4.991,1.445,1.767,3.01,4.04,3.01,4.991a2.848,2.848,0,0,1-3.01,2.644A2.848,2.848,0,0,1,15.682,16.906Z" transform="translate(1.307 -1.578)"/>
  </g>
</svg>
