<svg width="32" height="32" viewBox="0 0 32 32" fill="none" xmlns="http://www.w3.org/2000/svg">
<circle cx="16" cy="16" r="16" fill="url(#paint0_linear_197:4250)"/>
<path d="M7.69454 16.8654H23.1875L18.0595 21.4334C17.9956 21.4872 17.9442 21.5543 17.9089 21.63C17.8737 21.7058 17.8554 21.7883 17.8554 21.8719C17.8554 21.9554 17.8737 22.038 17.9089 22.1137C17.9442 22.1895 17.9956 22.2566 18.0595 22.3104C18.1967 22.4274 18.3712 22.4917 18.5515 22.4917C18.7319 22.4917 18.9063 22.4274 19.0435 22.3104L25.3655 16.6854C25.4295 16.6316 25.4809 16.5645 25.5162 16.4887C25.5514 16.413 25.5697 16.3304 25.5697 16.2469C25.5697 16.1633 25.5514 16.0808 25.5162 16.005C25.4809 15.9293 25.4295 15.8622 25.3655 15.8084L19.0495 10.1814C18.9123 10.0643 18.7379 10 18.5575 10C18.3772 10 18.2027 10.0643 18.0655 10.1814C18.0016 10.2352 17.9502 10.3023 17.9149 10.378C17.8797 10.4538 17.8614 10.5363 17.8614 10.6199C17.8614 10.7034 17.8797 10.786 17.9149 10.8617C17.9502 10.9375 18.0016 11.0046 18.0655 11.0584L23.1935 15.6264H7.69454C7.60721 15.6164 7.51876 15.6251 7.43499 15.6517C7.35122 15.6783 7.27402 15.7223 7.20845 15.7809C7.14288 15.8394 7.09042 15.9111 7.05449 15.9913C7.01857 16.0716 7 16.1585 7 16.2464C7 16.3343 7.01857 16.4212 7.05449 16.5014C7.09042 16.5816 7.14288 16.6533 7.20845 16.7119C7.27402 16.7704 7.35122 16.8144 7.43499 16.8411C7.51876 16.8677 7.60721 16.8763 7.69454 16.8664V16.8654Z" fill="white"/>
<defs>
<linearGradient id="paint0_linear_197:4250" x1="16" y1="0" x2="16" y2="32" gradientUnits="userSpaceOnUse">
<stop stop-color="#700B11"/>
<stop offset="1" stop-color="#911821"/>
</linearGradient>
</defs>
</svg>
