<svg xmlns="http://www.w3.org/2000/svg" xmlns:xlink="http://www.w3.org/1999/xlink" width="40" height="40" viewBox="0 0 40 40">
  <defs>
    <linearGradient id="linear-gradient" x1="0.5" x2="0.5" y2="1" gradientUnits="objectBoundingBox">
      <stop offset="0" stop-color="#9d1d27"/>
      <stop offset="1" stop-color="#54123c"/>
    </linearGradient>
  </defs>
  <g id="Section_3_Icon_2" data-name="Section 3 Icon 2" transform="translate(-10.087 -9.914)">
    <path id="Path_442" data-name="Path 442" d="M39.488,37.107H51.536a.558.558,0,0,0,0-1.116H39.488a.558.558,0,0,0,0,1.116Z" transform="translate(-15.157 -11.092)" fill="url(#linear-gradient)"/>
    <path id="Path_443" data-name="Path 443" d="M39.488,40.792h18a.558.558,0,0,0,0-1.116h-18a.558.558,0,0,0,0,1.116Z" transform="translate(-15.717 -12.942)" fill="url(#linear-gradient)"/>
    <path id="Path_444" data-name="Path 444" d="M26.223,38.668a.558.558,0,0,0,.789,0l1.6-1.6a.558.558,0,1,0-.789-.789l-1.2,1.2-1.2-1.2a.558.558,0,0,0-.789.789Z" transform="translate(-7.292 -11.216)" fill="url(#linear-gradient)"/>
    <path id="Path_445" data-name="Path 445" d="M39.488,19.77H51.536a.558.558,0,0,0,0-1.116H39.488a.558.558,0,0,0,0,1.116Z" transform="translate(-15.157 -3.864)" fill="url(#linear-gradient)"/>
    <path id="Path_446" data-name="Path 446" d="M57.492,22.338h-18a.558.558,0,0,0,0,1.116h18a.558.558,0,1,0,0-1.116Z" transform="translate(-15.717 -5.486)" fill="url(#linear-gradient)"/>
    <path id="Path_447" data-name="Path 447" d="M48.835,20.6a.526.526,0,0,0,.487-.558V12.717a.526.526,0,0,0-.487-.558h-3.18V10.472a.491.491,0,1,0-.974,0v1.687H21.61V10.472a.491.491,0,1,0-.974,0v1.687H17.491a.526.526,0,0,0-.487.558v7.33a.526.526,0,0,0,.487.558h3.145v1.228H17.491a.526.526,0,0,0-.487.558v7.33a.526.526,0,0,0,.487.558H48.835a.526.526,0,0,0,.487-.558V22.39a.526.526,0,0,0-.487-.558h-3.18V20.6ZM17.978,13.275H48.348v6.214H17.978ZM48.348,29.162H17.978V22.948H48.348Zm-3.667-7.33H21.61V20.6H44.681Z" transform="translate(-3.058)" fill="url(#linear-gradient)"/>
    <path id="Path_448" data-name="Path 448" d="M27.819,18.945l-1.2,1.2-1.2-1.2a.558.558,0,0,0-.789.789l1.6,1.6a.558.558,0,0,0,.789,0l1.6-1.6a.558.558,0,0,0-.789-.789Z" transform="translate(-7.293 -3.92)" fill="url(#linear-gradient)"/>
    <path id="Path_449" data-name="Path 449" d="M10.587,67.362a.462.462,0,0,0,.269-.089A11.714,11.714,0,0,0,13.2,64.936V75.819H10.64a.561.561,0,0,0,0,1.116H49.567a.561.561,0,0,0,0-1.116H46.9V64.842a11.835,11.835,0,0,0,2.415,2.431.462.462,0,0,0,.27.089.488.488,0,0,0,.42-.256.6.6,0,0,0-.15-.771,11.484,11.484,0,0,1-2.5-2.645,1.866,1.866,0,0,0,.661-1.446,1.62,1.62,0,1,0-3.219,0,1.865,1.865,0,0,0,.691,1.474c-2.364,2.53-4.858,3.778-7.417,3.689-3.518-.114-6.227-2.719-7.112-3.683a1.864,1.864,0,0,0,.7-1.479,1.62,1.62,0,1,0-3.219,0,1.863,1.863,0,0,0,.707,1.489c-2.36,2.52-4.853,3.763-7.4,3.674-3.528-.114-6.241-2.733-7.118-3.69a1.864,1.864,0,0,0,.689-1.472,1.715,1.715,0,0,0-1.61-1.8,1.715,1.715,0,0,0-1.61,1.8,1.864,1.864,0,0,0,.7,1.485,11.436,11.436,0,0,1-2.476,2.606.6.6,0,0,0-.15.771A.488.488,0,0,0,10.587,67.362ZM46.4,61.56a.688.688,0,1,1-.611.684A.652.652,0,0,1,46.4,61.56Zm-8.092,6.967c2.641,0,5.191-1.252,7.593-3.72V75.819H30.542V64.829a11.511,11.511,0,0,0,7.486,3.692C38.123,68.525,38.217,68.527,38.311,68.527ZM30.043,61.56a.688.688,0,1,1-.612.684A.652.652,0,0,1,30.043,61.56Zm-8.062,6.967c2.63,0,5.17-1.242,7.563-3.69V75.819H14.2v-11c1.179,1.22,3.916,3.588,7.5,3.708C21.793,68.525,21.887,68.527,21.981,68.527ZM13.7,61.56a.688.688,0,1,1-.612.684A.652.652,0,0,1,13.7,61.56Z" transform="translate(0 -27.021)" fill="url(#linear-gradient)"/>
  </g>
</svg>
