<svg xmlns="http://www.w3.org/2000/svg" xmlns:xlink="http://www.w3.org/1999/xlink" width="54" height="54" viewBox="0 0 54 54">
  <defs>
    <clipPath id="clip-path">
      <rect id="Rectangle_463" data-name="Rectangle 463" width="40" height="40" transform="translate(-13487 -3954)" fill="#fff"/>
    </clipPath>
    <linearGradient id="linear-gradient" x1="0.5" x2="0.5" y2="1" gradientUnits="objectBoundingBox">
      <stop offset="0" stop-color="#700b11"/>
      <stop offset="1" stop-color="#911821"/>
    </linearGradient>
  </defs>
  <g id="_1" data-name="1" transform="translate(13535 3963)">
    <g id="Group_905" data-name="Group 905" transform="translate(-13535 -3963)">
      <circle id="Ellipse_109" data-name="Ellipse 109" cx="27" cy="27" r="27" fill="#fff"/>
    </g>
    <g id="Section_4_icon_1" data-name="Section 4 icon 1" transform="translate(-41 -2)" clip-path="url(#clip-path)">
      <g id="Group_1342" data-name="Group 1342" transform="translate(-31 3.996)">
        <path id="Path_684" data-name="Path 684" d="M31.005,4.977H7.261A2.264,2.264,0,0,0,5,7.238v21.4A2.264,2.264,0,0,0,7.261,30.9H8.511v1.8a.565.565,0,0,0,.565.565h4.178a.565.565,0,0,0,.565-.565V30.9H24.448v1.8a.565.565,0,0,0,.565.565h4.178a.565.565,0,0,0,.565-.565V30.9h1.249a2.264,2.264,0,0,0,2.261-2.261V7.238A2.264,2.264,0,0,0,31.005,4.977ZM12.688,32.139H9.641V30.9h3.047Zm15.937,0H25.578V30.9h3.047Zm3.511-3.5a1.132,1.132,0,0,1-1.131,1.131H7.261a1.132,1.132,0,0,1-1.131-1.131V7.238A1.132,1.132,0,0,1,7.261,6.108H31.005a1.132,1.132,0,0,1,1.131,1.131Z" transform="translate(-13455 -3956.977)" fill="url(#linear-gradient)"/>
        <path id="Path_685" data-name="Path 685" d="M30.461,10.61H12.172a1.7,1.7,0,0,0-1.7,1.7v1.97h-.1a1.572,1.572,0,1,0,0,3.145h.1v5.621h-.1a1.572,1.572,0,1,0,0,3.145h.1v2.848a1.7,1.7,0,0,0,1.7,1.7H30.461a1.7,1.7,0,0,0,1.7-1.7V12.306A1.7,1.7,0,0,0,30.461,10.61ZM9.932,15.848a.442.442,0,0,1,.442-.442h1.519a.442.442,0,1,1,0,.883H10.374A.442.442,0,0,1,9.932,15.848Zm0,8.766a.442.442,0,0,1,.442-.442h1.519a.442.442,0,1,1,0,.883H10.374A.442.442,0,0,1,9.932,24.614Zm21.094,4.42a.566.566,0,0,1-.565.565H12.172a.566.566,0,0,1-.565-.565V26.186h.287a1.572,1.572,0,0,0,0-3.145h-.287V17.42h.287a1.572,1.572,0,1,0,0-3.145h-.287v-1.97a.566.566,0,0,1,.565-.565H30.461a.566.566,0,0,1,.565.565Z" transform="translate(-13456.653 -3959.425)" fill="url(#linear-gradient)"/>
        <path id="Path_686" data-name="Path 686" d="M41.845,23.34a.565.565,0,1,0,0-1.131H40.381a.565.565,0,0,0-.565.565v5.874a.565.565,0,0,0,.565.565h1.465a.565.565,0,1,0,0-1.131h-.9V23.34h.9Z" transform="translate(-13470.133 -3964.467)" fill="url(#linear-gradient)"/>
        <path id="Path_687" data-name="Path 687" d="M23.125,21.875a2.7,2.7,0,0,0-2.691,2.7,2.668,2.668,0,0,0,.984,2.077v1.685a.757.757,0,0,0,.756.756h1.914a.754.754,0,0,0,.75-.756V26.648a2.668,2.668,0,0,0,.984-2.077A2.7,2.7,0,0,0,23.125,21.875Zm.845,4.007a.566.566,0,0,0-.263.478v1.6H22.549v-1.6a.566.566,0,0,0-.263-.478,1.544,1.544,0,0,1-.721-1.311,1.563,1.563,0,1,1,3.126,0A1.544,1.544,0,0,1,23.97,25.882Z" transform="translate(-13461.709 -3964.322)" fill="url(#linear-gradient)"/>
      </g>
    </g>
  </g>
</svg>
