<svg xmlns="http://www.w3.org/2000/svg" xmlns:xlink="http://www.w3.org/1999/xlink" width="54" height="54" viewBox="0 0 54 54">
  <defs>
    <clipPath id="clip-path">
      <rect id="Rectangle_459" data-name="Rectangle 459" width="40" height="40" transform="translate(-13481 -3876)" fill="#fff"/>
    </clipPath>
  </defs>
  <g id="_2" data-name="2" transform="translate(13535 3876)">
    <circle id="Ellipse_109" data-name="Ellipse 109" cx="27" cy="27" r="27" transform="translate(-13535 -3876)" fill="#fff"/>
    <g id="Section_4_icon_2" data-name="Section 4 icon 2" transform="translate(-47 7)" clip-path="url(#clip-path)">
      <g id="Group_1341" data-name="Group 1341" transform="translate(-13475 -3870)">
        <path id="Path_290" data-name="Path 290" d="M40.425,15.248H30.071a.518.518,0,0,1-.518-.518A1.035,1.035,0,0,0,28.518,13.7.518.518,0,0,1,28,13.177V10.071a.518.518,0,0,1,.518-.518,1.035,1.035,0,0,0,1.035-1.035A.518.518,0,0,1,30.071,8H40.425a.518.518,0,0,1,.518.518,1.035,1.035,0,0,0,1.035,1.035.518.518,0,0,1,.518.518v3.106a.518.518,0,0,1-.518.518,1.035,1.035,0,0,0-1.035,1.035A.518.518,0,0,1,40.425,15.248Zm-9.9-1.035h9.454a2.071,2.071,0,0,1,1.486-1.486V10.521a2.071,2.071,0,0,1-1.486-1.486H30.521a2.071,2.071,0,0,1-1.486,1.486v2.206A2.071,2.071,0,0,1,30.521,14.213Z" transform="translate(-15.575 -5.929)" fill="#770d13"/>
        <path id="Path_292" data-name="Path 292" d="M39.589,15.177a2.589,2.589,0,1,1,2.589-2.589A2.589,2.589,0,0,1,39.589,15.177Zm0-4.142a1.553,1.553,0,1,0,1.553,1.553A1.553,1.553,0,0,0,39.589,11.035Z" transform="translate(-19.915 -6.894)" fill="#770d13"/>
        <path id="Path_289" data-name="Path 289" d="M41.085,15.39H25.553A1.553,1.553,0,0,1,24,13.837V5.553A1.553,1.553,0,0,1,25.553,4H41.085a1.553,1.553,0,0,1,1.553,1.553v8.284A1.553,1.553,0,0,1,41.085,15.39ZM25.553,5.035a.518.518,0,0,0-.518.518v8.284a.518.518,0,0,0,.518.518H41.085a.518.518,0,0,0,.518-.518V5.553a.518.518,0,0,0-.518-.518Z" transform="translate(-13.646 -4)" fill="#770d13"/>
        <path id="Path_291" data-name="Path 291" d="M21.085,49.39H5.553A1.553,1.553,0,0,1,4,47.837V39.553A1.553,1.553,0,0,1,5.553,38H21.085a1.553,1.553,0,0,1,1.553,1.553v8.284A1.553,1.553,0,0,1,21.085,49.39ZM5.553,39.035a.518.518,0,0,0-.518.518v8.284a.518.518,0,0,0,.518.518H21.085a.518.518,0,0,0,.518-.518V39.553a.518.518,0,0,0-.518-.518Z" transform="translate(-4 -20.397)" fill="#770d13"/>
        <path id="Path_293" data-name="Path 293" d="M19.106,49.213a3.106,3.106,0,1,1,3.106-3.106A3.106,3.106,0,0,1,19.106,49.213Zm0-5.177a2.071,2.071,0,1,0,2.071,2.071A2.071,2.071,0,0,0,19.106,44.035Z" transform="translate(-9.787 -22.809)" fill="#770d13"/>
        <path id="Path_294" data-name="Path 294" d="M12.518,23.837A.518.518,0,0,1,12,23.319V18.66A4.66,4.66,0,0,1,16.66,14a.518.518,0,0,1,0,1.035,3.624,3.624,0,0,0-3.624,3.624v4.66A.518.518,0,0,1,12.518,23.837Z" transform="translate(-7.858 -8.823)" fill="#770d13"/>
        <path id="Path_295" data-name="Path 295" d="M10.828,30.346a.518.518,0,0,1-.368-.15L8.648,28.383a.52.52,0,0,1,.735-.735l1.444,1.45,1.444-1.45a.52.52,0,0,1,.735.735L11.2,30.2A.518.518,0,0,1,10.828,30.346Z" transform="translate(-6.168 -15.331)" fill="#770d13"/>
        <path id="Path_296" data-name="Path 296" d="M42.518,41.837a.518.518,0,1,1,0-1.035,3.624,3.624,0,0,0,3.624-3.624v-4.66a.518.518,0,1,1,1.035,0v4.66A4.66,4.66,0,0,1,42.518,41.837Z" transform="translate(-22.327 -17.504)" fill="#770d13"/>
        <path id="Path_297" data-name="Path 297" d="M50.64,34.845a.518.518,0,0,1-.368-.15l-1.444-1.45-1.444,1.45a.52.52,0,1,1-.735-.735l1.812-1.812a.518.518,0,0,1,.735,0l1.812,1.812a.518.518,0,0,1-.368.885Z" transform="translate(-24.495 -17.501)" fill="#770d13"/>
        <path id="Path_298" data-name="Path 298" d="M10.589,46.035H8.518a.518.518,0,0,1,0-1.035h2.071a.518.518,0,0,1,0,1.035Z" transform="translate(-5.929 -23.773)" fill="#770d13"/>
        <path id="Path_299" data-name="Path 299" d="M10.589,52.035H8.518a.518.518,0,0,1,0-1.035h2.071a.518.518,0,0,1,0,1.035Z" transform="translate(-5.929 -26.667)" fill="#770d13"/>
        <path id="Path_300" data-name="Path 300" d="M32.589,46.035H30.518a.518.518,0,0,1,0-1.035h2.071a.518.518,0,0,1,0,1.035Z" transform="translate(-16.539 -23.773)" fill="#770d13"/>
        <path id="Path_301" data-name="Path 301" d="M32.589,52.035H30.518a.518.518,0,0,1,0-1.035h2.071a.518.518,0,0,1,0,1.035Z" transform="translate(-16.539 -26.667)" fill="#770d13"/>
      </g>
    </g>
  </g>
</svg>
