<svg xmlns="http://www.w3.org/2000/svg" xmlns:xlink="http://www.w3.org/1999/xlink" width="103.35" height="53.75" viewBox="0 0 103.35 53.75">
  <defs>
    <clipPath id="clip-path">
      <rect id="Rectangle_496" data-name="Rectangle 496" width="103.35" height="53.75" transform="translate(-19455 -4003)" fill="#fff"/>
    </clipPath>
  </defs>
  <g id="LOGOWealth" transform="translate(19455 4003)" clip-path="url(#clip-path)">
    <g id="logo" transform="translate(-20017.898 -4327.33)">
      <path id="Path_697" data-name="Path 697" d="M323.061,416.312v.956h-2.536v1.614h2.033v.923h-2.033v2.537h-1.2v-6.03Z" transform="translate(246.675 -89.519)" fill="#fff"/>
      <path id="Path_698" data-name="Path 698" d="M340.731,416.312v6.03h-1.2v-6.03Z" transform="translate(239.562 -89.519)" fill="#fff"/>
      <path id="Path_699" data-name="Path 699" d="M359.4,422.342l-1.409-2.349h-.529v2.349h-1.2v-6.03h2.3a2.27,2.27,0,0,1,1.6.512,1.755,1.755,0,0,1,.551,1.349,1.737,1.737,0,0,1-.38,1.145,1.873,1.873,0,0,1-1.1.615l1.5,2.408Zm-1.939-3.178h.99q1.034,0,1.033-.914a.9.9,0,0,0-.251-.679,1.09,1.09,0,0,0-.782-.243h-.99Z" transform="translate(233.673 -89.519)" fill="#fff"/>
      <path id="Path_700" data-name="Path 700" d="M381.363,421.5a1.651,1.651,0,0,1-.684.623,2.364,2.364,0,0,1-1.1.235,2.868,2.868,0,0,1-1.144-.218,1.933,1.933,0,0,1-.807-.628,1.809,1.809,0,0,1-.346-.956h1.282a.977.977,0,0,0,.294.61.925.925,0,0,0,.671.244.78.78,0,0,0,.576-.2.7.7,0,0,0,.2-.516.678.678,0,0,0-.163-.466,1.2,1.2,0,0,0-.41-.295q-.248-.111-.683-.256a6.615,6.615,0,0,1-.923-.372,1.686,1.686,0,0,1-.61-.533,1.531,1.531,0,0,1-.252-.914,1.485,1.485,0,0,1,.559-1.226,2.3,2.3,0,0,1,1.482-.448,2.346,2.346,0,0,1,1.525.461,1.739,1.739,0,0,1,.645,1.23h-1.3a.909.909,0,0,0-.273-.534.851.851,0,0,0-.606-.209.8.8,0,0,0-.538.175.713.713,0,0,0-.047.949,1.219,1.219,0,0,0,.4.286,6.471,6.471,0,0,0,.662.247,8.816,8.816,0,0,1,.943.385,1.655,1.655,0,0,1,.619.538,1.579,1.579,0,0,1,.257.94A1.636,1.636,0,0,1,381.363,421.5Z" transform="translate(226.277 -89.472)" fill="#fff"/>
      <path id="Path_701" data-name="Path 701" d="M402.366,416.312v.956H400.7v5.073h-1.2v-5.073h-1.657v-.956Z" transform="translate(219.033 -89.519)" fill="#fff"/>
      <g id="Path_702" data-name="Path 702" transform="translate(247.686 -96.392)" fill="none" stroke-linecap="square" stroke-dasharray="1000 1000">
        <path d="M358.485,445.255a7.347,7.347,0,0,0-.163-1.56,10.886,10.886,0,0,0-.358-1.3q-.228-.65-.487-1.236a5.1,5.1,0,0,0-1.187-1.252q-.861-.7-1.739-1.35a1.677,1.677,0,0,1-.732-.927,1.488,1.488,0,0,1,.049-.8,1.521,1.521,0,0,1,.553-.716,1.2,1.2,0,0,1,.553-.26,1.144,1.144,0,0,1,.617.049,2.72,2.72,0,0,1,.813.471,5.473,5.473,0,0,1,.812.78,8.222,8.222,0,0,1,.732.943,6.653,6.653,0,0,1,.666,1.3,10.654,10.654,0,0,1,.748,2.52,16.762,16.762,0,0,1,.228,3.235,36.491,36.491,0,0,1-.651,6.194,40.743,40.743,0,0,1-1.853,6.681,44.945,44.945,0,0,1-2.227,5.283,21.882,21.882,0,0,1-2.682,4.179,11.219,11.219,0,0,1-1.821,1.95,10.19,10.19,0,0,1-1.983,1.35,5.277,5.277,0,0,1-2.5.6,3.086,3.086,0,0,1-1.284-.244,4.041,4.041,0,0,1-.893-.537,4.585,4.585,0,0,1-.715-.748,8.45,8.45,0,0,1-.992-3.934,28.7,28.7,0,0,1,.5-6.34q-.423.878-.813,1.723-.358.715-.732,1.5t-.666,1.333q-.749,1.3-1.545,2.536a18.394,18.394,0,0,1-1.674,2.227,11.721,11.721,0,0,1-1.8,1.674,4.807,4.807,0,0,1-1.87.878,6.686,6.686,0,0,1-.975.13,5.966,5.966,0,0,1-.975-.016,3.366,3.366,0,0,1-1.041-.277,3.266,3.266,0,0,1-1.2-.829,5.35,5.35,0,0,1-.781-1.09,6.614,6.614,0,0,1-.585-1.332,10.856,10.856,0,0,1-.439-4.667,24.535,24.535,0,0,1,1.155-5.136,38.718,38.718,0,0,1,2.178-5.186q1.3-2.568,2.7-4.828t2.683-4.065q1.284-1.8,2.129-2.91-1.529.847-3.024,1.528t-3.039,1.365q-1.545.683-3.2,1.5t-3.544,1.917a15.807,15.807,0,0,0-3.234,2.471,15.411,15.411,0,0,0-1.837,2.244,6.8,6.8,0,0,0-.976,2.276q-.065.325-.146.78t-.13.991a9.137,9.137,0,0,0-.032,1.105,5.036,5.036,0,0,0,.146,1.089,1.979,1.979,0,0,1-.033,1.2,1.7,1.7,0,0,1-.487.65,1.626,1.626,0,0,1-.878.293,1.29,1.29,0,0,1-.586-.13,1.383,1.383,0,0,1-.439-.439,1.966,1.966,0,0,1-.276-.894,7.982,7.982,0,0,1-.033-1.626,12.964,12.964,0,0,1,.293-1.74,10.049,10.049,0,0,1,.781-2.129,15.692,15.692,0,0,1,4.763-5.82,31.609,31.609,0,0,1,8.437-4.389q.325-.129.8-.325t.992-.422q.52-.228,1.072-.456c.369-.151.715-.293,1.041-.422q1.787-.846,3.431-1.756t2.909-1.658q1.268-.747,2.016-1.236t.78-.488a.5.5,0,0,1,.779.13.974.974,0,0,1,.065.2,1.832,1.832,0,0,1-.016.227.556.556,0,0,1-.114.26q-.032.032-.959,1.155t-2.373,3.023q-1.447,1.9-3.186,4.373t-3.4,5.17q-1.952,3.219-3.251,5.934a32.055,32.055,0,0,0-1.951,4.99,12.47,12.47,0,0,0-.618,4.552,7.769,7.769,0,0,0,.2.975,5.743,5.743,0,0,0,.276.862,2.67,2.67,0,0,0,.5.8,3.123,3.123,0,0,0,2.536,1.138v-.032a3.657,3.657,0,0,0,2.064-.829,11.19,11.19,0,0,0,2.08-2.13,28.5,28.5,0,0,0,2.032-3.073q1.008-1.739,1.951-3.658,1.073-2.275,2-4.616t1.642-4.324q.715-1.984,1.17-3.382t.553-1.788l.13-.586q.064-.292.13-.584a1.947,1.947,0,0,1,.032-.212,2.612,2.612,0,0,1,.13-.439c.065-.151.135-.314.211-.487a1.583,1.583,0,0,1,.276-.439.547.547,0,0,1,.358-.2.6.6,0,0,1,.423.179,2.249,2.249,0,0,1,.667,1.772,10.925,10.925,0,0,1-.439,2.91q-.1.359-.39,1.366l-.7,2.406q-.407,1.4-.845,3.1t-.83,3.479q-.39,1.773-.649,3.511a28.065,28.065,0,0,0-.309,3.218,10.682,10.682,0,0,0,.195,2.6,2.865,2.865,0,0,0,.861,1.641,3.438,3.438,0,0,0,.7,0,4.992,4.992,0,0,0,1.317-.308,9.252,9.252,0,0,0,1.788-.91,10.507,10.507,0,0,0,2.114-1.853,21.71,21.71,0,0,0,2.276-3.1,34.147,34.147,0,0,0,2.341-4.65q.455-1.073.845-2.308t.683-2.276q.357-1.235.617-2.406.358-1.853.553-3.577T358.485,445.255Z" stroke="none"/>
        <path d="M 355.1760559082031 435.8359069824219 C 355.3010559082031 435.8359069824219 355.4400329589844 435.8598937988281 355.592041015625 435.9078979492188 C 355.8300476074219 435.98388671875 356.1010437011719 436.139892578125 356.404052734375 436.37890625 C 356.68603515625 436.5958862304688 356.95703125 436.8558959960938 357.217041015625 437.1589050292969 C 357.4550476074219 437.4188842773438 357.6990356445312 437.73388671875 357.9490356445312 438.1018981933594 C 358.1980285644531 438.4708862304688 358.4200439453125 438.9049072265625 358.6150512695312 439.4028930664062 C 358.9400329589844 440.1178894042969 359.1890258789062 440.9578857421875 359.363037109375 441.9229125976562 C 359.5360412597656 442.8869018554688 359.6120300292969 443.9659118652344 359.5910339355469 445.1578979492188 C 359.5690307617188 447.0649108886719 359.35205078125 449.1298828125 358.9400329589844 451.3518981933594 C 358.5280456542969 453.5729064941406 357.9110412597656 455.8009033203125 357.0870361328125 458.0318908691406 C 356.4150390625 459.9408874511719 355.6730346679688 461.701904296875 354.8600463867188 463.3158874511719 C 354.0470275878906 464.930908203125 353.1530456542969 466.3238830566406 352.1780395507812 467.493896484375 C 351.6350402832031 468.2308959960938 351.0280456542969 468.8808898925781 350.3570556640625 469.4448852539062 C 349.7930297851562 469.9429016113281 349.1320495605469 470.3928833007812 348.3740539550781 470.7948913574219 C 347.6140441894531 471.1958923339844 346.780029296875 471.3959045410156 345.8700256347656 471.3959045410156 C 345.3720397949219 471.3959045410156 344.9430541992188 471.3149108886719 344.5860290527344 471.1518859863281 C 344.22802734375 470.9898986816406 343.9300537109375 470.8108825683594 343.6920471191406 470.6159057617188 C 343.4100341796875 470.3768920898438 343.1720275878906 470.1278991699219 342.97705078125 469.8669128417969 C 342.4130554199219 468.9569091796875 342.08203125 467.6448974609375 341.9850463867188 465.9338989257812 C 341.8870544433594 464.2208862304688 342.0550537109375 462.10791015625 342.4890441894531 459.5928955078125 C 342.20703125 460.1788940429688 341.93603515625 460.7528991699219 341.6760559082031 461.31689453125 C 341.4370422363281 461.7938842773438 341.1930541992188 462.2919006347656 340.9440307617188 462.8118896484375 C 340.6950378417969 463.3328857421875 340.4730529785156 463.7759094238281 340.2780456542969 464.1448974609375 C 339.779052734375 465.0119018554688 339.2640380859375 465.85791015625 338.7330322265625 466.680908203125 C 338.2020263671875 467.5048828125 337.64404296875 468.2468872070312 337.0590515136719 468.9078979492188 C 336.4730529785156 469.5689086914062 335.8720397949219 470.1278991699219 335.2550354003906 470.5828857421875 C 334.6360473632812 471.0379028320312 334.0130310058594 471.3298950195312 333.3850402832031 471.4609069824219 C 333.0810546875 471.52490234375 332.7560424804688 471.5689086914062 332.4100341796875 471.5909118652344 C 332.1065673828125 471.6108093261719 331.7818298339844 471.606689453125 331.4340515136719 471.5748901367188 C 331.0870361328125 471.5419006347656 330.7400512695312 471.4498901367188 330.39404296875 471.2979125976562 C 329.9170532226562 471.1029052734375 329.5160522460938 470.826904296875 329.1910400390625 470.4689025878906 C 328.8660278320312 470.1119079589844 328.6050415039062 469.7478942871094 328.4100341796875 469.37890625 C 328.1710510253906 468.9689025878906 327.9760437011719 468.5228881835938 327.8250427246094 468.0469055175781 C 327.3480529785156 466.6169128417969 327.2020263671875 465.0608825683594 327.3860473632812 463.3808898925781 C 327.5700378417969 461.701904296875 327.9550476074219 459.9888916015625 328.5410461425781 458.243896484375 C 329.1260375976562 456.4999084472656 329.8510437011719 454.7709045410156 330.7190551757812 453.0578918457031 C 331.5850524902344 451.3458862304688 332.4850463867188 449.7369079589844 333.4170532226562 448.2298889160156 C 334.3490295410156 446.7239074707031 335.2430419921875 445.368896484375 336.1000366210938 444.1658935546875 C 336.9560546875 442.962890625 337.6660461425781 441.9928894042969 338.2290344238281 441.2558898925781 C 337.2100524902344 441.8198852539062 336.2020263671875 442.3288879394531 335.2050476074219 442.7839050292969 C 334.2080383300781 443.2388916015625 333.1950378417969 443.6948852539062 332.1660461425781 444.14990234375 C 331.1360473632812 444.6048889160156 330.0680541992188 445.1029052734375 328.9630432128906 445.6459045410156 C 327.8580322265625 446.1868896484375 326.6760559082031 446.826904296875 325.4190368652344 447.5628967285156 C 324.0540466308594 448.3869018554688 322.9750366210938 449.2109069824219 322.1840515136719 450.0339050292969 C 321.3920288085938 450.85888671875 320.7810363769531 451.6058959960938 320.3470458984375 452.2778930664062 C 319.8480529785156 453.0578918457031 319.5230407714844 453.8179016113281 319.3720397949219 454.5538940429688 C 319.3280334472656 454.7709045410156 319.279052734375 455.0308837890625 319.2250366210938 455.3348999023438 C 319.1710510253906 455.6379089355469 319.1280517578125 455.9678955078125 319.0960388183594 456.3258972167969 C 319.0630493164062 456.6838989257812 319.0520324707031 457.0519104003906 319.0630493164062 457.430908203125 C 319.0740356445312 457.8108825683594 319.123046875 458.1738891601562 319.2100524902344 458.5198974609375 C 319.3180541992188 459.0408935546875 319.3070373535156 459.44189453125 319.1770324707031 459.7239074707031 C 319.0470275878906 460.0058898925781 318.884033203125 460.2218933105469 318.6890258789062 460.3739013671875 C 318.4500427246094 460.5479125976562 318.1580505371094 460.6448974609375 317.81103515625 460.6669006347656 C 317.5940551757812 460.6669006347656 317.3990478515625 460.6228942871094 317.2260437011719 460.535888671875 C 317.0740356445312 460.4498901367188 316.9280395507812 460.3038940429688 316.7870483398438 460.097900390625 C 316.6460266113281 459.8919067382812 316.5540466308594 459.5928955078125 316.5110473632812 459.2029113769531 C 316.4450378417969 458.7048950195312 316.4340515136719 458.1629028320312 316.47802734375 457.5779113769531 C 316.5210266113281 457.0788879394531 316.6190490722656 456.4999084472656 316.7710266113281 455.837890625 C 316.9220275878906 455.1769104003906 317.1820373535156 454.4678955078125 317.5510559082031 453.7088928222656 C 318.5910339355469 451.4768981933594 320.1790466308594 449.535888671875 322.3150329589844 447.8888854980469 C 324.4490356445312 446.2409057617188 327.2610473632812 444.7789001464844 330.7510375976562 443.4999084472656 C 330.9680480957031 443.4139099121094 331.2340393066406 443.3049011230469 331.5480346679688 443.1748962402344 C 331.8620300292969 443.0438842773438 332.1930541992188 442.9039001464844 332.5400390625 442.7518920898438 C 332.8860473632812 442.5998840332031 333.2440490722656 442.4479064941406 333.6120300292969 442.2969055175781 C 333.9810485839844 442.1459045410156 334.3270263671875 442.00390625 334.6530456542969 441.8739013671875 C 335.8440551757812 441.3099060058594 336.9890441894531 440.7248840332031 338.0840454101562 440.1178894042969 C 339.1780395507812 439.5119018554688 340.1480407714844 438.9578857421875 340.9930419921875 438.4598999023438 C 341.8380432128906 437.9618835449219 342.5100402832031 437.5498962402344 343.009033203125 437.2239074707031 C 343.5080261230469 436.8988952636719 343.7670288085938 436.7369079589844 343.7890319824219 436.7369079589844 C 344.0722351074219 436.5208740234375 344.3307800292969 436.5634460449219 344.5690307617188 436.8669128417969 C 344.5910339355469 436.909912109375 344.613037109375 436.9758911132812 344.634033203125 437.0618896484375 C 344.634033203125 437.1268920898438 344.6290283203125 437.2029113769531 344.6180419921875 437.2889099121094 C 344.6070556640625 437.3758850097656 344.5690307617188 437.462890625 344.5040283203125 437.5498962402344 C 344.4830322265625 437.5708923339844 344.1630554199219 437.9559020996094 343.5450439453125 438.7038879394531 C 342.9280395507812 439.451904296875 342.1360473632812 440.4588928222656 341.1720275878906 441.7268981933594 C 340.20703125 442.9949035644531 339.1450500488281 444.4538879394531 337.9860534667969 446.0998840332031 C 336.8260498046875 447.7478942871094 335.6930541992188 449.4708862304688 334.5880432128906 451.2698974609375 C 333.2870483398438 453.4158935546875 332.2040405273438 455.3938903808594 331.3370361328125 457.2038879394531 C 330.4700317382812 459.0138854980469 329.8190307617188 460.6769104003906 329.3860473632812 462.1939086914062 C 328.8660278320312 463.9278869628906 328.6590270996094 465.4458923339844 328.7680358886719 466.7468872070312 C 328.8120422363281 467.0708923339844 328.8760375976562 467.3969116210938 328.9630432128906 467.7218933105469 C 329.029052734375 468.0028991699219 329.1200256347656 468.2908935546875 329.2390441894531 468.5838928222656 C 329.3580322265625 468.8758850097656 329.5270385742188 469.1419067382812 329.7440490722656 469.37890625 C 330.3720397949219 470.1379089355469 331.217041015625 470.5178833007812 332.280029296875 470.5178833007812 L 332.280029296875 470.4848937988281 C 332.9510498046875 470.462890625 333.6390380859375 470.1868896484375 334.3440551757812 469.6568908691406 C 335.0480346679688 469.1249084472656 335.7430419921875 468.4148864746094 336.425048828125 467.5268859863281 C 337.1080322265625 466.6379089355469 337.7850341796875 465.6138916015625 338.45703125 464.4538879394531 C 339.1290283203125 463.2948913574219 339.779052734375 462.0758972167969 340.4080505371094 460.7958984375 C 341.123046875 459.2789001464844 341.7890319824219 457.7398986816406 342.4070434570312 456.1799011230469 C 343.0250549316406 454.618896484375 343.5720520019531 453.1778869628906 344.0490417480469 451.8558959960938 C 344.5260314941406 450.5328979492188 344.9160461425781 449.4058837890625 345.2190551757812 448.4739074707031 C 345.5230407714844 447.5419006347656 345.70703125 446.9458923339844 345.7720336914062 446.6858825683594 C 345.8160400390625 446.4909057617188 345.8590393066406 446.2948913574219 345.9020385742188 446.0998840332031 C 345.9450378417969 445.9058837890625 345.988037109375 445.7109069824219 346.0330505371094 445.5158996582031 C 346.0330505371094 445.493896484375 346.0430297851562 445.4238891601562 346.0650329589844 445.3038940429688 C 346.0860290527344 445.1849060058594 346.1300354003906 445.0389099121094 346.1950378417969 444.8648986816406 C 346.2600402832031 444.7138977050781 346.3300476074219 444.5509033203125 346.4060363769531 444.3778991699219 C 346.4820556640625 444.2038879394531 346.5740356445312 444.0578918457031 346.6830444335938 443.9378967285156 C 346.7910461425781 443.8189086914062 346.9110412597656 443.75390625 347.0400390625 443.7428894042969 C 347.1721496582031 443.7297973632812 347.3115234375 443.7920837402344 347.4630432128906 443.9219055175781 C 347.8960266113281 444.2908935546875 348.1190490722656 444.8808898925781 348.1300354003906 445.6939086914062 C 348.1400451660156 446.5068969726562 347.9940490722656 447.4768981933594 347.6910400390625 448.6039123535156 C 347.6250305175781 448.8428955078125 347.4960327148438 449.2979125976562 347.3010559082031 449.9699096679688 C 347.1060485839844 450.6408996582031 346.8720397949219 451.4439086914062 346.6010437011719 452.3749084472656 C 346.3300476074219 453.3078918457031 346.0490417480469 454.3428955078125 345.7570495605469 455.4798889160156 C 345.4640502929688 456.618896484375 345.1870422363281 457.7789001464844 344.9270324707031 458.9598999023438 C 344.6670532226562 460.1419067382812 344.4500427246094 461.3118896484375 344.2770385742188 462.4708862304688 C 344.1040344238281 463.6308898925781 344.0010375976562 464.7029113769531 343.9680480957031 465.6889038085938 C 343.93603515625 466.6748962402344 344.0010375976562 467.5429077148438 344.1630554199219 468.2908935546875 C 344.3260498046875 469.0389099121094 344.613037109375 469.5859069824219 345.0240478515625 469.931884765625 C 345.1315612792969 469.9538269042969 345.364501953125 469.9540100097656 345.7240295410156 469.931884765625 C 346.0810546875 469.910888671875 346.5200500488281 469.8078918457031 347.0400390625 469.6239013671875 C 347.5600280761719 469.4399108886719 348.1570434570312 469.1358947753906 348.8290405273438 468.712890625 C 349.5000305175781 468.2908935546875 350.2050476074219 467.6729125976562 350.9420471191406 466.8598937988281 C 351.6790466308594 466.0469055175781 352.4370422363281 465.0119018554688 353.2180480957031 463.7548828125 C 353.998046875 462.4978942871094 354.779052734375 460.9479064941406 355.5590515136719 459.1048889160156 C 355.863037109375 458.389892578125 356.14404296875 457.6209106445312 356.404052734375 456.7979125976562 C 356.6640319824219 455.9739074707031 356.8920288085938 455.2159118652344 357.0870361328125 454.5209045410156 C 357.3250427246094 453.6979064941406 357.5310363769531 452.8959045410156 357.7050476074219 452.1148986816406 C 357.9430541992188 450.8798828125 358.1270446777344 449.6878967285156 358.2570495605469 448.5389099121094 C 358.3880310058594 447.389892578125 358.4630432128906 446.2948913574219 358.4850463867188 445.2548828125 C 358.4850463867188 444.7138977050781 358.4300537109375 444.1939086914062 358.3220520019531 443.6948852539062 C 358.2140502929688 443.1968994140625 358.0950317382812 442.7629089355469 357.9650268554688 442.3938903808594 C 357.8130493164062 441.9609069824219 357.6500549316406 441.5488891601562 357.47705078125 441.1589050292969 C 357.2600402832031 440.7898864746094 356.8640441894531 440.3728942871094 356.2900390625 439.9068908691406 C 355.7160339355469 439.4408874511719 355.1360473632812 438.9909057617188 354.5510559082031 438.556884765625 C 354.1170349121094 438.2319030761719 353.873046875 437.9238891601562 353.8200378417969 437.6308898925781 C 353.7650451660156 437.337890625 353.7810363769531 437.0729064941406 353.8690490722656 436.8338928222656 C 353.9540405273438 436.5738830566406 354.1390380859375 436.3348999023438 354.4220275878906 436.1178894042969 C 354.5730285644531 435.9888916015625 354.7570495605469 435.9028930664062 354.9740295410156 435.85888671875 C 355.0370483398438 435.8428955078125 355.1040344238281 435.8359069824219 355.1760559082031 435.8359069824219 Z" stroke="none" fill="#fff"/>
      </g>
      <g id="Path_703" data-name="Path 703" transform="translate(224.827 -104.313)" fill="none" stroke-linecap="square" stroke-dasharray="1000 1000">
        <path d="M390.284,458.671a2.845,2.845,0,0,1,.683.553,2.5,2.5,0,0,1,.456.65,1.692,1.692,0,0,1,.163.878,3.387,3.387,0,0,1-.26.878,3.87,3.87,0,0,1-.91,1.219,8.632,8.632,0,0,1-1.967,1.35,16.927,16.927,0,0,1-3.43,1.267q-.391.748-.683,1.464v.032q-.1.228-.2.52-.066.26-.146.569a4.055,4.055,0,0,0-.114.7,2.65,2.65,0,0,0,.081,1.057,1.217,1.217,0,0,0,.667.764,1.133,1.133,0,0,0,.276.1q.146.033.309.065a4.473,4.473,0,0,0,1.885-.13,6.75,6.75,0,0,0,1.5-.65,7.073,7.073,0,0,0,.862-.6q.373-.309.634-.537.553-.552,1.073-1.17t.943-1.138q.456-.585.879-1.2.454-.649.877-1.284t.781-1.122a.86.86,0,0,1,.162-.227.36.36,0,0,1,.325-.13.676.676,0,0,1,.244.228q.114.163-.049.488-.261.521-.585,1.073-.26.455-.6,1.024t-.667,1.089c-.087.13-.185.271-.292.422q-.293.391-.781.976-.227.26-.78.862a13.039,13.039,0,0,1-1.349,1.252,12.411,12.411,0,0,1-1.821,1.219,6.77,6.77,0,0,1-2.227.763,5.963,5.963,0,0,1-2.064.082,4.526,4.526,0,0,1-1.317-.406,2.419,2.419,0,0,1-.91-.748,3.47,3.47,0,0,1-.537-1.756,8.728,8.728,0,0,1,.374-2.8,12.83,12.83,0,0,1,.813-2.259,16.458,16.458,0,0,1,.943-1.739,10.219,10.219,0,0,1,1.073-1.464,8.247,8.247,0,0,1,1.171-1.138,9.11,9.11,0,0,1,1.041-.715,5.192,5.192,0,0,1,1.073-.488,2.911,2.911,0,0,1,.747-.163,3.263,3.263,0,0,1,.78.033A3.012,3.012,0,0,1,390.284,458.671Zm.163,1.951a.685.685,0,0,0-.373-.244,1.035,1.035,0,0,0-.407-.016,1.3,1.3,0,0,0-.456.163A4.914,4.914,0,0,0,387.8,461.6a18.733,18.733,0,0,0-1.609,1.919c-.108.174-.223.342-.341.5a4.94,4.94,0,0,0-.341.536q.519-.2,1.381-.6a13.431,13.431,0,0,0,1.675-.943,7.456,7.456,0,0,0,1.381-1.154A1.578,1.578,0,0,0,390.447,460.622Z" stroke="none"/>
        <path d="M 388.8724975585938 458.3348083496094 C 389.0404968261719 458.3348083496094 389.218505859375 458.3498229980469 389.406494140625 458.3788146972656 C 389.6885070800781 458.4218139648438 389.9804992675781 458.5198059082031 390.2844848632812 458.6708068847656 C 390.5444946289062 458.8228149414062 390.7724914550781 459.0078125 390.9674987792969 459.2238159179688 C 391.1405029296875 459.3978271484375 391.29248046875 459.6138305664062 391.4224853515625 459.8738098144531 C 391.552490234375 460.1338195800781 391.6054992675781 460.4268188476562 391.5854797363281 460.7518310546875 C 391.5635070800781 460.9688110351562 391.4765014648438 461.2608032226562 391.3244934082031 461.6298217773438 C 391.1734924316406 461.9988098144531 390.8695068359375 462.4048156738281 390.4144897460938 462.8488159179688 C 389.95849609375 463.2928161621094 389.3034973144531 463.7438049316406 388.4474792480469 464.1978149414062 C 387.5904846191406 464.65380859375 386.448486328125 465.0768127441406 385.0174865722656 465.4658203125 C 384.7575073242188 465.9648132324219 384.5294799804688 466.4528198242188 384.3345031738281 466.9298095703125 L 384.3345031738281 466.9618225097656 C 384.2695007324219 467.1138305664062 384.2044982910156 467.2868041992188 384.1394958496094 467.4818115234375 C 384.0954895019531 467.6558227539062 384.0474853515625 467.8458251953125 383.9934997558594 468.0508117675781 C 383.9385070800781 468.2578125 383.9004821777344 468.4898071289062 383.8794860839844 468.7498168945312 C 383.8354797363281 469.1188049316406 383.8634948730469 469.4718322753906 383.9604797363281 469.8068237304688 C 384.0585021972656 470.142822265625 384.2804870605469 470.3978271484375 384.6275024414062 470.5708312988281 C 384.7135009765625 470.6148071289062 384.8054809570312 470.6478271484375 384.9035034179688 470.6678161621094 C 385.00048828125 470.6898193359375 385.1034851074219 470.7118225097656 385.2124938964844 470.7338256835938 C 385.9046325683594 470.821044921875 386.5353698730469 470.7765197753906 387.0984802246094 470.6028137207031 C 387.6614990234375 470.4298095703125 388.1604919433594 470.2128295898438 388.593505859375 469.9538269042969 C 388.9184875488281 469.7578125 389.2055053710938 469.5578308105469 389.4555053710938 469.351806640625 C 389.7044982910156 469.1458129882812 389.9154968261719 468.9668273925781 390.0895080566406 468.8148193359375 C 390.4574890136719 468.4468078613281 390.8154907226562 468.0558166503906 391.1625061035156 467.6448059082031 C 391.5084838867188 467.2328186035156 391.823486328125 466.8538208007812 392.1044921875 466.5058288574219 C 392.4085083007812 466.1158142089844 392.7005004882812 465.7148132324219 392.9834899902344 465.3038330078125 C 393.2864990234375 464.8708190917969 393.5784912109375 464.4418029785156 393.8605041503906 464.0198059082031 C 394.1424865722656 463.5968322753906 394.4024963378906 463.2228088378906 394.6414794921875 462.8978271484375 C 394.6844787597656 462.8118286132812 394.7384948730469 462.7348327636719 394.8034973144531 462.6708068847656 C 394.9124755859375 462.561767578125 395.01953125 462.5213928222656 395.1284790039062 462.5398254394531 C 395.2154846191406 462.5838317871094 395.2974853515625 462.6598205566406 395.3724975585938 462.767822265625 C 395.448486328125 462.8768310546875 395.4324951171875 463.038818359375 395.323486328125 463.2558288574219 C 395.1504821777344 463.6028137207031 394.9555053710938 463.9598083496094 394.7384948730469 464.3288269042969 C 394.5654907226562 464.6318054199219 394.364501953125 464.9738159179688 394.1374816894531 465.3528137207031 C 393.9104919433594 465.7318115234375 393.6875 466.0948181152344 393.4704895019531 466.4418029785156 C 393.3834838867188 466.5718078613281 393.2864990234375 466.7128295898438 393.1784973144531 466.8638305664062 C 392.9834899902344 467.1248168945312 392.7225036621094 467.4498291015625 392.3974914550781 467.8398132324219 C 392.2464904785156 468.0138244628906 391.9855041503906 468.3008117675781 391.6174926757812 468.7018127441406 C 391.2485046386719 469.1028137207031 390.7994995117188 469.5198059082031 390.2684936523438 469.9538269042969 C 389.7374877929688 470.3868103027344 389.1304931640625 470.7928161621094 388.4474792480469 471.1728210449219 C 387.7644958496094 471.5518188476562 387.0224914550781 471.8068237304688 386.2204895019531 471.9358215332031 C 385.3955383300781 472.088623046875 384.7072143554688 472.1148986816406 384.1554870605469 472.017822265625 C 383.6034851074219 471.9198303222656 383.1634826660156 471.7848205566406 382.8395080566406 471.61181640625 C 382.4494934082031 471.4168090820312 382.1455078125 471.1668090820312 381.9284973144531 470.8638305664062 C 381.62548828125 470.4298095703125 381.4465026855469 469.8448181152344 381.3924865722656 469.1078186035156 C 381.3385009765625 468.3708190917969 381.4635009765625 467.4388122558594 381.7664794921875 466.3108215332031 C 381.9824829101562 465.4878234863281 382.2534790039062 464.7348327636719 382.5784912109375 464.0518188476562 C 382.9035034179688 463.3688049316406 383.218505859375 462.7898254394531 383.521484375 462.3128051757812 C 383.8684997558594 461.7488098144531 384.2254943847656 461.2608032226562 384.594482421875 460.8488159179688 C 384.9855041503906 460.3938293457031 385.37548828125 460.0148315429688 385.7655029296875 459.7108154296875 C 386.1554870605469 459.4078063964844 386.5025024414062 459.1698303222656 386.8054809570312 458.9958190917969 C 387.1744995117188 458.7798156738281 387.531494140625 458.6168212890625 387.8784790039062 458.5078125 C 388.1164855957031 458.4218139648438 388.3664855957031 458.3678283691406 388.6264953613281 458.3458251953125 C 388.7064819335938 458.3388061523438 388.7884826660156 458.3348083496094 388.8724975585938 458.3348083496094 Z M 385.5054931640625 464.5558166503906 C 385.8515014648438 464.4258117675781 386.3125 464.225830078125 386.8865051269531 463.9538269042969 C 387.4614868164062 463.6838073730469 388.0195007324219 463.3688049316406 388.5614929199219 463.0118103027344 C 389.1025085449219 462.65380859375 389.5635070800781 462.2698059082031 389.9434814453125 461.8568115234375 C 390.3224792480469 461.4458312988281 390.490478515625 461.0338134765625 390.4465026855469 460.621826171875 C 390.3374938964844 460.4918212890625 390.2145080566406 460.4108276367188 390.073486328125 460.3778076171875 C 389.9310302734375 460.3439025878906 389.7955932617188 460.33984375 389.66650390625 460.36181640625 C 389.5144958496094 460.3838195800781 389.3634948730469 460.4378051757812 389.2114868164062 460.5248107910156 C 388.7785034179688 460.7198181152344 388.3064880371094 461.0768127441406 387.7974853515625 461.5968322753906 C 387.2875061035156 462.1178283691406 386.7514953613281 462.7568054199219 386.1875 463.5158081054688 C 386.0794982910156 463.6898193359375 385.9645080566406 463.8568115234375 385.8464965820312 464.0198059082031 C 385.7275085449219 464.1818237304688 385.6134948730469 464.3608093261719 385.5054931640625 464.5558166503906 Z" stroke="none" fill="#fff"/>
      </g>
      <g id="Path_704" data-name="Path 704" transform="translate(218.634 -104.114)" fill="none" stroke-linecap="square" stroke-dasharray="1000 1000">
        <path d="M410.491,464.162l-.325.651q-.163.292-.308.617t-.277.585q-.423.944-.829,1.886a17.159,17.159,0,0,0-.65,1.74,5.9,5.9,0,0,0-.277,1.349.742.742,0,0,0,.292.748,5.349,5.349,0,0,0,1.545-1.317,22.873,22.873,0,0,0,1.544-2,29.961,29.961,0,0,0,1.658-2.666q.65-1.105,1.138-1.966t.813-1.317a.21.21,0,0,1,.13-.1.361.361,0,0,1,.325.032c.108.044.13.174.065.39q-.294.813-.748,1.821-.39.845-1.024,1.983t-1.544,2.471q-.553.812-1.138,1.56A11.884,11.884,0,0,1,409.7,471.9a5.031,5.031,0,0,1-1.317.91,2.369,2.369,0,0,1-.78.211,2,2,0,0,1-.586-.049,1.136,1.136,0,0,1-.488-.228,1.511,1.511,0,0,1-.5-.472,2.794,2.794,0,0,1-.276-.536,2.9,2.9,0,0,1-.2-.617,6.5,6.5,0,0,1,.13-2.373,7.214,7.214,0,0,1-2.081,2.048,4.574,4.574,0,0,1-1.593.651,2.733,2.733,0,0,1-1.479-.017,1.93,1.93,0,0,1-1.073-.861,3.728,3.728,0,0,1-.472-1.756,8.838,8.838,0,0,1,.358-2.7,12.879,12.879,0,0,1,.813-2.259,16.366,16.366,0,0,1,.943-1.739,12.263,12.263,0,0,1,1.105-1.464,7.907,7.907,0,0,1,1.2-1.2,6.738,6.738,0,0,1,1.366-.846,4.791,4.791,0,0,1,1.755-.455,2.778,2.778,0,0,1,1.561.293,2.363,2.363,0,0,1,.943,1.024,3.435,3.435,0,0,1,.163,2.13q.227-.422.634-1.122t.845-1.333a6.882,6.882,0,0,1,.861-1.04q.423-.406.715-.31a.941.941,0,0,1,.667.618,2.162,2.162,0,0,1-.146,1.186,14.035,14.035,0,0,1-.845,1.886Q411.336,462.6,410.491,464.162Zm-7.023,5.364a9.358,9.358,0,0,0,1.171-1.186q.552-.666.991-1.252t.715-1.024c.184-.292.3-.472.341-.536q.326-.487.6-.991t.488-.91q.211-.406.471-.959c.021-.108.043-.282.065-.52a4.35,4.35,0,0,0,0-.748,2.872,2.872,0,0,0-.146-.715.647.647,0,0,0-.374-.423q-.749-.325-1.788.569a16.073,16.073,0,0,0-2.243,2.487,14.264,14.264,0,0,0-1.122,1.87,19.6,19.6,0,0,0-.91,2.064,13.859,13.859,0,0,0-.553,1.821,1.893,1.893,0,0,0-.016,1.138.476.476,0,0,0,.5.325,1.6,1.6,0,0,0,.634-.195c.13-.066.265-.141.406-.228a3.613,3.613,0,0,0,.375-.26A2.51,2.51,0,0,0,403.468,469.526Z" stroke="none"/>
        <path d="M 412.1287841796875 457.7702941894531 C 412.1697692871094 457.7702941894531 412.2087707519531 457.7763061523438 412.2467651367188 457.789306640625 C 412.6157836914062 457.9192810058594 412.8377685546875 458.1262817382812 412.9137573242188 458.4072875976562 C 412.98876953125 458.6893005371094 412.9407653808594 459.0842895507812 412.7667541503906 459.5932922363281 C 412.5937805175781 460.1033020019531 412.311767578125 460.7322998046875 411.9217834472656 461.4793090820312 C 411.5317687988281 462.227294921875 411.0547790527344 463.1213073730469 410.4917602539062 464.1622924804688 C 410.3827819824219 464.3793029785156 410.2747802734375 464.5953063964844 410.165771484375 464.8122863769531 C 410.0577697753906 465.0072937011719 409.9547729492188 465.2132873535156 409.8577575683594 465.4292907714844 C 409.759765625 465.6463012695312 409.6677551269531 465.84130859375 409.5807800292969 466.0142822265625 C 409.2987670898438 466.643310546875 409.0227661132812 467.2723083496094 408.7517700195312 467.9002990722656 C 408.4807739257812 468.5303039550781 408.2647705078125 469.1102905273438 408.1017761230469 469.6402893066406 C 407.9387817382812 470.1712951660156 407.8457641601562 470.6213073730469 407.8247680664062 470.9892883300781 C 407.8027648925781 471.3583068847656 407.9007568359375 471.6072998046875 408.1177673339844 471.7373046875 C 408.5937805175781 471.498291015625 409.1097717285156 471.060302734375 409.6627807617188 470.4202880859375 C 410.2157592773438 469.7813110351562 410.7297668457031 469.1152954101562 411.2067565917969 468.4212951660156 C 411.769775390625 467.6192932128906 412.3227844238281 466.7302856445312 412.8647766113281 465.7543029785156 C 413.2987670898438 465.018310546875 413.6777648925781 464.3623046875 414.0027770996094 463.7882995605469 C 414.3277587890625 463.2142944335938 414.5987548828125 462.7752990722656 414.8157653808594 462.4712829589844 C 414.8367614746094 462.4282836914062 414.8807678222656 462.3952941894531 414.9457702636719 462.373291015625 C 415.0299682617188 462.3312377929688 415.1399230957031 462.3408813476562 415.2707824707031 462.4063110351562 C 415.3787841796875 462.4502868652344 415.4007568359375 462.5802917480469 415.3357543945312 462.7962951660156 C 415.1407775878906 463.3382873535156 414.8917541503906 463.9452819824219 414.5877685546875 464.6173095703125 C 414.3277587890625 465.1802978515625 413.9867553710938 465.84130859375 413.5637817382812 466.6002807617188 C 413.1407775878906 467.3592834472656 412.6257629394531 468.1822814941406 412.019775390625 469.0712890625 C 411.6507568359375 469.61328125 411.2717590332031 470.13330078125 410.8817749023438 470.6322937011719 C 410.5337829589844 471.0653076171875 410.1387634277344 471.4873046875 409.6947631835938 471.9002990722656 C 409.2507629394531 472.3113098144531 408.8107604980469 472.6152954101562 408.3777770996094 472.8113098144531 C 408.0737609863281 472.9403076171875 407.8137817382812 473.0102844238281 407.5977783203125 473.0213012695312 C 407.3838500976562 473.0308837890625 407.1867370605469 473.0160827636719 407.0117797851562 472.9732971191406 C 406.8167724609375 472.9292907714844 406.6547546386719 472.8533020019531 406.5237731933594 472.7453002929688 C 406.3077697753906 472.6152954101562 406.1387634277344 472.4573059082031 406.0207824707031 472.2732849121094 C 405.9017639160156 472.0892944335938 405.8097839355469 471.9112854003906 405.7447814941406 471.7373046875 C 405.6577758789062 471.5422973632812 405.5927734375 471.3363037109375 405.5497741699219 471.1192932128906 C 405.4407653808594 470.4483032226562 405.4847717285156 469.6563110351562 405.6797790527344 468.7463073730469 C 405.4197692871094 469.1362915039062 405.1047668457031 469.5162963867188 404.7367553710938 469.8843078613281 C 404.4327697753906 470.1882934570312 404.0537719726562 470.4913024902344 403.5987548828125 470.7942810058594 C 403.1437683105469 471.0972900390625 402.6117553710938 471.3143005371094 402.0057678222656 471.4452819824219 C 401.46484375 471.5748291015625 400.970947265625 471.568359375 400.5257568359375 471.4282836914062 C 400.0817565917969 471.2872924804688 399.7237548828125 471.0012817382812 399.4527587890625 470.5672912597656 C 399.1827697753906 470.13330078125 399.0257568359375 469.5483093261719 398.9817810058594 468.8113098144531 C 398.9387817382812 468.0743103027344 399.0577697753906 467.17529296875 399.3387756347656 466.1123046875 C 399.5557556152344 465.289306640625 399.8267822265625 464.5362854003906 400.1517639160156 463.8533020019531 C 400.477783203125 463.1702880859375 400.790771484375 462.59130859375 401.0947570800781 462.1142883300781 C 401.4637756347656 461.55029296875 401.8317565917969 461.0622863769531 402.2007751464844 460.6502990722656 C 402.5467834472656 460.21728515625 402.9477844238281 459.8162841796875 403.4037780761719 459.4472961425781 C 403.7727661132812 459.144287109375 404.2267761230469 458.8623046875 404.769775390625 458.602294921875 C 405.3107604980469 458.34228515625 405.8957824707031 458.1903076171875 406.5237731933594 458.1463012695312 C 407.1306457519531 458.1005249023438 407.6501770019531 458.2007446289062 408.0847778320312 458.4393005371094 C 408.4537658691406 458.6343078613281 408.7677612304688 458.9762878417969 409.0277709960938 459.4642944335938 C 409.2877807617188 459.9512939453125 409.3417663574219 460.6622924804688 409.1907653808594 461.5932922363281 C 409.3417663574219 461.3122863769531 409.5537719726562 460.9382934570312 409.8247680664062 460.4712829589844 C 410.0957641601562 460.0053100585938 410.3777770996094 459.5613098144531 410.6697692871094 459.1383056640625 C 410.9627685546875 458.71630859375 411.249755859375 458.3692932128906 411.5317687988281 458.0982971191406 C 411.7587585449219 457.8793029785156 411.957763671875 457.7702941894531 412.1287841796875 457.7702941894531 Z M 401.6077575683594 470.5372924804688 C 401.6257629394531 470.5372924804688 401.644775390625 470.5362854003906 401.6637573242188 470.5343017578125 C 401.8907775878906 470.5133056640625 402.102783203125 470.4483032226562 402.2977600097656 470.3392944335938 C 402.4287719726562 470.2742919921875 402.5627746582031 470.1993103027344 402.7037658691406 470.1112976074219 C 402.8447570800781 470.0252990722656 402.9697570800781 469.9382934570312 403.0787658691406 469.8512878417969 C 403.2087707519531 469.7652893066406 403.3387756347656 469.6563110351562 403.4687805175781 469.5263061523438 C 403.8797607421875 469.1802978515625 404.269775390625 468.7843017578125 404.6397705078125 468.3403015136719 C 405.0077819824219 467.8963012695312 405.3377685546875 467.4783020019531 405.6307678222656 467.0882873535156 C 405.9227600097656 466.6972961425781 406.1607666015625 466.3562927246094 406.3457641601562 466.0632934570312 C 406.5297546386719 465.7713012695312 406.6437683105469 465.59228515625 406.686767578125 465.5272827148438 C 406.9037780761719 465.2023010253906 407.103759765625 464.8722839355469 407.2887573242188 464.5362854003906 C 407.4727783203125 464.2002868652344 407.6357727050781 463.8963012695312 407.7767639160156 463.6253051757812 C 407.9167785644531 463.3543090820312 408.0737609863281 463.0353088378906 408.2477722167969 462.6662902832031 C 408.2687683105469 462.5582885742188 408.290771484375 462.3852844238281 408.3127746582031 462.1463012695312 C 408.3337707519531 461.9082946777344 408.3337707519531 461.6582946777344 408.3127746582031 461.3982849121094 C 408.290771484375 461.1383056640625 408.2427673339844 460.9002990722656 408.1667785644531 460.6832885742188 C 408.0897827148438 460.46728515625 407.9657592773438 460.3252868652344 407.7927551269531 460.2602844238281 C 407.2942810058594 460.0429992675781 406.6975708007812 460.2333068847656 406.0047607421875 460.8292846679688 C 405.3107604980469 461.42529296875 404.5627746582031 462.2553100585938 403.7607727050781 463.3162841796875 C 403.3707580566406 463.8592834472656 402.9967651367188 464.4822998046875 402.6387634277344 465.1863098144531 C 402.2817687988281 465.8902893066406 401.977783203125 466.5792846679688 401.728759765625 467.2512817382812 C 401.478759765625 467.9223022460938 401.2947692871094 468.5303039550781 401.17578125 469.0712890625 C 401.0567626953125 469.61328125 401.0517578125 469.9932861328125 401.1597595214844 470.2092895507812 C 401.259765625 470.4282836914062 401.4087829589844 470.5372924804688 401.6077575683594 470.5372924804688 Z" stroke="none" fill="#fff"/>
      </g>
      <g id="Path_705" data-name="Path 705" transform="translate(210.903 -97.954)" fill="none" stroke-linecap="square" stroke-dasharray="1000 1000">
        <path d="M420.985,461.285a26.662,26.662,0,0,1,.667-2.975q.406-1.414.8-2.487a23.608,23.608,0,0,1,.976-2.341q.714-1.69,1.528-3.268t1.561-2.877q.747-1.3,1.332-2.228t.846-1.317a15.49,15.49,0,0,1,1.593-1.983,7.389,7.389,0,0,1,1.512-1.219,1.776,1.776,0,0,1,1.609-.211q.649.26.471,1.837a13.794,13.794,0,0,1-1.642,4.373,53.714,53.714,0,0,1-7.217,10.144q-.359.846-.7,1.739t-.617,1.756a13.584,13.584,0,0,0-.423,1.642,5.99,5.99,0,0,0-.113,1.4,1.289,1.289,0,0,0,.163.422c.086.152.238.185.455.1a4.163,4.163,0,0,0,1.577-1.008q.829-.78,1.577-1.626.846-1.008,1.69-2.211.455-.649.878-1.284t.78-1.122a2.137,2.137,0,0,1,.2-.227q.162-.162.293-.13a.692.692,0,0,1,.244.227q.113.163-.049.488-.26.521-.585,1.073-.26.455-.6,1.024t-.667,1.089q-.846,1.138-1.723,2.114a14.529,14.529,0,0,1-1.74,1.593,4.988,4.988,0,0,1-1.967.975,3.944,3.944,0,0,1-1.041.065,2.011,2.011,0,0,1-1.17-.52,1.067,1.067,0,0,1-.374-.553,3.487,3.487,0,0,1-.146-.78,7.736,7.736,0,0,1-.016-.861Q420.953,461.676,420.985,461.285Zm11.542-18.078a3.463,3.463,0,0,0-.764.943q-.5.781-1.024,1.626-.586,1.008-1.268,2.242-.457.781-.878,1.593-.358.683-.813,1.463t-.812,1.463a.732.732,0,0,1-.13.261c-.044.087-.1.2-.163.325s-.13.272-.2.423q1.787-2.406,2.958-4.292t1.854-3.2a18.9,18.9,0,0,0,.943-2.032Q432.494,443.306,432.527,443.208Z" stroke="none"/>
        <path d="M 422.9277038574219 464.8374633789062 C 422.835693359375 464.8374633789062 422.7406921386719 464.83544921875 422.6427001953125 464.8294677734375 C 422.252685546875 464.8074645996094 421.8627014160156 464.6344604492188 421.4726867675781 464.3084411621094 C 421.2987060546875 464.179443359375 421.1746826171875 463.9954528808594 421.0986938476562 463.7564697265625 C 421.023681640625 463.5184631347656 420.9747009277344 463.2574462890625 420.9526977539062 462.9764709472656 C 420.9306945800781 462.6944580078125 420.9256896972656 462.407470703125 420.9356994628906 462.1144409179688 C 420.9476928710938 461.8224487304688 420.9636840820312 461.5454711914062 420.9846801757812 461.2854614257812 C 421.15869140625 460.2444458007812 421.3807067871094 459.25244140625 421.6517028808594 458.3104553222656 C 421.9226989746094 457.3674621582031 422.1876831054688 456.5384521484375 422.4476928710938 455.8234558105469 C 422.7507019042969 454.9774475097656 423.0766906738281 454.1974487304688 423.4237060546875 453.4824523925781 C 423.7741394042969 452.6527404785156 424.1430053710938 451.8438110351562 424.5295104980469 451.0549011230469 L 424.5295104980469 451.0549011230469 C 424.5722045898438 450.9677124023438 424.6151428222656 450.8807067871094 424.6582641601562 450.7940063476562 L 424.6582641601562 450.7940063476562 C 424.6582641601562 450.7940063476562 424.6582641601562 450.7940063476562 424.6582641601562 450.7940063476562 L 424.6582641601562 450.7940063476562 C 424.7313842773438 450.6470947265625 424.80517578125 450.5008850097656 424.8795166015625 450.3553771972656 L 424.8795166015625 450.3553771972656 C 424.9035339355469 450.3083801269531 424.9275512695312 450.2613220214844 424.9516906738281 450.2144470214844 C 425.0583190917969 450.0077209472656 425.1641235351562 449.8045043945312 425.26904296875 449.6048583984375 L 425.26904296875 449.6048583984375 C 425.26904296875 449.6048583984375 425.26904296875 449.6048583984375 425.26904296875 449.6048583984375 L 425.26904296875 449.6048583984375 C 425.5146484375 449.1376037597656 425.7555541992188 448.6899108886719 425.9920043945312 448.2616577148438 L 425.9920043945312 448.2616577148438 C 426.1680603027344 447.9427795410156 426.3416137695312 447.6347045898438 426.5126953125 447.3374633789062 C 426.6423950195312 447.1116638183594 426.7684020996094 446.8943176269531 426.8907775878906 446.6853942871094 L 426.8907775878906 446.6853942871094 C 427.23828125 446.092041015625 427.5562744140625 445.5667724609375 427.8446960449219 445.1104431152344 C 428.2356872558594 444.4924621582031 428.5166931152344 444.053466796875 428.689697265625 443.79345703125 C 429.210693359375 443.0344543457031 429.7406921386719 442.3734436035156 430.28369140625 441.8104553222656 C 430.7387084960938 441.3334655761719 431.2427062988281 440.9264526367188 431.7956848144531 440.5904541015625 C 432.3493041992188 440.255126953125 432.8862609863281 440.1836242675781 433.4057006835938 440.3794555664062 C 433.8377075195312 440.553466796875 433.9956970214844 441.1654663085938 433.8766784667969 442.2164611816406 C 433.7566833496094 443.2684631347656 433.2096862792969 444.7254638671875 432.2346801757812 446.5894470214844 C 430.5867004394531 449.7324523925781 428.1817016601562 453.1144409179688 425.0166931152344 456.7334594726562 C 424.7776794433594 457.2974548339844 424.5447082519531 457.87744140625 424.3176879882812 458.4724426269531 C 424.0896911621094 459.0694580078125 423.8836975097656 459.6544494628906 423.69970703125 460.2284545898438 C 423.5146789550781 460.803466796875 423.3746948242188 461.3504638671875 423.2767028808594 461.8704528808594 C 423.1796875 462.3904418945312 423.1416931152344 462.8564453125 423.1626892089844 463.2684631347656 C 423.1846923828125 463.3984680175781 423.2387084960938 463.5394592285156 423.32568359375 463.6914672851562 C 423.4114990234375 463.8411560058594 423.5615234375 463.8758850097656 423.7817077636719 463.7894592285156 C 424.2796936035156 463.637451171875 424.8046875 463.3014526367188 425.3576965332031 462.7804565429688 C 425.9107055664062 462.2604675292969 426.4356994628906 461.7184448242188 426.9346923828125 461.1554565429688 C 427.4986877441406 460.4834594726562 428.0617065429688 459.7464599609375 428.6257019042969 458.9444580078125 C 428.9286804199219 458.5114440917969 429.2216796875 458.0824584960938 429.5036926269531 457.6604614257812 C 429.7846984863281 457.2374572753906 430.0447082519531 456.8634643554688 430.28369140625 456.5384521484375 C 430.3486938476562 456.4524536132812 430.4136962890625 456.3754577636719 430.4786987304688 456.3114624023438 C 430.5879211425781 456.2022399902344 430.6863708496094 456.1586608886719 430.7716979980469 456.1814575195312 C 430.8576965332031 456.2244567871094 430.9386901855469 456.3004455566406 431.0156860351562 456.408447265625 C 431.0906982421875 456.5174560546875 431.07470703125 456.679443359375 430.9667053222656 456.8964538574219 C 430.7926940917969 457.2434692382812 430.5976867675781 457.6004638671875 430.3816833496094 457.9694519042969 C 430.2077026367188 458.2724609375 430.0076904296875 458.6144409179688 429.7796936035156 458.9934692382812 C 429.5516967773438 459.3724670410156 429.3287048339844 459.7354431152344 429.1137084960938 460.0824584960938 C 428.5496826171875 460.8414611816406 427.9747009277344 461.5454711914062 427.3906860351562 462.1954650878906 C 426.8696899414062 462.7594604492188 426.2897033691406 463.2904663085938 425.6506958007812 463.7894592285156 C 425.0106811523438 464.2884521484375 424.3556823730469 464.6124572753906 423.6836853027344 464.7644653320312 C 423.4556884765625 464.8134460449219 423.2037048339844 464.8374633789062 422.9277038574219 464.8374633789062 Z M 432.5276794433594 443.2074584960938 C 432.3526916503906 443.3164672851562 432.0986938476562 443.6304626464844 431.7637023925781 444.1504516601562 C 431.4266967773438 444.6714477539062 431.0846862792969 445.2134704589844 430.7387084960938 445.7764587402344 C 430.3486938476562 446.4484558105469 429.9256896972656 447.1954650878906 429.470703125 448.0194702148438 C 429.1666870117188 448.5394592285156 428.8736877441406 449.0714416503906 428.5926818847656 449.6124572753906 C 428.3547058105469 450.0684509277344 428.0836791992188 450.5564575195312 427.7796936035156 451.0754699707031 C 427.4766845703125 451.5964660644531 427.2056884765625 452.0834655761719 426.9676818847656 452.5384521484375 C 426.9456787109375 452.62646484375 426.9026794433594 452.7134704589844 426.8377075195312 452.7994689941406 C 426.793701171875 452.8864440917969 426.7396850585938 452.9944458007812 426.6746826171875 453.1244506835938 C 426.6106872558594 453.2544555664062 426.5447082519531 453.3964538574219 426.4797058105469 453.5474548339844 C 427.6716918945312 451.9434509277344 428.6576843261719 450.512451171875 429.4376831054688 449.2554626464844 C 430.2186889648438 447.9984436035156 430.835693359375 446.9304504394531 431.2916870117188 446.0524597167969 C 431.7467041015625 445.1744689941406 432.0606994628906 444.4974670410156 432.2346801757812 444.0204467773438 C 432.4076843261719 443.5444641113281 432.5057067871094 443.2734680175781 432.5276794433594 443.2074584960938 Z" stroke="none" fill="#fff"/>
      </g>
      <g id="Path_706" data-name="Path 706" transform="translate(207.541 -98.017)" fill="none" stroke-linecap="square" stroke-dasharray="1000 1000">
        <path d="M438.133,452.6q-1.105,2.115-1.951,4.13-.358.845-.7,1.756t-.618,1.771a13.447,13.447,0,0,0-.422,1.658,6.136,6.136,0,0,0-.113,1.415,1.507,1.507,0,0,0,.146.423q.114.227.472.1a4.16,4.16,0,0,0,1.577-1.008q.829-.78,1.577-1.626.845-1.008,1.69-2.211.456-.649.879-1.284t.78-1.122a2.151,2.151,0,0,1,.195-.227q.162-.162.292-.13a.68.68,0,0,1,.244.227q.114.163-.049.488-.261.521-.586,1.073-.261.455-.6,1.024t-.667,1.089q-.845,1.138-1.722,2.114a14.5,14.5,0,0,1-1.74,1.593,4.99,4.99,0,0,1-1.967.975,4.039,4.039,0,0,1-1.057.065,1.889,1.889,0,0,1-1.154-.52,1.514,1.514,0,0,1-.488-.991,7.037,7.037,0,0,1-.065-1.35,9.583,9.583,0,0,1,.228-1.69q.2-.943.472-1.869t.6-1.8q.39-1.17.877-2.373t1.024-2.341q.537-1.138,1.105-2.195t1.089-2h-1.219q-.569,0-1.089-.033a5.769,5.769,0,0,0-.683.033,3.52,3.52,0,0,1-.39.032,6.226,6.226,0,0,0-1.61.52,3.652,3.652,0,0,1-1.35.39.538.538,0,0,1-.422-.081.711.711,0,0,1-.2-.277.659.659,0,0,1-.032-.358.767.767,0,0,1,.292-.537,1.7,1.7,0,0,1,.585-.308,3.55,3.55,0,0,1,.634-.13q.309-.032.439-.032.617-.033,2.081-.082l3.512-.113q.649-1.073,1.122-1.821t.7-1.105q.65-1.008,1.138-1.626a7.236,7.236,0,0,1,.943-1.008,3.17,3.17,0,0,1,.715-.553,2.172,2.172,0,0,1,.683-.211.87.87,0,0,1,.976.813,2.331,2.331,0,0,1-.114.861,5.362,5.362,0,0,1-.439,1.024,11.913,11.913,0,0,1-.651,1.057q-.26.391-.553.813-.26.359-.553.8t-.553.895q1.755-.033,3.592-.017t3.626.082l1.5.065q.747.032,1.463.1.39.033.813.065.358.033.8.049a7.5,7.5,0,0,1,.861.082c.238.043.5.086.8.13a4.022,4.022,0,0,1,.8.195,2.75,2.75,0,0,1,.618.309.523.523,0,0,1,.26.439,1.044,1.044,0,0,1-.065.39.5.5,0,0,1-.618.325,2.082,2.082,0,0,1-.763-.146l-.8-.31q-.423-.161-.927-.325a5.624,5.624,0,0,0-1.122-.228c-.152,0-.3,0-.439-.016s-.287-.017-.439-.017q-1.462-.064-3.251-.081t-3.739-.016q-.911-.032-1.821-.032H440.8q-.423.748-.846,1.56-.39.715-.861,1.577T438.133,452.6Z" stroke="none"/>
        <path d="M 443.4450988769531 440.4513854980469 C 443.6430969238281 440.4513854980469 443.8341064453125 440.5243835449219 444.01708984375 440.6703796386719 C 444.1900939941406 440.8213806152344 444.2881164550781 441.0223693847656 444.3100891113281 441.2723693847656 C 444.3311157226562 441.5213928222656 444.2940979003906 441.8083801269531 444.1961059570312 442.1333923339844 C 444.0990905761719 442.4583740234375 443.9530944824219 442.7993774414062 443.7571105957031 443.1573791503906 C 443.5621032714844 443.5143737792969 443.3450927734375 443.8673706054688 443.1071166992188 444.21337890625 C 442.93310546875 444.474365234375 442.7491149902344 444.7453918457031 442.5541076660156 445.0273742675781 C 442.381103515625 445.2663879394531 442.1971130371094 445.5313720703125 442.0010986328125 445.8233947753906 C 441.8060913085938 446.1163940429688 441.6221008300781 446.4143676757812 441.4490966796875 446.7183837890625 C 442.6190185546875 446.6960754394531 443.8157958984375 446.6891784667969 445.0411071777344 446.7013854980469 C 446.26611328125 446.7123718261719 447.47509765625 446.7393798828125 448.6671142578125 446.7823791503906 C 449.1651000976562 446.8043823242188 449.6631164550781 446.8263854980469 450.162109375 446.848388671875 C 450.6611022949219 446.869384765625 451.1481018066406 446.9023742675781 451.6250915527344 446.9453735351562 C 451.8851013183594 446.9673767089844 452.1560974121094 446.9883728027344 452.4381103515625 447.0103759765625 C 452.6761169433594 447.0323791503906 452.9421081542969 447.0483703613281 453.235107421875 447.0583801269531 C 453.5281066894531 447.0703735351562 453.8141174316406 447.0963745117188 454.0960998535156 447.140380859375 C 454.3341064453125 447.1833801269531 454.6011047363281 447.2263793945312 454.8930969238281 447.2703857421875 C 455.1860961914062 447.3133850097656 455.4511108398438 447.37939453125 455.6891174316406 447.4653930664062 C 455.9281005859375 447.5523681640625 456.1340942382812 447.6553649902344 456.3070983886719 447.7743835449219 C 456.4801025390625 447.8933715820312 456.5671081542969 448.0403747558594 456.5671081542969 448.2123718261719 C 456.5671081542969 448.3653869628906 456.5461120605469 448.494384765625 456.5021057128906 448.6023864746094 C 456.4580993652344 448.7113647460938 456.3941040039062 448.7983703613281 456.3070983886719 448.8633728027344 C 456.2217407226562 448.9287414550781 456.0799255371094 448.9523620605469 455.8840942382812 448.9283752441406 C 455.6250915527344 448.9283752441406 455.3701171875 448.87939453125 455.12109375 448.7823791503906 C 454.8721008300781 448.6843872070312 454.6051025390625 448.5813903808594 454.3240966796875 448.4723815917969 C 454.0421142578125 448.3653869628906 453.7330932617188 448.2573852539062 453.3981018066406 448.1483764648438 C 453.0610961914062 448.0403747558594 452.6871032714844 447.9643859863281 452.2751159667969 447.9203796386719 C 452.1241149902344 447.9203796386719 451.9771118164062 447.9153747558594 451.8370971679688 447.9043884277344 C 451.6950988769531 447.8933715820312 451.5501098632812 447.8873901367188 451.3970947265625 447.8873901367188 C 450.423095703125 447.8443908691406 449.3381042480469 447.8183898925781 448.1470947265625 447.8063659667969 C 446.9541015625 447.79638671875 445.7080993652344 447.7903747558594 444.4071044921875 447.7903747558594 C 443.8001098632812 447.7693786621094 443.193115234375 447.7583923339844 442.5870971679688 447.7583923339844 L 440.798095703125 447.7583923339844 C 440.51611328125 448.2573852539062 440.235107421875 448.7773742675781 439.9530944824219 449.3183898925781 C 439.693115234375 449.7953796386719 439.4050903320312 450.3213806152344 439.0921020507812 450.8953857421875 C 438.777099609375 451.4703674316406 438.4580993652344 452.0393676757812 438.1331176757812 452.6023864746094 C 437.3961181640625 454.0123901367188 436.7451171875 455.3883666992188 436.1820983886719 456.7323913574219 C 435.943115234375 457.2953796386719 435.7101135253906 457.8813781738281 435.4830932617188 458.4883728027344 C 435.2550964355469 459.0943908691406 435.048095703125 459.6853942871094 434.8641052246094 460.2593688964844 C 434.6801147460938 460.8343811035156 434.5401000976562 461.3863830566406 434.4421081542969 461.9173889160156 C 434.3450927734375 462.4483947753906 434.3070983886719 462.9203796386719 434.3291015625 463.3323669433594 C 434.35009765625 463.4613647460938 434.3991088867188 463.6023864746094 434.4740905761719 463.75439453125 C 434.5492248535156 463.9062194824219 434.7079467773438 463.9409484863281 434.9461059570312 463.8523864746094 C 435.4450988769531 463.7003784179688 435.9700927734375 463.3643798828125 436.5231018066406 462.8443908691406 C 437.0761108398438 462.3233947753906 437.6011047363281 461.7823791503906 438.10009765625 461.2183837890625 C 438.6631164550781 460.54638671875 439.2271118164062 459.8093872070312 439.7901000976562 459.0073852539062 C 440.0941162109375 458.5743713378906 440.3861083984375 458.1453857421875 440.6690979003906 457.723388671875 C 440.9501037597656 457.3003845214844 441.2101135253906 456.9273681640625 441.4490966796875 456.6013793945312 C 441.5140991210938 456.515380859375 441.5791015625 456.4393920898438 441.6441040039062 456.3743896484375 C 441.7518920898438 456.2666015625 441.8452453613281 456.2202453613281 441.9360961914062 456.244384765625 C 442.0231018066406 456.2873840332031 442.1051025390625 456.3633728027344 442.1801147460938 456.4713745117188 C 442.256103515625 456.5803833007812 442.2401123046875 456.7433776855469 442.1321105957031 456.9593811035156 C 441.9570922851562 457.3063659667969 441.7621154785156 457.6633911132812 441.5461120605469 458.0323791503906 C 441.3721008300781 458.3353881835938 441.173095703125 458.6773681640625 440.9450988769531 459.0563659667969 C 440.7171020507812 459.4363708496094 440.4941101074219 459.7983703613281 440.2781066894531 460.1453857421875 C 439.7151184082031 460.9043884277344 439.1401062011719 461.6083679199219 438.5560913085938 462.2593688964844 C 438.0350952148438 462.8223876953125 437.4551086425781 463.3533935546875 436.8150939941406 463.8523864746094 C 436.1761169433594 464.3513793945312 435.5201110839844 464.6753845214844 434.8490905761719 464.827392578125 C 434.5450744628906 464.8926696777344 434.1920166015625 464.9164428710938 433.7921142578125 464.8923645019531 C 433.39111328125 464.8703918457031 433.0071105957031 464.6973876953125 432.6380920410156 464.3723754882812 C 432.3781127929688 464.1553649902344 432.2151184082031 463.8253784179688 432.1501159667969 463.38037109375 C 432.0851135253906 462.9363708496094 432.0641174316406 462.4863891601562 432.0851135253906 462.0313720703125 C 432.1071166992188 461.4903869628906 432.18310546875 460.9253845214844 432.3131103515625 460.3403930664062 C 432.443115234375 459.7123718261719 432.60009765625 459.0893859863281 432.7850952148438 458.4713745117188 C 432.9691162109375 457.8533935546875 433.1690979003906 457.2513732910156 433.3861083984375 456.6663818359375 C 433.6461181640625 455.8863830566406 433.9381103515625 455.0953674316406 434.2630920410156 454.2933654785156 C 434.5881042480469 453.4913940429688 434.9301147460938 452.7113647460938 435.287109375 451.952392578125 C 435.6451110839844 451.1933898925781 436.0130920410156 450.4623718261719 436.3930969238281 449.7573852539062 C 436.7720947265625 449.0533752441406 437.1351013183594 448.3873901367188 437.4821166992188 447.7583923339844 L 436.2630920410156 447.7583923339844 C 435.8840942382812 447.7583923339844 435.5201110839844 447.7473754882812 435.1741027832031 447.7253723144531 C 434.89208984375 447.7253723144531 434.6640930175781 447.7363891601562 434.4910888671875 447.7583923339844 C 434.318115234375 447.7793884277344 434.1871032714844 447.7903747558594 434.1011047363281 447.7903747558594 C 433.4511108398438 447.9203796386719 432.9140930175781 448.0943908691406 432.4920959472656 448.3103942871094 C 432.069091796875 448.5273742675781 431.6191101074219 448.6573791503906 431.14208984375 448.7003784179688 C 430.9505004882812 448.7222290039062 430.8057556152344 448.6959533691406 430.7200927734375 448.619384765625 C 430.6331176757812 448.5443725585938 430.568115234375 448.4513854980469 430.5241088867188 448.3433837890625 C 430.4811096191406 448.234375 430.4710998535156 448.1153869628906 430.4920959472656 447.9853820800781 C 430.5130920410156 447.7693786621094 430.6111145019531 447.5903930664062 430.7841186523438 447.4493713378906 C 430.9580993652344 447.3083801269531 431.1531066894531 447.2063903808594 431.3691101074219 447.140380859375 C 431.5860900878906 447.0753784179688 431.798095703125 447.0323791503906 432.0040893554688 447.0103759765625 C 432.2101135253906 446.9883728027344 432.3561096191406 446.9773864746094 432.443115234375 446.9773864746094 C 432.8540954589844 446.9553833007812 433.548095703125 446.9283752441406 434.5241088867188 446.8963928222656 C 435.4991149902344 446.8633728027344 436.6701049804688 446.8263854980469 438.0350952148438 446.7823791503906 C 438.4681091308594 446.0673828125 438.8421020507812 445.4613647460938 439.1571044921875 444.9623718261719 C 439.4710998535156 444.46337890625 439.7041015625 444.0953674316406 439.8561096191406 443.8563842773438 C 440.2890930175781 443.1843872070312 440.6690979003906 442.6433715820312 440.9931030273438 442.2313842773438 C 441.319091796875 441.8193664550781 441.6331176757812 441.4823913574219 441.9360961914062 441.2223815917969 C 442.1741027832031 440.984375 442.4131164550781 440.7993774414062 442.6510925292969 440.6703796386719 C 442.8681030273438 440.5613708496094 443.0960998535156 440.4913940429688 443.3341064453125 440.4583740234375 C 443.37109375 440.453369140625 443.4081115722656 440.4513854980469 443.4450988769531 440.4513854980469 Z" stroke="none" fill="#fff"/>
      </g>
      <g id="Path_707" data-name="Path 707" transform="translate(202.432 -97.882)" fill="none" stroke-linecap="square" stroke-dasharray="1000 1000">
        <path d="M460.343,456.174c.086.044.119.13.1.26-.021.043-.076.178-.162.406s-.207.515-.358.862a25.067,25.067,0,0,1-1.464,2.7,18.9,18.9,0,0,1-1.609,2.211,8.4,8.4,0,0,1-1.968,1.756q-.065.033-.341.163a3,3,0,0,1-.7.212,2.45,2.45,0,0,1-.927-.017,2.284,2.284,0,0,1-.992-.488,1.7,1.7,0,0,1-.537-.958,5.033,5.033,0,0,1-.1-1.431,10.332,10.332,0,0,1,.26-1.707,10.663,10.663,0,0,1,.569-1.755q.228-.553.569-1.22t.634-1.219q.357-.65.715-1.3a7.51,7.51,0,0,0-1.284.861,16.917,16.917,0,0,0-2.064,1.919,20.632,20.632,0,0,0-2.114,2.715,9.836,9.836,0,0,0-1.4,3.219,1.185,1.185,0,0,0,.032.292,1.377,1.377,0,0,0,.016.227,1.116,1.116,0,0,1,.017.163.8.8,0,0,1-.049.423.458.458,0,0,1-.341.26.783.783,0,0,1-.292.065c-.087,0-.19-.005-.31-.016a.641.641,0,0,1-.341-.146,1.754,1.754,0,0,1-.585-.618,3.424,3.424,0,0,1-.308-1.219,6.9,6.9,0,0,1,.016-1.253q.066-.682.195-1.4.228-1.008.537-2.065t.666-2q.358-.943.7-1.756t.6-1.4q.553-1.2,1.106-2.259t1.008-1.838q.52-.91,1.008-1.657.878-1.3,1.788-2.471t1.772-2.081a14.858,14.858,0,0,1,1.658-1.528,5.578,5.578,0,0,1,1.414-.845,2.861,2.861,0,0,1,.715-.163,2.573,2.573,0,0,1,.634.017,1.515,1.515,0,0,1,.634.244,1.392,1.392,0,0,1,.39,1.236,6.741,6.741,0,0,1-.65,2.032,20.782,20.782,0,0,1-2.178,3.43q-.748,1.008-1.446,1.821t-1.48,1.609q-.78.8-1.707,1.642t-2.13,1.918q-.423.878-.959,2.1t-.992,2.487c.2-.3.406-.612.634-.927s.482-.634.764-.959q.617-.747,1.349-1.479a17.63,17.63,0,0,1,1.512-1.349,12.005,12.005,0,0,1,1.561-1.057,5.526,5.526,0,0,1,1.528-.6,2.012,2.012,0,0,1,.715,0,1.779,1.779,0,0,1,.715.325,1.364,1.364,0,0,1,.487,1.2,3.649,3.649,0,0,1-.292,1.2c-.109.174-.211.352-.309.536a6.342,6.342,0,0,1-.341.57q-.292.488-.829,1.414t-1.041,1.967a19.4,19.4,0,0,0-.862,2.065,4.069,4.069,0,0,0-.293,1.674,1.269,1.269,0,0,0,.163.455c.086.152.26.163.52.032a3.164,3.164,0,0,0,.829-.65q.439-.455.829-.91.455-.553.911-1.2.519-.715.975-1.463t.845-1.4q.391-.65.7-1.155a5.761,5.761,0,0,1,.537-.764.13.13,0,0,1,.1-.032A.883.883,0,0,1,460.343,456.174Zm-1.463-14.729a.484.484,0,0,0-.358,0,2.2,2.2,0,0,0-.781.569,15.405,15.405,0,0,0-1.365,1.609q-.847,1.106-2.114,3.089-.359.585-.781,1.332-.358.651-.877,1.545t-1.072,1.934a54.528,54.528,0,0,0,4.178-4.714A23.869,23.869,0,0,0,458,443.331q.324-.585.487-.959c.109-.249.2-.439.26-.569A2.62,2.62,0,0,0,458.88,441.445Z" stroke="none"/>
        <path d="M 446.5575256347656 464.7889404296875 C 446.4705200195312 464.7889404296875 446.3675231933594 464.783935546875 446.2475280761719 464.77392578125 C 446.1295166015625 464.7619323730469 446.0155334472656 464.7139282226562 445.9075317382812 464.626953125 C 445.6475219726562 464.4539489746094 445.4515380859375 464.2479553222656 445.3225402832031 464.0089416503906 C 445.1495361328125 463.6409301757812 445.0455322265625 463.2349548339844 445.0135192871094 462.7909545898438 C 444.9815368652344 462.3469543457031 444.9865417480469 461.9279479980469 445.029541015625 461.5379333496094 C 445.0735168457031 461.0829467773438 445.1385192871094 460.616943359375 445.2245178222656 460.1399536132812 C 445.3765258789062 459.4689331054688 445.5545349121094 458.7799377441406 445.7615356445312 458.074951171875 C 445.9665222167969 457.3719482421875 446.1885375976562 456.7059326171875 446.4275207519531 456.0769348144531 C 446.66552734375 455.4479370117188 446.8985290527344 454.8629455566406 447.1265258789062 454.3209533691406 C 447.353515625 453.7789306640625 447.5545349121094 453.3119506835938 447.7275390625 452.9219360351562 C 448.0965270996094 452.1209411621094 448.4645385742188 451.366943359375 448.8335266113281 450.6629333496094 C 449.2015380859375 449.9589538574219 449.5375366210938 449.345947265625 449.8415222167969 448.824951171875 C 450.1885375976562 448.2189331054688 450.5245361328125 447.6659545898438 450.8495178222656 447.1679382324219 C 451.4345397949219 446.3009338378906 452.030517578125 445.4769287109375 452.6375122070312 444.6969299316406 C 453.2435302734375 443.9169311523438 453.8345336914062 443.2229309082031 454.4095153808594 442.6149291992188 C 454.9835205078125 442.0089416503906 455.5365295410156 441.4999389648438 456.0675354003906 441.0879516601562 C 456.5985412597656 440.6759338378906 457.0695190429688 440.3939514160156 457.4815368652344 440.241943359375 C 457.7195129394531 440.1559448242188 457.9585266113281 440.1009521484375 458.1975402832031 440.0789489746094 C 458.3928527832031 440.0586853027344 458.6027526855469 440.0645446777344 458.8305358886719 440.095947265625 C 459.0585327148438 440.1289367675781 459.2705383300781 440.2099304199219 459.4655151367188 440.3399353027344 C 459.7685241699219 440.5999450683594 459.8985290527344 441.0119323730469 459.8555297851562 441.574951171875 C 459.8115234375 442.0739440917969 459.5955200195312 442.7509460449219 459.2045288085938 443.60693359375 C 458.8145141601562 444.4629516601562 458.0885314941406 445.60693359375 457.0265197753906 447.0379333496094 C 456.5275268554688 447.7099304199219 456.0465393066406 448.3169555664062 455.5805358886719 448.8579406738281 C 455.113525390625 449.3999328613281 454.6205139160156 449.9369506835938 454.1005249023438 450.4679260253906 C 453.5805358886719 450.9989318847656 453.0115356445312 451.5459289550781 452.3935241699219 452.1099548339844 C 451.7755126953125 452.6729431152344 451.0655212402344 453.3119506835938 450.2635192871094 454.0279541015625 C 449.9815368652344 454.6129455566406 449.6625366210938 455.3119506835938 449.3045349121094 456.1249389648438 C 448.9475402832031 456.9379272460938 448.6165161132812 457.7669372558594 448.3125305175781 458.6119384765625 C 448.5085144042969 458.3089294433594 448.7195129394531 457.9999389648438 448.9475402832031 457.6849365234375 C 449.1745300292969 457.3719482421875 449.4295349121094 457.0519409179688 449.7115173339844 456.7259521484375 C 450.1225280761719 456.2279357910156 450.5725402832031 455.7339477539062 451.0605163574219 455.2469482421875 C 451.5485229492188 454.7589416503906 452.0525207519531 454.3099365234375 452.571533203125 453.89794921875 C 453.092529296875 453.4859313964844 453.6125183105469 453.1339416503906 454.1325378417969 452.8409423828125 C 454.6525268554688 452.5479431152344 455.1625366210938 452.3479309082031 455.6615295410156 452.2389526367188 C 455.8995056152344 452.1968994140625 456.1385498046875 452.1968994140625 456.3765258789062 452.2389526367188 C 456.6145324707031 452.2829284667969 456.8525390625 452.3919372558594 457.0915222167969 452.56494140625 C 457.4595336914062 452.8899536132812 457.6225280761719 453.2909545898438 457.5795288085938 453.7679443359375 C 457.5355224609375 454.2449340820312 457.4375305175781 454.6459350585938 457.2865295410156 454.970947265625 C 457.1785278320312 455.1449279785156 457.0755310058594 455.3239440917969 456.9775390625 455.5069274902344 C 456.8805236816406 455.6919555664062 456.7665405273438 455.8809509277344 456.6365356445312 456.0769348144531 C 456.4415283203125 456.4019470214844 456.16552734375 456.8729553222656 455.8075256347656 457.4899291992188 C 455.4495239257812 458.1079406738281 455.1025390625 458.7639465332031 454.7675170898438 459.4569396972656 C 454.4305419921875 460.1509399414062 454.1435241699219 460.8399353027344 453.905517578125 461.52294921875 C 453.6665344238281 462.2049560546875 453.5695190429688 462.762939453125 453.6125183105469 463.1969299316406 C 453.6335144042969 463.3479309082031 453.6885375976562 463.5009460449219 453.7755126953125 463.6519470214844 C 453.8617858886719 463.8056640625 454.0383605957031 463.8125305175781 454.2955322265625 463.6839294433594 C 454.5555419921875 463.553955078125 454.8315124511719 463.3379516601562 455.1245422363281 463.033935546875 C 455.4175415039062 462.7309265136719 455.6935119628906 462.4279479980469 455.9535217285156 462.1239318847656 C 456.2565307617188 461.7549438476562 456.5595397949219 461.3549499511719 456.8645324707031 460.9209289550781 C 457.2105407714844 460.4439392089844 457.5355224609375 459.9559326171875 457.8395385742188 459.4569396972656 C 458.1425170898438 458.9589538574219 458.4245300292969 458.4929504394531 458.6845397949219 458.0599365234375 C 458.9455261230469 457.6259460449219 459.1775207519531 457.241943359375 459.3835144042969 456.9049377441406 C 459.5895385742188 456.5699462890625 459.7685241699219 456.31494140625 459.9205322265625 456.1409301757812 C 459.9919738769531 456.0694885253906 460.1891479492188 456.1130676269531 460.3435363769531 456.1739501953125 C 460.4295349121094 456.2179260253906 460.4615173339844 456.303955078125 460.4405212402344 456.4339294433594 C 460.4195251464844 456.4779357910156 460.3645324707031 456.6119384765625 460.2785339355469 456.8399353027344 C 460.1915283203125 457.0679321289062 460.071533203125 457.3559265136719 459.9205322265625 457.7019348144531 C 459.4865417480469 458.6339416503906 458.99853515625 459.5329284667969 458.45751953125 460.3999328613281 C 458.0025329589844 461.137939453125 457.4655151367188 461.8739318847656 456.8485412597656 462.6109313964844 C 456.2305297851562 463.3479309082031 455.5745239257812 463.9339294433594 454.8805236816406 464.366943359375 C 454.8375244140625 464.3889465332031 454.7235412597656 464.4429321289062 454.5395202636719 464.5299377441406 C 454.3545227050781 464.6159362792969 454.1215209960938 464.6869506835938 453.8405151367188 464.7409362792969 C 453.5578308105469 464.7939758300781 453.2497863769531 464.7889099121094 452.9135131835938 464.7249450683594 C 452.5775146484375 464.6599426269531 452.2475280761719 464.4969482421875 451.9215393066406 464.2369384765625 C 451.6625366210938 464.0199279785156 451.4835205078125 463.700927734375 451.3855285644531 463.2779541015625 C 451.2885131835938 462.8549499511719 451.2555236816406 462.3789367675781 451.2885131835938 461.8469543457031 C 451.3205261230469 461.3159484863281 451.4065246582031 460.7469482421875 451.5485229492188 460.1399536132812 C 451.6885375976562 459.5329284667969 451.8785400390625 458.9479370117188 452.1165161132812 458.3849487304688 C 452.26953125 458.0159301757812 452.4585266113281 457.6099548339844 452.6865234375 457.1649475097656 C 452.9135131835938 456.720947265625 453.1245422363281 456.31494140625 453.3205261230469 455.9459533691406 C 453.5585327148438 455.512939453125 453.7965393066406 455.0799560546875 454.0355224609375 454.6459350585938 C 453.8185119628906 454.7329406738281 453.3905334472656 455.0189514160156 452.7515258789062 455.5069274902344 C 452.1115417480469 455.9949340820312 451.4235229492188 456.6339416503906 450.6865234375 457.4259338378906 C 449.9495239257812 458.2169494628906 449.2455139160156 459.1219482421875 448.5735168457031 460.1399536132812 C 447.9015197753906 461.158935546875 447.4355163574219 462.23193359375 447.175537109375 463.3589477539062 C 447.175537109375 463.4679260253906 447.1855163574219 463.56494140625 447.20751953125 463.6519470214844 C 447.20751953125 463.7389526367188 447.2125244140625 463.8139343261719 447.2235412597656 463.8789367675781 C 447.2345275878906 463.9449462890625 447.2405395507812 463.9989318847656 447.2405395507812 464.0419311523438 C 447.2615356445312 464.1939392089844 447.2455139160156 464.3349304199219 447.1915283203125 464.4649353027344 C 447.1365356445312 464.5939331054688 447.0235290527344 464.6819458007812 446.8495178222656 464.7249450683594 C 446.7415161132812 464.7689514160156 446.6435241699219 464.7889404296875 446.5575256347656 464.7889404296875 Z M 458.7415161132812 441.4129333496094 C 458.6825256347656 441.4129333496094 458.6095275878906 441.4239501953125 458.5225219726562 441.4449462890625 C 458.3485412597656 441.4889526367188 458.0885314941406 441.6779479980469 457.7415161132812 442.0139465332031 C 457.3955383300781 442.3499450683594 456.9395141601562 442.8869323730469 456.3765258789062 443.6239318847656 C 455.8125305175781 444.3609313964844 455.1085205078125 445.3909301757812 454.2625122070312 446.7129516601562 C 454.0235290527344 447.1029357910156 453.7645263671875 447.5469360351562 453.4825134277344 448.0449523925781 C 453.2435302734375 448.4789428710938 452.9505310058594 448.9939270019531 452.6045227050781 449.5899353027344 C 452.2585144042969 450.1869506835938 451.9005126953125 450.8309326171875 451.5325317382812 451.52392578125 C 453.2875366210938 449.7249450683594 454.6805419921875 448.1539306640625 455.7105407714844 446.8099365234375 C 456.7395324707031 445.4659423828125 457.5035400390625 444.3069458007812 458.0025329589844 443.3309326171875 C 458.2185363769531 442.9409484863281 458.3815307617188 442.6209411621094 458.4895324707031 442.3719482421875 C 458.5985412597656 442.1229553222656 458.6845397949219 441.9329528808594 458.7505187988281 441.8029479980469 C 458.8145141601562 441.6509399414062 458.8585205078125 441.5319519042969 458.8805236816406 441.4449462890625 C 458.8475341796875 441.4239501953125 458.801513671875 441.4129333496094 458.7415161132812 441.4129333496094 Z" stroke="none" fill="#fff"/>
      </g>
    </g>
  </g>
</svg>
