<?xml version="1.0" encoding="UTF-8"?>
<svg width="64px" height="45px" viewBox="0 0 64 45" version="1.1" xmlns="http://www.w3.org/2000/svg" xmlns:xlink="http://www.w3.org/1999/xlink">
    <title>Group 11</title>
    <defs>
        <polygon id="path-1" points="0 2.08333333e-05 48.0261011 2.08333333e-05 48.0261011 42.2916667 0 42.2916667"></polygon>
        <polygon id="path-3" points="0.0765911909 2.08333333e-05 26.0461207 2.08333333e-05 26.0461207 42.2916875 0.0765911909 42.2916875"></polygon>
    </defs>
    <g id="Page-1" stroke="none" stroke-width="1" fill="none" fill-rule="evenodd">
        <g id="Personality-Finder-3" transform="translate(-315.000000, -454.000000)">
            <g id="Group-11" transform="translate(347.000000, 476.500000) rotate(180.000000) translate(-347.000000, -476.500000) translate(315.000000, 454.000000)">
                <path d="M9.39641109,24.1666875 C8.82009788,24.1666875 8.35236542,24.63325 8.35236542,25.2083542 C8.35236542,25.7833542 8.82009788,26.2500208 9.39641109,26.2500208 C9.97272431,26.2500208 10.4404568,25.7833542 10.4404568,25.2083542 C10.4404568,24.63325 9.97272431,24.1666875 9.39641109,24.1666875" id="Fill-1" fill="#787878"></path>
                <g id="Group-5" transform="translate(0.000000, 2.708333)">
                    <mask id="mask-2" fill="white">
                        <use xlink:href="#path-1"></use>
                    </mask>
                    <g id="Clip-4"></g>
                    <path d="M43.8499184,21.4583542 L38.62969,21.4583542 C38.053168,21.4583542 37.5856444,21.9248125 37.5856444,22.5000208 C37.5856444,23.075125 38.053168,23.5416875 38.62969,23.5416875 L41.7618271,23.5416875 C42.9132007,23.5416875 43.8499184,24.4762708 43.8499184,25.6250208 C43.8499184,26.7756458 42.9150799,27.7083542 41.7618271,27.7083542 L36.5415987,27.7083542 C35.9650767,27.7083542 35.497553,28.1748125 35.497553,28.7500208 C35.497553,29.325125 35.9650767,29.7916875 36.5415987,29.7916875 L39.6737357,29.7916875 C40.8114323,29.7916875 41.7618271,30.6984583 41.7618271,31.8750208 C41.7618271,33.0256458 40.8269886,33.9583542 39.6737357,33.9583542 L34.4535073,33.9583542 C33.8769853,33.9583542 33.4094617,34.4248125 33.4094617,35.0000208 C33.4094617,35.575125 33.8769853,36.0416875 34.4535073,36.0416875 L37.5856444,36.0416875 C38.7370179,36.0416875 39.6737357,36.9762708 39.6737357,38.1250208 C39.6737357,39.2737708 38.7370179,40.2083542 37.5856444,40.2083542 L26.3579772,40.2083542 C21.7425644,40.2083542 19.9399152,39.7386667 16.3487113,38.8029375 C15.8226166,38.66575 15.2455726,38.5155417 14.6166395,38.3555417 L14.6166395,19.1691875 C22.1721892,17.3736667 31.3213703,12.99075 31.3213703,5.20835417 L31.3213703,4.1666875 C31.3213703,3.0179375 32.2580881,2.08335417 33.4094617,2.08335417 C34.5587471,2.08335417 35.4953605,3.01647917 35.497553,4.16345833 L35.497553,4.1666875 C35.497553,4.61939583 36.0638434,10.1753333 33.793044,15.2083542 L30.2773246,15.2083542 C29.7008026,15.2083542 29.233279,15.6748125 29.233279,16.2500208 C29.233279,16.825125 29.7008026,17.2916875 30.2773246,17.2916875 L43.8499184,17.2916875 C45.001292,17.2916875 45.9380098,18.2262708 45.9380098,19.3750208 C45.9380098,20.5256458 45.0031713,21.4583542 43.8499184,21.4583542 L43.8499184,21.4583542 Z M12.5285481,39.1666875 C12.5285481,39.7410625 12.0601892,40.2083542 11.4845024,40.2083542 L2.08809135,40.2083542 L2.08809135,17.2916875 L11.4845024,17.2916875 C12.0601892,17.2916875 12.5285481,17.758875 12.5285481,18.3333542 L12.5285481,39.1666875 Z M48.0261011,19.3750208 C48.0261011,17.0774167 46.1526656,15.2083542 43.8499184,15.2083542 L36.0559086,15.2083542 C37.2625122,12.1247083 37.7509168,8.495125 37.6567439,5.2641875 C37.6387863,4.647625 37.6150865,4.2910625 37.5830343,4.06658333 C37.5290571,1.81585417 35.6767113,2.08333333e-05 33.4094617,2.08333333e-05 C31.1067145,2.08333333e-05 29.233279,1.8691875 29.233279,4.1666875 L29.233279,5.20835417 C29.233279,11.7964792 20.7541664,15.4980417 14.3552104,17.0853333 C13.8713997,15.9817917 12.7670082,15.2083542 11.4845024,15.2083542 L1.04404568,15.2083542 C0.467523654,15.2083542 0,15.6748125 0,16.2500208 L0,41.2500208 C0,41.825125 0.467523654,42.2916875 1.04404568,42.2916875 L11.4845024,42.2916875 C12.758447,42.2916875 13.8564698,41.5284583 14.345292,40.4364792 C14.8751452,40.5722083 15.3669951,40.7003333 15.8210506,40.8185625 C19.4663361,41.7685625 21.4743491,42.2916875 26.3579772,42.2916875 L37.5856444,42.2916875 C39.8883915,42.2916875 41.7618271,40.4225208 41.7618271,38.1250208 C41.7618271,37.26825 41.5011289,36.4714792 41.0550082,35.8085625 C42.6678499,35.2456458 43.8499184,33.70825 43.8499184,31.8750208 C43.8499184,31.0214792 43.5955889,30.222 43.1508254,29.5560625 C44.7565677,28.9923125 45.9380098,27.4583542 45.9380098,25.6250208 C45.9380098,24.76825 45.6773116,23.9714792 45.2311909,23.3085625 C46.8440326,22.7456458 48.0261011,21.20825 48.0261011,19.3750208 L48.0261011,19.3750208 Z" id="Fill-3" fill="#787878" mask="url(#mask-2)"></path>
                </g>
                <g id="Group-8" transform="translate(37.898858, 0.000000)">
                    <mask id="mask-4" fill="white">
                        <use xlink:href="#path-3"></use>
                    </mask>
                    <g id="Clip-7"></g>
                    <path d="M26.0461834,19.3750208 C26.0461834,17.0775208 24.1727478,15.2083542 21.8700007,15.2083542 L14.0759909,15.2083542 C15.2825945,12.1247083 15.770999,8.495125 15.6768261,5.2641875 C15.6588685,4.647625 15.6351687,4.2910625 15.6031165,4.06658333 C15.5491393,1.81585417 13.6967935,2.08333333e-05 11.4295439,2.08333333e-05 C9.12679674,2.08333333e-05 7.25336117,1.8691875 7.25336117,4.1666875 L7.25336117,5.20835417 C7.25336117,8.972 4.38453246,11.8940833 0.757308972,13.978875 C0.677648287,14.6633542 0.478548777,15.3298125 0.268382382,15.9881458 C0.203233931,16.1922083 0.140069168,16.3964792 0.0765911909,16.6003333 C5.13791582,14.1961667 9.34145253,10.4833542 9.34145253,5.20835417 L9.34145253,4.1666875 C9.34145253,3.0179375 10.2781703,2.08335417 11.4295439,2.08335417 C12.5788294,2.08335417 13.5154427,3.01647917 13.5176352,4.16345833 L13.5176352,4.1666875 C13.5176352,4.61939583 14.0839256,10.1753333 11.8131263,15.2083542 L8.29740685,15.2083542 C7.72088483,15.2083542 7.25336117,15.6748125 7.25336117,16.2500208 C7.25336117,16.8252292 7.72088483,17.2916875 8.29740685,17.2916875 L21.8700007,17.2916875 C23.0213742,17.2916875 23.958092,18.2262708 23.958092,19.3750208 C23.958092,20.5256458 23.0232535,21.4583542 21.8700007,21.4583542 L16.6497723,21.4583542 C16.0732502,21.4583542 15.6057266,21.9248125 15.6057266,22.5000208 C15.6057266,23.075125 16.0732502,23.5416875 16.6497723,23.5416875 L19.7819093,23.5416875 C20.9332829,23.5416875 21.8700007,24.4762708 21.8700007,25.6250208 C21.8700007,26.7756458 20.9351622,27.7083542 19.7819093,27.7083542 L14.5616809,27.7083542 C13.9851589,27.7083542 13.5176352,28.1748125 13.5176352,28.7500208 C13.5176352,29.325125 13.9851589,29.7916875 14.5616809,29.7916875 L17.6938179,29.7916875 C18.8314101,29.7916875 19.7819093,30.6984583 19.7819093,31.8750208 C19.7819093,33.0256458 18.8470708,33.9583542 17.6938179,33.9583542 L12.4735896,33.9583542 C11.8970675,33.9583542 11.4295439,34.4248125 11.4295439,35.0000208 C11.4295439,35.575125 11.8970675,36.0416875 12.4735896,36.0416875 L15.6057266,36.0416875 C16.7571002,36.0416875 17.6938179,36.9762708 17.6938179,38.1250208 C17.6938179,39.2736667 16.7571002,40.2083542 15.6057266,40.2083542 L4.69732855,40.2083542 C4.74493703,40.616375 4.80444763,41.0148125 4.72499576,41.4373125 C4.66934812,41.7329375 4.56024535,42.0152292 4.43610832,42.2916875 L15.6057266,42.2916875 C17.9084737,42.2916875 19.7819093,40.4225208 19.7819093,38.1250208 C19.7819093,37.26825 19.5212111,36.4714792 19.074986,35.8085625 C20.6879321,35.2456458 21.8700007,33.70825 21.8700007,31.8750208 C21.8700007,31.0214792 21.6155667,30.222 21.1709077,29.5560625 C22.7766499,28.9923125 23.958092,27.4583542 23.958092,25.6250208 C23.958092,24.76825 23.6973938,23.9714792 23.2511687,23.3085625 C24.8641148,22.7456458 26.0461834,21.20825 26.0461834,19.3750208" id="Fill-6" fill="#787878" mask="url(#mask-4)"></path>
                </g>
                <path d="M9.39641109,28.3333542 C8.81988907,28.3333542 8.35236542,28.7998125 8.35236542,29.3750208 L8.35236542,37.7083542 C8.35236542,38.2834583 8.81988907,38.7500208 9.39641109,38.7500208 C9.97293312,38.7500208 10.4404568,38.2834583 10.4404568,37.7083542 L10.4404568,29.3750208 C10.4404568,28.7998125 9.97293312,28.3333542 9.39641109,28.3333542" id="Fill-9" fill="#787878"></path>
            </g>
        </g>
    </g>
</svg>