<?xml version="1.0" encoding="UTF-8"?>
<svg width="64px" height="63px" viewBox="0 0 64 63" version="1.1" xmlns="http://www.w3.org/2000/svg" xmlns:xlink="http://www.w3.org/1999/xlink">
    <title>Group 6</title>
    <defs>
        <polygon id="path-1" points="0 2.66949153e-05 64.0005123 2.66949153e-05 64.0005123 63 0 63"></polygon>
    </defs>
    <g id="Page-1" stroke="none" stroke-width="1" fill="none" fill-rule="evenodd">
        <g id="New-to-Investing-2-Copy" transform="translate(-529.000000, -481.000000)">
            <g id="Group-6" transform="translate(529.000000, 481.000000)">
                <path d="M17.0847458,3.73731483 C17.9692818,3.73731483 18.6864407,4.45447373 18.6864407,5.33900975 C18.6864407,6.22354576 17.9692818,6.94070466 17.0847458,6.94070466 C16.2002097,6.94070466 15.4830508,6.22354576 15.4830508,5.33900975 C15.4830508,4.45447373 16.2002097,3.73731483 17.0847458,3.73731483" id="Fill-1" fill="#787878"></path>
                <g id="Group-5">
                    <mask id="mask-2" fill="white">
                        <use xlink:href="#path-1"></use>
                    </mask>
                    <g id="Clip-4"></g>
                    <path d="M61.8659867,60.7982301 L2.13557987,60.8644335 L2.13557987,58.5653339 L13.8877494,56.6071284 C13.9438087,56.5977852 14.0006689,56.5931136 14.057529,56.593247 L30.1321392,56.593247 C31.645207,56.5921792 33.0871328,55.9500331 34.1002049,54.8260436 L35.4049189,53.3749081 C36.6210057,52.0262809 38.3513701,51.2557322 40.1672917,51.254264 L44.1800714,51.254264 C45.6241328,51.2563996 46.9710248,50.526961 47.7582578,49.3162131 L51.736868,43.2148233 C51.9413511,42.9018254 52.1984231,42.6267343 52.4972727,42.4022301 L58.3016816,38.0488233 C58.3658828,38.0005055 58.4246117,37.9453805 58.4768002,37.8843826 L61.8659867,33.8801453 L61.8659867,60.7982301 Z M21.3559189,52.3220606 L24.6735629,52.3220606 C24.6874443,52.3220606 24.7013256,52.330603 24.715207,52.330603 C24.7290883,52.330603 24.7525799,52.3220606 24.772868,52.3220606 L25.6271053,52.3220606 C26.216796,52.3220606 26.6949019,52.8001665 26.6949019,53.3898572 L26.6949019,54.4576538 L21.3559189,54.4576538 L21.3559189,52.3220606 Z M25.3484104,41.483925 C25.4590608,41.2229822 25.4613299,40.9286708 25.3548172,40.6659928 C24.4563998,38.4435076 23.7616646,36.6282534 23.2704782,35.2202301 C24.1395311,35.4054928 25.0458235,35.1905987 25.7392239,34.6349441 C26.8581413,33.7763021 27.2885968,32.2897958 26.8016816,30.9661284 L29.8982917,30.9661284 L29.8982917,32.033925 C29.8984252,32.3478572 30.0367049,32.6459059 30.2762917,32.8486538 L35.8577981,37.5736538 C36.1378278,37.7735987 36.304404,38.0964737 36.3050714,38.4407047 L36.3050714,44.8474843 L34.1694782,44.8474843 L34.1694782,39.5394674 C34.1692112,39.194836 34.0025015,38.8715606 33.7222049,38.6713487 L30.6884612,36.5047894 C30.65576,36.4877047 30.6222578,36.4724886 30.5880883,36.4587407 C30.5252218,36.4223021 30.4587515,36.3925373 30.3894782,36.3701136 C30.3200714,36.3484907 30.2483956,36.3340754 30.1759189,36.3275352 C30.140815,36.3180585 30.1051773,36.3105839 30.0691392,36.3051114 L27.5277833,36.3051114 C27.4603786,36.3116517 27.3937748,36.3251326 27.3291731,36.3456877 C27.2656392,36.3504928 27.2027727,36.3613042 27.1412409,36.3777216 L27.1294951,36.3851962 C27.0384655,36.4269737 26.9535756,36.4810309 26.8774951,36.5464335 C26.8475968,36.5709928 26.8080883,36.5859419 26.7803256,36.6126369 C26.7019761,36.7238212 26.6250947,36.8359398 26.5496816,36.9489928 C26.5336646,37.0010479 26.5215184,37.0541708 26.5133765,37.1080945 C26.4865481,37.1887131 26.4697303,37.2722682 26.46319,37.3568911 L26.46319,37.3729081 C26.4694633,37.4455182 26.4837451,37.5170606 26.5059019,37.5864674 C26.51044,37.6467979 26.5208511,37.706461 26.536868,37.7647894 L26.5464782,37.7914843 C26.8935121,38.6841623 27.2715121,39.6366369 27.6698002,40.6083318 C27.7953998,40.9163911 27.7953998,41.2612894 27.6698002,41.5693487 L24.0104612,50.1864674 L21.6613087,50.1864674 L25.3484104,41.483925 Z M22.9576138,32.7161136 L22.956546,32.7161136 L18.4280206,26.6063148 C18.1175587,26.1841347 18.1521286,25.6007174 18.5102409,25.2181792 L24.8572239,18.5017386 C25.0569019,18.2887131 25.3351964,18.1668508 25.6271053,18.1643137 C25.9025968,18.1639144 26.1671434,18.2716284 26.363885,18.4643657 C26.7896689,18.8784038 26.8052854,19.557122 26.3991222,19.990247 L20.6789358,26.043586 L24.6660883,31.4210097 C25.0238002,31.8927089 24.9313023,32.5651538 24.4594697,32.9228657 C23.9876371,33.2805775 23.3153256,33.1880797 22.9576138,32.7161136 L22.9576138,32.7161136 Z M17.2011222,23.4915521 L13.8813426,23.4915521 L13.8813426,10.6779928 L20.2881222,10.6779928 L20.2881222,20.2240945 L17.2011222,23.4915521 Z M14.9491392,27.7627386 C14.3594485,27.7627386 13.8813426,27.2846326 13.8813426,26.6949419 L13.8813426,25.6271453 L16.1055629,25.6271453 C16.0242769,26.3798085 16.2135439,27.1368763 16.6394612,27.7627386 L14.9491392,27.7627386 Z M17.0847324,2.13561992 C18.8539379,2.13561992 20.2881222,3.56980424 20.2881222,5.33900975 C20.2881222,7.10821525 18.8539379,8.54239958 17.0847324,8.54239958 C15.3155269,8.54239958 13.8813426,7.10821525 13.8813426,5.33900975 C13.8813426,3.56980424 15.3155269,2.13561992 17.0847324,2.13561992 L17.0847324,2.13561992 Z M22.4237155,14.9491792 L28.8304951,14.9491792 C29.4201858,14.9491792 29.8982917,15.4272852 29.8982917,16.0169758 L29.8982917,28.8305352 L28.1898172,28.8305352 L28.5101561,28.5101962 L27.0002917,27.0003318 L25.2918172,28.700264 L23.449868,26.2155013 L27.9346138,21.4627386 C29.1413574,20.1772449 29.0938405,18.1613784 27.8278341,16.9342131 C26.5296604,15.7448212 24.5242049,15.7919377 23.2832917,17.0409928 L22.4237155,17.9635691 L22.4237155,14.9491792 Z M25.6271053,9.61019619 L25.6271053,7.47460297 L29.8982917,7.47460297 L29.8982917,9.61019619 C29.8982917,10.1998869 29.4201858,10.6779928 28.8304951,10.6779928 L26.6949019,10.6779928 C26.1052112,10.6779928 25.6271053,10.1998869 25.6271053,9.61019619 L25.6271053,9.61019619 Z M25.6271053,4.27121314 C25.6271053,3.68152246 26.1052112,3.20341653 26.6949019,3.20341653 L28.8304951,3.20341653 C29.4201858,3.20341653 29.8982917,3.68152246 29.8982917,4.27121314 L29.8982917,5.33900975 L25.6271053,5.33900975 L25.6271053,4.27121314 Z M26.2998172,50.2601453 L29.6324104,42.4042322 C29.9795778,41.5714843 29.9845163,40.6352936 29.6462917,39.7989419 C29.4583595,39.3396559 29.2750989,38.8870436 29.0963765,38.4407047 L29.7263765,38.4407047 L32.033885,40.0893826 L32.033885,50.1864674 C32.033885,50.7761581 32.5119909,51.254264 33.1016816,51.254264 L34.5239867,51.254264 C34.2757239,51.4711602 34.0400078,51.7022047 33.8181731,51.9461962 L32.5122578,53.3973318 C31.9049485,54.0719123 31.0398998,54.4573869 30.1321392,54.4576538 L28.8304951,54.4576538 L28.8304951,53.3898572 C28.8294273,51.8806602 27.7752451,50.577014 26.2998172,50.2601453 L26.2998172,50.2601453 Z M38.4406646,46.9830775 C39.0303553,46.9830775 39.5084612,47.4611835 39.5084612,48.0508742 L39.5084612,49.1186708 L34.1694782,49.1186708 L34.1694782,46.9830775 L38.4406646,46.9830775 Z M11.7457494,23.4915521 L9.61015614,23.4915521 L9.61015614,19.2203657 C9.61015614,18.630675 10.0882621,18.1525691 10.6779528,18.1525691 L11.7457494,18.1525691 L11.7457494,23.4915521 Z M32.033885,17.6079928 L35.5757663,21.4894335 L41.0599697,17.9037725 C41.5594316,17.5889059 42.2190629,17.7311898 42.544207,18.2241114 C42.86201,18.7209038 42.7170566,19.3812025 42.2202642,19.6990055 C42.2193299,19.6996729 42.2183956,19.7002068 42.2174612,19.7008742 L35.85019,23.7585013 C35.6090015,23.9067915 35.3205629,23.9583127 35.0429358,23.9026538 C34.873957,23.8783614 34.7208617,23.7896008 34.6158172,23.654925 L32.033885,20.7430436 L32.033885,17.6079928 Z M62.9335163,29.8975309 C62.6187833,29.897264 62.3199337,30.0359441 62.1169189,30.2763318 L56.9243574,36.4118911 L51.2157833,40.6937555 C50.7175227,41.0684186 50.2882684,41.5269038 49.9472409,42.0487894 L45.9686307,48.1501792 C45.5754146,48.7556199 44.9020354,49.1202725 44.1800714,49.1186708 L41.6440544,49.1186708 L41.6440544,48.0508742 C41.6440544,46.2816686 40.2098701,44.8474843 38.4406646,44.8474843 L38.4406646,38.4407047 C38.4468044,37.436175 37.9747049,36.488639 37.1689189,35.8886708 L32.033885,31.5384674 L32.033885,23.9357555 L32.8464782,24.8401792 C33.2549104,25.4304038 33.876635,25.8385691 34.5805799,25.9784504 C35.4102578,26.1595754 36.2777091,26.0060797 36.994868,25.5513318 L41.6440544,22.594603 L41.6440544,39.5085013 L40.70119,39.5085013 C40.6321837,39.5085013 40.5762578,39.5644271 40.5762578,39.6333 L40.5762578,41.5192958 C40.5762578,41.5881686 40.6321837,41.6440945 40.70119,41.6440945 L41.6440544,41.6440945 L41.6440544,42.7118911 C41.6440544,43.3015818 42.1221604,43.7796877 42.7118511,43.7796877 C43.3015417,43.7796877 43.7796477,43.3015818 43.7796477,42.7118911 L43.7796477,41.6440945 L44.7226456,41.6440945 C44.7915184,41.6440945 44.8474443,41.5881686 44.8474443,41.5192958 L44.8474443,39.6333 C44.8474443,39.5644271 44.7915184,39.5085013 44.7226456,39.5085013 L43.7796477,39.5085013 L43.7796477,21.1722979 C44.9427451,20.1277258 45.182065,18.3960267 44.3455799,17.0751623 C44.1879464,16.8361093 43.9973447,16.6204144 43.7796477,16.4344843 L43.7796477,10.9785775 C43.7796477,10.8125352 43.6449718,10.6779928 43.4790629,10.6779928 L41.9446392,10.6779928 C41.7787303,10.6779928 41.6440544,10.8125352 41.6440544,10.9785775 L41.6440544,15.6197555 C41.0283362,15.6100119 40.4231625,15.779925 39.9024782,16.1088064 L35.9281392,18.7078233 L31.5224104,13.8813826 C30.9155015,13.2014631 30.0472494,12.8129186 29.135885,12.813586 L29.135885,12.8445521 C29.0344443,12.8349419 28.9372748,12.813586 28.8304951,12.813586 C30.5997006,12.813586 32.033885,11.3794017 32.033885,9.61019619 L32.033885,7.47460297 L33.9851498,7.47460297 C34.0869909,7.47460297 34.1694782,7.39211568 34.1694782,7.29027458 L34.1694782,5.52320466 C34.1694782,5.42149703 34.0869909,5.33900975 33.9851498,5.33900975 L32.033885,5.33900975 L32.033885,4.27121314 C32.033885,2.50200763 30.5997006,1.06782331 28.8304951,1.06782331 L26.6949019,1.06782331 C24.9256964,1.06782331 23.4915121,2.50200763 23.4915121,4.27121314 L23.4915121,9.61019619 C23.4915121,11.3794017 24.9256964,12.813586 26.6949019,12.813586 L22.4237155,12.813586 L22.4237155,9.61019619 C22.4237155,9.02050551 21.945743,8.54239958 21.3559189,8.54239958 L21.3281561,8.54239958 C22.0347706,7.62369407 22.4198447,6.49810297 22.4237155,5.33900975 C22.4237155,2.39042288 20.0333193,2.66949153e-05 17.0847324,2.66949153e-05 C14.1361456,2.66949153e-05 11.7457494,2.39042288 11.7457494,5.33900975 C11.7496201,6.49810297 12.1346943,7.62369407 12.8413087,8.54239958 L12.813546,8.54239958 C12.2238553,8.54239958 11.7457494,9.02050551 11.7457494,9.61019619 L11.7457494,16.0169758 L10.6779528,16.0169758 C8.90874725,16.0169758 7.47456292,17.4511602 7.47456292,19.2203657 L7.47456292,23.4915521 C7.47456292,24.6710669 8.43077479,25.6271453 9.61015614,25.6271453 L11.7457494,25.6271453 L11.7457494,26.6949419 C11.7457494,28.464014 13.1799337,29.8983318 14.9491392,29.8983318 L18.2091222,29.8983318 L20.7152409,33.2747047 L6.48791886,47.4614504 L5.8760714,46.8347873 C5.80119216,46.7580394 5.67839555,46.7565712 5.60164767,46.8314504 L4.34992309,48.0552788 C4.27344216,48.1301581 4.27197394,48.2528212 4.3467197,48.3294356 L4.97378326,48.9722492 L4.19882987,49.7446665 C3.78118792,50.1608403 3.78012013,50.8367555 4.19642733,51.254264 L4.19669428,51.2545309 C4.61286801,51.6719059 5.28864979,51.6728403 5.70602479,51.2566665 L6.46656292,50.498264 L7.07841038,51.1241263 C7.15328962,51.2007407 7.27608623,51.2019419 7.35270064,51.1271962 L8.60442521,49.9035013 C8.68103962,49.8284886 8.68250784,49.7058254 8.6076286,49.6290775 L7.98069852,48.9873318 L21.2096307,35.7947047 C21.6880036,37.1742979 22.3547091,38.9278869 23.2096138,41.0557386 L19.4883426,49.8298233 C19.3177621,50.2306475 19.2267324,50.6607025 19.2203256,51.0962301 C19.2203256,51.1239928 19.2331392,51.1474843 19.2352748,51.175247 C19.2374104,51.2030097 19.2203256,51.2265013 19.2203256,51.254264 L19.2203256,54.4576538 L14.057529,54.4576538 C13.8814761,54.4576538 13.7058235,54.4720691 13.5321731,54.5014335 L0.892664619,56.6080627 C0.377719703,56.6937534 -1.33474576e-05,57.1390246 -1.33474576e-05,57.6610436 L-1.33474576e-05,61.9322301 C-1.33474576e-05,62.5219208 0.478092585,63.0000267 1.06778326,63.0000267 L62.9327155,62.9338233 C63.5224061,62.9338233 64.0005123,62.4557174 64.0005123,61.8660267 L64.0005123,30.9661284 C64.0005123,30.3764377 63.5233405,29.8979314 62.9335163,29.8975309 L62.9335163,29.8975309 Z" id="Fill-3" fill="#787878" mask="url(#mask-2)"></path>
                </g>
            </g>
        </g>
    </g>
</svg>