<?xml version="1.0" encoding="UTF-8"?>
<svg width="52px" height="70px" viewBox="0 0 52 70" version="1.1" xmlns="http://www.w3.org/2000/svg" xmlns:xlink="http://www.w3.org/1999/xlink">
    <title>Group 3</title>
    <defs>
        <polygon id="path-1" points="0 0.0002 51.33 0.0002 51.33 70 0 70"></polygon>
    </defs>
    <g id="Page-1" stroke="none" stroke-width="1" fill="none" fill-rule="evenodd">
        <g id="New-to-Investing-2-Copy" transform="translate(-759.000000, -478.000000)">
            <g id="Group-3" transform="translate(759.000000, 478.000000)">
                <mask id="mask-2" fill="white">
                    <use xlink:href="#path-1"></use>
                </mask>
                <g id="Clip-2"></g>
                <path d="M6.9994,46.6682 L6.5114,46.6682 C4.8484,46.6682 3.5004,45.3192 3.4994,43.6562 L3.4994,40.8352 L6.9994,40.8352 L6.9994,46.6682 Z M9.4284,18.7232 L11.1314,20.4132 L10.8554,20.9132 C10.6364,21.3142 10.6694,21.8062 10.9424,22.1722 L11.9584,23.5362 L9.4644,25.2002 C9.2824,25.3212 9.1074,25.4502 8.9364,25.5832 L5.7524,22.3992 L9.4284,18.7232 Z M3.5744,16.4112 C4.7714,15.2112 6.5694,14.8422 8.1434,15.4732 L9.0254,15.8252 L3.0644,21.7862 C1.9324,20.1032 2.1454,17.8532 3.5744,16.4112 L3.5744,16.4112 Z M22.1624,4.6742 L22.2274,4.5882 C23.2944,3.1712 24.9644,2.3372 26.7374,2.3332 L26.8314,2.3332 C27.7884,2.3342 28.6934,2.7642 29.2994,3.5042 L27.3144,3.5042 C24.6594,3.5042 22.4394,5.5222 22.1874,8.1662 L20.9984,8.1662 C21.0014,6.9072 21.4094,5.6832 22.1624,4.6742 L22.1624,4.6742 Z M48.9974,67.6672 L40.8314,67.6672 L40.8314,32.9442 L43.0414,28.5242 C43.1224,28.3622 43.1644,28.1842 43.1644,28.0022 L43.1644,15.5592 L46.4314,11.2032 C46.5824,11.0012 46.6644,10.7562 46.6644,10.5032 L46.6644,2.3372 L48.9974,2.3372 L48.9974,67.6672 Z M35.8224,63.3422 L33.8314,61.3512 L33.8314,21.4852 L36.9894,18.3282 C37.2084,18.1092 37.3314,17.8132 37.3314,17.5032 L37.3314,2.3372 L44.3304,2.3372 L44.3304,10.1142 L41.0644,14.4702 C40.9124,14.6722 40.8314,14.9172 40.8314,15.1702 L40.8314,27.7272 L38.6214,32.1472 C38.5404,32.3092 38.4974,32.4872 38.4974,32.6692 L38.4974,67.6672 L36.1644,67.6672 L36.1644,64.1672 C36.1644,63.8572 36.0414,63.5612 35.8224,63.3422 L35.8224,63.3422 Z M29.1654,35.5852 L29.1654,5.8372 L31.4984,5.8372 C32.1434,5.8372 32.6644,5.3142 32.6644,4.6702 C32.6644,4.4392 32.5964,4.2142 32.4684,4.0222 L31.4264,2.4612 C31.3974,2.4192 31.3674,2.3782 31.3384,2.3372 L34.9984,2.3372 L34.9984,17.0202 L31.8404,20.1782 C31.6214,20.3972 31.4984,20.6932 31.4984,21.0032 L31.4984,37.3352 L29.1654,35.5852 Z M18.6654,14.1742 L18.6654,12.1532 L20.3154,10.5032 L22.1654,10.5032 L22.1654,12.5612 L21.4274,14.0382 L18.6654,14.1742 Z M17.7644,26.9972 L15.7144,23.8372 L16.4144,23.3702 C16.6574,23.2092 16.8304,22.9632 16.9004,22.6802 L18.4234,16.5222 L20.8584,16.4022 L19.8924,25.2922 L17.7644,26.9972 Z M13.7724,25.1312 L15.9354,28.4642 L12.6644,31.0862 C12.0274,31.5972 11.3054,31.9902 10.5304,32.2482 C9.6014,32.5582 8.5964,32.0562 8.2864,31.1272 C8.1124,30.6072 8.1894,30.0372 8.4934,29.5812 L8.8444,29.0562 C9.3494,28.2972 9.9994,27.6472 10.7584,27.1422 L13.7724,25.1312 Z M16.3324,38.5022 L9.3324,38.5022 L9.3324,34.6192 C9.9804,34.7252 10.6454,34.6712 11.2684,34.4622 C12.3054,34.1172 13.2714,33.5902 14.1234,32.9062 L16.3324,31.1362 L16.3324,38.5022 Z M25.6654273,52.5602 C25.6654273,53.1442 25.5544,53.7222 25.3374,54.2642 L23.8654,57.9422 L20.7274,56.5482 L22.0914,52.9112 C22.3174,52.3082 22.0124,51.6352 21.4084,51.4092 C21.3744,51.3972 21.3404,51.3852 21.3064,51.3762 L11.6964,48.7552 C10.3024,48.3722 9.3354,47.1052 9.3324,45.6592 L9.3324,45.5012 L17.2244,45.5012 L23.1284,48.4532 C24.6864,49.2272 25.6714,50.8182 25.6654273,52.5602 L25.6654273,52.5602 Z M25.1824,66.5002 L24.2314,67.4502 L17.8004,64.6932 L19.9244,58.7442 L23.0574,60.1372 L22.2264,62.6312 C22.0864,63.0512 22.1944,63.5132 22.5074,63.8252 L25.1824,66.5002 Z M9.3324,43.1682 L16.3324,43.1682 L16.3324,40.8352 L9.3324,40.8352 L9.3324,43.1682 Z M13.9994,55.5182 L10.3904,59.1272 L7.6084,57.0412 L10.1574,54.4922 C10.4224,54.2282 10.5444,53.8522 10.4844,53.4822 L10.0204,50.5942 C10.3584,50.7682 10.7154,50.9052 11.0824,51.0062 L13.9994,51.8022 L13.9994,55.5182 Z M7.3414,62.1752 C7.1224,62.3942 6.9994,62.6902 6.9994,63.0002 L6.9994,66.8262 L5.1854,67.4312 L2.5844,63.0962 L6.0374,58.7792 L8.7234,60.7932 L7.3414,62.1752 Z M0.2554,62.2722 C-0.0496,62.6522 -0.0846,63.1822 0.1664,63.6012 L3.6664,69.4342 C3.9474,69.9022 4.5174,70.1122 5.0354,69.9392 L8.5354,68.7732 C9.0114,68.6142 9.3324,68.1692 9.3324,67.6672 L9.3324,63.4832 L15.9904,56.8252 C16.2094,56.6062 16.3324,56.3102 16.3324,56.0012 L16.3324,52.4382 L19.4574,53.2902 L15.2334,64.9412 C15.0264,65.5222 15.3064,66.1632 15.8724,66.4052 L24.0394,69.9052 C24.4784,70.0932 24.9864,69.9952 25.3234,69.6572 L27.6564,67.3242 C28.1124,66.8692 28.1124,66.1302 27.6564,65.6752 L24.6674,62.6862 L27.5044,55.1302 C28.8414,51.7872 27.3924,47.9772 24.1724,46.3662 L18.6654,43.6132 L18.6654,29.2652 L21.7284,26.8092 C21.9704,26.6152 22.1244,26.3332 22.1574,26.0242 L23.3024,15.5042 L24.3744,13.3572 C24.4564,13.1962 24.4984,13.0182 24.4984,12.8362 L24.4984,8.6532 C24.4974,7.2842 25.4824,6.1132 26.8314,5.8812 L26.8314,36.1682 C26.8314,36.5352 27.0044,36.8822 27.2984,37.1022 L31.4984,40.2522 L31.4984,61.8342 C31.4984,62.1432 31.6214,62.4392 31.8404,62.6582 L33.8314,64.6502 L33.8314,68.8332 C33.8314,69.4782 34.3534,70.0002 34.9984,70.0002 L50.1634,70.0002 C50.8084,70.0002 51.3304,69.4782 51.3304,68.8332 L51.3304,1.1702 C51.3304,0.5262 50.8084,0.0042 50.1634,0.0042 L26.7354,0.0002 C24.2284,0.0062 21.8684,1.1862 20.3594,3.1892 L20.2954,3.2742 C19.2394,4.6892 18.6684,6.4062 18.6654,8.1722 L18.6654,8.8542 L16.6744,10.8452 C16.4554,11.0642 16.3324,11.3602 16.3324,11.6702 L16.3324,15.2572 L14.7444,21.6802 L14.0094,22.1692 C13.9584,22.1692 13.9074,22.1722 13.8564,22.1792 L13.2624,21.3802 L13.5994,20.7682 C13.8514,20.3122 13.7694,19.7442 13.3984,19.3772 L11.0774,17.0732 L11.9264,16.2252 C12.3824,15.7692 12.3824,15.0302 11.9264,14.5742 C11.8144,14.4632 11.6824,14.3752 11.5344,14.3162 L9.0104,13.3072 C5.6414,11.9592 1.8174,13.5982 0.4704,16.9662 C-0.3816,19.0952 -0.0616,21.5142 1.3134,23.3482 L2.0024,24.2662 C2.2044,24.5362 2.5154,24.7052 2.8534,24.7302 C2.8804,24.7312 2.9074,24.7322 2.9364,24.7322 C3.2444,24.7322 3.5414,24.6092 3.7604,24.3912 L4.1024,24.0492 L7.2854,27.2322 C7.1524,27.4042 7.0234,27.5792 6.9024,27.7612 L6.5524,28.2872 C5.4814,29.8852 5.6684,32.0132 6.9994,33.4002 L6.9994,38.5022 L2.3334,38.5022 C1.6884,38.5022 1.1664,39.0232 1.1664,39.6682 L1.1664,43.6562 C1.1664,46.6082 3.5594,49.0012 6.5114,49.0012 L7.4004,49.0012 L8.0864,53.2642 L0.2554,62.2722 Z" id="Fill-1" fill="#787878" mask="url(#mask-2)"></path>
            </g>
        </g>
    </g>
</svg>