<?xml version="1.0" encoding="UTF-8"?>
<svg width="43px" height="55px" viewBox="0 0 43 55" version="1.1" xmlns="http://www.w3.org/2000/svg" xmlns:xlink="http://www.w3.org/1999/xlink">
    <title>Group 10</title>
    <defs>
        <polygon id="path-1" points="1.61764706e-05 0.0488691176 42.4176176 0.0488691176 42.4176176 54.8382353 1.61764706e-05 54.8382353"></polygon>
    </defs>
    <g id="Page-1" stroke="none" stroke-width="1" fill="none" fill-rule="evenodd">
        <g id="New-to-Investing-1" transform="translate(-992.000000, -521.000000)">
            <g id="Group-13" transform="translate(279.000000, 470.000000)">
                <g id="Group-10" transform="translate(713.000000, 51.000000)">
                    <g id="Group-3" transform="translate(0.000000, 0.112912)">
                        <mask id="mask-2" fill="white">
                            <use xlink:href="#path-1"></use>
                        </mask>
                        <g id="Clip-2"></g>
                        <path d="M40.6501926,41.6940603 C40.6501926,43.4898103 39.6817074,45.1582515 38.1237515,46.0489279 L36.2317515,47.1298397 L36.2317515,40.134325 C36.2317515,36.0305162 33.028325,32.5495015 28.9385897,32.2085015 L25.6272662,31.9326926 L25.6272662,29.0218985 C28.7697074,27.4091044 30.9294279,24.1429132 30.9294279,20.3739574 L30.9294279,12.4206338 L29.2522515,12.4206338 C28.3659426,12.4206338 27.5202368,11.9972956 26.9872221,11.2877956 C25.8595603,9.78370735 24.0621926,8.88591324 22.1826485,8.88591324 C20.8508397,8.88591324 19.5881044,9.33125147 18.5576632,10.1133838 L18.5576632,7.11847206 L16.7902221,7.11847206 L16.7902221,11.605825 C13.7972515,12.0362809 11.4882221,14.6122221 11.4882221,17.7227956 L11.4882221,20.3739574 C11.4882221,24.1421044 13.6477809,27.4091044 16.7902221,29.0218985 L16.7902221,31.9326926 L13.4790603,32.2085015 C9.389325,32.5495015 6.18589853,36.0305162 6.18589853,40.134325 L6.18589853,47.1298397 L4.29389853,46.0489279 C2.73594265,45.1582515 1.76745735,43.4898103 1.76745735,41.6940603 L1.76745735,41.6031485 C1.76745735,39.7464132 2.79870735,38.0779721 4.45906029,37.2482809 C6.06926618,36.4431779 7.06961912,34.8250456 7.06961912,33.0241191 C7.06961912,32.0883103 6.79478088,31.1833985 6.27697206,30.404825 L6.00828088,30.0008985 C5.54611912,29.3098397 5.30217794,28.5039279 5.30217794,27.6714868 C5.30217794,26.2046044 6.08414853,24.8242662 7.34267794,24.0686632 C8.80956029,23.1885015 9.72078088,21.5784574 9.72078088,19.8676338 L9.72078088,11.5369132 C9.72078088,7.45073676 12.8198691,4.07681029 16.7902221,3.63583971 L16.7902221,5.35103088 L18.5576632,5.35103088 L18.5576632,3.18872206 C20.0193691,2.29351618 21.6860309,1.81631029 23.4055897,1.81631029 C28.5283544,1.81631029 32.6968691,5.98385441 32.6968691,11.1074279 L32.6968691,19.8676338 C32.6968691,21.5784574 33.6079279,23.1885015 35.0748103,24.0686632 C36.3331779,24.8242662 37.1153103,26.2046044 37.1153103,27.6714868 C37.1153103,28.5039279 36.8715309,29.3098397 36.4092074,30.0028397 L36.1406779,30.4056338 C35.6228691,31.1833985 35.3480309,32.0892809 35.3480309,33.0241191 C35.3480309,34.8242368 36.3482221,36.4431779 37.9584279,37.2482809 C39.6189426,38.0787809 40.6501926,39.7472221 40.6501926,41.6031485 L40.6501926,41.6940603 Z M34.4643103,53.0708103 L30.5185456,53.0708103 L30.2906191,52.7288397 C29.5518397,51.6205897 29.1619868,50.3321338 29.1619868,49.0022662 C29.1619868,48.2795015 29.2778103,47.5654721 29.5067074,46.8778103 L29.5845162,46.6437368 C31.4561338,45.4152956 32.6968691,43.3016779 32.6968691,40.9006044 C32.6968691,40.0743103 32.5493397,39.2630603 32.2594574,38.4890162 L30.7563397,34.4787074 C32.9390309,35.4471926 34.4643103,37.6405603 34.4643103,40.134325 L34.4643103,53.0708103 Z M10.1581926,38.4890162 C9.86831029,39.2630603 9.72078088,40.0743103 9.72078088,40.9006044 C9.72078088,43.3016779 10.9615162,45.4152956 12.8321632,46.6437368 L12.9099721,46.8778103 C13.1398397,47.5654721 13.2555015,48.2795015 13.2555015,49.0022662 C13.2555015,50.3321338 12.8658103,51.6205897 12.1280015,52.7280309 L11.8991044,53.0708103 L7.95333971,53.0708103 L7.95333971,40.134325 C7.95333971,37.6405603 9.47861912,35.4471926 11.6613103,34.4795162 L10.1581926,38.4890162 Z M21.2086632,30.0945603 C22.1287809,30.0945603 23.0158985,29.9577074 23.859825,29.7181338 L23.859825,32.7457221 C23.859825,34.2074279 22.6705309,35.3968838 21.2086632,35.3968838 C19.7471191,35.3968838 18.5576632,34.2074279 18.5576632,32.7457221 L18.5576632,29.7181338 C19.4017515,29.9577074 20.2888691,30.0945603 21.2086632,30.0945603 L21.2086632,30.0945603 Z M17.6739426,13.3043544 L18.1467809,13.3043544 L18.6556926,12.540825 C19.4439721,11.3584868 20.7625162,10.6531926 22.1826485,10.6531926 C23.5099279,10.6531926 24.7780015,11.286825 25.5743691,12.3481632 C26.4199132,13.475825 27.7560897,14.1589574 29.1629574,14.1872662 L29.1629574,20.3739574 C29.1629574,24.7589132 25.5955603,28.3272809 21.2096338,28.3272809 C16.8238691,28.3272809 13.25631,24.7589132 13.25631,20.3739574 L13.25631,17.7227956 C13.2555015,15.2864574 15.2376044,13.3043544 17.6739426,13.3043544 L17.6739426,13.3043544 Z M16.8998985,33.6975456 C17.3365015,35.6760897 19.1002221,37.164325 21.2086632,37.164325 C23.3174279,37.164325 25.0811485,35.6760897 25.5177515,33.6975456 L28.6734574,33.9608985 L30.6034721,39.1101926 C30.8197515,39.6846191 30.9294279,40.2871926 30.9294279,40.9006044 C30.9294279,43.7132074 28.6407809,46.0012074 25.828825,46.0012074 L23.859825,46.0012074 L23.859825,47.7686485 L25.828825,47.7686485 C26.414575,47.7686485 26.9802662,47.6874426 27.5236338,47.5484868 C27.4396779,48.0274721 27.3947074,48.513575 27.3947074,49.0022662 C27.3947074,50.4364721 27.7737221,51.8221485 28.4586338,53.0708103 L13.9580456,53.0708103 C14.6437662,51.8229574 15.0227809,50.4364721 15.0227809,49.0022662 C15.0227809,48.513575 14.9778103,48.0274721 14.8938544,47.5484868 C15.4373838,47.6874426 16.0029132,47.7686485 16.588825,47.7686485 L18.5576632,47.7686485 L18.5576632,46.0012074 L16.588825,46.0012074 C13.7768691,46.0012074 11.4882221,43.7132074 11.4882221,40.9006044 C11.4882221,40.2871926 11.597575,39.6846191 11.8132074,39.1092221 L13.7432221,33.9599279 L16.8998985,33.6975456 Z M38.7492956,35.6673544 C37.7410162,35.1634574 37.1153103,34.1508103 37.1153103,33.0241191 C37.1153103,32.4382074 37.2867809,31.8717074 37.6120897,31.3849574 L37.8806191,30.9828103 C38.5354426,29.9992809 38.8827515,28.8547956 38.8827515,27.6714868 C38.8827515,25.5869868 37.7719132,23.626075 35.9850603,22.5530897 C35.0465015,21.9903103 34.4643103,20.9616485 34.4643103,19.8676338 L34.4643103,11.1074279 C34.4643103,5.01003088 29.5041191,0.0488691176 23.4055897,0.0488691176 C21.2680309,0.0488691176 19.1956632,0.660339706 17.4026632,1.81986912 C12.1676338,1.96383971 7.95333971,6.26758971 7.95333971,11.5369132 L7.95333971,19.8676338 C7.95333971,20.9616485 7.370825,21.9903103 6.43242794,22.5540603 C4.645575,23.6259132 3.53489853,25.5869868 3.53489853,27.6714868 C3.53489853,28.8547956 3.88204559,29.9992809 4.53783971,30.9818397 L4.80653088,31.3857662 C5.13086912,31.8726779 5.30217794,32.4391779 5.30217794,33.0241191 C5.30217794,34.1508103 4.67647206,35.1634574 3.66819265,35.6673544 C1.40591324,36.7984132 1.61764706e-05,39.0739574 1.61764706e-05,41.6031485 L1.61764706e-05,41.6940603 C1.61764706e-05,44.1224721 1.30885441,46.3786044 3.41729559,47.5829426 L6.18589853,49.1650015 L6.18589853,54.8382515 L36.2317515,54.8382515 L36.2317515,49.1650015 L39.0003544,47.5829426 C41.1087956,46.3786044 42.4176338,44.1224721 42.4176338,41.6940603 L42.4176338,41.6031485 C42.4176338,39.0739574 41.011575,36.7984132 38.7492956,35.6673544 L38.7492956,35.6673544 Z" id="Fill-1" fill="#787878" mask="url(#mask-2)"></path>
                    </g>
                    <path d="M21.6090309,24.7883544 C21.3081485,24.8567809 20.9951338,24.8546779 20.694575,24.7847956 C20.1601044,24.6603985 19.6482809,24.5471632 19.1510162,24.3881485 C18.6516485,24.228325 18.4576926,23.7334868 18.6374132,23.2832956 C18.8041926,22.8657809 19.2540603,22.6622809 19.7260897,22.8356926 C20.6926338,23.1907662 21.6478544,23.1996632 22.616825,22.8458838 C23.1236338,22.660825 23.551825,22.8665897 23.725075,23.3331191 C23.8848985,23.7632515 23.7048544,24.2168397 23.2017662,24.3810309 C22.6803985,24.5513691 22.1413985,24.6673544 21.6090309,24.7883544" id="Fill-4" fill="#787878"></path>
                    <path d="M18.4998,18.3611191 C18.4879912,18.5435897 18.5027118,18.7326926 18.4593588,18.9073985 C18.3490353,19.3519279 18.0539765,19.6147956 17.5892265,19.5850309 C17.1578,19.5575309 16.8701824,19.3067956 16.8299029,18.8577368 C16.8004618,18.5304868 16.7996529,18.1983838 16.8164765,17.8698397 C16.8418735,17.3745162 17.1343441,17.0956338 17.6133294,17.0467809 C18.04605,17.0024574 18.4276529,17.3771044 18.4811971,17.8657956 C18.4991529,18.0288544 18.4839471,18.1954721 18.4839471,18.3604721 C18.4892853,18.3606338 18.4944618,18.3609574 18.4998,18.3611191" id="Fill-6" fill="#787878"></path>
                    <path d="M25.5375191,18.3507824 C25.5375191,18.5329294 25.5700338,18.7221941 25.5312103,18.8956059 C25.4318868,19.33965 25.1389309,19.6081794 24.6783868,19.5855324 C24.2265779,19.5635324 23.9282838,19.3060029 23.894475,18.8312235 C23.8711809,18.5047824 23.8692397,18.1742971 23.8910779,17.8478559 C23.9224603,17.3764735 24.2608721,17.0472824 24.6893868,17.0343412 C25.1038279,17.0218853 25.4855926,17.3567382 25.5425338,17.8043412 C25.5655044,17.9837382 25.5464162,18.1684735 25.5464162,18.3507824 L25.5375191,18.3507824 Z" id="Fill-8" fill="#787878"></path>
                </g>
            </g>
        </g>
    </g>
</svg>