<?xml version="1.0" encoding="UTF-8"?>
<svg width="71px" height="50px" viewBox="0 0 71 50" version="1.1" xmlns="http://www.w3.org/2000/svg" xmlns:xlink="http://www.w3.org/1999/xlink">
    <title>Group 19</title>
    <defs>
        <polygon id="path-1" points="0 4.17139337e-05 36.1587973 4.17139337e-05 36.1587973 47.450417 0 47.450417"></polygon>
        <polygon id="path-3" points="0.0625086783 0.0861331445 36.8300283 0.0861331445 36.8300283 49.854581 0.0625086783 49.854581"></polygon>
    </defs>
    <g id="Page-1" stroke="none" stroke-width="1" fill="none" fill-rule="evenodd">
        <g id="New-to-Investing-1" transform="translate(-526.000000, -524.000000)">
            <g id="Group-13" transform="translate(279.000000, 470.000000)">
                <g id="Group-19" transform="translate(247.000000, 54.000000)">
                    <g id="Group-3" transform="translate(0.000000, 2.463456)">
                        <mask id="mask-2" fill="white">
                            <use xlink:href="#path-1"></use>
                        </mask>
                        <g id="Clip-2"></g>
                        <path d="M21.5614164,30.9684844 C19.1667989,31.7755666 16.9265722,31.7563031 14.508017,30.9693343 C15.0170822,33.8980878 13.9039093,35.707153 11.0170822,36.2208924 C11.1214731,36.4206091 11.1466856,36.4881728 11.1876204,36.5444051 C12.9920113,39.0081445 15.2985269,40.9315156 17.7992351,42.6371813 C17.9380453,42.7319405 18.2874788,42.6614023 18.4564589,42.5466714 C20.6074504,41.0861898 22.5836544,39.4228754 24.2551841,37.4193343 C24.5462606,37.0706091 24.8073088,36.696813 25.1683569,36.2207507 C22.1517847,35.6847734 21.1815297,33.8278329 21.5614164,30.9684844 L21.5614164,30.9684844 Z M12.3665156,30.5223088 C12.428272,30.4649433 12.4900283,30.4077195 12.5517847,30.3503541 C12.3934278,30.1068697 12.2700567,29.8292493 12.0706232,29.6261331 C11.4292635,28.9731586 10.696119,28.4010623 10.1124079,27.7024788 C7.53365439,24.6160765 7.73110482,20.9332153 8.05022663,17.2793909 C8.20844193,15.4699008 9.54696884,14.1740085 10.5384703,12.7599858 C10.8696317,12.2874646 11.4638244,12.3105524 11.9286969,12.6961048 C12.393711,13.0816572 12.446119,13.595255 12.1435694,14.093272 C11.704051,14.8167847 11.1561756,15.4792493 10.7653824,16.2257082 C10.4456941,16.8361898 10.1286969,17.5227337 10.0920113,18.1910057 C10.0148159,19.5962465 10.02983,21.0211756 10.1723229,22.4211756 C10.5475354,26.1078612 13.6526346,29.0629603 17.2261473,29.3876062 C21.4716147,29.7733003 24.9319547,26.9864731 25.7098584,23.5636686 C26.0328045,22.1422805 25.8666572,20.6167847 26.0493768,19.1544618 C26.2044759,17.9136686 25.6777054,17.0802408 24.7071671,16.5122521 C22.9458357,15.4815156 21.1835127,14.4327904 19.3367705,13.5734419 C17.3601416,12.6537535 15.2876204,11.9393059 13.2529178,11.1453966 C12.7323796,10.9421388 12.4243059,10.593272 12.4642493,10.0296742 C12.5017847,9.49907932 12.831813,9.1444051 13.3464023,9.07103399 C13.6285552,9.03094901 13.9536261,9.12004249 14.2284136,9.22854108 C16.5656657,10.1510623 18.9233144,11.0292493 21.2194901,12.0451133 C23.1979603,12.9204674 25.1068839,13.9526204 26.7464023,15.4082861 C27.7529178,16.3019122 28.3254391,17.3646601 28.2244476,18.7578612 C28.1666572,19.554745 28.2066006,20.3588527 28.2037677,21.1597025 C28.1913031,24.6615439 26.823881,27.4914306 24.0398867,29.6383144 C23.8227479,29.8057365 23.7359207,30.1421388 23.5303966,30.5017705 L30.5367705,30.5017705 C30.5479603,30.286898 30.5636827,30.1258499 30.5638244,29.9646601 C30.5650992,25.7247167 30.5788385,21.4844901 30.5578754,17.2446884 C30.550085,15.6935552 30.611983,14.1194759 30.37983,12.5959632 C29.4049008,6.19822946 23.3173654,1.11437677 16.1289802,2.29029745 C9.71509915,3.33944759 5.53209632,8.47570822 5.52359773,14.9742918 C5.51708215,19.897238 5.51849858,24.8203258 5.51631099,29.7435552 C5.51631099,29.9946884 5.51631099,30.2458215 5.51631099,30.5223088 L12.3665156,30.5223088 Z M-5.66572238e-05,42.9356232 C0.155184136,42.3734419 0.27388102,41.7982295 0.471756374,41.2514873 C1.48011331,38.4659348 3.39371105,36.5772663 6.19045326,35.6053116 C7.92076487,35.0038952 9.66524079,34.4434136 11.4033428,33.8645184 C11.9189235,33.6927054 12.333796,33.4265581 12.4116997,32.7308074 L11.5677904,32.7308074 C9.35334278,32.7306657 7.13889518,32.7319405 4.92430595,32.7300992 C3.73308782,32.728966 3.39243626,32.4040368 3.39243626,31.2410057 C3.39201133,25.5635269 3.37274788,19.8857649 3.40575071,14.2084278 C3.44441926,7.56154391 8.67671388,1.41196884 15.2285552,0.25092068 C23.7078754,-1.2516289 31.2469688,4.13406516 32.6049008,12.6810907 C32.7152408,13.3754249 32.7391785,14.0894476 32.7404533,14.7944051 C32.7503683,20.1891643 32.7449858,25.5840652 32.743711,30.9788244 C32.7434278,32.4676346 32.4744476,32.7303824 30.9568839,32.7305241 C28.765949,32.7308074 26.5750142,32.7300992 24.384221,32.7325071 C24.1789802,32.7326487 23.973881,32.7529037 23.7451275,32.7652266 C23.7513598,33.4949717 24.2464023,33.7014873 24.7693484,33.8768414 C26.484221,34.4516289 28.2105666,34.9942635 29.9132578,35.6030453 C33.7706232,36.9823654 35.9942776,40.0485127 36.139745,44.1444051 C36.1649575,44.8502125 36.165949,45.5585694 36.1379037,46.2642351 C36.1090085,46.9857649 35.6826629,47.4333569 35.078272,47.4458215 C34.4472521,47.4585694 34.0078754,46.9891643 33.9700567,46.2356232 C33.9112748,45.0628187 34.0009348,43.8638102 33.7852125,42.7217422 C33.338187,40.3554533 31.8836544,38.7259915 29.6628329,37.8085694 C28.8853541,37.4871813 28.0730312,37.2497875 27.2522096,36.9657932 C25.171898,40.0808074 22.434221,42.4643768 19.3896034,44.5242918 C18.0830878,45.4082861 18.0643909,45.4105524 16.7682153,44.5455382 C13.7075921,42.502762 10.9806799,40.1063031 8.89654391,37.0257082 C6.46609065,37.607153 4.26467422,38.4982295 2.98917847,40.8378895 C2.42501416,41.8727337 2.16283286,42.9830737 2.12713881,44.1509207 C2.10844193,44.7628187 2.10192635,45.3764164 2.12303116,45.9881728 C2.14385269,46.5929887 2.06580737,47.1353399 1.41424929,47.3751416 C0.755325779,47.6174929 0.349093484,47.2385977 -5.66572238e-05,46.7524788 L-5.66572238e-05,42.9356232 Z" id="Fill-1" fill="#787878" mask="url(#mask-2)"></path>
                    </g>
                    <path d="M18.7446742,28.8898867 C18.3123796,28.9886119 17.8632295,28.988187 17.4312181,28.8888952 C16.7833428,28.739745 16.1504816,28.5989518 15.5363173,28.4002266 C14.8490652,28.1777054 14.5929745,27.591728 14.816204,27.0192068 C15.0523229,26.4135411 15.6330595,26.1663739 16.3186119,26.4435694 C17.4696034,26.9087252 18.7445326,26.844136 19.9099717,26.4167989 C20.5266856,26.1907365 21.1125212,26.4352125 21.3309348,26.9598584 C21.5690368,27.5319547 21.3299433,28.1775637 20.6822096,28.3898867 C20.0516147,28.5965439 19.4003399,28.74017 18.7446742,28.8898867" id="Fill-4" fill="#787878"></path>
                    <path d="M15.1578754,21.0553966 C15.1590085,22.1883994 14.8345042,22.7042635 14.1108499,22.7202691 C13.3666572,22.7368414 13.0138244,22.1920822 13.0155241,21.0296176 C13.0158074,20.9359915 13.0145326,20.8425071 13.015949,20.748881 C13.0291218,19.9514306 13.4325212,19.4470397 14.0704816,19.4300425 C14.7111331,19.4129037 15.1343626,19.9086544 15.1570255,20.7045467 C15.1602833,20.8214023 15.1574504,20.9383994 15.1578754,21.0553966" id="Fill-6" fill="#787878"></path>
                    <path d="M23.0888527,21.1064448 C23.0892776,21.2475212 23.0963598,21.3890227 23.0881445,21.5295326 C23.0453683,22.2565864 22.6525921,22.6982295 22.0429603,22.7105524 C21.4205807,22.723017 20.9704391,22.2334986 20.9419688,21.5010623 C20.9309207,21.2193343 20.931204,20.9364731 20.9418272,20.654745 C20.9693059,19.9245751 21.4215722,19.4242918 22.0361615,19.4327904 C22.6334703,19.4410057 23.0448017,19.9000708 23.0870113,20.6129603 C23.0966431,20.7768414 23.0884278,20.9418555 23.0888527,21.1064448" id="Fill-8" fill="#787878"></path>
                    <g id="Group-12" transform="translate(33.569405, 0.055524)">
                        <mask id="mask-4" fill="white">
                            <use xlink:href="#path-3"></use>
                        </mask>
                        <g id="Clip-11"></g>
                        <path d="M7.29862606,37.8848584 C11.7222805,41.9284844 19.133187,41.8604958 23.4265297,37.8774929 C20.8218555,36.9097875 21.0592493,34.6780595 21.1238385,32.4405241 C17.2639235,34.5182861 13.4858782,34.4910907 9.64296034,32.4566714 C9.72808782,34.7076629 9.88630312,36.9140368 7.29862606,37.8848584 M26.6829037,15.6511473 C26.7620822,15.6655949 26.8412606,15.6799008 26.9204391,15.6943484 C27.2224221,14.2328754 27.6103824,12.7828754 27.8092493,11.3073796 C28.2833286,7.78740793 26.5908357,4.90072238 23.3395609,3.4767847 C20.9541501,2.4320255 18.4350283,2.22069405 15.8786544,2.27947592 C14.0132153,2.32239377 12.1714306,2.5359915 10.4483428,3.33712465 C8.40754958,4.28613314 7.23276204,5.80001416 7.27553824,8.13259207 C7.28842776,8.83868272 6.8579745,9.28769122 6.23205382,9.28882436 C5.61024079,9.29009915 5.19154391,8.85228045 5.16038244,8.14378187 C5.14366856,7.7626204 5.15740793,7.38004249 5.15740793,6.87154391 C3.74168555,7.93230878 3.01477337,9.19930595 2.89706799,10.7852833 C2.68148725,13.6925071 3.87128895,16.098881 5.67610482,18.2546884 C6.0783711,18.7351416 6.30160057,19.2120538 6.27752125,19.8450567 C6.24069405,20.8095042 6.2540085,21.7762181 6.26364023,22.7417989 C6.3142068,27.7432153 10.1065581,31.6359915 15.1061331,31.8245184 C19.7895609,32.001289 23.9976346,28.4209773 24.389136,23.7521388 C24.5872946,21.388966 24.4901275,19.0001558 24.5085411,16.6228187 C24.5231303,14.7434986 23.7092493,13.5678612 21.9170397,12.960779 C21.2571246,12.7372663 20.5479178,12.556813 19.8575496,12.5432153 C16.7027337,12.4808924 13.5466431,12.4886827 10.391119,12.4621955 C9.65046742,12.4561048 9.203017,12.800864 8.98644476,13.4990227 C8.80570822,14.0817422 8.63389518,14.6718272 8.39069405,15.2293343 C8.14961756,15.7817422 7.66151558,15.9575212 7.09664306,15.7807507 C6.54848442,15.6093626 6.25910765,15.1597875 6.41194051,14.6294759 C6.6836119,13.686983 6.97525496,12.7284844 7.42794618,11.8655949 C7.95344193,10.8634703 8.92822946,10.3307507 10.0489093,10.3284844 C13.4853116,10.3216856 16.9273796,10.2777762 20.3566997,10.453272 C23.8324788,10.631034 25.7551416,12.3318839 26.6829037,15.6511473 M16.0289377,0.0861331445 C19.622847,0.171685552 22.6266714,0.501147309 25.3381445,2.08783286 C28.7904108,4.10822946 30.501034,7.75610482 29.9756799,11.7272096 C29.6027337,14.5463314 28.6683144,17.1648867 27.2776629,19.6158782 C26.789136,20.4769263 26.5864448,21.3174363 26.6319122,22.2851416 C26.7398442,24.5833003 26.1474929,26.7124788 24.9314873,28.6614873 C24.6334703,29.1391076 24.3261048,29.6368414 23.9201558,30.014745 C23.3676062,30.529051 23.1905524,31.0978895 23.2338952,31.8276346 C23.2857365,32.6963314 23.2653399,33.5709773 23.2405524,34.4419405 C23.2185977,35.2158782 23.562932,35.6582295 24.2959348,35.8964731 C26.3727054,36.5716856 28.4416856,37.271119 30.5081161,37.9774929 C34.4977762,39.3410907 36.8204391,42.5893909 36.8246884,46.790949 C36.8253966,47.4505807 36.8394193,48.110779 36.8191643,48.7699858 C36.7994759,49.4129037 36.3452266,49.8590793 35.7585411,49.854581 C35.1729887,49.8500142 34.7425354,49.4010057 34.7110907,48.7534136 C34.6517422,47.5325921 34.755,46.2779178 34.5058499,45.0974646 C33.9948017,42.6757932 32.4933853,40.9892493 30.1520255,40.1233853 C28.8969263,39.659221 27.6085411,39.2858499 26.3491926,38.8328754 C25.9514589,38.6899575 25.7167564,38.7875496 25.4259632,39.0579462 C22.536728,41.7444901 19.0993343,43.0985977 15.1653399,43.0495892 C11.4174646,43.002847 8.13672805,41.6650283 5.38318697,39.1083711 C5.02327195,38.7740935 4.73771955,38.6840085 4.27865439,38.8606374 C3.4244051,39.1891076 2.54876771,39.4636119 1.67610482,39.7419405 C0.91888102,39.9835836 0.307266289,39.7216856 0.112223796,39.1001558 C-0.0714872521,38.5150283 0.261798867,37.957238 0.982053824,37.7150283 C2.71888102,37.131034 4.46264873,36.5670113 6.20160057,35.9888244 C7.32015581,35.6168697 7.48290368,35.3835836 7.48814448,34.2017139 C7.48871105,34.0838669 7.48077904,33.9654533 7.48956091,33.8483144 C7.62567989,32.0357082 7.3744051,30.4538385 6.06123229,28.9412323 C4.49423513,27.1364164 4.00839943,24.7675779 4.10075071,22.3852833 C4.16576487,20.7053966 3.80712465,19.3197025 2.80089235,17.8978895 C1.03885269,15.4080878 0.205424929,12.5555382 0.941543909,9.47366856 C1.5671813,6.85525496 3.19607649,5.08273371 5.78842776,4.23854108 C5.99749292,4.17055241 6.24126062,4.0646034 6.36449008,3.89873938 C7.96378187,1.7471813 10.2499008,0.840949008 12.7667564,0.413045326 C14.0147734,0.200864023 15.2912606,0.156388102 16.0289377,0.0861331445" id="Fill-10" fill="#787878" mask="url(#mask-4)"></path>
                    </g>
                    <path d="M49.4940085,28.2335552 C49.1080312,28.3212323 48.706898,28.3186827 48.3213456,28.228881 C47.6360765,28.0693909 46.9797025,27.9243484 46.3421671,27.7202408 C45.7017989,27.5154249 45.4530737,26.880864 45.6835269,26.3036686 C45.8974079,25.7683994 46.4743201,25.5073513 47.0797025,25.7297309 C48.3189377,26.1849717 49.5437252,26.1964448 50.7863598,25.742762 C51.4362181,25.5055099 51.985085,25.7692493 52.2074646,26.3675496 C52.4124221,26.9191076 52.1814023,27.5006941 51.5362181,27.7113173 C50.8678045,27.9295892 50.176728,28.0784561 49.4940085,28.2335552" id="Fill-13" fill="#787878"></path>
                    <path d="M45.5070538,19.9920397 C45.4920397,20.2261756 45.5107365,20.4685269 45.4552125,20.6926062 C45.3138527,21.2625779 44.9355241,21.5996884 44.3396317,21.5615864 C43.7862323,21.5261756 43.4173938,21.2046459 43.3656941,20.6290085 C43.328017,20.2093201 43.3270255,19.7833994 43.3486969,19.3622946 C43.3811331,18.7268839 43.756204,18.3693768 44.3703683,18.3066289 C44.9254674,18.24983 45.4145609,18.7302833 45.4832578,19.3570538 C45.506204,19.5659773 45.4869405,19.7797167 45.4869405,19.9911898 L45.5070538,19.9920397 Z" id="Fill-15" fill="#787878"></path>
                    <path d="M54.5314731,19.9788244 C54.5314731,20.2122521 54.5731161,20.45517 54.5232578,20.6775496 C54.3959207,21.246813 54.0202833,21.5910057 53.4297734,21.5622521 C52.8504533,21.5339235 52.4678754,21.2036119 52.4245326,20.59483 C52.3947875,20.1762748 52.392238,19.7524788 52.4201416,19.3339235 C52.4603683,18.7293909 52.8945042,18.3074363 53.4439377,18.290864 C53.9752408,18.2747167 54.4647592,18.7041785 54.537847,19.2781161 C54.5671671,19.5081445 54.5426629,19.7451133 54.5426629,19.9788244 L54.5314731,19.9788244 Z" id="Fill-17" fill="#787878"></path>
                </g>
            </g>
        </g>
    </g>
</svg>