<?xml version="1.0" encoding="UTF-8"?>
<svg width="48px" height="56px" viewBox="0 0 48 56" version="1.1" xmlns="http://www.w3.org/2000/svg" xmlns:xlink="http://www.w3.org/1999/xlink">
    <title>Group 15</title>
    <g id="Page-1" stroke="none" stroke-width="1" fill="none" fill-rule="evenodd">
        <g id="New-to-Investing-1" transform="translate(-323.000000, -521.000000)" fill="#787878">
            <g id="Group-13" transform="translate(279.000000, 470.000000)">
                <g id="Group-10" transform="translate(44.000000, 51.000000)">
                    <g id="Group-15" transform="translate(0.000000, 0.057632)">
                        <path d="M24.0276789,30.4557316 C23.0226789,30.2073632 22.0757842,30.0237316 21.1633105,29.7317842 C20.4494684,29.5033105 20.1723632,28.7957842 20.4292579,28.1525211 C20.6676789,27.5558368 21.3107842,27.2649947 21.9854684,27.5127316 C23.3668895,28.0202053 24.7323632,28.0329947 26.1175737,27.5272579 C26.8419947,27.2626263 27.4538368,27.5567842 27.7017316,28.2237316 C27.9302053,28.8385737 27.6726789,29.4867316 26.9534684,29.7216789 C25.9955211,30.0346263 24.9955737,30.2193632 24.0276789,30.4557316" id="Fill-1"></path>
                        <path d="M20.2324895,22.2282474 C20.2157526,22.4892474 20.2365947,22.7594053 20.1747,23.0091947 C20.0171211,23.6445632 19.5953842,24.0203526 18.9311211,23.9778789 C18.3143842,23.9385632 17.9030684,23.5799842 17.8454368,22.9383 C17.8035947,22.4704579 17.8024895,21.9956684 17.8264895,21.5262474 C17.8626474,20.8179316 18.2807526,20.4194053 18.9653842,20.3494579 C19.5841737,20.2861421 20.1293842,20.8217211 20.2059632,21.5204053 C20.2315421,21.7533 20.2100684,21.9915632 20.2100684,22.2274579 C20.2174895,22.2277737 20.2250684,22.2279316 20.2324895,22.2282474" id="Fill-3"></path>
                        <path d="M30.2923421,22.2135158 C30.2923421,22.4737263 30.3387632,22.7445158 30.2833421,22.9924105 C30.1412368,23.6269895 29.7225,24.0106737 29.0642368,23.9786211 C28.4184474,23.9470421 27.9919737,23.5788316 27.9436579,22.9003579 C27.9105,22.4336211 27.9076579,21.9612 27.9387632,21.4946211 C27.9836053,20.8208842 28.4675526,20.3503579 29.0800263,20.3318842 C29.6722895,20.3138842 30.2181316,20.7926211 30.2994474,21.4324105 C30.3321316,21.6888316 30.3048158,21.9529895 30.3048158,22.2135158 L30.2923421,22.2135158 Z" id="Fill-5"></path>
                        <g id="Group-9">
                            <path d="M15.0612158,42.2358474 C17.9457947,41.1536368 17.7694263,38.6941105 17.6745316,36.1850053 C21.9585316,38.4528474 26.1699,38.4830053 30.4726895,36.1668474 C30.4006895,38.6611105 30.1360579,41.1489 33.0395842,42.2276368 C28.2536368,46.6677947 19.9924263,46.7434263 15.0612158,42.2358474 M13.9074789,25.3553211 C13.8967421,24.2789526 13.8819,23.2013211 13.9229526,22.1263737 C13.9497947,21.4207421 13.7009526,20.8891105 13.2525316,20.3535316 C11.2406368,17.9502158 9.91432105,15.2677421 10.1546368,12.0271105 C10.2858474,10.2591632 11.0961632,8.84679474 12.6743211,7.66432105 C12.6743211,8.23116316 12.6590053,8.65747895 12.6776368,9.08237368 C12.7125316,9.87216316 13.1791105,10.3602158 13.8722684,10.3589526 C14.5700053,10.3575316 15.0498474,9.85700526 15.0354789,9.0699 C14.9877947,6.46984737 16.2973737,4.78211053 18.5723211,3.72421579 C20.4931105,2.83116316 22.5462158,2.59321579 24.6256895,2.54537368 C27.4753737,2.47984737 30.2836895,2.71542632 32.9426368,3.8799 C36.5669526,5.46721579 38.4537947,8.68511053 37.9251632,12.6091105 C37.7036368,14.2539 37.2711632,15.8702684 36.9343737,17.4994263 C36.8461105,17.4833211 36.7578474,17.4672158 36.6695842,17.4511105 C35.6355316,13.7510053 33.4921105,11.8550053 29.6175316,11.6568474 C25.7947421,11.4613737 21.9577421,11.5101632 18.1272158,11.5179 C16.8777947,11.5204263 15.7911632,12.1141105 15.2053737,13.2312158 C14.7007421,14.1932684 14.3756368,15.2617421 14.0727947,16.3122158 C13.9024263,16.9035316 14.2251632,17.4045316 14.8360579,17.5957421 C15.4657421,17.7926368 16.0100053,17.5968474 16.2785842,16.9809 C16.5496895,16.3595842 16.7412158,15.7017947 16.9428474,15.0522158 C17.1841105,14.2737947 17.6829,13.8894789 18.5085316,13.8964263 C22.0261105,13.9259526 25.5443211,13.9172684 29.0611105,13.9865842 C29.8306895,14.0019 30.6212684,14.2029 31.3569,14.4520579 C33.3547421,15.1289526 34.2620053,16.4393211 34.2457421,18.5344263 C34.2252158,21.1845316 34.3335316,23.8472684 34.1126368,26.4817421 C33.6762158,31.6861105 28.9854789,35.6773737 23.7646895,35.4803211 C18.1913211,35.2700053 13.9638474,30.9307421 13.9074789,25.3553211 M47.9750053,52.1639526 C47.9702684,47.4803211 45.3811105,43.8591632 40.9336895,42.3391105 C38.6301632,41.5518474 36.3237947,40.7720053 34.0087421,40.0194789 C33.1916368,39.7539 32.8077947,39.2606368 32.8322684,38.3980579 C32.8599,37.4270053 32.8826368,36.4521632 32.8250053,35.4837947 C32.7765316,34.6703211 32.9739,34.0362158 33.5898474,33.4627421 C34.0423737,33.0416368 34.3850053,32.4866368 34.7172158,31.9542158 C36.0727421,29.7815842 36.7332158,27.4081105 36.6127421,24.8462684 C36.5620579,23.7675316 36.7880053,22.8305842 37.3325842,21.8707421 C38.8829526,19.1386895 39.9244263,16.2196895 40.3403211,13.0769526 C40.9257947,8.65037368 39.0189,4.58395263 35.1705316,2.33174211 C32.1479526,0.562847368 28.7994789,0.195742105 24.7932158,0.100373684 C23.9709,0.178689474 22.5479526,0.228110526 21.1569,0.464636842 C18.3511105,0.941794737 15.8026895,1.95184737 14.0199,4.35042632 C13.8825316,4.53516316 13.6109526,4.65326842 13.3777421,4.72921579 C10.4879526,5.67026842 8.67216316,7.64600526 7.9749,10.5648474 C7.15416316,14.0004789 8.08337368,17.1803211 10.0475842,19.9557947 C11.1691105,21.5405842 11.5689,23.0854263 11.4964263,24.9580579 C11.3934789,27.6136895 11.9350579,30.2543211 13.6818474,32.2662158 C15.1456895,33.9523737 15.4257947,35.7155842 15.2740579,37.7363211 C15.2642684,37.8669 15.2731105,37.9989 15.2724789,38.1301105 C15.2666368,39.4475842 15.0852158,39.7076368 13.8383211,40.1222684 C12.6129,40.5297947 11.3859,40.9325842 10.1595316,41.3371105 C10.1521105,41.3214789 10.1454789,41.3058474 10.1380579,41.2903737 C9.10700526,41.6374263 8.07674211,41.9873211 7.04726842,42.3391105 C2.59984737,43.8591632 0.0108473684,47.4803211 0.00595263158,52.1639526 C0.00516315789,52.8992684 -0.0104684211,53.6350579 0.0121105263,54.3699 C0.0340578947,55.0867421 0.540584211,55.5839526 1.19442632,55.5789382 C1.84716316,55.5738474 2.32700526,55.0733211 2.36205789,54.3515842 C2.42821579,52.9905316 2.31311053,51.5920579 2.59084737,50.2761632 C3.16053158,47.5766368 4.83421579,45.6964263 7.44421579,44.7313737 C7.76379474,44.6132684 8.08542632,44.5006895 8.40800526,44.3907947 C8.53179474,44.3756368 8.66032105,44.3486368 8.79358421,44.3061632 C9.76637368,43.9957421 10.7424789,43.6897421 11.6947421,43.3235842 C12.2064789,43.1268474 12.5247947,43.2271105 12.9260053,43.5997421 C15.9954789,46.4497421 19.6526368,47.9412158 23.8306895,47.9931632 C28.2159,48.0479526 32.0476895,46.5384789 35.2684263,43.5436895 C35.5925842,43.2422684 35.8542158,43.1334789 36.2975842,43.2926368 C37.7015842,43.7975842 39.1376368,44.2139526 40.5367421,44.7313737 C43.1467421,45.6964263 44.8204263,47.5766368 45.3901105,50.2761632 C45.6678474,51.5920579 45.5527421,52.9905316 45.6189,54.3515842 C45.6539526,55.0733211 46.1337947,55.5738474 46.7865316,55.5789382 C47.4405316,55.5839526 47.9470579,55.0867421 47.9690053,54.3699 C47.9914263,53.6350579 47.9757947,52.8992684 47.9750053,52.1639526" id="Fill-7"></path>
                        </g>
                    </g>
                </g>
            </g>
        </g>
    </g>
</svg>