<?xml version="1.0" encoding="UTF-8"?>
<svg width="50px" height="50px" viewBox="0 0 50 50" version="1.1" xmlns="http://www.w3.org/2000/svg" xmlns:xlink="http://www.w3.org/1999/xlink">
    <title>Group 14</title>
    <defs>
        <polygon id="path-1" points="1.953125e-05 0.087109375 50 0.087109375 50 36.71875 1.953125e-05 36.71875"></polygon>
    </defs>
    <g id="Page-1" stroke="none" stroke-width="1" fill="none" fill-rule="evenodd">
        <g id="Personality-Finder-4" transform="translate(-989.000000, -452.000000)">
            <g id="Group-14" transform="translate(989.000000, 452.000000)">
                <g id="Group-3" transform="translate(0.000000, 13.281250)">
                    <mask id="mask-2" fill="white">
                        <use xlink:href="#path-1"></use>
                    </mask>
                    <g id="Clip-2"></g>
                    <path d="M36.2663281,30.9702148 L36.2663281,11.5817383 L41.3454297,11.5817383 L41.3454297,30.9702148 L36.2663281,30.9702148 L36.2663281,30.9702148 Z M23.9601758,30.9701172 L29.0392773,30.9701172 L29.0392773,18.6634766 L23.9601758,18.6634766 L23.9601758,30.9701172 Z M11.9794141,30.9701172 L17.058418,30.9701172 L17.058418,7.02011719 L11.9794141,7.02011719 L11.9794141,30.9701172 Z M49.023457,30.9701172 L43.2985547,30.9701172 L43.2985547,10.6051758 C43.2985547,10.0658203 42.8613477,9.62861328 42.3219922,9.62861328 L35.2897656,9.62861328 C34.7504102,9.62861328 34.3132031,10.0658203 34.3132031,10.6051758 L34.3132031,30.9702148 L30.9923047,30.9702148 L30.9923047,17.6870117 C30.9923047,17.1476563 30.5550977,16.7104492 30.0157422,16.7104492 L22.9835156,16.7104492 C22.4441602,16.7104492 22.0069531,17.1476563 22.0069531,17.6870117 L22.0069531,30.9702148 L19.011543,30.9702148 L19.011543,6.04355469 C19.011543,5.50419922 18.5743359,5.06699219 18.0349805,5.06699219 L11.0028516,5.06699219 C10.4634961,5.06699219 10.0262891,5.50419922 10.0262891,6.04355469 L10.0262891,30.9701172 L6.11925781,30.9701172 L6.11925781,1.06367187 C6.11925781,0.524316406 5.68205078,0.087109375 5.14269531,0.087109375 C4.60333984,0.087109375 4.16613281,0.524316406 4.16613281,1.06367187 L4.16613281,30.9702148 L0.976582031,30.9702148 C0.437226563,30.9702148 1.953125e-05,31.4075195 1.953125e-05,31.9467773 C1.953125e-05,32.4861328 0.437226563,32.9233398 0.976582031,32.9233398 L4.16613281,32.9233398 L4.16613281,35.7421875 C4.16613281,36.281543 4.60333984,36.71875 5.14269531,36.71875 C5.68205078,36.71875 6.11925781,36.281543 6.11925781,35.7421875 L6.11925781,32.9232422 L49.023457,32.9232422 C49.5628125,32.9232422 50.0000195,32.4860352 50.0000195,31.9466797 C50.0000195,31.4073242 49.5628125,30.9701172 49.023457,30.9701172 L49.023457,30.9701172 Z" id="Fill-1" fill="#787878" mask="url(#mask-2)"></path>
                </g>
                <path d="M5.14269531,6.7834082 C5.68205078,6.7834082 6.11925781,6.34620117 6.11925781,5.8068457 L6.11925781,0.976572266 C6.11925781,0.437216797 5.68205078,9.765625e-06 5.14269531,9.765625e-06 C4.60333984,9.765625e-06 4.16613281,0.437216797 4.16613281,0.976572266 L4.16613281,5.8068457 C4.16613281,6.34620117 4.60333984,6.7834082 5.14269531,6.7834082" id="Fill-4" fill="#787878"></path>
                <path d="M46.6250488,1.953125e-05 L24.7309082,1.953125e-05 C22.869873,1.953125e-05 21.3559082,1.51398437 21.3559082,3.37501953 L21.3559082,16.9644727 C21.3559082,18.8254102 22.869873,20.3394727 24.7309082,20.3394727 L25.5230957,20.3394727 L25.5230957,24.5117383 C25.5230957,25.3502148 26.5638184,25.8004102 27.1737793,25.2180859 L32.2854004,20.3394727 L38.0753418,20.3394727 C38.6147949,20.3394727 39.0519043,19.9022656 39.0519043,19.3629102 C39.0519043,18.8235547 38.6147949,18.3863477 38.0753418,18.3863477 L31.8941895,18.3863477 C31.6432129,18.3863477 31.4016113,18.483125 31.2200684,18.6564648 L27.4762207,22.229707 L27.4762207,19.3629102 C27.4762207,18.8235547 27.038916,18.3863477 26.4996582,18.3863477 L24.7309082,18.3863477 C23.9468262,18.3863477 23.3090332,17.7485547 23.3090332,16.9644727 L23.3090332,3.37501953 C23.3090332,2.59103516 23.9468262,1.95314453 24.7309082,1.95314453 L46.6250488,1.95314453 C47.4089355,1.95314453 48.0469238,2.59103516 48.0469238,3.37501953 L48.0469238,16.9644727 C48.0469238,17.7347852 47.4202637,18.3722852 46.6500488,18.3853711 C46.1106934,18.3945508 45.6811035,18.8391797 45.6902832,19.3784375 C45.6993652,19.9176953 46.1412598,20.3475781 46.6833496,20.3382031 C48.5120605,20.3069531 49.9999512,18.7934766 49.9999512,16.9644727 L49.9999512,3.37501953 C49.9999512,1.51398437 48.486084,1.953125e-05 46.6250488,1.953125e-05" id="Fill-6" fill="#787878"></path>
                <path d="M4.24123047,10.3691309 C4.44298828,10.8618066 5.02599609,11.1005762 5.51662109,10.8974512 C6.00763672,10.6942285 6.24816406,10.1126855 6.04396484,9.62206055 C5.83947266,9.1306543 5.26173828,8.89051758 4.76955078,9.09374023 C4.27863281,9.29647461 4.03664063,9.87850586 4.24123047,10.3691309" id="Fill-8" fill="#787878"></path>
                <path d="M32.1744043,9.01944336 C31.9498926,9.01944336 31.7322168,9.09678711 31.5580957,9.23848633 L26.7543848,13.1468848 C26.3360254,13.4872168 26.2727441,14.1023535 26.6131738,14.5207129 C26.8062402,14.7580176 27.0874902,14.8809668 27.3712793,14.8809668 C27.5878809,14.8809668 27.8060449,14.8092871 27.987002,14.6618262 L32.5215723,10.9724707 L38.9571191,10.9724707 C39.1905176,10.9724707 39.4162012,10.888877 39.593252,10.7368262 L43.0836816,7.74014648 L43.0836816,8.54375977 C43.0836816,9.08311523 43.5208887,9.52032227 44.0602441,9.52032227 C44.5995996,9.52032227 45.0368066,9.08311523 45.0368066,8.54375977 L45.0368066,5.39307617 C45.0368066,4.8537207 44.5995996,4.41651367 44.0602441,4.41651367 L40.7318262,4.41651367 C40.1924707,4.41651367 39.7552637,4.8537207 39.7552637,5.39307617 C39.7552637,5.93243164 40.1924707,6.36963867 40.7318262,6.36963867 L41.6818262,6.36963867 L38.5954004,9.01944336 L32.1744043,9.01944336 Z" id="Fill-10" fill="#787878"></path>
                <path d="M43.2978613,18.9511523 C42.9623145,18.1458789 41.7730566,18.1710742 41.4769629,18.9955859 C41.3366309,19.3864063 41.467002,19.8399219 41.7954199,20.0945117 C42.1134863,20.3410938 42.5578223,20.3672656 42.9020605,20.1594531 C43.3088965,19.9139453 43.4807715,19.3900195 43.2978613,18.9511523" id="Fill-12" fill="#787878"></path>
            </g>
        </g>
    </g>
</svg>