<?xml version="1.0" encoding="UTF-8"?>
<svg width="55px" height="55px" viewBox="0 0 55 55" version="1.1" xmlns="http://www.w3.org/2000/svg" xmlns:xlink="http://www.w3.org/1999/xlink">
    <title>Group 22</title>
    <defs>
        <polygon id="path-1" points="3.08123249e-05 0.0479131653 54.8032633 0.0479131653 54.8032633 54.845923 3.08123249e-05 54.845923"></polygon>
    </defs>
    <g id="Page-1" stroke="none" stroke-width="1" fill="none" fill-rule="evenodd">
        <g id="New-to-Investing-1" transform="translate(-757.000000, -521.000000)">
            <g id="Group-13" transform="translate(279.000000, 470.000000)">
                <g id="Group-22" transform="translate(478.000000, 51.000000)">
                    <g id="Group-3" transform="translate(0.000000, 0.106148)">
                        <mask id="mask-2" fill="white">
                            <use xlink:href="#path-1"></use>
                        </mask>
                        <g id="Clip-2"></g>
                        <path d="M48.612944,53.0782199 L38.8888824,53.0782199 C37.9141345,53.0782199 37.1211793,52.2854188 37.1211793,51.3105168 C37.1211793,50.3356148 37.9141345,49.5429678 38.8888824,49.5429678 L40.3198067,49.5429678 L40.7370056,48.7076457 C41.0241765,48.1322255 41.6012913,47.7752647 42.2438824,47.7752647 C42.6946667,47.7752647 43.1171036,47.9502787 43.4361653,48.2693403 L44.7097927,49.5429678 L51.2626499,49.5429678 L51.2626499,47.7752647 L49.4949468,47.7752647 L49.4949468,44.2398585 L53.0337423,44.2398585 L53.0322017,48.6608109 C53.0312773,51.0966793 51.0488123,53.0782199 48.612944,53.0782199 L48.612944,53.0782199 Z M10.6060952,53.0782199 L10.6060952,49.0248585 L11.3617675,48.2693403 C11.6799048,47.9512031 12.1032661,47.7752647 12.5540504,47.7752647 C13.1966415,47.7752647 13.7737563,48.1322255 14.0610812,48.705951 L14.4781261,49.5429678 L15.9090504,49.5429678 C16.8839524,49.5429678 17.6767535,50.3356148 17.6767535,51.3105168 C17.6767535,52.2854188 16.8839524,53.0782199 15.9090504,53.0782199 L10.6060952,53.0782199 Z M1.76773389,48.6589622 L1.76773389,39.1083739 C1.76773389,37.4882619 2.32543697,35.8981919 3.3382381,34.6325756 C4.35381232,33.3615672 5.78920448,32.4680098 7.37835014,32.113514 L9.4287563,31.6574916 L12.0183782,37.7004048 L16.9520476,33.7539622 C16.8512913,34.2887101 16.792902,34.838402 16.792902,35.4014972 L16.792902,35.831021 C16.792902,36.5320014 16.5878459,37.2098725 16.1989944,37.7922255 L15.7243305,38.5046064 C15.2664594,39.1904888 15.0251989,39.9886821 15.0251989,40.8141443 C15.0251989,41.45843 15.1772577,42.1019454 15.4644286,42.6762871 L16.095619,43.9375896 C16.3139244,44.3732759 16.1362913,44.9063291 15.6386723,45.1537521 C15.0473838,45.4489342 14.5488403,45.8855448 14.1538263,46.4044244 C13.6694566,46.1516092 13.1259272,46.0067913 12.5540504,46.0067913 C11.6313754,46.0067913 10.7652409,46.3656008 10.1120196,47.0186681 L9.35634734,47.7752647 L7.07068908,47.7752647 L7.07068908,37.1692003 L5.30298599,37.1692003 L5.30298599,47.7752647 L3.53528291,47.7752647 L3.53528291,49.5429678 L8.83839216,49.5429678 L8.83839216,53.0782199 L6.18683754,53.0782199 C3.75004482,53.0782199 1.76773389,51.095909 1.76773389,48.6589622 L1.76773389,48.6589622 Z M12.2217395,31.0380098 L15.247972,32.8542423 L12.7281401,34.8702927 L11.1841345,31.2686401 L12.2217395,31.0380098 Z M16.792902,28.3308389 C17.8640924,28.3308389 18.8919916,28.1495084 19.8571877,27.8287521 L20.0092465,28.5879678 C19.1916415,29.2641443 18.5031401,30.0877577 17.9710112,31.0132059 L16.792902,31.7194244 L13.3627199,29.6608529 L13.7295406,27.8287521 C14.6938123,28.1495084 15.7217115,28.3308389 16.792902,28.3308389 L16.792902,28.3308389 Z M11.0559552,24.1043123 L12.4311092,21.3538501 C12.7326078,20.7500826 13.3388403,20.3761751 14.0123978,20.3761751 L19.5726359,20.3761751 C20.2469636,20.3761751 20.8524258,20.7500826 21.1537703,21.3529258 L22.5290784,24.103388 C21.0812073,25.6165812 19.0475938,26.5631359 16.792902,26.5631359 C14.5382101,26.5631359 12.5045966,25.6165812 11.0559552,24.1043123 L11.0559552,24.1043123 Z M8.83839216,14.5517213 C8.83839216,13.0023235 9.66570308,11.5475196 10.9958711,10.7547185 L11.2415994,10.6080518 C11.9502829,11.6986541 13.178,12.4216653 14.5717955,12.4216653 L22.0960112,12.4216653 C23.557902,12.4216653 24.7474118,13.6113291 24.7474118,15.0732199 L24.7474118,18.6086261 C24.7474118,20.0296905 24.3682661,21.3617073 23.7125798,22.5168613 L22.7349048,20.5627437 C22.1331401,19.3572115 20.9212913,18.6086261 19.5734062,18.6086261 L14.0133221,18.6086261 C12.665437,18.6086261 11.4535882,19.3572115 10.8508992,20.5627437 L9.87337815,22.5168613 C9.21753782,21.3617073 8.83839216,20.0296905 8.83839216,18.6086261 L8.83839216,14.5517213 Z M7.09456863,14.1893683 L7.07068908,14.1893683 C6.61728571,14.1893683 6.18591317,14.2830378 5.78735574,14.4395644 C5.46921849,13.1553067 5.30298599,11.838388 5.30298599,10.5108389 C5.30298599,5.71597899 9.20336415,1.81560084 13.9982241,1.81560084 L19.5875798,1.81560084 C24.3824398,1.81560084 28.2828179,5.71597899 28.2828179,10.5108389 C28.2828179,11.8391583 28.1165854,13.1553067 27.7984482,14.4395644 C27.3998908,14.2830378 26.9685182,14.1893683 26.5151148,14.1893683 L26.4259132,14.1893683 C26.0148768,12.1750126 24.230381,10.6539622 22.0960112,10.6539622 L14.5717955,10.6539622 C13.3601008,10.6539622 12.3736443,9.66765966 12.3736443,8.45581092 C12.3736443,7.50833193 12.9783361,6.66962045 13.8752829,6.37089496 L14.4198908,6.18971849 L13.8621877,4.51306583 L13.3168095,4.6942423 C11.6950028,5.23438235 10.6060952,6.74665126 10.6060952,8.45581092 C10.6060952,8.61064286 10.6148768,8.76347199 10.6316695,8.91460644 L10.0916835,9.23628711 C8.3327619,10.2837521 7.21658543,12.1591443 7.09456863,14.1893683 L7.09456863,14.1893683 Z M7.07068908,19.4924776 C6.09578711,19.4924776 5.30298599,18.6996765 5.30298599,17.7246204 C5.30298599,16.7498725 6.09578711,15.9570714 7.07068908,15.9570714 L7.07068908,18.6086261 C7.07068908,18.9073515 7.08933053,19.2006849 7.11582913,19.4924776 L7.07068908,19.4924776 Z M38.0051849,1.81560084 C44.340507,1.81560084 49.4949468,6.97019468 49.4949468,13.3055168 L49.4949468,21.5632199 C49.4949468,24.296119 48.5014034,26.890979 46.7073557,28.933528 L43.1366695,28.4245084 L42.6026919,26.2881359 C45.6511092,24.6442983 47.7272437,21.4227157 47.7272437,17.7246204 L47.7272437,14.8592283 C47.7272437,12.5312031 45.9073137,10.5938782 43.5837563,10.4489062 L38.9303249,10.1581919 C35.9333641,9.97085294 33.5859272,7.47043277 33.5859272,4.46715546 L31.81807,4.46807983 C31.81807,5.63371008 32.0886022,6.7412591 32.5703529,7.72941036 C31.5627899,8.15970448 30.6957311,8.81292577 30.005381,9.61281373 C29.8993866,8.37107703 29.5723137,7.19466246 29.0685322,6.11376611 C31.2418796,3.42153922 34.5360252,1.81560084 38.0051849,1.81560084 L38.0051849,1.81560084 Z M38.0051849,25.6792843 C33.6185882,25.6792843 30.050521,22.1102927 30.050521,17.7246204 L30.050521,14.2291162 C30.050521,11.9876737 31.4512493,9.99997059 33.5497227,9.24167927 C34.8231961,10.7707409 36.6978179,11.7889342 38.8207871,11.9214272 L43.4743725,12.2122955 C44.868014,12.2998025 45.9595406,13.4628137 45.9595406,14.8592283 L45.9595406,17.7246204 C45.9595406,22.1102927 42.3914734,25.6792843 38.0051849,25.6792843 L38.0051849,25.6792843 Z M27.718028,26.5631359 C26.942944,25.0120434 26.5151148,23.2999566 26.5151148,21.5632199 L26.5151148,21.2600266 C27.3388824,21.2600266 28.0874678,20.9657689 28.6893866,20.491105 C29.4327339,22.9896765 31.1517535,25.0712031 33.4064454,26.2873655 L33.1032521,27.4999846 C31.9163613,26.906077 30.5826499,26.5631359 29.1666695,26.5631359 L27.718028,26.5631359 Z M41.4723417,29.0493824 L41.3919216,29.1695504 C40.6353249,30.3043683 39.3687843,30.9822395 38.0051849,30.9822395 C37.5428459,30.9822395 37.0937563,30.88857 36.6589944,30.7357409 C36.1259412,29.8836261 35.4568515,29.1271835 34.6746807,28.5013852 L35.0538263,26.9855728 C35.985437,27.2833739 36.9763613,27.4469874 38.0051849,27.4469874 C39.0338543,27.4469874 40.0246246,27.2833739 40.9562353,26.9855728 L41.4723417,29.0493824 Z M26.5151148,18.6086261 L26.5151148,15.9570714 C27.4900168,15.9570714 28.2828179,16.7498725 28.2828179,17.7246204 C28.2828179,18.6996765 27.4900168,19.4924776 26.5151148,19.4924776 L26.4699748,19.4924776 C26.4966275,19.2006849 26.5151148,18.9073515 26.5151148,18.6086261 L26.5151148,18.6086261 Z M24.9586303,23.8656709 C25.1257871,24.7900406 25.3935462,25.6951527 25.7568235,26.5631359 L25.6312633,26.5631359 C24.1790784,26.5631359 22.8117815,26.921021 21.6028599,27.5442003 L21.5144286,27.1005028 C22.9108431,26.320951 24.0934202,25.2055448 24.9586303,23.8656709 L24.9586303,23.8656709 Z M36.6332661,48.6104328 C35.8449328,47.9086821 34.9461373,47.3315672 33.9835602,46.9020434 C33.6460112,46.3176877 33.1500868,45.8450266 32.5500168,45.5328978 C33.7369076,44.2672815 34.4696246,42.5721415 34.4696246,40.7046064 L34.4696246,37.7754328 C34.4696246,35.9715252 33.1174258,34.4601807 31.3239944,34.2603627 L29.350465,34.0412871 C27.5501008,33.8414692 26.0449188,32.5254748 25.6047647,30.7674776 L23.8909832,31.1970014 C24.0210112,31.7177297 24.218056,32.2099566 24.4708711,32.6669034 L24.1747647,32.7517913 C21.9094426,33.3986961 20.3283081,35.4951667 20.3283081,37.8506148 L20.3283081,40.7046064 C20.3283081,42.5721415 21.0610252,44.2672815 22.247916,45.5328978 C21.6478459,45.8450266 21.1519216,46.3176877 20.8143725,46.9020434 C19.8517955,47.3315672 18.9522297,47.9086821 18.1646667,48.6104328 C17.550423,48.0969454 16.7708711,47.7752647 15.9090504,47.7752647 L15.567958,47.7752647 C15.5334482,47.7142563 15.4920056,47.658486 15.4547227,47.6000966 C15.7022997,47.2326597 16.0478599,46.9257689 16.4906331,46.7048445 C17.1242885,46.388402 17.5963333,45.8431779 17.8208011,45.1723936 C18.0444986,44.4996064 17.9931961,43.781063 17.6767535,43.1474076 L17.0457171,41.8862591 C16.880409,41.5556429 16.792902,41.1845084 16.792902,40.8141443 C16.792902,40.3394804 16.9317115,39.8789902 17.1950028,39.4849006 L17.6696667,38.7725196 C18.2521737,37.8992983 18.560605,36.8818754 18.560605,35.831021 L18.560605,35.4014972 C18.560605,31.5029678 21.7327339,28.3308389 25.6312633,28.3308389 L29.1666695,28.3308389 C33.0651989,28.3308389 36.2373277,31.5029678 36.2373277,35.4014972 L36.2373277,35.831021 C36.2373277,36.881105 36.5459132,37.8992983 37.1282661,38.7725196 L37.60293,39.4849006 C37.8662213,39.8789902 38.0051849,40.3394804 38.0051849,40.8141443 C38.0051849,41.1845084 37.9175238,41.5556429 37.7523697,41.8862591 L37.1211793,43.1474076 C36.8048908,43.781063 36.7534342,44.4996064 36.9771317,45.1723936 C37.2017535,45.8441022 37.6736443,46.388402 38.3683081,46.7358109 C38.7660952,46.9347045 39.0991765,47.2351246 39.3432101,47.6000966 C39.3051569,47.6594104 39.2635602,47.7142563 39.2292045,47.7752647 L38.8888824,47.7752647 C38.0272157,47.7752647 37.2476639,48.0969454 36.6332661,48.6104328 L36.6332661,48.6104328 Z M30.9414594,52.1945224 C32.7222577,52.1908249 34.1833782,50.8598866 34.4210952,49.1425616 C34.8392185,49.4138641 35.2297647,49.7206008 35.5939664,50.0590742 C35.4445266,50.4496204 35.3536303,50.8686681 35.3536303,51.3105168 C35.3536303,51.9575756 35.5408151,52.5557969 35.8449328,53.0782199 L30.5313473,53.0782199 C30.7018936,52.8033739 30.8468655,52.5100406 30.9414594,52.1945224 L30.9414594,52.1945224 Z M25.4722717,51.1814132 L25.4642605,50.7281639 C26.0210392,51.0940602 26.6839664,51.3105168 27.3989664,51.3105168 C28.1139664,51.3105168 28.7768936,51.0940602 29.3336723,50.7281639 L29.3258151,51.1814132 C29.3064034,52.2271835 28.442888,53.0782199 27.3989664,53.0782199 C26.3551989,53.0782199 25.4916835,52.2271835 25.4722717,51.1814132 L25.4722717,51.1814132 Z M23.8637143,46.8914132 L23.8637143,47.7752647 C23.8637143,48.7182759 24.2400868,49.5711611 24.8438543,50.2057409 L24.3453109,50.3480938 C24.1570476,50.4020154 24.0042185,50.4266653 23.8637143,50.4266653 C22.8888123,50.4266653 22.0960112,49.6340182 22.0960112,48.6589622 C22.0960112,47.6842143 22.8888123,46.8914132 23.8637143,46.8914132 L23.8637143,46.8914132 Z M27.3989664,46.0074076 C24.4744146,46.0074076 22.0960112,43.6291583 22.0960112,40.7046064 L22.0960112,37.8506148 C22.0960112,36.280881 23.1494846,34.8827717 24.6591345,34.4513992 L25.6418936,34.1711611 C26.5886022,35.0594804 27.8135462,35.6489202 29.1551148,35.7983599 L31.1287983,36.0175896 C32.0258992,36.1174216 32.7020756,36.8730938 32.7020756,37.7754328 L32.7020756,40.7046064 C32.7020756,43.6291583 30.3236723,46.0074076 27.3989664,46.0074076 L27.3989664,46.0074076 Z M30.9343725,47.7752647 L30.9343725,46.8914132 C31.9092745,46.8914132 32.7020756,47.6842143 32.7020756,48.6589622 C32.7020756,49.6340182 31.9092745,50.4266653 30.9343725,50.4266653 C30.7938683,50.4266653 30.6408852,50.4020154 30.4526218,50.3480938 L29.9542325,50.2057409 C30.5578459,49.5711611 30.9343725,48.7182759 30.9343725,47.7752647 L30.9343725,47.7752647 Z M25.6312633,47.5427857 C26.197902,47.6894524 26.7873417,47.7752647 27.3989664,47.7752647 C28.010591,47.7752647 28.6001849,47.6894524 29.1666695,47.5427857 L29.1666695,47.7752647 C29.1666695,48.7500126 28.3738683,49.5429678 27.3989664,49.5429678 C26.4240644,49.5429678 25.6312633,48.7500126 25.6312633,47.7752647 L25.6312633,47.5427857 Z M19.2048908,50.0590742 C19.5681681,49.7206008 19.9597927,49.4129398 20.3777619,49.1425616 C20.615479,50.8598866 22.0764454,52.1917493 23.8573978,52.1945224 C23.9519916,52.5100406 24.0960392,52.8033739 24.2675098,53.0782199 L18.9539244,53.0782199 C19.2571176,52.5557969 19.4444566,51.9575756 19.4444566,51.3105168 C19.4444566,50.8686681 19.3534062,50.4488501 19.2048908,50.0590742 L19.2048908,50.0590742 Z M53.0355916,38.0353347 L53.0337423,42.4721555 L49.4949468,42.4721555 L49.4949468,37.1692003 L47.7272437,37.1692003 L47.7272437,47.7752647 L45.4417395,47.7752647 L44.6860672,47.0195924 C44.0328459,46.3665252 43.1665574,46.0074076 42.2438824,46.0074076 C41.6710812,46.0074076 41.1267815,46.1525336 40.6424118,46.4053487 C40.2410812,45.8829258 39.7294426,45.4392283 39.0974818,45.1237101 C38.6616415,44.9063291 38.4841625,44.3732759 38.7024678,43.9375896 L39.3335042,42.6762871 C39.6206751,42.1019454 39.7727339,41.45843 39.7727339,40.8141443 C39.7727339,39.9886821 39.5314734,39.1904888 39.0736022,38.5046064 L38.5989384,37.7922255 C38.2102409,37.2098725 38.0051849,36.5320014 38.0051849,35.831021 L38.0051849,35.4014972 C38.0051849,34.4698866 37.8582101,33.5727857 37.5896807,32.7296064 C37.7275658,32.7393123 37.8652969,32.7499426 38.0051849,32.7499426 C39.952986,32.7499426 41.7622857,31.7849006 42.8493445,30.1681779 L46.6082941,30.7056989 C47.72293,30.8639202 48.7666975,31.2641723 49.7724118,31.9351106 C51.8158852,33.2979398 53.0365154,35.5782059 53.0355916,38.0353347 L53.0355916,38.0353347 Z M50.6926218,30.4237661 C50.0394006,29.9880798 49.342888,29.6513011 48.6181821,29.3958669 C50.3284202,27.150881 51.2626499,24.4206008 51.2626499,21.5632199 L51.2626499,13.3055168 C51.2626499,5.99529272 45.3152549,0.0478977591 38.0051849,0.0478977591 C34.2283641,0.0478977591 30.6285602,1.69358403 28.1272157,4.48564286 C26.230563,1.80589496 23.1132801,0.0478977591 19.5875798,0.0478977591 L13.9982241,0.0478977591 C8.22938655,0.0478977591 3.53528291,4.7420014 3.53528291,10.5108389 C3.53528291,12.233402 3.79256583,13.9365532 4.27431653,15.5867073 C3.81721569,16.1824636 3.53528291,16.9177997 3.53528291,17.7246204 C3.53528291,19.6744244 5.12088515,21.2600266 7.07068908,21.2600266 L7.44721569,21.2600266 C8.15867227,23.7630658 9.84333613,25.8569174 12.0715294,27.1005028 L11.6198207,29.3604328 L6.99473669,30.3874076 C5.01396639,30.8294104 3.22423249,31.9448165 1.95769188,33.5277997 C0.695619048,35.1063151 3.08123249e-05,37.0878557 3.08123249e-05,39.1083739 L3.08123249e-05,48.6589622 C3.08123249e-05,52.0697325 2.77622129,54.845923 6.18683754,54.845923 L48.612944,54.845923 C52.0227899,54.845923 54.7988263,52.0706569 54.7997507,48.6608109 L54.8032945,38.0362591 C54.8042185,34.985993 53.2901008,32.156035 50.6926218,30.4237661 L50.6926218,30.4237661 Z" id="Fill-1" fill="#787878" mask="url(#mask-2)"></path>
                    </g>
                    <path d="M38.0073571,22.5743263 C37.7146401,22.640881 37.4102143,22.6388782 37.1179594,22.5707829 C36.5981555,22.4498445 36.1000742,22.3398445 35.6164748,22.1850126 C35.1307185,22.0295644 34.9421471,21.5481218 35.1168529,21.1104328 C35.2792339,20.7043263 35.7167689,20.5065112 36.1758725,20.6750546 C37.1159566,21.0203067 38.0451022,21.0290882 38.9876513,20.6849146 C39.4804944,20.5049706 39.896923,20.7050966 40.0654664,21.1588081 C40.2210686,21.5772395 40.0457465,22.0183179 39.5566008,22.1782339 C39.04943,22.3436961 38.5251583,22.4566232 38.0073571,22.5743263" id="Fill-4" fill="#787878"></path>
                    <path d="M34.9830042,16.3227983 C34.9716036,16.5002773 34.9859314,16.6842269 34.9437185,16.8541569 C34.8364916,17.2866078 34.5496289,17.5423501 34.097458,17.5133866 C33.6777941,17.4865798 33.3980182,17.2427003 33.3587325,16.8059356 C33.3302311,16.4876443 33.3296148,16.164577 33.3457913,15.8450532 C33.3704412,15.3631485 33.654993,15.092 34.1208754,15.044395 C34.5419258,15.0012577 34.9129062,15.3657675 34.9651331,15.8412017 C34.982388,15.999577 34.9677521,16.1618039 34.9677521,16.3221821 C34.9729902,16.3224902 34.9780742,16.3226443 34.9830042,16.3227983" id="Fill-6" fill="#787878"></path>
                    <path d="M41.8285168,16.3127997 C41.8285168,16.4898165 41.8599454,16.6740742 41.8223543,16.8427717 C41.7256036,17.2746064 41.4405896,17.5357409 40.9927325,17.5138641 C40.5533487,17.4922955 40.2630966,17.2417913 40.2302815,16.7800686 C40.2076345,16.4625476 40.2057857,16.1411751 40.2268922,15.8235 C40.2575504,15.3651667 40.5867801,15.0450266 41.0035168,15.0323936 C41.406542,15.0202227 41.7779846,15.346063 41.8332927,15.7812871 C41.8554776,15.9558389 41.8369902,16.1354748 41.8369902,16.3127997 L41.8285168,16.3127997 Z" id="Fill-8" fill="#787878"></path>
                    <path d="M27.7486555,43.9256345 C27.5207983,43.9773992 27.2840056,43.9758585 27.0566106,43.9228613 C26.6521989,43.8288838 26.2647339,43.7430714 25.8885154,43.6227493 C25.5106022,43.5018109 25.3637815,43.1272871 25.4998179,42.7866569 C25.6261485,42.4708305 25.9666246,42.316923 26.3237395,42.4480294 C27.0552241,42.7165588 27.7779272,42.7233375 28.5114146,42.4557325 C28.8948739,42.3156905 29.2187115,42.4714468 29.3501261,42.824556 C29.4710644,43.1499342 29.3345658,43.4930294 28.9538796,43.6175112 C28.5594818,43.7463067 28.1515266,43.8341218 27.7486555,43.9256345" id="Fill-10" fill="#787878"></path>
                    <path d="M25.3956723,39.0618627 C25.3867367,39.199902 25.3978291,39.3430252 25.365014,39.4753641 C25.2816667,39.8116807 25.0584314,40.0105742 24.7067087,39.9880812 C24.380098,39.9672829 24.162409,39.777479 24.1319048,39.437619 C24.1097199,39.190042 24.1091036,38.9387675 24.1218908,38.690112 C24.1409944,38.3152801 24.362381,38.1042157 24.724888,38.0670868 C25.052423,38.0336555 25.3411345,38.3171289 25.3816527,38.6870308 C25.3952101,38.8104342 25.3838095,38.9366106 25.3838095,39.0614006 C25.3878151,39.0615546 25.3916667,39.0617087 25.3956723,39.0618627" id="Fill-12" fill="#787878"></path>
                    <path d="M30.7216289,39.0540364 C30.7216289,39.1919216 30.7461246,39.3351989 30.7168529,39.4663053 C30.6415168,39.8023137 30.4198221,40.005521 30.0713347,39.9884202 C29.729472,39.9717815 29.5036176,39.7768936 29.4781975,39.4176218 C29.4604804,39.170507 29.4590938,38.920465 29.4755784,38.6733501 C29.4993039,38.3166975 29.7555084,38.0677339 30.0796541,38.0578739 C30.3933235,38.0483221 30.6821891,38.3019076 30.7253263,38.640535 C30.7427353,38.7762633 30.7282535,38.9159972 30.7282535,39.0540364 L30.7216289,39.0540364 Z" id="Fill-14" fill="#787878"></path>
                    <path d="M17.1036597,23.5784384 C16.8109426,23.644993 16.5066709,23.6429902 16.2142619,23.574895 C15.694458,23.4539566 15.1965308,23.3439566 14.7127773,23.1891246 C14.2271751,23.0336765 14.0384496,22.5522339 14.2133095,22.1145448 C14.3755364,21.7084384 14.8130714,21.5106232 15.2723291,21.6791667 C16.2122591,22.0244188 17.1414048,22.0332003 18.0839538,21.6890266 C18.576951,21.5090826 18.9932255,21.7092087 19.161923,22.1629202 C19.3173711,22.5813515 19.1422031,23.02243 18.6529034,23.1823459 C18.1457325,23.3479622 17.6214608,23.4607353 17.1036597,23.5784384" id="Fill-16" fill="#787878"></path>
                    <path d="M14.0793683,16.3227983 C14.0679678,16.5002773 14.0821415,16.6842269 14.0400826,16.8541569 C13.9328557,17.2866078 13.6458389,17.5423501 13.1938221,17.5133866 C12.7741583,17.4865798 12.4942283,17.2427003 12.4550966,16.8059356 C12.4265952,16.4876443 12.4258249,16.164577 12.4421555,15.8450532 C12.4668053,15.3631485 12.7513571,15.092 13.2172395,15.044395 C13.6382899,15.0012577 14.0091162,15.3657675 14.0613431,15.8412017 C14.0787521,15.999577 14.0641162,16.1618039 14.0641162,16.3221821 C14.0692003,16.3224902 14.0742843,16.3226443 14.0793683,16.3227983" id="Fill-18" fill="#787878"></path>
                    <path d="M20.9248039,16.3127997 C20.9248039,16.4898165 20.9563866,16.6740742 20.9186415,16.8427717 C20.8220448,17.2746064 20.5370308,17.5357409 20.0890196,17.5138641 C19.6496359,17.4922955 19.3593838,17.2417913 19.3265686,16.7800686 C19.3039216,16.4625476 19.3020728,16.1411751 19.3231793,15.8235 C19.3538375,15.3651667 19.6830672,15.0450266 20.0998039,15.0323936 C20.5028291,15.0202227 20.8742717,15.346063 20.9295798,15.7812871 C20.9517647,15.9558389 20.9332773,16.1354748 20.9332773,16.3127997 L20.9248039,16.3127997 Z" id="Fill-20" fill="#787878"></path>
                </g>
            </g>
        </g>
    </g>
</svg>