<?xml version="1.0" encoding="UTF-8"?>
<svg width="29px" height="32px" viewBox="0 0 29 32" version="1.1" xmlns="http://www.w3.org/2000/svg" xmlns:xlink="http://www.w3.org/1999/xlink">
    <title>ic_48/PenPaper</title>
    <g id="light-version" stroke="none" stroke-width="1" fill="none" fill-rule="evenodd">
        <g id="Screen-size_-1366" transform="translate(-78.000000, -515.000000)" fill="#9B1E26">
            <g id="Group-5" transform="translate(60.000000, 147.000000)">
                <g id="ic_48/PenPaper" transform="translate(8.000000, 360.000000)">
                    <path d="M27.9752858,38.75 C27.9752858,39.4404297 27.4106017,40 26.7138623,40 L15.0456943,40 C12.2634177,40 10,37.7570801 10,35 L10,17.0534668 C10,15.7556152 10.5077722,14.5332031 11.4296955,13.6115722 L15.5951034,9.44726562 C16.5150556,8.52758787 17.792247,8 19.0992493,8 L30.5543057,8 C33.336336,8 35.6,10.2429199 35.6,13 L35.6,24.6875 C35.6,25.3779297 35.0350695,25.9375 34.3385764,25.9375 C33.641837,25.9375 33.0771529,25.3779297 33.0771529,24.6875 L33.0771529,13 C33.0771529,11.621582 31.9453208,10.5 30.5543057,10.5 L19.0992493,10.5 C18.4606536,10.5 17.8363476,10.7578125 17.3869654,11.2072754 L13.2215575,15.371582 C13.017808,15.5751953 12.8559418,15.809082 12.7391616,16.0625 L16.2440467,16.0625 C17.2871848,16.0625 18.136182,15.2214356 18.136182,14.1875 C18.136182,13.4970703 18.7008662,12.9375 19.3976056,12.9375 C20.094345,12.9375 20.6590291,13.4970703 20.6590291,14.1875 C20.6590291,16.5998535 18.6784463,18.5625 16.2440467,18.5625 L12.5228471,18.5625 L12.5228471,35 C12.5228471,36.378418 13.6544328,37.5 15.0456943,37.5 L26.7138623,37.5 C27.4106017,37.5 27.9752858,38.0595703 27.9752858,38.75 Z M37.6884887,38.8977634 C36.947708,39.6324242 35.9743508,40 35.0012411,40 C34.0281314,40 33.0547742,39.6324242 32.3139935,38.8977634 L25.3866794,32.014919 C25.2322882,31.8615579 25.120701,31.6713902 25.062557,31.4625738 L23.6460674,26.3918436 C23.522604,25.9501638 23.6515107,25.4770756 23.9823136,25.1571031 C24.312869,24.8371306 24.7931147,24.7210669 25.2350099,24.854307 L30.2215478,26.3565093 C30.4212171,26.4166268 30.6028247,26.524593 30.7500406,26.6710834 L37.6897258,33.5686506 C39.1702975,35.0372361 39.1702975,37.4281964 37.6884887,38.8977634 L37.6884887,38.8977634 Z M27.5164674,30.5589279 L32.198383,35.2 L34,33.4174148 L29.2919632,28.7487744 L26.8,28 L27.5164674,30.5589279 Z M36.0303658,35.4440124 L35.7870279,35.2 L34,36.9865457 L34.2443251,37.2312982 C34.7361835,37.7230239 35.5377671,37.7230239 36.0303658,37.230558 C36.5232114,36.7378455 36.5232114,35.9364782 36.0303658,35.4440124 Z" id="Shape"></path>
                </g>
            </g>
        </g>
    </g>
</svg>