<?xml version="1.0" encoding="UTF-8"?>
<svg width="27px" height="22px" viewBox="0 0 27 22" version="1.1" xmlns="http://www.w3.org/2000/svg" xmlns:xlink="http://www.w3.org/1999/xlink">
    <title>Icons/24/Add Copy 49</title>
    <g id="light-version" stroke="none" stroke-width="1" fill="none" fill-rule="evenodd">
        <g id="Screen-size_-1366" transform="translate(-79.000000, -392.000000)" fill="#9B1E26">
            <g id="Group-5" transform="translate(60.000000, 147.000000)">
                <g id="Icons/24/Add-Copy-49" transform="translate(19.000000, 245.000000)">
                    <path d="M24.3,0 L2.7,0 C1.2015,0 0.0135,1.22375 0.0135,2.75 L0,19.25 C0,20.77625 1.2015,22 2.7,22 L24.3,22 C25.7985,22 27,20.77625 27,19.25 L27,2.75 C27,1.22375 25.7985,0 24.3,0 Z M25,20 L2,20 L2,11 L25,11 L25,20 Z M25,7 L2,7 L2,2 L25,2 L25,7 Z" id="Shape"></path>
                </g>
            </g>
        </g>
    </g>
</svg>