<?xml version="1.0" encoding="UTF-8"?>
<svg width="24px" height="28px" viewBox="0 0 24 28" version="1.1" xmlns="http://www.w3.org/2000/svg" xmlns:xlink="http://www.w3.org/1999/xlink">
    <title>ic_24/Gift</title>
    <g id="light-version" stroke="none" stroke-width="1" fill="none" fill-rule="evenodd">
        <g id="Screen-size_-1366" transform="translate(-80.000000, -277.000000)" fill="#9B1E26">
            <g id="Group-5" transform="translate(60.000000, 147.000000)">
                <g id="ic_24/Gift" transform="translate(16.000000, 128.000000)">
                    <path d="M26.4100465,11.9269545 L23.7114326,10.9755498 C24.6871448,10.1946135 25.1037556,8.95591755 24.8050627,7.77883607 C24.2180545,5.46618347 21.3069949,4.58826819 19.4678423,6.16310945 L17.6046007,7.7585236 L17.2360066,5.36581904 C16.8715529,3.01014567 14.055989,1.87681413 12.0752597,3.28045775 C11.0848682,3.98227956 10.5580287,5.1921214 10.7916598,6.42055696 L8.24736611,5.52357921 C6.99559812,5.08217366 5.60623244,5.70967267 5.15053082,6.92232701 L4.04878141,9.8544578 C3.89666579,10.2593009 4.11217636,10.7070085 4.53018514,10.8543 C4.69972228,10.9140395 16.9372062,15.2284077 17.1169059,15.2917409 C16.6075954,15.2917409 5.45400928,15.2917409 4.96330332,15.2917409 C4.51851703,15.2917409 4.15793472,15.6410112 4.15793472,16.0718438 L4.15793472,26.9930766 C4.15793472,28.2834912 5.24177868,29.3333333 6.57398674,29.3333333 L13.016828,29.3333333 L16.2382486,29.3333333 L22.6810899,29.3333333 C24.0132979,29.3333333 25.0971419,28.2834912 25.0971419,26.9930766 L25.0971419,18.105226 L25.7201761,18.3249132 C26.1361953,18.4716838 26.5995861,18.2651737 26.7524007,17.8586639 L27.8542039,14.9265331 C28.3097442,13.7138788 27.6619758,12.368308 26.4100465,11.9269545 Z M12.2114056,27.7731795 L6.57393297,27.7731795 C6.1298457,27.7731795 5.76856438,27.4232322 5.76856438,26.9930766 L5.76856438,16.8519468 L12.2114056,16.8519468 L12.2114056,27.7731795 Z M15.4328262,27.7731795 L13.8221428,27.7731795 L13.8221428,16.8519468 L15.4328262,16.8519468 L15.4328262,27.7731795 Z M20.5345874,7.33206594 C21.4688429,6.53201512 22.9437568,6.9808165 23.2408904,8.15138757 C23.5577576,9.39945852 22.3123345,10.4816443 21.065836,10.042895 C20.0055971,9.66909351 19.5087613,9.49393753 18.4470707,9.11961521 L20.5345874,7.33206594 Z M13.0262378,4.5397266 C14.0328141,3.82649855 15.4586359,4.40524764 15.6431211,5.59717284 L16.0560755,8.2765957 C15.7588344,8.1718042 13.7298733,7.45644075 13.4375253,7.35342008 C12.1909192,6.91368119 11.9554599,5.29837123 13.0262378,4.5397266 Z M13.4056396,12.3230477 L5.83782027,9.65497895 L6.66415921,7.45591991 C6.81605975,7.0517018 7.27918164,6.84263963 7.69643764,6.98967065 C8.54331676,7.28821184 14.2462276,9.29878159 14.507389,9.39086478 L13.4056396,12.3230477 Z M16.4327888,13.3903376 L14.9192142,12.8566926 L16.0210174,9.92456185 L17.534592,10.4582068 L16.4327888,13.3903376 Z M23.4864047,26.9930766 C23.4864047,27.4232322 23.1250696,27.7731795 22.6809823,27.7731795 L17.0435634,27.7731795 L17.0435634,16.8519468 L21.5422928,16.8519468 L23.4864047,17.5373624 L23.4864047,26.9930766 L23.4864047,26.9930766 Z M26.340468,14.3928361 L25.5141828,16.5919472 L17.9463635,13.9238785 L19.0481666,10.9917477 L25.8591718,13.3929418 C26.2764815,13.540077 26.4923685,13.98867 26.340468,14.3928361 Z" id="Shape"></path>
                </g>
            </g>
        </g>
    </g>
</svg>