<svg width="126" height="41" viewBox="0 0 126 41" fill="none" xmlns="http://www.w3.org/2000/svg">
<path d="M12.5886 34.918H8.38101V36.2064H9.63919V39.356H11.3304V36.2064H12.5886V34.918Z" fill="#9D9D9D"/>
<path d="M13.7304 34.918L12.0289 39.356H13.7637L14.6298 36.7635L15.4959 39.356H17.2307L15.5293 34.918H13.7304Z" fill="#9D9D9D"/>
<path d="M21.0196 34.918H16.812V36.2064H18.0702V39.356H19.7589V36.2064H21.0196V34.918Z" fill="#9D9D9D"/>
<path d="M22.1592 34.918L20.4577 39.356H22.195L23.0586 36.7635L23.9247 39.356H25.6621L23.9631 34.918H22.1592Z" fill="#9D9D9D"/>
<path d="M30.2339 35.5003C30.5927 35.5003 30.8873 35.5784 31.0949 35.6747L31.2615 35.0266C31.1 34.9407 30.7259 34.834 30.2006 34.834C28.8579 34.834 27.8482 35.7138 27.8482 37.1845C27.8482 38.5406 28.6964 39.4256 30.0904 39.4256C30.6234 39.4256 31.0411 39.3215 31.2281 39.2278L31.0975 38.5849C30.8848 38.676 30.544 38.7437 30.2262 38.7437C29.255 38.7437 28.6939 38.1215 28.6939 37.1428C28.6964 36.0678 29.3447 35.5003 30.2339 35.5003Z" fill="#9D9D9D"/>
<path d="M34.0628 34.9004H33.0404L31.6336 39.3567H32.4587L32.8354 38.0942H34.2294L34.6266 39.3567H35.4876L34.0628 34.9004ZM32.9661 37.4799L33.3095 36.3841C33.3863 36.1186 33.4504 35.8062 33.517 35.5485H33.5298L33.5324 35.5589C33.599 35.8166 33.6682 36.116 33.7502 36.3841L34.0961 37.4799H32.9661Z" fill="#9D9D9D"/>
<path d="M38.6205 35.23C38.3771 35.0269 38.0363 34.9046 37.5725 34.8734C37.493 34.8682 37.411 34.8682 37.3265 34.8682C36.7935 34.8682 36.3963 34.9072 36.1016 34.9567V39.3583H36.8934V37.6742C37.0061 37.6976 37.1343 37.7054 37.288 37.7054C37.3828 37.7054 37.4777 37.7028 37.5699 37.6898C38.0183 37.6455 38.4027 37.492 38.6718 37.2213C38.9178 36.9818 39.0433 36.6382 39.0433 36.2165C39.0459 35.7974 38.8768 35.4512 38.6205 35.23ZM37.5725 37.0469C37.4853 37.0625 37.3905 37.0729 37.2906 37.0729C37.124 37.0729 37.0036 37.0651 36.896 37.0312V35.5371C36.9831 35.5137 37.1368 35.4955 37.3572 35.4955C37.4341 35.4955 37.5058 35.5007 37.5725 35.5111C38.0004 35.571 38.2515 35.8287 38.2515 36.253C38.2515 36.6798 38.0004 36.961 37.5725 37.0469Z" fill="#9D9D9D"/>
<path d="M40.5444 34.9004H39.7424V39.3593H40.5444V34.9004Z" fill="#9D9D9D"/>
<path d="M44.369 34.8989H41.0532V35.5809H42.3062V39.3578H43.1057V35.5809H44.369V34.8989Z" fill="#9D9D9D"/>
<path d="M46.5117 34.9004H45.4868L44.0825 39.3567H44.9076L45.2843 38.0942H46.6809L47.078 39.3567H47.9339L46.5117 34.9004ZM45.4176 37.4799L45.7533 36.3841C45.8327 36.1186 45.8967 35.8062 45.9634 35.5485H45.9788L45.9813 35.5615C46.0428 35.8192 46.112 36.116 46.1966 36.3841L46.5425 37.4799H45.4176Z" fill="#9D9D9D"/>
<path d="M49.3525 38.6758V34.8989H48.5504V39.3578H51.1539V38.6758H49.3525Z" fill="#9D9D9D"/>
<path d="M3.24049 37.3327C3.16105 37.2442 3.06368 37.1739 2.95605 37.1193V37.088C3.04318 37.0256 3.13287 36.9475 3.20718 36.859C3.3353 36.708 3.46599 36.4737 3.46599 36.1353C3.46599 35.4429 2.88943 34.8989 2.1745 34.8989H0.134766V39.337H2.24368C2.95861 39.337 3.53517 38.7956 3.53517 38.1006C3.53261 37.7388 3.38399 37.4863 3.24049 37.3327ZM0.67801 35.3727H2.1745C2.57425 35.3727 2.92018 35.6954 2.92018 36.1327C2.92018 36.57 2.57425 36.8954 2.1745 36.8954H0.67801V35.3727ZM2.24113 38.8607H0.675445V37.3405H2.24113C2.64087 37.3405 2.9868 37.6633 2.9868 38.1006C2.98936 38.5379 2.64087 38.8607 2.24113 38.8607Z" fill="#9D9D9D"/>
<path d="M6.55584 36.167L5.60516 38.7986H5.46935L4.41361 36.167H3.87036L5.26179 39.5925L5.12598 39.9726C5.09266 40.0689 5.02604 40.1626 4.89023 40.1626H4.24448V40.6051H4.92354C5.30535 40.6051 5.46166 40.4593 5.56929 40.1626L7.09909 36.167H6.55584Z" fill="#9D9D9D"/>
<path fill-rule="evenodd" clip-rule="evenodd" d="M38.6173 22.6404C37.6209 23.6526 36.3839 24.13 34.9776 24.13C33.5789 24.13 32.3419 23.6564 31.3493 22.6366C30.3491 21.6054 29.9017 20.3183 29.9017 18.8746C29.9017 17.4346 30.3454 16.1437 31.3493 15.1125C32.3382 14.0927 33.5714 13.6153 34.9776 13.6153C36.3839 13.6153 37.6209 14.0927 38.6173 15.1086C39.6287 16.1361 40.0874 17.427 40.0874 18.8746C40.0874 20.3259 39.6287 21.613 38.6173 22.6404ZM40.7905 12.9889C39.1813 11.3657 37.2411 10.5903 34.9739 10.5903C32.7104 10.5903 30.7815 11.3618 29.176 12.9889C27.5743 14.6159 26.8148 16.5791 26.8148 18.8784C26.8148 21.1738 27.5743 23.137 29.176 24.764C30.7778 26.3911 32.7104 27.1664 34.9739 27.1664C37.2411 27.1664 39.1775 26.3911 40.7905 24.764C42.3998 23.1408 43.1668 21.1814 43.1668 18.8784C43.1668 16.5753 42.4035 14.6121 40.7905 12.9889Z" fill="white"/>
<path fill-rule="evenodd" clip-rule="evenodd" d="M48.9267 11.0643H45.8435V26.6932H48.9267V18.2027C48.9267 16.9271 49.1861 15.5941 50.0885 14.6469C50.9194 13.7761 51.991 13.4171 53.1717 13.4171C54.2282 13.4171 55.2133 13.7188 55.9766 14.4827C56.7812 15.2847 57.0482 16.3771 57.0482 17.4923V26.6894H60.1313V16.9538C60.1313 15.2236 59.7403 13.5278 58.5258 12.256C57.4166 11.0949 56.048 10.5869 54.4613 10.5869C51.2165 10.5869 49.9569 12.0536 48.9229 14.3261V11.0643H48.9267Z" fill="white"/>
<path fill-rule="evenodd" clip-rule="evenodd" d="M66.0426 17.1601C66.2983 16.0219 66.836 15.0288 67.7496 14.307C68.6821 13.5698 69.8025 13.2872 70.9681 13.2872C72.051 13.2872 73.0474 13.6004 73.9235 14.2459C74.8898 14.9563 75.4199 16.0028 75.6643 17.1715L75.8185 17.9048H65.8734L66.0426 17.1601ZM77.6496 24.3519L75.2131 22.9235C74.2054 24.0006 72.8556 24.436 71.3667 24.436C68.825 24.436 66.8209 23.42 66.114 20.8228L65.9035 20.0551H78.6798C78.7324 19.6656 78.7587 19.2684 78.7587 18.875C78.7587 16.6101 78.0819 14.6164 76.5479 12.9587C75.0364 11.3279 73.1639 10.5869 70.9644 10.5869C68.6896 10.5869 66.6931 11.2859 65.0913 12.9473C63.5084 14.5896 62.8053 16.5833 62.8053 18.8711C62.8053 21.1704 63.5122 23.1756 65.1177 24.8103C66.7984 26.5175 68.949 27.1592 71.2952 27.1592C73.8858 27.1668 76.0591 26.338 77.6496 24.3519Z" fill="white"/>
<path fill-rule="evenodd" clip-rule="evenodd" d="M92.1304 11.0645L88.0772 23.5767L83.2983 11.0645H79.9331L86.4717 26.743L86.3927 26.9645C86.028 28.0148 85.4715 29.0575 84.5804 29.7412C83.8585 30.295 82.9749 30.5356 82.0838 30.5929V33.4498C83.6555 33.446 85.1594 33.0717 86.4416 32.0901C88.0095 30.887 89.0134 28.9659 89.6714 27.1249L95.4241 11.0683H92.1304V11.0645Z" fill="white"/>
<path fill-rule="evenodd" clip-rule="evenodd" d="M98.1836 11.0644L97.1045 14.0244H99.4807L94.8635 26.6932H97.8677L102.485 14.0244H107.144L107.008 11.0644H103.568L103.925 10.079C104.741 7.82554 106.384 6.75993 108.636 6.79813L109.723 3.82666C107.862 3.82666 106.061 4.23915 104.489 5.33149C102.68 6.58806 101.519 8.43664 100.77 10.4991L100.564 11.0644H98.1836Z" fill="#DEDC00"/>
<path fill-rule="evenodd" clip-rule="evenodd" d="M121.866 11.0264L113.169 23.0268L112.88 11.0264H109.688L110.417 26.8233L110.165 27.1709C109.485 28.1524 108.612 29.2104 107.582 29.8253C106.736 30.3295 105.758 30.5319 104.788 30.5625L103.754 33.4079C105.39 33.3659 106.935 32.9343 108.394 32.1055C110.47 30.9253 112.271 28.8285 113.662 26.9035L125.133 11.0264H121.866Z" fill="#DEDC00"/>
<path fill-rule="evenodd" clip-rule="evenodd" d="M12.4824 21.694L24.439 4.58325L26.2814 5.90094L26.3942 0L20.9799 2.12357L22.8373 3.4298L12.3508 15.3501L4.07893 5.794H0.694975C0.743854 12.7605 0.736331 19.7271 0.679932 26.6936C1.70264 26.6936 2.72534 26.6936 3.74429 26.6936C3.77437 21.5298 3.75933 16.3698 3.75181 11.206L3.74805 9.31545L4.83468 10.8547C7.38768 14.464 9.93317 18.0771 12.4824 21.694Z" fill="#DEDC00"/>
<path fill-rule="evenodd" clip-rule="evenodd" d="M23.9352 26.6893L23.9766 7.38232L20.9084 11.7364C20.9084 16.0714 20.9235 22.3466 20.9009 26.6816L23.9352 26.6893Z" fill="white"/>
</svg>
