<svg width="36" height="36" viewBox="0 0 36 36" fill="none" xmlns="http://www.w3.org/2000/svg">
<path d="M18 36C27.9411 36 36 27.9411 36 18C36 8.05888 27.9411 0 18 0C8.05888 0 0 8.05888 0 18C0 27.9411 8.05888 36 18 36Z" fill="#2D9CDB"/>
<path fill-rule="evenodd" clip-rule="evenodd" d="M24.395 13.634C25.0791 13.1967 25.5831 12.528 25.815 11.75C25.1851 12.145 24.4899 12.4246 23.762 12.576C23.4679 12.2395 23.1055 11.9694 22.699 11.7839C22.2924 11.5983 21.8509 11.5016 21.404 11.5C19.62 11.5 18.174 13.026 18.174 14.908C18.174 15.175 18.201 15.435 18.256 15.684C15.572 15.541 13.191 14.186 11.596 12.123C11.3078 12.6482 11.1574 13.2379 11.159 13.837C11.159 15.019 11.729 16.062 12.597 16.674C12.0809 16.6556 11.5775 16.5092 11.132 16.248V16.29C11.132 17.942 12.245 19.32 13.725 19.632C13.454 19.712 13.169 19.752 12.873 19.752C12.665 19.752 12.462 19.731 12.266 19.692C12.676 21.044 13.87 22.032 15.284 22.057C14.6256 22.6072 13.8614 23.0164 13.0385 23.2595C12.2156 23.5025 11.3517 23.5742 10.5 23.47C11.9602 24.4652 13.6859 24.9983 15.453 25C21.398 25 24.646 19.807 24.646 15.304C24.646 15.155 24.644 15.008 24.638 14.863C25.276 14.3752 25.8219 13.7775 26.25 13.098C25.6635 13.3726 25.0376 13.5534 24.395 13.634Z" fill="white"/>
</svg>
