<svg width="36" height="36" viewBox="0 0 36 36" fill="none" xmlns="http://www.w3.org/2000/svg">
<path d="M18 36C27.9411 36 36 27.9411 36 18C36 8.05887 27.9411 0 18 0C8.05887 0 0 8.05887 0 18C0 27.9411 8.05887 36 18 36Z" fill="#E81D2D"/>
<path d="M16.2 21.286L20.871 18.5L16.2 15.714V21.286ZM26.604 14.015C26.721 14.451 26.802 15.036 26.856 15.779C26.919 16.522 26.946 17.163 26.946 17.72L27 18.5C27 20.534 26.856 22.029 26.604 22.985C26.379 23.821 25.857 24.359 25.047 24.591C24.624 24.712 23.85 24.796 22.662 24.851C21.492 24.916 20.421 24.944 19.431 24.944L18 25C14.229 25 11.88 24.851 10.953 24.591C10.143 24.359 9.621 23.821 9.396 22.985C9.279 22.549 9.198 21.964 9.144 21.221C9.08673 20.5756 9.0567 19.928 9.054 19.28L9 18.5C9 16.466 9.144 14.971 9.396 14.015C9.621 13.179 10.143 12.641 10.953 12.409C11.376 12.288 12.15 12.204 13.338 12.149C14.4139 12.0881 15.4913 12.0571 16.569 12.056L18 12C21.771 12 24.12 12.149 25.047 12.409C25.857 12.641 26.379 13.179 26.604 14.015Z" fill="white"/>
</svg>
