<svg width="36" height="36" viewBox="0 0 36 36" fill="none" xmlns="http://www.w3.org/2000/svg">
<path d="M18 36C27.9411 36 36 27.9411 36 18C36 8.05887 27.9411 0 18 0C8.05887 0 0 8.05887 0 18C0 27.9411 8.05887 36 18 36Z" fill="url(#paint0_linear)"/>
<path d="M14.35 11H20.65C23.05 11 25 12.95 25 15.35V21.65C25 22.8037 24.5417 23.9101 23.7259 24.7259C22.9101 25.5417 21.8037 26 20.65 26H14.35C11.95 26 10 24.05 10 21.65V15.35C10 14.1963 10.4583 13.0899 11.2741 12.2741C12.0899 11.4583 13.1963 11 14.35 11ZM14.2 12.5C13.4839 12.5 12.7972 12.7845 12.2908 13.2908C11.7845 13.7972 11.5 14.4839 11.5 15.2V21.8C11.5 23.292 12.708 24.5 14.2 24.5H20.8C21.5161 24.5 22.2028 24.2155 22.7092 23.7092C23.2155 23.2028 23.5 22.5161 23.5 21.8V15.2C23.5 13.707 22.293 12.5 20.8 12.5H14.2ZM21.437 13.625C21.6856 13.625 21.9241 13.7238 22.0999 13.8996C22.2757 14.0754 22.3745 14.3139 22.3745 14.5625C22.3745 14.8111 22.2757 15.0496 22.0999 15.2254C21.9241 15.4012 21.6856 15.5 21.437 15.5C21.1884 15.5 20.9499 15.4012 20.7741 15.2254C20.5983 15.0496 20.4995 14.8111 20.4995 14.5625C20.4995 14.3139 20.5983 14.0754 20.7741 13.8996C20.9499 13.7238 21.1884 13.625 21.437 13.625ZM17.5 14.75C18.4946 14.75 19.4484 15.1451 20.1517 15.8483C20.8549 16.5516 21.25 17.5054 21.25 18.5C21.25 19.4946 20.8549 20.4484 20.1517 21.1517C19.4484 21.8549 18.4946 22.25 17.5 22.25C16.5054 22.25 15.5516 21.8549 14.8483 21.1517C14.1451 20.4484 13.75 19.4946 13.75 18.5C13.75 17.5054 14.1451 16.5516 14.8483 15.8483C15.5516 15.1451 16.5054 14.75 17.5 14.75ZM17.5 16.25C17.2045 16.25 16.9119 16.3082 16.639 16.4213C16.366 16.5343 16.1179 16.7001 15.909 16.909C15.7001 17.1179 15.5343 17.366 15.4213 17.639C15.3082 17.9119 15.25 18.2045 15.25 18.5C15.25 18.7955 15.3082 19.0881 15.4213 19.361C15.5343 19.634 15.7001 19.8821 15.909 20.091C16.1179 20.2999 16.366 20.4657 16.639 20.5787C16.9119 20.6918 17.2045 20.75 17.5 20.75C18.0967 20.75 18.669 20.5129 19.091 20.091C19.5129 19.669 19.75 19.0967 19.75 18.5C19.75 17.9033 19.5129 17.331 19.091 16.909C18.669 16.4871 18.0967 16.25 17.5 16.25Z" fill="white"/>
<defs>
<linearGradient id="paint0_linear" x1="-31.2857" y1="8.62809e-07" x2="55.7143" y2="41.5714" gradientUnits="userSpaceOnUse">
<stop offset="0.190772" stop-color="#694FE6"/>
<stop offset="0.558714" stop-color="#D53482"/>
<stop offset="0.780006" stop-color="#FC7942"/>
</linearGradient>
</defs>
</svg>
