<svg width="121" height="49" viewBox="0 0 121 49" fill="none" xmlns="http://www.w3.org/2000/svg">
<path d="M12.6644 0.237305H0.838715V3.76162H4.36966V12.3775H9.11672V3.76162H12.6644V0.237305Z" fill="white"/>
<path d="M15.8683 0.237305L11.0876 12.3775H15.9605L18.3928 5.28744L20.825 12.3775H25.6979L20.9173 0.237305H15.8683Z" fill="white"/>
<path d="M36.341 0.237305H24.5153V3.76162H28.0546V12.3775H32.8017V3.76162H36.341V0.237305Z" fill="white"/>
<path d="M39.5449 0.237305L34.7643 12.3775H39.6455L42.0694 5.28744L44.51 12.3775H49.3829L44.6107 0.237305H39.5449Z" fill="white"/>
<path d="M62.2235 1.83755C63.0557 1.82851 63.8809 1.9894 64.6473 2.31021L65.117 0.53562C64.172 0.14821 63.1535 -0.032837 62.1312 0.00488662C58.357 0.00488662 55.5222 2.40972 55.5222 6.43159C55.5222 10.1383 57.9041 12.5598 61.8293 12.5598C62.9203 12.5952 64.0073 12.4119 65.0247 12.0208L64.6557 10.2628C63.8727 10.5525 63.0428 10.6986 62.2067 10.694C59.4809 10.694 57.9041 9.03546 57.9041 6.32381C57.9041 3.38826 59.7241 1.83755 62.2235 1.83755Z" fill="white"/>
<path d="M71.4913 0.1875H70.1158L66.1656 12.3774H68.4888L69.5539 8.92773H73.4623L74.5777 12.3774H76.9932L72.9842 0.1875H71.4913ZM71.4913 7.24437H69.9062L70.8623 4.24251C71.0804 3.51278 71.2649 2.66695 71.4494 1.96209H71.4913C71.6758 2.66695 71.8687 3.4879 72.112 4.21764L73.0765 7.21949L71.4913 7.24437Z" fill="white"/>
<path d="M85.7829 1.09126C84.9317 0.470959 83.9047 0.131499 82.8474 0.121035C82.6209 0.121035 82.3945 0.121035 82.1513 0.121035C81 0.107575 79.8496 0.19079 78.7126 0.369803V12.4024H80.9435V7.79169C81.3078 7.86409 81.6793 7.89469 82.0506 7.8829C82.3168 7.88585 82.5829 7.87201 82.8474 7.84145C83.9971 7.78558 85.0901 7.33042 85.9338 6.5561C86.2904 6.19465 86.5675 5.76425 86.7479 5.29192C86.9283 4.81958 87.0081 4.31547 86.9822 3.81123C86.9929 3.30274 86.8911 2.79809 86.684 2.33256C86.4768 1.86704 86.1692 1.45187 85.7829 1.11613V1.09126ZM82.8474 6.09169C82.5842 6.13612 82.3176 6.15833 82.0506 6.15805C81.6778 6.17442 81.3046 6.13527 80.9435 6.04194V1.96199C81.3704 1.87099 81.807 1.83199 82.2435 1.84589C82.4455 1.84674 82.6472 1.8606 82.8474 1.88736C83.1081 1.89479 83.3647 1.95351 83.6022 2.06011C83.8396 2.16671 84.0533 2.31904 84.2305 2.5082C84.4078 2.69735 84.5451 2.91953 84.6345 3.16177C84.7239 3.40402 84.7636 3.66146 84.7513 3.91904C84.7713 4.45227 84.5859 4.97313 84.2325 5.37642C83.8791 5.7797 83.384 6.03534 82.8474 6.09169Z" fill="white"/>
<path d="M91.1924 0.1875H88.9447V12.3774H91.1924V0.1875Z" fill="white"/>
<path d="M101.936 0.1875H92.6183V2.0533H96.1409V12.3774H98.3802V2.0533H101.936V0.1875Z" fill="white"/>
<path d="M106.465 0.1875H105.081L101.131 12.3774H103.446L104.511 8.92773H108.436L109.552 12.3774H111.959L107.967 0.1875H106.465ZM106.465 7.24437H104.88L105.828 4.24251C106.046 3.51278 106.23 2.66695 106.415 1.96209H106.457C106.633 2.66695 106.826 3.4796 107.069 4.20934L108.034 7.21119L106.465 7.24437Z" fill="white"/>
<path d="M115.934 10.5116V0.1875H113.687V12.3774H121V10.5116H115.934Z" fill="white"/>
<path d="M120.95 18.8535H0.880676V23.1656H120.95V18.8535Z" fill="white"/>
<path d="M120.95 18.8535H0.880676V23.1656H120.95V18.8535Z" fill="white"/>
<path d="M4.77539 33.5059C4.36523 33.5059 3.99805 33.5801 3.67383 33.7285C3.35352 33.877 3.08203 34.0918 2.85938 34.373C2.63672 34.6504 2.4668 34.9883 2.34961 35.3867C2.23242 35.7812 2.17383 36.2266 2.17383 36.7227C2.17383 37.3867 2.26758 37.959 2.45508 38.4395C2.64258 38.916 2.92773 39.2832 3.31055 39.541C3.69336 39.7949 4.17773 39.9219 4.76367 39.9219C5.12695 39.9219 5.48047 39.8867 5.82422 39.8164C6.16797 39.7461 6.52344 39.6504 6.89062 39.5293V40.7246C6.54297 40.8613 6.19141 40.9609 5.83594 41.0234C5.48047 41.0859 5.07031 41.1172 4.60547 41.1172C3.73047 41.1172 3.00391 40.9355 2.42578 40.5723C1.85156 40.209 1.42188 39.6973 1.13672 39.0371C0.855469 38.377 0.714844 37.6035 0.714844 36.7168C0.714844 36.0684 0.804688 35.4746 0.984375 34.9355C1.16406 34.3965 1.42578 33.9316 1.76953 33.541C2.11328 33.1465 2.53711 32.8438 3.04102 32.6328C3.54883 32.418 4.12891 32.3105 4.78125 32.3105C5.21094 32.3105 5.63281 32.3594 6.04688 32.457C6.46484 32.5508 6.85156 32.6855 7.20703 32.8613L6.71484 34.0215C6.41797 33.8809 6.10742 33.7598 5.7832 33.6582C5.45898 33.5566 5.12305 33.5059 4.77539 33.5059ZM14.452 37.7422C14.452 38.2812 14.3817 38.7598 14.2411 39.1777C14.1005 39.5957 13.8954 39.9492 13.6259 40.2383C13.3563 40.5234 13.0321 40.7422 12.6532 40.8945C12.2743 41.043 11.8466 41.1172 11.37 41.1172C10.9247 41.1172 10.5165 41.043 10.1454 40.8945C9.7743 40.7422 9.45203 40.5234 9.17859 40.2383C8.90906 39.9492 8.70008 39.5957 8.55164 39.1777C8.4032 38.7598 8.32898 38.2812 8.32898 37.7422C8.32898 37.0273 8.45203 36.4219 8.69812 35.9258C8.94812 35.4258 9.30359 35.0449 9.76453 34.7832C10.2255 34.5215 10.7743 34.3906 11.411 34.3906C12.0087 34.3906 12.536 34.5215 12.993 34.7832C13.4501 35.0449 13.8075 35.4258 14.0653 35.9258C14.3231 36.4258 14.452 37.0312 14.452 37.7422ZM9.74695 37.7422C9.74695 38.2148 9.80359 38.6191 9.91687 38.9551C10.0341 39.291 10.2137 39.5488 10.4559 39.7285C10.6981 39.9043 11.0106 39.9922 11.3934 39.9922C11.7762 39.9922 12.0887 39.9043 12.3309 39.7285C12.5731 39.5488 12.7509 39.291 12.8641 38.9551C12.9774 38.6191 13.0341 38.2148 13.0341 37.7422C13.0341 37.2695 12.9774 36.8691 12.8641 36.541C12.7509 36.209 12.5731 35.957 12.3309 35.7852C12.0887 35.6094 11.7743 35.5215 11.3876 35.5215C10.8173 35.5215 10.4012 35.7129 10.1395 36.0957C9.87781 36.4785 9.74695 37.0273 9.74695 37.7422ZM19.5349 34.3906C20.2654 34.3906 20.8337 34.5801 21.24 34.959C21.6502 35.334 21.8552 35.9375 21.8552 36.7695V41H20.4783V37.0273C20.4783 36.5234 20.3748 36.1465 20.1677 35.8965C19.9607 35.6426 19.6404 35.5156 19.2068 35.5156C18.5779 35.5156 18.1404 35.709 17.8943 36.0957C17.6521 36.4824 17.531 37.043 17.531 37.7773V41H16.1541V34.5137H17.2263L17.4197 35.3926H17.4959C17.6365 35.166 17.8103 34.9805 18.0173 34.8359C18.2283 34.6875 18.4627 34.5762 18.7205 34.502C18.9822 34.4277 19.2537 34.3906 19.5349 34.3906ZM28.2623 39.1484C28.2623 39.5742 28.1588 39.9336 27.9518 40.2266C27.7448 40.5195 27.442 40.7422 27.0436 40.8945C26.6491 41.043 26.1647 41.1172 25.5905 41.1172C25.1373 41.1172 24.7467 41.084 24.4186 41.0176C24.0944 40.9551 23.7877 40.8574 23.4987 40.7246V39.5352C23.8073 39.6797 24.153 39.8047 24.5358 39.9102C24.9225 40.0156 25.2877 40.0684 25.6315 40.0684C26.0846 40.0684 26.4108 39.998 26.61 39.8574C26.8092 39.7129 26.9088 39.5215 26.9088 39.2832C26.9088 39.1426 26.8678 39.0176 26.7858 38.9082C26.7077 38.7949 26.5592 38.6797 26.3405 38.5625C26.1256 38.4414 25.8092 38.2969 25.3913 38.1289C24.9811 37.9648 24.6354 37.8008 24.3541 37.6367C24.0729 37.4727 23.86 37.2754 23.7155 37.0449C23.5709 36.8105 23.4987 36.5117 23.4987 36.1484C23.4987 35.5742 23.7252 35.1387 24.1784 34.8418C24.6354 34.541 25.2389 34.3906 25.9889 34.3906C26.3873 34.3906 26.7623 34.4316 27.1139 34.5137C27.4694 34.5918 27.817 34.707 28.1569 34.8594L27.7233 35.8965C27.4303 35.7676 27.1354 35.6621 26.8385 35.5801C26.5455 35.4941 26.2467 35.4512 25.942 35.4512C25.5866 35.4512 25.3151 35.5059 25.1276 35.6152C24.944 35.7246 24.8522 35.8809 24.8522 36.084C24.8522 36.2363 24.8971 36.3652 24.987 36.4707C25.0768 36.5762 25.2311 36.6816 25.4498 36.7871C25.6725 36.8926 25.9811 37.0234 26.3756 37.1797C26.7623 37.3281 27.0963 37.4844 27.3776 37.6484C27.6627 37.8086 27.8815 38.0059 28.0338 38.2402C28.1862 38.4746 28.2623 38.7773 28.2623 39.1484ZM35.5249 34.5137V41H34.4409L34.2534 40.127H34.1773C34.0405 40.3496 33.8667 40.5352 33.6558 40.6836C33.4448 40.8281 33.2105 40.9355 32.9527 41.0059C32.6948 41.0801 32.4234 41.1172 32.1382 41.1172C31.6499 41.1172 31.232 41.0352 30.8843 40.8711C30.5405 40.7031 30.2769 40.4453 30.0933 40.0977C29.9097 39.75 29.8179 39.3008 29.8179 38.75V34.5137H31.2007V38.4922C31.2007 38.9961 31.3023 39.373 31.5054 39.623C31.7124 39.873 32.0327 39.998 32.4663 39.998C32.8843 39.998 33.2163 39.9121 33.4624 39.7402C33.7085 39.5684 33.8823 39.3145 33.9839 38.9785C34.0894 38.6426 34.1421 38.2305 34.1421 37.7422V34.5137H35.5249ZM44.9496 34.3906C45.6762 34.3906 46.223 34.5781 46.5902 34.9531C46.9613 35.3281 47.1469 35.9297 47.1469 36.7578V41H45.7699V37.0039C45.7699 36.5117 45.6742 36.1406 45.4828 35.8906C45.2914 35.6406 45.0004 35.5156 44.6098 35.5156C44.0629 35.5156 43.6684 35.6914 43.4262 36.043C43.1879 36.3906 43.0687 36.8965 43.0687 37.5605V41H41.6918V37.0039C41.6918 36.6758 41.6488 36.4023 41.5629 36.1836C41.4809 35.9609 41.3539 35.7949 41.182 35.6855C41.0102 35.5723 40.7934 35.5156 40.5316 35.5156C40.1527 35.5156 39.85 35.6016 39.6234 35.7734C39.4008 35.9453 39.2406 36.1992 39.143 36.5352C39.0453 36.8672 38.9965 37.2754 38.9965 37.7598V41H37.6195V34.5137H38.6918L38.8852 35.3867H38.9613C39.0941 35.1602 39.2582 34.9746 39.4535 34.8301C39.6527 34.6816 39.8734 34.5723 40.1156 34.502C40.3578 34.4277 40.6098 34.3906 40.8715 34.3906C41.3559 34.3906 41.7641 34.4766 42.0961 34.6484C42.4281 34.8164 42.6762 35.0742 42.8402 35.4219H42.9457C43.1488 35.0703 43.432 34.8105 43.7953 34.6426C44.1586 34.4746 44.5434 34.3906 44.9496 34.3906ZM51.7727 34.3906C52.3509 34.3906 52.847 34.5098 53.261 34.748C53.6751 34.9863 53.9934 35.3242 54.2161 35.7617C54.4388 36.1992 54.5501 36.7227 54.5501 37.332V38.0703H50.22C50.2356 38.6992 50.4036 39.1836 50.7239 39.5234C51.0481 39.8633 51.5013 40.0332 52.0833 40.0332C52.4973 40.0332 52.8684 39.9941 53.1966 39.916C53.5286 39.834 53.8704 39.7148 54.222 39.5586V40.6777C53.8977 40.8301 53.5677 40.9414 53.2317 41.0117C52.8958 41.082 52.4934 41.1172 52.0247 41.1172C51.388 41.1172 50.8274 40.9941 50.343 40.748C49.8626 40.498 49.4856 40.127 49.2122 39.6348C48.9427 39.1426 48.8079 38.5312 48.8079 37.8008C48.8079 37.0742 48.9309 36.457 49.177 35.9492C49.4231 35.4414 49.7688 35.0547 50.2141 34.7891C50.6595 34.5234 51.179 34.3906 51.7727 34.3906ZM51.7727 35.4277C51.3391 35.4277 50.9876 35.5684 50.718 35.8496C50.4524 36.1309 50.2962 36.543 50.2493 37.0859H53.2024C53.1985 36.7617 53.1438 36.4746 53.0384 36.2246C52.9368 35.9746 52.7805 35.7793 52.5696 35.6387C52.3626 35.498 52.097 35.4277 51.7727 35.4277ZM59.5099 34.3906C59.6193 34.3906 59.7384 34.3965 59.8673 34.4082C59.9963 34.4199 60.1076 34.4355 60.2013 34.4551L60.0724 35.7441C59.9904 35.7207 59.8888 35.7031 59.7677 35.6914C59.6505 35.6797 59.5451 35.6738 59.4513 35.6738C59.2052 35.6738 58.9709 35.7148 58.7482 35.7969C58.5255 35.875 58.3283 35.9961 58.1564 36.1602C57.9845 36.3203 57.8498 36.5215 57.7521 36.7637C57.6545 37.0059 57.6056 37.2871 57.6056 37.6074V41H56.2228V34.5137H57.3009L57.4884 35.6562H57.5529C57.6818 35.4258 57.842 35.2148 58.0334 35.0234C58.2248 34.832 58.4435 34.6797 58.6896 34.5664C58.9396 34.4492 59.213 34.3906 59.5099 34.3906ZM64.9003 41V32.4336H66.3066V39.8047H69.9452V41H64.9003ZM77.1492 37.7422C77.1492 38.2812 77.0789 38.7598 76.9383 39.1777C76.7977 39.5957 76.5926 39.9492 76.323 40.2383C76.0535 40.5234 75.7293 40.7422 75.3504 40.8945C74.9715 41.043 74.5437 41.1172 74.0672 41.1172C73.6219 41.1172 73.2137 41.043 72.8426 40.8945C72.4715 40.7422 72.1492 40.5234 71.8758 40.2383C71.6062 39.9492 71.3973 39.5957 71.2488 39.1777C71.1004 38.7598 71.0262 38.2812 71.0262 37.7422C71.0262 37.0273 71.1492 36.4219 71.3953 35.9258C71.6453 35.4258 72.0008 35.0449 72.4617 34.7832C72.9227 34.5215 73.4715 34.3906 74.1082 34.3906C74.7059 34.3906 75.2332 34.5215 75.6902 34.7832C76.1473 35.0449 76.5047 35.4258 76.7625 35.9258C77.0203 36.4258 77.1492 37.0312 77.1492 37.7422ZM72.4441 37.7422C72.4441 38.2148 72.5008 38.6191 72.6141 38.9551C72.7312 39.291 72.9109 39.5488 73.1531 39.7285C73.3953 39.9043 73.7078 39.9922 74.0906 39.9922C74.4734 39.9922 74.7859 39.9043 75.0281 39.7285C75.2703 39.5488 75.448 39.291 75.5613 38.9551C75.6746 38.6191 75.7312 38.2148 75.7312 37.7422C75.7312 37.2695 75.6746 36.8691 75.5613 36.541C75.448 36.209 75.2703 35.957 75.0281 35.7852C74.7859 35.6094 74.4715 35.5215 74.0848 35.5215C73.5145 35.5215 73.0984 35.7129 72.8367 36.0957C72.575 36.4785 72.4441 37.0273 72.4441 37.7422ZM81.3942 34.3906C82.2145 34.3906 82.8337 34.5723 83.2516 34.9355C83.6735 35.2988 83.8845 35.8652 83.8845 36.6348V41H82.9059L82.6423 40.0801H82.5954C82.4118 40.3145 82.2223 40.5078 82.027 40.6602C81.8317 40.8125 81.6052 40.9258 81.3473 41C81.0934 41.0781 80.7829 41.1172 80.4157 41.1172C80.029 41.1172 79.6833 41.0469 79.3786 40.9062C79.0739 40.7617 78.8337 40.543 78.6579 40.25C78.4821 39.957 78.3942 39.5859 78.3942 39.1367C78.3942 38.4688 78.6423 37.9668 79.1384 37.6309C79.6384 37.2949 80.3923 37.1094 81.4001 37.0742L82.5251 37.0332V36.6934C82.5251 36.2441 82.4196 35.9238 82.2087 35.7324C82.0016 35.541 81.7087 35.4453 81.3298 35.4453C81.0055 35.4453 80.6911 35.4922 80.3864 35.5859C80.0817 35.6797 79.7848 35.7949 79.4958 35.9316L79.0505 34.959C79.3669 34.791 79.7262 34.6543 80.1286 34.5488C80.5348 34.4434 80.9567 34.3906 81.3942 34.3906ZM82.5192 37.9004L81.6813 37.9297C80.9938 37.9531 80.5114 38.0703 80.2341 38.2812C79.9567 38.4922 79.818 38.7812 79.818 39.1484C79.818 39.4688 79.9137 39.7031 80.1052 39.8516C80.2966 39.9961 80.5485 40.0684 80.861 40.0684C81.3376 40.0684 81.7321 39.9336 82.0446 39.6641C82.361 39.3906 82.5192 38.9902 82.5192 38.4629V37.9004ZM89.313 34.3906C90.0435 34.3906 90.6119 34.5801 91.0181 34.959C91.4283 35.334 91.6334 35.9375 91.6334 36.7695V41H90.2564V37.0273C90.2564 36.5234 90.1529 36.1465 89.9459 35.8965C89.7388 35.6426 89.4185 35.5156 88.9849 35.5156C88.356 35.5156 87.9185 35.709 87.6724 36.0957C87.4302 36.4824 87.3091 37.043 87.3091 37.7773V41H85.9322V34.5137H87.0045L87.1978 35.3926H87.274C87.4146 35.166 87.5884 34.9805 87.7955 34.8359C88.0064 34.6875 88.2408 34.5762 88.4986 34.502C88.7603 34.4277 89.0318 34.3906 89.313 34.3906ZM98.0405 39.1484C98.0405 39.5742 97.937 39.9336 97.7299 40.2266C97.5229 40.5195 97.2202 40.7422 96.8217 40.8945C96.4272 41.043 95.9428 41.1172 95.3686 41.1172C94.9155 41.1172 94.5248 41.084 94.1967 41.0176C93.8725 40.9551 93.5659 40.8574 93.2768 40.7246V39.5352C93.5854 39.6797 93.9311 39.8047 94.3139 39.9102C94.7006 40.0156 95.0659 40.0684 95.4096 40.0684C95.8627 40.0684 96.1889 39.998 96.3881 39.8574C96.5873 39.7129 96.687 39.5215 96.687 39.2832C96.687 39.1426 96.6459 39.0176 96.5639 38.9082C96.4858 38.7949 96.3373 38.6797 96.1186 38.5625C95.9037 38.4414 95.5873 38.2969 95.1694 38.1289C94.7592 37.9648 94.4135 37.8008 94.1323 37.6367C93.851 37.4727 93.6381 37.2754 93.4936 37.0449C93.3491 36.8105 93.2768 36.5117 93.2768 36.1484C93.2768 35.5742 93.5034 35.1387 93.9565 34.8418C94.4135 34.541 95.017 34.3906 95.767 34.3906C96.1655 34.3906 96.5405 34.4316 96.892 34.5137C97.2475 34.5918 97.5952 34.707 97.935 34.8594L97.5014 35.8965C97.2084 35.7676 96.9135 35.6621 96.6166 35.5801C96.3237 35.4941 96.0248 35.4512 95.7202 35.4512C95.3647 35.4512 95.0932 35.5059 94.9057 35.6152C94.7221 35.7246 94.6303 35.8809 94.6303 36.084C94.6303 36.2363 94.6752 36.3652 94.7651 36.4707C94.8549 36.5762 95.0092 36.6816 95.228 36.7871C95.4506 36.8926 95.7592 37.0234 96.1537 37.1797C96.5405 37.3281 96.8745 37.4844 97.1557 37.6484C97.4409 37.8086 97.6596 38.0059 97.812 38.2402C97.9643 38.4746 98.0405 38.7773 98.0405 39.1484Z" fill="white"/>
</svg>
