<svg width="40" height="42" viewBox="0 0 40 42" fill="none" xmlns="http://www.w3.org/2000/svg">
<path fill-rule="evenodd" clip-rule="evenodd" d="M24.9649 2.60563H21.2458V1.26079C21.2458 0.546341 20.6901 0 19.9634 0C19.2366 0 18.6809 0.546341 18.6809 1.26079V2.60563H15.2611V1.26079C15.2611 0.546341 14.7053 0 13.9786 0C13.2519 0 12.6962 0.546341 12.6962 1.26079V2.60563H9.27634V1.26079C9.27634 0.546341 8.72061 0 7.99389 0C7.26718 0 6.71145 0.546341 6.71145 1.26079V2.60563H2.99237C1.32519 2.60563 0 3.90844 0 5.54747V31.5197C0 33.1587 1.32519 34.4615 2.99237 34.4615H25.0076C26.6748 34.4615 28 33.1587 28 31.5197V5.54747C27.9573 3.90844 26.5893 2.60563 24.9649 2.60563ZM9.94457 8.19165C9.68904 7.93612 9.25463 7.93612 8.97354 8.19165L6.98038 10.1848L6.16268 9.3671C5.90714 9.11157 5.47274 9.11157 5.19165 9.3671C4.93612 9.62264 4.93612 10.057 5.19165 10.3381L6.49487 11.6413C6.62264 11.7691 6.80151 11.8458 6.98038 11.8458C7.15926 11.8458 7.33813 11.7691 7.4659 11.6413L9.94457 9.16268C10.2001 8.88159 10.2001 8.44718 9.94457 8.19165ZM8.97354 16.1917C9.25463 15.9361 9.68904 15.9361 9.94457 16.1917C10.2001 16.4472 10.2001 16.8816 9.94457 17.1627L7.4659 19.6413C7.33813 19.7691 7.15926 19.8458 6.98038 19.8458C6.80151 19.8458 6.62264 19.7691 6.49487 19.6413L5.19165 18.3381C4.93612 18.057 4.93612 17.6226 5.19165 17.3671C5.47274 17.1116 5.90714 17.1116 6.16268 17.3671L6.98038 18.1848L8.97354 16.1917ZM9.94457 23.1917C9.68904 22.9361 9.25463 22.9361 8.97354 23.1917L6.98038 25.1848L6.16268 24.3671C5.90714 24.1116 5.47274 24.1116 5.19165 24.3671C4.93612 24.6226 4.93612 25.057 5.19165 25.3381L6.49487 26.6413C6.62264 26.7691 6.80151 26.8458 6.98038 26.8458C7.15926 26.8458 7.33813 26.7691 7.4659 26.6413L9.94457 24.1627C10.2001 23.8816 10.2001 23.4472 9.94457 23.1917ZM14 9C13.4477 9 13 9.44771 13 10C13 10.5523 13.4477 11 14 11H22C22.5523 11 23 10.5523 23 10C23 9.44771 22.5523 9 22 9H14ZM13 18C13 17.4477 13.4477 17 14 17H22C22.5523 17 23 17.4477 23 18C23 18.5523 22.5523 19 22 19H14C13.4477 19 13 18.5523 13 18ZM14 24C13.4477 24 13 24.4477 13 25C13 25.5523 13.4477 26 14 26H22C22.5523 26 23 25.5523 23 25C23 24.4477 22.5523 24 22 24H14Z" fill="#005899"/>
<path d="M35.2718 33.9555L35.2718 33.9555L35.2777 33.9544C36.7882 33.6523 38.3184 34.3372 39.0079 35.6765C38.9947 35.6819 38.9777 35.6876 38.9565 35.6929C38.9345 35.6984 38.9129 35.7054 38.8918 35.7139L25.4703 41.0923L25.4703 41.0922L25.4593 41.0969C24.8358 41.3641 24.114 41.5005 23.4358 41.5005C22.7044 41.5005 21.9404 41.3628 21.2788 41.054L21.2636 41.0472L17.6252 39.4943C17.6543 39.3443 17.6692 39.1928 17.6692 39.0399V31.494C18.5149 31.5037 18.9888 31.5956 19.5026 31.7526C19.6948 31.8113 19.9101 31.886 20.1619 31.9732C20.6929 32.1573 21.3862 32.3976 22.3674 32.6637C22.4101 32.6753 22.4541 32.6811 22.4983 32.6811H26.1991C27.0085 32.6811 27.6728 33.3455 27.6728 34.1549C27.6728 34.2877 27.6367 34.4848 27.5891 34.6751C27.5478 34.8403 27.5934 35.0152 27.7102 35.1392C27.827 35.2632 27.9989 35.3192 28.1663 35.2878L35.2718 33.9555Z" fill="#D7DF23" stroke="white" stroke-miterlimit="10" stroke-linecap="round" stroke-linejoin="round"/>
<mask id="path-3-inside-1" fill="white">
<path fill-rule="evenodd" clip-rule="evenodd" d="M12 29C10.8954 29 10 29.8954 10 31V38.2891C10 39.3937 10.8954 40.2891 12 40.2891H16.3441C17.4487 40.2891 18.3441 39.3937 18.3441 38.2891V31C18.3441 29.8954 17.4487 29 16.3441 29H12ZM14.2653 36.8759C14.0841 36.8759 13.9373 37.0228 13.9373 37.204C13.9373 37.3852 14.0841 37.5321 14.2653 37.5321H15.5777C15.7589 37.5321 15.9058 37.3852 15.9058 37.204C15.9058 37.0228 15.7589 36.8759 15.5777 36.8759H14.2653Z"/>
</mask>
<path fill-rule="evenodd" clip-rule="evenodd" d="M12 29C10.8954 29 10 29.8954 10 31V38.2891C10 39.3937 10.8954 40.2891 12 40.2891H16.3441C17.4487 40.2891 18.3441 39.3937 18.3441 38.2891V31C18.3441 29.8954 17.4487 29 16.3441 29H12ZM14.2653 36.8759C14.0841 36.8759 13.9373 37.0228 13.9373 37.204C13.9373 37.3852 14.0841 37.5321 14.2653 37.5321H15.5777C15.7589 37.5321 15.9058 37.3852 15.9058 37.204C15.9058 37.0228 15.7589 36.8759 15.5777 36.8759H14.2653Z" fill="#D7DF23"/>
<path d="M11 31C11 30.4477 11.4477 30 12 30V28C10.3431 28 9 29.3431 9 31H11ZM11 38.2891V31H9V38.2891H11ZM12 39.2891C11.4477 39.2891 11 38.8414 11 38.2891H9C9 39.946 10.3431 41.2891 12 41.2891V39.2891ZM16.3441 39.2891H12V41.2891H16.3441V39.2891ZM17.3441 38.2891C17.3441 38.8414 16.8964 39.2891 16.3441 39.2891V41.2891C18.001 41.2891 19.3441 39.946 19.3441 38.2891H17.3441ZM17.3441 31V38.2891H19.3441V31H17.3441ZM16.3441 30C16.8964 30 17.3441 30.4477 17.3441 31H19.3441C19.3441 29.3431 18.001 28 16.3441 28V30ZM12 30H16.3441V28H12V30ZM14.9373 37.204C14.9373 37.5751 14.6364 37.8759 14.2653 37.8759V35.8759C13.5319 35.8759 12.9373 36.4705 12.9373 37.204H14.9373ZM14.2653 36.5321C14.6364 36.5321 14.9373 36.8329 14.9373 37.204H12.9373C12.9373 37.9375 13.5319 38.5321 14.2653 38.5321V36.5321ZM15.5777 36.5321H14.2653V38.5321H15.5777V36.5321ZM14.9058 37.204C14.9058 36.8329 15.2067 36.5321 15.5777 36.5321V38.5321C16.3112 38.5321 16.9058 37.9375 16.9058 37.204H14.9058ZM15.5777 37.8759C15.2067 37.8759 14.9058 37.5751 14.9058 37.204H16.9058C16.9058 36.4705 16.3112 35.8759 15.5777 35.8759V37.8759ZM14.2653 37.8759H15.5777V35.8759H14.2653V37.8759Z" fill="white" mask="url(#path-3-inside-1)"/>
<path d="M26.0288 25.5C26.0288 22.1779 28.7067 19.5 32.0288 19.5C35.3509 19.5 38.0288 22.1779 38.0288 25.5C38.0288 28.8221 35.3509 31.5 32.0288 31.5C28.7067 31.5 26.0288 28.8221 26.0288 25.5Z" fill="#D7DF23" stroke="white"/>
<path d="M32.4767 22.8716C32.4767 23.1746 32.4767 23.4776 32.4767 23.7806C32.4767 23.9256 32.4822 24.0722 32.4631 24.2163C32.4672 24.1861 32.4712 24.156 32.4753 24.1258C32.4573 24.2557 32.4226 24.3824 32.3718 24.5033C32.3833 24.4762 32.3947 24.4491 32.4062 24.422C32.3559 24.54 32.291 24.6507 32.2129 24.7524C32.2307 24.7294 32.2484 24.7064 32.2661 24.6835C32.188 24.784 32.0978 24.8742 31.9973 24.9523C32.0202 24.9346 32.0432 24.9169 32.0661 24.8991C31.9645 24.9772 31.8537 25.0421 31.7358 25.0924C31.7629 25.0809 31.79 25.0695 31.8171 25.0581C31.6962 25.1088 31.5695 25.1435 31.4396 25.1615C31.4697 25.1574 31.4999 25.1534 31.5301 25.1493C31.3727 25.1702 31.2117 25.1629 31.0534 25.1629C30.8958 25.1629 30.7382 25.1629 30.5807 25.1629C30.5786 25.1629 30.5765 25.1629 30.5744 25.1629C30.3888 25.1629 30.234 25.3177 30.234 25.5033C30.234 25.5202 30.234 25.5371 30.234 25.5539C30.234 25.6463 30.2696 25.7326 30.3344 25.7983C30.338 25.8019 30.3416 25.8055 30.3451 25.8092C30.3644 25.8287 30.3837 25.8482 30.4029 25.8677C30.4818 25.9477 30.5608 26.0277 30.6397 26.1077C30.8951 26.3667 31.1506 26.6256 31.406 26.8845C31.6699 27.152 31.9337 27.4194 32.1976 27.6869C32.3237 27.8148 32.4499 27.9426 32.576 28.0705C32.5761 28.0706 32.5763 28.0707 32.5764 28.0709C32.7066 28.2029 32.9273 28.2013 33.0577 28.0709C33.1895 27.9391 33.1879 27.7215 33.0577 27.5895C32.938 27.4681 32.8182 27.3468 32.6985 27.2254C32.4366 26.96 32.1748 26.6945 31.9129 26.4291C31.6551 26.1678 31.3973 25.9064 31.1394 25.6451C31.0313 25.5355 30.9232 25.4259 30.815 25.3162C30.8483 25.3965 30.8815 25.4767 30.9147 25.5569C30.9147 25.539 30.9147 25.5212 30.9147 25.5033C30.8013 25.6167 30.6878 25.7302 30.5744 25.8436C30.7141 25.8436 30.8539 25.8436 30.9937 25.8436C31.144 25.8436 31.2966 25.8504 31.4468 25.839C31.7711 25.8143 32.0911 25.7128 32.3585 25.5247C32.6186 25.3419 32.8395 25.0997 32.9744 24.8098C33.0433 24.6617 33.0985 24.5092 33.1255 24.3479C33.1449 24.2318 33.1574 24.1154 33.1574 23.9978C33.1574 23.8551 33.1574 23.7123 33.1574 23.5696C33.1574 23.3369 33.1574 23.1043 33.1574 22.8716C33.1574 22.6861 33.0026 22.5312 32.8171 22.5312C32.6315 22.5312 32.4767 22.6861 32.4767 22.8716Z" fill="#005899"/>
<path d="M30.5744 23.212C30.7377 23.212 30.901 23.212 31.0643 23.212C31.4298 23.212 31.7953 23.212 32.1608 23.212C32.5417 23.212 32.9225 23.212 33.3034 23.212C33.513 23.212 33.7225 23.212 33.9321 23.212C33.9372 23.212 33.9424 23.212 33.9475 23.212C34.133 23.212 34.2879 23.0571 34.2879 22.8716C34.2879 22.6861 34.133 22.5312 33.9475 22.5312C33.7842 22.5312 33.6209 22.5312 33.4575 22.5312C33.0921 22.5312 32.7266 22.5312 32.3611 22.5312C31.9802 22.5312 31.5993 22.5312 31.2185 22.5312C31.0089 22.5312 30.7994 22.5312 30.5898 22.5312C30.5847 22.5312 30.5795 22.5312 30.5744 22.5312C30.3888 22.5312 30.234 22.6861 30.234 22.8716C30.234 23.0571 30.3888 23.212 30.5744 23.212Z" fill="#005899"/>
<path d="M33.9477 23.8369C33.7844 23.8369 33.621 23.8369 33.4577 23.8369C33.0922 23.8369 32.7268 23.8369 32.3613 23.8369C31.9804 23.8369 31.5995 23.8369 31.2186 23.8369C31.0091 23.8369 30.7996 23.8369 30.59 23.8369C30.5849 23.8369 30.5797 23.8369 30.5745 23.8369C30.389 23.8369 30.2342 23.9917 30.2342 24.1773C30.2342 24.3628 30.389 24.5176 30.5745 24.5176C30.7379 24.5176 30.9012 24.5176 31.0645 24.5176C31.43 24.5176 31.7955 24.5176 32.161 24.5176C32.5418 24.5176 32.9227 24.5176 33.3036 24.5176C33.5132 24.5176 33.7227 24.5176 33.9322 24.5176C33.9374 24.5176 33.9426 24.5176 33.9477 24.5176C34.1332 24.5176 34.2881 24.3628 34.2881 24.1773C34.2881 23.9917 34.1332 23.8369 33.9477 23.8369Z" fill="#005899"/>
</svg>
