<svg width="45" height="38" viewBox="0 0 45 38" fill="none" xmlns="http://www.w3.org/2000/svg">
<path d="M38.4643 25.296L38.4643 25.296L38.4702 25.2949C40.8984 24.8092 43.3725 25.9221 44.467 28.1112C44.5169 28.211 44.499 28.2613 44.4855 28.2858C44.4665 28.3204 44.3966 28.404 44.1914 28.4553C44.1694 28.4608 44.1477 28.4678 44.1267 28.4763L23.6732 36.6727L23.6731 36.6726L23.6622 36.6773C22.6767 37.0996 21.5412 37.3136 20.4753 37.3136C19.3302 37.3136 18.1267 37.0983 17.0773 36.6085L17.0621 36.6018L11.3168 34.1495C11.3886 33.8697 11.4253 33.5869 11.4253 33.3018V21.5391C12.9025 21.5371 13.6943 21.682 14.5578 21.9459C14.8663 22.0402 15.202 22.1566 15.5909 22.2915C16.395 22.5704 17.4266 22.9282 18.9157 23.332C18.9583 23.3436 19.0023 23.3495 19.0465 23.3495H24.6863C26.0645 23.3495 27.1942 24.4791 27.1942 25.8573C27.1942 26.0935 27.1321 26.4199 27.0587 26.7136C27.0174 26.8789 27.063 27.0538 27.1798 27.1777C27.2966 27.3017 27.4685 27.3577 27.6359 27.3263L38.4643 25.296Z" fill="#005899" stroke="white" stroke-miterlimit="10" stroke-linecap="round" stroke-linejoin="round"/>
<mask id="path-2-inside-1" fill="white">
<path fill-rule="evenodd" clip-rule="evenodd" d="M2 18C0.89543 18 0 18.8954 0 20V33.2039C0 34.3085 0.895431 35.2039 2 35.2039H10.7159C11.8205 35.2039 12.7159 34.3085 12.7159 33.2039V20C12.7159 18.8954 11.8205 18 10.7159 18H2ZM6.5 30C6.22386 30 6 30.2239 6 30.5C6 30.7761 6.22386 31 6.5 31H8.5C8.77614 31 9 30.7761 9 30.5C9 30.2239 8.77614 30 8.5 30H6.5Z"/>
</mask>
<path fill-rule="evenodd" clip-rule="evenodd" d="M2 18C0.89543 18 0 18.8954 0 20V33.2039C0 34.3085 0.895431 35.2039 2 35.2039H10.7159C11.8205 35.2039 12.7159 34.3085 12.7159 33.2039V20C12.7159 18.8954 11.8205 18 10.7159 18H2ZM6.5 30C6.22386 30 6 30.2239 6 30.5C6 30.7761 6.22386 31 6.5 31H8.5C8.77614 31 9 30.7761 9 30.5C9 30.2239 8.77614 30 8.5 30H6.5Z" fill="#005899"/>
<path d="M1 20C1 19.4477 1.44772 19 2 19V17C0.343144 17 -1 18.3432 -1 20H1ZM1 33.2039V20H-1V33.2039H1ZM2 34.2039C1.44772 34.2039 1 33.7562 1 33.2039H-1C-1 34.8607 0.343146 36.2039 2 36.2039V34.2039ZM10.7159 34.2039H2V36.2039H10.7159V34.2039ZM11.7159 33.2039C11.7159 33.7562 11.2682 34.2039 10.7159 34.2039V36.2039C12.3728 36.2039 13.7159 34.8607 13.7159 33.2039H11.7159ZM11.7159 20V33.2039H13.7159V20H11.7159ZM10.7159 19C11.2682 19 11.7159 19.4477 11.7159 20H13.7159C13.7159 18.3431 12.3728 17 10.7159 17V19ZM2 19H10.7159V17H2V19ZM7 30.5C7 30.7761 6.77614 31 6.5 31V29C5.67157 29 5 29.6716 5 30.5H7ZM6.5 30C6.77614 30 7 30.2239 7 30.5H5C5 31.3284 5.67157 32 6.5 32V30ZM8.5 30H6.5V32H8.5V30ZM8 30.5C8 30.2239 8.22386 30 8.5 30V32C9.32843 32 10 31.3284 10 30.5H8ZM8.5 31C8.22386 31 8 30.7761 8 30.5H10C10 29.6716 9.32843 29 8.5 29V31ZM6.5 31H8.5V29H6.5V31Z" fill="white" mask="url(#path-2-inside-1)"/>
<path d="M37.9977 4.39493C38.0069 4.31998 37.9886 4.24423 37.9461 4.18166C37.9036 4.11909 37.8397 4.07393 37.7663 4.0545C34.7453 2.73115 31.7259 1.39707 28.7079 0.0522519C28.6398 0.0179015 28.5645 0 28.4882 0C28.4118 0 28.3365 0.0179015 28.2684 0.0522519C25.2598 1.38634 22.2488 2.71582 19.2355 4.0407C19.158 4.06726 19.0924 4.12005 19.0501 4.18985C19.0078 4.25965 18.9915 4.34201 19.0042 4.42253V10.4029C18.9913 13.41 20.0114 16.3313 21.8956 18.6834C23.4438 20.7144 25.6022 22.2024 28.0579 22.9318C28.3454 23.0227 28.6541 23.0227 28.9416 22.9318C31.604 22.1359 33.7021 20.5604 35.3444 18.3614C36.63 16.6508 37.4785 14.6554 37.8172 12.5466C37.9231 11.8839 37.9788 11.2142 37.9838 10.5432C38.0069 8.49149 37.9838 6.43976 37.9977 4.39493ZM36.8272 10.6582C36.8239 11.2483 36.776 11.8372 36.6838 12.4201C36.386 14.2687 35.6414 16.0178 34.514 17.5173C33.1383 19.4331 31.1634 20.842 28.8976 21.5241C28.7754 21.5615 28.6485 21.5817 28.5206 21.5839V1.42084C28.5806 1.42332 28.6395 1.43738 28.6941 1.46224C31.3403 2.63378 33.9866 3.80379 36.6329 4.97226C36.6967 4.98997 36.7519 5.02995 36.7884 5.08488C36.825 5.1398 36.8404 5.20598 36.8318 5.27128C36.8287 7.0654 36.8272 8.86104 36.8272 10.6582Z" fill="#D7DF23"/>
</svg>
