<svg width="43" height="37" viewBox="0 0 43 37" fill="none" xmlns="http://www.w3.org/2000/svg">
<path fill-rule="evenodd" clip-rule="evenodd" d="M43 3.90911C43 1.75911 41.2499 0 39.0909 0H35.1818H7.81819H3.90909C1.74932 0 0 1.75911 0 3.90911V5.86365V23.4546V24.0221C1.68067 20.4627 5.30273 18 9.5 18C15.299 18 20 22.701 20 28.5C20 28.7753 19.9894 29.0482 19.9686 29.3182H39.0909C41.2499 29.3182 43 27.5591 43 25.4091V23.4546V3.90911ZM25.4091 3.90911H37.1364C38.2159 3.90911 39.0909 4.78416 39.0909 5.86365V21.3167C38.443 20.6383 37.3224 20.2359 36.3479 19.8858C36.1994 19.8325 36.0543 19.7804 35.9148 19.7287C35.6786 19.6067 35.3531 19.5632 35.0259 19.5195C34.3052 19.4233 33.5766 19.326 33.777 18.385C33.7768 17.9634 34.126 17.6022 34.4799 17.2363C34.7823 16.9236 35.088 16.6074 35.1818 16.2472C35.3861 15.8393 35.4991 15.4294 35.6083 15.0333C35.7607 14.4802 35.9058 13.9542 36.2813 13.4986C36.8909 12.7168 36.9831 11.5318 36.1591 10.75C35.8773 9.57729 35.4492 8.61224 34.6932 7.63497C33.8086 6.85315 32.5735 6.04687 31.2727 6.04687C29.7093 6.04687 28.2497 7.01194 27.4247 8.18467C27.0803 8.7245 26.9186 9.26805 26.7668 9.77828C26.6437 10.1917 26.5272 10.5833 26.3253 10.9333C25.4051 11.7151 25.9278 13.2787 26.6307 13.8651C27.0802 15.4287 27.7562 16.9801 29.0128 17.9574C28.9414 18.7392 28.5728 19.3622 27.669 19.3622C26.6353 19.6275 25.6983 20.0784 24.7722 20.5241C24.3336 20.7351 23.8974 20.9451 23.4545 21.1335V5.86365C23.4545 4.78416 24.3302 3.90911 25.4091 3.90911ZM11.7273 5.86365H19.5455V7.81819H11.7273V5.86365ZM5.86364 9.77273H19.5455V11.7273H5.86364V9.77273ZM5.86364 13.6818H19.5455V15.6363H5.86364V13.6818Z" fill="#005899"/>
<path d="M9.5 20C4.80729 20 1 23.8073 1 28.5C1 33.1927 4.80729 37 9.5 37C14.1927 37 18 33.1927 18 28.5C18 23.8073 14.1927 20 9.5 20ZM13.874 26.4458L8.88021 31.4573C8.72083 31.6167 8.49062 31.7229 8.26042 31.7229C8.03021 31.7229 7.8 31.6344 7.64062 31.4573L5.12604 28.9427C4.77187 28.5885 4.77187 28.0396 5.12604 27.6854C5.48021 27.3313 6.02917 27.3313 6.38333 27.6854L8.26042 29.5625L12.6344 25.1885C12.9885 24.8344 13.5375 24.8344 13.8917 25.1885C14.2281 25.5427 14.2281 26.0917 13.874 26.4458Z" fill="#D7DF23"/>
</svg>
