<svg width="36" height="39" viewBox="0 0 36 39" fill="none" xmlns="http://www.w3.org/2000/svg">
<path fill-rule="evenodd" clip-rule="evenodd" d="M22.1235 33.1294H33.1874C34.3266 33.1294 35.2512 32.2049 35.2512 31.0657V4.22896V2.06376C35.2512 0.924598 34.3266 0 33.1874 0H22.1235H17.4446V0.68272C17.4524 0.752943 17.4563 0.827066 17.4563 0.90119V4.39934V5.55411C17.4563 7.15753 16.1533 8.46055 14.5499 8.46055H13.3951H9.89694C9.83842 8.46055 9.776 8.45665 9.71748 8.45274H8.99965V24.4998L17.6293 33.1294H22.1235ZM22.5409 26.115H15.3275C14.7891 26.115 14.3522 25.678 14.3522 25.1397C14.3522 24.6013 14.7891 24.1644 15.3275 24.1644H22.5448C23.0832 24.1644 23.5201 24.6013 23.5201 25.1397C23.5201 25.678 23.0793 26.115 22.5409 26.115ZM29.7582 21.137H15.3275C14.7891 21.137 14.3522 20.7001 14.3522 20.1617C14.3522 19.6233 14.7891 19.1864 15.3275 19.1864H29.7582C30.2966 19.1864 30.7336 19.6233 30.7336 20.1617C30.7336 20.7001 30.2966 21.137 29.7582 21.137ZM23.9774 8.21587V7.20735H23.417H21.4724H20.6033C20.2742 7.20735 19.9996 6.93275 19.9996 6.60367C19.9996 6.2746 20.2742 6 20.6033 6H20.6307H21.7457H23.7724H24.5811H25.7171H26.5861C26.9152 6 27.1898 6.2746 27.1898 6.60367C27.1898 6.93275 26.9152 7.20735 26.5861 7.20735H26.5587H25.4437H25.1848V7.84169V8.30835H25.7171H26.5861C26.9152 8.30835 27.1898 8.58295 27.1898 8.91202C27.1898 9.2411 26.9152 9.5157 26.5861 9.5157H26.5587H25.4437H25.061C25.0091 9.69569 24.9398 9.87018 24.8601 10.0413C24.6209 10.5556 24.2291 10.9851 23.7678 11.3095C23.2934 11.643 22.7259 11.823 22.1507 11.8668C22.0855 11.8717 22.02 11.8748 21.9544 11.8765L22.9775 12.9135L24.3708 14.3258L25.0079 14.9717C25.2389 15.2058 25.2417 15.5916 25.0079 15.8254C24.7765 16.0568 24.3852 16.0596 24.1542 15.8254L24.1535 15.8247L23.4823 15.1444L22.0784 13.7212L20.7191 12.3434L20.2992 11.9178L20.1967 11.8139L20.1777 11.7946C20.0627 11.6781 19.9996 11.525 19.9996 11.3612V11.2714C19.9996 10.9423 20.2742 10.6677 20.6033 10.6677H20.6145H21.4529C21.5106 10.6677 21.5685 10.6682 21.6264 10.6688H21.6265H21.6265C21.8233 10.6706 22.0213 10.6725 22.2166 10.6531C22.3932 10.6233 22.5661 10.576 22.7332 10.5116C22.8927 10.4382 23.0445 10.3494 23.1867 10.2464C23.3215 10.1355 23.4451 10.0119 23.5561 9.87713C23.6391 9.76252 23.7128 9.64175 23.7768 9.5157H23.4171H21.4724H20.6033C20.2742 9.5157 19.9996 9.2411 19.9996 8.91202C19.9996 8.58295 20.2742 8.30835 20.6033 8.30835H20.6307H21.7457H23.7724H23.9777C23.9776 8.27749 23.9774 8.24666 23.9774 8.21587Z" fill="#005899"/>
<path d="M9.73896 7H14.5312C14.5345 7 14.5411 7 14.5444 7C15.3448 6.99339 15.993 6.3453 15.9996 5.54511C15.9996 5.5418 15.9996 5.53519 15.9996 5.53188V0.737364C15.9996 0.294284 15.6358 0 15.2589 0C15.0769 0 14.895 0.0661313 14.7429 0.218233L9.21641 5.7435C8.75339 6.20642 9.08081 7 9.73896 7Z" fill="#005899"/>
<path d="M0.108523 22.9618C0.0390358 22.8923 -2.38419e-06 22.798 -2.38419e-06 22.6997C-2.38419e-06 22.6015 0.0390358 22.5072 0.108523 22.4377L2.43775 20.1085C2.50723 20.039 2.60148 20 2.69975 20C2.79802 20 2.89226 20.039 2.96175 20.1085L4.94611 22.0929L2.09286 24.9461L0.108523 22.9618Z" fill="#D7DF23"/>
<path d="M18.8848 38.9987C18.6367 38.9555 15.542 37.7619 14.7127 37.4411C14.5783 37.3891 14.4563 37.3095 14.3545 37.2075L3.51955 26.3726L3.24673 26.6454C3.12046 26.7719 3.04953 26.9434 3.04952 27.1222C3.0495 27.301 3.1204 27.4725 3.24665 27.5991L7.04002 31.3924C7.15353 31.5059 7.21729 31.6599 7.2173 31.8204C7.2173 31.9809 7.15353 32.1349 7.04002 32.2484C6.92651 32.3619 6.77256 32.4257 6.61204 32.4257C6.45151 32.4257 6.29756 32.3619 6.18405 32.2484L2.39069 28.455C2.03773 28.1013 1.83953 27.6219 1.83954 27.1222C1.83955 26.6225 2.03778 26.1432 2.39075 25.7894L3.84119 24.339L5.51681 22.6633L17.2077 34.3542C17.3098 34.456 17.3894 34.5781 17.4414 34.7125C17.7622 35.5418 18.9556 38.6367 18.9976 38.886C19.0001 38.9014 18.9989 38.9172 18.9941 38.932C18.9893 38.9468 18.9811 38.9603 18.9701 38.9713C18.9591 38.9823 18.9456 38.9905 18.9308 38.9953C18.916 39.0001 18.9002 39.0012 18.8848 38.9987Z" fill="#D7DF23"/>
</svg>
