<svg width="38" height="36" viewBox="0 0 38 36" fill="none" xmlns="http://www.w3.org/2000/svg">
<path d="M7.37061 34.4722L10.6429 35.3093C11.7082 35.6137 12.7736 35.7659 13.839 35.7659H18.6332C19.4703 35.7659 20.0791 35.081 20.0791 34.2439C20.1552 34.3961 20.003 32.722 18.6332 32.722H19.4703C21.3728 32.722 21.3728 29.678 19.4703 29.678H20.3074C21.6772 29.678 21.7533 28.2321 21.7533 28.156C21.7533 27.395 21.1445 26.7102 20.4596 26.6341C21.1445 26.6341 21.6011 26.6341 21.9816 26.1775C22.2099 25.8731 22.4382 25.4926 22.4382 25.1121C22.4382 24.275 21.7533 23.5901 20.9923 23.5901H15.0566L15.5132 22.9052C17.4157 20.2417 16.883 17.5022 16.9591 16.4368C16.9591 15.4475 16.1981 14.6865 15.2849 14.6865C14.9805 14.6865 14.6 14.7626 14.3717 14.9909C13.0019 15.9802 13.3824 20.0134 9.19698 22.0681L7.5989 22.8291C7.675 22.9813 7.675 23.2096 7.675 23.4379V33.8635C7.4467 34.0917 7.37061 34.32 7.37061 34.4722Z" fill="#D7DF23"/>
<path d="M2.34815 35.3864H4.40282C5.23991 35.3864 5.9248 34.7015 5.9248 33.8644V23.3628C5.9248 22.5257 5.23991 21.8408 4.40282 21.8408H2.34815C1.51106 21.8408 0.826172 22.5257 0.826172 23.3628V33.8644C0.826172 34.7015 1.51106 35.3864 2.34815 35.3864Z" fill="#D7DF23"/>
<path d="M36.8971 5.93615L30.7331 0.457031V4.26198C30.7331 5.17516 31.4941 5.93615 32.4073 5.93615H36.8971Z" fill="#005899"/>
<path d="M37.3536 7.45769H32.4072C30.6569 7.45769 29.211 6.01181 29.211 4.26154V0H13.6107C12.5454 0 11.6322 0.913187 11.6322 1.97857V16.4374V16.3613C12.0127 15.2959 12.3932 14.3066 13.3063 13.6978C13.839 13.3173 14.4478 13.089 15.1327 13.089C16.6547 13.089 17.9484 14.1544 18.2528 15.6003H32.4833C32.9399 15.6003 33.2443 15.9047 33.2443 16.3613C33.2443 16.8179 32.9399 17.1223 32.4833 17.1223H18.3289C18.3289 17.1223 18.3289 17.1223 18.3289 17.1984C18.3289 17.8832 18.405 18.8725 18.1767 20.014H32.4833C32.9399 20.014 33.2443 20.3184 33.2443 20.775C33.2443 21.2316 32.9399 21.536 32.4833 21.536H17.7201C17.644 21.6882 17.644 21.8404 17.5679 21.9926H20.8401C22.5143 21.9926 23.808 23.3624 23.808 25.0365C23.808 25.7975 23.5036 26.5585 22.9709 27.0912C23.1992 27.7 23.1231 28.1566 23.1231 28.3849C22.9709 28.7654 22.8948 29.6025 22.2099 30.2874V30.3635H35.375C36.4404 30.3635 37.3536 29.4503 37.3536 28.3849V7.45769ZM16.5025 6.8489H23.2753C23.7319 6.8489 24.0363 7.1533 24.0363 7.60989C24.0363 8.06648 23.7319 8.37088 23.2753 8.37088H16.5025C16.0459 8.37088 15.7415 8.06648 15.7415 7.60989C15.7415 7.1533 16.122 6.8489 16.5025 6.8489ZM32.4833 25.9497H25.1017C24.6451 25.9497 24.3407 25.6453 24.3407 25.1887C24.3407 24.7321 24.6451 24.4277 25.1017 24.4277H32.4833C32.9399 24.4277 33.2443 24.7321 33.2443 25.1887C33.2443 25.6453 32.8638 25.9497 32.4833 25.9497ZM32.4833 12.7846H16.5025C16.0459 12.7846 15.7415 12.4802 15.7415 12.0236C15.7415 11.567 16.0459 11.2626 16.5025 11.2626H32.4072C32.8638 11.2626 33.1682 11.567 33.1682 12.0236C33.1682 12.4802 32.8638 12.7846 32.4833 12.7846Z" fill="#005899"/>
</svg>
