<svg width="42" height="34" viewBox="0 0 42 34" fill="none" xmlns="http://www.w3.org/2000/svg">
<path fill-rule="evenodd" clip-rule="evenodd" d="M38.485 0.988281H32.4979H6.51468C5.06148 0.988281 3.89893 2.15084 3.89893 3.60404V15H7.3866V4.47596H32.4979H37.6131V23.8326H24V28.599H38.485C39.9382 28.599 41.1008 27.4365 41.1008 25.9833V3.60404C41.1008 2.15084 39.9382 0.988281 38.485 0.988281ZM21.8714 33.5361C23.1376 32.8647 24 31.533 24 30V29.7578H28.022L28.8939 32.3736H32.4397C32.7885 32.3736 33.021 32.6642 33.021 32.9548C33.021 33.2455 32.7885 33.5361 32.4397 33.5361H21.8714ZM23.874 18H31V15H20C21.8638 15 23.4299 16.2748 23.874 18ZM31 10H14V13H31V10Z" fill="#005899"/>
<path d="M20 17C21.1046 17 22 17.9 22 19V29V30C22 31.1 21.1046 32 20 32H4H2C0.895 32 0 31.1 0 30V29V20V19C0 17.9 0.895 17 2 17H4H18H20ZM19 19H13C12.448 19 12 19.4477 12 20V27.8125C12.705 27.5125 13.3768 27.1062 14.1563 26.9063C14.6187 26.9063 14.8073 26.5875 14.8438 26.1875C14.2009 25.6875 13.855 24.8938 13.625 24.0938C13.2654 23.7938 12.998 22.9938 13.4688 22.5938C13.6996 22.1938 13.7122 21.6875 14.0313 21.1875C14.4533 20.5875 15.2001 20.0937 16 20.0937C16.6655 20.0937 17.2974 20.5063 17.75 20.9063C18.1368 21.4063 18.3558 21.9 18.5 22.5C18.9216 22.9 18.8744 23.5063 18.5625 23.9063C18.2328 24.3063 18.2504 24.8125 18 25.3125C17.8958 25.7125 17.2811 26.0062 17.2813 26.4063C17.1322 27.1062 17.9879 26.8938 18.375 27.0938C18.9149 27.2938 19.618 27.5063 20 27.9062V20C20 19.4477 19.5523 19 19 19ZM10 20H6V21H10V20ZM10 22H3V23H10V22ZM10 24H3V25H10V24Z" fill="#D7DF23"/>
</svg>
