<?xml version="1.0" encoding="UTF-8"?>
<svg width="32px" height="32px" viewBox="0 0 32 32" version="1.1" xmlns="http://www.w3.org/2000/svg" xmlns:xlink="http://www.w3.org/1999/xlink">
    <title>target</title>
    <g id="Page-1" stroke="none" stroke-width="1" fill="none" fill-rule="evenodd">
        <g id="Group-60" transform="translate(-836.000000, -255.000000)" fill="#FFFFFF" fill-rule="nonzero">
            <g id="target" transform="translate(836.000000, 255.000000)">
                <path d="M31.9375441,4.27252394 C31.7971628,3.86944779 31.4465757,3.58844193 31.0222579,3.53936968 L28.7256195,3.27447714 L28.4604819,0.978090617 C28.4116536,0.55377421 28.1308909,0.202944172 27.7275693,0.0625633071 C27.3244918,-0.0780616829 26.8865021,0.0222801225 26.5844991,0.324282038 L22.0446893,4.86407665 C21.8051865,5.10357857 21.6899517,5.4339008 21.7287702,5.77057071 L22.0571404,8.61676195 L21.0459067,9.62823644 C16.0485758,5.31207468 8.46603127,5.52496529 3.72382816,10.2671525 C-1.24127605,15.23224 -1.24127605,23.3110968 3.72382816,28.2761844 C8.68893244,33.2412719 16.7678164,33.2412719 21.7329206,28.2761844 C26.4751237,23.5339972 26.6880151,15.9514782 22.3718388,10.9544082 L23.3833167,9.94293373 L26.2295175,10.2713028 C26.5659444,10.3101212 26.8965119,10.195131 27.1360146,9.95538485 L31.6758245,5.4155903 C31.9778274,5.11358832 32.0779254,4.6756001 31.9375441,4.27252394 L31.9375441,4.27252394 Z M20.4067444,26.9502567 C16.1728438,31.1841431 9.2836609,31.1841431 5.04976028,26.9502567 C0.815859654,22.7161261 0.815859654,15.8272106 5.04976028,11.59308 C9.06051567,7.58258227 15.4536031,7.37115654 19.7155801,10.9585587 L18.0009748,12.6731581 C14.6877314,10.0217911 9.82516662,10.2307755 6.75630883,13.2996229 C3.46332924,16.5925914 3.46332924,21.9507454 6.75630883,25.2437139 C10.0492884,28.5366824 15.4074604,28.5366824 18.70044,25.2437139 C21.7692977,22.1748664 21.9782828,17.312318 19.3269069,13.9990858 L21.0415121,12.2844862 C24.6289263,16.5464489 24.4174998,22.9395148 20.4067444,26.9502567 Z M12.2331335,19.7669076 C12.5993457,20.1331185 13.1930976,20.1331185 13.5593098,19.7669076 L14.8058959,18.5200815 C15.085682,19.2991342 14.9140506,20.20514 14.2910016,20.8281868 C13.4311356,21.6882942 12.0317168,21.6882942 11.1718507,20.8281868 C10.3117405,19.9683236 10.3117405,18.5691538 11.1718507,17.7090464 C11.7946555,17.0859996 12.7009085,16.9143687 13.4797197,17.1941539 L12.2331335,18.44098 C11.8669214,18.8069467 11.8669214,19.4006967 12.2331335,19.7669076 Z M14.8769411,15.7969372 C13.3039378,14.8247693 11.2087161,15.0200817 9.8456745,16.3831188 C8.25460483,17.9741832 8.25460483,20.5632943 9.8456745,22.1543586 C11.4367442,23.7454229 14.025864,23.7456671 15.6169337,22.1543586 C16.9799754,20.7913216 17.1752885,18.6961069 16.2031173,17.123109 L17.9902326,15.3357556 C19.9162643,17.9075327 19.7111855,21.5808723 17.3742637,23.9177862 C14.8124877,26.4795536 10.644017,26.4795536 8.08224095,23.9177862 C5.52046495,21.3560188 5.52046495,17.1875621 8.08224095,14.6257947 C10.4189186,12.2888808 14.0925147,12.0835586 16.6640563,14.0098279 L14.8769411,15.7969372 Z M26.0737553,8.36554122 L23.8869805,8.11309986 L23.6345383,5.92633239 L26.7807889,2.78009243 L26.9394808,4.15387164 C26.9946567,4.63214304 27.3672166,5.00518989 27.846222,5.06085395 L29.2200058,5.21930119 L26.0737553,8.36554122 Z" id="Shape"></path>
            </g>
        </g>
    </g>
</svg>