<?xml version="1.0" encoding="UTF-8"?>
<svg width="34px" height="39px" viewBox="0 0 34 39" version="1.1" xmlns="http://www.w3.org/2000/svg" xmlns:xlink="http://www.w3.org/1999/xlink">
    <title>light-bulb (1)</title>
    <g id="Page-1" stroke="none" stroke-width="1" fill="none" fill-rule="evenodd">
        <g id="Group-60" transform="translate(-121.000000, -16.000000)" fill="#FFFFFF" fill-rule="nonzero">
            <g id="light-bulb-(1)" transform="translate(121.000000, 16.000000)">
                <path d="M17,8 C12.0373796,8 8,12.0373653 8,16.9999616 C8,21.962558 12.0373796,26 17,26 C21.9626204,26 26,21.9626347 26,17.0000384 C26,12.037442 21.9626204,8 17,8 Z M17,24.4654928 C12.88037,24.4654928 9.52881822,21.1165075 9.52881822,17.0000384 C9.52881822,12.8835693 12.8804464,9.53458396 17,9.53458396 C21.1195536,9.53458396 24.4711818,12.8835693 24.4711818,17.0000384 C24.4711818,21.1165075 21.11963,24.4654928 17,24.4654928 Z" id="Shape"></path>
                <path d="M17.0000391,4 C9.83183783,4 4,9.68061546 4,16.6629653 C4,22.5202349 8.13054948,27.5961733 13.9113948,28.9663516 L13.9113948,30.7437521 L13.2301912,30.7437521 C12.7983191,30.7437521 12.4480976,31.0861246 12.4480976,31.5084886 L12.4480976,35.3781316 C12.4480976,35.8004955 12.7983191,36.1428681 13.2301912,36.1428681 L14.4427492,36.1428681 L14.4427492,38.2352635 C14.4427492,38.6576275 14.7929708,39 15.2248429,39 L18.7751571,39 C19.2070292,39 19.5572508,38.6576275 19.5572508,38.2352635 L19.5572508,36.1429445 L20.7698088,36.1429445 C21.2016809,36.1429445 21.5519024,35.800572 21.5519024,35.3782081 L21.5519024,31.508565 C21.5519024,31.0862011 21.2016809,30.7438286 20.7698088,30.7438286 L20.0886052,30.7438286 L20.0886052,28.9664281 C25.8694505,27.5962497 30,22.5203114 30,16.6630418 C30,9.68061546 24.1682404,4 17.0000391,4 Z M17.9930634,37.4705271 L16.0069366,37.4705271 L16.0069366,36.1429445 L17.9930634,36.1429445 L17.9930634,37.4705271 Z M19.9877151,34.6134716 L14.0123631,34.6134716 L14.0123631,32.2733015 L19.9877151,32.2733015 L19.9877151,34.6134716 Z M19.1603382,27.5983145 C18.7913464,27.6669114 18.5244179,27.9822887 18.5244179,28.3495916 L18.5244179,30.7438286 L15.4756603,30.7438286 L15.4756603,28.3495152 C15.4756603,27.9822887 15.2087318,27.6669114 14.83974,27.598238 C9.46511411,26.5982686 5.56418733,21.9993729 5.56418733,16.6629653 C5.56418733,10.5238904 10.6943307,5.52947294 17.0000391,5.52947294 C23.3057475,5.52947294 28.4358909,10.5239668 28.4358909,16.6629653 C28.4358909,21.9993729 24.5349641,26.5983451 19.1603382,27.5983145 L19.1603382,27.5983145 Z" id="Shape"></path>
                <path d="M17.5,3 C17.7761,3 18,2.62210905 18,2.1559282 L18,0.844071802 C18,0.377890946 17.7761,0 17.5,0 C17.2239,0 17,0.377890946 17,0.844071802 L17,2.1559282 C17,2.62202465 17.2239,3 17.5,3 Z" id="Path"></path>
                <path d="M33.157398,16 L31.842602,16 C31.3773172,16 31,16.22385 31,16.5 C31,16.77615 31.3773172,17 31.842602,17 L33.157398,17 C33.6226828,17 34,16.77615 34,16.5 C34,16.22385 33.6227671,16 33.157398,16 Z" id="Path"></path>
                <path d="M2.15739805,16 L0.842601955,16 C0.377317155,16 0,16.22385 0,16.5 C0,16.77615 0.377317155,17 0.842601955,17 L2.15739805,17 C2.62268284,17 3,16.77615 3,16.5 C3,16.22385 2.6227671,16 2.15739805,16 L2.15739805,16 Z" id="Path"></path>
                <path d="M27.6444578,7 C27.8089855,7 27.9734487,6.93733593 28.0992451,6.81187871 L28.8103295,6.10263243 C29.0625021,5.85113718 29.0633399,5.44249774 28.8121339,5.18996992 C28.5610568,4.93737757 28.1529276,4.93660314 27.9007549,5.18809839 L27.1896705,5.89734467 C26.9374979,6.14883992 26.9366601,6.55747936 27.1878661,6.81000718 C27.3137269,6.93669057 27.4790279,7 27.6444578,7 Z" id="Path"></path>
                <path d="M5.90075494,27.1881337 L5.18967053,27.8973914 C4.93749786,28.1488907 4.93666007,28.5575368 5.18786608,28.8100687 C5.31372686,28.9366896 5.47909233,29 5.6444578,29 C5.80898548,29 5.97344872,28.9373349 6.09924506,28.8118757 L6.81032947,28.102618 C7.06250214,27.8511186 7.06333993,27.4424726 6.81213392,27.1899407 C6.56105681,26.9374088 6.15292761,26.9365698 5.90075494,27.1881337 L5.90075494,27.1881337 Z" id="Path"></path>
                <path d="M28.0992475,27.1880983 C27.8471331,26.9366675 27.438994,26.9373129 27.1878464,27.1899698 C26.9366988,27.4424976 26.9374721,27.8511371 27.1896509,28.1026324 L27.9007525,28.8118787 C28.0264875,28.9372714 28.1910191,29 28.3555508,29 C28.5208558,29 28.6862898,28.9366906 28.8121536,28.8100717 C29.0633012,28.5575439 29.0625279,28.1489044 28.8103491,27.8974091 L28.0992475,27.1880983 Z" id="Path"></path>
                <path d="M5.90075254,6.81187491 C6.02648747,6.93727013 6.19101915,7 6.35555082,7 C6.52085585,7 6.68628977,6.93668929 6.8121536,6.81006788 C7.06330124,6.55753496 7.06252789,6.14888727 6.8103491,5.89738694 L6.09924746,5.18812632 C5.84706868,4.936626 5.43892959,4.9373359 5.1878464,5.18999789 C4.93669876,5.44253081 4.93747211,5.85117851 5.1896509,6.10267884 L5.90075254,6.81187491 Z" id="Path"></path>
            </g>
        </g>
    </g>
</svg>