<?xml version="1.0" encoding="UTF-8"?>
<svg width="26px" height="35px" viewBox="0 0 26 35" version="1.1" xmlns="http://www.w3.org/2000/svg" xmlns:xlink="http://www.w3.org/1999/xlink">
    <title>Group</title>
    <defs>
        <filter x="-4.1%" y="-5.5%" width="108.3%" height="110.9%" filterUnits="objectBoundingBox" id="filter-1">
            <feOffset dx="0" dy="2" in="SourceAlpha" result="shadowOffsetOuter1"></feOffset>
            <feGaussianBlur stdDeviation="2" in="shadowOffsetOuter1" result="shadowBlurOuter1"></feGaussianBlur>
            <feColorMatrix values="0 0 0 0 0   0 0 0 0 0   0 0 0 0 0  0 0 0 0.5 0" type="matrix" in="shadowBlurOuter1" result="shadowMatrixOuter1"></feColorMatrix>
            <feMerge>
                <feMergeNode in="shadowMatrixOuter1"></feMergeNode>
                <feMergeNode in="SourceGraphic"></feMergeNode>
            </feMerge>
        </filter>
    </defs>
    <g id="Final" stroke="none" stroke-width="1" fill="none" fill-rule="evenodd">
        <g id="CSR-Page03" transform="translate(-1142.000000, -328.000000)" fill="#FFFFFF" fill-rule="nonzero">
            <g id="Group-18" filter="url(#filter-1)" transform="translate(1081.000000, 201.000000)">
                <g id="Group-15" transform="translate(44.000000, 129.000000)">
                    <g id="Group" transform="translate(21.000000, 0.000000)">
                        <path d="M9.5,24 C9.776365,24 10,23.7615106 10,23.4673604 L10,14.5326396 C10,14.2384894 9.776365,14 9.5,14 C9.223635,14 9,14.2384894 9,14.5326396 L9,23.4673551 C9,23.7615053 9.223635,24 9.5,24 Z" id="Path"></path>
                        <path d="M12.5764354,23.9987009 C12.5916064,23.9994782 12.6067837,24 12.6219547,24 C12.9448473,24 13.2173666,23.7863058 13.2410337,23.5060655 C14.2765299,11.2938412 13.9192616,15.5058422 13.9966768,14.5946672 C13.9972859,14.5923299 13.9972859,14.5902481 13.9972859,14.5879055 C13.997895,14.5837474 13.9984978,14.5795839 13.9984978,14.5754258 C14.0222084,14.3018087 13.7623368,14.0223989 13.4237263,14.0016775 C13.0169486,13.9779905 12.8068599,14.2078912 12.7585189,14.5184897 L12.7573069,14.5182288 C12.7566979,14.5239469 12.756095,14.529665 12.756095,14.5353884 C12.7554859,14.5400683 12.7548831,14.5444873 12.754274,14.5491672 L12.7554859,14.5491672 C12.7554859,14.5574888 12.7554859,14.566066 12.7554859,14.5743823 C12.7394386,14.6885899 12.7266106,14.8780168 12.0016638,23.4291107 C11.9767723,23.7223578 12.2341144,23.9773831 12.5764354,23.9987009 Z" id="Path"></path>
                        <path d="M5.3780978,24 C5.39326757,24 5.40844356,23.999478 5.42361334,23.9987003 C5.76589965,23.9773727 6.02322031,23.7222299 5.99833715,23.428853 L5.24093593,14.4938428 C5.21605278,14.2004659 4.9217119,13.9835519 4.57638666,14.0009804 C4.23410035,14.022308 3.97677969,14.2774508 4.00166285,14.5708277 L4.75906407,23.5058379 C4.78273538,23.7862074 5.05523203,24 5.3780978,24 Z" id="Path"></path>
                        <path d="M0.367086631,13.1887531 C0.414231714,13.4447654 0.635817359,13.6303814 0.894592316,13.6303814 L1.11309897,13.6303814 L2.21571137,25.7626503 C2.27018918,26.4563383 2.85374435,27 3.54468883,27 L14.4284711,27 C15.1199359,27 15.703491,26.4560737 15.7564025,25.7695026 L16.8600234,13.6303868 L17.0890383,13.6303868 C17.3478133,13.6303868 17.5693989,13.4447708 17.616544,13.1887585 L17.9596587,11.3254822 C18.0371861,10.9036277 17.9245614,10.472016 17.6511156,10.1408609 C17.3766238,9.80865291 16.9737906,9.61829059 16.5468672,9.61829059 L16.2674297,9.61829059 L17.9146056,5.4050218 C18.1623788,4.77408416 17.8527951,4.05350549 17.2210435,3.796964 L7.86058543,0.0872746504 C7.5735202,-0.0268919837 7.26969753,-0.0321621268 6.95172435,0.089909722 C6.64318127,0.216727939 6.40169481,0.461406211 6.26916397,0.786232775 L2.81422166,9.61828519 L1.43623241,9.61828519 C1.00930361,9.61828519 0.606996044,9.80864751 0.332504272,10.1405963 C0.0590584991,10.4717514 -0.053566164,10.9036277 0.0239611867,11.3257414 L0.367086631,13.1887531 Z M14.687246,25.6785494 C14.6767699,25.8161779 14.5651913,25.9200634 14.4284711,25.9200634 L3.54468347,25.9200634 C3.40743758,25.9200634 3.29585892,25.8159187 3.28486251,25.6709034 L2.19056446,13.6303868 L15.7825901,13.6303868 L14.687246,25.6785494 Z M16.9167005,5.00899971 L15.1146951,9.61828519 L9.9034228,9.61828519 L7.86775723,1.25090172 L16.823982,4.80044567 C16.9083164,4.83445862 16.9491747,4.92594636 16.9167005,5.00899971 Z M6.94596331,2.00331724 L8.79877741,9.61828519 L3.96741753,9.61828519 L6.94596331,2.00331724 Z M1.15755664,10.8313793 C1.22722558,10.7467438 1.32885383,10.6982325 1.43623777,10.6982325 C7.55283087,10.6982325 12.1341056,10.6982325 16.5468672,10.6982325 C16.6542565,10.6982325 16.756405,10.7467438 16.826074,10.8316438 C16.8669323,10.8806842 16.9313659,10.984829 16.9046473,11.1290505 L16.642729,12.550434 C11.8520558,12.550434 6.91862785,12.550434 1.34089624,12.550434 L1.07897792,11.1293097 C1.0522647,10.9845644 1.11669828,10.8804197 1.15755664,10.8313793 Z" id="Shape"></path>
                    </g>
                </g>
            </g>
        </g>
    </g>
</svg>