<?xml version="1.0" encoding="UTF-8"?>
<svg width="40px" height="34px" viewBox="0 0 40 34" version="1.1" xmlns="http://www.w3.org/2000/svg" xmlns:xlink="http://www.w3.org/1999/xlink">
    <title>Shape</title>
    <defs>
        <filter x="-4.1%" y="-5.5%" width="108.3%" height="110.9%" filterUnits="objectBoundingBox" id="filter-1">
            <feOffset dx="0" dy="2" in="SourceAlpha" result="shadowOffsetOuter1"></feOffset>
            <feGaussianBlur stdDeviation="2" in="shadowOffsetOuter1" result="shadowBlurOuter1"></feGaussianBlur>
            <feColorMatrix values="0 0 0 0 0   0 0 0 0 0   0 0 0 0 0  0 0 0 0.5 0" type="matrix" in="shadowBlurOuter1" result="shadowMatrixOuter1"></feColorMatrix>
            <feMerge>
                <feMergeNode in="shadowMatrixOuter1"></feMergeNode>
                <feMergeNode in="SourceGraphic"></feMergeNode>
            </feMerge>
        </filter>
    </defs>
    <g id="Final" stroke="none" stroke-width="1" fill="none" fill-rule="evenodd">
        <g id="CSR-Page03" transform="translate(-1135.000000, -224.000000)" fill="#FFFFFF" fill-rule="nonzero">
            <g id="Group-18" filter="url(#filter-1)" transform="translate(1081.000000, 201.000000)">
                <g id="Group-13" transform="translate(46.000000, 25.000000)">
                    <path d="M43.6681068,4.66193377 L28.1824025,0.0197833861 C28.081896,-0.00659446202 27.9762613,-0.00659446202 27.8757548,0.0197833861 L12.3900505,4.66193377 C12.1598057,4.72436513 12,4.93292717 12,5.17098776 C12,5.40904834 12.1598057,5.61761039 12.3900505,5.68004175 L16.661969,6.73507592 L16.661969,12.3320322 C16.6643691,12.9656518 17.1014661,13.5151589 17.7193745,13.6613753 L27.8810419,15.845296 L27.9920695,15.845296 L28.103097,15.845296 L33.8448092,14.6161812 L33.8448092,19.8649763 L33.1204864,19.8649763 C32.8284919,19.8649763 32.5917836,20.1011537 32.5917836,20.3924933 L32.5917836,25.4724829 C32.5917836,25.7638226 32.8284919,26 33.1204864,26 L35.6635467,26 C35.9555412,26 36.1922495,25.7638226 36.1922495,25.4724829 L36.1922495,20.3924933 C36.1922495,20.1011537 35.9555412,19.8649763 35.6635467,19.8649763 L34.9022147,19.8649763 L34.9022147,14.3840737 L38.2806255,13.6613753 C38.8985339,13.5151589 39.3356309,12.9656518 39.338031,12.3320322 L39.338031,6.75090144 L43.6099495,5.69586726 C43.8401943,5.6334359 44,5.42487385 44,5.18681327 C44,4.94875269 43.8401943,4.74019064 43.6099495,4.67775928 L43.6681068,4.66193377 Z M35,25 L34,25 L34,21 L35,21 L35,25 Z M28.2200341,15 L18.2364567,12.7837838 C18.0979688,12.7531054 17.9993143,12.6268099 18,12.4810811 L18,7 L28.1149438,9.12432432 L28.2200341,9.12432432 L28.3251244,9.12432432 L34,7.92972973 L34,13.7135135 L28.2200341,15 Z M38,12.0742285 C38.0006069,12.2091401 37.9132806,12.3260609 37.7906947,12.3544621 L35,13 L35,7.65554629 L37.9860433,7 L38,12.0742285 Z M38.2132785,5.7964939 L34.1627497,6.62881098 C34.1325891,6.6025641 34.0987291,6.58098681 34.0622797,6.56478659 L27.6956522,3.99314024 C27.4255176,3.88323773 27.1181626,4.01443988 27.0082256,4.28658537 C26.9545393,4.41879488 26.9556511,4.5672065 27.011312,4.69858209 C27.0669729,4.82995768 27.1725318,4.93331934 27.3043478,4.98551829 L32.3119859,7.00228659 L27.5,8 L16.7920094,5.7964939 L14,5.08689024 L27.5,1 L41,5.08689024 L38.2132785,5.7964939 Z" id="Shape"></path>
                </g>
            </g>
        </g>
    </g>
</svg>