<?xml version="1.0" encoding="UTF-8"?>
<svg width="225px" height="48px" viewBox="0 0 225 48" version="1.1" xmlns="http://www.w3.org/2000/svg" xmlns:xlink="http://www.w3.org/1999/xlink">
    <title>Group 52</title>
    <defs>
        <polygon id="path-1" points="0 48 225 48 225 0 0 0"></polygon>
    </defs>
    <g id="Final" stroke="none" stroke-width="1" fill="none" fill-rule="evenodd">
        <g id="CSR-Page03" transform="translate(-1084.000000, -136.000000)">
            <g id="Group-52" transform="translate(1084.000000, 136.000000)">
                <path d="M101,33 L225,33 L225,0 L101,0 L101,33 Z M101.866055,32.1320017 L224.133945,32.1320017 L224.133945,0.868866696 L101.866055,0.868866696 L101.866055,32.1320017 Z" id="Fill-1" fill="#9E1A1E"></path>
                <polygon id="Fill-2" fill="#9E1A1E" points="0 33 103 33 103 0 0 0"></polygon>
                <polygon id="Fill-3" fill="#FFFFFF" points="109 27 113 27 113 5 109 5"></polygon>
                <polygon id="Fill-4" fill="#FFFFFF" points="117 5 123.596832 5 127.591121 16.8742819 131.433685 5 138 5 138 27 133.521307 27 133.521307 10.8301438 129.678742 22.3052023 125.321258 22.3052023 121.478693 10.8301438 121.478693 27 117 27"></polygon>
                <g id="Group-51">
                    <path d="M147.058107,9.28390635 L147.058107,15.6651987 L149.9008,15.6651987 C150.817826,15.6651987 151.582014,15.6300675 152.193365,15.558504 C152.804715,15.4873743 153.304043,15.3347056 153.691347,15.1004979 C154.078217,14.8667239 154.353499,14.5201832 154.516757,14.0626108 C154.679581,13.6041709 154.761211,12.9887251 154.761211,12.2149723 C154.761211,11.6042974 154.700423,11.1055218 154.577545,10.7190791 C154.455535,10.3322027 154.226279,10.0320698 153.889776,9.81824688 C153.553706,9.60399021 153.084773,9.46216443 152.483843,9.39060097 C151.882479,9.31947123 151.113081,9.28390635 150.176082,9.28390635 L147.058107,9.28390635 Z M142.5342,5.52790885 L150.817826,5.52790885 C151.958898,5.52790885 153.043958,5.58429218 154.073441,5.69619141 C155.102056,5.80809065 156.009095,6.09304334 156.794125,6.55061579 C157.578286,7.00905567 158.200057,7.69606491 158.65857,8.61207724 C159.117083,9.52765584 159.346339,10.7906425 159.346339,12.398435 C159.346339,13.945507 159.132714,15.1820368 158.704161,16.1080247 C158.276476,17.0344462 157.695519,17.7414065 156.962159,18.2302066 C156.228365,18.7185731 155.372561,19.0390906 154.394748,19.1921931 C153.4165,19.3444281 152.387017,19.4207624 151.307167,19.4207624 L147.058107,19.4207624 L147.058107,27.4206902 L142.5342,27.4206902 L142.5342,5.52790885 Z" id="Fill-5" fill="#FFFFFF"></path>
                    <path d="M169.128425,10.5355296 C168.496667,11.9607268 167.9105,13.3807194 167.370792,14.7950737 C166.83065,16.2102954 166.326547,17.619445 165.858047,19.0238238 L172.368843,19.0238238 C171.89991,17.619445 171.395372,16.2102954 170.855664,14.7950737 C170.315088,13.3807194 169.739776,11.9607268 169.128425,10.5355296 L169.128425,10.5355296 Z M174.875033,27.4210371 C174.671394,26.6472843 174.457335,25.8739652 174.233289,25.1002123 C174.008808,24.3268932 173.785197,23.5535741 173.560716,22.7793876 L164.66574,22.7793876 C164.44126,23.5535741 164.222424,24.3268932 164.008365,25.1002123 C163.794739,25.8739652 163.585022,26.6472843 163.381817,27.4210371 L158.582629,27.4210371 C159.682886,23.7366031 160.895166,20.082963 162.220338,16.4592495 C163.544641,12.8364034 165.021782,9.1918714 166.652629,5.5278221 L171.726665,5.5278221 C173.356643,9.15153563 174.839429,12.7752492 176.174587,16.3980953 C177.508877,20.0218088 178.726802,23.6958336 179.827493,27.4210371 L174.875033,27.4210371 Z" id="Fill-7" fill="#FFFFFF"></path>
                    <path d="M200.093024,20.2454771 C200.011829,21.3245674 199.79256,22.3264559 199.435649,23.2511426 C199.079173,24.1753955 198.52861,24.9868818 197.784829,25.6834329 C197.041048,26.3795502 196.088418,26.9251674 194.926939,27.3189833 C193.76546,27.7123655 192.33912,27.9092734 190.647485,27.9092734 C188.996665,27.9092734 187.549484,27.6958842 186.307244,27.2682383 C185.063702,26.8405924 184.029877,26.1744016 183.204032,25.2683648 C182.379057,24.3627617 181.756851,23.1921569 181.339587,21.7565505 C180.921889,20.3218115 180.71304,18.5964815 180.71304,16.5814278 C180.71304,12.6528106 181.522819,9.74690027 183.143245,7.8636969 C184.763237,5.98136097 187.274637,5.03932557 190.677879,5.03932557 C193.388576,5.03932557 195.543066,5.62007391 197.143085,6.7815706 C198.743103,7.94263357 199.726127,9.78463373 200.093024,12.3062699 L195.569118,12.3062699 C195.446674,11.8179035 195.293836,11.365102 195.11017,10.9474316 C194.926939,10.5306286 194.662078,10.1645707 194.315588,9.84839027 C193.968664,9.53351104 193.510586,9.28889411 192.94005,9.11584064 C192.369514,8.94278718 191.615312,8.85604359 190.677879,8.85604359 C189.740446,8.85604359 188.935878,9.00480885 188.263305,9.30103821 C187.590733,9.59726758 187.035394,10.0669841 186.597288,10.7110553 C186.158749,11.3551265 185.8331,12.1930695 185.619475,13.2248846 C185.405415,14.2571333 185.298603,15.5088433 185.298603,16.9804484 C185.298603,18.12503 185.384574,19.1364603 185.557819,20.0156066 C185.731064,20.8943192 186.026318,21.6351095 186.444451,22.2384111 C186.861715,22.8412791 187.417488,23.3005864 188.110468,23.6172005 C188.803013,23.9342484 189.679659,24.0925554 190.739535,24.0925554 C192.247504,24.0925554 193.383366,23.8128073 194.147988,23.2528774 C194.911742,22.6929476 195.385452,21.6910591 195.569118,20.2454771 L200.093024,20.2454771 Z" id="Fill-9" fill="#FFFFFF"></path>
                    <polygon id="Fill-11" fill="#FFFFFF" points="207.887787 9.3448871 201.284941 9.3448871 201.284941 5.52773536 218.984146 5.52773536 218.984146 9.3448871 212.411694 9.3448871 212.411694 27.4209504 207.887787 27.4209504"></polygon>
                    <mask id="mask-2" fill="white">
                        <use xlink:href="#path-1"></use>
                    </mask>
                    <g id="Clip-14"></g>
                    <polygon id="Fill-13" fill="#FFFFFF" mask="url(#mask-2)" points="30.3764784 27.5575715 34.9590021 27.5575715 34.9590021 5.38200613 30.3764784 5.38200613"></polygon>
                    <path d="M43.9689973,9.1864933 L43.9689973,15.0317102 L48.0869293,15.0317102 C49.0161126,15.0317102 49.7898531,14.9961453 50.4094534,14.9237144 C51.0286194,14.8512835 51.5340257,14.7072892 51.9265405,14.4908639 C52.3181869,14.2740049 52.5969419,13.9599931 52.7623713,13.5470936 C52.9273664,13.1350616 53.0102982,12.5781677 53.0102982,11.8768458 C53.0102982,11.3203856 52.9482079,10.8671504 52.8244615,10.5158388 C52.700281,10.1658284 52.4684193,9.89301985 52.1275741,9.69654562 C51.787163,9.50093882 51.317361,9.36691997 50.7190364,9.29448907 C50.1202776,9.22249189 49.3356822,9.1864933 48.3656843,9.1864933 L43.9689973,9.1864933 Z M39.3864737,5.3823531 L49.0161126,5.3823531 C50.1719472,5.3823531 51.2709018,5.42355631 52.3134107,5.50596272 C53.3554855,5.58836913 54.274248,5.8412267 55.06883,6.26366799 C55.863412,6.68610928 56.493433,7.34622801 56.9580247,8.24272303 C57.4221821,9.14008548 57.6544779,10.4030722 57.6544779,12.0316831 C57.6544779,13.1246523 57.5463627,14.0471704 57.3292638,14.7996711 C57.1125991,15.5526055 56.8130026,16.1867011 56.4313427,16.7019581 C56.0492486,17.2176487 55.5955119,17.6192715 55.06883,17.907694 C54.5430165,18.1969839 53.9594546,18.4134091 53.3198812,18.5578372 L59.109909,27.5574848 L53.5365459,27.5574848 L48.0869293,18.8358504 L43.9689973,18.8358504 L43.9689973,27.5574848 L39.3864737,27.5574848 L39.3864737,5.3823531 Z" id="Fill-15" fill="#FFFFFF" mask="url(#mask-2)"></path>
                    <path d="M65.023162,20.6296211 C65.0644108,21.2073334 65.141698,21.7178195 65.2554579,22.1606455 C65.3683493,22.604339 65.585014,22.9751678 65.905452,23.2744332 C66.2250216,23.5732649 66.7052443,23.8000994 67.3452519,23.954503 C67.9848253,24.1089066 68.8519183,24.1865421 69.9460968,24.1865421 C70.5235798,24.1865421 71.0606825,24.1557481 71.5561022,24.0937265 C72.0515219,24.0321385 72.4744306,23.9076614 72.8256966,23.7220302 C73.1765284,23.5363989 73.4548492,23.2731321 73.6615274,22.9322298 C73.8677713,22.5908937 73.9711104,22.1415619 73.9711104,21.5842344 C73.9711104,20.9028634 73.7904841,20.3611497 73.4292315,19.957792 C73.067979,19.5553018 72.3923672,19.2200378 71.4015278,18.9515664 L66.0140014,17.4951415 C65.3327451,17.3099439 64.6875271,17.0826757 64.0787818,16.8137705 C63.4696023,16.5452991 62.9329338,16.1788075 62.4687764,15.7142955 C62.0041847,15.2497836 61.6325114,14.6716376 61.3541906,13.9798574 C61.0754356,13.2876436 60.9360581,12.4353878 60.9360581,11.4235238 C60.9360581,10.6185432 61.0493837,9.82874285 61.2764692,9.05412258 C61.5035546,8.27950231 61.9216871,7.58251755 62.5308666,6.96273459 C63.1391778,6.34338535 63.9858635,5.84244111 65.0696212,5.46033559 C66.1529447,5.07866379 67.5514959,4.88739417 69.2652746,4.88739417 C70.8952532,4.88739417 72.2629762,5.06651968 73.3675755,5.42390328 C74.4717405,5.78258803 75.3540304,6.26791842 76.0148795,6.88162933 C76.6752943,7.49534024 77.1550829,8.22875731 77.4546794,9.08188053 C77.7534075,9.93543747 77.9136265,10.8566544 77.934468,11.8459651 L73.3519443,11.8459651 C73.2898541,11.3927298 73.2229876,10.9750594 73.1509108,10.5933876 C73.0783997,10.2121495 72.9029838,9.88252388 72.6242288,9.60364323 C72.345908,9.3251963 71.9325517,9.11440938 71.3858967,8.96954758 C70.8388074,8.82555322 70.0698431,8.75312232 69.0790037,8.75312232 C67.9027619,8.75312232 67.0248139,8.89841783 66.4473308,9.18727399 C65.8694136,9.47613015 65.580672,10.0651191 65.580672,10.9525061 C65.580672,11.758354 65.7916922,12.3213199 66.2154692,12.6409701 C66.6379437,12.9610539 67.1798225,13.2035023 67.8406716,13.3687488 L72.7944344,14.7011304 C73.5785956,14.9080138 74.3275868,15.1561005 75.039237,15.4449567 C75.7513214,15.7338128 76.3709217,16.1206893 76.8971694,16.6064534 C77.4234172,17.09135 77.8415496,17.7007238 78.1511327,18.4341408 C78.4607157,19.1675579 78.6157243,20.0913771 78.6157243,21.2060323 C78.6157243,22.2391485 78.4763468,23.1321737 78.1975918,23.8859755 C77.9188369,24.6397774 77.5523739,25.2699695 77.0986372,25.7756847 C76.6444663,26.2818335 76.1177844,26.6843238 75.5194598,26.9840229 C74.9202668,27.283722 74.3011007,27.5105565 73.6615274,27.6653938 C73.0215198,27.8193637 72.3815122,27.9230223 71.7419389,27.9750684 C71.1019313,28.0266809 70.5031725,28.0522702 69.9460968,28.0522702 C68.1294131,28.0522702 66.6279571,27.883554 65.4408603,27.5465551 C64.2541977,27.2091225 63.2993968,26.7181538 62.5773258,26.0736489 C61.8543865,25.429144 61.3333491,24.6501866 61.0133453,23.734608 C60.6933415,22.8194631 60.5027287,21.784612 60.4406384,20.6296211 L65.023162,20.6296211 Z" id="Fill-16" fill="#FFFFFF" mask="url(#mask-2)"></path>
                    <polygon id="Fill-17" fill="#FFFFFF" mask="url(#mask-2)" points="86.5112641 9.24834148 79.8233153 9.24834148 79.8233153 5.38217961 97.7504742 5.38217961 97.7504742 9.24834148 91.0937877 9.24834148 91.0937877 27.557745 86.5112641 27.557745"></polygon>
                    <polygon id="Fill-18" fill="#FFFFFF" mask="url(#mask-2)" points="5.1439414 10.7835296 27.3271073 10.7835296 27.3271073 5.2436501 5.1439414 5.2436501"></polygon>
                    <polygon id="Fill-19" fill="#FFFFFF" mask="url(#mask-2)" points="5.1439414 27.4044691 10.6895158 27.4044691 10.6895158 21.8645896 5.1439414 21.8645896"></polygon>
                    <polygon id="Fill-20" fill="#FFFFFF" mask="url(#mask-2)" points="5.1439414 19.0935656 18.9883384 19.0935656 18.9883384 13.5367712 5.1439414 13.5367712"></polygon>
                    <path d="M6.58473997,44.753491 L6.58473997,46.6245502 L7.90253031,46.6245502 C8.23946781,46.6245502 8.51344662,46.614141 8.72533515,46.5946237 C8.93635529,46.5746727 9.10178465,46.5339032 9.22032065,46.4705804 C9.33929085,46.408125 9.42222263,46.3170442 9.4682476,46.1986392 C9.51470676,46.0798005 9.53771925,45.9184574 9.53771925,45.7137425 C9.53771925,45.5025219 9.51774615,45.3325045 9.47823415,45.2036902 C9.43872215,45.074876 9.36751371,44.9781569 9.26504302,44.911798 C9.16257234,44.8458729 9.02406324,44.8029348 8.84908153,44.7829838 C8.67409981,44.7634665 8.45439572,44.753491 8.18996926,44.753491 L6.58473997,44.753491 Z M6.58473997,41.9620822 L6.58473997,43.5360447 L8.22991546,43.5360447 C8.44744856,43.5360447 8.62764065,43.5260692 8.76962333,43.5065519 C8.91160601,43.4866008 9.02406324,43.4466988 9.10656083,43.3877131 C9.18905841,43.3282938 9.24680672,43.2441525 9.28023995,43.1352893 C9.31280478,43.0264261 9.3297385,42.8798294 9.3297385,42.6946318 C9.3297385,42.54977 9.31627837,42.4291964 9.2897923,42.3333448 C9.26330623,42.2379268 9.20208434,42.1615925 9.10656083,42.1060766 C9.01060311,42.050127 8.87209401,42.0119598 8.69059933,41.9920087 C8.50867045,41.9720577 8.26248029,41.9620822 7.95202886,41.9620822 L6.58473997,41.9620822 Z M8.58639185,40.7450696 C9.28675291,40.7450696 9.82168461,40.8834256 10.1916211,41.1605714 C10.5615577,41.4377172 10.7465259,41.9126384 10.7465259,42.5857686 C10.7465259,42.8633481 10.7183031,43.0871466 10.6622916,43.2588989 C10.60628,43.4306512 10.5368084,43.569441 10.4543108,43.6748344 C10.371379,43.7802279 10.2841053,43.8595983 10.1916211,43.9125119 C10.099137,43.9654255 10.0131658,44.0079298 9.93414184,44.0404587 C10.1521091,44.1267685 10.331867,44.2304271 10.4742839,44.3527356 C10.6158324,44.4746103 10.726987,44.6116652 10.806011,44.7634665 C10.885035,44.9152678 10.9414807,45.0787794 10.9744798,45.2531341 C11.0074788,45.4283561 11.0239783,45.6083491 11.0239783,45.7926792 C11.0239783,46.0828365 10.9857689,46.3534765 10.9097843,46.6045992 C10.8342339,46.8552882 10.7018036,47.0730146 10.5137959,47.2573447 C10.3253541,47.4425423 10.0691774,47.5856692 9.74569999,47.6884604 C9.42222263,47.7908178 9.01581348,47.8415628 8.52690676,47.8415628 L5.11845399,47.8415628 L5.11845399,40.7450696 L8.58639185,40.7450696 Z" id="Fill-21" fill="#FFFFFF" mask="url(#mask-2)"></path>
                    <polygon id="Fill-22" fill="#FFFFFF" mask="url(#mask-2)" points="12.3713375 40.7449829 17.6129734 40.7449829 17.6129734 41.9624292 13.8376235 41.9624292 13.8376235 43.5164406 17.3259687 43.5164406 17.3259687 44.7334532 13.8376235 44.7334532 13.8376235 46.6244635 17.7714556 46.6244635 17.7714556 47.8414761 12.3713375 47.8414761"></polygon>
                    <path d="M24.8666386,45.5154467 C24.8401525,45.8654571 24.7689441,46.1903118 24.6534474,46.4900109 C24.5379508,46.78971 24.3594955,47.0525431 24.1185157,47.2780765 C23.8771018,47.5040435 23.5683871,47.6810004 23.1919376,47.8085135 C22.8154881,47.9360266 22.3530675,48.0002169 21.8046756,48.0002169 C21.2697439,48.0002169 20.8003761,47.9303883 20.3978747,47.7920322 C19.994505,47.6536762 19.6593043,47.4376847 19.3918384,47.1440576 C19.1243726,46.8499968 18.9229048,46.4704936 18.7874351,46.005548 C18.6519654,45.5406023 18.5842305,44.9811062 18.5842305,44.3279269 C18.5842305,43.054531 18.8469202,42.1124956 19.3722995,41.5018207 C19.8972447,40.8920133 20.7113656,40.5866758 21.8146622,40.5866758 C22.6930443,40.5866758 23.3916686,40.7744757 23.9101008,41.1509429 C24.4289672,41.5278438 24.7476684,42.1246397 24.8666386,42.942198 L23.3999184,42.942198 C23.3604064,42.783891 23.3109078,42.6368606 23.2514227,42.5019743 C23.1919376,42.3666543 23.1059665,42.2478156 22.9939434,42.1454582 C22.8814862,42.0431007 22.7325563,41.9641641 22.5480223,41.9082144 C22.3626198,41.8518311 22.1181665,41.8236394 21.8146622,41.8236394 C21.5107237,41.8236394 21.2497708,41.8717821 21.0318035,41.9676338 C20.8138362,42.0639192 20.6336442,42.2165879 20.4916615,42.4252062 C20.3496788,42.6333909 20.2441687,42.905332 20.1746971,43.2397286 C20.1052254,43.5745588 20.0709238,43.9800851 20.0709238,44.4571749 C20.0709238,44.8284374 20.0987125,45.1563282 20.154724,45.4408472 C20.2107355,45.7257999 20.3066932,45.9660796 20.4421629,46.1616864 C20.5776326,46.3572932 20.7578247,46.5060585 20.982305,46.6088497 C21.2067853,46.7116408 21.4907506,46.7628195 21.8346353,46.7628195 C22.3231078,46.7628195 22.6917418,46.6721725 22.9392345,46.4904447 C23.1871614,46.3091505 23.3404333,45.9842958 23.3999184,45.5154467 L24.8666386,45.5154467 Z" id="Fill-23" fill="#FFFFFF" mask="url(#mask-2)"></path>
                    <path d="M28.7406816,42.3680422 C28.5357403,42.8299518 28.3459958,43.2901266 28.1710141,43.7490002 C27.9960324,44.2074401 27.8323398,44.6645788 27.6803706,45.1199827 L29.7910061,45.1199827 C29.6390369,44.6645788 29.4753443,44.2074401 29.3007968,43.7490002 C29.1253809,43.2901266 28.93911,42.8299518 28.7406816,42.3680422 L28.7406816,42.3680422 Z M30.6033902,47.8415628 C30.5373922,47.5908739 30.4679205,47.3401849 30.3954095,47.0894959 C30.3228984,46.8388069 30.2499532,46.5881179 30.1774422,46.3369952 L27.2939345,46.3369952 C27.2214235,46.5881179 27.1502151,46.8388069 27.0807434,47.0894959 C27.011706,47.3401849 26.9435369,47.5908739 26.877973,47.8415628 L25.3222423,47.8415628 C25.6787187,46.6471036 26.0721019,45.4630536 26.5010894,44.2885453 C26.930511,43.1140371 27.4094312,41.9325894 27.9378499,40.7450696 L29.5830254,40.7450696 C30.1114441,41.9195778 30.5921011,43.0940861 31.0245621,44.2685943 C31.4570231,45.4431025 31.8521431,46.634092 32.2086195,47.8415628 L30.6033902,47.8415628 Z" id="Fill-24" fill="#FFFFFF" mask="url(#mask-2)"></path>
                    <path d="M34.3392716,40.7449829 L34.3392716,44.4927397 C34.3392716,44.9420715 34.3505607,45.3137678 34.3740074,45.6078286 C34.3970199,45.9018894 34.4547682,46.1347959 34.5472523,46.3065482 C34.6397364,46.4787343 34.7804165,46.597573 34.9684242,46.6639318 C35.156866,46.729857 35.4160821,46.7628195 35.7465066,46.7628195 C36.0500109,46.7628195 36.2927275,46.7333267 36.4746564,46.6734736 C36.656151,46.6140543 36.7933575,46.5030225 36.8858417,46.3412457 C36.9783258,46.1794689 37.0395477,45.954803 37.0690732,45.6676817 C37.0985986,45.3801267 37.1137955,45.0079967 37.1137955,44.5517254 L37.1137955,40.7449829 L38.5800815,40.7449829 L38.5800815,45.4360763 C38.5800815,45.9842958 38.5123467,46.4262544 38.3768769,46.7628195 C38.2414072,47.0989509 38.0533996,47.3583143 37.8124198,47.5396084 C37.5710058,47.7213362 37.2787907,47.843211 36.9353402,47.9061001 C36.5918898,47.9685554 36.2119667,48.0002169 35.7960052,48.0002169 C35.3531234,48.0002169 34.9519247,47.9668206 34.5919747,47.9008954 C34.2315905,47.835404 33.9246126,47.7083247 33.6706069,47.5200911 C33.416167,47.3322912 33.2194754,47.0694581 33.0809663,46.7333267 C32.942023,46.3963279 32.8725514,45.957839 32.8725514,45.4169927 L32.8725514,40.7449829 L34.3392716,40.7449829 Z" id="Fill-25" fill="#FFFFFF" mask="url(#mask-2)"></path>
                    <path d="M41.2654213,45.6243099 C41.2784472,45.8095075 41.3031965,45.9725854 41.3396691,46.1144112 C41.3757075,46.256237 41.4451792,46.3750757 41.5476498,46.4704936 C41.6501205,46.5663453 41.8038265,46.6392099 42.0087679,46.6886538 C42.2132751,46.7376639 42.4907275,46.7628195 42.8406909,46.7628195 C43.0256592,46.7628195 43.1976015,46.752844 43.3560837,46.7333267 C43.5145659,46.7133757 43.6500356,46.6734736 43.7624928,46.6140543 C43.8745159,46.5546349 43.9635264,46.4704936 44.0299587,46.3611967 C44.0959568,46.2523335 44.1289558,46.1083391 44.1289558,45.9300811 C44.1289558,45.7119209 44.0712075,45.5384337 43.9557109,45.4096195 C43.83978,45.2808053 43.6235495,45.1732432 43.3065851,45.0873671 L41.5823857,44.6211203 C41.3644184,44.5621346 41.1581744,44.48927 40.9632196,44.4033938 C40.7682648,44.317084 40.5967566,44.2004138 40.4478268,44.0512149 C40.2993311,43.9024496 40.1803609,43.7176858 40.0913504,43.4964896 C40.0019056,43.2748597 39.9571833,43.0020511 39.9571833,42.6784975 C39.9571833,42.4204353 39.9936559,42.1675778 40.0661669,41.9199248 C40.1391122,41.6722719 40.2728451,41.4489071 40.4677999,41.250698 C40.6623205,41.0524889 40.9332599,40.892447 41.280184,40.7701385 C41.627108,40.6473963 42.0743318,40.5866758 42.6227236,40.5866758 C43.1446294,40.5866758 43.5823007,40.6439266 43.9357378,40.7584281 C44.2891748,40.8729297 44.5714033,41.0282007 44.7828577,41.2246749 C44.994312,41.4211492 45.148018,41.6562243 45.2439757,41.9285992 C45.3394993,42.2018415 45.3907346,42.4967697 45.3972476,42.8133838 L43.9309616,42.8133838 C43.9109885,42.668522 43.8897128,42.5349369 43.8662661,42.4126284 C43.8432536,42.29032 43.7872421,42.1849265 43.6982316,42.0960143 C43.6087868,42.0066684 43.4763565,41.9394421 43.3013748,41.8926006 C43.1263931,41.8470602 42.8806371,41.8236394 42.5632385,41.8236394 C42.186789,41.8236394 41.905863,41.8700473 41.7208948,41.9628629 C41.5363607,42.0548111 41.4438766,42.2434784 41.4438766,42.5275637 C41.4438766,42.7851921 41.5111772,42.9656188 41.6466469,43.0675425 C41.7821166,43.1703337 41.9553616,43.2475355 42.1672501,43.3008828 L43.7525063,43.7272275 C44.0034726,43.7931527 44.2427156,43.8729568 44.4706695,43.9653387 C44.6986233,44.0577206 44.8970517,44.181764 45.0650863,44.3366013 C45.2339892,44.492306 45.3677221,44.6870454 45.4667192,44.9216868 C45.5657163,45.1567619 45.6152149,45.4525576 45.6152149,45.8090737 C45.6152149,46.1391331 45.5709267,46.425387 45.4814819,46.6665341 C45.3924714,46.9076813 45.2748038,47.1093602 45.1297817,47.2715707 C44.9843255,47.4333475 44.8158567,47.5621617 44.6243755,47.6580134 C44.43246,47.7538651 44.2344658,47.8267297 44.0299587,47.8757398 C43.8250173,47.9256174 43.620076,47.9585799 43.4155688,47.9750612 C43.2106274,47.9915425 43.0191462,47.9997831 42.8406909,47.9997831 C42.2597342,47.9997831 41.7790773,47.9455684 41.3991542,47.8380063 C41.0192311,47.7300106 40.71399,47.5730047 40.4825626,47.3669886 C40.2511352,47.1605389 40.0844032,46.9111511 39.9819325,46.6179577 C39.8798961,46.3251981 39.8186742,45.9938376 39.7987011,45.6243099 L41.2654213,45.6243099 Z" id="Fill-26" fill="#FFFFFF" mask="url(#mask-2)"></path>
                    <polygon id="Fill-27" fill="#FFFFFF" mask="url(#mask-2)" points="46.8536338 40.7449829 52.0952698 40.7449829 52.0952698 41.9624292 48.3199198 41.9624292 48.3199198 43.5164406 51.808265 43.5164406 51.808265 44.7334532 48.3199198 44.7334532 48.3199198 46.6244635 52.2541861 46.6244635 52.2541861 47.8414761 46.8536338 47.8414761"></polygon>
                    <path d="M57.5847458,44.3282305 C57.5847458,44.8447886 57.6259946,45.2620253 57.7084921,45.5803743 C57.7914239,45.8982895 57.9151703,46.145075 58.0801655,46.3207308 C58.2451606,46.4959529 58.4535756,46.6139242 58.7045419,46.6733435 C58.9555082,46.7331966 59.2494601,46.7626894 59.5863976,46.7626894 C59.830851,46.7626894 60.0670546,46.7397024 60.2950085,46.6932945 C60.5229623,46.6468867 60.7239959,46.5393247 60.8994118,46.3701747 C61.0743935,46.2010247 61.2129026,45.9494682 61.3153733,45.6150717 C61.417844,45.2802414 61.4690793,44.8252713 61.4690793,44.2484264 C61.4690793,43.7917214 61.4326067,43.4087485 61.3600957,43.1008087 C61.2871504,42.7924352 61.1716538,42.5443486 61.0131716,42.3552475 C60.8546894,42.1665802 60.6514849,42.0308265 60.4039921,41.9479864 C60.1560652,41.8651462 59.8538635,41.823943 59.4973871,41.823943 C59.1669626,41.823943 58.8812604,41.8621102 58.6402806,41.9380109 C58.3988666,42.0143452 58.2008724,42.1470629 58.0458638,42.3357302 C57.890421,42.5243975 57.7744902,42.7794237 57.6989398,43.1008087 C57.622521,43.4221937 57.5847458,43.8316235 57.5847458,44.3282305 M56.0984867,44.2883285 C56.0984867,43.4833479 56.2005232,42.8379756 56.4058987,42.3530789 C56.6104059,41.8681823 56.8765691,41.4938837 57.2035201,41.2301832 C57.530471,40.9660489 57.8951972,40.7929955 58.2981328,40.7101553 C58.7010683,40.6277489 59.1040039,40.5865457 59.5069394,40.5865457 C59.791339,40.5865457 60.0735676,40.6047619 60.3540594,40.6407605 C60.6349853,40.6771928 60.9024512,40.7448528 61.1568911,40.8437405 C61.411331,40.9426282 61.6471004,41.0801167 61.8655019,41.2544714 C62.0834692,41.4292597 62.2732137,41.6539256 62.4351694,41.9276016 C62.5971252,42.2017114 62.723911,42.531337 62.8163951,42.917346 C62.9088792,43.3037887 62.9553384,43.7604937 62.9553384,44.2883285 C62.9553384,45.0668522 62.8580781,45.6970444 62.6631233,46.178905 C62.4681685,46.660332 62.210255,47.0363654 61.8902512,47.3070054 C61.5698132,47.5776455 61.2046529,47.7606744 60.7952043,47.8565261 C60.3857558,47.9519441 59.9663207,48.0000867 59.5368991,48.0000867 C59.0809914,48.0000867 58.6463594,47.948908 58.2338715,47.8465506 C57.8209494,47.7441931 57.4562232,47.5576944 57.1388246,47.2870544 C56.8218602,47.0168481 56.5691571,46.6408147 56.3811494,46.158954 C56.1927076,45.6770934 56.0984867,45.0538407 56.0984867,44.2883285" id="Fill-28" fill="#FFFFFF" mask="url(#mask-2)"></path>
                    <path d="M65.6899162,41.9622557 L65.6899162,44.0310903 L66.6117181,44.0310903 C66.9087094,44.0310903 67.1562022,44.01938 67.3546306,43.9959592 C67.5526248,43.9734059 67.7145806,43.9235283 67.8400637,43.8480614 C67.9655469,43.7721607 68.0545574,43.6598278 68.1075296,43.5110625 C68.1605017,43.362731 68.1869878,43.1636544 68.1869878,42.912098 C68.1869878,42.7143226 68.1674489,42.5529796 68.1275027,42.4272013 C68.0879907,42.3022906 68.0137428,42.2051378 67.9047592,42.1353092 C67.7957755,42.0659143 67.6433721,42.0203739 67.4488515,41.9969531 C67.2538967,41.9735324 67.0042329,41.9622557 66.7007287,41.9622557 L65.6899162,41.9622557 Z M64.2236302,40.7448094 L66.9087094,40.7448094 C67.278646,40.7448094 67.6303462,40.7630255 67.9642443,40.7990241 C68.2977082,40.8354564 68.5916601,40.9278384 68.8456658,41.0766036 C69.1001058,41.2249352 69.3015735,41.4474325 69.4505034,41.7445293 C69.598999,42.0416261 69.6732469,42.4506221 69.6732469,42.9719511 C69.6732469,43.4733291 69.6042094,43.8740844 69.4652661,44.174651 C69.326757,44.4747838 69.1383152,44.7037869 68.9003748,44.8625277 C68.6628686,45.0208347 68.3854162,45.1244933 68.0680176,45.1739372 C67.7510532,45.2238147 67.4175893,45.2481029 67.0671916,45.2481029 L65.6899162,45.2481029 L65.6899162,47.8417363 L64.2236302,47.8417363 L64.2236302,40.7448094 Z" id="Fill-29" fill="#FFFFFF" mask="url(#mask-2)"></path>
                    <path d="M72.398142,41.9622557 L72.398142,44.0310903 L73.319944,44.0310903 C73.6169353,44.0310903 73.864428,44.01938 74.0628564,43.9959592 C74.2612848,43.9734059 74.4228064,43.9235283 74.5482896,43.8480614 C74.6737727,43.7721607 74.7627833,43.6598278 74.8157554,43.5110625 C74.8687275,43.362731 74.8952136,43.1636544 74.8952136,42.912098 C74.8952136,42.7143226 74.8756747,42.5529796 74.8357285,42.4272013 C74.7962165,42.3022906 74.7219687,42.2051378 74.612985,42.1353092 C74.5040014,42.0659143 74.3520321,42.0203739 74.1570773,41.9969531 C73.9621225,41.9735324 73.7124588,41.9622557 73.4089545,41.9622557 L72.398142,41.9622557 Z M70.931856,40.7448094 L73.6169353,40.7448094 C73.9868718,40.7448094 74.338572,40.7630255 74.6724701,40.7990241 C75.005934,40.8354564 75.299886,40.9278384 75.5543259,41.0766036 C75.8083316,41.2249352 76.0097994,41.4474325 76.1587292,41.7445293 C76.3072249,42.0416261 76.3814727,42.4506221 76.3814727,42.9719511 C76.3814727,43.4733291 76.3124352,43.8740844 76.1734919,44.174651 C76.0349828,44.4747838 75.846541,44.7037869 75.6086006,44.8625277 C75.3710944,45.0208347 75.093642,45.1244933 74.7762434,45.1739372 C74.459279,45.2238147 74.1258151,45.2481029 73.7754175,45.2481029 L72.398142,45.2481029 L72.398142,47.8417363 L70.931856,47.8417363 L70.931856,40.7448094 Z" id="Fill-30" fill="#FFFFFF" mask="url(#mask-2)"></path>
                    <path d="M78.8089424,44.3282305 C78.8089424,44.8447886 78.8501911,45.2620253 78.9326887,45.5803743 C79.0151863,45.8982895 79.1393669,46.145075 79.304362,46.3207308 C79.4693572,46.4959529 79.677338,46.6139242 79.9287385,46.6733435 C80.1797048,46.7331966 80.4736567,46.7626894 80.8105942,46.7626894 C81.0550476,46.7626894 81.2912512,46.7397024 81.5192051,46.6932945 C81.7471589,46.6468867 81.9481925,46.5393247 82.1236084,46.3701747 C82.2985901,46.2010247 82.4370992,45.9494682 82.5395699,45.6150717 C82.6420406,45.2802414 82.6932759,44.8252713 82.6932759,44.2484264 C82.6932759,43.7917214 82.6568033,43.4087485 82.5842923,43.1008087 C82.511347,42.7924352 82.3958504,42.5443486 82.2373682,42.3552475 C82.078886,42.1665802 81.8756814,42.0308265 81.6281887,41.9479864 C81.3802618,41.8651462 81.0780601,41.823943 80.7215837,41.823943 C80.390725,41.823943 80.105457,41.8621102 79.8644772,41.9380109 C79.6230632,42.0143452 79.4246348,42.1470629 79.2696262,42.3357302 C79.1146176,42.5243975 78.9986868,42.7794237 78.9231364,43.1008087 C78.8467176,43.4221937 78.8089424,43.8316235 78.8089424,44.3282305 M77.3226833,44.2883285 C77.3226833,43.4833479 77.4247197,42.8379756 77.6300953,42.3530789 C77.8346025,41.8681823 78.1007657,41.4938837 78.4272825,41.2301832 C78.7542334,40.9660489 79.1193938,40.7929955 79.5223293,40.7101553 C79.9252649,40.6277489 80.3282005,40.5865457 80.731136,40.5865457 C81.0151014,40.5865457 81.2977642,40.6047619 81.578256,40.6407605 C81.8591819,40.6771928 82.1266478,40.7448528 82.3810877,40.8437405 C82.6355276,40.9426282 82.871297,41.0801167 83.0896985,41.2544714 C83.3076658,41.4292597 83.4974103,41.6539256 83.659366,41.9276016 C83.8208876,42.2017114 83.9481076,42.531337 84.0405917,42.917346 C84.1330758,43.3037887 84.179535,43.7604937 84.179535,44.2883285 C84.179535,45.0668522 84.0822747,45.6970444 83.8873199,46.178905 C83.6923651,46.660332 83.4344516,47.0363654 83.1144478,47.3070054 C82.7940098,47.5776455 82.4288495,47.7606744 82.0194009,47.8565261 C81.6099524,47.9519441 81.1905173,48.0000867 80.7610957,48.0000867 C80.305188,48.0000867 79.870556,47.948908 79.4580681,47.8465506 C79.045146,47.7441931 78.6804198,47.5576944 78.3630212,47.2870544 C78.0460568,47.0168481 77.7933537,46.6408147 77.6049118,46.158954 C77.4169042,45.6770934 77.3226833,45.0538407 77.3226833,44.2883285" id="Fill-31" fill="#FFFFFF" mask="url(#mask-2)"></path>
                    <path d="M86.9142865,41.9622557 L86.9142865,43.8328812 L88.2320768,43.8328812 C88.5295023,43.8328812 88.7774292,43.8216046 88.9754234,43.7981838 C89.1734176,43.7756305 89.3353734,43.7287889 89.4608566,43.6598278 C89.5863398,43.5904329 89.6753503,43.4898103 89.7287566,43.3579601 C89.7812946,43.2261098 89.8077806,43.0478517 89.8077806,42.8231858 C89.8077806,42.6453615 89.7878075,42.500066 89.7482955,42.387733 C89.7087835,42.2758338 89.6345357,42.1882228 89.5255521,42.1257674 C89.4165684,42.0628783 89.2659018,42.0203739 89.0744205,41.9969531 C88.8829393,41.9735324 88.631973,41.9622557 88.3215215,41.9622557 L86.9142865,41.9622557 Z M85.4480005,40.7448094 L88.5295023,40.7448094 C88.8994388,40.7448094 89.251139,40.7582546 89.584603,40.7842777 C89.9185011,40.8111682 90.212453,40.8918398 90.4668929,41.0271598 C90.7208986,41.1620461 90.9228006,41.3737004 91.0712962,41.660388 C91.2197919,41.9475093 91.2940397,42.3513007 91.2940397,42.8730634 C91.2940397,43.2226401 91.2593039,43.518002 91.1898322,43.7587155 C91.1207948,43.9994289 91.0248371,44.2024089 90.9028275,44.3676555 C90.7803837,44.5324683 90.6349275,44.6612825 90.4668929,44.7536645 C90.2984242,44.8456127 90.1112849,44.9154413 89.9067777,44.9614154 L91.759934,47.8417363 L89.9762494,47.8417363 L88.2320768,45.0503275 L86.9142865,45.0503275 L86.9142865,47.8417363 L85.4480005,47.8417363 L85.4480005,40.7448094 Z" id="Fill-32" fill="#FFFFFF" mask="url(#mask-2)"></path>
                    <polygon id="Fill-33" fill="#FFFFFF" mask="url(#mask-2)" points="94.0586206 41.9821633 91.9184596 41.9821633 91.9184596 40.744766 97.6555152 40.744766 97.6555152 41.9821633 95.5253407 41.9821633 95.5253407 47.8416929 94.0586206 47.8416929"></polygon>
                    <path d="M100.102828,40.7449829 L100.102828,44.4927397 C100.102828,44.9420715 100.114117,45.3137678 100.137564,45.6078286 C100.160576,45.9018894 100.218324,46.1347959 100.310808,46.3065482 C100.403293,46.4787343 100.543973,46.597573 100.73198,46.6639318 C100.920422,46.729857 101.179204,46.7628195 101.510063,46.7628195 C101.813567,46.7628195 102.056284,46.7333267 102.238212,46.6734736 C102.419707,46.6140543 102.556914,46.5030225 102.649398,46.3412457 C102.741882,46.1794689 102.803104,45.954803 102.832629,45.6676817 C102.862155,45.3801267 102.877352,45.0079967 102.877352,44.5517254 L102.877352,40.7449829 L104.343638,40.7449829 L104.343638,45.4360763 C104.343638,45.9842958 104.275903,46.4262544 104.140433,46.7628195 C104.004963,47.0989509 103.816956,47.3583143 103.575976,47.5396084 C103.334562,47.7213362 103.042347,47.843211 102.698896,47.9061001 C102.355446,47.9685554 101.975523,48.0002169 101.559127,48.0002169 C101.11668,48.0002169 100.715481,47.9668206 100.355531,47.9008954 C99.9951466,47.835404 99.6881688,47.7083247 99.4337289,47.5200911 C99.1797232,47.3322912 98.9830315,47.0694581 98.8445224,46.7333267 C98.7055792,46.3963279 98.6365417,45.957839 98.6365417,45.4169927 L98.6365417,40.7449829 L100.102828,40.7449829 Z" id="Fill-34" fill="#FFFFFF" mask="url(#mask-2)"></path>
                    <polygon id="Fill-35" fill="#FFFFFF" mask="url(#mask-2)" points="105.879699 40.7449829 107.375945 40.7449829 110.140482 45.4265345 110.140482 40.7449829 111.606768 40.7449829 111.606768 47.8414761 110.140482 47.8414761 107.346419 43.1304316 107.346419 47.8414761 105.879699 47.8414761"></polygon>
                    <polygon id="Fill-36" fill="#FFFFFF" mask="url(#mask-2)" points="113.063372 47.8412592 114.529658 47.8412592 114.529658 40.744766 113.063372 40.744766"></polygon>
                    <polygon id="Fill-37" fill="#FFFFFF" mask="url(#mask-2)" points="117.571691 41.9821633 115.43153 41.9821633 115.43153 40.744766 121.168151 40.744766 121.168151 41.9821633 119.037977 41.9821633 119.037977 47.8416929 117.571691 47.8416929"></polygon>
                    <path d="M124.022741,45.0601296 C123.507349,44.3414589 123.044928,43.6219208 122.635479,42.9023827 C122.225597,42.1832784 121.852621,41.464174 121.515683,40.7450696 L123.239449,40.7450696 C123.431364,41.2464476 123.655844,41.7443558 123.913758,42.239228 C124.171237,42.7345339 124.461715,43.2324421 124.785627,43.7338201 C125.102591,43.2324421 125.383517,42.7345339 125.627536,42.239228 C125.87199,41.7443558 126.086918,41.2464476 126.271886,40.7450696 L127.946587,40.7450696 C127.609649,41.4711135 127.241015,42.1936876 126.841554,42.9123583 C126.441657,43.6318963 125.99096,44.3544705 125.489027,45.0800806 L125.489027,47.8415628 L124.022741,47.8415628 L124.022741,45.0601296 Z" id="Fill-38" fill="#FFFFFF" mask="url(#mask-2)"></path>
                    <path d="M133.198123,44.753491 L133.198123,46.6245502 L134.515913,46.6245502 C134.853285,46.6245502 135.126829,46.614141 135.338718,46.5946237 C135.549738,46.5746727 135.715167,46.5339032 135.833703,46.4705804 C135.953108,46.408125 136.035171,46.3170442 136.08163,46.1986392 C136.127655,46.0798005 136.151102,45.9184574 136.151102,45.7137425 C136.151102,45.5025219 136.131129,45.3325045 136.091617,45.2036902 C136.051671,45.074876 135.980896,44.9781569 135.878426,44.911798 C135.775955,44.8458729 135.637446,44.8029348 135.462464,44.7829838 C135.287482,44.7634665 135.067778,44.753491 134.803352,44.753491 L133.198123,44.753491 Z M133.198123,41.9620822 L133.198123,43.5360447 L134.842864,43.5360447 C135.060831,43.5360447 135.241023,43.5260692 135.383006,43.5065519 C135.524989,43.4866008 135.637446,43.4466988 135.719943,43.3877131 C135.802441,43.3282938 135.860189,43.2441525 135.893188,43.1352893 C135.926187,43.0264261 135.942687,42.8798294 135.942687,42.6946318 C135.942687,42.54977 135.929661,42.4291964 135.903175,42.3333448 C135.876689,42.2379268 135.815467,42.1615925 135.719943,42.1060766 C135.623986,42.050127 135.485477,42.0119598 135.303982,41.9920087 C135.122053,41.9720577 134.875863,41.9620822 134.565411,41.9620822 L133.198123,41.9620822 Z M135.199774,40.7450696 C135.900135,40.7450696 136.435067,40.8834256 136.805004,41.1605714 C137.17494,41.4377172 137.359908,41.9126384 137.359908,42.5857686 C137.359908,42.8633481 137.33212,43.0871466 137.275674,43.2588989 C137.219663,43.4306512 137.150191,43.569441 137.067693,43.6748344 C136.985196,43.7802279 136.897488,43.8595983 136.805004,43.9125119 C136.71252,43.9654255 136.626983,44.0079298 136.547524,44.0404587 C136.765492,44.1267685 136.94525,44.2304271 137.087232,44.3527356 C137.229215,44.4746103 137.339935,44.6116652 137.419394,44.7634665 C137.498418,44.9152678 137.554429,45.0787794 137.587428,45.2531341 C137.620861,45.4283561 137.637361,45.6083491 137.637361,45.7926792 C137.637361,46.0828365 137.599151,46.3534765 137.523601,46.6045992 C137.447182,46.8552882 137.315186,47.0730146 137.127178,47.2573447 C136.938737,47.4425423 136.68256,47.5856692 136.359083,47.6884604 C136.035171,47.7908178 135.629196,47.8415628 135.140289,47.8415628 L131.731837,47.8415628 L131.731837,40.7450696 L135.199774,40.7450696 Z" id="Fill-39" fill="#FFFFFF" mask="url(#mask-2)"></path>
                    <polygon id="Fill-40" fill="#FFFFFF" mask="url(#mask-2)" points="138.984764 40.7449829 144.226399 40.7449829 144.226399 41.9624292 140.45105 41.9624292 140.45105 43.5164406 143.93896 43.5164406 143.93896 44.7334532 140.45105 44.7334532 140.45105 46.6244635 144.385316 46.6244635 144.385316 47.8414761 138.984764 47.8414761"></polygon>
                    <polygon id="Fill-41" fill="#FFFFFF" mask="url(#mask-2)" points="145.693206 40.7449829 147.159492 40.7449829 147.159492 46.6045125 150.706888 46.6045125 150.706888 47.8414761 145.693206 47.8414761"></polygon>
                    <path d="M152.718397,44.3282305 C152.718397,44.8447886 152.759645,45.2620253 152.842143,45.5803743 C152.924641,45.8982895 153.048821,46.145075 153.214251,46.3207308 C153.378812,46.4959529 153.587226,46.6139242 153.838193,46.6733435 C154.089159,46.7331966 154.383111,46.7626894 154.720049,46.7626894 C154.964502,46.7626894 155.200706,46.7397024 155.428225,46.6932945 C155.656613,46.6468867 155.857647,46.5393247 156.033063,46.3701747 C156.208044,46.2010247 156.346554,45.9494682 156.449024,45.6150717 C156.551495,45.2802414 156.60273,44.8252713 156.60273,44.2484264 C156.60273,43.7917214 156.566258,43.4087485 156.493747,43.1008087 C156.420801,42.7924352 156.305739,42.5443486 156.146823,42.3552475 C155.98834,42.1665802 155.785136,42.0308265 155.537209,41.9479864 C155.289716,41.8651462 154.987949,41.823943 154.630604,41.823943 C154.300179,41.823943 154.014477,41.8621102 153.773932,41.9380109 C153.532518,42.0143452 153.334523,42.1470629 153.179081,42.3357302 C153.024072,42.5243975 152.908141,42.7794237 152.832591,43.1008087 C152.756606,43.4221937 152.718397,43.8316235 152.718397,44.3282305 M151.232138,44.2883285 C151.232138,43.4833479 151.334174,42.8379756 151.539115,42.3530789 C151.744057,41.8681823 152.009786,41.4938837 152.336737,41.2301832 C152.664122,40.9660489 153.028848,40.7929955 153.431784,40.7101553 C153.834719,40.6277489 154.237655,40.5865457 154.641025,40.5865457 C154.924556,40.5865457 155.206784,40.6047619 155.488144,40.6407605 C155.768636,40.6771928 156.036536,40.7448528 156.290542,40.8437405 C156.544982,40.9426282 156.780751,41.0801167 156.998719,41.2544714 C157.216686,41.4292597 157.406865,41.6539256 157.56882,41.9276016 C157.730776,42.2017114 157.857562,42.531337 157.95048,42.917346 C158.042964,43.3037887 158.088989,43.7604937 158.088989,44.2883285 C158.088989,45.0668522 157.991729,45.6970444 157.796774,46.178905 C157.601819,46.660332 157.343906,47.0363654 157.023902,47.3070054 C156.703464,47.5776455 156.338304,47.7606744 155.929289,47.8565261 C155.518973,47.9519441 155.099537,48.0000867 154.67055,48.0000867 C154.214642,48.0000867 153.78001,47.948908 153.367522,47.8465506 C152.9546,47.7441931 152.58944,47.5576944 152.27291,47.2870544 C151.955511,47.0168481 151.702808,46.6408147 151.514366,46.158954 C151.326359,45.6770934 151.232138,45.0538407 151.232138,44.2883285" id="Fill-42" fill="#FFFFFF" mask="url(#mask-2)"></path>
                    <polygon id="Fill-43" fill="#FFFFFF" mask="url(#mask-2)" points="159.327582 40.7449829 160.823393 40.7449829 163.588365 45.4265345 163.588365 40.7449829 165.054651 40.7449829 165.054651 47.8414761 163.588365 47.8414761 160.793868 43.1304316 160.793868 47.8414761 159.327582 47.8414761"></polygon>
                    <path d="M173.12057,44.8623542 C173.12057,45.4496083 173.042414,45.9444805 172.88784,46.3469708 C172.731963,46.7498947 172.509654,47.0730146 172.218741,47.3167641 C171.928263,47.561381 171.577865,47.7361694 171.168417,47.8415628 C170.758968,47.9469563 170.299587,47.9998699 169.791141,47.9998699 C169.348259,47.9998699 168.917535,47.9486912 168.4981,47.8467674 C168.078665,47.74441 167.705255,47.5579113 167.378304,47.2872713 C167.051353,47.017065 166.788663,46.6410315 166.590669,46.1587372 C166.392675,45.6773102 166.293244,45.0536238 166.293244,44.2885453 C166.293244,43.4831311 166.400491,42.8381925 166.615418,42.3532958 C166.829912,41.8683991 167.107365,41.4936668 167.447776,41.2299663 C167.787753,40.9662658 168.164202,40.7927786 168.577124,40.7103722 C168.990046,40.6275321 169.394719,40.5867626 169.791141,40.5867626 C170.748982,40.5867626 171.506657,40.7715264 172.065035,41.1414878 C172.622979,41.5110155 172.938641,42.1112812 173.011586,42.9422848 L171.544866,42.9422848 C171.524893,42.7709662 171.482342,42.6152615 171.415909,42.4769054 C171.349911,42.3385494 171.250914,42.2214455 171.118918,42.1255939 C170.986922,42.0301759 170.816716,41.9560102 170.608736,41.9030966 C170.400321,41.850183 170.141539,41.8237262 169.830653,41.8237262 C169.493716,41.8237262 169.196724,41.8601585 168.938811,41.9330231 C168.681332,42.0058877 168.466404,42.1368705 168.294896,42.3255379 C168.122953,42.5146389 167.993996,42.7679302 167.90846,43.0858454 C167.822488,43.4037607 167.779503,43.8079858 167.779503,44.2980871 C167.779503,44.8150789 167.825962,45.2336168 167.918446,45.5554355 C168.01093,45.8768205 168.142926,46.126642 168.314869,46.3053338 C168.486377,46.4844593 168.697831,46.6050329 168.949232,46.6683558 C169.200198,46.7312449 169.484163,46.7629063 169.800694,46.7629063 C170.164117,46.7629063 170.465016,46.732546 170.702957,46.6731267 C170.940463,46.6132736 171.130207,46.5217591 171.272624,46.3990169 C171.414173,46.2762747 171.513604,46.1201363 171.57005,45.9310352 C171.626061,45.7415005 171.65385,45.5142323 171.65385,45.2483632 L170.009109,45.2483632 L170.009109,44.0309169 L173.12057,44.0309169 L173.12057,44.8623542 Z" id="Fill-44" fill="#FFFFFF" mask="url(#mask-2)"></path>
                    <path d="M175.538357,45.6243099 C175.551383,45.8095075 175.576566,45.9725854 175.613039,46.1144112 C175.649077,46.256237 175.718549,46.3750757 175.820586,46.4704936 C175.92349,46.5663453 176.076762,46.6392099 176.281704,46.6886538 C176.486645,46.7376639 176.763663,46.7628195 177.114061,46.7628195 C177.299029,46.7628195 177.470537,46.752844 177.629019,46.7333267 C177.787936,46.7133757 177.922971,46.6734736 178.035429,46.6140543 C178.147886,46.5546349 178.236896,46.4704936 178.302894,46.3611967 C178.369327,46.2523335 178.402326,46.1083391 178.402326,45.9300811 C178.402326,45.7119209 178.344143,45.5384337 178.228647,45.4096195 C178.11315,45.2808053 177.89692,45.1732432 177.579521,45.0873671 L175.855321,44.6211203 C175.637788,44.5621346 175.43111,44.48927 175.23659,44.4033938 C175.041201,44.317084 174.869692,44.2004138 174.720763,44.0512149 C174.572267,43.9024496 174.453297,43.7176858 174.364286,43.4964896 C174.275276,43.2748597 174.230553,43.0020511 174.230553,42.6784975 C174.230553,42.4204353 174.266592,42.1675778 174.339537,41.9199248 C174.412048,41.6722719 174.545781,41.4489071 174.740736,41.250698 C174.935256,41.0524889 175.206196,40.892447 175.55312,40.7701385 C175.900044,40.6473963 176.347268,40.5866758 176.896094,40.5866758 C177.417565,40.5866758 177.855671,40.6439266 178.208674,40.7584281 C178.562111,40.8729297 178.844339,41.0282007 179.056228,41.2246749 C179.267682,41.4211492 179.420954,41.6562243 179.516912,41.9285992 C179.612435,42.2018415 179.66367,42.4967697 179.670618,42.8133838 L178.203897,42.8133838 C178.184358,42.668522 178.162649,42.5349369 178.139636,42.4126284 C178.116189,42.29032 178.060612,42.1849265 177.971167,42.0960143 C177.882157,42.0066684 177.749726,41.9394421 177.574745,41.8926006 C177.399763,41.8470602 177.153573,41.8236394 176.836608,41.8236394 C176.460159,41.8236394 176.179233,41.8700473 175.994265,41.9628629 C175.809296,42.0548111 175.716812,42.2434784 175.716812,42.5275637 C175.716812,42.7851921 175.784113,42.9656188 175.920017,43.0675425 C176.055052,43.1703337 176.228732,43.2475355 176.440186,43.3008828 L178.025876,43.7272275 C178.276843,43.7931527 178.516086,43.8729568 178.744039,43.9653387 C178.971993,44.0577206 179.169987,44.181764 179.338456,44.3366013 C179.506925,44.492306 179.640658,44.6870454 179.740089,44.9216868 C179.838652,45.1567619 179.888151,45.4525576 179.888151,45.8090737 C179.888151,46.1391331 179.843862,46.425387 179.754852,46.6665341 C179.665407,46.9076813 179.548174,47.1093602 179.402717,47.2715707 C179.257261,47.4333475 179.089227,47.5621617 178.897311,47.6580134 C178.70583,47.7538651 178.507836,47.8267297 178.302894,47.8757398 C178.098387,47.9256174 177.893446,47.9585799 177.688505,47.9750612 C177.483563,47.9915425 177.292516,47.9997831 177.114061,47.9997831 C176.53267,47.9997831 176.052013,47.9455684 175.672524,47.8380063 C175.292601,47.7300106 174.986492,47.5730047 174.755498,47.3669886 C174.524505,47.1605389 174.357339,46.9111511 174.255303,46.6179577 C174.152832,46.3251981 174.09161,45.9938376 174.072071,45.6243099 L175.538357,45.6243099 Z" id="Fill-45" fill="#FFFFFF" mask="url(#mask-2)"></path>
                    <polygon id="Fill-46" fill="#FFFFFF" mask="url(#mask-2)" points="185.536369 41.9821633 183.395774 41.9821633 183.395774 40.744766 189.13283 40.744766 189.13283 41.9821633 187.002655 41.9821633 187.002655 47.8416929 185.536369 47.8416929"></polygon>
                    <path d="M191.005785,44.3282305 C191.005785,44.8447886 191.047034,45.2620253 191.129532,45.5803743 C191.212464,45.8982895 191.33621,46.145075 191.501639,46.3207308 C191.6662,46.4959529 191.874615,46.6139242 192.125582,46.6733435 C192.376548,46.7331966 192.6705,46.7626894 193.007437,46.7626894 C193.251891,46.7626894 193.488094,46.7397024 193.715614,46.6932945 C193.944002,46.6468867 194.145036,46.5393247 194.320451,46.3701747 C194.495433,46.2010247 194.633942,45.9494682 194.736413,45.6150717 C194.838884,45.2802414 194.890119,44.8252713 194.890119,44.2484264 C194.890119,43.7917214 194.853646,43.4087485 194.781135,43.1008087 C194.70819,42.7924352 194.593128,42.5443486 194.434211,42.3552475 C194.275729,42.1665802 194.072525,42.0308265 193.824598,41.9479864 C193.577105,41.8651462 193.275337,41.823943 192.917993,41.823943 C192.588002,41.823943 192.301866,41.8621102 192.06132,41.9380109 C191.819906,42.0143452 191.621912,42.1470629 191.466904,42.3357302 C191.311461,42.5243975 191.19553,42.7794237 191.119979,43.1008087 C191.043995,43.4221937 191.005785,43.8316235 191.005785,44.3282305 M189.519526,44.2883285 C189.519526,43.4833479 189.621563,42.8379756 189.826504,42.3530789 C190.031446,41.8681823 190.297175,41.4938837 190.624126,41.2301832 C190.951511,40.9660489 191.316237,40.7929955 191.719607,40.7101553 C192.122108,40.6277489 192.525044,40.5865457 192.928413,40.5865457 C193.211944,40.5865457 193.494173,40.6047619 193.775533,40.6407605 C194.056025,40.6771928 194.323925,40.7448528 194.578365,40.8437405 C194.832371,40.9426282 195.06814,41.0801167 195.286107,41.2544714 C195.504075,41.4292597 195.694253,41.6539256 195.856209,41.9276016 C196.018165,42.2017114 196.144951,42.531337 196.237869,42.917346 C196.330353,43.3037887 196.376378,43.7604937 196.376378,44.2883285 C196.376378,45.0668522 196.279118,45.6970444 196.084163,46.178905 C195.889208,46.660332 195.631295,47.0363654 195.311291,47.3070054 C194.990853,47.5776455 194.625693,47.7606744 194.216678,47.8565261 C193.806361,47.9519441 193.386926,48.0000867 192.957939,48.0000867 C192.502031,48.0000867 192.067399,47.948908 191.654911,47.8465506 C191.241989,47.7441931 190.876829,47.5576944 190.560298,47.2870544 C190.2429,47.0168481 189.990197,46.6408147 189.802189,46.158954 C189.613747,45.6770934 189.519526,45.0538407 189.519526,44.2883285" id="Fill-47" fill="#FFFFFF" mask="url(#mask-2)"></path>
                    <path d="M203.302441,42.3680422 C203.0975,42.8299518 202.907755,43.2901266 202.732773,43.7490002 C202.557358,44.2074401 202.394099,44.6645788 202.24213,45.1199827 L204.352765,45.1199827 C204.200362,44.6645788 204.037104,44.2074401 203.862122,43.7490002 C203.68714,43.2901266 203.500435,42.8299518 203.302441,42.3680422 L203.302441,42.3680422 Z M205.16515,47.8415628 C205.099151,47.5908739 205.02968,47.3401849 204.956735,47.0894959 C204.884224,46.8388069 204.811713,46.5881179 204.738767,46.3369952 L201.855694,46.3369952 C201.783183,46.5881179 201.711974,46.8388069 201.642937,47.0894959 C201.573031,47.3401849 201.505296,47.5908739 201.439732,47.8415628 L199.884002,47.8415628 C200.240478,46.6471036 200.633427,45.4630536 201.063283,44.2885453 C201.49227,43.1140371 201.97119,41.9325894 202.499609,40.7450696 L204.144351,40.7450696 C204.672769,41.9195778 205.15386,43.0940861 205.586321,44.2685943 C206.019217,45.4431025 206.413902,46.634092 206.770379,47.8415628 L205.16515,47.8415628 Z" id="Fill-48" fill="#FFFFFF" mask="url(#mask-2)"></path>
                    <polygon id="Fill-49" fill="#FFFFFF" mask="url(#mask-2)" points="207.751666 40.7449829 209.217952 40.7449829 209.217952 46.6045125 212.765348 46.6045125 212.765348 47.8414761 207.751666 47.8414761"></polygon>
                    <polygon id="Fill-50" fill="#FFFFFF" mask="url(#mask-2)" points="213.905074 40.7449829 215.37136 40.7449829 215.37136 46.6045125 218.918756 46.6045125 218.918756 47.8414761 213.905074 47.8414761"></polygon>
                </g>
            </g>
        </g>
    </g>
</svg>