<?xml version="1.0" encoding="UTF-8"?>
<svg width="211px" height="45px" viewBox="0 0 211 45" version="1.1" xmlns="http://www.w3.org/2000/svg" xmlns:xlink="http://www.w3.org/1999/xlink">
    <title>Group 52</title>
    <defs>
        <polygon id="path-1" points="0 45 211 45 211 0 0 0"></polygon>
    </defs>
    <g id="Final" stroke="none" stroke-width="1" fill="none" fill-rule="evenodd">
        <g id="CSR-Page03" transform="translate(-999.000000, -477.000000)">
            <g id="Group-52" transform="translate(999.000000, 477.000000)">
                <path d="M95,31 L211,31 L211,0 L95,0 L95,31 Z M95.8101803,30.1846077 L210.18982,30.1846077 L210.18982,0.816208108 L95.8101803,0.816208108 L95.8101803,30.1846077 Z" id="Fill-1" fill="#9E1A1E"></path>
                <polygon id="Fill-2" fill="#9E1A1E" points="0 31 97 31 97 0 0 0"></polygon>
                <polygon id="Fill-3" fill="#1D1D1B" points="102 25 106 25 106 4 102 4"></polygon>
                <polygon id="Fill-4" fill="#1D1D1B" points="110 4 116.282697 4 120.086782 15.3345418 123.746367 4 130 4 130 25 125.734578 25 125.734578 9.56513729 122.074993 20.5186022 117.925007 20.5186022 114.265422 9.56513729 114.265422 25 110 25"></polygon>
                <g id="Group-51">
                    <path d="M137.907825,8.70366221 L137.907825,14.6861237 L140.573639,14.6861237 C141.433606,14.6861237 142.150244,14.6531883 142.723555,14.5860975 C143.296866,14.5194134 143.765124,14.3762865 144.12833,14.1567168 C144.491128,13.9375537 144.749281,13.6126718 144.902381,13.1836976 C145.055074,12.7539102 145.131624,12.1769298 145.131624,11.4515365 C145.131624,10.8790288 145.074619,10.4114267 144.959386,10.0491366 C144.844969,9.68643999 144.629977,9.40506546 144.314412,9.20460645 C143.999254,9.00374082 143.559498,8.87077916 142.995959,8.80368841 C142.432014,8.73700427 141.710489,8.70366221 140.831792,8.70366221 L137.907825,8.70366221 Z M133.665406,5.18241454 L141.433606,5.18241454 C142.503678,5.18241454 143.521223,5.23527392 144.486649,5.34017945 C145.451261,5.44508498 146.301862,5.71222814 147.038046,6.1412023 C147.773415,6.57098969 148.356498,7.21506086 148.786481,8.07382241 C149.216464,8.93217735 149.431456,10.1162274 149.431456,11.6235328 C149.431456,13.0739128 149.231123,14.2331595 148.829235,15.1012731 C148.428162,15.9697934 147.883354,16.6325686 147.195625,17.0908187 C146.507489,17.5486623 145.704935,17.8491475 144.787963,17.992681 C143.870584,18.1354013 142.905158,18.2069648 141.892499,18.2069648 L137.907825,18.2069648 L137.907825,25.706897 L133.665406,25.706897 L133.665406,5.18241454 Z" id="Fill-5" fill="#1D1D1B"></path>
                    <path d="M158.604879,9.87705903 C158.01243,11.2131814 157.462736,12.5444245 156.95661,13.8703816 C156.450077,15.1971519 155.977339,16.5182297 155.537991,17.8348348 L161.643671,17.8348348 C161.203915,16.5182297 160.730771,15.1971519 160.224645,13.8703816 C159.717704,12.5444245 159.17819,11.2131814 158.604879,9.87705903 L158.604879,9.87705903 Z M163.99392,25.7072223 C163.802952,24.981829 163.602212,24.2568424 163.392106,23.5314491 C163.181594,22.8064624 162.971895,22.0814757 162.761383,21.3556758 L154.419872,21.3556758 C154.209359,22.0814757 154.00414,22.8064624 153.8034,23.5314491 C153.603067,24.2568424 153.406398,24.981829 153.215837,25.7072223 L148.715265,25.7072223 C149.747062,22.2530654 150.883912,18.8277778 152.126628,15.4305464 C153.36853,12.0341282 154.75376,8.61737944 156.283132,5.18233322 L161.04145,5.18233322 C162.570008,8.57956466 163.960531,11.9767961 165.212613,15.3732143 C166.46388,18.7704457 167.606023,22.214844 168.638227,25.7072223 L163.99392,25.7072223 Z" id="Fill-7" fill="#1D1D1B"></path>
                    <path d="M187.642792,18.9801348 C187.566649,19.9917819 187.361023,20.9310524 187.02632,21.7979462 C186.692024,22.6644333 186.175719,23.4252017 185.478217,24.0782183 C184.780716,24.7308283 183.887361,25.2423444 182.798152,25.6115468 C181.708942,25.9803426 180.371353,26.1649438 178.784975,26.1649438 C177.236873,26.1649438 175.879738,25.9648914 174.714793,25.5639734 C173.548627,25.1630554 172.579129,24.5385015 171.80467,23.689092 C171.031026,22.8400891 170.447536,21.7426471 170.056235,20.3967661 C169.664527,19.0516983 169.468673,17.4342014 169.468673,15.5450886 C169.468673,11.8620099 170.228065,9.137719 171.747665,7.37221585 C173.266858,5.60752591 175.621993,4.72436772 178.813478,4.72436772 C181.355509,4.72436772 183.375942,5.26881929 184.876404,6.35772244 C186.376866,7.44621897 187.298724,9.17309413 187.642792,11.5371281 L183.400372,11.5371281 C183.285547,11.0792845 183.14222,10.6547831 182.969982,10.2632171 C182.798152,9.87246433 182.549771,9.529285 182.224841,9.23286588 C181.899503,8.9376666 181.469927,8.70833823 180.934891,8.5461006 C180.399855,8.38386298 179.692582,8.30254086 178.813478,8.30254086 C177.934374,8.30254086 177.179868,8.44200829 176.549144,8.71972332 C175.918421,8.99743835 175.397636,9.43779762 174.98679,10.0416143 C174.575537,10.6454311 174.270152,11.4310027 174.069819,12.3983293 C173.869078,13.3660625 173.768912,14.5395406 173.768912,15.9191703 C173.768912,16.9922157 173.849534,17.9404315 174.011999,18.7646312 C174.174464,19.5884242 174.451347,20.2829151 174.843463,20.8485104 C175.234764,21.4136992 175.755955,21.8442998 176.405816,22.1411255 C177.05527,22.4383578 177.877369,22.5867707 178.871298,22.5867707 C180.285437,22.5867707 181.350623,22.3245069 182.067669,21.7995726 C182.7839,21.2746383 183.228135,20.3353679 183.400372,18.9801348 L187.642792,18.9801348 Z" id="Fill-9" fill="#1D1D1B"></path>
                    <polygon id="Fill-11" fill="#1D1D1B" points="194.952547 8.76083165 188.760545 8.76083165 188.760545 5.1822519 205.358466 5.1822519 205.358466 8.76083165 199.194966 8.76083165 199.194966 25.707141 194.952547 25.707141"></polygon>
                    <mask id="mask-2" fill="white">
                        <use xlink:href="#path-1"></use>
                    </mask>
                    <g id="Clip-14"></g>
                    <polygon id="Fill-13" fill="#FEFEFE" mask="url(#mask-2)" points="28.4863865 25.8352233 32.7837753 25.8352233 32.7837753 5.04563074 28.4863865 5.04563074"></polygon>
                    <path d="M41.2331486,8.61233747 L41.2331486,14.0922283 L45.0948537,14.0922283 C45.9662211,14.0922283 46.6918178,14.0588862 47.2728651,13.9909823 C47.8535053,13.9230783 48.3274641,13.7880836 48.6955557,13.5851849 C49.0628331,13.3818796 49.3242433,13.0874936 49.4793793,12.7004003 C49.6341081,12.3141202 49.7118797,11.7920322 49.7118797,11.1345429 C49.7118797,10.6128615 49.6536528,10.1879535 49.5376062,9.85859891 C49.4211524,9.53046417 49.2037177,9.27470611 48.8840806,9.09051152 C48.5648506,8.90713014 48.1242807,8.78148747 47.5631852,8.7135835 C47.0016826,8.64608615 46.2659064,8.61233747 45.3562639,8.61233747 L41.2331486,8.61233747 Z M36.9357598,5.04595603 L45.9662211,5.04595603 C47.0501371,5.04595603 48.0807124,5.08458404 49.0583541,5.16184005 C50.0355886,5.23909606 50.8971837,5.47615003 51.642325,5.87218874 C52.3874663,6.26822745 52.9782861,6.88708876 53.4139698,7.72755284 C53.8492463,8.56883014 54.0670882,9.75288016 54.0670882,11.2797029 C54.0670882,12.3043616 53.9657001,13.1692223 53.7621096,13.8746917 C53.5589262,14.5805676 53.2779713,15.1750323 52.9200592,15.6580857 C52.5617398,16.1415457 52.1362356,16.5180671 51.642325,16.7884631 C51.1492288,17.0596724 50.6019774,17.262571 50.0021997,17.3979724 L55.4319591,25.835142 L50.2053831,25.835142 L45.0948537,17.6586098 L41.2331486,17.6586098 L41.2331486,25.835142 L36.9357598,25.835142 L36.9357598,5.04595603 Z" id="Fill-15" fill="#FEFEFE" mask="url(#mask-2)"></path>
                    <path d="M60.9772764,19.3402698 C61.0159586,19.8818751 61.0884368,20.3604558 61.1951183,20.7756052 C61.3009853,21.1915678 61.5041687,21.5392198 61.8046683,21.8197812 C62.1043536,22.0999358 62.5546958,22.3125932 63.1548807,22.4573465 C63.7546584,22.6020999 64.5677989,22.6748832 65.5938952,22.6748832 C66.135446,22.6748832 66.6391289,22.6460139 67.1037225,22.5878685 C67.5683161,22.5301298 67.9649104,22.4134326 68.2943199,22.2394033 C68.6233222,22.0653739 68.8843253,21.8185613 69.0781434,21.4989654 C69.2715544,21.1789629 69.3684635,20.7577143 69.3684635,20.2352197 C69.3684635,19.5964345 69.1990762,19.0885779 68.8603016,18.71043 C68.5215269,18.3330954 67.8879532,18.0187854 66.9587661,17.7670935 L61.9064636,16.4016951 C61.2675965,16.2280724 60.6625254,16.0150084 60.0916576,15.7629099 C59.5203826,15.5112179 59.0171068,15.167632 58.5818303,14.7321521 C58.1461465,14.2966721 57.7975996,13.7546602 57.5365965,13.1061163 C57.2751863,12.4571658 57.1444812,11.658176 57.1444812,10.7095535 C57.1444812,9.9548843 57.2507554,9.21444642 57.4637111,8.48823992 C57.6766668,7.76203341 58.0687821,7.10861021 58.6400572,6.52756368 C59.2105178,5.94692377 60.0045209,5.47728854 61.0208448,5.11906461 C62.0367615,4.7612473 63.3482917,4.58193203 64.9554353,4.58193203 C66.483993,4.58193203 67.7666133,4.7498622 68.8024819,5.08490933 C69.8379433,5.42117628 70.6653352,5.87617352 71.2850648,6.4515275 C71.9043871,7.02688148 72.3543222,7.71445998 72.6352771,8.514263 C72.9154177,9.31447263 73.0656675,10.1781135 73.0852122,11.1055923 L68.7878234,11.1055923 C68.7295965,10.6806842 68.6668906,10.2891182 68.5992985,9.93130088 C68.5312993,9.57389018 68.3667981,9.26486613 68.1053879,9.00341553 C67.8443849,8.74237153 67.4567485,8.54475879 66.9441075,8.40895085 C66.4310594,8.27395614 65.7099418,8.20605217 64.7807546,8.20605217 C63.6777011,8.20605217 62.8543811,8.34226672 62.3128303,8.61306937 C61.7708723,8.88387202 61.5000969,9.43604919 61.5000969,10.2679744 C61.5000969,11.0234569 61.6979869,11.5512375 62.0953956,11.8509095 C62.4915827,12.1509881 62.9997447,12.3782834 63.6194743,12.533202 L68.2650029,13.7823097 C69.0003719,13.976263 69.7027592,14.2088442 70.3701289,14.4796469 C71.0379059,14.7504495 71.6189532,15.1131462 72.1124567,15.56855 C72.6059601,16.0231407 72.9980754,16.5944285 73.2883955,17.282007 C73.5787156,17.9695855 73.7240793,18.8356661 73.7240793,19.8806553 C73.7240793,20.8492017 73.5933741,21.6864129 73.3319639,22.3931021 C73.0705537,23.0997913 72.7268929,23.6905965 72.3013887,24.1647044 C71.8754773,24.6392189 71.3815667,25.0165536 70.8204712,25.2975215 C70.2585613,25.5784894 69.6779211,25.7911467 69.0781434,25.9363067 C68.4779586,26.0806535 67.8777737,26.1778334 67.277996,26.2266267 C66.6778111,26.2750133 66.1163085,26.2990034 65.5938952,26.2990034 C63.8902497,26.2990034 62.4822176,26.1408318 61.3689846,25.8248954 C60.2561588,25.5085524 59.3607676,25.0482692 58.6836255,24.4440459 C58.0056691,23.8398225 57.5170518,23.1095499 57.2169594,22.251195 C56.9168669,21.3932466 56.7381145,20.4230738 56.6798876,19.3402698 L60.9772764,19.3402698 Z" id="Fill-16" fill="#FEFEFE" mask="url(#mask-2)"></path>
                    <polygon id="Fill-17" fill="#FEFEFE" mask="url(#mask-2)" points="81.128341 8.67032014 74.8565312 8.67032014 74.8565312 5.04579339 91.6682225 5.04579339 91.6682225 8.67032014 85.4257298 8.67032014 85.4257298 25.835386 81.128341 25.835386"></polygon>
                    <polygon id="Fill-18" fill="#FEFEFE" mask="url(#mask-2)" points="4.82387393 10.109559 25.6267539 10.109559 25.6267539 4.91592197 4.82387393 4.91592197"></polygon>
                    <polygon id="Fill-19" fill="#FEFEFE" mask="url(#mask-2)" points="4.82387393 25.6916898 10.0243903 25.6916898 10.0243903 20.4980528 4.82387393 20.4980528"></polygon>
                    <polygon id="Fill-20" fill="#FEFEFE" mask="url(#mask-2)" points="4.82387393 17.9002178 17.8068418 17.9002178 17.8068418 12.690723 4.82387393 12.690723"></polygon>
                    <path d="M6.17502282,41.9563978 L6.17502282,43.7105159 L7.41081731,43.7105159 C7.72678981,43.7105159 7.98372106,43.7007572 8.18242541,43.6824597 C8.3803154,43.6637556 8.53545138,43.6255342 8.64661181,43.5661691 C8.75817942,43.5076172 8.835951,43.4222289 8.87911219,43.3112243 C8.92268056,43.199813 8.94426116,43.0485538 8.94426116,42.8566336 C8.94426116,42.6586143 8.92553083,42.4992229 8.88847736,42.3784596 C8.85142388,42.2576962 8.78464619,42.1670221 8.68855146,42.1048107 C8.59245673,42.0430058 8.46256597,42.0027514 8.29847201,41.9840473 C8.13437805,41.9657498 7.92834443,41.9563978 7.68037117,41.9563978 L6.17502282,41.9563978 Z M6.17502282,39.3394521 L6.17502282,40.8150419 L7.71783183,40.8150419 C7.92182954,40.8150419 8.09080967,40.8056898 8.22395788,40.7873924 C8.35710608,40.7686883 8.46256597,40.7312801 8.53993037,40.6759811 C8.61729477,40.6202754 8.67144985,40.541393 8.7028028,40.4393337 C8.73334137,40.3372744 8.74922144,40.1998401 8.74922144,40.0262173 C8.74922144,39.8904094 8.73659882,39.7773717 8.71176078,39.6875107 C8.68692273,39.5980564 8.62951021,39.5264929 8.53993037,39.4744468 C8.44994336,39.421994 8.32005261,39.3862123 8.14985093,39.3675082 C7.97924206,39.3488041 7.74837041,39.3394521 7.45723595,39.3394521 L6.17502282,39.3394521 Z M8.05212747,38.1985028 C8.70891051,38.1985028 9.21055757,38.3282115 9.55747582,38.5880357 C9.90439408,38.8478599 10.0778532,39.2930985 10.0778532,39.9241581 C10.0778532,40.1843889 10.0513864,40.3941999 9.99886009,40.5552177 C9.94633373,40.7162355 9.88118476,40.8463509 9.80382036,40.9451573 C9.72604878,41.0439636 9.64420539,41.1183734 9.55747582,41.1679799 C9.47074626,41.2175864 9.39012441,41.2574342 9.31601746,41.28793 C9.52042235,41.3688455 9.6889953,41.4660254 9.82255069,41.5806896 C9.95529171,41.6949472 10.0595301,41.8234361 10.133637,41.9657498 C10.207744,42.1080635 10.2606775,42.2613557 10.2916233,42.4248132 C10.322569,42.5890839 10.3380419,42.7578273 10.3380419,42.9306368 C10.3380419,43.2026592 10.30221,43.4563842 10.2309533,43.6918118 C10.1601038,43.9268327 10.0359136,44.1309512 9.85960417,44.3037607 C9.68288759,44.4773834 9.44265077,44.6115649 9.13930088,44.7079316 C8.835951,44.8038917 8.45482953,44.8514652 7.99634367,44.8514652 L4.7999724,44.8514652 L4.7999724,38.1985028 L8.05212747,38.1985028 Z" id="Fill-21" fill="#1D1D1B" mask="url(#mask-2)"></path>
                    <polygon id="Fill-22" fill="#1D1D1B" mask="url(#mask-2)" points="11.6015654 38.1984214 16.5170551 38.1984214 16.5170551 39.3397774 12.9766158 39.3397774 12.9766158 40.7966631 16.2479084 40.7966631 16.2479084 41.9376124 12.9766158 41.9376124 12.9766158 43.7104345 16.6656762 43.7104345 16.6656762 44.8513838 11.6015654 44.8513838"></polygon>
                    <path d="M23.319381,42.6707313 C23.294543,42.998866 23.2277653,43.3034173 23.1194551,43.5843852 C23.011145,43.8653532 22.8437936,44.1117592 22.6178081,44.3231967 C22.3914154,44.5350408 22.1019097,44.7009379 21.7488837,44.8204814 C21.3958578,44.9400249 20.9622099,45.0002033 20.4479403,45.0002033 C19.9462932,45.0002033 19.5061305,44.934739 19.1286737,44.8050302 C18.7504025,44.6753214 18.4360587,44.4728294 18.1852352,44.197554 C17.9344116,43.921872 17.7454796,43.5660878 17.6184391,43.1302012 C17.4913986,42.6943147 17.4278784,42.169787 17.4278784,41.5574315 C17.4278784,40.3636228 17.6742229,39.4804646 18.166912,38.9079569 C18.6591939,38.3362624 19.4226584,38.0500086 20.4573054,38.0500086 C21.2810327,38.0500086 21.936187,38.226071 22.4223612,38.579009 C22.9089425,38.9323536 23.2078134,39.4918497 23.319381,40.2583107 L21.9439234,40.2583107 C21.90687,40.1098978 21.8604513,39.9720568 21.8046675,39.8456009 C21.7488837,39.7187384 21.6682619,39.6073271 21.5632092,39.511367 C21.4577493,39.4154069 21.3180862,39.3414038 21.1450342,39.288951 C20.9711679,39.2360917 20.741925,39.209662 20.4573054,39.209662 C20.1722787,39.209662 19.9275629,39.2547957 19.723158,39.3446567 C19.5187531,39.4349242 19.349773,39.5780512 19.2166248,39.7736309 C19.0834766,39.9688039 18.9845316,40.2237488 18.9193826,40.5372455 C18.8542336,40.8511489 18.8220663,41.2313298 18.8220663,41.6786014 C18.8220663,42.0266601 18.8481259,42.3340577 18.9006523,42.6007942 C18.9531786,42.8679374 19.0431656,43.0931997 19.1702061,43.276581 C19.2972466,43.4599624 19.4662267,43.5994298 19.6767393,43.6957966 C19.887252,43.7921633 20.1535484,43.8401433 20.4760358,43.8401433 C20.9341144,43.8401433 21.2798112,43.7551617 21.5119044,43.5847919 C21.7444047,43.4148286 21.8881396,43.1102773 21.9439234,42.6707313 L23.319381,42.6707313 Z" id="Fill-23" fill="#1D1D1B" mask="url(#mask-2)"></path>
                    <path d="M26.9523726,39.7200396 C26.7601831,40.1530798 26.582245,40.5844937 26.418151,41.0146877 C26.254057,41.4444751 26.1005498,41.8730426 25.9580364,42.2999837 L27.9373435,42.2999837 C27.7948302,41.8730426 27.6413229,41.4444751 27.4776361,41.0146877 C27.313135,40.5844937 27.1384543,40.1530798 26.9523726,39.7200396 L26.9523726,39.7200396 Z M28.6991793,44.8514652 C28.6372877,44.6164442 28.5721388,44.3814233 28.5041395,44.1464024 C28.4361403,43.9113815 28.3677339,43.6763606 28.2997347,43.440933 L25.5956453,43.440933 C25.527646,43.6763606 25.4608684,43.9113815 25.3957194,44.1464024 C25.3309776,44.3814233 25.2670502,44.6164442 25.2055658,44.8514652 L23.7466361,44.8514652 C24.0809318,43.7316596 24.4498378,42.6216127 24.8521327,41.5205112 C25.2548347,40.4194098 25.7039554,39.3118025 26.1994948,38.1985028 L27.7423038,38.1985028 C28.2378431,39.2996042 28.6885926,40.4007057 29.0941449,41.5018072 C29.4996972,42.6029086 29.870232,43.7194613 30.2045276,44.8514652 L28.6991793,44.8514652 Z" id="Fill-24" fill="#1D1D1B" mask="url(#mask-2)"></path>
                    <path d="M32.2026058,38.1984214 L32.2026058,41.7119435 C32.2026058,42.1331921 32.2131925,42.4816573 32.2351802,42.7573393 C32.2567608,43.0330213 32.3109159,43.2513712 32.3976455,43.412389 C32.4843751,43.5738134 32.6163017,43.6852247 32.7926111,43.7474361 C32.9693277,43.8092409 33.2124148,43.8401433 33.5222796,43.8401433 C33.8068991,43.8401433 34.0345133,43.8124938 34.2051222,43.7563815 C34.3753239,43.7006759 34.5039931,43.5965836 34.5907226,43.4449178 C34.6774522,43.2932521 34.7348647,43.0826278 34.762553,42.8134516 C34.7902414,42.5438688 34.8044927,42.1949969 34.8044927,41.7672425 L34.8044927,38.1984214 L36.1795431,38.1984214 L36.1795431,42.5963215 C36.1795431,43.1102773 36.1160229,43.5246135 35.9889824,43.8401433 C35.8619419,44.1552665 35.6856325,44.3984196 35.459647,44.5683829 C35.2332543,44.7387527 34.9592215,44.8530103 34.6371413,44.9119688 C34.3150611,44.9705207 33.9587776,45.0002033 33.5686982,45.0002033 C33.1533735,45.0002033 32.7771382,44.9688943 32.4395851,44.9070895 C32.1016249,44.8456913 31.8137479,44.7265544 31.5755469,44.5500854 C31.3369388,44.374023 31.1524858,44.127617 31.0225951,43.8124938 C30.8922971,43.4965574 30.8271482,43.0854741 30.8271482,42.5784307 L30.8271482,38.1984214 L32.2026058,38.1984214 Z" id="Fill-25" fill="#1D1D1B" mask="url(#mask-2)"></path>
                    <path d="M38.697795,42.7727905 C38.7100105,42.9464132 38.7332198,43.0992988 38.767423,43.2322605 C38.801219,43.3652221 38.866368,43.4766334 38.9624627,43.5660878 C39.0585575,43.6559487 39.2026996,43.7242593 39.394889,43.7706129 C39.5866713,43.8165599 39.84686,43.8401433 40.1750479,43.8401433 C40.348507,43.8401433 40.5097507,43.8307913 40.6583718,43.8124938 C40.8069929,43.7937897 40.9340334,43.7563815 41.0394933,43.7006759 C41.144546,43.6449702 41.2280181,43.5660878 41.2903168,43.4636219 C41.3522083,43.3615626 41.3831541,43.2265679 41.3831541,43.059451 C41.3831541,42.8549259 41.328999,42.6922816 41.2206888,42.5715183 C41.1119715,42.4507549 40.9091953,42.3499155 40.6119532,42.2694066 L38.9950372,41.8323002 C38.7906323,41.7770012 38.5972213,41.7086906 38.414397,41.6281817 C38.2315727,41.5472662 38.0707362,41.437888 37.9310731,41.2980139 C37.7918172,41.1585465 37.6802496,40.9853304 37.5967775,40.777959 C37.5128982,40.570181 37.4709585,40.3144229 37.4709585,40.0110914 C37.4709585,39.7691581 37.5051617,39.5321042 37.573161,39.2999295 C37.6415674,39.0677549 37.7669792,38.8583504 37.9498035,38.6725294 C38.1322206,38.4867084 38.3863015,38.336669 38.7116392,38.2220049 C39.0369769,38.1069341 39.4563733,38.0500086 39.970643,38.0500086 C40.4600746,38.0500086 40.8705131,38.1036812 41.2019585,38.2110264 C41.5334039,38.3183716 41.7980716,38.4639382 41.9963688,38.6481328 C42.1946659,38.8323273 42.338808,39.0527103 42.428795,39.3080617 C42.5183749,39.5642264 42.5664222,39.8407216 42.5725299,40.1375473 L41.1974795,40.1375473 C41.1787492,40.0017394 41.1587973,39.8765033 41.1368096,39.7618391 C41.115229,39.647175 41.0627026,39.5483686 40.9792305,39.4650134 C40.8953512,39.3812516 40.771161,39.318227 40.607067,39.2743131 C40.442973,39.2316189 40.2125086,39.209662 39.9148592,39.209662 C39.5618332,39.209662 39.2983871,39.2531693 39.124928,39.340184 C38.951876,39.4263854 38.8651465,39.603261 38.8651465,39.8695909 C38.8651465,40.1111176 38.9282595,40.2802676 39.0553,40.3758211 C39.1823405,40.4721878 39.3448057,40.5445645 39.5435101,40.5945776 L41.0301281,40.9942758 C41.2654788,41.0560806 41.4898355,41.130897 41.7036056,41.217505 C41.9173756,41.3041131 42.1034574,41.4204037 42.2610364,41.5655637 C42.4194299,41.7115369 42.5448416,41.8941051 42.6376789,42.1140814 C42.7305162,42.3344643 42.7769348,42.6117727 42.7769348,42.9460066 C42.7769348,43.2554373 42.7354024,43.5238003 42.6515231,43.7498758 C42.568051,43.9759512 42.4577049,44.1650252 42.3217064,44.3170975 C42.1853008,44.4687633 42.0273145,44.5895266 41.8477477,44.6793876 C41.6677736,44.7692485 41.4820991,44.8375591 41.2903168,44.8835061 C41.0981274,44.9302663 40.9059379,44.9611687 40.7141556,44.9766199 C40.5219662,44.9920711 40.3423993,44.9997967 40.1750479,44.9997967 C39.6302397,44.9997967 39.1794902,44.9489704 38.8232068,44.8481309 C38.4669234,44.7468849 38.1806751,44.5996919 37.9636476,44.4065519 C37.7466201,44.2130052 37.5902626,43.9792041 37.4941679,43.7043354 C37.3984803,43.4298732 37.3410678,43.1192227 37.3223375,42.7727905 L38.697795,42.7727905 Z" id="Fill-26" fill="#1D1D1B" mask="url(#mask-2)"></path>
                    <polygon id="Fill-27" fill="#1D1D1B" mask="url(#mask-2)" points="43.9382966 38.1984214 48.8537863 38.1984214 48.8537863 39.3397774 45.313347 39.3397774 45.313347 40.7966631 48.5846396 40.7966631 48.5846396 41.9376124 45.313347 41.9376124 45.313347 43.7104345 49.0028146 43.7104345 49.0028146 44.8513838 43.9382966 44.8513838"></polygon>
                    <path d="M54.0016949,41.5577161 C54.0016949,42.0419893 54.0403771,42.4331487 54.1177415,42.7316009 C54.1955131,43.0296464 54.3115597,43.2610079 54.4662885,43.4256851 C54.6210173,43.5899558 54.8164642,43.7005539 55.0518149,43.7562595 C55.2871655,43.8123718 55.5628271,43.8400213 55.8787996,43.8400213 C56.1080425,43.8400213 56.329549,43.818471 56.543319,43.7749636 C56.7570891,43.7314563 56.9456139,43.6306169 57.1101151,43.4720387 C57.274209,43.3134606 57.4040998,43.0776265 57.5001945,42.7641297 C57.5962892,42.4502263 57.6443366,42.0236918 57.6443366,41.4828998 C57.6443366,41.0547388 57.6101334,40.6957017 57.5421342,40.4070082 C57.4737278,40.117908 57.3654176,39.8853268 57.2167965,39.7080446 C57.0681754,39.531169 56.8776147,39.4038998 56.6455215,39.3262372 C56.4130211,39.2485746 56.1296231,39.2099466 55.7953275,39.2099466 C55.4854627,39.2099466 55.2175375,39.2457283 54.9915521,39.3168852 C54.7651594,39.3884486 54.5794848,39.5128715 54.4341212,39.6897471 C54.2883504,39.8666227 54.179633,40.1057097 54.1087835,40.4070082 C54.0371197,40.7083066 54.0016949,41.092147 54.0016949,41.5577161 M52.6079142,41.5203079 C52.6079142,40.7656387 52.7036017,40.1606021 52.8961984,39.7060115 C53.0879806,39.2514209 53.3375826,38.9005159 53.64419,38.6532967 C53.9507973,38.4056709 54.2928294,38.2434332 54.6706934,38.1657706 C55.0485574,38.0885146 55.4264214,38.0498866 55.8042854,38.0498866 C56.070989,38.0498866 56.3356567,38.0669642 56.5986957,38.1007129 C56.8621418,38.1348682 57.1129653,38.1982995 57.3515734,38.2910067 C57.5901815,38.3837139 57.8112808,38.5126094 58.0160929,38.6760669 C58.2204978,38.839931 58.3984359,39.0505552 58.5503145,39.3071265 C58.702193,39.5641044 58.8210899,39.8731285 58.9078194,40.2350119 C58.994549,40.5973019 59.0381174,41.0254629 59.0381174,41.5203079 C59.0381174,42.2501739 58.9469088,42.8409791 58.7640845,43.2927235 C58.5812602,43.7440612 58.3393947,44.0965926 58.0393022,44.3503176 C57.7388026,44.6040426 57.3963634,44.7756323 57.0123916,44.8654932 C56.6284199,44.9549475 56.235083,45.0000813 55.8323809,45.0000813 C55.4048408,45.0000813 54.9972526,44.9521013 54.6104306,44.8561412 C54.2232014,44.7601811 53.8811693,44.5853385 53.58352,44.3316135 C53.2862778,44.0782951 53.0492984,43.7257638 52.872989,43.2740194 C52.6962725,42.822275 52.6079142,42.2379756 52.6079142,41.5203079" id="Fill-28" fill="#1D1D1B" mask="url(#mask-2)"></path>
                    <path d="M61.6025436,39.3396147 L61.6025436,41.2791472 L62.466989,41.2791472 C62.7455008,41.2791472 62.977594,41.2681687 63.1636758,41.2462117 C63.3493503,41.225068 63.5012289,41.1783078 63.6189042,41.1075575 C63.7365795,41.0364007 63.8200516,40.9310885 63.8697277,40.7916211 C63.9194038,40.6525603 63.9442419,40.465926 63.9442419,40.2300919 C63.9442419,40.0446775 63.9259187,39.8934183 63.8884581,39.7755013 C63.8514046,39.6583974 63.7817766,39.5673166 63.6795742,39.5018523 C63.5773717,39.4367946 63.4344512,39.3941005 63.2520341,39.3721436 C63.0692098,39.3501866 62.8350807,39.3396147 62.5504611,39.3396147 L61.6025436,39.3396147 Z M60.2274932,38.1982588 L62.7455008,38.1982588 C63.0924191,38.1982588 63.4222358,38.2153364 63.735358,38.2490851 C64.048073,38.2832404 64.3237346,38.3698485 64.5619355,38.5093159 C64.8005436,38.6483767 64.9894756,38.856968 65.1291387,39.1354962 C65.2683946,39.4140245 65.3380226,39.7974582 65.3380226,40.2862042 C65.3380226,40.756246 65.2732808,41.1319542 65.1429829,41.4137353 C65.0130921,41.6951098 64.8363755,41.9098002 64.6132403,42.0586197 C64.3905123,42.2070326 64.1303236,42.3042125 63.8326743,42.3505661 C63.5354321,42.3973263 63.222717,42.4200965 62.8941219,42.4200965 L61.6025436,42.4200965 L61.6025436,44.8516278 L60.2274932,44.8516278 L60.2274932,38.1982588 Z" id="Fill-29" fill="#1D1D1B" mask="url(#mask-2)"></path>
                    <path d="M67.8933687,39.3396147 L67.8933687,41.2791472 L68.7578141,41.2791472 C69.036326,41.2791472 69.2684192,41.2681687 69.4545009,41.2462117 C69.6405826,41.225068 69.792054,41.1783078 69.9097293,41.1075575 C70.0274046,41.0364007 70.1108768,40.9310885 70.1605528,40.7916211 C70.2102289,40.6525603 70.235067,40.465926 70.235067,40.2300919 C70.235067,40.0446775 70.2167438,39.8934183 70.1792832,39.7755013 C70.1422297,39.6583974 70.0726017,39.5673166 69.9703993,39.5018523 C69.8681968,39.4367946 69.7256835,39.3941005 69.5428592,39.3721436 C69.3600349,39.3501866 69.1259058,39.3396147 68.8412862,39.3396147 L67.8933687,39.3396147 Z M66.5183183,38.1982588 L69.036326,38.1982588 C69.3832442,38.1982588 69.7130609,38.2153364 70.0261831,38.2490851 C70.3388981,38.2832404 70.6145597,38.3698485 70.8531678,38.5093159 C71.0913687,38.6483767 71.2803007,38.856968 71.4199638,39.1354962 C71.5592198,39.4140245 71.6288477,39.7974582 71.6288477,40.2862042 C71.6288477,40.756246 71.5641059,41.1319542 71.433808,41.4137353 C71.3039172,41.6951098 71.1272007,41.9098002 70.9040654,42.0586197 C70.6813374,42.2070326 70.4211487,42.3042125 70.1234994,42.3505661 C69.8262572,42.3973263 69.5135421,42.4200965 69.184947,42.4200965 L67.8933687,42.4200965 L67.8933687,44.8516278 L66.5183183,44.8516278 L66.5183183,38.1982588 Z" id="Fill-30" fill="#1D1D1B" mask="url(#mask-2)"></path>
                    <path d="M73.9052748,41.5577161 C73.9052748,42.0419893 73.943957,42.4331487 74.0213214,42.7316009 C74.0986858,43.0296464 74.2151396,43.2610079 74.3698684,43.4256851 C74.5245972,43.5899558 74.7196369,43.7005539 74.9553948,43.7562595 C75.1907454,43.8123718 75.466407,43.8400213 75.7823795,43.8400213 C76.0116224,43.8400213 76.2331289,43.818471 76.446899,43.7749636 C76.660669,43.7314563 76.8491938,43.6306169 77.013695,43.4720387 C77.1777889,43.3134606 77.3076797,43.0776265 77.4037744,42.7641297 C77.4998692,42.4502263 77.5479165,42.0236918 77.5479165,41.4828998 C77.5479165,41.0547388 77.5137133,40.6957017 77.4457141,40.4070082 C77.3773077,40.117908 77.2689975,39.8853268 77.1203764,39.7080446 C76.9717553,39.531169 76.7811946,39.4038998 76.5491014,39.3262372 C76.316601,39.2485746 76.033203,39.2099466 75.6989074,39.2099466 C75.3886354,39.2099466 75.1211175,39.2457283 74.895132,39.3168852 C74.6687393,39.3884486 74.4826576,39.5128715 74.3372939,39.6897471 C74.1919303,39.8666227 74.0832129,40.1057097 74.0123634,40.4070082 C73.9406996,40.7083066 73.9052748,41.092147 73.9052748,41.5577161 M72.5114941,41.5203079 C72.5114941,40.7656387 72.6071816,40.1606021 72.7997783,39.7060115 C72.9915605,39.2514209 73.2411625,38.9005159 73.5473627,38.6532967 C73.85397,38.4056709 74.1964093,38.2434332 74.5742733,38.1657706 C74.9521373,38.0885146 75.3300013,38.0498866 75.7078653,38.0498866 C75.9741618,38.0498866 76.2392366,38.0669642 76.5022756,38.1007129 C76.7657217,38.1348682 77.0165453,38.1982995 77.2551533,38.2910067 C77.4937614,38.3837139 77.7148608,38.5126094 77.9196728,38.6760669 C78.1240777,38.839931 78.3020158,39.0505552 78.4538944,39.3071265 C78.6053657,39.5641044 78.7246698,39.8731285 78.8113993,40.2350119 C78.8981289,40.5973019 78.9416973,41.0254629 78.9416973,41.5203079 C78.9416973,42.2501739 78.8504887,42.8409791 78.6676644,43.2927235 C78.4848401,43.7440612 78.2429746,44.0965926 77.9428821,44.3503176 C77.6423825,44.6040426 77.2999433,44.7756323 76.9159715,44.8654932 C76.5319998,44.9549475 76.1386629,45.0000813 75.7359608,45.0000813 C75.3084207,45.0000813 74.9008325,44.9521013 74.5140105,44.8561412 C74.1267813,44.7601811 73.7847492,44.5853385 73.4870999,44.3316135 C73.1898577,44.0782951 72.9528783,43.7257638 72.7761618,43.2740194 C72.5998524,42.822275 72.5114941,42.2379756 72.5114941,41.5203079" id="Fill-31" fill="#1D1D1B" mask="url(#mask-2)"></path>
                    <path d="M81.5062864,39.3396147 L81.5062864,41.0933262 L82.7420809,41.0933262 C83.0209999,41.0933262 83.2535003,41.0827543 83.4391749,41.0607973 C83.6248494,41.0396536 83.776728,40.9957396 83.8944033,40.9310885 C84.0120786,40.8660308 84.0955507,40.7716972 84.145634,40.6480876 C84.1949029,40.524478 84.2197409,40.357361 84.2197409,40.1467367 C84.2197409,39.9800264 84.2010106,39.8438118 84.1639571,39.7384997 C84.1269037,39.6335942 84.0572757,39.5514588 83.9550733,39.4929069 C83.8528708,39.4339484 83.711579,39.3941005 83.5320121,39.3721436 C83.3524453,39.3501866 83.1170947,39.3396147 82.8259602,39.3396147 L81.5062864,39.3396147 Z M80.131236,38.1982588 L83.0209999,38.1982588 C83.3679182,38.1982588 83.6977348,38.2108637 84.0104499,38.2352604 C84.3235721,38.2604702 84.5992337,38.3360998 84.8378418,38.4629623 C85.0760427,38.5894182 85.2653819,38.7878442 85.4046378,39.0566137 C85.5438937,39.32579 85.6135217,39.7043444 85.6135217,40.1934969 C85.6135217,40.5212251 85.5809472,40.7981269 85.5157982,41.0237958 C85.4510565,41.2494646 85.3610694,41.4397584 85.2466516,41.594677 C85.1318265,41.749189 84.9954209,41.8699524 84.8378418,41.9565604 C84.6798555,42.0427619 84.5043605,42.1082262 84.3125782,42.1513269 L86.050427,44.8516278 L84.3777272,44.8516278 L82.7420809,42.2346821 L81.5062864,42.2346821 L81.5062864,44.8516278 L80.131236,44.8516278 L80.131236,38.1982588 Z" id="Fill-32" fill="#1D1D1B" mask="url(#mask-2)"></path>
                    <polygon id="Fill-33" fill="#1D1D1B" mask="url(#mask-2)" points="88.2060842 39.3582781 86.1990888 39.3582781 86.1990888 38.1982181 91.579172 38.1982181 91.579172 39.3582781 89.5815418 39.3582781 89.5815418 44.8515871 88.2060842 44.8515871"></polygon>
                    <path d="M93.8742073,38.1984214 L93.8742073,41.7119435 C93.8742073,42.1331921 93.884794,42.4816573 93.9067818,42.7573393 C93.9283624,43.0330213 93.9825175,43.2513712 94.069247,43.412389 C94.1559766,43.5738134 94.2879032,43.6852247 94.4642126,43.7474361 C94.6409292,43.8092409 94.8836091,43.8401433 95.1938811,43.8401433 C95.4785006,43.8401433 95.7061149,43.8124938 95.8767237,43.7563815 C96.0469254,43.7006759 96.1755946,43.5965836 96.2623242,43.4449178 C96.3490537,43.2932521 96.4064663,43.0826278 96.4341546,42.8134516 C96.4618429,42.5438688 96.4760942,42.1949969 96.4760942,41.7672425 L96.4760942,38.1984214 L97.8511446,38.1984214 L97.8511446,42.5963215 C97.8511446,43.1102773 97.7876244,43.5246135 97.6605839,43.8401433 C97.5335434,44.1552665 97.357234,44.3984196 97.1312485,44.5683829 C96.9048559,44.7387527 96.630823,44.8530103 96.3087428,44.9119688 C95.9866626,44.9705207 95.6303792,45.0002033 95.2398926,45.0002033 C94.8249751,45.0002033 94.4487398,44.9688943 94.1111867,44.9070895 C93.7732264,44.8456913 93.4853494,44.7265544 93.2467413,44.5500854 C93.0085404,44.374023 92.8240874,44.127617 92.6941966,43.8124938 C92.5638987,43.4965574 92.4991569,43.0854741 92.4991569,42.5784307 L92.4991569,38.1984214 L93.8742073,38.1984214 Z" id="Fill-34" fill="#1D1D1B" mask="url(#mask-2)"></path>
                    <polygon id="Fill-35" fill="#1D1D1B" mask="url(#mask-2)" points="99.2916291 38.1984214 100.694775 38.1984214 103.287297 42.5873761 103.287297 38.1984214 104.662347 38.1984214 104.662347 44.8513838 103.287297 44.8513838 100.667087 40.4347797 100.667087 44.8513838 99.2916291 44.8513838"></polygon>
                    <polygon id="Fill-36" fill="#1D1D1B" mask="url(#mask-2)" points="106.028317 44.8511805 107.403368 44.8511805 107.403368 38.1982181 106.028317 38.1982181"></polygon>
                    <polygon id="Fill-37" fill="#1D1D1B" mask="url(#mask-2)" points="110.256119 39.3582781 108.249124 39.3582781 108.249124 38.1982181 113.6288 38.1982181 113.6288 39.3582781 111.631169 39.3582781 111.631169 44.8515871 110.256119 44.8515871"></polygon>
                    <path d="M116.305771,42.2438715 C115.822447,41.5701177 115.388799,40.8955508 115.004827,40.2209838 C114.620448,39.5468235 114.27068,38.8726631 113.954707,38.1985028 L115.571216,38.1985028 C115.75119,38.6685446 115.961703,39.1353336 116.203568,39.5992762 C116.445027,40.0636255 116.717431,40.5304145 117.021188,41.0004563 C117.31843,40.5304145 117.581876,40.0636255 117.810712,39.5992762 C118.039955,39.1353336 118.24151,38.6685446 118.414969,38.1985028 L119.985466,38.1985028 C119.669493,38.8791689 119.323797,39.5565821 118.94919,40.2303359 C118.574176,40.9049028 118.151522,41.5823161 117.680821,42.2625756 L117.680821,44.8514652 L116.305771,44.8514652 L116.305771,42.2438715 Z" id="Fill-38" fill="#1D1D1B" mask="url(#mask-2)"></path>
                    <path d="M124.910239,41.9563978 L124.910239,43.7105159 L126.146034,43.7105159 C126.462414,43.7105159 126.718938,43.7007572 126.917642,43.6824597 C127.115532,43.6637556 127.270668,43.6255342 127.381828,43.5661691 C127.493803,43.5076172 127.57076,43.4222289 127.614329,43.3112243 C127.65749,43.199813 127.679478,43.0485538 127.679478,42.8566336 C127.679478,42.6586143 127.660747,42.4992229 127.623694,42.3784596 C127.586233,42.2576962 127.519863,42.1670221 127.423768,42.1048107 C127.327673,42.0430058 127.197783,42.0027514 127.033689,41.9840473 C126.869595,41.9657498 126.663561,41.9563978 126.415588,41.9563978 L124.910239,41.9563978 Z M124.910239,39.3394521 L124.910239,40.8150419 L126.452641,40.8150419 C126.657046,40.8150419 126.826026,40.8056898 126.959174,40.7873924 C127.092323,40.7686883 127.197783,40.7312801 127.275147,40.6759811 C127.352511,40.6202754 127.406666,40.541393 127.437612,40.4393337 C127.468558,40.3372744 127.484031,40.1998401 127.484031,40.0262173 C127.484031,39.8904094 127.471815,39.7773717 127.446977,39.6875107 C127.422139,39.5980564 127.364727,39.5264929 127.275147,39.4744468 C127.18516,39.421994 127.055269,39.3862123 126.885067,39.3675082 C126.714459,39.3488041 126.483587,39.3394521 126.192452,39.3394521 L124.910239,39.3394521 Z M126.787344,38.1985028 C127.444127,38.1985028 127.945774,38.3282115 128.292692,38.5880357 C128.639611,38.8478599 128.81307,39.2930985 128.81307,39.9241581 C128.81307,40.1843889 128.78701,40.3941999 128.734077,40.5552177 C128.68155,40.7162355 128.616401,40.8463509 128.539037,40.9451573 C128.461672,41.0439636 128.379422,41.1183734 128.292692,41.1679799 C128.205963,41.2175864 128.125748,41.2574342 128.051234,41.28793 C128.255639,41.3688455 128.424212,41.4660254 128.55736,41.5806896 C128.690508,41.6949472 128.794339,41.8234361 128.868854,41.9657498 C128.94296,42.1080635 128.995487,42.2613557 129.026433,42.4248132 C129.057786,42.5890839 129.073258,42.7578273 129.073258,42.9306368 C129.073258,43.2026592 129.037426,43.4563842 128.966577,43.6918118 C128.894913,43.9268327 128.77113,44.1309512 128.594821,44.3037607 C128.418104,44.4773834 128.177867,44.6115649 127.874517,44.7079316 C127.57076,44.8038917 127.190046,44.8514652 126.73156,44.8514652 L123.535189,44.8514652 L123.535189,38.1985028 L126.787344,38.1985028 Z" id="Fill-39" fill="#1D1D1B" mask="url(#mask-2)"></path>
                    <polygon id="Fill-40" fill="#1D1D1B" mask="url(#mask-2)" points="130.336823 38.1984214 135.252312 38.1984214 135.252312 39.3397774 131.711873 39.3397774 131.711873 40.7966631 134.982758 40.7966631 134.982758 41.9376124 131.711873 41.9376124 131.711873 43.7104345 135.401341 43.7104345 135.401341 44.8513838 130.336823 44.8513838"></polygon>
                    <polygon id="Fill-41" fill="#1D1D1B" mask="url(#mask-2)" points="136.627851 38.1984214 138.002902 38.1984214 138.002902 43.6917304 141.329571 43.6917304 141.329571 44.8513838 136.627851 44.8513838"></polygon>
                    <path d="M143.215919,41.5577161 C143.215919,42.0419893 143.254601,42.4331487 143.331965,42.7316009 C143.40933,43.0296464 143.525783,43.2610079 143.680919,43.4256851 C143.835241,43.5899558 144.030688,43.7005539 144.266039,43.7562595 C144.501389,43.8123718 144.777051,43.8400213 145.093023,43.8400213 C145.322266,43.8400213 145.543773,43.818471 145.757136,43.7749636 C145.971313,43.7314563 146.159838,43.6306169 146.324339,43.4720387 C146.488433,43.3134606 146.618324,43.0776265 146.714418,42.7641297 C146.810513,42.4502263 146.85856,42.0236918 146.85856,41.4828998 C146.85856,41.0547388 146.824357,40.6957017 146.756358,40.4070082 C146.687951,40.117908 146.580049,39.8853268 146.43102,39.7080446 C146.282399,39.531169 146.091838,39.4038998 145.859338,39.3262372 C145.627245,39.2485746 145.344254,39.2099466 145.009144,39.2099466 C144.699279,39.2099466 144.431354,39.2457283 144.205776,39.3168852 C143.979383,39.3884486 143.793709,39.5128715 143.647938,39.6897471 C143.502574,39.8666227 143.393857,40.1057097 143.323007,40.4070082 C143.251751,40.7083066 143.215919,41.092147 143.215919,41.5577161 M141.822138,41.5203079 C141.822138,40.7656387 141.917825,40.1606021 142.110015,39.7060115 C142.302204,39.2514209 142.551399,38.9005159 142.858007,38.6532967 C143.165021,38.4056709 143.507053,38.2434332 143.884917,38.1657706 C144.262781,38.0885146 144.640645,38.0498866 145.018916,38.0498866 C145.284806,38.0498866 145.549473,38.0669642 145.813327,38.1007129 C146.076366,38.1348682 146.327596,38.1982995 146.565797,38.2910067 C146.804405,38.3837139 147.025505,38.5126094 147.229909,38.6760669 C147.434314,38.839931 147.61266,39.0505552 147.764538,39.3071265 C147.916417,39.5641044 148.035314,39.8731285 148.12245,40.2350119 C148.20918,40.5973019 148.252341,41.0254629 148.252341,41.5203079 C148.252341,42.2501739 148.161133,42.8409791 147.978308,43.2927235 C147.795484,43.7440612 147.553618,44.0965926 147.253526,44.3503176 C146.953026,44.6040426 146.610587,44.7756323 146.227023,44.8654932 C145.842236,44.9549475 145.4489,45.0000813 145.046605,45.0000813 C144.619065,45.0000813 144.211476,44.9521013 143.824654,44.8561412 C143.437425,44.7601811 143.094986,44.5853385 142.798151,44.3316135 C142.500502,44.0782951 142.263522,43.7257638 142.086806,43.2740194 C141.910496,42.822275 141.822138,42.2379756 141.822138,41.5203079" id="Fill-42" fill="#1D1D1B" mask="url(#mask-2)"></path>
                    <polygon id="Fill-43" fill="#1D1D1B" mask="url(#mask-2)" points="149.413866 38.1984214 150.816604 38.1984214 153.409533 42.5873761 153.409533 38.1984214 154.784584 38.1984214 154.784584 44.8513838 153.409533 44.8513838 150.788916 40.4347797 150.788916 44.8513838 149.413866 44.8513838"></polygon>
                    <path d="M162.348623,42.058457 C162.348623,42.6090078 162.275331,43.0729505 162.130374,43.4502851 C161.984196,43.8280263 161.77572,44.1309512 161.502908,44.3594663 C161.230504,44.5887947 160.901909,44.7526588 160.517937,44.8514652 C160.133966,44.9502715 159.703168,44.999878 159.226359,44.999878 C158.811034,44.999878 158.407111,44.951898 158.013774,44.8563445 C157.620437,44.7603844 157.270261,44.5855418 156.963654,44.3318168 C156.657047,44.0784984 156.410702,43.7259671 156.225028,43.2738161 C156.039353,42.8224783 155.946109,42.2377723 155.946109,41.5205112 C155.946109,40.7654354 156.046682,40.1608055 156.248237,39.7062148 C156.449384,39.2516242 156.709573,38.9003126 157.028803,38.6530934 C157.347626,38.4058742 157.700652,38.2432299 158.087881,38.1659739 C158.47511,38.0883113 158.854603,38.0500899 159.226359,38.0500899 C160.1246,38.0500899 160.835131,38.223306 161.358766,38.5701448 C161.881994,38.9165771 162.178015,39.4793261 162.246421,40.258392 L160.870963,40.258392 C160.852233,40.0977808 160.812329,39.9518076 160.750031,39.8220988 C160.688139,39.6923901 160.595302,39.5826052 160.471519,39.4927443 C160.347736,39.4032899 160.188121,39.3337595 159.993081,39.284153 C159.797634,39.2345465 159.554954,39.2097433 159.263413,39.2097433 C158.94744,39.2097433 158.668928,39.2438986 158.427063,39.3122092 C158.185604,39.3805197 157.98405,39.5033161 157.823213,39.6801917 C157.661969,39.857474 157.541037,40.0949345 157.460822,40.3929801 C157.3802,40.6910257 157.339889,41.0699867 157.339889,41.5294567 C157.339889,42.0141365 157.383458,42.4065157 157.470187,42.7082208 C157.556917,43.0095192 157.6807,43.2437269 157.841944,43.4112505 C158.00278,43.5791806 158.201077,43.6922184 158.436835,43.7515835 C158.672186,43.8105421 158.938482,43.8402246 159.235317,43.8402246 C159.576128,43.8402246 159.858304,43.8117619 160.081439,43.7560562 C160.304167,43.699944 160.482105,43.6141491 160.615661,43.4990783 C160.748402,43.3840076 160.841646,43.2376277 160.89458,43.0603455 C160.947106,42.8826567 160.973166,42.6695928 160.973166,42.4203405 L159.430764,42.4203405 L159.430764,41.2789846 L162.348623,41.2789846 L162.348623,42.058457 Z" id="Fill-44" fill="#1D1D1B" mask="url(#mask-2)"></path>
                    <path d="M164.61597,42.7727905 C164.628186,42.9464132 164.651802,43.0992988 164.686006,43.2322605 C164.719802,43.3652221 164.784951,43.4766334 164.880638,43.5660878 C164.97714,43.6559487 165.120875,43.7242593 165.313064,43.7706129 C165.505254,43.8165599 165.765035,43.8401433 166.09363,43.8401433 C166.26709,43.8401433 166.427926,43.8307913 166.576547,43.8124938 C166.725575,43.7937897 166.852209,43.7563815 166.957669,43.7006759 C167.063129,43.6449702 167.146601,43.5660878 167.208492,43.4636219 C167.270791,43.3615626 167.301737,43.2265679 167.301737,43.059451 C167.301737,42.8549259 167.247174,42.6922816 167.138864,42.5715183 C167.030554,42.4507549 166.827778,42.3499155 166.530129,42.2694066 L164.913213,41.8323002 C164.709215,41.7770012 164.515397,41.7086906 164.33298,41.6281817 C164.149748,41.5472662 163.988912,41.437888 163.849248,41.2980139 C163.709993,41.1585465 163.598425,40.9853304 163.514953,40.777959 C163.431481,40.570181 163.389541,40.3144229 163.389541,40.0110914 C163.389541,39.7691581 163.423337,39.5321042 163.491743,39.2999295 C163.559743,39.0677549 163.685154,38.8583504 163.867979,38.6725294 C164.050396,38.4867084 164.304477,38.336669 164.629815,38.2220049 C164.955152,38.1069341 165.374549,38.0500086 165.889226,38.0500086 C166.37825,38.0500086 166.789096,38.1036812 167.120134,38.2110264 C167.451579,38.3183716 167.716247,38.4639382 167.914951,38.6481328 C168.113248,38.8323273 168.256983,39.0527103 168.34697,39.3080617 C168.43655,39.5642264 168.484598,39.8407216 168.491112,40.1375473 L167.115655,40.1375473 C167.097332,40.0017394 167.076973,39.8765033 167.055392,39.7618391 C167.033404,39.647175 166.981285,39.5483686 166.897406,39.4650134 C166.813934,39.3812516 166.689743,39.318227 166.52565,39.2743131 C166.361556,39.2316189 166.130684,39.209662 165.833442,39.209662 C165.480416,39.209662 165.21697,39.2531693 165.04351,39.340184 C164.870051,39.4263854 164.783322,39.603261 164.783322,39.8695909 C164.783322,40.1111176 164.846435,40.2802676 164.973883,40.3758211 C165.100516,40.4721878 165.263388,40.5445645 165.461685,40.5945776 L166.948711,40.9942758 C167.184061,41.0560806 167.408418,41.130897 167.622188,41.217505 C167.835958,41.3041131 168.021633,41.4204037 168.179619,41.5655637 C168.337605,41.7115369 168.463017,41.8941051 168.556261,42.1140814 C168.648692,42.3344643 168.69511,42.6117727 168.69511,42.9460066 C168.69511,43.2554373 168.653578,43.5238003 168.570106,43.7498758 C168.486226,43.9759512 168.376287,44.1650252 168.239882,44.3170975 C168.103476,44.4687633 167.945897,44.5895266 167.765923,44.6793876 C167.586356,44.7692485 167.400682,44.8375591 167.208492,44.8835061 C167.01671,44.9302663 166.82452,44.9611687 166.632331,44.9766199 C166.440141,44.9920711 166.260982,44.9997967 166.09363,44.9997967 C165.548415,44.9997967 165.097666,44.9489704 164.741789,44.8481309 C164.385506,44.7468849 164.098443,44.5996919 163.881823,44.4065519 C163.665203,44.2130052 163.508438,43.9792041 163.41275,43.7043354 C163.316656,43.4298732 163.259243,43.1192227 163.24092,42.7727905 L164.61597,42.7727905 Z" id="Fill-45" fill="#1D1D1B" mask="url(#mask-2)"></path>
                    <polygon id="Fill-46" fill="#1D1D1B" mask="url(#mask-2)" points="173.991884 39.3582781 171.984482 39.3582781 171.984482 38.1982181 177.364565 38.1982181 177.364565 39.3582781 175.366935 39.3582781 175.366935 44.8515871 173.991884 44.8515871"></polygon>
                    <path d="M179.120981,41.5577161 C179.120981,42.0419893 179.159663,42.4331487 179.237028,42.7316009 C179.314799,43.0296464 179.430846,43.2610079 179.585982,43.4256851 C179.740303,43.5899558 179.93575,43.7005539 180.171101,43.7562595 C180.406452,43.8123718 180.682113,43.8400213 180.998086,43.8400213 C181.227329,43.8400213 181.448835,43.818471 181.662198,43.7749636 C181.876375,43.7314563 182.0649,43.6306169 182.229401,43.4720387 C182.393495,43.3134606 182.523386,43.0776265 182.619481,42.7641297 C182.715575,42.4502263 182.763623,42.0236918 182.763623,41.4828998 C182.763623,41.0547388 182.72942,40.6957017 182.66142,40.4070082 C182.593014,40.117908 182.485111,39.8853268 182.336083,39.7080446 C182.187462,39.531169 181.996901,39.4038998 181.7644,39.3262372 C181.532307,39.2485746 181.249316,39.2099466 180.914206,39.2099466 C180.604749,39.2099466 180.336416,39.2457283 180.110838,39.3168852 C179.884445,39.3884486 179.698771,39.5128715 179.553407,39.6897471 C179.407636,39.8666227 179.298919,40.1057097 179.22807,40.4070082 C179.156813,40.7083066 179.120981,41.092147 179.120981,41.5577161 M177.7272,41.5203079 C177.7272,40.7656387 177.822888,40.1606021 178.015077,39.7060115 C178.207267,39.2514209 178.456462,38.9005159 178.763069,38.6532967 C179.070083,38.4056709 179.412115,38.2434332 179.790387,38.1657706 C180.167844,38.0885146 180.545708,38.0498866 180.923979,38.0498866 C181.189868,38.0498866 181.454536,38.0669642 181.718389,38.1007129 C181.981428,38.1348682 182.232659,38.1982995 182.471267,38.2910067 C182.709468,38.3837139 182.930567,38.5126094 183.134972,38.6760669 C183.339377,38.839931 183.517722,39.0505552 183.669601,39.3071265 C183.821479,39.5641044 183.940376,39.8731285 184.027513,40.2350119 C184.114242,40.5973019 184.157403,41.0254629 184.157403,41.5203079 C184.157403,42.2501739 184.066195,42.8409791 183.883371,43.2927235 C183.700546,43.7440612 183.458681,44.0965926 183.158588,44.3503176 C182.858089,44.6040426 182.515649,44.7756323 182.132085,44.8654932 C181.747299,44.9549475 181.353962,45.0000813 180.951667,45.0000813 C180.524127,45.0000813 180.116539,44.9521013 179.729717,44.8561412 C179.342488,44.7601811 179.000048,44.5853385 178.703213,44.3316135 C178.405564,44.0782951 178.168585,43.7257638 177.992275,43.2740194 C177.815559,42.822275 177.7272,42.2379756 177.7272,41.5203079" id="Fill-47" fill="#1D1D1B" mask="url(#mask-2)"></path>
                    <path d="M190.652511,39.7200396 C190.460322,40.1530798 190.282384,40.5844937 190.11829,41.0146877 C189.953789,41.4444751 189.800689,41.8730426 189.658175,42.2999837 L191.637482,42.2999837 C191.494562,41.8730426 191.341462,41.4444751 191.177368,41.0146877 C191.013274,40.5844937 190.838186,40.1530798 190.652511,39.7200396 L190.652511,39.7200396 Z M192.399318,44.8514652 C192.337426,44.6164442 192.272278,44.3814233 192.203871,44.1464024 C192.135872,43.9113815 192.067873,43.6763606 191.999466,43.440933 L189.295784,43.440933 C189.227785,43.6763606 189.161007,43.9113815 189.096265,44.1464024 C189.030709,44.3814233 188.967189,44.6164442 188.905705,44.8514652 L187.446775,44.8514652 C187.781071,43.7316596 188.149569,42.6216127 188.552679,41.5205112 C188.954973,40.4194098 189.404094,39.3118025 189.899634,38.1985028 L191.442035,38.1985028 C191.937575,39.2996042 192.388731,40.4007057 192.794284,41.5018072 C193.200243,42.6029086 193.570371,43.7194613 193.904666,44.8514652 L192.399318,44.8514652 Z" id="Fill-48" fill="#1D1D1B" mask="url(#mask-2)"></path>
                    <polygon id="Fill-49" fill="#1D1D1B" mask="url(#mask-2)" points="194.824896 38.1984214 196.199946 38.1984214 196.199946 43.6917304 199.526615 43.6917304 199.526615 44.8513838 194.824896 44.8513838"></polygon>
                    <polygon id="Fill-50" fill="#1D1D1B" mask="url(#mask-2)" points="200.595425 38.1984214 201.970475 38.1984214 201.970475 43.6917304 205.297144 43.6917304 205.297144 44.8513838 200.595425 44.8513838"></polygon>
                </g>
            </g>
        </g>
    </g>
</svg>