<?xml version="1.0" encoding="UTF-8"?>
<svg width="24px" height="24px" viewBox="0 0 24 24" version="1.1" xmlns="http://www.w3.org/2000/svg" xmlns:xlink="http://www.w3.org/1999/xlink">
    <title>icons /close</title>
    <g id="Page-1" stroke="none" stroke-width="1" fill="none" fill-rule="evenodd">
        <g id="Desktop-Signature" transform="translate(-884.000000, -848.000000)">
            <g id="Feature-Point-Copy-9" transform="translate(866.000000, 830.000000)">
                <g id="icons-/close" transform="translate(18.000000, 18.000000)">
                    <path d="M19.7786248,4.22471493 C17.6965175,2.14371987 14.938788,1 11.9991841,1 C9.05958025,1 6.30185071,2.14371987 4.21974343,4.22471493 C0.22022005,8.22210185 -0.0881106799,14.625262 3.49042766,18.9725941 L3.9337334,19.5111373 L3.62742739,20.1377278 C2.98813616,21.4454847 2.19514616,22.3627777 1.22949016,22.8352151 C1.21157718,22.8440639 1.20148851,22.863346 1.20334091,22.87632 C1.20745612,22.9029175 1.21785167,22.9133874 1.23469467,22.9159978 C1.46731333,22.9510913 1.70028802,22.9696369 1.92842483,22.9696369 C3.18022718,22.9696369 4.52700994,22.5321086 5.65719135,21.7541504 L6.20287038,21.3785333 L6.78646437,21.6920896 C8.38236778,22.5495448 10.1757131,23 11.9991841,23 C14.9419852,23 17.6987835,21.8590759 19.7786248,19.7803456 C21.8571039,17.7029768 23,14.9431569 23,12.0050605 C23,9.06563896 21.8561706,6.30115093 19.7786248,4.22471493 Z" id="Path-2" stroke="#787878" stroke-width="2"></path>
                    <path d="M9,11.0093097 L9,13.0093097 L7,13.0093097 L7,11.0093097 L9,11.0093097 Z M17,11 L17,13 L15,13 L15,11 L17,11 Z M13,11 L13,13 L11,13 L11,11 L13,11 Z" id="Rectangle-Copy-3" fill="#787878"></path>
                </g>
            </g>
        </g>
    </g>
</svg>