<?xml version="1.0" encoding="UTF-8"?>
<svg width="26px" height="22px" viewBox="0 0 26 22" version="1.1" xmlns="http://www.w3.org/2000/svg" xmlns:xlink="http://www.w3.org/1999/xlink">
    <title>Group 4</title>
    <g id="Page-1" stroke="none" stroke-width="1" fill="none" fill-rule="evenodd">
        <g id="Desktop-Signature" transform="translate(-131.000000, -951.000000)" stroke="#787878">
            <g id="Feature-Point-Copy-9" transform="translate(114.000000, 930.000000)">
                <g id="Group-4" transform="translate(19.000000, 23.000000)">
                    <polygon id="Path-2" stroke-width="2" points="19.443745 2.25546261 19.0384135 2.25584928 18.633082 2.25623594 17.1911585 2.25761146 6.47365152 2.26783541 6.07682615 2.26821396 5.68012966 2.26859238 2.67062359 2.2714633 1.41454693 2.27266153 1.40173674 15.7456387 20.5854531 15.7273385 20.5982633 2.25436126"></polygon>
                    <path d="M5.1497308,13.246629 L10.1497308,13.15375 L5.1497308,13.246629 Z" id="Path-Copy" stroke-width="2" transform="translate(7.649731, 13.200189) rotate(-15.000000) translate(-7.649731, -13.200189) "></path>
                    <path d="M13.8413086,11.8740234 C14.3175456,11.8740234 14.7391764,11.8292643 15.1062012,11.7397461 C15.4732259,11.6502279 15.7865397,11.5186361 16.0461426,11.3449707 C16.3057454,11.1713053 16.5447591,10.9331868 16.7631836,10.6306152 C16.9816081,10.3280436 17.1606445,9.94580078 17.300293,9.48388672 C17.4399414,9.02197266 17.5097656,8.49202474 17.5097656,7.89404297 C17.5097656,7.19222005 17.4068197,6.56827799 17.2009277,6.0222168 C16.9950358,5.4761556 16.6844076,5.02766927 16.269043,4.67675781 C15.9503581,4.4046224 15.5654297,4.21663411 15.1142578,4.11279297 C14.7919922,4.03759766 14.324707,4 13.7124023,4 L13.7124023,4 L11,4 L11,11.8740234 L13.8413086,11.8740234 Z M13.7231445,10.9448242 L12.0419922,10.9448242 L12.0419922,4.92919922 L13.6962891,4.92919922 C14.3157552,4.92919922 14.7651367,4.98291016 15.0444336,5.09033203 C15.4311523,5.24072266 15.7596842,5.53702799 16.0300293,5.97924805 C16.3003743,6.4214681 16.4355469,7.05436198 16.4355469,7.87792969 C16.4355469,8.47233073 16.3666178,8.97810872 16.2287598,9.39526367 C16.0909017,9.81241862 15.8984375,10.1445312 15.6513672,10.3916016 C15.4759115,10.5670573 15.2404785,10.703125 14.9450684,10.7998047 C14.6496582,10.8964844 14.2423503,10.9448242 13.7231445,10.9448242 L13.7231445,10.9448242 Z" id="D" fill="#54565B" fill-rule="nonzero" transform="translate(14.254883, 7.937012) rotate(-15.000000) translate(-14.254883, -7.937012) "></path>
                </g>
            </g>
        </g>
    </g>
</svg>