<svg width="29" height="24" viewBox="0 0 29 24" fill="none" xmlns="http://www.w3.org/2000/svg">
<rect x="10.7336" y="1.07506" width="17.3732" height="2.60598" rx="1.30299" fill="#D7DF23"/>
<rect x="10.7336" y="10.0443" width="14.7672" height="2.60598" rx="1.30299" fill="white"/>
<rect x="1.36865" y="9.72553" width="4.21195" height="4.21195" rx="2.10598" stroke="white"/>
<path d="M3.47463 23.5005C2.31153 23.5005 1.36865 22.5577 1.36865 21.3946C1.36865 20.2315 2.31153 19.2886 3.47463 19.2886C4.63773 19.2886 5.5806 20.2315 5.5806 21.3946C5.5806 22.5577 4.63773 23.5005 3.47463 23.5005Z" stroke="white"/>
<rect x="10.7336" y="19.8949" width="12.1612" height="2.60598" rx="1.30299" fill="white"/>
<path d="M3.47461 3.30019L3.47461 9.86687" stroke="white"/>
<path d="M3.47461 14.1508L3.47461 19.4862" stroke="white"/>
<path d="M6.87323 0.266404C6.51803 -0.0888014 5.91418 -0.0888014 5.52345 0.266404L2.75284 3.03701L1.61619 1.90035C1.26098 1.54515 0.657131 1.54515 0.266404 1.90035C-0.0888014 2.25556 -0.0888014 2.85941 0.266404 3.25013L2.07795 5.06168C2.25556 5.23928 2.5042 5.34585 2.75284 5.34585C3.00149 5.34585 3.25013 5.23928 3.42774 5.06168L6.87323 1.61619C7.22844 1.22546 7.22844 0.62161 6.87323 0.266404Z" fill="#D7DF23"/>
</svg>
