<svg width="19" height="20" xmlns="http://www.w3.org/2000/svg">
    <path d="M6.517 10.44a1.87 1.87 0 01.363 1.106v7.432c0 .282.137.543.367.697a.799.799 0 00.766.07l3.574-1.387c.32-.1.533-.407.533-.777v-6.034c0-.393.127-.783.357-1.097l.006-.01 6.361-9.114a.853.853 0 00.064-.876.814.814 0 00-.727-.45H.82a.814.814 0 00-.727.45.853.853 0 00.064.876l6.36 9.115zm11.338-9.434L11.68 9.854a2.894 2.894 0 00-.549 1.693v5.912L7.87 18.724v-7.177c0-.606-.195-1.207-.55-1.693L1.146 1.006h16.71z" fill="#FFFFFF" fill-rule="nonzero" /></svg>
