<?xml version="1.0" encoding="UTF-8"?>
<svg width="36px" height="28px" viewBox="0 0 36 28" version="1.1" xmlns="http://www.w3.org/2000/svg" xmlns:xlink="http://www.w3.org/1999/xlink">
    <title>icons / award rating copy 5</title>
    <defs>
        <polygon id="path-1" points="1.35416667e-05 6.94444444e-05 34.666599 6.94444444e-05 34.666599 26.6666597 1.35416667e-05 26.6666597"></polygon>
    </defs>
    <g id="Page-1" stroke="none" stroke-width="1" fill="none" fill-rule="evenodd">
        <g id="Offer-Onboarding" transform="translate(-949.000000, -330.000000)">
            <g id="Group" transform="translate(951.000000, 328.000000)">
                <g id="Group-8" transform="translate(-1.333333, 2.666667)">
                    <g id="Group-3">
                        <mask id="mask-2" fill="white">
                            <use xlink:href="#path-1"></use>
                        </mask>
                        <g id="Clip-2"></g>
                        <path d="M31.6219719,14.4803403 C30.7914615,15.3842292 30.3334146,16.6721458 30.3334146,18.1066597 L30.3334146,22.2222847 L4.33334688,22.2222847 L4.33334688,18.1066597 C4.33334688,16.6721458 3.8753,15.3842292 3.04478958,14.4803403 C2.47874792,13.8640208 2.16668021,13.0621458 2.16668021,12.2223542 C2.16668021,11.2436042 2.58457604,10.3170069 3.31244063,9.68221528 C4.05201875,9.03763194 4.99986771,8.77721528 5.96999271,8.93561806 C7.507175,9.19172917 8.66668021,10.7075625 8.66668021,12.4599236 L8.66668021,15.5556181 L8.66668021,17.7778403 L26.0000813,17.7778403 L26.0000813,15.5556181 L26.0000813,12.4599236 C26.0000813,10.7075625 27.1595865,9.19172917 28.6956177,8.93561806 C29.6731906,8.7706875 30.6136594,9.03547917 31.3542531,9.68221528 C32.0821854,10.3169375 32.5000135,11.2436042 32.5000135,12.2223542 C32.5000135,13.0621458 32.1878781,13.8640208 31.6219719,14.4803403 M11.9166802,2.22228472 L22.7500813,2.22228472 C25.4156229,2.22228472 27.6250813,4.21165972 28.0718208,6.81645139 C25.6406854,7.37332639 23.8333469,9.73457639 23.8333469,12.4599236 L23.8333469,15.5556181 L10.8333469,15.5556181 L10.8333469,12.4599236 C10.8333469,9.73499306 9.02634688,7.37415972 6.59480521,6.81672917 C7.04154479,4.21207639 9.25093542,2.22228472 11.9166802,2.22228472 M32.7581854,7.9894375 C32.0320813,7.35575694 31.1576958,6.96992361 30.2364563,6.79429861 C29.7589094,2.97374306 26.6026854,6.25e-05 22.7500135,6.25e-05 L11.9166125,6.25e-05 C8.06360208,6.25e-05 4.90724271,2.97436806 4.43003438,6.79540972 C3.50981042,6.97110417 2.63474792,7.3563125 1.90850833,7.9894375 C0.696190625,9.04735417 1.35416667e-05,10.5903403 1.35416667e-05,12.2222847 C1.35416667e-05,13.6307569 0.521570833,14.9739514 1.46840417,16.0037431 C1.91913854,16.4942292 2.1666125,17.2407569 2.1666125,18.1066597 L2.1666125,23.3333264 C2.1666125,23.9474931 2.65120104,24.4444375 3.24994583,24.4444375 L6.49994583,24.4444375 L6.49994583,26.6666597 L8.6666125,26.6666597 L8.6666125,24.4444375 L26.0000135,24.4444375 L26.0000135,26.6666597 L28.1666125,26.6666597 L28.1666125,24.4444375 L31.4166802,24.4444375 C32.0154927,24.4444375 32.4999458,23.9474931 32.4999458,23.3333264 L32.4999458,18.1066597 C32.4999458,17.2407569 32.7474875,16.4942292 33.1981542,16.0037431 C34.1449875,14.9740208 34.6666125,13.6307569 34.6666125,12.2222847 C34.6666125,10.5903403 33.9706385,9.04735417 32.7581854,7.9894375" id="Fill-1" fill="#787878" mask="url(#mask-2)"></path>
                    </g>
                    <path d="M30.2761103,12.9428333 C29.7554517,13.4635 28.9112149,13.4635 28.3905564,12.9428333 C27.8698145,12.4220833 27.8698145,11.5779167 28.3905564,11.0571667 C28.9112149,10.5365 29.7554517,10.5365 30.2761103,11.0571667 C30.7968521,11.5779167 30.7968521,12.4220833 30.2761103,12.9428333 Z" id="Fill-4" fill="#FFCB05"></path>
                    <path d="M6.27611332,11.0571667 C6.79685112,11.5779167 6.79685112,12.4220833 6.27611332,12.9428333 C5.75537553,13.4635 4.91122864,13.4635 4.39049085,12.9428333 C3.86983638,12.4220833 3.86983638,11.5779167 4.39049085,11.0571667 C4.91122864,10.5365 5.75537553,10.5365 6.27611332,11.0571667" id="Fill-6" fill="#FFCB05"></path>
                </g>
            </g>
        </g>
    </g>
</svg>