<?xml version="1.0" encoding="UTF-8"?>
<svg width="45px" height="100px" viewBox="0 0 45 100" version="1.1" xmlns="http://www.w3.org/2000/svg" xmlns:xlink="http://www.w3.org/1999/xlink">
    <title>Group 29</title>
    <defs>
        <polygon id="path-1" points="0 0.0463543107 21.8534186 0.0463543107 21.8534186 21.8976744 0 21.8976744"></polygon>
    </defs>
    <g id="Page-1" stroke="none" stroke-width="1" fill="none" fill-rule="evenodd">
        <g id="Annoucements-2-Expanded01" transform="translate(-977.000000, -223.000000)">
            <g id="Group-29" transform="translate(977.000000, 223.000000)">
                <g id="Group-14" transform="translate(0.000000, 25.000000)">
                    <path d="M14,-3.55271368e-15 L40,-3.55271368e-15 L40,-3.55271368e-15 L40,51 L14,51 C6.2680135,51 9.46895252e-16,44.7319865 0,37 L0,14 C-9.46895252e-16,6.2680135 6.2680135,-3.56013962e-16 14,-3.55271368e-15 Z" id="Rectangle-Copy-4" fill="#9B1E26"></path>
                    <g id="Group-8" transform="translate(20.948837, 26.000000) scale(-1, 1) translate(-20.948837, -26.000000) translate(10.000000, 15.000000)">
                        <g id="Group-3" transform="translate(0.000000, 0.004809)">
                            <mask id="mask-2" fill="white">
                                <use xlink:href="#path-1"></use>
                            </mask>
                            <g id="Clip-2"></g>
                            <path d="M2.19969302,19.4502972 C2.21903256,19.453367 2.23837209,19.4564367 2.25771163,19.4595065 C2.29930698,19.38926 2.34284651,19.3200879 2.3821907,19.2486647 C2.85411628,18.391074 3.31928837,17.5297484 3.80144651,16.6779391 C3.91252093,16.4817809 4.05905116,16.2932972 4.22712093,16.1439019 C4.83718605,15.6018833 5.56533488,15.335274 6.37749302,15.3338414 C9.68613953,15.3279065 12.994786,15.326474 16.3034326,15.3339949 C18.1974279,15.3382926 19.6472279,13.9138693 19.648814,12.0218693 C19.6505535,9.92368326 19.6521395,7.82554837 19.6492744,5.72741349 C19.6489163,5.47236698 19.6493767,5.21184605 19.6009767,4.96334837 C19.2784977,3.30736233 17.9932884,2.25443209 16.2853209,2.2516693 C13.0279395,2.24634837 9.77050698,2.24813907 6.51307442,2.25238558 C5.97673488,2.25310186 5.43215814,2.22690651 4.90564186,2.30687395 C3.38186047,2.53838558 2.19017674,3.91553442 2.19715528,5.59761349 C2.21591163,10.1009112 2.20117674,14.6043623 2.19969302,19.1077623 C2.19969302,19.2219577 2.19969302,19.336153 2.19969302,19.4502972 M0.00076744186,12.45486 C0.000818604651,10.1859437 0.00317209302,7.91702744 -7.11057244e-06,5.64811116 C-0.0022,4.10094837 0.506051163,2.75618558 1.60308372,1.6580786 C2.6857907,0.574297209 4.01172558,0.0532553488 5.53954884,0.0519251163 C9.12984651,0.0487530233 12.7201442,0.0399018605 16.3103395,0.0544832558 C19.0275953,0.0655344186 21.1618512,1.80302279 21.7373814,4.45499488 C21.8214419,4.84255302 21.8432884,5.24970651 21.8452326,5.64806 C21.855414,7.74634837 21.8556186,9.84468791 21.848507,11.9430274 C21.8401674,14.4163391 20.4210651,16.4507251 18.1633023,17.2359716 C17.5970837,17.432846 17.0126512,17.530874 16.4102605,17.5303623 C13.1355349,17.5273949 9.86070698,17.5282647 6.58593023,17.5310786 C6.4169907,17.5312321 6.24513488,17.5480647 6.07982791,17.5822926 C5.86422791,17.6270088 5.70572558,17.7459623 5.59439535,17.9541949 C5.08854884,18.9001437 4.54402326,19.8261391 4.06140465,20.7835484 C3.66719535,21.5655205 2.75680465,21.9970274 1.85495814,21.8781763 C1.06367442,21.7738553 0.308460465,21.1321205 0.0942418605,20.3264088 C0.0273209302,20.0748414 0.00532093023,19.8048042 0.00460465116,19.5430042 C-0.00199534884,17.1803577 0.00076744186,14.8175577 0.00076744186,12.45486" id="Fill-1" fill="#FFFFFF" mask="url(#mask-2)"></path>
                        </g>
                        <path d="M9.82882233,7.1528293 C9.82882233,6.60717814 9.81459907,6.06111767 9.8327107,5.51608047 C9.85184558,4.93947581 10.2506595,4.49635488 10.7677107,4.43531767 C11.30932,4.37136419 11.8057526,4.67394093 11.9641014,5.18142465 C12.00892,5.32493628 12.0255479,5.48251767 12.0261107,5.63375488 C12.0298967,6.65685721 12.0295898,7.67995953 12.0232456,8.70306186 C12.019306,9.3286293 11.7094642,9.73624326 11.1567526,9.86670837 C10.5501665,10.009913 9.9005014,9.58838279 9.8565014,8.96695953 C9.81388279,8.36508047 9.84724093,7.75777814 9.84724093,7.15288047 C9.8411014,7.1528293 9.83496186,7.1528293 9.82882233,7.1528293" id="Fill-4" fill="#FFFFFF"></path>
                        <path d="M12.020498,12.0806707 C12.0168963,12.6782009 11.5248637,13.1730474 10.9306591,13.1767515 C10.3303149,13.180466 9.82129628,12.6689405 9.82641256,12.0670614 C9.83168233,11.4560242 10.3251474,10.9761172 10.9437056,10.9805172 C11.5411335,10.9847637 12.0241102,11.47828 12.020498,12.0806707" id="Fill-6" fill="#FFFFFF"></path>
                    </g>
                </g>
                <rect id="Rectangle" fill="#9B1E26" x="39" y="0" width="6" height="100"></rect>
            </g>
        </g>
    </g>
</svg>