<?xml version="1.0" encoding="UTF-8"?>
<svg width="24px" height="24px" viewBox="0 0 24 24" version="1.1" xmlns="http://www.w3.org/2000/svg" xmlns:xlink="http://www.w3.org/1999/xlink">
    <title>icons / award rating</title>
    <g id="icons-/-award-rating" stroke="none" stroke-width="1" fill="none" fill-rule="evenodd">
        <g id="003-trophy-1-copy-2" transform="translate(0.000000, 1.000000)" fill-rule="nonzero">
            <path d="M17.6507611,3.55020649 L17.6507611,5.56304425 L21.8906667,5.56227729 L21.8919882,8.25538643 C21.8919882,9.90818129 20.5565589,11.2436106 18.903764,11.2436106 L17.1575929,11.2436106 L17.1575929,13.2564484 L18.903764,13.2564484 C21.6648217,13.2564484 23.904826,11.0164441 23.904826,8.25533923 L23.904826,4.55660177 C23.904826,3.99014979 23.4649022,3.55020649 22.8984307,3.55020649 L17.6507611,3.55020649 Z" id="Path" fill="#787878"></path>
            <path d="M6.32073156,5.56304425 L6.32073156,3.55020649 L1.07306195,3.55020649 C0.50661398,3.55020649 0.0666666667,3.99017339 0.0666666667,4.55664897 L0.0666666667,8.25538643 C0.0666666667,11.0164518 2.30667868,13.2564484 5.06772861,13.2564484 L6.81389971,13.2564484 L6.81389971,11.2436106 L5.06772861,11.2436106 L4.86285585,11.2367289 C3.30596643,11.1317739 2.07950442,9.83931484 2.07950442,8.25538643 L2.07866667,5.56227729 L6.32073156,5.56304425 Z" id="Path" fill="#787878"></path>
            <path d="M12.7254749,15.836413 L11.2459705,15.836413 L11.0459705,16.036413 L11.0453333,20.052944 L8.68153392,20.0530029 C8.151882,20.0530029 7.74180531,20.4630979 7.74180531,20.9927316 C7.74180531,21.5223835 8.15190026,21.9324602 8.68153392,21.9324602 L15.2899587,21.9324602 C15.8196106,21.9324602 16.2296873,21.5223652 16.2296873,20.9927316 L16.2213122,20.8629817 C16.1605108,20.3975966 15.775473,20.0530029 15.2899587,20.0530029 L12.9253333,20.052944 L12.9254749,16.036413 L12.7254749,15.836413 Z" id="Path" fill="#787878"></path>
            <path d="M17.1065596,0.256890402 L6.86383662,0.256890402 L6.73234361,0.263007156 C5.96313769,0.342387386 5.41104152,0.955538233 5.41104152,1.7096855 L5.41104152,10.0318856 L5.41478982,10.2537059 C5.53694205,13.7947933 8.44095491,16.6060422 11.9851981,16.6060422 C15.6153579,16.6060422 18.5593547,13.6620455 18.5593547,10.0318856 L18.5593547,1.7096855 L18.5532379,1.57819248 C18.4738577,0.808986569 17.8607068,0.256890402 17.1065596,0.256890402 Z M7.34327348,2.00286834 L7.41478536,2 L16.5787688,2.0005549 C16.7959674,2.0005549 16.9606138,2.13877541 16.9824163,2.33406497 L16.9854928,2.40073812 L16.9848976,10.3386244 C16.9848976,12.9124904 14.7458895,15 11.9852285,15 C9.28999225,15 7.08129158,13.0065265 6.98858784,10.5024932 L6.98549276,10.3314202 L6.98549276,2.37920376 C6.98549276,2.17670144 7.13381103,2.02319553 7.34327348,2.00286834 Z" id="Path" fill="#787878"></path>
            <path d="M13.1823069,6.56650192 L12.5579682,5.24989149 C12.4531444,5.02885187 12.2368181,4.88888889 12,4.88888889 C11.7631819,4.88888889 11.5468556,5.02885187 11.4420318,5.24984832 L10.8176931,6.56645875 L9.42163177,6.77756886 C9.18726106,6.81301291 8.9925467,6.9838869 8.91937326,7.21830978 C8.84615834,7.45273266 8.90721917,7.71007977 9.07679571,7.8821194 L10.0869957,8.90693162 L9.84851833,10.3540072 C9.80848864,10.596935 9.90443545,10.8424962 10.0960387,10.9873807 C10.2876834,11.1322653 10.5416749,11.1513904 10.7513226,11.0366829 L12,10.3535323 L13.2486774,11.0367261 C13.3396879,11.0865464 13.4391191,11.1111111 13.5381771,11.1111111 C13.6671847,11.1111111 13.79557,11.0694072 13.9039613,10.9874239 C14.0955646,10.8425393 14.1915528,10.5970213 14.1514817,10.3540504 L13.9130043,8.90697479 L14.9232043,7.88216257 C15.0927808,7.71012294 15.1538417,7.45277583 15.0806267,7.21835295 C15.0074533,6.9838869 14.8127389,6.81305608 14.5783682,6.77761203 L13.1823069,6.56650192 Z" id="Shape" fill="#FFCB05"></path>
            <path d="M16.5229462,2.29324983 L16.5229462,10.0318366 C16.5229462,12.5408221 14.4941835,14.5695848 11.9851981,14.5695848 C9.54402306,14.5695848 7.5574636,12.649003 7.45186519,10.234185 L7.44744997,10.0318366 L7.44744997,2.29324983 L16.5229462,2.29324983 Z" id="Path"></path>
        </g>
    </g>
</svg>