<?xml version="1.0" encoding="UTF-8"?>
<svg width="28px" height="23px" viewBox="0 0 28 23" version="1.1" xmlns="http://www.w3.org/2000/svg" xmlns:xlink="http://www.w3.org/1999/xlink">
    <title>icons / ATM</title>
    <g id="Page-1" stroke="none" stroke-width="1" fill="none" fill-rule="evenodd">
        <g id="branch_locater_desktop_01" transform="translate(-883.000000, -2359.000000)">
            <g id="Group-2" transform="translate(246.000000, 1978.000000)">
                <g id="Quick-Link-Card-with-Description-Copy-5" transform="translate(612.000000, 346.000000)">
                    <g id="Group-42" transform="translate(23.000000, 30.000000)">
                        <path d="M28.576366,9.22042964 C28.5262222,9.21870415 27.4963137,9.18393291 25.9844706,9.21734468 L25.9844706,6.11763226 C25.9844706,5.66069108 25.5943007,5.29828585 25.134902,5.33603749 C22.1204183,5.58769762 18.2851765,6.91972376 16,9.34926625 C13.7148235,6.91972376 9.8795817,5.58769762 6.86509804,5.33603749 C6.40653595,5.29870415 6.01552941,5.65948847 6.01552941,6.11763226 L6.01552941,9.30116167 C5.15654902,9.26874337 4.34405229,9.2458937 3.47424837,9.22032507 C3.03555556,9.20646886 2.66666667,9.55982834 2.66666667,10.0042728 L2.66666667,24.2876715 C2.66666667,24.7004296 2.9865098,25.0425473 3.3983268,25.0702074 C6.51822222,25.2801943 11.7443137,25.3038283 15.6923399,26.9876976 C16.044183,27.1379721 16.3600523,26.9653708 16.3077647,26.9876976 C20.2556863,25.3038806 25.4808366,25.2802989 28.6017778,25.0702074 C29.0135425,25.0425473 29.3334379,24.7004296 29.3334379,24.2876715 L29.3334379,10.0042728 C29.3334379,9.58173683 28.9986405,9.23517474 28.576366,9.22042964 Z M24.4158431,6.99977605 L24.4158431,20.4422859 C22.1540915,20.9482205 19.2877386,22.0278545 16.7843137,24.3170571 C16.7843137,23.6265996 16.7843137,11.2088218 16.7843137,10.8353839 C18.5003922,8.69420742 21.7503791,7.40364533 24.4158431,6.99977605 L24.4158431,6.99977605 Z M7.58415686,6.99977605 C10.2496209,7.40364533 13.4996078,8.69420742 15.2156863,10.8353839 L15.2156863,24.3170571 C12.7122614,22.0278545 9.8459085,20.9482205 7.58415686,20.4422859 L7.58415686,6.99977605 Z M4.23529412,23.5496323 L4.23529412,10.8120113 C4.79691503,10.8286388 5.39759477,10.84741 6.01552941,10.8709917 L6.01552941,21.0815538 C6.01552941,21.4589133 6.28428758,21.7827826 6.6551634,21.8523774 C8.44606536,22.1885342 10.7749542,22.9181551 12.9455163,24.4891878 C9.84878431,23.7946519 6.60737255,23.6830179 4.23529412,23.5496323 Z M27.7647059,23.5496323 C25.3964967,23.6828087 22.1524183,23.7943381 19.0544314,24.4891878 C21.2249935,22.9181551 23.5539346,22.1885342 25.3447843,21.8523774 C25.7156601,21.7827826 25.9844183,21.4589133 25.9844183,21.0815538 L25.9844183,10.786495 C26.7063007,10.7703381 27.3211503,10.770129 27.7647059,10.7741551 L27.7647059,23.5496323 L27.7647059,23.5496323 Z" id="Shape-Copy" fill="#787878" fill-rule="nonzero"></path>
                        <rect id="Rectangle" x="0" y="0" width="32" height="32"></rect>
                    </g>
                </g>
            </g>
        </g>
    </g>
</svg>