<?xml version="1.0" encoding="UTF-8"?>
<svg width="36px" height="36px" viewBox="0 0 36 36" version="1.1" xmlns="http://www.w3.org/2000/svg" xmlns:xlink="http://www.w3.org/1999/xlink">
    <title>icons / alert copy</title>
    <g id="Page-1" stroke="none" stroke-width="1" fill="none" fill-rule="evenodd">
        <g id="23" transform="translate(-921.000000, -860.000000)" stroke="#787878" stroke-width="2">
            <g id="Group-25" transform="translate(0.000000, 793.000000)">
                <g id="Group-10" transform="translate(889.000000, 35.000000)">
                    <g id="icons-/-alert-copy" transform="translate(32.000000, 32.000000)">
                        <path d="M8.18716397,23.4363781 C11.4545473,27.3271127 15.3875563,30.3905351 19.8766262,32.5580945 C21.5855633,33.365149 23.8712387,34.322383 26.4177419,34.4866659 C26.5756114,34.493333 26.7267028,34.5 26.8845722,34.5 C28.5935093,34.5 29.9662873,33.9120178 31.0850156,32.7016924 C31.0920511,32.6950254 31.1057789,32.6813494 31.112557,32.6676734 C31.5106626,32.1888427 33.0896147,30.6709784 33.4052679,30.3427546 C34.8671907,28.8246339 34.8671907,26.8964044 33.3915401,25.4263206 L29.2661705,21.3165138 C28.5660537,20.5916007 27.7288307,20.2086729 26.8500812,20.2086729 C25.9716749,20.2086729 25.1274164,20.5916007 24.4064505,21.3098467 L21.9495211,23.7575076 C21.7229269,23.6276711 20.7413048,23.1355063 20.5147106,22.9919084 C18.277254,21.5762722 16.2455426,19.7301841 14.3030617,17.3573138 C13.3213538,16.119551 12.6625061,15.0801755 12.2026255,14.0203715 C12.8478312,13.4391418 14.4538098,11.8117841 14.6666762,11.5997208 C15.4080622,10.8612172 15.8061678,10.0064676 15.8061678,9.13795658 C15.8061678,8.26953103 15.4150977,7.41478147 14.6666762,6.67627785 C12.2184982,4.21459912 10.8389135,2.84019032 10.5279221,2.55305146 C9.82068402,1.86224286 8.99023911,1.5 8.11174697,1.5 C7.24003293,1.5 6.40255254,1.86224286 5.66820209,2.5597185 L3.10093559,5.11730013 C2.16753233,6.04718218 1.63901279,7.17536612 1.52944795,8.48159439 C1.39869084,10.115961 1.7010452,11.8528121 2.48327128,13.9519916 C3.68445205,17.2000399 5.49660484,20.2156818 8.18716397,23.4363781 Z" id="call-icon"></path>
                    </g>
                </g>
            </g>
        </g>
    </g>
</svg>