<?xml version="1.0" encoding="UTF-8"?>
<svg width="29px" height="42px" viewBox="0 0 29 42" version="1.1" xmlns="http://www.w3.org/2000/svg" xmlns:xlink="http://www.w3.org/1999/xlink">
    <title>Group 12</title>
    <defs>
        <polygon id="path-1" points="0 0.0534121094 28.971711 0.0534121094 28.971711 22.2617188 0 22.2617188"></polygon>
    </defs>
    <g id="Page-1" stroke="none" stroke-width="1" fill="none" fill-rule="evenodd">
        <g id="Complaints-" transform="translate(-140.000000, -1630.000000)">
            <g id="Group-12" transform="translate(140.000000, 1630.000000)">
                <path d="M7.66773581,29.0416934 C7.19734463,29.0416934 6.81555124,28.659 6.81555124,28.1875 L6.81555124,8.54169336 C6.81555124,6.657375 8.34432259,5.125 10.2242096,5.125 C12.1040967,5.125 13.632868,6.657375 13.632868,8.54169336 L13.632868,26.4791934 C13.632868,26.9506934 13.2510747,27.3333066 12.7806835,27.3333066 C12.3102923,27.3333066 11.9284989,26.9506934 11.9284989,26.4791934 L11.9284989,8.54169336 C11.9284989,7.59869336 11.164992,6.83338672 10.2242096,6.83338672 C9.28342727,6.83338672 8.51992039,7.59869336 8.51992039,8.54169336 L8.51992039,28.1875 C8.51992039,28.659 8.138127,29.0416934 7.66773581,29.0416934" id="Fill-1" fill="#FFFFFF"></path>
                <path d="M17.8936311,27.3333066 C17.4232399,27.3333066 17.0414466,26.9506934 17.0414466,26.4791934 L17.0414466,18.7916934 C17.0414466,17.8486934 16.2779397,17.0833867 15.3371573,17.0833867 C14.3963749,17.0833867 13.632868,17.8486934 13.632868,18.7916934 C13.632868,19.2631934 13.2510747,19.6458867 12.7806835,19.6458867 C12.3102923,19.6458867 11.9284989,19.2631934 11.9284989,18.7916934 C11.9284989,16.907375 13.4572702,15.375 15.3371573,15.375 C17.2169645,15.375 18.7458157,16.907375 18.7458157,18.7916934 L18.7458157,26.4791934 C18.7458157,26.9506934 18.3640223,27.3333066 17.8936311,27.3333066" id="Fill-3" fill="#FFFFFF"></path>
                <path d="M23.0065788,27.3333066 C22.5361876,27.3333066 22.1543942,26.9506934 22.1543942,26.4791934 L22.1543942,20.5 C22.1543942,19.557 21.3908873,18.7916934 20.450105,18.7916934 C19.5093226,18.7916934 18.7458157,19.557 18.7458157,20.5 C18.7458157,20.9715 18.3640223,21.3541934 17.8936311,21.3541934 C17.4232399,21.3541934 17.0414466,20.9715 17.0414466,20.5 C17.0414466,18.6156816 18.5702978,17.0833867 20.450105,17.0833867 C22.3299121,17.0833867 23.8587634,18.6156816 23.8587634,20.5 L23.8587634,26.4791934 C23.8587634,26.9506934 23.47697,27.3333066 23.0065788,27.3333066" id="Fill-5" fill="#FFFFFF"></path>
                <g id="Group-9" transform="translate(0.000000, 18.738281)">
                    <mask id="mask-2" fill="white">
                        <use xlink:href="#path-1"></use>
                    </mask>
                    <g id="Clip-8"></g>
                    <path d="M21.3022895,22.2617188 L11.4393336,22.2617188 C8.57104986,22.2617188 5.61233085,21.009457 3.52113526,18.9116504 C1.21343829,16.5969121 -0.00504104683,13.2946504 -2.35181928e-05,9.36553711 C0.00166969697,6.11628711 2.71328953,3.47002539 6.04181846,3.47002539 L7.66773581,3.47002539 C8.138127,3.47002539 8.51992039,3.85271875 8.51992039,4.32421875 C8.51992039,4.79571875 8.138127,5.17841211 7.66773581,5.17841211 L6.04181846,5.17841211 C3.65239421,5.17841211 1.70603884,7.05920703 1.70436116,9.36721875 C1.7009259,12.8829687 2.71840248,15.6863437 4.72611322,17.7039121 C6.82066419,19.805082 9.56631708,20.5534121 11.4393336,20.5534121 L21.3022895,20.5534121 C24.5915926,20.5534121 27.2673419,17.8713555 27.2673419,14.5742187 L27.2673419,3.47002539 C27.2673419,2.52710547 26.503835,1.76171875 25.5630526,1.76171875 C24.6222702,1.76171875 23.8587634,2.52710547 23.8587634,3.47002539 C23.8587634,3.94160547 23.47697,4.32421875 23.0065788,4.32421875 C22.5361876,4.32421875 22.1543942,3.94160547 22.1543942,3.47002539 C22.1543942,1.58578711 23.6832455,0.0534121094 25.5630526,0.0534121094 C27.4428598,0.0534121094 28.971711,1.58578711 28.971711,3.47002539 L28.971711,14.5742187 C28.971711,18.8125937 25.5306972,22.2617188 21.3022895,22.2617188" id="Fill-7" fill="#FFFFFF" mask="url(#mask-2)"></path>
                </g>
                <path d="M16.1893419,14.2133227 C16.0001628,14.2133227 15.8075485,14.150141 15.6508047,14.0202543 C15.2860278,13.7213227 15.2332207,13.1849594 15.5314493,12.8193227 C16.5182482,11.6063793 17.0414466,10.127016 17.0414466,8.5416293 C17.0414466,4.77307266 13.9839837,1.70832266 10.2242096,1.70832266 C6.46443554,1.70832266 3.40697273,4.77307266 3.40697273,8.5416293 C3.40697273,10.127016 3.93017107,11.6063793 4.91864766,12.8193227 C5.2169562,13.1849594 5.16406915,13.7213227 4.79937218,14.0202543 C4.43635289,14.3209477 3.89949339,14.2663344 3.60126474,13.9006977 C2.35881846,12.3785727 1.70268347,10.5250043 1.70268347,8.5416293 C1.70268347,3.8317543 5.52541074,1.6015625e-05 10.2242096,1.6015625e-05 C14.9230085,1.6015625e-05 18.7458157,3.8317543 18.7458157,8.5416293 C18.7458157,10.5250043 18.0896008,12.3785727 16.8489121,13.9006977 C16.6801848,14.1074594 16.436441,14.2133227 16.1893419,14.2133227" id="Fill-10" fill="#FFFFFF"></path>
            </g>
        </g>
    </g>
</svg>