<svg width="18" height="18" viewBox="0 0 18 18" fill="none" xmlns="http://www.w3.org/2000/svg">
<path d="M17.4 0.61334C16.88 0.0933404 16.04 0.0933404 15.52 0.61334L8.99999 7.12001L2.47999 0.600007C1.95999 0.0800067 1.11999 0.0800067 0.599991 0.600007C0.0799915 1.12001 0.0799915 1.96001 0.599991 2.48001L7.11999 9.00001L0.599991 15.52C0.0799915 16.04 0.0799915 16.88 0.599991 17.4C1.11999 17.92 1.95999 17.92 2.47999 17.4L8.99999 10.88L15.52 17.4C16.04 17.92 16.88 17.92 17.4 17.4C17.92 16.88 17.92 16.04 17.4 15.52L10.88 9.00001L17.4 2.48001C17.9067 1.97334 17.9067 1.12001 17.4 0.61334Z" fill="#9D1D27"/>
</svg>
