<svg width="26" height="19" viewBox="0 0 26 19" fill="none" xmlns="http://www.w3.org/2000/svg">
<path d="M25.0369 19V13.4773C25.0369 11.9091 24.7301 10.3068 24.1165 8.67045C23.5028 7.03409 22.6932 5.49148 21.6875 4.04261C20.6818 2.59375 19.5909 1.38352 18.4148 0.411931L13.608 3.25C14.5625 4.75 15.3466 6.31818 15.9602 7.95454C16.5568 9.59091 16.8551 11.4148 16.8551 13.4261V19H25.0369ZM12.125 19V13.4773C12.125 11.9091 11.8182 10.3068 11.2045 8.67045C10.5909 7.03409 9.78125 5.49148 8.77557 4.04261C7.76989 2.59375 6.67898 1.38352 5.50284 0.411931L0.696022 3.25C1.65057 4.75 2.43466 6.31818 3.0483 7.95454C3.64489 9.59091 3.94318 11.4148 3.94318 13.4261V19H12.125Z" fill="white"/>
</svg>
