<svg width="26" height="19" viewBox="0 0 26 19" fill="none" xmlns="http://www.w3.org/2000/svg">
<path d="M0.963068 19V13.4773C0.963068 11.9091 1.26989 10.3068 1.88352 8.67045C2.49716 7.03409 3.30682 5.49148 4.3125 4.04261C5.31818 2.59375 6.40909 1.38352 7.58523 0.411931L12.392 3.25C11.4375 4.75 10.6534 6.31818 10.0398 7.95454C9.44318 9.59091 9.14489 11.4148 9.14489 13.4261V19H0.963068ZM13.875 19V13.4773C13.875 11.9091 14.1818 10.3068 14.7955 8.67045C15.4091 7.03409 16.2188 5.49148 17.2244 4.04261C18.2301 2.59375 19.321 1.38352 20.4972 0.411931L25.304 3.25C24.3494 4.75 23.5653 6.31818 22.9517 7.95454C22.3551 9.59091 22.0568 11.4148 22.0568 13.4261V19H13.875Z" fill="white"/>
</svg>
