<svg width="15" height="15" xmlns="http://www.w3.org/2000/svg" xmlns:xlink="http://www.w3.org/1999/xlink"><defs><path id="a" d="M0 .02h11.29v11.89H0z"/><path id="c" d="M.005.009h9.706v10.916H.005z"/></defs><g fill="none" fill-rule="evenodd"><g transform="translate(.692 2.851)"><mask id="b" fill="#fff"><use xlink:href="#a"/></mask><path d="M11.282 9.723a.637.637 0 00-.63-.603h-.008a.637.637 0 00-.628.625v.143c0 .063 0 .123-.003.181a.574.574 0 01-.6.564H1.88c-.364 0-.6-.232-.6-.592V1.858a.55.55 0 01.469-.548c.093-.014.192-.014.298-.014h.101a.64.64 0 00.646-.62.64.64 0 00-.642-.656c-.146 0-.338.001-.528.02C.745.122.004.94.004 1.824V8.708c0 .14 0 .283-.002.423-.002.32-.005.652.006.98.024.702.361 1.247.974 1.575.146.078.302.12.453.16.063.018.127.035.188.055l.027.008h7.992l.031-.012a.45.45 0 00.023-.01 1.827 1.827 0 001.241-.749c.352-.474.37-1.005.345-1.415" fill="#FFF" mask="url(#b)"/></g><g transform="translate(4.513 .013)"><mask id="d" fill="#fff"><use xlink:href="#c"/></mask><path d="M8.457 5.485c0-1.138-.007-2.276.003-3.414a.73.73 0 00-.753-.757c-1.897.01-3.794.01-5.691 0a.738.738 0 00-.762.758c.009 2.257.004 4.513.005 6.77 0 .049 0 .098.005.146.032.364.323.63.69.63 1.936.001 3.872.003 5.808-.003a.76.76 0 00.35-.095c.245-.136.346-.36.346-.64-.003-1.132-.001-2.263-.001-3.395zM.006 5.456V1.62C.004.85.666.108 1.428.03c.13-.013.262-.02.393-.02C3.875.008 5.93.009 7.982.009c1 0 1.728.723 1.728 1.726.002 2.227 0 4.454 0 6.68 0 .281.002.562 0 .843a1.668 1.668 0 01-1.327 1.634c-.117.024-.24.032-.36.032-2.113.002-4.227.001-6.34.001A1.65 1.65 0 01.008 9.261C.004 7.993.007 6.724.007 5.456H.006z" fill="#FFF" mask="url(#d)"/></g></g></svg>