<?xml version="1.0" encoding="UTF-8"?>
<svg width="32px" height="32px" viewBox="0 0 32 32" version="1.1" xmlns="http://www.w3.org/2000/svg" xmlns:xlink="http://www.w3.org/1999/xlink">
    <title>Group 19</title>
    <g id="form-center" stroke="none" stroke-width="1" fill="none" fill-rule="evenodd">
        <g id="form_center_Desktop_01" transform="translate(-626.000000, -357.000000)">
            <g id="Group-8" transform="translate(114.000000, 328.000000)">
                <g id="Group-3-Copy-8" transform="translate(465.000000, 0.000000)">
                    <g id="hotel" transform="translate(47.000000, 29.000000)">
                        <path d="M31.4666667,4.88135593 L25.6,4.88135593 L25.6,0.542372881 C25.6,0.242847458 25.3612,0 25.0666667,0 L6.93333333,0 C6.6388,0 6.4,0.242847458 6.4,0.542372881 L6.4,8.13559322 L0.533333333,8.13559322 C0.2388,8.13559322 0,8.37844068 0,8.6779661 L0,30.9152542 C0,31.2147797 0.2388,31.4576271 0.533333333,31.4576271 C0.827866667,31.4576271 1.06666667,31.2147797 1.06666667,30.9152542 L1.06666667,9.22033898 L6.4,9.22033898 L6.4,31.4576271 C6.4,31.7571525 6.6388,32 6.93333333,32 L25.0666667,32 C25.3612,32 25.6,31.7571525 25.6,31.4576271 L25.6,5.96610169 L30.9333333,5.96610169 L30.9333333,30.9152542 C30.9333333,31.2147797 31.1721333,31.4576271 31.4666667,31.4576271 C31.7612,31.4576271 32,31.2147797 32,30.9152542 L32,5.42372881 C32,5.12420339 31.7612,4.88135593 31.4666667,4.88135593 Z M15.4666667,30.9152542 L13.3333333,30.9152542 L13.3333333,26.0338983 L15.4666667,26.0338983 L15.4666667,30.9152542 Z M18.6666667,30.9152542 L16.5333333,30.9152542 L16.5333333,26.0338983 L18.6666667,26.0338983 L18.6666667,30.9152542 Z M24.5333333,30.9152542 L19.7333333,30.9152542 L19.7333333,25.4915254 C19.7333333,25.192 19.4945333,24.9491525 19.2,24.9491525 L12.8,24.9491525 C12.5054667,24.9491525 12.2666667,25.192 12.2666667,25.4915254 L12.2666667,30.9152542 L7.46666667,30.9152542 L7.46666667,1.08474576 L24.5333333,1.08474576 L24.5333333,30.9152542 Z" id="Shape" fill="#787878"></path>
                        <path d="M12.1666667,2.66666667 L9.16666667,2.66666667 C8.89054167,2.66666667 8.66666667,2.89054167 8.66666667,3.16666667 L8.66666667,6.16666667 C8.66666667,6.44279167 8.89054167,6.66666667 9.16666667,6.66666667 L12.1666667,6.66666667 C12.4427917,6.66666667 12.6666667,6.44279167 12.6666667,6.16666667 L12.6666667,3.16666667 C12.6666667,2.89054167 12.4427917,2.66666667 12.1666667,2.66666667 Z M11.6666667,5.66666667 L9.66666667,5.66666667 L9.66666667,3.66666667 L11.6666667,3.66666667 L11.6666667,5.66666667 Z" id="Shape" fill="#FFCB05"></path>
                        <path d="M17.5,2.66666667 L14.5,2.66666667 C14.223875,2.66666667 14,2.89054167 14,3.16666667 L14,6.16666667 C14,6.44279167 14.223875,6.66666667 14.5,6.66666667 L17.5,6.66666667 C17.776125,6.66666667 18,6.44279167 18,6.16666667 L18,3.16666667 C18,2.89054167 17.776125,2.66666667 17.5,2.66666667 Z M17,5.66666667 L15,5.66666667 L15,3.66666667 L17,3.66666667 L17,5.66666667 Z" id="Shape" fill="#FFCB05"></path>
                        <path d="M22.8333333,2.66666667 L19.8333333,2.66666667 C19.5572083,2.66666667 19.3333333,2.89054167 19.3333333,3.16666667 L19.3333333,6.16666667 C19.3333333,6.44279167 19.5572083,6.66666667 19.8333333,6.66666667 L22.8333333,6.66666667 C23.1094583,6.66666667 23.3333333,6.44279167 23.3333333,6.16666667 L23.3333333,3.16666667 C23.3333333,2.89054167 23.1094583,2.66666667 22.8333333,2.66666667 Z M22.3333333,5.66666667 L20.3333333,5.66666667 L20.3333333,3.66666667 L22.3333333,3.66666667 L22.3333333,5.66666667 Z" id="Shape" fill="#FFCB05"></path>
                        <path d="M12.1666667,8 L9.16666667,8 C8.89054167,8 8.66666667,8.223875 8.66666667,8.5 L8.66666667,11.5 C8.66666667,11.776125 8.89054167,12 9.16666667,12 L12.1666667,12 C12.4427917,12 12.6666667,11.776125 12.6666667,11.5 L12.6666667,8.5 C12.6666667,8.223875 12.4427917,8 12.1666667,8 Z M11.6666667,11 L9.66666667,11 L9.66666667,9 L11.6666667,9 L11.6666667,11 Z" id="Shape" fill="#FFCB05"></path>
                        <path d="M17.5,8 L14.5,8 C14.223875,8 14,8.223875 14,8.5 L14,11.5 C14,11.776125 14.223875,12 14.5,12 L17.5,12 C17.776125,12 18,11.776125 18,11.5 L18,8.5 C18,8.223875 17.776125,8 17.5,8 Z M17,11 L15,11 L15,9 L17,9 L17,11 Z" id="Shape" fill="#FFCB05"></path>
                        <path d="M22.8333333,8 L19.8333333,8 C19.5572083,8 19.3333333,8.223875 19.3333333,8.5 L19.3333333,11.5 C19.3333333,11.776125 19.5572083,12 19.8333333,12 L22.8333333,12 C23.1094583,12 23.3333333,11.776125 23.3333333,11.5 L23.3333333,8.5 C23.3333333,8.223875 23.1094583,8 22.8333333,8 Z M22.3333333,11 L20.3333333,11 L20.3333333,9 L22.3333333,9 L22.3333333,11 Z" id="Shape" fill="#FFCB05"></path>
                        <path d="M12.1666667,13.3333333 L9.16666667,13.3333333 C8.89054167,13.3333333 8.66666667,13.5572083 8.66666667,13.8333333 L8.66666667,16.8333333 C8.66666667,17.1094583 8.89054167,17.3333333 9.16666667,17.3333333 L12.1666667,17.3333333 C12.4427917,17.3333333 12.6666667,17.1094583 12.6666667,16.8333333 L12.6666667,13.8333333 C12.6666667,13.5572083 12.4427917,13.3333333 12.1666667,13.3333333 Z M11.6666667,16.3333333 L9.66666667,16.3333333 L9.66666667,14.3333333 L11.6666667,14.3333333 L11.6666667,16.3333333 Z" id="Shape" fill="#FFCB05"></path>
                        <path d="M17.5,13.3333333 L14.5,13.3333333 C14.223875,13.3333333 14,13.5572083 14,13.8333333 L14,16.8333333 C14,17.1094583 14.223875,17.3333333 14.5,17.3333333 L17.5,17.3333333 C17.776125,17.3333333 18,17.1094583 18,16.8333333 L18,13.8333333 C18,13.5572083 17.776125,13.3333333 17.5,13.3333333 Z M17,16.3333333 L15,16.3333333 L15,14.3333333 L17,14.3333333 L17,16.3333333 Z" id="Shape" fill="#FFCB05"></path>
                        <path d="M22.8333333,13.3333333 L19.8333333,13.3333333 C19.5572083,13.3333333 19.3333333,13.5572083 19.3333333,13.8333333 L19.3333333,16.8333333 C19.3333333,17.1094583 19.5572083,17.3333333 19.8333333,17.3333333 L22.8333333,17.3333333 C23.1094583,17.3333333 23.3333333,17.1094583 23.3333333,16.8333333 L23.3333333,13.8333333 C23.3333333,13.5572083 23.1094583,13.3333333 22.8333333,13.3333333 Z M22.3333333,16.3333333 L20.3333333,16.3333333 L20.3333333,14.3333333 L22.3333333,14.3333333 L22.3333333,16.3333333 Z" id="Shape" fill="#FFCB05"></path>
                        <path d="M12.1666667,18.6666667 L9.16666667,18.6666667 C8.89054167,18.6666667 8.66666667,18.8905417 8.66666667,19.1666667 L8.66666667,22.1666667 C8.66666667,22.4427917 8.89054167,22.6666667 9.16666667,22.6666667 L12.1666667,22.6666667 C12.4427917,22.6666667 12.6666667,22.4427917 12.6666667,22.1666667 L12.6666667,19.1666667 C12.6666667,18.8905417 12.4427917,18.6666667 12.1666667,18.6666667 Z M11.6666667,21.6666667 L9.66666667,21.6666667 L9.66666667,19.6666667 L11.6666667,19.6666667 L11.6666667,21.6666667 Z" id="Shape" fill="#FFCB05"></path>
                        <path d="M17.5,18.6666667 L14.5,18.6666667 C14.223875,18.6666667 14,18.8905417 14,19.1666667 L14,22.1666667 C14,22.4427917 14.223875,22.6666667 14.5,22.6666667 L17.5,22.6666667 C17.776125,22.6666667 18,22.4427917 18,22.1666667 L18,19.1666667 C18,18.8905417 17.776125,18.6666667 17.5,18.6666667 Z M17,21.6666667 L15,21.6666667 L15,19.6666667 L17,19.6666667 L17,21.6666667 Z" id="Shape" fill="#FFCB05"></path>
                        <path d="M22.8333333,18.6666667 L19.8333333,18.6666667 C19.5572083,18.6666667 19.3333333,18.8905417 19.3333333,19.1666667 L19.3333333,22.1666667 C19.3333333,22.4427917 19.5572083,22.6666667 19.8333333,22.6666667 L22.8333333,22.6666667 C23.1094583,22.6666667 23.3333333,22.4427917 23.3333333,22.1666667 L23.3333333,19.1666667 C23.3333333,18.8905417 23.1094583,18.6666667 22.8333333,18.6666667 Z M22.3333333,21.6666667 L20.3333333,21.6666667 L20.3333333,19.6666667 L22.3333333,19.6666667 L22.3333333,21.6666667 Z" id="Shape" fill="#FFCB05"></path>
                        <path d="M28.8888889,8 L27.1111111,8 C26.8656667,8 26.6666667,8.199 26.6666667,8.44444444 L26.6666667,10.2222222 C26.6666667,10.4676667 26.8656667,10.6666667 27.1111111,10.6666667 L28.8888889,10.6666667 C29.1343333,10.6666667 29.3333333,10.4676667 29.3333333,10.2222222 L29.3333333,8.44444444 C29.3333333,8.199 29.1343333,8 28.8888889,8 Z M28.4444444,9.77777778 L27.5555556,9.77777778 L27.5555556,8.88888889 L28.4444444,8.88888889 L28.4444444,9.77777778 Z" id="Shape" fill="#787878"></path>
                        <path d="M28.8888889,12 L27.1111111,12 C26.8656667,12 26.6666667,12.199 26.6666667,12.4444444 L26.6666667,14.2222222 C26.6666667,14.4676667 26.8656667,14.6666667 27.1111111,14.6666667 L28.8888889,14.6666667 C29.1343333,14.6666667 29.3333333,14.4676667 29.3333333,14.2222222 L29.3333333,12.4444444 C29.3333333,12.199 29.1343333,12 28.8888889,12 Z M28.4444444,13.7777778 L27.5555556,13.7777778 L27.5555556,12.8888889 L28.4444444,12.8888889 L28.4444444,13.7777778 Z" id="Shape" fill="#787878"></path>
                        <path d="M28.8888889,16 L27.1111111,16 C26.8656667,16 26.6666667,16.199 26.6666667,16.4444444 L26.6666667,18.2222222 C26.6666667,18.4676667 26.8656667,18.6666667 27.1111111,18.6666667 L28.8888889,18.6666667 C29.1343333,18.6666667 29.3333333,18.4676667 29.3333333,18.2222222 L29.3333333,16.4444444 C29.3333333,16.199 29.1343333,16 28.8888889,16 Z M28.4444444,17.7777778 L27.5555556,17.7777778 L27.5555556,16.8888889 L28.4444444,16.8888889 L28.4444444,17.7777778 Z" id="Shape" fill="#787878"></path>
                        <path d="M28.8888889,20 L27.1111111,20 C26.8656667,20 26.6666667,20.199 26.6666667,20.4444444 L26.6666667,22.2222222 C26.6666667,22.4676667 26.8656667,22.6666667 27.1111111,22.6666667 L28.8888889,22.6666667 C29.1343333,22.6666667 29.3333333,22.4676667 29.3333333,22.2222222 L29.3333333,20.4444444 C29.3333333,20.199 29.1343333,20 28.8888889,20 Z M28.4444444,21.7777778 L27.5555556,21.7777778 L27.5555556,20.8888889 L28.4444444,20.8888889 L28.4444444,21.7777778 Z" id="Shape" fill="#787878"></path>
                        <path d="M28.8888889,24 L27.1111111,24 C26.8656667,24 26.6666667,24.199 26.6666667,24.4444444 L26.6666667,26.2222222 C26.6666667,26.4676667 26.8656667,26.6666667 27.1111111,26.6666667 L28.8888889,26.6666667 C29.1343333,26.6666667 29.3333333,26.4676667 29.3333333,26.2222222 L29.3333333,24.4444444 C29.3333333,24.199 29.1343333,24 28.8888889,24 Z M28.4444444,25.7777778 L27.5555556,25.7777778 L27.5555556,24.8888889 L28.4444444,24.8888889 L28.4444444,25.7777778 Z" id="Shape" fill="#787878"></path>
                        <path d="M4.88888889,10.6666667 L3.11111111,10.6666667 C2.86566667,10.6666667 2.66666667,10.8656667 2.66666667,11.1111111 L2.66666667,12.8888889 C2.66666667,13.1343333 2.86566667,13.3333333 3.11111111,13.3333333 L4.88888889,13.3333333 C5.13433333,13.3333333 5.33333333,13.1343333 5.33333333,12.8888889 L5.33333333,11.1111111 C5.33333333,10.8656667 5.13433333,10.6666667 4.88888889,10.6666667 Z M4.44444444,12.4444444 L3.55555556,12.4444444 L3.55555556,11.5555556 L4.44444444,11.5555556 L4.44444444,12.4444444 Z" id="Shape" fill="#787878"></path>
                        <path d="M4.88888889,14.6666667 L3.11111111,14.6666667 C2.86566667,14.6666667 2.66666667,14.8656667 2.66666667,15.1111111 L2.66666667,16.8888889 C2.66666667,17.1343333 2.86566667,17.3333333 3.11111111,17.3333333 L4.88888889,17.3333333 C5.13433333,17.3333333 5.33333333,17.1343333 5.33333333,16.8888889 L5.33333333,15.1111111 C5.33333333,14.8656667 5.13433333,14.6666667 4.88888889,14.6666667 Z M4.44444444,16.4444444 L3.55555556,16.4444444 L3.55555556,15.5555556 L4.44444444,15.5555556 L4.44444444,16.4444444 Z" id="Shape" fill="#787878"></path>
                        <path d="M4.88888889,18.6666667 L3.11111111,18.6666667 C2.86566667,18.6666667 2.66666667,18.8656667 2.66666667,19.1111111 L2.66666667,20.8888889 C2.66666667,21.1343333 2.86566667,21.3333333 3.11111111,21.3333333 L4.88888889,21.3333333 C5.13433333,21.3333333 5.33333333,21.1343333 5.33333333,20.8888889 L5.33333333,19.1111111 C5.33333333,18.8656667 5.13433333,18.6666667 4.88888889,18.6666667 Z M4.44444444,20.4444444 L3.55555556,20.4444444 L3.55555556,19.5555556 L4.44444444,19.5555556 L4.44444444,20.4444444 Z" id="Shape" fill="#787878"></path>
                        <path d="M4.88888889,22.6666667 L3.11111111,22.6666667 C2.86566667,22.6666667 2.66666667,22.8656667 2.66666667,23.1111111 L2.66666667,24.8888889 C2.66666667,25.1343333 2.86566667,25.3333333 3.11111111,25.3333333 L4.88888889,25.3333333 C5.13433333,25.3333333 5.33333333,25.1343333 5.33333333,24.8888889 L5.33333333,23.1111111 C5.33333333,22.8656667 5.13433333,22.6666667 4.88888889,22.6666667 Z M4.44444444,24.4444444 L3.55555556,24.4444444 L3.55555556,23.5555556 L4.44444444,23.5555556 L4.44444444,24.4444444 Z" id="Shape" fill="#787878"></path>
                        <path d="M4.88888889,26.6666667 L3.11111111,26.6666667 C2.86566667,26.6666667 2.66666667,26.8656667 2.66666667,27.1111111 L2.66666667,28.8888889 C2.66666667,29.1343333 2.86566667,29.3333333 3.11111111,29.3333333 L4.88888889,29.3333333 C5.13433333,29.3333333 5.33333333,29.1343333 5.33333333,28.8888889 L5.33333333,27.1111111 C5.33333333,26.8656667 5.13433333,26.6666667 4.88888889,26.6666667 Z M4.44444444,28.4444444 L3.55555556,28.4444444 L3.55555556,27.5555556 L4.44444444,27.5555556 L4.44444444,28.4444444 Z" id="Shape" fill="#787878"></path>
                    </g>
                </g>
            </g>
        </g>
    </g>
</svg>