<svg width="19" height="17" viewBox="0 0 19 17" fill="none" xmlns="http://www.w3.org/2000/svg">
<path d="M3.16799 7.92371C3.3216 8.07733 3.51352 8.15407 3.70559 8.15407C3.89765 8.15407 4.08955 8.07733 4.24319 7.92371C4.55042 7.61648 4.55042 7.13648 4.24319 6.84855L2.61126 5.21648H10.272C10.6944 5.21648 11.04 4.87095 11.04 4.44855C11.04 4.02615 10.6944 3.68062 10.272 3.68062L2.61126 3.68048L4.24332 2.04842C4.55055 1.74118 4.55055 1.26118 4.24332 0.97325C3.93609 0.685304 3.45609 0.666019 3.16816 0.97325L0.230423 3.89168C-0.0768077 4.19891 -0.0768077 4.67892 0.230423 4.96685L3.16799 7.92371Z" fill="#787878"/>
<path d="M15.3218 7.36711C16.9345 7.36711 18.2402 6.06158 18.2402 4.44867C18.2402 2.8359 16.9347 1.53023 15.3218 1.53023C13.709 1.51108 12.3842 2.8359 12.3842 4.44867C12.3842 6.06144 13.709 7.36711 15.3218 7.36711ZM15.3218 3.0471C16.0897 3.0471 16.7042 3.66157 16.7042 4.42951C16.7042 5.19744 16.0897 5.81191 15.3218 5.81191C14.5538 5.81191 13.9394 5.19744 13.9394 4.42951C13.9202 3.68057 14.5538 3.0471 15.3218 3.0471Z" fill="#FFCB05"/>
<path d="M15.0721 9.42159C14.7648 9.11435 14.2848 9.11435 13.9969 9.42159C13.6897 9.72882 13.6897 10.2088 13.9969 10.4968L15.629 12.1288H7.94896C7.52656 12.1288 7.18103 12.4744 7.18103 12.8968C7.18103 13.3192 7.52656 13.6647 7.94896 13.6647H15.6098L13.9777 15.2968C13.6705 15.604 13.6705 16.084 13.9777 16.3719C14.1313 16.5255 14.3232 16.6023 14.5153 16.6023C14.7074 16.6023 14.8993 16.5255 15.0529 16.3719L18.0096 13.4152C18.3169 13.108 18.3169 12.628 18.0096 12.34L15.0721 9.42159Z" fill="#787878"/>
<path d="M2.91844 9.97778C1.30553 9.97778 0 11.2835 0 12.8962C0 14.509 1.30553 15.8147 2.91844 15.8147C4.5312 15.8338 5.85604 14.509 5.85604 12.8962C5.85604 11.2835 4.5312 9.97778 2.91844 9.97778ZM2.91844 14.2978C2.1505 14.2978 1.53604 13.6833 1.53604 12.9154C1.53604 12.1475 2.1505 11.533 2.91844 11.533C3.68637 11.533 4.30084 12.1475 4.30084 12.9154C4.31999 13.6643 3.68637 14.2978 2.91844 14.2978Z" fill="#FFCB05"/>
</svg>
