<?xml version="1.0" encoding="UTF-8"?>
<svg width="20px" height="24px" viewBox="0 0 20 24" version="1.1" xmlns="http://www.w3.org/2000/svg" xmlns:xlink="http://www.w3.org/1999/xlink">
    <title>icons / cash</title>
    <g id="Symbols" stroke="none" stroke-width="1" fill="none" fill-rule="evenodd">
        <g id="Branch-/-card-01-Copy-8" transform="translate(-96.000000, -278.000000)">
            <g id="Group-9" transform="translate(94.000000, 227.000000)">
                <g id="Group" transform="translate(0.000000, 51.000000)">
                    <g id="cement" transform="translate(2.000000, 0.000000)" fill="#787878" fill-rule="nonzero">
                        <path d="M6.79711209,0.0130040404 C7.75528336,-0.0704554512 8.68206878,0.25223884 9.31458063,0.853682232 L9.44551889,0.986783097 L9.55990847,1.11937552 L9.71308798,1.10052949 C10.2754431,1.04512231 10.8438442,1.0793513 11.3910657,1.20084081 L11.6627854,1.26884628 L11.8107995,1.31425541 L11.8229111,1.30452081 C12.8440466,0.45372235 14.3322052,0.189275167 15.647857,0.624573354 L15.8654253,0.703621619 L16.0589712,0.786404647 C17.2620566,1.33939923 17.9948802,2.41173593 18.0372624,3.55778965 L18.0375295,3.76070895 L18.0279695,3.8937739 L18.4529053,3.8945781 C18.9170032,3.8945781 19.3030977,4.1726518 19.4109114,4.54525025 L19.4332652,4.64907369 L19.4409171,4.75675689 L19.4409171,7.01357893 C19.4409171,7.45092804 19.0664042,7.81550096 18.577393,7.86900124 L18.4529053,7.87575773 L18.3957113,7.87489157 L18.3992325,8.3518496 C18.4083597,9.34127215 18.4427357,10.4340401 18.5114467,11.578359 L18.5487054,12.1545746 L18.5919391,12.7379433 C18.8194172,15.619003 19.2337825,18.1252568 19.871966,20.010707 C20.1273716,20.771838 19.9969694,21.5931921 19.5138075,22.2636722 C19.0287885,22.9367294 18.2354525,23.3921657 17.3380818,23.5108056 C14.9093366,23.8302831 12.4575632,23.993777 9.9987637,24 C7.5433221,23.9936931 5.09163265,23.8301255 2.66308442,23.510599 C1.77442645,23.3938324 0.986853353,22.9459623 0.5005485,22.2824962 C0.0564812829,21.6766549 -0.0976073444,20.9440511 0.0603041231,20.2594768 L0.129471407,20.0096376 C0.687763842,18.3601958 1.07486963,16.2349394 1.31528845,13.7994302 L1.36457049,13.2728469 L1.40941569,12.7371281 C1.51745722,11.3686005 1.57461773,10.0461831 1.59528887,8.85375308 L1.60195584,8.35091458 L1.60401958,7.87489157 L1.54792455,7.87575773 C1.08382672,7.87575773 0.697732206,7.59768403 0.589918458,7.22508558 L0.567564703,7.12126214 L0.559912823,7.01357893 L0.559912823,4.75763045 C0.559912823,4.32028133 0.9344257,3.95570842 1.42343685,3.90220814 L1.54792455,3.89545165 L1.99064845,3.8947339 L2.01213266,3.77605299 C2.21810903,2.80666107 3.00836486,2.00616879 4.07152212,1.69216651 L4.27398615,1.63906968 L4.30708866,1.63201522 L4.33100355,1.58143265 C4.71293418,0.823797226 5.47709495,0.264144803 6.39498488,0.0722392329 L6.59394531,0.0368072564 L6.79711209,0.0130040404 Z M16.4181269,7.87489157 L3.58160403,7.87489157 L3.58123509,8.32077013 L3.56654603,9.31639458 C3.54707954,10.1710909 3.50887698,11.0849105 3.44689783,12.0323545 L3.40681683,12.6046519 C3.20936713,15.2482994 2.85459162,17.628174 2.30845085,19.5756694 L1.98436964,20.6851392 C1.91932201,21.2334129 2.35147255,21.7260693 2.95748718,21.8056818 C5.28976366,22.1124993 7.64412172,22.269565 9.99875185,22.2756467 C12.3571169,22.2695457 14.7118854,22.1124077 17.0437787,21.8055691 C17.3713535,21.7620538 17.6628954,21.5942821 17.8428518,21.3437268 C18.0234909,21.0928756 18.0721472,20.783821 17.9755652,20.4980743 C17.2874292,18.4635735 16.850401,15.8474678 16.6143339,12.8717701 C16.4868324,11.264574 16.4296623,9.72477067 16.4198222,8.37061804 L16.4181269,7.87489157 Z M17.4635802,5.61889289 L2.53615068,5.61889289 L2.53615068,6.15073258 L17.4635802,6.15073258 L17.4635802,5.61889289 Z M7.2645179,1.73888053 L7.1365579,1.72724047 L6.9946037,1.72993517 L6.88665567,1.74509856 C6.4966553,1.81551367 6.18237822,2.07911877 6.08106513,2.42485855 L6.05719737,2.53093347 C5.99039431,2.95573261 5.57476737,3.27573437 5.09421902,3.27587522 L5.03146229,3.27457426 L4.92271791,3.28143968 C4.52637832,3.32337713 4.19225133,3.55043005 4.03390742,3.86437164 L4.02045002,3.8947339 L16.0437191,3.8947339 L16.060041,3.78950735 C16.1133639,3.22983495 15.8128323,2.67810393 15.2649899,2.37261945 L15.1229386,2.30151638 C14.3935702,1.97572553 13.5139988,2.15580028 13.0149188,2.71802306 L12.9203332,2.83552626 C12.636199,3.22287244 12.0521831,3.34835126 11.5945022,3.11751459 C10.911784,2.77437881 10.0968844,2.70581644 9.35379652,2.92874186 C9.10016221,3.00477439 8.82210473,2.98754918 8.58343626,2.88120307 C8.38663064,2.79351026 8.23083769,2.65160309 8.13849207,2.48000811 L8.09087786,2.37368479 C7.96726387,2.03377185 7.64298079,1.79453898 7.2645179,1.73888053 Z" id="Shape"></path>
                    </g>
                    <path d="M12,18.4461524 C13.6568542,18.4461524 15,17.1030067 15,15.4461524 C15,13.7892982 13.6568542,12.4461524 12,12.4461524 C10.3431458,12.4461524 9,13.7892982 9,15.4461524 C9,17.1030067 10.3431458,18.4461524 12,18.4461524 Z M6,15.4461524 L9,15.4461524 M15,15.4461524 L18,15.4461524 M9,10.25 L10.5,12.8480762 M13.5,18.0442286 L15,20.6423048 M15,10.25 L13.5,12.8480762 M10.5,18.0442286 L9,20.6423048" id="Oval-2" stroke="#FFCB05" stroke-width="2"></path>
                </g>
            </g>
        </g>
    </g>
</svg>