<?xml version="1.0" encoding="UTF-8"?>
<svg width="21px" height="21px" viewBox="0 0 21 21" version="1.1" xmlns="http://www.w3.org/2000/svg" xmlns:xlink="http://www.w3.org/1999/xlink">
    <title>icons /close</title>
    <g id="Common_apply" stroke="none" stroke-width="1" fill="none" fill-rule="evenodd">
        <g id="world_business_desktop_03_01" transform="translate(-131.000000, -372.000000)" fill="#737373" fill-rule="nonzero" stroke="#737373">
            <g id="Group-6" transform="translate(112.000000, 353.000000)">
                <g id="Group" transform="translate(18.000000, 18.000000)">
                    <g id="Group" transform="translate(2.000000, 2.000000)">
                        <path d="M8.00907258,9.98487903 C7.05141129,9.98487903 6.27016129,10.766129 6.27016129,11.7237903 L6.27016129,13.6391129 C6.27016129,13.7903226 6.37096774,13.891129 6.52217742,13.891129 L13.452621,13.891129 C13.6038306,13.891129 13.7046371,13.7903226 13.7046371,13.6391129 L13.7046371,11.6985887 C13.7046371,10.7409274 12.9233871,9.95967742 11.9657258,9.95967742 L8.00907258,9.95967742 L8.00907258,9.98487903 Z M13.2006048,11.6985887 L13.2006048,13.3870968 L6.79939516,13.3870968 L6.79939516,11.6985887 C6.79939516,11.0181452 7.35383065,10.4637097 8.03427419,10.4637097 L12.016129,10.4637097 C12.671371,10.4889113 13.2006048,11.0433468 13.2006048,11.6985887 Z" id="Shape" stroke-width="0.7"></path>
                        <path d="M7.88306452,6.93548387 C7.88306452,8.09475806 8.84072581,9.05241935 10,9.05241935 C11.1592742,9.05241935 12.1169355,8.09475806 12.1169355,6.93548387 C12.1169355,5.77620968 11.1592742,4.81854839 10,4.81854839 C8.84072581,4.81854839 7.88306452,5.75100806 7.88306452,6.93548387 Z M11.6129032,6.93548387 C11.6129032,7.81754032 10.8820565,8.5483871 10,8.5483871 C9.11794355,8.5483871 8.38709677,7.81754032 8.38709677,6.93548387 C8.38709677,6.05342742 9.11794355,5.32258065 10,5.32258065 C10.8820565,5.32258065 11.6129032,6.02822581 11.6129032,6.93548387 Z" id="Shape" stroke-width="0.7"></path>
                        <path d="M14.7915328,1.45176543 L16.6973066,1.08874632 C16.8788089,1.05849473 16.96956,0.907236762 16.9393096,0.725727206 C16.9090592,0.574469243 16.7578074,0.453462872 16.5763051,0.483714464 L13.8840215,1.02824313 C13.7932704,1.05849473 13.7327696,1.08874632 13.7025192,1.1492495 C13.6722689,1.20975269 13.6420185,1.30050747 13.6722689,1.39126225 L14.2167757,4.083654 C14.247026,4.23491196 14.3982779,4.35591833 14.5797802,4.32566674 C14.7310321,4.29541515 14.8520336,4.14415718 14.8217832,3.96264763 L14.4285283,1.90553932 C17.2418134,3.62988011 18.9358345,6.80629734 18.7240819,10.2247273 C18.4518285,14.7927178 14.7310321,18.4834121 10.1632251,18.7556765 C4.96016017,19.0279408 0.60410582,14.853221 0.60410582,9.68019865 C0.60410582,4.77944063 4.50640451,0.755978799 9.37671527,0.604720835 C9.52796716,0.604720835 9.67921904,0.453462872 9.67921904,0.302204908 L9.67921904,0.302204908 C9.67921904,0.120695352 9.52796716,-0.000311019002 9.37671527,-0.000311019002 C3.96189771,0.181198537 -0.363906258,4.80969222 0.0293486487,10.3759853 C0.3621028,15.1254853 4.20390073,18.9976892 8.98346036,19.3304567 C14.6402809,19.7237274 19.3593398,15.2464917 19.3593398,9.68019865 C19.3593398,6.29202027 17.6350683,3.2366094 14.7915328,1.45176543 Z" id="Path"></path>
                    </g>
                </g>
            </g>
        </g>
    </g>
</svg>