<?xml version="1.0" encoding="UTF-8"?>
<svg width="24px" height="24px" viewBox="0 0 24 24" version="1.1" xmlns="http://www.w3.org/2000/svg" xmlns:xlink="http://www.w3.org/1999/xlink">
    <title>icons /close</title>
    <g id="Common_apply" stroke="none" stroke-width="1" fill="none" fill-rule="evenodd">
        <g id="NRI_savings_desktop_01_01" transform="translate(-130.000000, -359.000000)" stroke="#787878" stroke-width="2">
            <g id="Group-6" transform="translate(112.000000, 341.000000)">
                <g id="icons-/close" transform="translate(18.000000, 18.000000)">
                    <path d="M12,23 C14.439793,23 16.6940653,22.2056918 18.5183259,20.8615665 C19.7210889,19.9753641 20.7369272,18.850158 21.4957691,17.55602 C22.4518721,15.9254708 23,14.0267465 23,12 C23,5.92486775 18.0751322,1 12,1 C5.92486775,1 1,5.92486775 1,12" id="Oval" transform="translate(12.000000, 12.000000) scale(-1, 1) translate(-12.000000, -12.000000) "></path>
                    <path d="M7,22.9622265 C7.16078668,22.9622265 7.3176955,22.9872031 7.47072648,22.9622265 C10.7222027,22.4315451 12.2230509,16.4024539 11.973271,10.7957531 C11.7473738,5.72513744 10.0896168,1 7,1" id="Oval" transform="translate(9.500000, 11.986664) scale(-1, 1) translate(-9.500000, -11.986664) "></path>
                    <path d="M16.9865146,12.8561297 C17.0081619,12.1702191 17.0037474,11.479842 16.973271,10.7957531 C16.7473738,5.72513744 15.0896168,1 12,1" id="Oval"></path>
                    <line x1="3" y1="8" x2="21" y2="8" id="Line-8" stroke-linecap="square"></line>
                    <line x1="3" y1="16" x2="11" y2="16" id="Line-8-Copy" stroke-linecap="square"></line>
                    <path d="M13,20.5 L19,20.5 M15,23 L12,20.5 L15,18 M18.9542941,20.4867607 C20.6111484,20.4867607 22,19.3806278 22,17" id="Line-5"></path>
                    <path d="M13,14.5 L19,14.5 M15,17 L12,14.5 L15,12 M18.9542941,14.4867607 C20.6111484,14.4867607 22,13.3806278 22,11" id="Line-5" transform="translate(17.000000, 14.000000) scale(-1, -1) translate(-17.000000, -14.000000) "></path>
                </g>
            </g>
        </g>
    </g>
</svg>