<?xml version="1.0" encoding="UTF-8"?>
<svg width="22px" height="24px" viewBox="0 0 22 24" version="1.1" xmlns="http://www.w3.org/2000/svg" xmlns:xlink="http://www.w3.org/1999/xlink">
    <title>icons /close copy 2</title>
    <g id="Common_apply" stroke="none" stroke-width="1" fill="none" fill-rule="evenodd">
        <g id="current_account_desktop_02_01" transform="translate(-131.000000, -562.000000)" stroke="#787878" stroke-width="2">
            <g id="Group" transform="translate(112.000000, 186.000000)">
                <g id="Group-6" transform="translate(0.000000, 155.000000)">
                    <g id="Group-11" transform="translate(0.000000, 202.000000)">
                        <g id="icons-/close-copy-2" transform="translate(18.000000, 18.000000)">
                            <path d="M21,24 L20.1818182,18.8571429 L14.4545455,16.2857143 L14.4545455,14.5714286 L16.0909091,12.8571429 L16.0909091,10.2857143 C16.0909091,8.20190378 14.4545455,6 11.9747623,6 C9.49497918,6 7.90909091,8.07840405 7.90909091,10.1622146 L7.90909091,12.8571429 L9.54545455,14.5714286 L9.54545455,16.2857143 L3.81818182,18.8571429 L3,24" id="Shape"></path>
                            <path d="M21,13 C20.4666667,13 20,12.5333333 20,12 C20,11.4666667 20.4666667,11 21,11 C21.5333333,11 22,11.4666667 22,12 C22,12.5333333 21.5333333,13 21,13 Z" id="Path"></path>
                            <path d="M17,4 C16.4666667,4 16,3.53333333 16,3 C16,2.46666667 16.4666667,2 17,2 C17.5333333,2 18,2.46666667 18,3 C18,3.53333333 17.5333333,4 17,4 Z" id="Path-Copy"></path>
                            <path d="M7,4 C6.46666667,4 6,3.53333333 6,3 C6,2.46666667 6.46666667,2 7,2 C7.53333333,2 8,2.46666667 8,3 C8,3.53333333 7.53333333,4 7,4 Z" id="Path-Copy-2"></path>
                            <path d="M3,13 C2.46666667,13 2,12.5333333 2,12 C2,11.4666667 2.46666667,11 3,11 C3.53333333,11 4,11.4666667 4,12 C4,12.5333333 3.53333333,13 3,13 Z" id="Path-Copy-3"></path>
                        </g>
                    </g>
                </g>
            </g>
        </g>
    </g>
</svg>