<svg width="24" height="24" xmlns="http://www.w3.org/2000/svg"><path d="M23.366 5.02a4.4 4.4 0 00-4.397-4.4H5.02a4.4 4.4 0 00-4.394 4.4v13.963a4.399 4.399 0 004.393 4.395H18.97a4.4 4.4 0 004.397-4.395V5.02zM5.018 21.16a2.176 2.176 0 01-2.178-2.177V9.664h3.393a6.22 6.22 0 00-.456 2.334c0 3.43 2.788 6.225 6.216 6.225 3.433 0 6.22-2.794 6.22-6.225 0-.823-.167-1.614-.459-2.334h3.393v9.319a2.177 2.177 0 01-2.178 2.177H5.02zM20.232 3.241h.503v3.857l-3.842.012-.015-3.856 3.354-.013zM7.991 11.998c.003-.871.282-1.676.759-2.334a3.99 3.99 0 016.491 0c.472.658.756 1.463.756 2.334a4.009 4.009 0 01-4.004 4.005 4.008 4.008 0 01-4.002-4.005z" fill="#FFF" fill-rule="evenodd"/></svg>