<svg width="47" height="50" viewBox="0 0 47 50" fill="none" xmlns="http://www.w3.org/2000/svg">
<path fill-rule="evenodd" clip-rule="evenodd" d="M32.4521 18.6113L23.7619 22.5714L14.1515 17.7625V11.2675L22.8661 15.3685V20.044H24.609V15.3685L32.4521 11.6777V18.6113ZM23.7375 1.83486L34.6535 6.97211H23.7375V6.10065H21.9946V9.58649H23.7375V8.71503H34.6548L23.7375 13.8566L10.9698 7.84357L23.7375 1.83486ZM37.6809 17.4296H39.4238V13.9438H37.6809V17.4296ZM39.4235 7.83671C39.4232 7.81176 39.422 7.78693 39.4196 7.7622C39.4191 7.75632 39.4184 7.75054 39.4178 7.74477C39.4153 7.72298 39.412 7.70142 39.4079 7.67996C39.4064 7.67179 39.4046 7.66362 39.4029 7.65556C39.3987 7.63671 39.3939 7.61808 39.3885 7.59956C39.3858 7.59009 39.3828 7.58072 39.3798 7.57135C39.3741 7.55414 39.3678 7.53715 39.3611 7.52037C39.3574 7.511 39.3536 7.50163 39.3495 7.49248C39.3421 7.4756 39.3339 7.45893 39.3254 7.44248C39.3213 7.43442 39.3171 7.42647 39.3127 7.41852C39.303 7.4012 39.2926 7.38431 39.2817 7.36754C39.2776 7.36133 39.2736 7.35501 39.2693 7.3488C39.2573 7.33137 39.2446 7.31449 39.2312 7.29782C39.2273 7.29292 39.2233 7.28802 39.2193 7.28322C39.2054 7.26656 39.1907 7.25055 39.1753 7.23486C39.171 7.23039 39.1666 7.22593 39.1621 7.22157C39.1471 7.20686 39.1315 7.1927 39.1154 7.17908C39.1094 7.17396 39.1034 7.16906 39.0973 7.16405C39.0825 7.15218 39.0674 7.14085 39.0517 7.12985C39.0427 7.12364 39.0338 7.11765 39.0247 7.11176C39.011 7.10305 38.9973 7.09455 38.983 7.08649C38.9706 7.07941 38.9581 7.07288 38.9454 7.06634C38.9379 7.06264 38.9311 7.05828 38.9235 7.05468L24.1086 0.0830065C23.8736 -0.0276688 23.6012 -0.0276688 23.3662 0.0830065L8.55134 7.05468C8.36758 7.14107 8.21975 7.28889 8.13337 7.47266C7.92858 7.90828 8.11572 8.42734 8.55134 8.63203L12.4085 10.4474V18.3011C12.4067 18.633 12.5936 18.937 12.8905 19.0855L23.3549 24.3143C23.4757 24.3751 23.6092 24.4066 23.7445 24.4065C23.8692 24.4065 23.9926 24.3798 24.1061 24.3281L33.6844 19.9657C33.9952 19.8242 34.1949 19.5142 34.195 19.1725V10.8574L37.6809 9.21699V12.2009H36.8094C36.3281 12.2009 35.9379 12.5911 35.9379 13.0723V18.3011C35.9379 18.7824 36.3281 19.1725 36.8094 19.1725H40.2952C40.7765 19.1725 41.1667 18.7824 41.1667 18.3011V13.0723C41.1667 12.5911 40.7765 12.2009 40.2952 12.2009H39.4238V7.87876C39.4239 7.87691 39.4237 7.87516 39.4238 7.87331V7.84357C39.4238 7.84129 39.4235 7.83911 39.4235 7.83671Z" fill="#FFCB05"/>
<path fill-rule="evenodd" clip-rule="evenodd" d="M44.6525 20.9155C45.1338 20.9155 45.524 21.3057 45.524 21.787C45.524 22.2682 45.1338 22.6584 44.6525 22.6584C44.1713 22.6584 43.7811 22.2682 43.7811 21.787C43.7811 21.3057 44.1713 20.9155 44.6525 20.9155Z" fill="#787878"/>
<path fill-rule="evenodd" clip-rule="evenodd" d="M3.04034 20.9155C3.52161 20.9155 3.9118 21.3057 3.9118 21.787C3.9118 22.2682 3.52161 22.6584 3.04034 22.6584C2.55908 22.6584 2.16888 22.2682 2.16888 21.787C2.16888 21.3057 2.55908 20.9155 3.04034 20.9155Z" fill="#787878"/>
<mask id="mask0" mask-type="alpha" maskUnits="userSpaceOnUse" x="0" y="20" width="43" height="23">
<path fill-rule="evenodd" clip-rule="evenodd" d="M0.824341 20.9155H42.9096V42.9572H0.824341V20.9155Z" fill="white"/>
</mask>
<g mask="url(#mask0)">
<path fill-rule="evenodd" clip-rule="evenodd" d="M32.3649 33.1159C32.1836 34.1504 31.6146 35.7303 29.8377 35.7303H20.2516V37.4732H29.8377C33.2812 37.4732 34.1933 34.0589 34.195 32.2494C34.1954 31.767 33.8059 31.373 33.3235 31.373H24.6089V29.3018L37.8865 22.6584H42.0381C42.5194 22.6584 42.9096 22.2682 42.9096 21.787C42.9096 21.3057 42.5194 20.9155 42.0381 20.9155H37.6808C37.5453 20.9167 37.4119 20.9495 37.2913 21.0114L23.7418 27.7861L10.1836 21.007C10.0626 20.9467 9.92929 20.9154 9.79411 20.9155H5.43681C4.95554 20.9155 4.56535 21.3057 4.56535 21.787C4.56535 22.2682 4.95554 22.6584 5.43681 22.6584H9.58844L22.866 29.2972V31.373H11.537C11.3061 31.373 11.0845 31.4648 10.9211 31.6281L1.07951 41.4697C0.739204 41.8101 0.739204 42.3617 1.07951 42.702C1.41981 43.0423 1.97145 43.0423 2.31175 42.702L11.8978 33.1159H32.3649Z" fill="#787878"/>
</g>
<mask id="mask1" mask-type="alpha" maskUnits="userSpaceOnUse" x="8" y="25" width="39" height="25">
<path fill-rule="evenodd" clip-rule="evenodd" d="M8.66742 25.2729H46.2088V49.9289H8.66742V25.2729Z" fill="white"/>
</mask>
<g mask="url(#mask1)">
<path fill-rule="evenodd" clip-rule="evenodd" d="M33.9396 44.1896L44.3972 33.7321C47.6425 30.4868 45.8159 26.9469 44.3972 25.5282C44.0569 25.1879 43.5052 25.1879 43.1649 25.5282L35.3218 33.3712L36.554 34.6036L43.7122 27.4454C44.8917 29.0106 44.6522 31.2232 43.1649 32.4997L32.9627 42.702H15.0232C14.792 42.702 14.5703 42.7939 14.4067 42.9573L8.92265 48.4414C8.58234 48.7817 8.58234 49.3334 8.92265 49.6737C9.26295 50.014 9.81459 50.014 10.1549 49.6737L15.3837 44.445H33.3232C33.5545 44.445 33.7762 44.353 33.9396 44.1896Z" fill="#787878"/>
</g>
</svg>
