<svg width="50" height="50" viewBox="0 0 50 50" fill="none" xmlns="http://www.w3.org/2000/svg">
<mask id="mask0" mask-type="alpha" maskUnits="userSpaceOnUse" x="0" y="22" width="50" height="28">
<path fill-rule="evenodd" clip-rule="evenodd" d="M0 22.4861H49.904V49.9111H0V22.4861Z" fill="white"/>
</mask>
<g mask="url(#mask0)">
<path fill-rule="evenodd" clip-rule="evenodd" d="M1.66345 29.9501C1.66345 29.4908 2.03577 29.1184 2.49513 29.1184H6.6537C7.11306 29.1184 7.48538 29.4908 7.48538 29.9501V47.416C7.48538 47.8754 7.11306 48.2477 6.6537 48.2477H2.49513C2.03577 48.2477 1.66345 47.8754 1.66345 47.416V29.9501ZM14.8676 32.2631C16.3618 33.4552 18.2159 34.1058 20.1274 34.1086H24.4781C25.6375 34.1118 26.7126 34.7159 27.3183 35.7047C27.3284 35.7255 27.3375 35.7446 27.3466 35.7596C27.8689 36.5209 27.8453 37.5309 27.2884 38.2672H22.2241C20.582 38.2682 18.9767 38.7543 17.6097 39.6644L17.0026 40.072C16.6213 40.3283 16.5201 40.8451 16.7764 41.2263C17.0327 41.6076 17.5496 41.709 17.9308 41.4527L18.5322 41.0484C19.6259 40.3206 20.9102 39.9318 22.2241 39.9305H29.6172C30.0661 39.9311 30.512 39.8577 30.937 39.7136L46.3262 34.5827C46.8967 34.3945 47.5244 34.5758 47.9065 35.0393C47.919 35.0602 47.933 35.0793 47.9473 35.0992C48.1929 35.425 48.2887 35.8397 48.2108 36.2402C48.1329 36.6408 47.8887 36.9893 47.5388 37.1992L31.9543 46.689C31.1724 47.1651 30.2747 47.4166 29.3594 47.416H9.14883V30.7818H10.6459C12.1801 30.784 13.6683 31.3062 14.8676 32.2631ZM24.9513 24.2113C26.0733 25.5163 28.8354 29.7114 28.8354 33.0839C28.8315 33.5726 28.716 34.0539 28.4977 34.4913C27.5585 33.2107 26.0676 32.4516 24.4797 32.4452H21.0988C21.4058 29.2016 23.8992 25.4373 24.9513 24.2113ZM2.49513 49.9111H6.6537C7.35936 49.9089 8.0308 49.6065 8.5001 49.0795H29.3594C30.5798 49.08 31.7769 48.7445 32.8193 48.1096L48.4055 38.6216C49.1426 38.1764 49.6615 37.445 49.8381 36.6022C50.0146 35.7594 49.8327 34.8811 49.3362 34.1777C49.3191 34.1486 49.2999 34.1208 49.2788 34.0945C48.4737 33.0263 47.0778 32.5892 45.8072 33.0074L30.4057 38.1374C30.1518 38.2236 29.8853 38.2674 29.6172 38.2672H29.1639C29.3905 37.6373 29.4369 36.9566 29.2978 36.3019C30.0702 35.4081 30.4963 34.2669 30.4987 33.0857C30.4987 29.1242 27.4464 24.4667 26.0549 22.9504C25.7647 22.6535 25.367 22.4861 24.9517 22.4861C24.5365 22.4861 24.1387 22.6535 23.8484 22.9504C22.5352 24.381 19.7473 28.6061 19.4354 32.4062C18.1455 32.2726 16.921 31.7724 15.9064 30.9647C14.4121 29.7722 12.5577 29.1214 10.6459 29.1184H8.99659C8.64532 28.1247 7.7076 27.459 6.6537 27.4549H2.49513C1.11715 27.4549 0 28.572 0 29.9501V47.416C0 48.794 1.11715 49.9111 2.49513 49.9111Z" fill="#787878"/>
</g>
<path fill-rule="evenodd" clip-rule="evenodd" d="M15.5189 5.27831C21.1025 0.271391 29.6241 0.495173 34.9371 5.78816C40.2503 11.0812 40.5063 19.6018 35.5206 25.2043L33.7458 23.4378C35.9423 20.9264 36.9454 17.5878 36.4971 14.2815C35.7764 8.98952 31.5636 4.85726 26.2587 4.23864C25.8182 4.19049 25.3753 4.16662 24.9321 4.1671C22.068 4.15901 19.3038 5.21915 17.1798 7.14049C12.4466 11.3802 11.9899 18.6332 16.1543 23.4329L14.3695 25.1919C9.20729 19.3688 9.72103 10.4689 15.5189 5.27831ZM14.337 26.8645C14.7937 26.8782 15.2358 26.7027 15.5589 26.3796L17.3303 24.608C17.9447 23.9971 17.9842 23.0158 17.421 22.3575C13.9223 18.3355 14.2019 12.2741 18.0559 8.59127C21.9099 4.90853 27.9778 4.90443 31.8367 8.58211C35.6957 12.2598 35.9832 18.3209 32.4898 22.3474C31.924 23.0171 31.9678 24.0092 32.5905 24.6264L34.3438 26.3805C34.659 26.6939 35.0853 26.8702 35.5298 26.8711H35.5755C36.0252 26.8612 36.4505 26.6644 36.749 26.328C40.6806 21.9206 41.8262 15.6885 39.7192 10.171C37.6121 4.65346 32.604 0.771489 26.7353 0.106674C22.2516 -0.418862 17.7591 1.01457 14.4086 4.03981C7.93215 9.8404 7.35797 19.7831 13.1236 26.2906C13.4324 26.6399 13.871 26.8473 14.337 26.8645Z" fill="#787878"/>
<path fill-rule="evenodd" clip-rule="evenodd" d="M20.7927 15.811C20.3334 15.811 19.961 15.4387 19.961 14.9794V13.3159C19.961 12.8566 20.3334 12.4842 20.7927 12.4842H22.4561C22.9154 12.4842 23.2879 12.1118 23.2879 11.6525V9.98911C23.2879 9.52976 23.6602 9.15734 24.1195 9.15734H25.783C26.2423 9.15734 26.6147 9.52976 26.6147 9.98911V11.6525C26.6147 12.1118 26.987 12.4842 27.4463 12.4842H29.1098C29.5691 12.4842 29.9416 12.8566 29.9416 13.3159V14.9794C29.9416 15.4387 29.5691 15.811 29.1098 15.811H27.4463C26.987 15.811 26.6147 16.1834 26.6147 16.6427V18.3062C26.6147 18.7655 26.2423 19.1378 25.783 19.1378H24.1195C23.6602 19.1378 23.2879 18.7655 23.2879 18.3062V16.6427C23.2879 16.1834 22.9154 15.811 22.4561 15.811H20.7927ZM24.1195 20.8013H25.783C27.161 20.8013 28.2781 19.6842 28.2781 18.3062V17.4745H29.1098C30.4878 17.4745 31.6049 16.3573 31.6049 14.9794V13.3159C31.6049 11.9379 30.4878 10.8208 29.1098 10.8208H28.2781V9.98911C28.2781 8.61104 27.161 7.49399 25.783 7.49399H24.1195C22.7416 7.49399 21.6244 8.61104 21.6244 9.98911V10.8208H20.7927C19.4147 10.8208 18.2976 11.9379 18.2976 13.3159V14.9794C18.2976 16.3573 19.4147 17.4745 20.7927 17.4745H21.6244V18.3062C21.6244 18.968 21.8873 19.6026 22.3552 20.0705C22.8231 20.5384 23.4578 20.8013 24.1195 20.8013Z" fill="#FFCB05"/>
</svg>
