<svg width="50" height="50" viewBox="0 0 50 50" fill="none" xmlns="http://www.w3.org/2000/svg">
<path fill-rule="evenodd" clip-rule="evenodd" d="M28.5488 11.7149H28.5312C27.9919 11.7054 27.5623 11.2602 27.5723 10.7212C27.6027 8.99774 28.3515 7.31884 29.6814 5.99481C31.0116 4.66991 32.6946 3.92684 34.4204 3.90243C34.4536 3.90204 34.4887 3.90165 34.523 3.90165C35.0624 3.90165 35.4996 4.33925 35.4996 4.87821C35.4996 5.41767 35.0624 5.85477 34.523 5.85477C34.4982 5.85477 34.473 5.85517 34.4486 5.85556C33.2317 5.87274 32.0286 6.41366 31.0597 7.37841C30.0915 8.34276 29.5464 9.54208 29.525 10.7559C29.5154 11.2892 29.0802 11.7149 28.5488 11.7149Z" fill="#FFCB05"/>
<path fill-rule="evenodd" clip-rule="evenodd" d="M34.523 18.4628C34.2056 18.4628 33.9081 18.3083 33.725 18.0489L31.6468 15.1028C31.3358 14.6622 31.4411 14.0526 31.8817 13.7417C32.3227 13.4308 32.9319 13.5361 33.2429 13.977L34.523 15.7921L35.8028 13.977C36.1138 13.5361 36.7233 13.4308 37.1639 13.7417C37.6046 14.0526 37.7098 14.6618 37.3993 15.1028L35.3211 18.0489C35.138 18.3083 34.8404 18.4628 34.523 18.4628Z" fill="#FFCB05"/>
<path fill-rule="evenodd" clip-rule="evenodd" d="M48.9674 50C48.9037 50 48.8403 49.9932 48.777 49.9806C48.7144 49.9688 48.6526 49.9492 48.5943 49.9248C48.5355 49.9004 48.4791 49.8703 48.4253 49.8349C48.3726 49.7997 48.3219 49.7589 48.2769 49.7139C48.2319 49.6688 48.1911 49.6193 48.1555 49.5655C48.1205 49.5129 48.0904 49.4561 48.066 49.3965C48.0416 49.3378 48.0228 49.2764 48.0102 49.2138C47.9976 49.1513 47.9916 49.0867 47.9916 49.0234C47.9916 48.9602 47.9976 48.8956 48.0102 48.8331C48.0228 48.7705 48.0416 48.7091 48.066 48.6504C48.0904 48.5908 48.1205 48.534 48.1555 48.4813C48.1911 48.4275 48.2319 48.378 48.2769 48.333C48.3219 48.288 48.3726 48.2472 48.4253 48.212C48.4791 48.1766 48.5355 48.1465 48.5943 48.1221C48.6526 48.0977 48.7144 48.0781 48.777 48.0663C48.9029 48.0411 49.0326 48.0411 49.1589 48.0663C49.2211 48.0781 49.2828 48.0977 49.3412 48.1221C49.4 48.1465 49.4564 48.1766 49.5102 48.212C49.5629 48.2472 49.6139 48.288 49.6586 48.333C49.7036 48.378 49.7448 48.4275 49.7799 48.4813C49.815 48.534 49.8451 48.5908 49.8695 48.6504C49.8939 48.7091 49.9127 48.7705 49.9253 48.8331C49.9379 48.8956 49.9439 48.9602 49.9439 49.0234C49.9439 49.0867 49.9379 49.1513 49.9253 49.2138C49.9127 49.2764 49.8939 49.3378 49.8695 49.3965C49.8451 49.4561 49.815 49.5129 49.7799 49.5655C49.7448 49.6193 49.7036 49.6688 49.6586 49.7139C49.6139 49.7589 49.5629 49.7997 49.5102 49.8349C49.4564 49.8703 49.4 49.9004 49.3412 49.9248C49.2828 49.9492 49.2211 49.9688 49.1589 49.9806C49.0952 49.9932 49.0318 50 48.9674 50Z" fill="#787878"/>
<mask id="mask0" mask-type="alpha" maskUnits="userSpaceOnUse" x="23" y="0" width="23" height="27">
<path fill-rule="evenodd" clip-rule="evenodd" d="M23.6693 0H45.3769V26.9875H23.6693V0Z" fill="white"/>
</mask>
<g mask="url(#mask0)">
<path fill-rule="evenodd" clip-rule="evenodd" d="M25.6237 10.6865C25.6634 8.45417 26.6159 6.29733 28.3062 4.61384C29.9969 2.93005 32.1583 1.98552 34.3937 1.95388C34.4368 1.95349 34.48 1.9531 34.523 1.9531C39.431 1.9531 43.4238 5.9444 43.4238 10.8502C43.4238 13.8119 41.9541 16.5715 39.4929 18.232C37.9238 19.2905 37.0537 20.6428 36.2134 22.0955H32.8361C32.0004 20.6467 31.1325 19.2936 29.5654 18.2404C27.0435 16.5451 25.5699 13.7211 25.6237 10.6865ZM33.2562 25.0343H35.7899V24.0486H33.2562V25.0343ZM28.476 19.8612C29.7771 20.7363 30.4722 21.8937 31.303 23.3478V26.0109C31.303 26.5503 31.7402 26.9875 32.2796 26.9875H36.7665C37.3059 26.9875 37.7431 26.5503 37.7431 26.0109V23.3532C38.578 21.8952 39.2758 20.7348 40.5853 19.8513C43.5856 17.8272 45.3769 14.4623 45.3769 10.8506C45.3767 4.86755 40.5079 -2.95639e-05 34.523 -2.95639e-05C34.4704 -2.95639e-05 34.4174 0.000361061 34.3651 0.00114231C31.6212 0.0397165 28.9799 1.1864 26.9279 3.23024C24.8765 5.2738 23.7194 7.90944 23.671 10.6518C23.6054 14.352 25.4014 17.7948 28.476 19.8612Z" fill="#FFCB05"/>
</g>
<path fill-rule="evenodd" clip-rule="evenodd" d="M32.877 48.0469V40.2237H33.7059C34.2453 40.2237 34.6824 39.7865 34.6824 39.2472C34.6824 38.7077 34.2453 38.2706 33.7059 38.2706H31.5438L34.5229 33.4469L37.5019 38.2706H37.1452C36.6059 38.2706 36.1687 38.7077 36.1687 39.2472V48.0469H32.877ZM1.95312 48.0469V40.1394C1.95312 39.6088 2.38496 39.177 2.91553 39.177H7.52979C7.96016 39.476 8.89775 40.1383 9.85947 40.8859C12.2913 42.7769 12.5469 43.4036 12.5561 43.4284C12.6919 43.8225 13.0623 44.0872 13.4792 44.0872C13.8958 44.0872 14.2666 43.8236 14.402 43.4296C14.4119 43.404 14.6683 42.7765 17.1077 40.8859C18.0729 40.1379 19.0144 39.4756 19.445 39.1773H24.0433C24.5739 39.1773 25.0057 39.6088 25.0057 40.1397V48.0469H1.95312ZM7.06025 29.266C6.69365 28.5893 6.25303 26.4824 6.10273 23.7935C7.38486 23.0839 8.48994 22.0726 9.3166 20.8676C10.7937 23.2231 13.6207 24.4941 17.4973 24.4941C18.6241 24.4941 19.7346 24.292 20.7775 23.9021C20.5643 26.5285 20.1851 28.7674 19.9153 29.266C19.5519 29.937 18.5161 31.6238 16.7545 32.7942C16.4821 32.975 16.3185 33.2806 16.3185 33.6075C16.3185 36.0622 16.8396 37.4363 17.4366 38.2046C16.9868 38.5284 16.4475 38.9263 15.8943 39.3555C14.7277 40.2604 13.974 40.9362 13.4804 41.4547C12.9883 40.9362 12.2368 40.261 11.0744 39.3563C10.5236 38.9274 9.98613 38.5304 9.53828 38.2064C10.1356 37.4386 10.6579 36.0646 10.6579 33.6079C10.6579 33.281 10.4938 32.9754 10.2215 32.7945C8.45908 31.6238 7.42373 29.937 7.06025 29.266ZM13.4498 11.7702C16.1831 11.7604 18.5143 12.5717 20.0012 14.0537C21.1853 15.2336 21.7857 16.7751 21.7857 18.6352V21.3196C21.6347 21.3311 21.4855 21.3779 21.3513 21.46C20.1942 22.1672 18.8613 22.541 17.4973 22.541C13.4956 22.541 11.0904 21.1392 10.3478 18.3738C10.2383 17.9661 9.87891 17.6746 9.45703 17.6521C9.03623 17.6296 8.64678 17.8803 8.49414 18.2739C7.87119 19.8792 6.67607 21.2402 5.17275 22.0761V18.7358C5.17275 13.6158 9.63174 11.7836 13.4498 11.7702ZM44.773 48.0469H38.1218V40.2237H39.2528C39.6068 40.2237 39.933 40.0322 40.1058 39.7229C40.2782 39.4135 40.2698 39.0351 40.0837 38.7341L35.3538 31.0753C35.1757 30.7873 34.8613 30.6118 34.5229 30.6118C34.1847 30.6118 33.8699 30.7873 33.6922 31.0753L28.9619 38.7341C28.7762 39.0354 28.7678 39.4135 28.9401 39.7229C29.1126 40.0322 29.4388 40.2237 29.7928 40.2237H30.9238V48.0469H26.9588V40.1394C26.9588 38.5318 25.6508 37.2238 24.0433 37.2238H19.3374C19.3043 37.2238 19.2719 37.2257 19.2395 37.2288C19.2359 37.2284 19.2321 37.228 19.2287 37.2276C18.9834 37.1434 18.3594 36.4136 18.2796 34.108C20.1358 32.7251 21.2307 30.9384 21.6327 30.1964V30.196C22.1408 29.2576 22.4796 26.7086 22.6688 24.6482C23.5436 24.0055 23.7393 23.233 23.7393 22.6715V18.6352C23.7393 16.2708 22.9232 14.2082 21.3802 12.6701C19.5327 10.8292 16.7347 9.81709 13.4968 9.81709H13.443C7.32803 9.83809 3.21963 13.4224 3.21963 18.7358V22.6715C3.21963 23.2117 3.39854 23.954 4.19658 24.5792C4.38232 27.084 4.80918 29.2106 5.34287 30.196C5.74453 30.9384 6.83936 32.7251 8.696 34.108C8.61621 36.4136 7.99219 37.1434 7.74687 37.2276C7.74346 37.228 7.74004 37.2284 7.73623 37.2288C7.7041 37.2257 7.67139 37.2238 7.63818 37.2238H2.91553C1.30801 37.2238 0 38.5318 0 40.1394V49.0234C0 49.5628 0.437109 50 0.976562 50H44.773C45.3125 50 45.7496 49.5628 45.7496 49.0234C45.7496 48.4841 45.3125 48.0469 44.773 48.0469Z" fill="#787878"/>
</svg>
