<svg width="36" height="55" viewBox="0 0 36 55" fill="none" xmlns="http://www.w3.org/2000/svg">
<path fill-rule="evenodd" clip-rule="evenodd" d="M4.0513 15.2761C4.40483 15.2761 4.75045 15.0986 4.95063 14.7764C5.25754 14.2812 5.10472 13.631 4.60996 13.3241C4.11479 13.0171 3.46468 13.1695 3.15766 13.6644C2.84916 14.1621 3.00241 14.8114 3.49758 15.1183C3.67024 15.225 3.86177 15.2761 4.0513 15.2761Z" fill="#FFCB05"/>
<path fill-rule="evenodd" clip-rule="evenodd" d="M27.5526 30.2938C27.5725 30.2716 27.5922 30.2469 27.6099 30.223C27.9531 29.7574 27.8576 29.1011 27.3937 28.753C26.9326 28.4073 26.2801 28.4963 25.9282 28.95C25.585 29.3879 25.641 30.0224 26.0646 30.3931C26.2648 30.5683 26.512 30.6543 26.7588 30.6539C27.0521 30.6539 27.3442 30.532 27.5526 30.2938Z" fill="#FFCB05"/>
<mask id="mask0" mask-type="alpha" maskUnits="userSpaceOnUse" x="0" y="10" width="35" height="44">
<path fill-rule="evenodd" clip-rule="evenodd" d="M0.580688 10.965H34.6516V54H0.580688V10.965Z" fill="white"/>
</mask>
<g mask="url(#mask0)">
<path fill-rule="evenodd" clip-rule="evenodd" d="M29.9858 10.965L29.9747 14.3401C31.5885 16.7649 32.5422 19.7006 32.5422 22.6753C32.5422 30.0664 27.0319 36.4193 19.7245 37.4526C19.2041 37.5263 18.8177 37.9713 18.8177 38.4969V43.5445C18.8177 44.1272 19.2898 44.5992 19.8723 44.5992H23.7059V47.002H19.8723C19.2898 47.002 18.8177 47.4741 18.8177 48.0567V51.8906H16.415V48.057C16.415 47.4745 15.9425 47.0023 15.3603 47.0023H11.5264V44.5997H15.3603C15.9425 44.5997 16.415 44.1276 16.415 43.545V38.4973C16.415 37.9716 16.0281 37.5263 15.5078 37.453C8.20032 36.4197 2.69 30.0668 2.69 22.6758C2.69 20.8223 3.02582 19.014 3.68742 17.3005C3.8972 16.7572 3.62688 16.1466 3.08351 15.9369C2.54003 15.7267 1.92947 15.9975 1.7198 16.5404C0.963795 18.4974 0.580627 20.5614 0.580627 22.6758C0.580627 26.8051 2.07744 30.7882 4.79569 33.8922C7.28412 36.7336 10.6336 38.6629 14.3052 39.388V42.4903H10.4717C9.88909 42.4903 9.41701 42.9625 9.41701 43.545V48.057C9.41701 48.6396 9.88909 49.1117 10.4717 49.1117H14.3052V52.9453C14.3052 53.5279 14.7774 54 15.3599 54H19.8719C20.4545 54 20.9266 53.5279 20.9266 52.9453V49.1117H24.7606C25.3428 49.1117 25.8153 48.6396 25.8153 48.057V43.545C25.8153 42.9625 25.3428 42.4903 24.7606 42.4903H20.9266V39.388C24.5987 38.6629 27.9482 36.7336 30.4365 33.8922C33.1544 30.7882 34.6516 26.8051 34.6516 22.6758C34.6516 18.3887 32.8644 14.112 29.9858 10.965Z" fill="#787878"/>
</g>
<path fill-rule="evenodd" clip-rule="evenodd" d="M7.42337 20.5351C8.00218 22.5559 9.1269 24.3823 10.6558 25.8114V30.4154C8.53701 28.5079 7.20251 25.7447 7.20251 22.6758C7.20251 21.9511 7.27708 21.2342 7.42337 20.5351ZM9.09072 6.16002C9.09114 5.37607 9.72881 4.7383 10.5129 4.7383C11.2969 4.7383 11.9346 5.37607 11.9346 6.16002V11.6122C11.9346 12.3963 11.2969 13.034 10.5129 13.034C9.72881 13.034 9.09114 12.3963 9.09072 11.6126V6.16002ZM14.9961 17.4761C14.8309 17.9358 15.0031 18.4636 15.4357 18.7302C15.608 18.8365 15.7991 18.8871 15.9882 18.8871C16.3417 18.8871 16.6873 18.7092 16.8868 18.3857C18.2013 16.2533 20.4813 14.9798 22.9862 14.979H24.0116C24.5942 14.979 25.0663 14.5069 25.0663 13.9243C25.0663 13.3418 24.5942 12.8696 24.0116 12.8696H22.9903H22.9895H22.9862H20.4191C19.6359 12.8696 18.9986 12.2327 18.9973 11.4495V11.4475V11.4466C18.9977 10.663 19.6351 10.0257 20.4191 10.0257H26.4881C26.7695 10.0257 27.0311 10.109 27.2523 10.2502C27.2643 10.2589 27.277 10.2663 27.2898 10.2741C27.6639 10.5309 27.9098 10.961 27.9098 11.4475V17.3945H27.9102C27.9102 20.8251 26.0345 23.9855 23.015 25.6421C22.6772 25.8275 22.4675 26.1818 22.4675 26.5666V31.9002C20.9958 32.6999 19.4031 33.0896 17.6164 33.0896C15.8658 33.0896 14.215 32.6553 12.7651 31.889V27.3753C13.335 27.7049 13.9377 27.9879 14.5693 28.2187C15.1164 28.4189 15.7221 28.1375 15.9222 27.5904C16.1221 27.0433 15.8407 26.4377 15.294 26.2378C14.2282 25.8481 13.2629 25.2767 12.4282 24.5676C12.4076 24.5487 12.3862 24.5301 12.3644 24.5128C10.3311 22.7536 9.09114 20.1684 9.09114 17.3941V14.8435C9.5261 15.0358 10.0074 15.1434 10.5129 15.1434C11.0567 15.1434 11.5721 15.0194 12.0322 14.799C12.3685 16.2022 13.5438 17.2824 14.9961 17.4761ZM14.044 4.47125C14.044 3.68773 14.6821 3.04953 15.4662 3.04953C16.2494 3.04953 16.8868 3.68646 16.8875 4.46967V11.4475V11.4479C16.8875 11.4492 16.8879 11.4503 16.8879 11.4516V13.9775C16.8879 14.7615 16.2498 15.3993 15.4658 15.3993C14.6817 15.3993 14.044 14.7615 14.044 13.9775V4.47125ZM18.9973 4.47336V4.47167V4.46756V3.53153C18.9973 2.74715 19.6351 2.10939 20.4195 2.10939C21.2035 2.10939 21.8413 2.74715 21.8413 3.53153V7.91628H20.4191C19.9136 7.91628 19.4328 8.02428 18.9973 8.21624V4.47336ZM23.9506 5.31585C23.9506 4.5319 24.5884 3.89371 25.3728 3.89371C26.1568 3.89371 26.7946 4.53148 26.7946 5.31585V7.93031C26.6937 7.92166 26.5915 7.91628 26.4885 7.91628H23.9506V5.31585ZM17.6164 35.1989C19.977 35.1989 22.1511 34.595 24.0771 33.4035C24.3878 33.2115 24.5769 32.8721 24.5769 32.5066V27.171C25.9262 26.3322 27.0669 25.2384 27.9498 23.9723C27.8344 24.896 27.5955 25.7982 27.2346 26.6676C27.0113 27.2056 27.2664 27.8228 27.8044 28.0461C28.3425 28.2693 28.9596 28.0143 29.1828 27.4763C29.8178 25.9466 30.1395 24.3315 30.1395 22.6758C30.1395 21.673 30.02 20.6752 29.7844 19.7066C29.9388 18.9539 30.0192 18.1798 30.0192 17.3941V15.3993L29.9859 10.9651C29.8733 10.146 29.4791 9.41552 28.904 8.87542V5.31585C28.904 3.36879 27.3198 1.78433 25.3728 1.78433C24.7652 1.78433 24.1929 1.93884 23.6932 2.2099C23.1687 0.915796 21.8994 1.04904e-05 20.4195 1.04904e-05C19.1955 1.04904e-05 18.1153 0.626178 17.4816 1.57466C16.9093 1.17535 16.2147 0.940581 15.4662 0.940581C14.016 0.940581 12.7673 1.81977 12.2243 3.07263C11.7171 2.7904 11.1338 2.62892 10.5129 2.62892C8.5658 2.62892 6.98177 4.21296 6.98177 6.16002V11.6115V11.6122V11.6131V16.0613C5.74494 18.0451 5.09314 20.325 5.09314 22.6758C5.09314 29.5811 10.711 35.1989 17.6164 35.1989Z" fill="#FFCB05"/>
</svg>
