<svg width="24" height="24" viewBox="0 0 24 24" fill="none" xmlns="http://www.w3.org/2000/svg">
<path fill-rule="evenodd" clip-rule="evenodd" d="M1 8V22H7V8L1 8ZM5.5 20.6H2.5V9.4H5.5V20.6Z" fill="#787878"/>
<path fill-rule="evenodd" clip-rule="evenodd" d="M20.4818 9.53841H16.4535C16.1013 9.53841 15.9248 9.31301 15.8656 9.21595C15.8063 9.11954 15.6864 8.86221 15.8569 8.56721L17.2771 6.11463C17.5887 5.57763 17.6207 4.94613 17.3657 4.38231C17.1107 3.81785 16.6073 3.40856 15.9847 3.25978L14.9833 3.0197C14.7396 2.96095 14.4813 3.03566 14.3115 3.21636L8.87425 9.00907C8.31028 9.6112 8 10.3876 8 11.196V16.7308C8 18.5333 9.52943 20 11.4091 20L18.192 19.9994C19.7234 19.9994 21.0757 19.0103 21.4799 17.5947L22.9354 12.4967C22.978 12.3185 23 12.1359 23 11.9533C23 10.622 21.8701 9.53839 20.4818 9.53839L20.4818 9.53841ZM21.6131 12.1762L20.1642 17.2492C19.9218 18.0985 19.1108 18.6923 18.192 18.6923H11.4091C10.2812 18.6923 9.36364 17.8124 9.36364 16.7308V11.196C9.36364 10.7107 9.55008 10.2446 9.88832 9.88385L15.0506 4.3836L15.6538 4.52791C15.8616 4.57771 16.0293 4.71436 16.1146 4.90272C16.1998 5.09045 16.1891 5.30052 16.0853 5.47995L14.665 7.93253C14.3095 8.54615 14.3188 9.27407 14.6903 9.87939C15.0619 10.4847 15.7211 10.8461 16.4535 10.8461H20.4818C21.1184 10.8461 21.6364 11.3429 21.6364 11.9533C21.6364 12.0363 21.6264 12.12 21.6131 12.1762V12.1762Z" fill="#787878"/>
</svg>
