<?xml version="1.0" encoding="UTF-8"?>
<svg width="26px" height="26px" viewBox="0 0 26 26" version="1.1" xmlns="http://www.w3.org/2000/svg" xmlns:xlink="http://www.w3.org/1999/xlink">
    <title>Group 42</title>
    <g id="Page-1" stroke="none" stroke-width="1" fill="none" fill-rule="evenodd">
        <g id="Homepage-01" transform="translate(-1230.000000, -64.000000)" stroke-width="2">
            <g id="Header-New" transform="translate(-174.000000, 0.000000)">
                <g id="Group-42" transform="translate(1405.000000, 65.000000)">
                    <path d="M20,20 L19.2727273,15.4285714 L14.1818182,13.1428571 L14.1818182,11.6190476 L15.6363636,10.0952381 L15.6363636,7.80952381 C15.6363636,5.95724781 14.1818182,4 11.9775665,4 C9.77331483,4 8.36363636,5.84747027 8.36363636,7.69974627 L8.36363636,10.0952381 L9.81818182,11.6190476 L9.81818182,13.1428571 L4.72727273,15.4285714 L4,20" id="Shape" stroke="#787878"></path>
                    <path d="M12,24 C5.6,24 0,18.4 0,12 C0,5.6 5.6,0 12,0 C18.4,0 24,5.6 24,12 C24,18.4 18.4,24 12,24 Z" id="Path-Copy" stroke="#FFCB05"></path>
                </g>
            </g>
        </g>
    </g>
</svg>