<?xml version="1.0" encoding="UTF-8"?>
<svg width="32px" height="32px" viewBox="0 0 32 32" version="1.1" xmlns="http://www.w3.org/2000/svg" xmlns:xlink="http://www.w3.org/1999/xlink">
    <title>icons / ATM</title>
    <g id="Investors" stroke="none" stroke-width="1" fill="none" fill-rule="evenodd">
        <g id="icons-/-ATM">
            <path d="M20.6666667,0.333333333 C26.7417989,0.333333333 31.6666667,5.25820109 31.6666667,11.3333333 C31.6666667,16.6784239 27.8396812,21.1769084 22.7083367,22.1430095 L22.4271667,22.1921866 L22.251,22.218 L22.2496727,22.2496727 L22.219,22.251 L22.1916276,22.4366473 C21.3887998,27.4025272 17.2713156,31.2291856 12.2044932,31.6318912 L11.916694,31.6510138 L11.6269623,31.6627307 L11.3333333,31.6666667 C5.25820109,31.6666667 0.333333333,26.7417989 0.333333333,20.6666667 C0.333333333,15.3215761 4.1603188,10.8230916 9.2870833,9.85731787 L9.56799885,9.80815896 L9.736,9.783 L9.73932075,9.73932075 L9.782,9.737 L9.80837053,9.5633527 C10.6111646,4.59747357 14.7280215,0.770828058 19.7831322,0.368363741 L20.0702566,0.349255101 L20.3730377,0.33726931 L20.6666667,0.333333333 Z M9.67722433,11.8196509 L9.5489523,11.8432036 C5.41352999,12.6734168 2.33333333,16.3297286 2.33333333,20.6666667 C2.33333333,25.5484694 6.22014701,29.5224581 11.0549692,29.6629188 L11.3196093,29.6667608 L11.5857657,29.6632023 C15.8667646,29.5455484 19.4247708,26.428802 20.1829592,22.3216303 C14.5896057,22.0805376 10.0799007,17.6621635 9.69351696,12.1079359 L9.67722433,11.8196509 Z M11.673,11.673 L11.6819447,11.8621517 C11.9455455,16.4115949 15.5884051,20.0544545 20.1378483,20.3180553 L20.326,20.326 L20.3180553,20.1378483 C20.0544545,15.5884051 16.4115949,11.9455455 11.8621517,11.6819447 L11.673,11.673 Z M20.6803907,2.33323915 L20.4142343,2.33679769 C16.1349711,2.45440389 12.5781145,5.56867115 11.8176359,9.67797058 C17.5073653,9.924153 22.0752987,14.4917684 22.3227757,20.1803491 C26.5220429,19.4025913 29.6666667,15.7153937 29.6666667,11.3333333 C29.6666667,6.36277059 25.6372294,2.33323915 20.6803907,2.33323915 Z" id="Oval-2" fill="#787878" fill-rule="nonzero"></path>
            <path d="M11.3333333,10.6666667 C16.8561808,10.6666667 21.3333333,15.1438192 21.3333333,20.6666667 C21.3333333,20.8837277 21.3264176,21.0991735 21.3127944,21.3127958 C21.0991735,21.3264176 20.8837277,21.3333333 20.6666667,21.3333333 C15.1438192,21.3333333 10.6666667,16.8561808 10.6666667,11.3333333 C10.6666667,11.1165041 10.6735677,10.9012867 10.687162,10.6878888 C10.9012867,10.6735677 11.1165041,10.6666667 11.3333333,10.6666667 Z" id="Oval-2-Copy" stroke="#FFCB05" stroke-width="2"></path>
        </g>
    </g>
</svg>