<?xml version="1.0" encoding="UTF-8"?>
<svg width="38px" height="38px" viewBox="0 0 38 38" version="1.1" xmlns="http://www.w3.org/2000/svg" xmlns:xlink="http://www.w3.org/1999/xlink">
    <title>Group 7</title>
    <g id="Symbols" stroke="none" stroke-width="1" fill="none" fill-rule="evenodd">
        <g id="Headerv2" transform="translate(-1080.000000, -65.000000)">
            <g id="Group-6" transform="translate(0.000000, -3.000000)">
                <g id="Group-5" transform="translate(997.000000, 69.000000)">
                    <g id="Group-7" transform="translate(84.000000, 0.000000)">
                        <circle id="Oval" fill="#FFCB05" cx="18" cy="18" r="15"></circle>
                        <path d="M18,0 C27.9411255,-1.82615513e-15 36,8.0588745 36,18 C36,27.9411255 27.9411255,36 18,36 C8.0588745,36 1.21743675e-15,27.9411255 0,18 C-1.21743675e-15,8.0588745 8.0588745,1.82615513e-15 18,0 Z" id="Rectangle-Copy" stroke="#FFCB05" stroke-width="2" stroke-dasharray="78.923076282848,402.4615256569602"></path>
                        <path d="M18.2758507,11.3588321 L19.7598365,15.0420031 L23.559032,15.3842585 C23.8225323,15.4081222 23.929729,15.7528896 23.7297083,15.9343792 L20.8479731,18.5524763 L21.7115355,22.4472804 C21.7714219,22.7179448 21.4917522,22.930834 21.2653815,22.7870239 L18.000373,20.7221874 L14.7353646,22.7870239 C14.508395,22.930206 14.2293242,22.7173168 14.2892106,22.4472804 L15.152773,18.5524763 L12.2704389,15.9337512 C12.0704182,15.7522616 12.1770161,15.4074942 12.4411152,15.3836305 L16.2403107,15.0413751 L17.7242966,11.3588321 C17.8273012,11.1026115 18.172846,11.1026115 18.2758507,11.3588321 Z" id="Path" stroke="#787878" stroke-width="1.5"></path>
                    </g>
                </g>
            </g>
        </g>
    </g>
</svg>