<?xml version="1.0" encoding="UTF-8"?>
<svg width="32px" height="32px" viewBox="0 0 32 32" version="1.1" xmlns="http://www.w3.org/2000/svg" xmlns:xlink="http://www.w3.org/1999/xlink">
    <title>icons / NRI</title>
    <g id="form-center" stroke="none" stroke-width="1" fill="none" fill-rule="evenodd">
        <g id="form_center_Desktop_01" transform="translate(-877.000000, -357.000000)" fill-rule="nonzero">
            <g id="Group" transform="translate(877.000000, 357.000000)">
                <path d="M16.0730594,28.0547945 C12.9462648,28.0547945 9.98699543,26.8569132 7.74034703,24.6817169 C7.68350685,24.6266301 7.65136073,24.5508676 7.65136073,24.4717443 C7.65136073,24.392621 7.68343379,24.3168584 7.74034703,24.2617717 C9.97866667,22.094758 11.2113242,19.1866301 11.2113242,16.0730594 C11.2113242,12.9594886 9.97859361,10.0513607 7.74034703,7.88427397 C7.68350685,7.82918721 7.65136073,7.75342466 7.65136073,7.67430137 C7.65136073,7.59517808 7.68343379,7.51941553 7.74034703,7.46432877 C9.98699543,5.28920548 12.9462648,4.0913242 16.0730594,4.0913242 C19.1719452,4.0913242 22.1119269,5.27035616 24.3514155,7.41121461 C24.4091324,7.46637443 24.4417169,7.5426484 24.4417169,7.62250228 C24.4417169,7.70235616 24.4091324,7.77863014 24.3514155,7.83371689 C22.0797078,10.0054795 20.8285662,12.9315799 20.8285662,16.0730594 C20.8285662,19.2145388 22.0797078,22.1406393 24.3514155,24.3124018 C24.4091324,24.3675616 24.4417169,24.4439087 24.4417169,24.5236895 C24.4417169,24.6034703 24.4091324,24.6798174 24.3514155,24.7349772 C22.1118539,26.8757626 19.1719452,28.0547945 16.0730594,28.0547945 Z M8.36376256,24.466484 C10.4725479,26.4057717 13.1984658,27.4703196 16.0730594,27.4703196 C18.9198174,27.4703196 21.6257169,26.4242557 23.7265388,24.5182831 C21.4784292,22.2590685 20.2440913,19.2721826 20.2440913,16.0730594 C20.2440913,12.873863 21.4784292,9.88705023 23.7265388,7.62790868 C21.62579,5.72193607 18.9198904,4.67579909 16.0730594,4.67579909 C13.1984658,4.67579909 10.4725479,5.74034703 8.36376256,7.67956164 C10.5793607,9.93322374 11.7957991,12.9018447 11.7957991,16.0730594 C11.7957991,19.244274 10.5793607,22.212895 8.36376256,24.466484 Z" id="Shape" stroke="#737373" stroke-width="0.7" fill="#737373"></path>
                <path d="M24.1494795,24.8159269 C24.0767854,24.8159269 24.0040183,24.788968 23.9475434,24.7349772 C21.5593059,22.4517991 20.2440913,19.3757078 20.2440913,16.0730594 C20.2440913,12.770411 21.5593059,9.69431963 23.9475434,7.41121461 C24.0604201,7.30323288 24.2384658,7.30323288 24.3513425,7.41121461 C26.7395799,9.69431963 28.0547945,12.770484 28.0547945,16.0730594 C28.0547945,19.3755616 26.7395799,22.4517991 24.3514155,24.7349772 C24.2949406,24.788968 24.2221735,24.8159269 24.1494795,24.8159269 Z M24.1494795,8.03148858 C22.0055525,10.1814795 20.8285662,13.0258995 20.8285662,16.0730594 C20.8285662,19.1201461 22.0055525,21.9647123 24.1494795,24.1147032 C26.2933333,21.9646393 27.4703196,19.1201461 27.4703196,16.0730594 C27.4703196,13.0258995 26.2933333,10.1814795 24.1494795,8.03148858 Z" id="Shape" stroke="#737373" stroke-width="0.7" fill="#737373"></path>
                <path d="M7.94359817,24.7639817 C7.87031963,24.7639817 7.79696804,24.7365845 7.74034703,24.6817169 C5.38725114,22.4035799 4.0913242,19.346411 4.0913242,16.0730594 C4.0913242,12.7997808 5.38725114,9.74246575 7.74034703,7.46432877 C7.8536621,7.35466667 8.03360731,7.35466667 8.14684932,7.46432877 C10.4999452,9.74246575 11.7957991,12.7997808 11.7957991,16.0730594 C11.7957991,19.3463379 10.4999452,22.4035799 8.14684932,24.6817169 C8.09022831,24.7365845 8.01687671,24.7639817 7.94359817,24.7639817 Z M7.94359817,8.08591781 C5.83400913,10.2300639 4.67579909,13.0550502 4.67579909,16.0730594 C4.67579909,19.0910685 5.83400913,21.9161279 7.94359817,24.0601279 C10.0531142,21.9159817 11.2113242,19.0909954 11.2113242,16.0730594 C11.2113242,13.0551233 10.0531142,10.2300639 7.94359817,8.08591781 Z" id="Shape" stroke="#737373" stroke-width="0.7" fill="#737373"></path>
                <path d="M16.0730594,21.997516 C12.9076164,21.997516 9.92708676,21.4013516 7.68043836,20.3189041 C5.36599087,19.2037991 4.0913242,17.6958539 4.0913242,16.0730594 C4.0913242,14.4502648 5.36599087,12.9423927 7.68043836,11.8272146 C9.92708676,10.7447671 12.9076164,10.1486027 16.0730594,10.1486027 C19.2384292,10.1486027 22.2189589,10.7447671 24.4656073,11.8272146 C26.7801279,12.9423927 28.0547945,14.4502648 28.0547945,16.0730594 C28.0547945,17.6958539 26.7801279,19.2037991 24.4656073,20.3189041 C22.2189589,21.4013516 19.2384292,21.997516 16.0730594,21.997516 Z M16.0730594,10.7330776 C12.9937534,10.7330776 10.1033059,11.3086393 7.93417352,12.3537534 C5.8329863,13.366137 4.67579909,14.6870502 4.67579909,16.0730594 C4.67579909,17.4591416 5.8329863,18.7799817 7.93417352,19.7923653 C10.1032329,20.8374795 12.9936804,21.4130411 16.0730594,21.4130411 C19.1524384,21.4130411 22.0428128,20.8374795 24.2118721,19.7923653 C26.3131324,18.7799817 27.4703196,17.4591416 27.4703196,16.0730594 C27.4703196,14.6870502 26.3131324,13.366137 24.2118721,12.3537534 C22.0428128,11.3086393 19.1523653,10.7330776 16.0730594,10.7330776 Z" id="Shape" stroke="#737373" stroke-width="0.7" fill="#737373"></path>
                <path d="M16.0730594,28.0547945 C15.9116712,28.0547945 15.7808219,27.9239452 15.7808219,27.7625571 L15.7808219,4.38356164 C15.7808219,4.22217352 15.9116712,4.0913242 16.0730594,4.0913242 C16.2344475,4.0913242 16.3652968,4.22217352 16.3652968,4.38356164 L16.3652968,27.7625571 C16.3652968,27.9239452 16.2344475,28.0547945 16.0730594,28.0547945 Z" id="Path" stroke="#737373" stroke-width="0.7" fill="#737373"></path>
                <path d="M27.7625571,16.3652968 L4.38356164,16.3652968 C4.22217352,16.3652968 4.0913242,16.2344475 4.0913242,16.0730594 C4.0913242,15.9116712 4.22217352,15.7808219 4.38356164,15.7808219 L27.7625571,15.7808219 C27.9239452,15.7808219 28.0547945,15.9116712 28.0547945,16.0730594 C28.0547945,16.2344475 27.9239452,16.3652968 27.7625571,16.3652968 Z" id="Path" fill="#737373"></path>
                <path d="M16,32 C11.7262466,32 7.70827397,30.3357078 4.68631963,27.3136804 C1.6643653,24.291653 0,20.2737534 0,16 C0,11.7262466 1.66429224,7.70827397 4.68631963,4.68631963 C7.70834703,1.6643653 11.7262466,0 16,0 C20.3696804,0 24.4512877,1.72953425 27.4930411,4.86999087 C27.5503927,4.92916895 27.5800548,5.00982648 27.5747945,5.09209132 C27.5694612,5.17435616 27.5297169,5.25048402 27.4652785,5.30191781 C27.0970594,5.59525114 26.8858447,6.03280365 26.8858447,6.50228311 C26.8858447,7.3483105 27.574137,8.03652968 28.4200913,8.03652968 C28.7501735,8.03652968 29.0647671,7.93315068 29.3298265,7.73757078 C29.3962374,7.688621 29.4805479,7.66999087 29.5610594,7.68621005 C29.6419361,7.70250228 29.7121461,7.75225571 29.7543744,7.82312329 C31.2234521,10.2891689 32,13.1167123 32,16 C32,20.2737534 30.3357078,24.291726 27.3136804,27.3136804 C24.291653,30.3356347 20.2737534,32 16,32 Z M16,0.584474886 C7.49983562,0.584474886 0.584474886,7.49983562 0.584474886,16 C0.584474886,24.5001644 7.49983562,31.4155251 16,31.4155251 C24.5001644,31.4155251 31.4155251,24.5001644 31.4155251,16 C31.4155251,13.321863 30.7203653,10.6940639 29.4023744,8.37998174 C29.1010776,8.53837443 28.766758,8.62100457 28.4200913,8.62100457 C27.2518721,8.62100457 26.3013699,7.67057534 26.3013699,6.50228311 C26.3013699,5.96259361 26.5033059,5.45358904 26.8639269,5.06454795 C23.9566027,2.17315068 20.1105388,0.584474886 16,0.584474886 Z" id="Shape" fill="#FFCB05"></path>
                <path d="M28.4200913,8.62100457 C27.2518721,8.62100457 26.3013699,7.67057534 26.3013699,6.50228311 C26.3013699,5.85380822 26.5928037,5.24968037 27.1009315,4.84471233 C27.474484,4.54736073 27.9429406,4.38356164 28.4200913,4.38356164 C29.5883105,4.38356164 30.5388128,5.33399087 30.5388128,6.50228311 C30.5388128,7.17201826 30.216621,7.80960731 29.6768584,8.20785388 C29.3105388,8.47810046 28.8759817,8.62100457 28.4200913,8.62100457 Z M28.4200913,4.96803653 C28.0696256,4.96803653 27.7394703,5.08347032 27.4652055,5.30191781 C27.0970594,5.59525114 26.8858447,6.03280365 26.8858447,6.50228311 C26.8858447,7.3483105 27.574137,8.03652968 28.4200913,8.03652968 C28.7501735,8.03652968 29.0647671,7.93315068 29.3298265,7.73749772 C29.726758,7.4446758 29.9543379,6.99448402 29.9543379,6.50228311 C29.9543379,5.65625571 29.2660457,4.96803653 28.4200913,4.96803653 Z" id="Shape" fill="#FFCB05"></path>
            </g>
        </g>
    </g>
</svg>