<?xml version="1.0" encoding="UTF-8"?>
<svg width="34px" height="8px" viewBox="0 0 34 8" version="1.1" xmlns="http://www.w3.org/2000/svg" xmlns:xlink="http://www.w3.org/1999/xlink">
    <title>icons / award rating</title>
    <g id="Page-1" stroke="none" stroke-width="1" fill="none" fill-rule="evenodd">
        <g id="Complaints-" transform="translate(-991.000000, -1445.000000)" fill="#787878">
            <g id="Group-7" transform="translate(248.000000, 1144.000000)">
                <g id="Group-14" transform="translate(135.000000, 255.000000)">
                    <g id="icons-/-award-rating" transform="translate(605.000000, 30.000000)">
                        <path d="M33.3333333,16.6666667 C35.1111111,16.6666667 36.6666667,18.2222222 36.6666667,20 C36.6666667,21.7777778 35.1111111,23.3333333 33.3333333,23.3333333 C31.5555556,23.3333333 30,21.7777778 30,20 C30,18.2222222 31.5555556,16.6666667 33.3333333,16.6666667 Z M20,16.6666667 C21.7777778,16.6666667 23.3333333,18.2222222 23.3333333,20 C23.3333333,21.7777778 21.7777778,23.3333333 20,23.3333333 C18.2222222,23.3333333 16.6666667,21.7777778 16.6666667,20 C16.6666667,18.2222222 18.2222222,16.6666667 20,16.6666667 Z M6.66666667,16.6666667 C8.44444444,16.6666667 10,18.2222222 10,20 C10,21.7777778 8.44444444,23.3333333 6.66666667,23.3333333 C4.88888889,23.3333333 3.33333333,21.7777778 3.33333333,20 C3.33333333,18.2222222 4.88888889,16.6666667 6.66666667,16.6666667 Z" id="Mask"></path>
                    </g>
                </g>
            </g>
        </g>
    </g>
</svg>