<svg width="24" height="24" xmlns="http://www.w3.org/2000/svg"><g fill="none" fill-rule="evenodd"><path d="M19.779 4.225A10.925 10.925 0 0011.999 1C9.06 1 6.302 2.144 4.22 4.225.22 8.222-.087 14.625 3.49 18.973l.444.538-.307.627c-.639 1.307-1.432 2.225-2.398 2.697-.017.01-.028.028-.026.041.004.027.015.037.032.04.232.035.465.054.693.054 1.252 0 2.599-.438 3.73-1.216l.545-.375.583.313A11.02 11.02 0 0012 23c2.943 0 5.7-1.14 7.78-3.22A10.917 10.917 0 0023 12.005c0-2.94-1.144-5.704-3.221-7.78z" stroke="#FFF" stroke-width="2"/><path d="M9 11.01v2H7v-2h2zm8-.01v2h-2v-2h2zm-4 0v2h-2v-2h2z" fill="#FFCB05"/></g></svg>