<svg width="35" height="32" viewBox="0 0 35 32" fill="none" xmlns="http://www.w3.org/2000/svg">
<path fill-rule="evenodd" clip-rule="evenodd" d="M30.5009 16.3177C29.8796 14.7231 28.7043 13.2611 27.0678 12.0464L28.4644 7.69639C28.5194 7.52706 28.4994 7.34506 28.4094 7.18906C28.3195 7.03306 28.1674 6.91706 27.9853 6.86639C25.2105 6.08972 22.2009 7.13439 20.6264 9.36372C19.5118 9.15906 18.4714 9.05839 17.4618 9.05839C11.4317 9.05839 6.31346 11.9791 4.54978 16.0037C4.54978 16.0037 3.88858 17.2882 3.88858 19.0824C3.88858 21.9383 5.52659 24.6391 8.39775 26.5411V29.9997C8.39775 30.3684 8.71764 30.6664 9.11179 30.6664H14.1215C14.4292 30.6664 14.702 30.4831 14.7991 30.2111L15.2418 28.9697C16.7249 29.1524 18.1987 29.1524 19.6817 28.9697L20.1244 30.2111C20.2215 30.4831 20.4943 30.6664 20.8013 30.6664H25.8118C26.2059 30.6664 26.5258 30.3684 26.5258 29.9997V26.5411C27.4576 25.9231 28.2666 25.2151 28.9378 24.4284H32.4916C32.8858 24.4284 33.2056 24.1304 33.2056 23.7611V18.1517C33.2056 17.1404 32.3245 16.3177 31.242 16.3177H30.5009Z" stroke="#787878" stroke-width="2"/>
<path d="M16.0704 6.66671C17.6451 6.66671 18.9266 5.47002 18.9266 3.99951C18.9266 2.52953 17.6451 1.33337 16.0704 1.33337C14.4956 1.33337 13.2142 2.52953 13.2142 3.99951C13.2142 5.47002 14.4956 6.66671 16.0704 6.66671" stroke="#FFCB05" stroke-width="2"/>
<path fill-rule="evenodd" clip-rule="evenodd" d="M24.1498 14.5287C23.54 14.5287 23.0431 14.992 23.0431 15.562C23.0431 16.132 23.54 16.596 24.1498 16.596C24.7596 16.596 25.2559 16.132 25.2559 15.562C25.2559 14.992 24.7596 14.5287 24.1498 14.5287Z" fill="#787878"/>
<path fill-rule="evenodd" clip-rule="evenodd" d="M18.7608 12.0903C17.0185 11.911 15.3876 12.0077 13.7903 12.3003C13.404 12.3723 13.152 12.7223 13.2277 13.0837C13.2948 13.4017 13.5932 13.6223 13.9274 13.6223C13.9731 13.6223 14.0195 13.6183 14.0667 13.6097C15.5212 13.341 17.0056 13.2497 18.6037 13.4157C18.9978 13.4563 19.3491 13.1923 19.392 12.8263C19.4355 12.4603 19.1528 12.131 18.7608 12.0903Z" fill="#787878"/>
<path fill-rule="evenodd" clip-rule="evenodd" d="M2.299 13.2469C3.10045 14.1089 4.03278 14.7131 5.08223 15.1532C5.33687 15.2588 5.71164 15.0955 5.92023 14.7872C6.10353 14.5157 6.097 14.2225 5.9196 14.0835C5.89534 14.0645 5.86794 14.0483 5.83696 14.0353C4.87984 13.6362 4.02889 13.0888 3.29484 12.297C3.11359 12.1019 2.74534 12.158 2.47062 12.4206C2.19552 12.6829 2.11889 13.0527 2.299 13.2469Z" fill="#787878"/>
</svg>
