<svg width="11" height="12" viewBox="0 0 11 12" fill="none" xmlns="http://www.w3.org/2000/svg">
<path d="M0.83333 5.50004V4.50004H-0.16667V5.50004H0.83333ZM4.5 5.50004V6.50004H5.5V5.50004H4.5ZM0.83333 6.50004H-0.16667V7.50004H0.83333V6.50004ZM4.5 6.50004H5.5V5.50004H4.5V6.50004ZM4.5 10.1667H3.5V11.1667H4.5V10.1667ZM5.5 10.1667V11.1667H6.5V10.1667H5.5ZM5.5 6.50004V5.50004H4.5V6.50004H5.5ZM9.16666 6.50004V7.50004H10.1667V6.50004H9.16666ZM9.16666 5.50004H10.1667V4.50004H9.16666V5.50004ZM5.5 5.50004H4.5V6.50004H5.5V5.50004ZM5.5 1.83337H6.5V0.833374L5.5 0.833374V1.83337ZM4.5 1.83337V0.833374H3.5V1.83337L4.5 1.83337ZM0.83333 6.50004L4.5 6.50004V4.50004H0.83333V6.50004ZM1.83333 6.50004V5.50004H-0.16667V6.50004H1.83333ZM4.5 5.50004H0.83333V7.50004L4.5 7.50004V5.50004ZM5.5 10.1667V6.50004H3.5L3.5 10.1667H5.5ZM5.5 9.16671H4.5V11.1667H5.5V9.16671ZM4.5 6.50004L4.5 10.1667H6.5V6.50004H4.5ZM9.16666 5.50004H5.5V7.50004H9.16666V5.50004ZM8.16666 5.50004V6.50004H10.1667V5.50004H8.16666ZM5.5 6.50004H9.16666V4.50004H5.5V6.50004ZM4.5 1.83337V5.50004H6.5V1.83337H4.5ZM4.5 2.83337H5.5V0.833374L4.5 0.833374V2.83337ZM5.5 5.50004V1.83337L3.5 1.83337V5.50004H5.5Z" fill="#787878"/>
</svg>
