<svg width="24" height="24" viewBox="0 0 24 24" fill="none" xmlns="http://www.w3.org/2000/svg">
<path d="M11.5 22H10.5V23H11.5V22ZM11.5 12.5H12.5V11.5H11.5V12.5ZM12.5 22V23H13.5V22H12.5ZM12.5 12.5V11.5H11.5V12.5H12.5ZM22 12.5V13.5H23V12.5H22ZM22 11.5H23V10.5H22V11.5ZM12.5 11.5H11.5V12.5H12.5V11.5ZM12.5 2H13.5V1H12.5V2ZM11.5 2V1H10.5V2H11.5ZM11.5 11.5V12.5H12.5V11.5H11.5ZM2 11.5V10.5H1V11.5H2ZM2 12.5H1V13.5H2V12.5ZM12.5 22V12.5H10.5V22H12.5ZM12.5 21H11.5V23H12.5V21ZM11.5 12.5V22H13.5V12.5H11.5ZM22 11.5H12.5V13.5H22V11.5ZM21 11.5V12.5H23V11.5H21ZM12.5 12.5H22V10.5H12.5V12.5ZM11.5 2V11.5H13.5V2H11.5ZM11.5 3H12.5V1H11.5V3ZM12.5 11.5V2H10.5V11.5H12.5ZM2 12.5H11.5V10.5H2V12.5ZM3 12.5V11.5H1V12.5H3ZM11.5 11.5H2V13.5H11.5V11.5Z" fill="#787878"/>
</svg>
