<?xml version="1.0" encoding="UTF-8"?>
<svg width="32px" height="29px" viewBox="0 0 32 29" version="1.1" xmlns="http://www.w3.org/2000/svg" xmlns:xlink="http://www.w3.org/1999/xlink">
    <title>icons / rural</title>
    <g id="form-center" stroke="none" stroke-width="1" fill="none" fill-rule="evenodd">
        <g id="form_center_Desktop_01" transform="translate(-1110.000000, -357.000000)" fill-rule="nonzero">
            <g id="Group" transform="translate(1110.000000, 357.000000)">
                <path d="M20.3876289,5.44555556 C20.156701,5.25222222 19.8268041,5.25222222 19.5628866,5.44555556 L13.2948454,10.3433333 C13.2618557,10.3111111 13.2618557,10.2466667 13.228866,10.2144444 L10.3257732,7.37888889 L14.4164948,3.35111111 C14.6804124,3.09333333 14.6804124,2.70666667 14.4164948,2.44888889 L12.3381443,0.418888889 C12.2061856,0.29 12.0412371,0.225555556 11.8762887,0.225555556 C11.7113402,0.225555556 11.5463918,0.29 11.414433,0.418888889 L7.29072165,4.44666667 L3.2,0.418888889 C2.93608247,0.161111111 2.50721649,0.161111111 2.27628866,0.418888889 L0.197938144,2.44888889 C-0.0659793814,2.70666667 -0.0659793814,3.09333333 0.197938144,3.35111111 L4.28865979,7.37888889 L0.197938144,11.3744444 C-0.0659793814,11.6322222 -0.0659793814,12.0188889 0.197938144,12.2766667 L2.27628866,14.3066667 C2.40824742,14.4355556 2.57319588,14.5 2.73814433,14.5 C2.90309278,14.5 3.06804124,14.4355556 3.2,14.3066667 L6.63092784,10.9555556 L6.63092784,27.4855556 L1.7814433,27.4855556 C1.4185567,27.4855556 1.12164948,27.7755556 1.12164948,28.13 C1.12164948,28.4844444 1.4185567,28.7744444 1.7814433,28.7744444 C6.89484536,28.7744444 22.0371134,28.7744444 27.4474227,28.7744444 C27.8103093,28.7744444 28.1072165,28.4844444 28.1072165,28.13 L28.1072165,14.9188889 L31.0103093,14.9188889 C31.3072165,14.9188889 31.5381443,14.7577778 31.6371134,14.4677778 C31.7360825,14.1777778 31.6371134,13.92 31.4061856,13.7588889 C25.7443322,9.80879128 25.6770791,9.87389585 20.3876289,5.44555556 Z M10.985567,12.1155556 C10.9525773,12.0833333 10.9525773,12.0188889 10.9195876,11.9866667 L8.70927835,9.82777778 C9.17113402,9.57 9.56701031,9.18333333 9.83092784,8.73222222 L12.2721649,11.1166667 L10.985567,12.1155556 Z M5.70721649,7.37888889 C5.70721649,6.54111111 6.4,5.83222222 7.29072165,5.83222222 C8.1814433,5.83222222 8.8742268,6.54111111 8.8742268,7.37888889 C8.8742268,8.21666667 8.1814433,8.92555556 7.29072165,8.92555556 C6.4,8.92555556 5.70721649,8.21666667 5.70721649,7.37888889 Z M11.8762887,1.80444444 L12.9979381,2.9 L9.83092784,5.99333333 C9.56701031,5.54222222 9.17113402,5.15555556 8.70927835,4.89777778 L11.8762887,1.80444444 Z M2.73814433,1.80444444 L5.90515464,4.89777778 C5.44329897,5.15555556 5.04742268,5.54222222 4.78350515,5.99333333 L1.58350515,2.9 L2.73814433,1.80444444 Z M2.73814433,12.9211111 L1.61649485,11.8255556 L4.78350515,8.73222222 C5.04742268,9.18333333 5.44329897,9.57 5.90515464,9.82777778 L2.73814433,12.9211111 Z M7.95051546,10.9233333 L9.9628866,12.8888889 L8.8742268,13.7266667 C8.64329897,13.8877778 8.57731959,14.1777778 8.67628866,14.4355556 C8.77525773,14.6933333 9.00618557,14.8544444 9.30309278,14.8544444 L12.2061856,14.8544444 L12.2061856,27.4211111 L7.95051546,27.4211111 L7.95051546,10.9233333 Z M17.4185567,27.4855556 L17.4185567,20.4933333 L22.8618557,20.4933333 L22.8618557,27.4855556 L17.4185567,27.4855556 L17.4185567,27.4855556 Z M27.4474227,13.5977778 C27.4474227,13.5977778 27.4474227,13.5977778 27.4474227,13.5977778 C27.0845361,13.5977778 26.7876289,13.8877778 26.7876289,14.2422222 L26.7876289,27.4855556 L24.214433,27.4855556 L24.214433,19.8488889 C24.214433,19.4944444 23.9175258,19.2044444 23.5546392,19.2044444 L16.7587629,19.2044444 C16.3958763,19.2044444 16.0989691,19.4944444 16.0989691,19.8488889 L16.0989691,27.4855556 L13.5257732,27.4855556 L13.5257732,14.2422222 C13.5257732,13.8877778 13.228866,13.5977778 12.8659794,13.5977778 C12.8659794,13.5977778 12.8659794,13.5977778 12.8659794,13.5977778 L11.1835052,13.5977778 L19.9917526,6.76666667 L29.0639175,13.5977778 L27.4474227,13.5977778 L27.4474227,13.5977778 Z" id="Shape" fill="#737373"></path>
                <path d="M17.1876289,13.63 C17.1876289,15.2088889 18.5072165,16.53 20.156701,16.53 C21.8061856,16.53 23.1257732,15.2411111 23.1257732,13.63 C23.1257732,12.0188889 21.8061856,10.73 20.156701,10.73 C18.5072165,10.73 17.1876289,12.0511111 17.1876289,13.63 Z M20.156701,12.0188889 C21.0474227,12.0188889 21.8061856,12.7277778 21.8061856,13.63 C21.8061856,14.5 21.0804124,15.2411111 20.156701,15.2411111 C19.2659794,15.2411111 18.5072165,14.5322222 18.5072165,13.63 C18.5072165,12.76 19.2329897,12.0188889 20.156701,12.0188889 Z" id="Shape" fill="#FFCB05"></path>
            </g>
        </g>
    </g>
</svg>