<svg width="26" height="25" viewBox="0 0 26 25" fill="none" xmlns="http://www.w3.org/2000/svg">
    <path fill-rule="evenodd" clip-rule="evenodd" d="M10.2666 23L6.36169 21.1549L6.39116 18.6452L5.56106 17.5108L2.88413 17.0289L2 12.8371L4.20786 11.4788L4.4952 9.88687L3.09779 7.6766L5.9491 4.16159L8.59411 4.92836L9.7754 4.31494L10.7381 2H15.257L16.2172 4.31494L17.3985 4.92593L20.046 4.16159L22.8973 7.6766L21.4999 9.88687L21.7872 11.4788L24 12.8323L23.1183 17.024L20.4414 17.506L19.6113 18.6403L19.6408 21.1524L15.7359 22.9976L13.8522 21.3959H12.1478L10.2666 23Z" stroke="#787878" stroke-width="2" />
    <path fill-rule="evenodd" clip-rule="evenodd" d="M12.9973 16.8257C10.578 16.8257 8.61151 14.8688 8.61151 12.4614C8.61151 10.0539 10.578 8.09705 12.9973 8.09705C15.4166 8.09705 17.3831 10.0539 17.3831 12.4614C17.3831 14.8688 15.4166 16.8257 12.9973 16.8257Z" stroke="#FFCB05" stroke-width="2" />
</svg>
