<?xml version="1.0" encoding="UTF-8"?>
<svg width="50px" height="51px" viewBox="0 0 50 51" version="1.1" xmlns="http://www.w3.org/2000/svg" xmlns:xlink="http://www.w3.org/1999/xlink">
    <title>Group 12</title>
    <defs>
        <polygon id="path-1" points="0.8288 0 32 0 32 35.8808518 0.8288 35.8808518"></polygon>
    </defs>
    <g id="Page-1" stroke="none" stroke-width="1" fill="none" fill-rule="evenodd">
        <g id="Schedule_of_Charges_Desktop-Copy" transform="translate(-804.000000, -1987.000000)">
            <g id="Group-30" transform="translate(0.000000, 1949.000000)">
                <g id="Support-Section" transform="translate(114.000000, 0.000000)">
                    <g id="Group-12" transform="translate(690.000000, 38.000000)">
                        <path d="M15.6899,47.07 L2.9299,47.07 L2.9299,45.397 C2.9299,41.873 5.7809,39.017 9.3099,39.017 C12.8339,39.017 15.6899,41.868 15.6899,45.397 L15.6899,47.07 Z M4.4989,31.276 C4.4989,28.624 6.6569,26.465 9.3099,26.465 C11.9629,26.465 14.1219,28.624 14.1219,31.276 C14.1219,33.929 11.9629,36.088 9.3099,36.088 C6.6569,36.088 4.4989,33.929 4.4989,31.276 L4.4989,31.276 Z M14.0559,37.384 C15.8769,35.966 17.0509,33.757 17.0509,31.276 C17.0509,27.008 13.5779,23.535 9.3099,23.535 C5.0419,23.535 1.5689,27.008 1.5689,31.276 C1.5689,33.757 2.7439,35.966 4.5629,37.384 C1.9949,38.912 0.0009,41.799 0.0009,45.397 L0.0009,48.535 C0.0009,49.344 0.6559,50 1.4649,50 L17.1549,50 C17.9629,50 18.6199,49.344 18.6199,48.535 L18.6199,45.397 C18.6199,41.799 16.6269,38.913 14.0559,37.384 L14.0559,37.384 Z" id="Fill-1" fill="#787878"></path>
                        <g id="Group-5" transform="translate(18.000000, 0.000000)">
                            <mask id="mask-2" fill="white">
                                <use xlink:href="#path-1"></use>
                            </mask>
                            <g id="Clip-4"></g>
                            <path d="M29.0708,24.9996 C29.0708,26.7926 27.6218,28.2416 25.8288,28.2416 L8.5688,28.2416 C8.2528,28.2416 7.9438,28.3456 7.6898,28.5346 L3.7588,31.4836 L3.7588,6.1716 C3.7588,4.3796 5.2078,2.9296 7.0008,2.9296 L25.8288,2.9296 C27.6208,2.9296 29.0708,4.3786 29.0708,6.1716 L29.0708,24.9996 Z M25.8288,-0.0004 L7.0008,-0.0004 C3.5918,-0.0004 0.8288,2.7586 0.8288,6.1716 L0.8288,34.4136 C0.8288,35.6116 2.2028,36.3126 3.1728,35.5856 L9.0568,31.1716 L25.8288,31.1716 C29.2368,31.1716 32.0008,28.4136 32.0008,24.9996 L32.0008,6.1716 C32.0008,2.7636 29.2418,-0.0004 25.8288,-0.0004 L25.8288,-0.0004 Z" id="Fill-3" fill="#787878" mask="url(#mask-2)"></path>
                        </g>
                        <path d="M42.2592,7.8454 L26.5692,7.8454 C25.7602,7.8454 25.1042,8.5004 25.1042,9.3104 C25.1042,10.1184 25.7602,10.7754 26.5692,10.7754 L42.2592,10.7754 C43.0682,10.7754 43.7242,10.1184 43.7242,9.3104 C43.7242,8.5004 43.0682,7.8454 42.2592,7.8454" id="Fill-6" fill="#787878"></path>
                        <path d="M42.2592,14.1217 L26.5692,14.1217 C25.7602,14.1217 25.1042,14.7767 25.1042,15.5867 C25.1042,16.3947 25.7602,17.0517 26.5692,17.0517 L42.2592,17.0517 C43.0682,17.0517 43.7242,16.3947 43.7242,15.5867 C43.7242,14.7767 43.0682,14.1217 42.2592,14.1217" id="Fill-8" fill="#787878"></path>
                        <path d="M34.4135,20.3971 L26.5685,20.3971 C25.7605,20.3971 25.1035,21.0531 25.1035,21.8621 C25.1035,22.6711 25.7605,23.3271 26.5685,23.3271 L34.4135,23.3271 C35.2235,23.3271 35.8785,22.6711 35.8785,21.8621 C35.8785,21.0531 35.2235,20.3971 34.4135,20.3971" id="Fill-10" fill="#787878"></path>
                    </g>
                </g>
            </g>
        </g>
    </g>
</svg>