<svg width="23" height="23" xmlns="http://www.w3.org/2000/svg"><path d="M18.208 15.333c1.534 0 2.875 1.342 2.875 2.875 0 1.534-1.341 2.875-2.875 2.875-1.533 0-2.875-1.341-2.875-2.875 0-1.533 1.342-2.875 2.875-2.875zM4.792 8.625c1.533 0 2.875 1.342 2.875 2.875s-1.342 2.875-2.875 2.875c-1.534 0-2.875-1.342-2.875-2.875s1.341-2.875 2.875-2.875zm13.416-6.708c1.534 0 2.875 1.341 2.875 2.875 0 1.533-1.341 2.875-2.875 2.875-1.533 0-2.875-1.342-2.875-2.875 0-1.534 1.342-2.875 2.875-2.875zm-11.02 8.146l8.145-3.834m-8.146 6.708l8.625 4.792" stroke="#787878" stroke-width="2" fill="none" fill-rule="evenodd"/></svg>