<?xml version="1.0" encoding="UTF-8"?>
<svg width="59px" height="45px" viewBox="0 0 59 45" version="1.1" xmlns="http://www.w3.org/2000/svg" xmlns:xlink="http://www.w3.org/1999/xlink">
    <title>icons / ATM</title>
    <g id="News-&amp;-Media" stroke="none" stroke-width="1" fill="none" fill-rule="evenodd">
        <g id="news&amp;media_desktop_01-copy-3" transform="translate(-529.000000, -1173.000000)" fill-rule="nonzero">
            <g id="Group-22" transform="translate(115.000000, 874.000000)">
                <g id="Group-5" transform="translate(353.000000, 44.000000)">
                    <g id="Group-Copy" transform="translate(0.000000, 210.087795)">
                        <g id="Quick-Link-Single-Card-Copy-2" transform="translate(0.000000, 0.282793)">
                            <g id="Group" transform="translate(30.175632, 37.562973)">
                                <g transform="translate(31.621517, 0.000000)" id="icons-/-ATM">
                                    <g id="Group-14" transform="translate(0.000000, 7.270253)">
                                        <g id="Group" transform="translate(0.000000, -0.000000)">
                                            <path d="M45.2287487,4.98531627 C48.9707385,4.98531627 51.8419912,8.09559943 52.0125703,11.6536964 L52.0205942,11.9884987 L52.0205942,15.8591467 L49.9796359,17.9986535 L49.9796359,18.3924935 L56.9574586,21.5232164 L58.1182982,28.8199222 L54.8360314,29.342101 L53.9562565,23.8215029 L46.6576024,20.5419515 L46.6576024,16.6641071 L48.6967478,14.5272116 L48.69705,11.9884987 C48.69705,10.1299882 47.2881696,8.46026355 45.4779849,8.31858336 L45.2287487,8.30886046 C43.3640896,8.30886046 41.9508957,9.77982849 41.8315342,11.5862715 L41.8233563,11.8345773 L41.8219967,14.5272116 L43.8628039,16.6641071 L43.8628039,20.5419515 L36.562488,23.8215029 L35.6843749,29.342101 L32.4021081,28.8199222 L33.5629477,21.5232164 L40.5391086,18.3924935 L40.5391086,17.9986535 L38.4998121,15.8591467 L38.4998121,11.8345773 C38.4998121,8.15051224 41.3662417,4.98531627 45.2287487,4.98531627 Z" id="Shape-Copy" fill="#FFCB05"></path>
                                            <path d="M24.0097001,-2.06633015e-14 C30.6017527,-2.06633015e-14 35.7190387,5.3073015 35.925162,11.3711671 L35.9316189,11.7511026 L35.9316189,18.4982131 L31.8513641,22.5352913 L31.8513641,24.7753601 L45.9544587,30.7554656 L48.145218,43.7609251 L44.8678465,44.3129957 L42.9785901,33.1041618 L28.5291796,26.9765125 L28.5291796,21.1469211 L32.6074704,17.112929 L32.6080747,11.7511026 C32.6080747,7.43463459 29.0450234,3.52882853 24.3802183,3.3313687 L24.0097001,3.32354418 C19.2598941,3.32354418 15.7272101,6.87736644 15.5445687,11.1153034 L15.5371432,11.4603624 L15.5360858,17.112929 L19.6160384,21.1469211 L19.6160384,26.9765125 L5.16496613,33.1041618 L3.27737151,44.3129957 L-3.80795128e-13,43.7609251 L2.19075922,30.7554656 L16.2921921,24.7753601 L16.2921921,22.5352913 L12.2135991,18.4982131 L12.2135991,11.4603624 C12.2135991,5.26701315 17.2640326,-2.06633015e-14 24.0097001,-2.06633015e-14 Z" id="Shape-Copy-2" fill="#787878"></path>
                                        </g>
                                    </g>
                                </g>
                            </g>
                        </g>
                    </g>
                </g>
            </g>
        </g>
    </g>
</svg>