<svg width="48" height="48" viewBox="0 0 48 48" fill="none" xmlns="http://www.w3.org/2000/svg">
<path d="M12.7948 27.3932L13.4017 28.188L14.1965 27.5812L13.5897 26.7863L12.7948 27.3932ZM11.2052 28.6068L10.4103 29.2137L11.0172 30.0085L11.812 29.4017L11.2052 28.6068ZM36.7948 28.6068L36.188 29.4017L36.9828 30.0085L37.5897 29.2137L36.7948 28.6068ZM35.2052 27.3932L34.4103 26.7863L33.8035 27.5812L34.5983 28.188L35.2052 27.3932ZM16 34.5632H15V35.5632H16V34.5632ZM32 34.5632V35.5632H33V34.5632H32ZM16 33.5632V32.5632H15V33.5632H16ZM32 33.5632H33V32.5632H32V33.5632ZM16 40.5632H15V41.5632H16V40.5632ZM32 40.5632V41.5632H33V40.5632H32ZM16 39.5632V38.5632H15V39.5632H16ZM32 39.5632H33V38.5632H32V39.5632ZM20 45.989H19V46.989H20V45.989ZM26.8262 45.989V46.989H27.8262V45.989H26.8262ZM20 44.989V43.989H19V44.989H20ZM26.8262 44.989H27.8262V43.989H26.8262V44.989ZM10 18C10 10.268 16.268 4 24 4V2C15.1634 2 8 9.16344 8 18H10ZM13.5897 26.7863C11.0887 23.5106 10 20.5944 10 18H8C8 21.1737 9.33324 24.507 12 28L13.5897 26.7863ZM11.812 29.4017L13.4017 28.188L12.188 26.5983L10.5983 27.812L11.812 29.4017ZM6 18C6 21.7534 7.57809 25.5039 10.4103 29.2137L12 28C9.33325 24.5071 8 21.1737 8 18H6ZM24 0C14.0589 0 6 8.05887 6 18H8C8 9.16344 15.1634 2 24 2V0ZM42 18C42 8.05887 33.9411 0 24 0V2C32.8366 2 40 9.16344 40 18H42ZM37.5897 29.2137C40.4219 25.5039 42 21.7534 42 18H40C40 21.1737 38.6667 24.5071 36 28L37.5897 29.2137ZM34.5983 28.188L36.188 29.4017L37.4017 27.812L35.812 26.5983L34.5983 28.188ZM38 18C38 20.5944 36.9113 23.5106 34.4103 26.7863L36 28C38.6668 24.507 40 21.1737 40 18H38ZM24 4C31.732 4 38 10.268 38 18H40C40 9.16344 32.8366 2 24 2V4ZM16 35.5632H32V33.5632H16V35.5632ZM15 33.5632V34.5632H17V33.5632H15ZM32 32.5632H16V34.5632H32V32.5632ZM33 34.5632V33.5632H31V34.5632H33ZM16 41.5632H32V39.5632H16V41.5632ZM15 39.5632V40.5632H17V39.5632H15ZM32 38.5632H16V40.5632H32V38.5632ZM33 40.5632V39.5632H31V40.5632H33ZM20 46.989H26.8262V44.989H20V46.989ZM19 44.989V45.989H21V44.989H19ZM26.8262 43.989H20V45.989H26.8262V43.989ZM27.8262 45.989V44.989H25.8262V45.989H27.8262Z" fill="#787878"/>
<path fill-rule="evenodd" clip-rule="evenodd" d="M16 16H32V12H16V16ZM16 28H20V24H16V28ZM26 22H16V18H26V22Z" fill="#787878"/>
</svg>
