<?xml version="1.0" encoding="UTF-8"?>
<svg width="16px" height="16px" viewBox="0 0 16 16" version="1.1" xmlns="http://www.w3.org/2000/svg" xmlns:xlink="http://www.w3.org/1999/xlink">
    <title>55B2F945-5EB3-419E-9F02-C79D9D53C7FE@1x</title>
    <g id="work" stroke="none" stroke-width="1" fill="none" fill-rule="evenodd">
        <g id="Landing-page-expanded" transform="translate(-1320.000000, -913.000000)" fill="#9B1E26">
            <g id="Group-24" transform="translate(1245.000000, 909.000000)">
                <path d="M83,4 C87.4112,4 91,7.5888 91,12 C91,16.4112 87.4112,20 83,20 C78.5888,20 75,16.4112 75,12 C75,7.5888 78.5888,4 83,4 Z M83,5.23076923 C79.2674462,5.23076923 76.2307692,8.26744615 76.2307692,12 C76.2307692,15.7325538 79.2674462,18.7692308 83,18.7692308 C86.7325538,18.7692308 89.7692308,15.7325538 89.7692308,12 C89.7692308,8.26744615 86.7325538,5.23076923 83,5.23076923 Z M83.8888889,11.1111111 L83.8888889,16.4444444 L82.1111111,16.4444444 L82.1111111,11.1111111 L83.8888889,11.1111111 Z M83.8888889,7.55555556 L83.8888889,9.33333333 L82.1111111,9.33333333 L82.1111111,7.55555556 L83.8888889,7.55555556 Z" id="Combined-Shape"></path>
            </g>
        </g>
    </g>
</svg>