<svg width="28" height="20" xmlns="http://www.w3.org/2000/svg"><path d="M27.844 7.018c-.583.363-2.333.766-3.305.363-.039-.242-.117-.444-.156-.645-.739-2.824-3.266-5.082-5.95-4.84.234-.081.428-.162.661-.242.312-.121 2.023-.404 1.75-1.009-.233-.564-2.333.404-2.722.525.545-.202 1.4-.565 1.517-1.17a4.037 4.037 0 00-2.178 1.089c.233-.242.389-.524.428-.847-2.139 1.371-3.383 4.235-4.395 6.977-.777-.806-1.477-1.411-2.138-1.774-1.75-.968-3.89-2.017-7.195-3.267-.117 1.13.545 2.662 2.411 3.67-.389-.04-1.128.08-1.71.202.232 1.29 1.01 2.38 3.15 2.904-.973.08-1.479.282-1.906.766.427.887 1.516 1.976 3.46 1.734-2.138.968-.894 2.743.856 2.46C7.39 17.142 2.683 16.9 0 14.238c7.039 9.962 22.361 5.889 24.656-3.71 1.71 0 2.722-.605 3.344-1.29-.972.16-2.411 0-3.189-.324 1.556-.12 2.645-.887 3.033-1.895z" fill="#FFF" fill-rule="nonzero"/></svg>