<svg width="26" height="26" viewBox="0 0 26 26" fill="none" xmlns="http://www.w3.org/2000/svg">
<path fill-rule="evenodd" clip-rule="evenodd" d="M12.2553 2.54763C6.71195 2.87302 2.19348 6.98622 1.25961 12.3496C1.11879 12.5995 1.08342 12.8313 1.08342 13C1.08342 13.3857 1.39604 13.6983 1.78166 13.6983C2.06598 13.6983 2.50983 13.4817 2.56676 13.0406C2.57046 13.0122 2.57456 12.9839 2.57866 12.9556L2.58413 12.9177C2.8941 12.6748 3.81229 12.3018 5.27287 12.3018C6.97765 12.3018 7.9443 12.8101 8.06635 13.0264C8.07962 13.3759 8.35691 13.6999 8.79694 13.6999C9.16762 13.6999 9.47643 13.4083 9.49388 13.0342L9.49426 13.0271C9.73692 12.8051 10.6778 12.4146 12.2553 12.3221V22.1237C12.2553 22.8938 11.6288 23.5202 10.8588 23.5202C10.0888 23.5202 9.46232 22.8938 9.46232 22.1237V21.4255C9.46232 21.0399 9.1497 20.7273 8.76408 20.7273C8.37846 20.7273 8.06584 21.0399 8.06584 21.4255V22.1237C8.06584 23.6638 9.31876 24.9167 10.8588 24.9167C12.3988 24.9167 13.6518 23.6638 13.6518 22.1237V12.3215C15.2746 12.4138 16.2517 12.8119 16.5067 13.038C16.5267 13.4213 16.8523 13.7168 17.2364 13.699C17.6654 13.6785 17.921 13.3636 17.9338 13.0264C18.0559 12.8101 19.0225 12.3018 20.7273 12.3018C22.1878 12.3018 23.106 12.6748 23.416 12.9177L23.4218 12.9577L23.4218 12.9577L23.4218 12.9577C23.4262 12.9885 23.4306 13.0193 23.4346 13.0502C23.494 13.5131 23.9544 13.6983 24.2185 13.6983C24.6041 13.6983 24.9167 13.3857 24.9167 13C24.9167 12.8313 24.8814 12.5993 24.7404 12.3493C23.7974 6.96206 19.1761 2.87018 13.6518 2.54754V1.78162C13.6518 1.396 13.3391 1.08337 12.9535 1.08337C12.5679 1.08337 12.2553 1.396 12.2553 1.78162V2.54763ZM20.7273 10.9053C19.7638 10.9053 18.6494 11.0558 17.7887 11.4552C17.5509 9.13489 16.9191 6.17886 15.606 4.25777C19.0976 5.15622 21.9277 7.78631 23.0264 11.2153C22.3585 11.0141 21.5598 10.9053 20.7273 10.9053ZM12.9535 10.9053C14.0561 10.9053 15.3539 11.0439 16.3807 11.4185C15.8663 6.71796 14.2206 3.92289 12.9535 3.92289C11.6399 3.92289 10.1058 6.86594 9.61887 11.4022C10.5343 11.0648 11.7465 10.9053 12.9535 10.9053ZM8.20945 11.4543C7.34619 11.0545 6.2323 10.9053 5.27287 10.9053C4.43964 10.9053 3.64029 11.0144 2.97198 11.2158C4.06375 7.78846 6.86784 5.15874 10.3233 4.25903C9.04292 6.18264 8.43889 9.15538 8.20945 11.4543Z" fill="#767676"/>
</svg>
