<?xml version="1.0" encoding="UTF-8"?>
<svg width="29px" height="29px" viewBox="0 0 29 29" version="1.1" xmlns="http://www.w3.org/2000/svg" xmlns:xlink="http://www.w3.org/1999/xlink">
    <title>Group 58</title>
    <g id="Homepage-March-02-2021" stroke="none" stroke-width="1" fill="none" fill-rule="evenodd">
        <g id="Group-58" transform="translate(0.129410, 0.017037)">
            <g id="icons-/-ATM-Copy" transform="translate(14.000000, 13.500000) rotate(15.000000) translate(-14.000000, -13.500000) translate(3.000000, 3.000000)" opacity="0.800000012">
                <g id="Group" transform="translate(0.833333, 0.833333)">
                    <path d="M10.1666667,4.54747351e-13 C10.2030417,4.54747351e-13 10.2393575,0.000253323288 10.2756125,0.000758301906 C9.97024519,0.620667849 9.79213027,1.30586703 9.76520065,2.01422615 C6.82278812,2.22009436 4.5,4.67212236 4.5,7.66666657 L4.5,7.66666657 L4.5,11.8333332 C4.5,12.7962913 3.98958695,13.640036 3.22454527,14.1087829 L3.22454527,14.1087829 L3.123,14.166 L17.209,14.166 L17.1087881,14.1087829 C16.3887488,13.6676093 15.894263,12.8942578 15.8385797,12.0019774 L15.8385797,12.0019774 L15.8333333,11.8333332 L15.8333333,7.66666659 C15.8333333,7.47382907 15.823701,7.2832413 15.8048912,7.09535817 C15.8880039,7.0784021 15.9725172,7.05807935 16.056956,7.03545405 C16.6674024,6.87188542 17.2210502,6.60214968 17.7033565,6.25143556 C17.7884842,6.70914789 17.8333333,7.18266969 17.8333333,7.66666658 L17.8333333,7.66666658 L17.8333333,11.8333332 C17.8333333,12.2015231 18.1318102,12.5 18.5,12.5 C20.9444444,12.5 20.9444444,16.1666666 18.5,16.1666666 L18.5,16.1666666 L1.83333333,16.1666666 C-0.611111111,16.1666666 -0.611111111,12.5 1.83333333,12.5 C2.20152313,12.5 2.5,12.2015231 2.5,11.8333332 L2.5,11.8333332 L2.5,7.66666657 C2.5,3.43248354 5.93248361,4.54747351e-13 10.1666667,4.54747351e-13 Z" id="Combined-Shape" fill="#787878" fill-rule="nonzero"></path>
                    <circle id="Oval" stroke="#FFCB05" stroke-width="2" cx="10.1666667" cy="17.6666667" r="1.66666667"></circle>
                </g>
            </g>
            <circle id="Oval" fill="#9D1D27" cx="20.3705905" cy="7.48296291" r="4"></circle>
        </g>
    </g>
</svg>