<?xml version="1.0" encoding="UTF-8"?>
<svg width="41px" height="34px" viewBox="0 0 41 34" version="1.1" xmlns="http://www.w3.org/2000/svg" xmlns:xlink="http://www.w3.org/1999/xlink">
    <title>Shape</title>
    <g id="Page-1" stroke="none" stroke-width="1" fill="none" fill-rule="evenodd">
        <g id="Group-60" transform="translate(-458.000000, -20.000000)" fill="#FFFFFF" fill-rule="nonzero">
            <g id="respect" transform="translate(458.000000, 20.000000)">
                <path d="M39.3971372,6.23717436 C39.1785236,5.85344414 38.6894057,5.71935432 38.3051101,5.93750999 C37.9206545,6.15566565 37.7862031,6.64359917 38.0048968,7.02724948 C40.3837013,11.2016142 39.6655595,16.4916893 36.2583902,19.8916414 L35.6511568,20.4976027 C35.5044535,20.1134729 35.2771914,19.7531565 34.9675288,19.4442225 L26.7390082,11.233019 C27.2771341,10.9688349 27.7743399,10.6163497 28.2108465,10.1807576 L29.7890286,8.6058015 C30.1017341,8.293751 30.1017341,7.7876778 29.7890286,7.4756273 C29.4762429,7.16357679 28.9692676,7.16357679 28.6564018,7.4756273 L27.0782197,9.05058335 C26.3367752,9.79039476 25.351092,10.1978584 24.3026275,10.1978584 L21.1477847,10.1978584 C20.9354172,10.1978584 20.7317782,10.2820841 20.5814713,10.4319163 L18.1663114,12.8420169 C17.4491306,13.5577753 16.2821502,13.5577753 15.5649694,12.8420169 C14.8477086,12.1263385 14.8477086,10.9618028 15.5649694,10.2461243 L21.0788374,4.74388685 C24.44845,1.381253 29.7090304,0.641761227 33.8710974,2.94558095 C34.2578754,3.15950136 34.7453917,3.02037718 34.9599214,2.63432955 C35.174451,2.24836183 35.0347945,1.76186671 34.6480166,1.54778648 C32.3523333,0.277289436 29.6476104,-0.231181077 27.0316142,0.116509509 C24.5834619,0.441825156 22.3426323,1.46475947 20.5057974,3.08790155 C18.2492724,1.09165734 15.3766254,0 12.3352535,0 C9.04035385,0 5.94276702,1.28040595 3.61289036,3.60532204 C1.28301371,5.93023813 0,9.02157584 0,12.3094934 C0,15.5974908 1.28309379,18.6885888 3.61289036,21.0135848 L3.91470529,21.3147675 C3.96723662,21.3671088 4.02553358,21.4099409 4.08711376,21.4447019 C4.1406861,22.1360876 4.43096976,22.8124501 4.95972644,23.3400192 C5.54822149,23.9272015 6.32081644,24.2206329 7.09365162,24.2206329 C7.13377082,24.2206329 7.1739701,24.2193543 7.2140893,24.2177561 C7.21248774,24.2581908 7.21112641,24.2986255 7.21112641,24.3393 C7.21112641,25.1436791 7.52503315,25.8999521 8.09503012,26.468755 C8.68352518,27.0559374 9.45612012,27.3494486 10.2289553,27.3493687 C10.2690745,27.3493687 10.3092738,27.3480901 10.349393,27.3464919 C10.3477914,27.3869266 10.3464301,27.4273614 10.3464301,27.4680358 C10.3464301,28.2724149 10.6603368,29.0286879 11.2304139,29.5974908 C11.8188289,30.1845933 12.591584,30.4781045 13.3643391,30.4781045 C13.4049387,30.4781045 13.4455384,30.476826 13.4861381,30.4752277 C13.4536263,31.2863992 13.7464725,32.1083586 14.3657176,32.7263864 C14.9357946,33.2951894 15.6936552,33.6084385 16.4996428,33.6084385 C17.3057905,33.6084385 18.063651,33.2951894 18.6335679,32.7263864 L19.7528216,31.6093975 L21.2646189,33.117868 C21.8346159,33.6867508 22.5924764,34 23.3985441,34 C24.2046117,34 24.9624723,33.6867508 25.5324693,33.1179479 C26.1591616,32.4925683 26.4519277,31.6582228 26.4110878,30.837542 C26.4613769,30.8400192 26.5118262,30.8414576 26.5621955,30.8414576 C27.3350306,30.8414576 28.1079459,30.5479463 28.6962808,29.9607639 C29.3152056,29.3431357 29.6080517,28.5218156 29.5758603,27.7110436 C29.6163799,27.7126418 29.6568995,27.7140003 29.6976593,27.7140003 C30.503727,27.7140003 31.2615875,27.4007512 31.8315845,26.8319482 C32.4505093,26.21432 32.7433554,25.3929998 32.711164,24.5822279 C32.7516836,24.5838261 32.7922032,24.5851846 32.832963,24.5851846 C33.6390306,24.5851846 34.3968912,24.2719354 34.9668882,23.7031325 C35.256371,23.414256 35.474344,23.0805498 35.6213677,22.7243887 C35.6992838,22.6865111 35.7725554,22.6360876 35.8373387,22.5715199 L37.3903763,21.0217357 C41.3062828,17.1148314 42.1312489,11.0350807 39.3971372,6.23717436 Z M7.0937317,22.6237015 C6.71544205,22.6237015 6.35981454,22.476746 6.09227311,22.2097651 C5.82481176,21.942864 5.67746778,21.5879815 5.67746778,21.2104843 C5.67746778,20.833067 5.82473168,20.4781045 6.09227311,20.2112035 L7.47234166,18.8340259 C7.73980301,18.5670449 8.09551059,18.4200895 8.47380024,18.4200895 C8.85200981,18.4200895 9.20771739,18.5670449 9.47517875,18.8340259 C10.0273984,19.3850887 10.0273984,20.2816046 9.47517875,20.8325875 L8.0951102,22.209845 C7.82764885,22.4766661 7.47210142,22.6237015 7.0937317,22.6237015 Z M9.22781703,25.3386607 C8.9602756,25.0717596 8.8130117,24.7167972 8.8130117,24.3393799 C8.8130117,23.9618827 8.9602756,23.6070002 9.22781703,23.3400991 L10.6079657,21.9628416 C10.6079657,21.9628416 10.6079657,21.9628416 10.6079657,21.9627617 C10.875427,21.6958606 11.2310545,21.5488253 11.6093442,21.5488253 C11.9875537,21.5488253 12.3432613,21.6957807 12.6107227,21.9627617 C13.1629423,22.5138245 13.1629423,23.4103404 12.6107227,23.9613233 L11.2306541,25.3385808 C10.6783544,25.8895637 9.77971633,25.8895637 9.22781703,25.3386607 Z M12.3631207,28.4673965 C12.0955793,28.2004954 11.9483154,27.845533 11.9483154,27.4681157 C11.9483154,27.0906185 12.0955793,26.735736 12.3631207,26.4688349 L13.7432693,25.0915774 C13.7432693,25.0915774 13.7432693,25.0915774 13.7432693,25.0914975 C14.0107307,24.8245965 14.3663582,24.6775611 14.7446478,24.6775611 C15.1229375,24.6775611 15.478565,24.8245165 15.7460264,25.0914975 C16.298246,25.6426402 16.298246,26.5391561 15.7460264,27.090139 L14.3658777,28.4673965 C13.8137382,29.0184593 12.9153403,29.0184593 12.3631207,28.4673965 Z M18.8814101,30.2190347 L17.5012615,31.5963721 C17.2338001,31.8632731 16.8781726,32.0103085 16.499883,32.0103085 C16.1216734,32.0103085 15.7659658,31.863353 15.4985045,31.5963721 C14.9462849,31.0452293 14.9462849,30.1487134 15.4985045,29.5977305 L16.8786531,28.2204731 C16.8786531,28.2204731 16.8786531,28.2204731 16.8786531,28.2203932 C17.1461145,27.9534921 17.501742,27.8064568 17.8800316,27.8064568 C18.2582412,27.8064568 18.6139488,27.9534122 18.8814101,28.2203932 C19.1489516,28.4872942 19.2962155,28.8422567 19.2962155,29.219674 C19.2962955,29.597331 19.1489516,29.9521336 18.8814101,30.2190347 Z M33.834902,22.5729583 C33.5674407,22.8399393 33.2117331,22.9868947 32.8335235,22.9868947 C32.4552339,22.9868947 32.0996064,22.8399393 31.832145,22.5729583 L28.4987278,19.2465239 C28.4985676,19.2463641 28.4984875,19.2462842 28.4983274,19.2461243 L25.3632639,16.1176283 C25.0504783,15.8055778 24.5435029,15.8055778 24.2306372,16.1176283 C23.9179316,16.4296788 23.9179316,16.935752 24.2306372,17.2478025 L30.6995183,23.7029727 C31.2517379,24.2541154 31.2517379,25.1506313 30.6995183,25.7016142 C30.4320569,25.9685952 30.0763493,26.1155506 29.6981398,26.1155506 C29.3198501,26.1155506 28.9642226,25.9685952 28.6967613,25.7016142 L22.2278801,19.2463641 C21.9150945,18.9343935 21.4081191,18.9343935 21.0952534,19.2463641 C20.7825478,19.5584146 20.7825478,20.0644878 21.0952534,20.3766182 L24.2299965,23.5047147 C24.2302368,23.5049545 24.230477,23.5052741 24.2307172,23.5055138 L27.5642146,26.8318683 C28.1164342,27.383011 28.1164342,28.2796068 27.5642947,28.8305897 C27.011995,29.3816525 26.113437,29.3816525 25.5614576,28.8305897 L22.2279602,25.5040754 C22.1663,25.4426243 22.0970323,25.393719 22.0232802,25.3564807 L21.0725112,24.4077034 C20.7597255,24.0957328 20.2527501,24.0957328 19.9398844,24.4077034 C19.6271789,24.7197539 19.6271789,25.2258271 19.9398844,25.5379575 L24.400403,29.9889724 C24.9526227,30.5401151 24.9526227,31.436631 24.400403,31.9876139 C24.1329417,32.2545949 23.7772341,32.4015503 23.3990245,32.4015503 C23.0207349,32.4015503 22.6651074,32.2545949 22.397646,31.9876139 L20.7003075,30.2939108 C20.8296338,29.95533 20.8980207,29.5927761 20.8980207,29.2195941 C20.8980207,28.415215 20.5841139,27.658942 20.014117,27.090139 C19.4440399,26.5213361 18.6861793,26.2080869 17.8801918,26.2080869 C17.8394319,26.2080869 17.7989123,26.2094454 17.7583928,26.2110436 C17.7905041,25.4002717 17.4977381,24.5789516 16.8788133,23.9613233 C16.3087362,23.3925204 15.5508757,23.0792712 14.7448881,23.0792712 C14.7041283,23.0792712 14.6636087,23.0806297 14.6230891,23.0822279 C14.6552805,22.271456 14.3624344,21.4501358 13.7435096,20.8325076 C13.1734325,20.2637047 12.415572,19.9504555 11.6095844,19.9504555 C11.5688246,19.9504555 11.528305,19.951814 11.4877854,19.9534122 C11.5199768,19.1426402 11.2271307,18.3213201 10.6082059,17.7036919 C9.4315361,16.529487 7.51678509,16.5295669 6.34011529,17.7036919 L4.96004675,19.0808694 C4.78595664,19.2545949 4.63837242,19.4447019 4.51569254,19.6459166 C2.6345744,17.6520697 1.60204545,15.0600128 1.60204545,12.3093335 C1.60204545,9.44829791 2.7184964,6.75843056 4.74591751,4.73541633 C6.77317847,2.71240211 9.46877249,1.59821 12.335734,1.59821 C14.9411599,1.59821 17.4048473,2.51845933 19.354112,4.2047307 L14.4327431,9.11579031 C13.782828,9.76442385 13.4248782,10.6267381 13.4248782,11.5439508 C13.4248782,12.4612434 13.782828,13.3235576 14.4327431,13.9721911 C15.1036386,14.6416014 15.9848998,14.9763465 16.8660808,14.9763465 C17.7472619,14.9763465 18.628523,14.6416813 19.2994186,13.9721911 L21.4801095,11.7960684 L24.303108,11.7960684 C24.5362158,11.7960684 24.766761,11.7801662 24.9945036,11.7519578 L33.8353825,20.5741569 C34.3870416,21.1254595 34.3870416,22.0220553 33.834902,22.5729583 Z" id="Shape"></path>
            </g>
        </g>
    </g>
</svg>