<?xml version="1.0" encoding="UTF-8"?>
<svg width="33px" height="41px" viewBox="0 0 33 41" version="1.1" xmlns="http://www.w3.org/2000/svg" xmlns:xlink="http://www.w3.org/1999/xlink">
    <title>protest</title>
    <g id="Page-1" stroke="none" stroke-width="1" fill="none" fill-rule="evenodd">
        <g id="Group-60" transform="translate(-834.000000, -13.000000)" fill="#FFFFFF" fill-rule="nonzero">
            <g id="protest" transform="translate(834.000000, 13.000000)">
                <path d="M5.98730464,13.2124352 L5.98730464,16.9130803 C5.17419415,17.1944896 4.50461653,17.7863005 4.12824683,18.5863575 L2.53112035,21.9892902 C1.50109419,24.1856321 1.99852934,26.7810389 3.76917219,28.4475699 L8.41184642,32.8157591 L8.41184642,40.1968912 C8.41184642,40.6404482 8.77374968,41 9.22002701,41 L12.8568397,41 C13.303117,41 13.6650203,40.6404482 13.6650203,40.1968912 C13.6650203,39.7533342 13.303117,39.3937824 12.8568397,39.3937824 L10.0282076,39.3937824 L10.0282076,32.4701813 C10.0282076,32.2495674 9.93688319,32.038671 9.77565116,31.887044 L4.88066296,27.2812953 C3.61586034,26.0908472 3.26042251,24.2367902 3.99619012,22.6679974 L5.5928317,19.2659482 C5.98035429,18.4422798 6.94879709,18.1205544 7.7413798,18.4882979 L15.7250726,22.1874171 C14.6061466,23.6889896 12.5385781,24.2559041 10.7698749,23.4366528 L8.5724319,22.4183109 C8.1678567,22.2307047 7.68698924,22.4048187 7.49844071,22.8066943 C7.30973054,23.2086503 7.48478246,23.6865 7.88927685,23.8740259 L10.0868007,24.8924482 C10.9875988,25.3097435 11.9996833,25.4955026 13.0449841,25.3889301 C14.750326,27.2197772 15.6854717,29.5857358 15.6854717,32.0951295 C15.6854717,32.5386865 16.047375,32.8982383 16.4936523,32.8982383 C16.9399296,32.8982383 17.3018329,32.5386865 17.3018329,32.0951295 C17.3018329,29.4583627 16.4135616,26.9578834 14.7788547,24.9295518 C15.9824781,24.3974922 17.005958,23.449101 17.6050623,22.1724793 C17.6053855,22.1718368 17.6055472,22.1711943 17.6058705,22.1705518 C18.0072938,22.3484404 18.4510657,22.4481865 18.9181941,22.4481865 C19.6397377,22.4481865 20.30681,22.2119119 20.8453007,21.8132487 C21.3643143,22.8996943 22.4787953,23.6528497 23.7672776,23.6528497 C24.2650361,23.6528497 24.7367711,23.5402539 25.1583181,23.3397176 C24.9354219,24.7814585 24.5743268,26.0960674 24.1999775,27.4565337 C23.5899628,29.6735155 22.959097,31.9659896 22.959097,34.8963731 L22.959097,39.3937824 L20.130465,39.3937824 C19.6841877,39.3937824 19.3222844,39.7533342 19.3222844,40.1968912 C19.3222844,40.6404482 19.6841877,41 20.130465,41 L23.7672776,41 C24.213555,41 24.5754582,40.6404482 24.5754582,40.1968912 L24.5754582,34.8963731 C24.5754582,32.1817047 25.1503979,30.0922565 25.7591195,27.8802539 C26.3691342,25.663272 27,23.3707979 27,20.4404145 L27,15.6217617 C27,13.8504249 25.5498007,12.4093264 23.7672776,12.4093264 C23.045734,12.4093264 22.3786617,12.645601 21.840171,13.0442642 C21.3211574,11.9578187 20.2066764,11.2046632 18.9181941,11.2046632 C18.1966505,11.2046632 17.5295782,11.4409378 16.9910875,11.839601 C16.4720739,10.7531554 15.3575929,10 14.0691106,10 C13.1043046,10 12.2373692,10.4227565 11.6445688,11.0910233 C11.0517683,10.4227565 10.184833,10 9.22002701,10 C7.4375039,10 5.98730464,11.4410984 5.98730464,13.2124352 L5.98730464,13.2124352 Z M22.1509165,15.6217617 C22.1509165,14.7360933 22.8760161,14.015544 23.7672776,14.015544 C24.6585392,14.015544 25.3836388,14.7360933 25.3836388,15.6217617 L25.3836388,20.4404145 C25.3836388,21.3260829 24.6585392,22.0466321 23.7672776,22.0466321 C22.8760161,22.0466321 22.1509165,21.3260829 22.1509165,20.4404145 L22.1509165,15.6217617 Z M17.3018329,14.4170984 C17.3018329,13.5314301 18.0269325,12.8108808 18.9181941,12.8108808 C19.8094556,12.8108808 20.5345553,13.5314301 20.5345553,14.4170984 L20.5345553,19.2357513 C20.5345553,20.1214197 19.8094556,20.8419689 18.9181941,20.8419689 C18.0269325,20.8419689 17.3018329,20.1214197 17.3018329,19.2357513 L17.3018329,14.4170984 Z M12.4527494,13.2124352 C12.4527494,12.3267668 13.177849,11.6062176 14.0691106,11.6062176 C14.9603721,11.6062176 15.6854717,12.3267668 15.6854717,13.2124352 L15.6854717,19.2357513 C15.6854717,19.6932021 15.7828575,20.1283264 15.9571012,20.5226528 L12.4527494,18.8990078 L12.4527494,13.2124352 Z M7.60366583,13.2124352 C7.60366583,12.3267668 8.32876545,11.6062176 9.22002701,11.6062176 C10.1112886,11.6062176 10.8363882,12.3267668 10.8363882,13.2124352 L10.8363882,18.1501088 L8.42485812,17.0328238 C8.16236107,16.9109922 7.88604412,16.8258627 7.60366583,16.7776762 L7.60366583,13.2124352 Z" id="Shape"></path>
                <path d="M18,3.28571429 L18,0.714285714 C18,0.319785714 17.5522,0 17,0 C16.4478,0 16,0.319785714 16,0.714285714 L16,3.28571429 C16,3.68021429 16.4478,4 17,4 C17.5522,4 18,3.68021429 18,3.28571429 Z" id="Path"></path>
                <path d="M9.7141551,5.91253011 C9.98744127,5.73244461 10.0811459,5.33359534 9.92339072,5.02156019 L9.06633603,3.32636925 C8.90858083,3.0143341 8.55913107,2.90736553 8.2858449,3.08745103 C8.01255873,3.26753653 7.91885409,3.66638581 8.07660928,3.97842095 L8.93366397,5.6736119 C9.09090493,5.98466867 9.44012615,6.09313741 9.7141551,5.91253011 Z" id="Path"></path>
                <path d="M2.67368501,9.93368242 L0.978449185,9.07663224 C0.666144869,8.91882073 0.267415488,9.01258202 0.0874556706,9.28592389 C-0.0926345997,9.55920863 0.0143368032,9.90865655 0.326314986,10.0664109 L2.02155082,10.9234611 C2.33222447,11.0804727 2.73173657,10.9887112 2.91254433,10.7141695 C3.0926346,10.4408276 2.9856632,10.0914368 2.67368501,9.93368242 Z" id="Path"></path>
                <path d="M24.066336,5.673738 L24.9233907,3.97847646 C25.0811459,3.66649355 24.9874413,3.26756244 24.7141551,3.08746944 C24.4406404,2.90731121 24.0914192,3.01441469 23.933664,3.3263976 L23.0766093,5.02165914 C22.9188541,5.33364206 23.0125587,5.73257317 23.2858449,5.91266617 C23.5580455,6.09184599 23.9078952,5.98709069 24.066336,5.673738 Z" id="Path"></path>
                <path d="M30.9784492,10.9233794 L32.673685,10.0663601 C32.9856632,9.90861138 33.0926346,9.55923317 32.9125443,9.28590114 C32.7323888,9.01262624 32.3335942,8.91881119 32.0215508,9.07661702 L30.326315,9.93363634 C30.0143368,10.091385 29.9073654,10.4407632 30.0874557,10.7140953 C30.2669589,10.9865703 30.6656231,11.0815852 30.9784492,10.9233794 L30.9784492,10.9233794 Z" id="Path"></path>
                <circle id="Oval" cx="17" cy="40" r="1"></circle>
            </g>
        </g>
    </g>
</svg>