<?xml version="1.0" encoding="UTF-8"?>
<svg width="38px" height="38px" viewBox="0 0 38 38" version="1.1" xmlns="http://www.w3.org/2000/svg" xmlns:xlink="http://www.w3.org/1999/xlink">
    <title>customer</title>
    <g id="Page-1" stroke="none" stroke-width="1" fill="none" fill-rule="evenodd">
        <g id="Group-60" transform="translate(-118.000000, -254.000000)" fill="#FFFFFF" fill-rule="nonzero">
            <g id="Group-39-Copy-2" transform="translate(0.000000, 237.000000)">
                <g id="customer" transform="translate(118.000000, 17.000000)">
                    <path d="M36.8113047,18.2651046 C35.5407542,17.1917018 33.5325437,17.0996458 32.2144932,18.5496412 L28.9424119,22.1502463 C28.5193651,20.7565496 27.2495568,19.7417278 25.7527134,19.7417278 L19.9135546,19.7417278 C19.4704688,19.7417278 19.3221055,19.568267 18.5524573,18.9604695 C15.617997,16.3381681 11.2104433,16.3465368 8.28488929,18.9855756 L6.13863197,20.9224025 C5.17386266,20.3989769 4.04729651,20.3860434 3.07725767,20.8828413 L0.615570728,22.14416 C0.0656099158,22.4264142 -0.156972065,23.1118126 0.117563029,23.6755603 L6.79687791,37.3689977 C7.07222941,37.9327453 7.74086598,38.1609072 8.29082679,37.8794898 L10.7525137,36.6174103 C11.9659158,35.9959185 12.641232,34.7269157 12.597443,33.4352413 L25.7526392,33.4352413 C28.1920605,33.4352413 30.5231225,32.2408724 31.9866417,30.2401389 L37.3308358,22.9354608 C38.3675973,21.519625 38.2035739,19.4434969 36.8113047,18.2651046 Z M9.75649833,34.5762787 L8.29075257,35.3278661 L2.6067109,23.6755603 L4.07319885,22.9239728 C4.62315966,22.6424794 5.29105404,22.8699565 5.56640554,23.434465 L10.254506,33.0457153 C10.5291153,33.6093868 10.3064591,34.2940245 9.75649833,34.5762787 Z M35.5496604,21.5660334 L30.2055405,28.8707115 C29.1598728,30.3001655 27.4952208,31.1529384 25.7527134,31.1529384 L11.8204471,31.1529384 L7.64883475,22.599875 L9.75575614,20.6988054 C11.8522869,18.8083109 15.0138565,18.8083109 17.1103873,20.6988054 C18.3453128,21.8132911 19.1134024,22.0240308 19.9134804,22.0240308 L25.7526392,22.0240308 C26.3664281,22.0240308 26.865846,22.5360445 26.865846,23.1651442 C26.865846,23.794244 26.3663539,24.3062577 25.7526392,24.3062577 L20.0671132,24.3062577 C19.4525821,24.3062577 18.9539064,24.8175106 18.9539064,25.4473711 C18.9539064,26.0772317 19.4526563,26.5884846 20.0671132,26.5884846 L26.4985375,26.5884846 C27.4224865,26.5884846 28.3131113,26.1913506 28.9424119,25.4983442 L33.8435202,20.1053869 C34.2918013,19.612393 34.9789926,19.6534758 35.400555,20.0315899 C35.84134,20.4271262 35.8889142,21.1034712 35.5496604,21.5660334 Z" id="Shape"></path>
                    <path d="M22.6529789,7.72530391 C23.3905762,6.91249935 23.8452447,5.81363952 23.8452447,4.603754 C23.8452447,2.11167666 21.9290288,0 19.5358779,0 C17.1606838,0 15.1546834,2.10790284 15.1546834,4.603754 C15.1546834,5.77658064 15.5921133,6.88374287 16.3864544,7.73436107 C14.4163678,8.89511149 13,11.1230217 13,13.7358612 L13,14.8679306 C13,15.4927991 13.4826813,16 14.0773417,16 L24.9226583,16 C25.5173187,16 26,15.4927991 26,14.8679306 L26,13.7358612 C26,11.1743456 24.6591229,8.91171628 22.6529789,7.72530391 Z M19.5358779,2.26421432 C20.7037223,2.26421432 21.6905613,3.33590267 21.6905613,4.60382948 C21.6905613,5.85213244 20.723834,6.86796832 19.5358779,6.86796832 C18.3292465,6.86796832 17.3093669,5.83099907 17.3093669,4.60382948 C17.3093669,3.35779081 18.3500765,2.26421432 19.5358779,2.26421432 Z M15.1546834,13.7358612 C15.1546834,11.24001 17.1606838,9.13210716 19.5358779,9.13210716 C21.9117902,9.13210716 23.8452447,11.1969885 23.8452447,13.7358612 L15.1546834,13.7358612 Z" id="Shape"></path>
                </g>
            </g>
        </g>
    </g>
</svg>