<svg xmlns="http://www.w3.org/2000/svg" viewBox="0 0 100 100"><defs><style>.cls-1{fill:#e6e6e6;}.cls-2{fill:#b3b3b3;}</style></defs><title>tatacapital-svg-loader2</title><g id="Layer_2" data-name="Layer 2"><g id="Layer_1-2" data-name="Layer 1"><rect class="cls-1" width="100" height="100"/><path class="cls-2" d="M41.48,47.12a.58.58,0,0,0-.41-.22c-.65,0-1.3,0-2,0a.42.42,0,0,0-.46.33c-.26.73-.56,1.44-.83,2.16-.5,1.3-1,2.59-1.49,3.88h2.48c.19-.63.39-1.25.59-1.88s.34-1,.51-1.52c0-.11.09-.22.16-.39a1.84,1.84,0,0,1,.14.25l1.14,3.36a.53.53,0,0,1,0,.18h2.47a.43.43,0,0,0,0-.11C43,51.14,42.27,49.13,41.48,47.12Z"/><path class="cls-2" d="M29.11,47.28a.52.52,0,0,0-.57-.4c-.51,0-1,0-1.53,0-.78,0-.61-.1-.89.62Q25,50.38,23.89,53.26h2.48c.35-1.09.71-2.18,1.06-3.26.05-.16.11-.3.16-.45l.11,0L29,53.26h2.48c-.06-.12-.13-.24-.18-.37C30.56,51,29.83,49.16,29.11,47.28Z"/><path class="cls-2" d="M24.61,48.38q0-.6,0-1.2c0-.21-.09-.29-.29-.29H18.8c-.22,0-.3.1-.3.32,0,.38,0,.77,0,1.16,0,.2.08.29.29.29.4,0,.8,0,1.2,0s.34.08.34.34c0,1,0,1.93,0,2.89,0,.46,0,.92,0,1.38h2.4c0-1.46,0-2.92,0-4.38,0-.08.16-.21.25-.21.44,0,.88,0,1.32,0C24.52,48.66,24.61,48.59,24.61,48.38Z"/><path class="cls-2" d="M37,48.45c0-.51,0-1,0-1.53H30.94v1.46c0,.21.09.28.3.28h1.23c.23,0,.31.08.31.31,0,.4,0,.8,0,1.2l0,3.1h2.48c0-1.46,0-2.92,0-4.38,0-.07.16-.21.25-.21.42,0,.85,0,1.27,0A.37.37,0,0,0,37,48.45Z"/><path class="cls-2" d="M55.24,46.83a.45.45,0,0,0-.5.37c-.4,1.3-.82,2.59-1.23,3.88-.23.73-.44,1.45-.66,2.18H54c.16-.57.31-1.14.49-1.7a.4.4,0,0,1,.32-.18c.52,0,1,0,1.57,0a.49.49,0,0,1,.34.25c.19.54.34,1.09.51,1.63h1.2l-1.77-5.4C56.3,46.83,56.31,46.84,55.24,46.83Zm-.56,3.73.82-2.8h.08l.84,2.81Z"/><path class="cls-2" d="M75,47.83c-.32-1-.32-1-1.38-1a.42.42,0,0,0-.48.35q-.44,1.43-.9,2.85c-.35,1.08-.72,2.15-1.07,3.23h1.2c.16-.57.3-1.14.48-1.7a.4.4,0,0,1,.32-.18q.78,0,1.56,0a.49.49,0,0,1,.35.25c.19.54.35,1.09.51,1.63h1.2c-.06-.17-.13-.35-.19-.53C76.05,51.1,75.52,49.46,75,47.83Zm-1.92,2.73.81-2.81.09,0,.84,2.79Z"/><path class="cls-2" d="M62.1,46.92a18.88,18.88,0,0,0-2.38,0c-.27,0-.33.14-.33.38,0,1.26,0,2.52,0,3.78,0,.74,0,1.47,0,2.21H60.5V50.91a13.35,13.35,0,0,0,1.81-.31,1.84,1.84,0,0,0,1.31-2.13A1.66,1.66,0,0,0,62.1,46.92ZM61.44,50c-.91.12-1,.07-1-.85V48.8c0-.28,0-.55,0-.83s.1-.34.32-.35a5,5,0,0,1,.67,0,1.08,1.08,0,0,1,1.09,1.14A1.18,1.18,0,0,1,61.44,50Z"/><path class="cls-2" d="M51.92,47.82l.21-.78a3.81,3.81,0,0,0-4,.62,3.47,3.47,0,0,0-.93,2.82,2.86,2.86,0,0,0,1.9,2.62,3.36,3.36,0,0,1,.33.16h2.18c.48-.29.51-.43.21-1-1.16.27-2.33.39-3.09-.77a2.54,2.54,0,0,1,0-2.93C49.55,47.42,50.71,47.49,51.92,47.82Z"/><path class="cls-2" d="M71.51,47.28c0-.32-.07-.46-.44-.45-1.32,0-2.65,0-4,0h-.39a5.58,5.58,0,0,1,0,.58c0,.27.08.35.34.33h1.16c.26,0,.35.08.35.34,0,.8,0,1.6,0,2.4s0,1.85,0,2.77h1.13c0-1.75,0-3.5,0-5.24a.42.42,0,0,1,.26-.26,7.49,7.49,0,0,1,1.16,0C71.43,47.79,71.51,47.63,71.51,47.28Z"/><path class="cls-2" d="M77.75,53.26H81.5a4.51,4.51,0,0,1,0-.52c0-.34-.11-.43-.43-.42-.61,0-1.22,0-1.84,0-.29,0-.38-.08-.38-.38,0-1.48,0-3,0-4.46,0-.74.09-.63-.67-.66-.34,0-.42.12-.41.43,0,1.13,0,2.25,0,3.38C77.77,51.51,77.76,52.39,77.75,53.26Z"/><path class="cls-2" d="M65.76,46.87a3,3,0,0,0-.85,0c-.08,0-.12.35-.12.53,0,2,0,3.9,0,5.85h1a.36.36,0,0,0,0-.11V47.08C65.86,47,65.8,46.87,65.76,46.87Z"/></g></g></svg>