<?xml version="1.0" encoding="UTF-8"?>
<svg width="40px" height="39px" viewBox="0 0 40 39" version="1.1" xmlns="http://www.w3.org/2000/svg" xmlns:xlink="http://www.w3.org/1999/xlink">
    <title>Group 22</title>
    <defs>
        <linearGradient x1="19.1685619%" y1="0.478525153%" x2="81.1634349%" y2="100%" id="linearGradient-1">
            <stop stop-color="#FFDF66" offset="0%"></stop>
            <stop stop-color="#BA5B03" offset="100%"></stop>
        </linearGradient>
        <linearGradient x1="0.532670455%" y1="32.1722691%" x2="100%" y2="68%" id="linearGradient-2">
            <stop stop-color="#FFDF66" offset="0%"></stop>
            <stop stop-color="#BA5B03" offset="100%"></stop>
        </linearGradient>
    </defs>
    <g id="Jan-Drop" stroke="none" stroke-width="1" fill="none" fill-rule="evenodd">
        <g id="Group-9" transform="translate(-449.000000, -368.000000)">
            <g id="Group-5-Copy-3" transform="translate(429.000000, 189.000000)">
                <g id="Group-22" transform="translate(20.248107, 179.000000)">
                    <circle id="Oval" fill="#FFFFFF" cx="19.5" cy="19.5" r="19.5"></circle>
                    <g id="noun_Shopping-Bag_4306936" transform="translate(16.751893, 18.000000)"></g>
                    <g id="Group-7-Copy" transform="translate(6.751893, 7.500000)">
                        <path d="M19.9271,15.2872708 L18.967625,10.223375 C18.6814665,8.74913024 17.6284297,7.57347896 16.25,7.1893125 L16.25,5.45833333 C16.25,3.2722062 14.5710678,1.5 12.5,1.5 C10.4289322,1.5 8.75,3.2722062 8.75,5.45833333 L8.75,7.1893125 C7.37157026,7.57347896 6.31853351,8.74913024 6.032375,10.223375 L5.0729,15.2872708 C5.02441993,15.5428449 5,15.802853 5,16.0635 L5,16.5416667 C5.00243835,18.7267268 6.67994303,20.4974262 8.75,20.5 L16.25,20.5 C18.320057,20.4974262 19.9975616,18.7267268 20,16.5416667 L20,16.0635 C20,15.802853 19.9755801,15.5428449 19.9271,15.2872708 L19.9271,15.2872708 Z M12.5,3.08333333 C13.7420752,3.08477315 14.748636,4.14725391 14.75,5.45833333 L14.75,7.04166667 L10.25,7.04166667 L10.25,5.45833333 C10.251364,4.14725391 11.2579248,3.08477315 12.5,3.08333333 L12.5,3.08333333 Z M18.5,16.5416667 C18.498636,17.8527461 17.4920752,18.9152269 16.25,18.9166667 L8.75,18.9166667 C7.50792475,18.9152269 6.50136403,17.8527461 6.5,16.5416667 L6.5,16.0635 C6.5,15.9072248 6.51458902,15.7513299 6.543575,15.5980792 L7.50305,10.5341833 C7.71562045,9.42542023 8.63777738,8.62749298 9.709475,8.625 L15.290525,8.625 C16.3622226,8.62749298 17.2843795,9.42542023 17.49695,10.5341833 L18.456425,15.5980792 C18.485411,15.7513299 18.5,15.9072248 18.5,16.0635 L18.5,16.5416667 Z" id="Shape" fill="url(#linearGradient-1)" fill-rule="nonzero"></path>
                        <path d="M14.1666667,9.5 C13.7064294,9.5 13.3333333,9.83578644 13.3333333,10.25 C13.3333333,10.6642136 12.9602373,11 12.5,11 C12.0397627,11 11.6666667,10.6642136 11.6666667,10.25 C11.6666667,9.83578644 11.2935706,9.5 10.8333333,9.5 C10.373096,9.5 10,9.83578644 10,10.25 C10,11.4926407 11.1192881,12.5 12.5,12.5 C13.8807119,12.5 15,11.4926407 15,10.25 C15,9.83578644 14.626904,9.5 14.1666667,9.5 Z" id="Path" fill="url(#linearGradient-2)" fill-rule="nonzero"></path>
                        <rect id="Rectangle" x="0" y="0" width="24" height="24"></rect>
                    </g>
                </g>
            </g>
        </g>
    </g>
</svg>