<?xml version="1.0" encoding="UTF-8"?>
<svg width="14px" height="22px" viewBox="0 0 14 22" version="1.1" xmlns="http://www.w3.org/2000/svg" xmlns:xlink="http://www.w3.org/1999/xlink">
    <title>Fees</title>
    <defs>
        <linearGradient x1="35.3114295%" y1="0.478525153%" x2="64.8467388%" y2="100%" id="linearGradient-1">
            <stop stop-color="#FFDF66" offset="0%"></stop>
            <stop stop-color="#BA5B03" offset="100%"></stop>
        </linearGradient>
        <linearGradient x1="4.2028378%" y1="0.478525153%" x2="96.2903118%" y2="100%" id="linearGradient-2">
            <stop stop-color="#FFDF66" offset="0%"></stop>
            <stop stop-color="#BA5B03" offset="100%"></stop>
        </linearGradient>
        <linearGradient x1="3.89865028%" y1="0.478525153%" x2="96.5977749%" y2="100%" id="linearGradient-3">
            <stop stop-color="#FFDF66" offset="0%"></stop>
            <stop stop-color="#BA5B03" offset="100%"></stop>
        </linearGradient>
    </defs>
    <g id="Desktop" stroke="none" stroke-width="1" fill="none" fill-rule="evenodd">
        <g id="Group-5" transform="translate(-241.000000, -1345.000000)" fill-rule="nonzero">
            <g id="Fees" transform="translate(241.000000, 1345.000000)">
                <path d="M6.30551181,15.6120426 L7.20469353,15.6120426 C7.40700942,15.6120426 7.56436622,15.4546858 7.56436622,15.2523699 L7.56436622,14.510545 C8.73330245,14.2857496 9.52008646,13.2067315 9.40768874,12.0153157 C9.29529103,10.8463795 8.23875251,9.92471823 7.00237764,9.92471823 L6.41790953,9.92471823 C6.21559364,9.92471823 6.0357573,9.83480006 5.90088004,9.6999228 C5.76600278,9.542566 5.69856415,9.36272966 5.72104369,9.16041377 C5.76600278,8.80074108 6.08071638,8.53098657 6.48534816,8.53098657 L7.27213216,8.53098657 C7.47444805,8.53098657 7.65428439,8.68834337 7.69924348,8.86817971 C7.74420256,9.02553651 7.87907982,9.13793423 8.03643662,9.13793423 L8.93561834,9.13793423 C9.04801606,9.13793423 9.13793423,9.09297514 9.20537286,9.02553651 C9.27281149,8.95809788 9.29529103,8.84570017 9.29529103,8.755782 C9.20537286,7.81164119 8.48602748,7.06981627 7.56436622,6.93493901 L7.56436622,6.1931141 C7.56436622,5.99079821 7.40700942,5.83344141 7.20469353,5.83344141 L6.30551181,5.83344141 C6.10319592,5.83344141 5.94583912,5.99079821 5.94583912,6.1931141 L5.94583912,6.95741856 C4.95673923,7.18221399 4.19243477,7.99147754 4.1025166,8.98057743 C4.03507797,9.63248417 4.23739386,10.2843909 4.68698472,10.7789409 C5.13657558,11.2734908 5.74352324,11.5432453 6.39542998,11.5432453 L7.06981627,11.5432453 C7.27213216,11.5432453 7.4519685,11.6331635 7.58684576,11.7680408 C7.72172302,11.9253976 7.78916165,12.1052339 7.76668211,12.3300293 C7.72172302,12.689702 7.40700942,12.9594565 7.00237764,12.9594565 L6.21559364,12.9594565 C6.01327775,12.9594565 5.83344141,12.8245793 5.78848232,12.6222634 C5.74352324,12.4649066 5.60864598,12.3525089 5.45128918,12.3525089 L4.55210746,12.3525089 C4.43970974,12.3525089 4.34979157,12.397468 4.28235294,12.4649066 C4.21491431,12.5323452 4.19243477,12.6447429 4.19243477,12.7346611 C4.28235294,13.6788019 5.00169832,14.4206268 5.92335958,14.5555041 L5.92335958,15.297329 C5.94583912,15.4546858 6.10319592,15.6120426 6.30551181,15.6120426 Z" id="Path" fill="url(#linearGradient-1)"></path>
                <path d="M0.820503319,13.971036 C1.24761464,13.971036 1.60728732,13.6113633 1.60728732,13.184252 L1.60728732,5.78848232 C1.60728732,4.68698472 2.50646904,3.81028254 3.58548711,3.81028254 L10.7564613,3.81028254 L9.92471823,4.64202563 C9.61000463,4.95673923 9.61000463,5.45128918 9.92471823,5.76600278 C10.082075,5.92335958 10.2843909,5.99079821 10.4867068,5.99079821 C10.6890227,5.99079821 10.8913386,5.92335958 11.0486954,5.76600278 L13.2516906,3.56300757 C13.4090474,3.40565076 13.476486,3.20333488 13.476486,3.00101899 C13.476486,2.7987031 13.3865679,2.59638722 13.2516906,2.43903042 L11.0486954,0.236035201 C10.7339818,-0.0786784005 10.2394318,-0.0786784005 9.92471823,0.236035201 C9.61000463,0.550748803 9.61000463,1.04529875 9.92471823,1.36001235 L10.7564613,2.19175544 L3.60796665,2.19175544 C1.62976687,2.19175544 0.0337193145,3.787803 0.0337193145,5.76600278 L0.0337193145,13.184252 C0.0337193145,13.6113633 0.393392002,13.971036 0.820503319,13.971036 Z" id="Path" fill="url(#linearGradient-2)"></path>
                <path d="M12.689702,7.4519685 C12.2625907,7.4519685 11.902918,7.81164119 11.902918,8.23875251 L11.902918,15.6345222 C11.902918,16.7360198 11.0037363,17.6127219 9.92471823,17.6127219 L2.73126447,17.6127219 L3.56300757,16.7809788 C3.87772117,16.4662652 3.87772117,15.9717153 3.56300757,15.6570017 C3.24829396,15.3422881 2.75374402,15.3422881 2.43903042,15.6570017 L0.236035201,17.8599969 C-0.0786784005,18.1747105 -0.0786784005,18.6692605 0.236035201,18.9839741 L2.43903042,21.1869693 C2.59638722,21.3443261 2.7987031,21.4117647 3.00101899,21.4117647 C3.20333488,21.4117647 3.40565076,21.3443261 3.56300757,21.1869693 C3.87772117,20.8722557 3.87772117,20.3777057 3.56300757,20.0629921 L2.73126447,19.231249 L9.90223869,19.231249 C11.8804385,19.231249 13.476486,17.6352015 13.476486,15.6570017 L13.476486,8.23875251 C13.476486,7.81164119 13.1168133,7.4519685 12.689702,7.4519685 Z" id="Path" fill="url(#linearGradient-3)"></path>
            </g>
        </g>
    </g>
</svg>