<?xml version="1.0" encoding="UTF-8"?>
<svg width="20px" height="13px" viewBox="0 0 20 13" version="1.1" xmlns="http://www.w3.org/2000/svg" xmlns:xlink="http://www.w3.org/1999/xlink">
    <title>Group 4 Copy@3x</title>
    <defs>
        <linearGradient x1="0.532670455%" y1="30.7676524%" x2="100%" y2="69.4181895%" id="linearGradient-1">
            <stop stop-color="#FFDF66" offset="0%"></stop>
            <stop stop-color="#BA5B03" offset="100%"></stop>
        </linearGradient>
    </defs>
    <g id="Desktop" stroke="none" stroke-width="1" fill="none" fill-rule="evenodd">
        <g id="Group-5" transform="translate(-1527.000000, -900.000000)" fill="url(#linearGradient-1)">
            <g id="Group-4-Copy" transform="translate(1527.000000, 900.000000)">
                <path d="M17.9197328,2.7533531e-14 C18.4697987,2.7533531e-14 18.9972723,0.217627421 19.3863035,0.605209385 C19.7751755,0.992643755 19.9937759,1.51829995 19.9937759,2.06631664 L19.9937759,2.06631664 L19.9937759,10.3935727 C19.9937759,10.9415894 19.7751866,11.467098 19.3863035,11.85468 C18.9972723,12.2421033 18.4697987,12.4598893 17.9197328,12.4598893 L17.9197328,12.4598893 L2.07404315,12.4598893 C1.52397727,12.4598893 0.996503659,12.2421143 0.607472423,11.85468 C0.218600444,11.467098 -8.8817842e-15,10.9415894 -8.8817842e-15,10.3935727 L-8.8817842e-15,10.3935727 L-8.8817842e-15,2.06631664 C-8.8817842e-15,1.51829995 0.218589333,0.992643755 0.607472423,0.605209385 C0.996503659,0.21764218 1.52397727,2.7533531e-14 2.07404315,2.7533531e-14 L2.07404315,2.7533531e-14 Z M14.6388285,1.44882434 L5.06518253,1.44882434 C5.03308125,2.39102633 4.6398406,3.28489687 3.96679627,3.94568757 C3.29375193,4.60647826 2.3923406,4.98361787 1.44882434,4.99905931 L1.44882434,4.99905931 L1.44882434,7.17106517 C2.3923406,7.18650438 3.29375193,7.56364622 3.96679627,8.22443691 C4.6398406,8.88522761 5.03310439,9.77906086 5.06518253,10.7213001 L5.06518253,10.7213001 L14.6388285,10.7213001 C14.6709298,9.77909816 15.0641705,8.88522761 15.7372148,8.22443691 C16.4102591,7.56364622 17.3116705,7.18650661 18.2551867,7.17106517 L18.2551867,7.17106517 L18.2551867,4.99905931 C17.3116705,4.9836201 16.4102591,4.60647826 15.7372148,3.94568757 C15.0641705,3.28489687 14.6709067,2.39106362 14.6388285,1.44882434 L14.6388285,1.44882434 Z M1.44882434,8.98271093 L1.44882434,10.3349738 C1.44882434,10.5482795 1.64415108,10.7213001 1.88497383,10.7213001 L1.88497383,10.7213001 L3.47717842,10.7213001 C3.44477585,10.2596335 3.21869005,9.82546392 2.84353684,9.5036771 C2.46825901,9.18200757 1.97077053,8.99618595 1.44882434,8.98271093 L1.44882434,8.98271093 Z M18.2551867,8.98271093 C17.7332405,8.99619906 17.2357793,9.18202482 16.8604742,9.5036771 C16.4853015,9.82546047 16.2592364,10.2596335 16.2268326,10.7213001 L16.2268326,10.7213001 L17.8190295,10.7212725 C17.9346505,10.7212725 18.0455514,10.6805805 18.1273991,10.6080826 C18.2092428,10.5357193 18.2551867,10.4373525 18.2551867,10.3349393 L18.2551867,10.3349393 Z M9.73613799,2.02316766 C10.7841052,2.02316766 11.7892877,2.43958713 12.5302583,3.18055769 C13.2712288,3.92166594 13.6876483,4.92674517 13.6876483,5.97467795 C13.6876483,7.02274841 13.2712288,8.02782764 12.5302583,8.76879821 C11.7892533,9.50990646 10.7841052,9.92618825 9.73613799,9.92618825 C8.6881708,9.92618825 7.6829883,9.50990646 6.94201774,8.76879821 C6.20104717,8.02779322 5.7846277,7.02274841 5.7846277,5.97467795 C5.7846277,4.92671075 6.20104717,3.92166594 6.94201774,3.18055769 C7.68302272,2.43958713 8.68820522,2.02316766 9.73613799,2.02316766 Z M9.74721746,3.38575741 C9.05762317,3.38575741 8.3962946,3.65968598 7.9087946,4.14733456 C7.42114603,4.63483456 7.14721746,5.29616313 7.14721746,5.98575741 C7.14721746,6.6753517 7.42114603,7.33668027 7.9087946,7.82418027 C8.3962946,8.31182884 9.05762317,8.58575741 9.74721746,8.58575741 C10.4368117,8.58575741 11.0981403,8.31182884 11.5856403,7.82418027 C12.0732889,7.33668027 12.3472175,6.6753517 12.3472175,5.98575741 C12.3472175,5.29616313 12.0732889,4.63483456 11.5856403,4.14733456 C11.0981403,3.65968598 10.4368117,3.38575741 9.74721746,3.38575741 Z M17.8190311,1.73858921 L16.2268326,1.73858921 C16.2592351,2.20012707 16.48532,2.63443975 16.8604718,2.95609842 C17.2357482,3.27774329 17.7332347,3.46356825 18.2551867,3.47717842 L18.2551867,3.47717842 L18.2551867,2.1249301 C18.2551867,2.02238032 18.2092469,1.92414613 18.1273996,1.85164684 C18.0455523,1.77928554 17.9346518,1.73858921 17.8190311,1.73858921 L17.8190311,1.73858921 Z M3.47717842,1.73858921 L1.88498161,1.73858921 C1.76936052,1.73858921 1.65845962,1.77928193 1.57661197,1.85164639 C1.49476823,1.92414539 1.44882434,2.02237919 1.44882434,2.12492857 L1.44882434,2.12492857 L1.44882434,3.47717842 C1.97077053,3.46358659 2.46823175,3.27775788 2.84353684,2.95610049 C3.21870952,2.63445 3.44477469,2.20013214 3.47717842,1.73858921 L3.47717842,1.73858921 Z" id="Combined-Shape"></path>
            </g>
        </g>
    </g>
</svg>