<?xml version="1.0" encoding="UTF-8"?>
<svg width="17px" height="20px" viewBox="0 0 17 20" version="1.1" xmlns="http://www.w3.org/2000/svg" xmlns:xlink="http://www.w3.org/1999/xlink">
    <title>ic_18/Purchase Limit Copy 4</title>
    <defs>
        <linearGradient x1="14.9538903%" y1="0.478525153%" x2="85.4234907%" y2="100%" id="linearGradient-1">
            <stop stop-color="#FFDF66" offset="0%"></stop>
            <stop stop-color="#BA5B03" offset="100%"></stop>
        </linearGradient>
    </defs>
    <g id="Desktop" stroke="none" stroke-width="1" fill="none" fill-rule="evenodd">
        <g id="Group-5" transform="translate(-1756.000000, -1812.000000)" fill="url(#linearGradient-1)">
            <g id="Group-19-Copy-5" transform="translate(1746.000000, 1803.000000)">
                <g id="ic_18/Purchase-Limit-Copy-4" transform="translate(7.000000, 7.000000)">
                    <path d="M11.8348214,2.53333333 C13.0144851,2.53333333 14.1821772,2.6835899 15.3056254,2.97998325 C15.7261709,3.09092142 15.9446254,3.51228868 15.7903164,3.87896538 L15.7388618,3.97733783 L14.2906667,6.26666667 L14.3151354,6.27545189 C15.176676,6.60312734 15.6415531,7.36781287 15.5298005,8.14660346 L15.4969619,8.31354893 L15.4460779,8.48000147 C15.4060432,8.59023015 15.3549175,8.69566234 15.2935955,8.79522902 L15.1893333,8.94533333 L15.4296392,9.07636083 C15.9383597,9.37206183 16.4190911,9.7261905 16.8676105,10.1354489 L17.1978944,10.452678 L17.515703,10.7902715 C18.968943,12.4126114 19.8029762,14.4603305 19.8029762,16.4114583 C19.8029762,20.0526742 17.0730548,21.4666667 11.8348214,21.4666667 C6.59705908,21.4666667 3.86666667,20.0531978 3.86666667,16.4114583 C3.86666667,14.4603169 4.70071011,12.4125993 6.15398165,10.7902697 C6.77696168,10.0948248 7.47714913,9.51975598 8.24029839,9.07620611 L8.48,8.94533333 L8.37668524,8.79600087 L8.29189668,8.64181265 L8.22367367,8.48029563 C7.92320317,7.65004429 8.31606007,6.76707321 9.17656141,6.35196203 L9.37733333,6.26666667 L7.93077118,3.97732217 C7.72972252,3.65911357 7.84291048,3.26953178 8.14638825,3.07494675 L8.25442525,3.01767257 L8.36401396,2.97998416 C9.48746561,2.6835899 10.6551577,2.53333333 11.8348214,2.53333333 Z M11.8348214,9.57447917 C10.2307627,9.57447917 8.65800275,10.3418774 7.40595586,11.7395501 C6.21689937,13.0669971 5.50715597,14.7999223 5.50715597,16.36986 C5.50715597,18.9286451 7.31298464,19.9744792 11.8348214,19.9744792 C16.3566582,19.9744792 18.1624869,18.9286451 18.1624869,16.36986 C18.1624869,14.7999223 17.4527435,13.0669971 16.2636897,11.7395531 C15.0470302,10.3813737 13.4819203,9.57447917 11.8348214,9.57447917 Z M9.91615524,7.53020507 C9.67214274,7.60315464 9.54272653,7.83590151 9.61939016,8.04777759 C9.67565952,8.20279747 9.82951759,8.31438911 9.96880011,8.33643115 C10.5819383,8.16259235 11.2059249,8.075 11.8348214,8.075 C12.464962,8.075 13.0901788,8.16295547 13.6549668,8.33307962 C13.8409623,8.31468481 13.9938197,8.20308264 14.0503706,8.04738517 C14.12696,7.83576363 13.9973375,7.6031336 13.7527925,7.52999421 L13.3963137,7.43439266 L13.0314876,7.35777567 C11.9946676,7.16969803 10.9307713,7.22820112 9.91615524,7.53020507 Z M11.8348214,3.89375 C11.2068536,3.89375 10.5826161,3.94185956 9.968466,4.03741197 L9.70266667,4.084 L10.88,5.94533333 L11.2101423,5.91292962 C11.6261873,5.88141395 12.0437518,5.88140468 12.4596887,5.91290613 L12.7893333,5.94533333 L13.9653333,4.084 L13.7011769,4.03741197 C13.2405643,3.96574767 12.7742776,3.92076996 12.3049986,3.90276013 L11.8348214,3.89375 Z" id="Shape"></path>
                </g>
            </g>
        </g>
    </g>
</svg>