<?xml version="1.0" encoding="UTF-8"?>
<svg width="46px" height="47px" viewBox="0 0 46 47" version="1.1" xmlns="http://www.w3.org/2000/svg" xmlns:xlink="http://www.w3.org/1999/xlink">
    <title>Avatars / No User / 03. Medium (64px) Copy</title>
    <g id="Jan-Drop" stroke="none" stroke-width="1" fill="none" fill-rule="evenodd">
        <g id="More-Scenario-1" transform="translate(-23.000000, -118.000000)">
            <g id="Profile" transform="translate(-0.446000, 90.500000)">
                <g id="Avatars-/-No-User-/-03.-Medium-(64px)-Copy" transform="translate(23.446000, 28.000000)">
                    <circle id="Mask" fill="#222222" cx="23" cy="23" r="23"></circle>
                    <path d="M21.2578596,10.9318074 C22.9591602,10.5506471 24.7446481,10.3624064 26.4391421,10.7727207 C28.1339944,11.1833949 29.7328372,12.2703677 30.4281888,13.8763522 L30.4281888,13.8763522 L29.9098097,13.8076065 C30.4049029,14.5771257 30.2458426,15.5827556 30.0484502,16.4771687 C29.7908727,17.6440449 29.494605,18.801923 29.1682447,19.9515228 C29.1585721,20.0724575 29.1499743,20.1937522 29.1367193,20.3125273 C29.4487498,20.1768357 29.7450175,20.1933922 29.7181492,20.7732311 C29.6662038,21.8843189 29.5164579,23.8671446 28.2823074,24.4361857 C28.173043,25.2812891 28.0447916,25.9442706 27.8954039,26.2548857 C27.6729344,26.7181089 27.3250795,27.2961481 26.8747668,27.8641095 L26.8747668,27.8641095 L26.8747668,29.4251033 L26.9467738,29.4251033 C26.9467738,29.4251033 27.9949957,30.8500456 28.3242219,31.1189094 C28.6530899,31.3870533 36.1450461,33.7690356 37.3347743,35.3739403 C38.0450217,36.3320042 38.554368,37.850349 38.9270788,39.5917227 C34.7941804,43.561106 29.1819073,46 23,46 C16.8180927,46 11.2058196,43.561106 7.07288718,39.5930244 C7.44515422,37.8509354 7.9544829,36.3321892 8.66486744,35.3739403 C9.85459567,33.7690356 17.3465519,31.3870533 17.6754198,31.1189094 C18.0042878,30.8500456 19.0528679,29.4251033 19.0528679,29.4251033 L19.0528679,29.4251033 L19.1248749,29.4251033 L19.1248749,27.8273971 C18.688892,27.2716732 18.3514262,26.708031 18.1336139,26.2548857 C17.9842261,25.9442706 17.8559748,25.2816491 17.7463521,24.4372655 C16.5104104,23.8689442 16.3610227,21.8850388 16.3090773,20.7732311 C16.2854332,20.2678967 16.5075445,20.1905128 16.7715703,20.2689764 C16.7128183,20.1160084 16.6562157,19.9616007 16.6010462,19.8071929 C16.226323,19.1316141 15.9698203,18.390169 15.8766768,17.6220895 C15.6656711,15.8818531 16.2582067,14.0599138 17.4508009,12.7800212 L17.4508009,12.7800212 L16.6465431,12.436653 C17.3719872,12.202342 18.1311062,12.0767282 18.8927329,12.0551327 C19.4859849,11.4105074 20.3930586,11.125447 21.2578596,10.9318074 Z" id="Combined-Shape" fill="#686873"></path>
                </g>
            </g>
        </g>
    </g>
</svg>