<?xml version="1.0" encoding="UTF-8"?>
<svg width="25px" height="24px" viewBox="0 0 25 24" version="1.1" xmlns="http://www.w3.org/2000/svg" xmlns:xlink="http://www.w3.org/1999/xlink">
    <title>Icons/24/Search@3x</title>
    <g id="Desktop" stroke="none" stroke-width="1" fill="none" fill-rule="evenodd">
        <g id="1_Homepage_Default-MVP" transform="translate(-1270.000000, -83.000000)" fill="#9B1E26">
            <g id="Group-7" transform="translate(0.000000, 67.000000)">
                <g id="Icons/24/Search" transform="translate(1266.921668, 12.000000)">
                    <path d="M12.9511138,4.00278939 C17.9040634,4.00278939 21.9022275,8.00095354 21.9022275,12.9539032 C21.9022275,14.9320216 21.2644967,16.7578462 20.1829098,18.2375021 L28,26.0539364 L26.0567258,27.9972106 L18.241316,20.1808677 C16.7604905,21.2653867 14.9321759,21.9050169 12.9511138,21.9050169 C7.99816415,21.9050169 4,17.9068528 4,12.9539032 C4,8.00095354 7.99816415,4.00278939 12.9511138,4.00278939 Z M12.9511138,6.77044236 C9.5295988,6.77044236 6.76765297,9.53238818 6.76765297,12.9539032 C6.76765297,16.3754181 9.5295988,19.1373639 12.9511138,19.1373639 C16.3726287,19.1373639 19.1345746,16.3754181 19.1345746,12.9539032 C19.1345746,9.53238818 16.3726287,6.77044236 12.9511138,6.77044236 Z" id="Shape"></path>
                </g>
            </g>
        </g>
    </g>
</svg>