<?xml version="1.0" encoding="UTF-8"?>
<svg width="20px" height="23px" viewBox="0 0 20 23" version="1.1" xmlns="http://www.w3.org/2000/svg" xmlns:xlink="http://www.w3.org/1999/xlink">
    <title>Oval Copy 3</title>
    <g id="Page-1" stroke="none" stroke-width="1" fill="none" fill-rule="evenodd">
        <g id="Service-Request02" transform="translate(-106.000000, -726.000000)" stroke="#9B1E26" stroke-width="2">
            <g id="Group-11" transform="translate(107.000000, 727.000000)">
                <path d="M9.1035294,5.5 C13.245665,5.5 16.6035294,8.85786438 16.6035294,13 L16.6035294,13 L16.6039828,13.198577 C16.6048328,13.5218084 16.606703,14.1864672 16.6080631,14.8997339 L16.6088774,15.3792328 C16.608995,15.4592783 16.609102,15.5391206 16.6091965,15.618358 L16.6090831,16.8925375 C16.6082897,17.2376458 16.6065896,17.4742155 16.6035294,17.5154851 C19.7087926,19.8850987 16.2610997,20.3873842 12.3986843,20.4935281 L12.0047057,20.5030141 C11.4123107,20.5153666 10.8151071,20.5196616 10.2348829,20.5211213 L8.60221725,20.5211697 C8.09019007,20.5197809 7.54814393,20.5157973 6.99521395,20.5061494 L6.62519154,20.4988447 C6.37771496,20.4933706 6.12892844,20.4866428 5.88051188,20.478392 L5.32290762,20.4571438 C1.37224066,20.2861518 -2.16117649,19.6735163 1.6035294,17.5154851 C2.05315921,17.2577452 1.6035294,13.5142464 1.6035294,13 C1.6035294,8.85786438 4.96139377,5.5 9.1035294,5.5 Z M12.1035294,0.5 C12.9319565,0.5 13.6035294,1.17157288 13.6035294,2 C13.6035294,2.82842712 12.9319565,3.5 12.1035294,3.5 C11.2751023,3.5 10.6035294,2.82842712 10.6035294,2 C10.6035294,1.17157288 11.2751023,0.5 12.1035294,0.5 Z M6.1035294,0.5 C6.93195652,0.5 7.6035294,1.17157288 7.6035294,2 C7.6035294,2.82842712 6.93195652,3.5 6.1035294,3.5 C5.27510227,3.5 4.6035294,2.82842712 4.6035294,2 C4.6035294,1.17157288 5.27510227,0.5 6.1035294,0.5 Z M9.1035294,0 C9.93195652,0 10.6035294,0.671572875 10.6035294,1.5 C10.6035294,2.32842712 9.93195652,3 9.1035294,3 C8.27510227,3 7.6035294,2.32842712 7.6035294,1.5 C7.6035294,0.671572875 8.27510227,0 9.1035294,0 Z" id="Oval-Copy-3"></path>
            </g>
        </g>
    </g>
</svg>
