<?xml version="1.0" encoding="UTF-8"?>
<svg width="23px" height="25px" viewBox="0 0 23 25" version="1.1" xmlns="http://www.w3.org/2000/svg" xmlns:xlink="http://www.w3.org/1999/xlink">
    <title>Group</title>
    <g id="Page-1" stroke="none" stroke-width="1" fill="none" fill-rule="evenodd">
        <g id="Wealth-VKYC_Desktop" transform="translate(-420.000000, -210.000000)" fill-rule="nonzero">
            <g id="Group" transform="translate(0.000000, 144.000000)">
                <g transform="translate(420.000000, 66.000000)">
                    <path d="M7.87495137,9.26336237 L7.09826957,10.0398306 C6.90382241,10.2319884 6.74034485,10.3909496 6.61839806,10.5060996 L5.95835747,11.1039054 L6.24462787,11.7636211 C6.54533492,12.4566064 6.96724522,13.1257705 7.58783854,13.9082307 C8.78350099,15.3690008 10.0329498,16.5028503 11.4130604,17.3760447 L11.5876053,17.4768878 L12.276672,17.8394413 L12.9388966,18.2188902 L14.8941977,16.2709654 C15.1303647,16.0356893 15.3678007,15.9285144 15.5953673,15.9285144 C15.8196604,15.9285144 16.04626,16.0323493 16.2671471,16.2610597 L18.6558926,18.6410564 C19.1151558,19.0985871 19.116131,19.5848139 18.6492523,20.0696399 L17.7306336,20.9827483 L17.4605822,21.2615906 L17.284866,21.4558542 L17.3458178,21.3956075 C16.8463496,21.9327442 16.3229366,22.1568542 15.6152258,22.1568542 L15.3886385,22.1500676 C14.3274311,22.0813585 13.3031347,21.746478 12.0073785,21.1345503 C9.55414927,19.9499607 7.40350063,18.2725083 5.61583701,16.1437943 C4.13956022,14.3766325 3.15432257,12.7380716 2.50390986,10.9793255 C2.10055687,9.89687993 1.95102222,9.03893333 2.0136358,8.25631005 C2.05647039,7.74572618 2.25679598,7.31717604 2.62738606,6.947984 L4.10550919,5.475437 C4.3319419,5.26076693 4.57170941,5.15685425 4.80662943,5.15685425 C5.00271032,5.15685425 5.1956315,5.22670789 5.38547461,5.37793239 L5.49901177,5.47852373 C5.68213362,5.64813797 6.48228542,6.44528777 7.87163117,7.84229521 C8.12541586,8.09277916 8.23675051,8.33401962 8.23675051,8.55446561 C8.23675051,8.77162807 8.12360618,9.01567427 7.87495137,9.26336237 Z M8.38986602,11.5738542 L8.97304972,10.9948594 L9.28644885,10.6802868 C9.89342571,10.0756697 10.2367505,9.33513673 10.2367505,8.55446561 C10.2367505,7.7706591 9.89416272,7.02833826 9.28305437,6.42532808 L6.87612978,4.02843543 C6.30820921,3.47315583 5.58262794,3.15685425 4.80662943,3.15685425 C4.03681136,3.15685425 3.31235959,3.47082392 2.71107212,4.04191823 L1.21584758,5.53110041 C0.510370032,6.23391658 0.103192152,7.10497919 0.0203202731,8.09297485 C-0.0680158221,9.19701752 0.131079597,10.3393162 0.628935914,11.6753619 C1.36185028,13.657205 2.46458119,15.4911705 4.08260941,17.4280086 C6.05311949,19.7744577 8.42912379,21.6276819 11.14553,22.9393059 C12.6573071,23.6532918 13.8937773,24.0575398 15.2820654,24.1471025 L15.6152258,24.1568542 C16.7911218,24.1568542 17.7906748,23.7624406 18.6030422,22.9721609 L18.7900018,22.78043 L18.8184674,22.7411904 L18.8923436,22.6586222 C18.9575334,22.588516 19.053688,22.4892226 19.1753297,22.3663472 L20.0903403,21.4564582 C21.3086487,20.1913171 21.3051708,18.4572432 20.0674311,17.2241728 L17.6922183,14.8579204 C17.1211551,14.2663638 16.3838645,13.9285144 15.5953673,13.9285144 L15.4009932,13.9353871 C14.6922287,13.9856385 14.0289773,14.3098246 13.4826592,14.8540818 L12.588866,15.7438542 L12.4830167,15.686313 C11.2909708,14.9321067 10.2002565,13.9423055 9.14511657,12.6533816 L8.96208751,12.4174627 C8.78715412,12.1866351 8.63608758,11.9704413 8.50510636,11.7631189 L8.38986602,11.5738542 Z" id="call-icon" fill="#303030"></path>
                    <path d="M16.2936307,1.41977327 C20.2500001,2.64559232 22.999866,6.3430301 22.999866,10.5777159 C22.999866,12.7629107 22.2705813,14.8373065 20.9573413,16.5125974 L20.745156,16.7737583 L19.2151422,15.4857142 C20.3607079,14.1249445 20.999866,12.4026642 20.999866,10.5777159 C20.999866,7.31376764 18.9401239,4.45604749 15.9527894,3.41287769 L15.7017219,3.33017741 L16.2936307,1.41977327 Z" id="Path-2" fill="#303030"></path>
                    <path d="M11.5617498,1.20083061 L12.1009291,3.1267812 C10.60168,3.54650332 9.54898625,4.08329534 8.72042559,4.75422875 L8.53309674,4.91144852 L7.22071343,3.40225998 C8.23009026,2.52451059 9.48304048,1.83052137 11.1891438,1.30977197 L11.5617498,1.20083061 Z" id="Path-2" fill="#303030"></path>
                    <polygon id="Line" fill="#FFCB05" points="14.999866 8.2600593e-14 14.999866 8.09485425 18.4321772 5.72887683 19.5675548 7.37536334 12.999866 11.9042838 12.999866 8.2600593e-14"></polygon>
                </g>
            </g>
        </g>
    </g>
</svg>