<?xml version="1.0" encoding="UTF-8"?>
<svg width="24px" height="23px" viewBox="0 0 24 23" version="1.1" xmlns="http://www.w3.org/2000/svg" xmlns:xlink="http://www.w3.org/1999/xlink">
    <title>calendar (1)</title>
    <g id="Page-1" stroke="none" stroke-width="1" fill="none" fill-rule="evenodd">
        <g id="Wealth-VKYC_Desktop" transform="translate(-655.000000, -367.000000)" fill="#AA2029">
            <g id="Group" transform="translate(0.000000, 144.000000)">
                <g id="calendar-(1)" transform="translate(655.000000, 223.000000)">
                    <path d="M19.7788747,1.39981946 L19.7788747,0 L18.3719267,0 L18.3719267,1.39981946 L5.6280733,1.39981946 L5.6280733,0 L4.22112532,0 L4.22112532,1.39981946 L0,1.39981946 L0,23 L24,23 L24,1.39981946 L19.7788747,1.39981946 Z M4.22112532,2.79949896 L4.22112532,4.19931842 L5.6280733,4.19931842 L5.6280733,2.79949896 L18.3719267,2.79949896 L18.3719267,4.19931842 L19.7788747,4.19931842 L19.7788747,2.79949896 L22.593052,2.79949896 L22.593052,5.59909122 L1.40694798,5.59909122 L1.40694798,2.79949896 L4.22112532,2.79949896 Z M1.40694798,21.6003205 L1.40694798,6.99877072 L22.593052,6.99877072 L22.593052,21.6003205 L1.40694798,21.6003205 L1.40694798,21.6003205 Z" id="Shape" fill-rule="nonzero"></path>
                    <rect id="Rectangle" x="4" y="9" width="2" height="2"></rect>
                    <rect id="Rectangle" x="9" y="9" width="2" height="2"></rect>
                    <rect id="Rectangle" x="13" y="9" width="2" height="2"></rect>
                    <rect id="Rectangle" x="18" y="9" width="2" height="2"></rect>
                    <rect id="Rectangle" x="4" y="13" width="2" height="2"></rect>
                    <rect id="Rectangle" x="9" y="13" width="2" height="2"></rect>
                    <rect id="Rectangle" x="13" y="13" width="2" height="2"></rect>
                    <rect id="Rectangle" x="18" y="13" width="2" height="2"></rect>
                    <rect id="Rectangle" x="4" y="17" width="2" height="2"></rect>
                    <rect id="Rectangle" x="9" y="17" width="2" height="2"></rect>
                    <rect id="Rectangle" x="13" y="17" width="2" height="2"></rect>
                    <rect id="Rectangle" x="18" y="17" width="2" height="2"></rect>
                </g>
            </g>
        </g>
    </g>
</svg>