<?xml version="1.0" encoding="UTF-8"?>
<svg width="45px" height="47px" viewBox="0 0 45 47" version="1.1" xmlns="http://www.w3.org/2000/svg" xmlns:xlink="http://www.w3.org/1999/xlink">
    <title>Group 88</title>
    <g id="Page-1" stroke="none" stroke-width="1" fill="none" fill-rule="evenodd">
        <g id="Wealth-Homepage6" transform="translate(-601.000000, -2341.000000)" fill="#B8B8B8" fill-rule="nonzero">
            <g id="Group-19" transform="translate(0.000000, 2162.000000)">
                <g id="Group-50" transform="translate(110.000000, 123.000000)">
                    <g id="Group-6-Copy" transform="translate(291.000000, 0.000000)">
                        <g id="Group-88" transform="translate(201.000000, 56.000000)">
                            <path d="M39.7585617,2.68475396 C38.2353947,0.953449308 36.1240767,0 33.8134119,0 C31.2342653,0 28.9985959,1.23341796 27.3480557,3.56679876 C27.2242537,3.74174443 27.1085099,3.91669011 27,4.08987614 C26.8915817,3.9165975 26.7758379,3.74174443 26.6520359,3.56679876 C25.0014041,1.23341796 22.7657347,0 20.1865881,0 C17.8759233,0 15.7645138,0.953449308 14.2414383,2.68466134 C12.7961052,4.32761333 12,6.52401972 12,8.86925496 C12,11.417868 12.9778707,13.7695862 15.0771015,16.2705036 C16.9087663,18.4524624 19.5360784,20.6952678 22.5783835,23.2923174 C23.7025823,24.2520644 24.8651486,25.2444111 26.1005128,26.3273332 C26.3585556,26.5534938 26.679232,26.6666667 26.9999084,26.6666667 C27.3204933,26.6666667 27.6411696,26.5534938 27.8993041,26.3273332 C29.1344851,25.2446889 30.2968683,24.2523422 31.4210671,23.2927805 C33.3748855,21.624823 35.0622367,20.1844153 36.5265246,18.7872579 C39.3693914,16.0744422 42,12.9953427 42,8.86934758 C42,6.52401972 41.2039863,4.32770594 39.7585617,2.68475396 Z M34.2757283,16.8711358 C32.9343143,18.1722512 31.3533184,19.5439927 29.5227146,21.1323627 C28.7083282,21.8388924 27.8731048,22.5636165 26.9999564,23.3333333 C26.1266336,22.5637061 25.2911487,21.8388028 24.4767623,21.1320938 C18.7750116,16.1847721 15.3333333,13.1985791 15.3333333,9.22837113 C15.3333333,5.86762687 17.55984,3.33333333 20.5127644,3.33333333 C22.0903601,3.33333333 23.4320357,4.09677627 24.5004764,5.60242053 C25.3773737,6.83801859 25.7373568,8.11896792 25.7397979,8.12757211 C25.8967292,8.70987884 26.4121614,9.11302116 26.9998692,9.11302116 C27.587577,9.11302116 28.1030092,8.70987884 28.2599405,8.12757211 C28.2728438,8.07962165 29.5964723,3.33333333 33.4870613,3.33333333 C36.4398984,3.33333333 38.6666667,5.8677165 38.6666667,9.22837113 C38.6666667,11.6634476 37.4355405,13.8062503 34.2757283,16.8711358 Z" id="Shape-Copy-5"></path>
                            <path d="M40.8334518,27.9341216 L39.8296558,27.9341216 C38.1301921,27.9355126 36.4592527,28.3710828 34.9754167,29.1995811 L27.644754,33.2986113 L25.553906,33.2986113 C25.0513663,30.5523166 22.6595914,28.5564388 19.8676972,28.5536089 L6.66423772,28.5536089 C6.35979536,28.5537764 6.07084642,28.687885 5.87419126,28.9202896 L1.87376917,33.6617493 L0.108885191,33.6617493 L0,46.3651472 C0.182702222,46.3651472 0.8917289,46.3277292 2.12708003,46.2528933 L23.1997093,45.2857064 C23.2203757,45.2857064 23.2404516,45.2857064 23.2587561,45.2809826 C26.5727935,44.9275307 29.6723213,43.4720605 32.0608657,41.1477052 L42.1915286,31.2697626 C42.7586628,30.7189919 42.9343843,29.8789406 42.6355607,29.1470294 C42.3393144,28.4123366 41.6256201,27.9320194 40.8334518,27.9341216 Z M30.6201232,39.6709442 C28.5716182,41.6635201 25.9155368,42.913722 23.0745301,43.2226105 L2.12944191,44.1844832 L2.12944191,36.5674433 L7.14842164,30.620838 L19.8676972,30.620838 C21.6119844,30.6246203 23.1193994,31.8398816 23.493172,33.5436556 L13.0223993,36.1139637 C12.515654,36.2390483 12.1817567,36.7223989 12.2441111,37.2406159 C12.3064654,37.758833 12.7454903,38.1491819 13.2674436,38.1504886 C13.3508331,38.1505983 13.4339215,38.140485 13.5148498,38.1203747 L24.7372885,35.3652501 L27.9140075,35.3652501 C28.0905348,35.3653709 28.2641465,35.3202399 28.4182673,35.2341661 L35.9845269,31.0034614 C37.1598494,30.3463658 38.4837113,30.0008161 39.8302463,29.9996655 L40.5388081,29.9996655 L30.6201232,39.6709442 Z" id="Shape-Copy-6" stroke="#B8B8B8" stroke-width="0.514999986"></path>
                        </g>
                    </g>
                </g>
            </g>
        </g>
    </g>
</svg>