<?xml version="1.0" encoding="UTF-8"?>
<svg width="27px" height="27px" viewBox="0 0 27 27" version="1.1" xmlns="http://www.w3.org/2000/svg" xmlns:xlink="http://www.w3.org/1999/xlink">
    <title>Group 4</title>
    <g id="Page-1" stroke="none" stroke-width="1" fill="none" fill-rule="evenodd">
        <g id="Wealth-VKYC_Desktop" transform="translate(-653.000000, -450.000000)" fill-rule="nonzero">
            <g id="Group" transform="translate(0.000000, 144.000000)">
                <g id="Group-4" transform="translate(654.000000, 307.000000)">
                    <path d="M12.5,25 C5.59644063,25 0,19.4035594 0,12.5 C0,5.59644063 5.59644063,0 12.5,0 C19.4035594,0 25,5.59644063 25,12.5 C24.9924627,19.4004349 19.4004349,24.9924627 12.5,25 L12.5,25 Z" id="Path" stroke="#9E1E29" stroke-width="1.5" fill="#FFFFFF"></path>
                    <path d="M16.760439,16.7367727 C16.9201517,16.5730397 17.0062143,16.3543692 16.9996503,16.1289777 C16.9930862,15.9035863 16.8944345,15.6899842 16.7254477,15.5352705 L12.7495639,11.8798167 L12.7495639,4.84911818 C12.7495639,4.38016316 12.3579106,4 11.8747819,4 C11.3916532,4 11,4.38016316 11,4.84911818 L11,12.2449375 C11.0008527,12.4781664 11.1005009,12.7007869 11.2755563,12.8605482 L15.5226226,16.7664918 C15.6854745,16.9166626 15.9015986,17.0002719 16.1262221,17 C16.3665001,16.9991716 16.595849,16.9024468 16.760439,16.7325271 L16.760439,16.7367727 Z" id="Path" fill="#9D1D27"></path>
                </g>
            </g>
        </g>
    </g>
</svg>