<?xml version="1.0" encoding="UTF-8"?>
<svg width="269px" height="84px" viewBox="0 0 269 84" version="1.1" xmlns="http://www.w3.org/2000/svg" xmlns:xlink="http://www.w3.org/1999/xlink">
    <title>Group 51</title>
    <defs>
        <polygon id="path-1" points="0 0.271610769 69.6504421 0.271610769 69.6504421 49 0 49"></polygon>
        <polygon id="path-3" points="0.400922388 0.27531875 48.780597 0.27531875 48.780597 48.8657094 0.400922388 48.8657094"></polygon>
    </defs>
    <g id="Wealth" stroke="none" stroke-width="1" fill="none" fill-rule="evenodd">
        <g id="Wealth-Homepage" transform="translate(-549.000000, -4218.000000)">
            <g id="Group-51" transform="translate(549.858586, 4218.000000)">
                <path d="M64.8813664,15.6489826 C64.8813664,12.6097384 64.8813664,12.0646802 64.841822,11.4411337 C64.8015315,10.778343 64.6411157,10.4672965 63.9815455,10.3306686 C63.8218757,10.2914244 63.4816449,10.2725291 63.3010839,10.2725291 C63.221249,10.2725291 63.1414141,10.2332849 63.1414141,10.1555233 C63.1414141,10.0385174 63.2413942,10 63.4614997,10 C64.3620667,10 65.5812271,10.0581395 65.7610421,10.0581395 C65.9416032,10.0581395 67.1413644,10 67.741245,10 C67.9613505,10 68.0620767,10.0385174 68.0620767,10.1555233 C68.0620767,10.2332849 67.9814957,10.2725291 67.9016609,10.2725291 C67.7613903,10.2725291 67.6412649,10.2914244 67.4010142,10.3306686 C66.8615693,10.4084302 66.7018996,10.7587209 66.6616091,11.4411337 C66.6220648,12.0646802 66.6220648,12.6097384 66.6220648,15.6489826 L66.6220648,18.3764535 C66.6220648,21.181686 67.2614897,22.3895349 68.1217663,23.1882267 C69.1014221,24.0843023 70.001243,24.2594477 71.1413147,24.2594477 C72.3612211,24.2594477 73.5617285,23.6947674 74.2817345,22.8568314 C75.2017007,21.7463663 75.4419513,20.090843 75.4419513,18.0843023 L75.4419513,15.6489826 C75.4419513,12.6097384 75.4419513,12.0646802 75.4016609,11.4411337 C75.3613704,10.778343 75.2017007,10.4672965 74.5421304,10.3306686 C74.3817146,10.2914244 74.0414838,10.2725291 73.8616688,10.2725291 C73.781834,10.2725291 73.701253,10.2332849 73.701253,10.1555233 C73.701253,10.0385174 73.8019792,10 74.0213385,10 C74.9219056,10 76.0216867,10.0581395 76.1418121,10.0581395 C76.2813365,10.0581395 77.221448,10 77.8213286,10 C78.0421802,10 78.1414141,10.0385174 78.1414141,10.1555233 C78.1414141,10.2332849 78.0615793,10.2725291 77.9817444,10.2725291 C77.8414738,10.2725291 77.7213485,10.2914244 77.4818439,10.3306686 C76.9416529,10.4476744 76.7819832,10.7587209 76.7416927,11.4411337 C76.7014022,12.0646802 76.7014022,12.6097384 76.7014022,15.6489826 L76.7014022,17.7332849 C76.7014022,19.8372093 76.4618976,22.1751453 74.8614699,23.5581395 C73.4214579,24.8052326 71.9217564,25 70.7413942,25 C70.0616788,25 68.0419315,24.9222384 66.6220648,23.6162791 C65.6416628,22.7013081 64.8813664,21.3372093 64.8813664,18.4934593 L64.8813664,15.6489826 Z" id="Fill-1" fill="#FFFFFF"></path>
                <path d="M83.0804453,22.2395333 C83.12304,23.8224986 83.3344357,24.3251872 83.9047308,24.4793067 C84.3070136,24.5758114 84.7723997,24.5952564 84.9617092,24.5952564 C85.0681959,24.5952564 85.1312991,24.6334262 85.1312991,24.7104859 C85.1312991,24.8264356 85.0043039,24.8653255 84.7511023,24.8653255 C83.5450426,24.8653255 82.7002486,24.8069906 82.5093614,24.8069906 C82.3192631,24.8069906 81.4310856,24.8653255 80.479805,24.8653255 C80.2684093,24.8653255 80.1414141,24.8458805 80.1414141,24.7104859 C80.1414141,24.6334262 80.2045173,24.5952564 80.3102152,24.5952564 C80.479805,24.5952564 80.8600017,24.5758114 81.1770953,24.4793067 C81.7063733,24.343912 81.8120712,23.7843288 81.8120712,22.0270789 L81.8325797,10.9657672 C81.8325797,10.2124544 81.8964717,10 82.0652727,10 C82.2340738,10 82.593762,10.4249088 82.8051576,10.6179182 C83.12304,10.9463223 86.2726781,14.0539178 89.5295916,17.2392933 C91.6222512,19.2860572 93.9270953,21.6410601 94.603877,22.2784233 L94.371184,12.4716727 C94.3498867,11.2163914 94.202383,10.7914826 93.5468986,10.6373632 C93.165913,10.5603034 92.6800184,10.5408585 92.5112174,10.5408585 C92.3629249,10.5408585 92.3416276,10.4825235 92.3416276,10.4054638 C92.3416276,10.2902343 92.5112174,10.2707893 92.764419,10.2707893 C93.7156996,10.2707893 94.7308722,10.3284041 94.9627764,10.3284041 C95.1962582,10.3284041 95.8935485,10.2707893 96.7604286,10.2707893 C96.9931216,10.2707893 97.1414141,10.2902343 97.1414141,10.4054638 C97.1414141,10.4825235 97.0562248,10.5408585 96.9087211,10.5408585 C96.8030233,10.5408585 96.6547308,10.5408585 96.4015292,10.5984732 C95.7026614,10.7338679 95.6190496,11.1587766 95.6190496,12.3168331 L95.576455,23.6294891 C95.576455,24.9034953 95.5346491,25 95.3863566,25 C95.2167668,25 94.9627764,24.7882658 93.8426948,23.7648838 C93.6100017,23.5718744 90.5652727,20.734348 88.3243206,18.5334646 C85.8719728,16.1201268 83.4827282,13.687344 82.8051576,12.992366 L83.0804453,22.2395333 Z" id="Fill-3" fill="#FFFFFF"></path>
                <path d="M102.868024,19.2457439 C102.868024,21.1502591 102.868024,22.7179867 102.985191,23.5514434 C103.055142,24.1265729 103.195917,24.5632865 103.898919,24.642487 C104.227686,24.6824574 104.743571,24.7216876 104.954297,24.7216876 C105.094198,24.7216876 105.141414,24.7816432 105.141414,24.8408586 C105.141414,24.9400444 105.024247,25 104.766305,25 C103.477468,25 102.000639,24.9400444 101.884346,24.9400444 C101.766305,24.9400444 100.29035,25 99.5864739,25 C99.3285316,25 99.2113646,24.9600296 99.2113646,24.8408586 C99.2113646,24.7816432 99.2585811,24.7216876 99.3993564,24.7216876 C99.6100822,24.7216876 99.8916327,24.6824574 100.102358,24.642487 C100.571026,24.5632865 100.688194,24.1265729 100.781752,23.5514434 C100.898919,22.7179867 100.898919,21.1502591 100.898919,19.2457439 L100.898919,15.7535159 C100.898919,12.6587713 100.898919,12.1028868 100.851703,11.4678016 C100.805361,10.7934863 100.571026,10.4559585 100.055142,10.3567728 C99.7971996,10.2975574 99.4929152,10.2775722 99.3285316,10.2775722 C99.2349729,10.2775722 99.1414141,10.2376018 99.1414141,10.1584012 C99.1414141,10.0392302 99.2585811,10 99.5165234,10 C100.29035,10 101.766305,10.0592154 101.884346,10.0592154 C102.000639,10.0592154 103.477468,10 104.18047,10 C104.438412,10 104.555579,10.0392302 104.555579,10.1584012 C104.555579,10.2376018 104.46202,10.2775722 104.368462,10.2775722 C104.204078,10.2775722 104.063303,10.2975574 103.781752,10.3367876 C103.149575,10.4359734 102.961583,10.7735011 102.915241,11.4678016 C102.868024,12.1028868 102.868024,12.6587713 102.868024,15.7535159 L102.868024,19.2457439 Z" id="Fill-5" fill="#FFFFFF"></path>
                <path d="M115.121615,22.3504191 C116.358919,19.7400804 119.216256,12.9417179 119.685716,11.5391696 C119.792339,11.2470326 119.877478,10.9745167 119.877478,10.7986532 C119.877478,10.6431374 119.813027,10.4483794 119.600576,10.3510004 C119.345159,10.2725159 119.024494,10.2725159 118.789764,10.2725159 C118.661658,10.2725159 118.555035,10.2536214 118.555035,10.1562424 C118.555035,10.0392423 118.683141,10 119.024494,10 C119.877478,10 120.858568,10.0581367 121.114782,10.0581367 C121.242889,10.0581367 122.160324,10 122.778578,10 C123.013307,10 123.141414,10.0392423 123.141414,10.1366213 C123.141414,10.2340003 123.055479,10.2725159 122.885201,10.2725159 C122.73561,10.2725159 122.266947,10.2725159 121.861143,10.5065162 C121.584241,10.681653 121.264372,11.0130323 120.68829,12.3378228 C120.45356,12.8828545 119.38733,15.2206773 118.299617,17.6166368 C116.997862,20.4609757 116.038255,22.5647982 115.548107,23.5189671 C114.950541,24.6882418 114.865402,25 114.652156,25 C114.395943,25 114.28932,24.7274841 113.884311,23.791483 L108.65899,11.8509278 C108.18953,10.7594109 107.869661,10.5457584 107.1233,10.3510004 C106.802636,10.2725159 106.440595,10.2725159 106.312488,10.2725159 C106.184382,10.2725159 106.141414,10.2143791 106.141414,10.1366213 C106.141414,10.0196211 106.35466,10 106.696808,10 C107.720071,10 108.935891,10.0581367 109.191309,10.0581367 C109.40535,10.0581367 110.364957,10 111.175769,10 C111.559294,10 111.751056,10.0392423 111.751056,10.1366213 C111.751056,10.2340003 111.687401,10.2725159 111.53781,10.2725159 C111.303876,10.2725159 110.919556,10.292137 110.727794,10.3706216 C110.493064,10.4672739 110.450097,10.6235163 110.450097,10.7594109 C110.450097,11.0130323 110.70631,11.6169275 111.026179,12.3763384 L115.121615,22.3504191 Z" id="Fill-7" fill="#FFFFFF"></path>
                <path d="M125.712446,15.827821 C125.712446,12.776751 125.712446,12.229572 125.676067,11.6035992 C125.640362,10.9382296 125.495519,10.6259728 124.899983,10.4888132 C124.755814,10.4494163 124.448614,10.4304475 124.285583,10.4304475 C124.214172,10.4304475 124.141414,10.3910506 124.141414,10.3129864 C124.141414,10.1955253 124.231688,10.156858 124.430425,10.156858 C124.845414,10.156858 125.333835,10.156858 125.730635,10.1758268 L126.471014,10.2152237 C126.596993,10.2152237 130.191098,10.2152237 130.606762,10.1955253 C130.949667,10.1758268 131.238677,10.1371595 131.382846,10.0977626 C131.473119,10.0780642 131.545204,10 131.635477,10 C131.690046,10 131.708235,10.0780642 131.708235,10.1758268 C131.708235,10.3129864 131.617962,10.5479086 131.563393,11.0950875 C131.545204,11.2906128 131.508825,12.1507782 131.473119,12.3857004 C131.45493,12.4841926 131.419225,12.6009241 131.346467,12.6009241 C131.238677,12.6009241 131.202298,12.5031615 131.202298,12.3470331 C131.202298,12.2098735 131.184109,11.8771887 131.094509,11.6429961 C130.967856,11.3300097 130.787309,11.0950875 129.811814,10.9776265 C129.504614,10.9382296 127.536783,10.9185311 127.338046,10.9185311 C127.265962,10.9185311 127.229583,10.9776265 127.229583,11.114786 L127.229583,16.5121595 C127.229583,16.6493191 127.247772,16.7076848 127.338046,16.7076848 C127.572488,16.7076848 129.794298,16.7076848 130.209288,16.6682879 C130.642467,16.6296206 130.895098,16.5902237 131.05813,16.3946984 C131.184109,16.23857 131.256193,16.1408074 131.328277,16.1408074 C131.382846,16.1408074 131.419225,16.1794747 131.419225,16.2976654 C131.419225,16.4143969 131.328277,16.7470817 131.274383,17.3927529 C131.238677,17.7838035 131.202298,18.5068093 131.202298,18.6439689 C131.202298,18.8008268 131.202298,19.015321 131.076319,19.015321 C130.986046,19.015321 130.949667,18.9372568 130.949667,18.8394942 C130.949667,18.6439689 130.949667,18.4484436 130.877583,18.1945525 C130.805498,17.9202335 130.642467,17.5882782 129.938467,17.5094844 C129.450719,17.4511187 127.663435,17.4117218 127.355562,17.4117218 C127.265962,17.4117218 127.229583,17.4700875 127.229583,17.5488813 L127.229583,19.2699416 C127.229583,19.9345817 127.211393,22.2035506 127.229583,22.6142996 C127.284151,23.9632782 127.554298,24.2178988 129.324067,24.2178988 C129.794298,24.2178988 130.588572,24.2178988 131.05813,24.0026751 C131.527014,23.7874514 131.74394,23.3964008 131.870593,22.5946012 C131.906972,22.3793774 131.942677,22.3013132 132.032951,22.3013132 C132.141414,22.3013132 132.141414,22.4574416 132.141414,22.5946012 C132.141414,22.7507296 131.997246,24.0807393 131.906972,24.4914883 C131.780319,25 131.635477,25 130.931477,25 C129.577372,25 128.584362,24.9606031 127.879688,24.9416342 C127.175014,24.9022374 126.741835,24.8825389 126.471014,24.8825389 C126.435309,24.8825389 126.128109,24.8825389 125.748825,24.9022374 C125.38773,24.9022374 124.972067,24.9416342 124.701246,24.9416342 C124.502509,24.9416342 124.412235,24.9022374 124.412235,24.7847763 C124.412235,24.7256809 124.448614,24.6673152 124.557077,24.6673152 C124.719435,24.6673152 124.936362,24.6286479 125.098719,24.589251 C125.459814,24.5111868 125.550088,24.0807393 125.622172,23.5138619 C125.712446,22.6923638 125.712446,21.1471304 125.712446,19.2699416 L125.712446,15.827821 Z" id="Fill-9" fill="#FFFFFF"></path>
                <path d="M138.454516,17.4796447 C138.454516,17.5788305 138.494486,17.6580311 138.593672,17.7179867 C138.891229,17.8963731 139.803886,18.034789 140.676573,18.034789 C141.153257,18.034789 141.708402,17.9755736 142.1651,17.6580311 C142.859401,17.1820873 143.375315,16.1102887 143.375315,14.6025167 C143.375315,12.1221318 142.065174,10.6343449 139.943043,10.6343449 C139.347928,10.6343449 138.812029,10.6943005 138.613657,10.7535159 C138.514471,10.7927461 138.454516,10.8726869 138.454516,10.9918579 L138.454516,17.4796447 Z M136.866803,15.7535159 C136.866803,12.6580311 136.866803,12.1028868 136.827573,11.4678016 C136.788342,10.7927461 136.629201,10.4759437 135.974131,10.3367876 C135.815729,10.2968172 135.478202,10.2775722 135.299815,10.2775722 C135.220615,10.2775722 135.141414,10.2376018 135.141414,10.1584012 C135.141414,10.0392302 135.23986,10 135.458957,10 C136.351629,10 137.601814,10.0592154 137.701,10.0592154 C137.918616,10.0592154 139.426388,10 140.042228,10 C141.291673,10 142.621059,10.1184308 143.672872,10.8726869 C144.168801,11.2294597 145.042228,12.2020725 145.042228,13.5706884 C145.042228,15.0392302 144.427128,16.507772 142.641784,18.1547002 C144.267987,20.2376018 145.617358,22.003701 146.768357,23.2339008 C147.839416,24.3649149 148.693598,24.5832717 149.188786,24.6624722 C149.565544,24.7216876 149.843117,24.7216876 149.962288,24.7216876 C150.061473,24.7216876 150.141414,24.780903 150.141414,24.8408586 C150.141414,24.9600296 150.022243,25 149.66473,25 L148.256144,25 C147.145115,25 146.649926,24.900074 146.134012,24.6225019 C145.27983,24.1658031 144.58553,23.1939304 143.454516,21.7054034 C142.621059,20.6143597 141.689157,19.2849741 141.291673,18.7698001 C141.212473,18.6898594 141.153257,18.6506292 141.034086,18.6506292 L138.593672,18.6106588 C138.494486,18.6106588 138.454516,18.6698742 138.454516,18.7698001 L138.454516,19.2457439 C138.454516,21.1502591 138.454516,22.7179867 138.553701,23.5514434 C138.613657,24.1265729 138.732088,24.5632865 139.327943,24.642487 C139.605515,24.6817172 140.042228,24.7216876 140.220615,24.7216876 C140.339046,24.7216876 140.379016,24.780903 140.379016,24.8408586 C140.379016,24.9400444 140.27983,25 140.062214,25 C138.97043,25 137.720985,24.9400444 137.621799,24.9400444 C137.601814,24.9400444 136.351629,25 135.755774,25 C135.538157,25 135.438231,24.9600296 135.438231,24.8408586 C135.438231,24.780903 135.478202,24.7216876 135.597373,24.7216876 C135.775759,24.7216876 136.014101,24.6817172 136.192487,24.642487 C136.589231,24.5632865 136.688416,24.1265729 136.768357,23.5514434 C136.866803,22.7179867 136.866803,21.1502591 136.866803,19.2457439 L136.866803,15.7535159 Z" id="Fill-11" fill="#FFFFFF"></path>
                <path d="M150.453072,24.4832509 C150.161571,24.3497811 150.141414,24.272697 150.141414,23.7559478 C150.141414,22.7995337 150.223593,22.0344024 150.244525,21.7282071 C150.265457,21.5176532 150.307322,21.4220118 150.410432,21.4220118 C150.535251,21.4220118 150.556958,21.4798249 150.556958,21.6325657 C150.556958,21.8045775 150.556958,22.0722307 150.61898,22.3405976 C150.930638,23.7559478 152.302864,24.291968 153.695247,24.291968 C155.690014,24.291968 156.666853,22.9715455 156.666853,21.7474781 C156.666853,20.4270556 156.063693,19.6619242 154.276699,18.3029596 L153.341724,17.5956414 C151.139185,15.9311953 150.639912,14.7442425 150.639912,13.4438047 C150.639912,11.3967929 152.302864,10 154.941879,10 C155.752035,10 156.354419,10.0763704 156.873849,10.1912828 C157.269237,10.2676532 157.435144,10.2869242 157.601827,10.2869242 C157.76851,10.2869242 157.809599,10.3254663 157.809599,10.4211077 C157.809599,10.5167491 157.726645,11.147697 157.726645,12.4488485 C157.726645,12.7550438 157.684781,12.8885135 157.580895,12.8885135 C157.456076,12.8885135 157.435144,12.7935858 157.414212,12.6401313 C157.394055,12.4103064 157.269237,11.894271 157.144418,11.6837172 C157.0196,11.4731633 156.459081,10.6694899 154.546492,10.6694899 C153.11302,10.6694899 151.990431,11.4924343 151.990431,12.8885135 C151.990431,13.9791112 152.531568,14.6685858 154.52556,16.1032071 L155.107787,16.5243148 C157.559962,18.3029596 158.141414,19.4891987 158.141414,21.0201751 C158.141414,21.8045775 157.809599,23.2584697 156.376127,24.1963266 C155.481466,24.7701751 154.359652,25 153.237838,25 C152.260999,25 151.305093,24.8658165 150.453072,24.4832509" id="Fill-13" fill="#FFFFFF"></path>
                <path d="M164.868356,19.2457439 C164.868356,21.1502591 164.868356,22.7179867 164.985506,23.5514434 C165.05632,24.1265729 165.196201,24.5632865 165.899975,24.642487 C166.22782,24.6824574 166.743629,24.7216876 166.954324,24.7216876 C167.094204,24.7216876 167.141414,24.7816432 167.141414,24.8408586 C167.141414,24.9400444 167.024264,25 166.767234,25 C165.47771,25 164.001096,24.9400444 163.883947,24.9400444 C163.766797,24.9400444 162.291057,25 161.587283,25 C161.329379,25 161.212229,24.9600296 161.212229,24.8408586 C161.212229,24.7816432 161.259438,24.7216876 161.399319,24.7216876 C161.610888,24.7216876 161.892398,24.6824574 162.103093,24.642487 C162.571692,24.5632865 162.688842,24.1265729 162.782387,23.5514434 C162.899537,22.7179867 162.899537,21.1502591 162.899537,19.2457439 L162.899537,15.7535159 C162.899537,12.6587713 162.899537,12.1028868 162.852328,11.4678016 C162.805992,10.7934863 162.571692,10.4559585 162.055883,10.3567728 C161.797978,10.2975574 161.493738,10.2775722 161.329379,10.2775722 C161.235833,10.2775722 161.141414,10.2376018 161.141414,10.1584012 C161.141414,10.0392302 161.259438,10 161.517343,10 C162.291057,10 163.766797,10.0592154 163.883947,10.0592154 C164.001096,10.0592154 165.47771,10 166.18061,10 C166.438515,10 166.555664,10.0392302 166.555664,10.1584012 C166.555664,10.2376018 166.462119,10.2775722 166.368574,10.2775722 C166.204215,10.2775722 166.06346,10.2975574 165.78195,10.3367876 C165.148991,10.4359734 164.961901,10.7735011 164.915565,11.4678016 C164.868356,12.1028868 164.868356,12.6587713 164.868356,15.7535159 L164.868356,19.2457439 Z" id="Fill-15" fill="#FFFFFF"></path>
                <path d="M176.645709,19.3505644 C176.645709,21.2203866 176.645709,22.7595562 176.748969,23.5778305 C176.81016,24.1424834 176.933306,24.5712417 177.548275,24.6489996 C177.835107,24.6882418 178.287154,24.7267574 178.470727,24.7267574 C178.593874,24.7267574 178.635177,24.7856209 178.635177,24.8437576 C178.635177,24.9411366 178.531918,25 178.307041,25 C177.178835,25 175.886943,24.9411366 175.785213,24.9411366 C175.682718,24.9411366 174.390826,25 173.775093,25 C173.549451,25 173.446957,24.9607577 173.446957,24.8437576 C173.446957,24.7856209 173.48826,24.7267574 173.611407,24.7267574 C173.795745,24.7267574 174.042038,24.6882418 174.22714,24.6489996 C174.636354,24.5712417 174.738849,24.1424834 174.820692,23.5778305 C174.923951,22.7595562 174.923951,21.2203866 174.923951,19.3505644 L174.923951,11.1104113 L171.889649,11.1496536 C170.617644,11.1692747 170.126587,11.3051693 169.797686,11.7731699 C169.572045,12.1038225 169.510854,12.2404438 169.449663,12.3763384 C169.387707,12.5325808 169.326517,12.5718231 169.244674,12.5718231 C169.182718,12.5718231 169.141414,12.5129596 169.141414,12.3959595 C169.141414,12.2012015 169.552158,10.5261373 169.592697,10.3706216 C169.634001,10.2536214 169.715843,10 169.797686,10 C169.941485,10 170.146474,10.194758 170.700252,10.2340003 C171.294568,10.2928637 172.073222,10.3313793 172.32028,10.3313793 L180.008147,10.3313793 C180.66442,10.3313793 181.135589,10.2928637 181.46449,10.2340003 C181.771974,10.194758 181.956312,10.1366213 182.038919,10.1366213 C182.141414,10.1366213 182.141414,10.2536214 182.141414,10.3706216 C182.141414,10.9548956 182.079458,12.2985805 182.079458,12.5129596 C182.079458,12.6888232 182.017503,12.7665811 181.93566,12.7665811 C181.833165,12.7665811 181.792626,12.7077176 181.771974,12.4352018 L181.751322,12.2208226 C181.690131,11.6365486 181.197545,11.1888959 179.229494,11.1496536 L176.645709,11.1104113 L176.645709,19.3505644 Z" id="Fill-17" fill="#FFFFFF"></path>
                <path d="M188.346436,19.8608438 C188.346436,18.7897853 188.152575,18.3523316 187.900844,17.7772021 C187.764851,17.4596595 185.166525,13.0947446 184.488009,12.0629164 C184.003355,11.3286454 183.517977,10.8327165 183.170039,10.5951147 C182.878523,10.3967432 182.51033,10.2775722 182.335276,10.2775722 C182.239068,10.2775722 182.141414,10.2376018 182.141414,10.138416 C182.141414,10.0592154 182.218814,10 182.393868,10 C182.762061,10 184.216747,10.0592154 184.313678,10.0592154 C184.448947,10.0592154 185.186056,10 185.941972,10 C186.155365,10 186.193703,10.0592154 186.193703,10.138416 C186.193703,10.2176166 186.077965,10.2376018 185.90291,10.3168024 C185.74811,10.3967432 185.65118,10.5159141 185.65118,10.6743153 C185.65118,10.9126573 185.74811,11.1502591 185.90291,11.4478164 C186.213957,12.0236862 189.121883,17.1428571 189.471992,17.7179867 C189.839461,16.88453 192.302518,12.5396003 192.690241,11.88453 C192.942696,11.4678016 193.020096,11.1310141 193.020096,10.8726869 C193.020096,10.5951147 192.942696,10.376758 192.709049,10.3168024 C192.534718,10.257587 192.418256,10.2176166 192.418256,10.1184308 C192.418256,10.0392302 192.534718,10 192.729303,10 C193.233488,10 193.853412,10.0592154 194.008212,10.0592154 C194.124673,10.0592154 195.521491,10 195.889683,10 C196.024952,10 196.141414,10.0392302 196.141414,10.1184308 C196.141414,10.2176166 196.044483,10.2775722 195.889683,10.2775722 C195.676291,10.2775722 195.307375,10.3567728 194.997051,10.5551443 C194.609328,10.7934863 194.396659,11.0310881 193.96915,11.5669874 C193.329696,12.3612139 190.615631,17.0236862 190.266246,17.8763879 C189.975454,18.5906736 189.975454,19.2057735 189.975454,19.8608438 L189.975454,21.5669874 C189.975454,21.88453 189.975454,22.7179867 190.033323,23.5514434 C190.072384,24.1265729 190.246715,24.5632865 190.828301,24.642487 C191.100286,24.6824574 191.526347,24.7216876 191.701402,24.7216876 C191.817863,24.7216876 191.856925,24.780903 191.856925,24.8408586 C191.856925,24.9400444 191.759271,25 191.545878,25 C190.479639,25 189.257876,24.9400444 189.160945,24.9400444 C189.064014,24.9400444 187.842975,25 187.260666,25 C187.047273,25 186.950343,24.9600296 186.950343,24.8408586 C186.950343,24.780903 186.989404,24.7216876 187.105143,24.7216876 C187.279473,24.7216876 187.51312,24.6824574 187.687451,24.642487 C188.075175,24.5632865 188.249505,24.1265729 188.288567,23.5514434 C188.346436,22.7179867 188.346436,21.88453 188.346436,21.5669874 L188.346436,19.8608438 Z" id="Fill-19" fill="#FFFFFF"></path>
                <path d="M213.05097,24.272697 C214.765988,24.272697 218.311209,23.2777408 218.311209,17.7105539 C218.311209,13.1183384 215.528217,10.6509326 212.516983,10.6509326 C209.334389,10.6509326 206.952421,12.7550438 206.952421,16.9447088 C206.952421,21.4027408 209.620225,24.272697 213.05097,24.272697 M212.651369,10 C216.938911,10 220.141414,12.7172155 220.141414,17.1745337 C220.141414,21.4605539 217.129469,25 212.536181,25 C207.314338,25 205.141414,20.9245337 205.141414,17.480729 C205.141414,14.3816616 207.390419,10 212.651369,10" id="Fill-21" fill="#FFFFFF"></path>
                <path d="M224.72673,15.8505859 C224.72673,12.7875977 224.72673,12.2382812 224.690021,11.6098633 C224.653991,10.9418945 224.508511,10.628418 223.90688,10.4907227 C223.760721,10.4511719 223.450728,10.4321289 223.286893,10.4321289 C223.214154,10.4321289 223.141414,10.3925781 223.141414,10.314209 C223.141414,10.1962891 223.232509,10.1574707 223.433052,10.1574707 C223.852495,10.1574707 224.344677,10.1574707 224.744405,10.1765137 L225.492196,10.2160645 C225.856574,10.2351074 229.556098,10.2160645 229.975541,10.1962891 C230.320884,10.1765137 230.612522,10.1765137 230.776356,10.1179199 C230.886486,10.0783691 230.959225,10 231.031965,10 C231.105384,10 231.141414,10.0783691 231.141414,10.1765137 C231.141414,10.314209 231.05032,10.5500488 230.995935,11.0993652 C230.9769,11.2956543 230.94087,12.1591797 230.904161,12.3950195 C230.886486,12.4938965 230.849776,12.611084 230.758681,12.611084 C230.666907,12.611084 230.631557,12.5129395 230.631557,12.3752441 C230.631557,12.2185059 230.575813,11.8845215 230.466363,11.6296387 C230.357594,11.3740234 229.938831,11.0209961 229.22775,11.0012207 L226.421496,10.9418945 C226.312046,10.9418945 226.257662,11.0012207 226.257662,11.157959 L226.257662,16.5771484 C226.257662,16.6943359 226.275337,16.7536621 226.384786,16.7536621 L228.717893,16.7338867 C229.027206,16.7338867 229.282135,16.7338867 229.537743,16.7141113 C229.975541,16.675293 230.212114,16.6159668 230.375948,16.361084 C230.448688,16.2629395 230.503073,16.1647949 230.575813,16.1647949 C230.649232,16.1647949 230.666907,16.2233887 230.666907,16.3222656 C230.666907,16.4394531 230.575813,16.7734375 230.521428,17.4216309 C230.485398,17.814209 230.448688,18.5993652 230.448688,18.7363281 C230.448688,18.9135742 230.448688,19.1098633 230.320884,19.1098633 C230.229789,19.1098633 230.193759,19.0307617 230.193759,18.9326172 C230.176084,18.7363281 230.15705,18.4616699 230.08431,18.2265625 C229.993216,17.9511719 229.701577,17.5981445 229.136655,17.519043 C228.681183,17.4604492 226.695459,17.4604492 226.384786,17.4604492 C226.294371,17.4604492 226.257662,17.4992676 226.257662,17.6369629 L226.257662,19.3061523 C226.257662,21.1906738 226.257662,22.7419434 226.348756,23.5666504 C226.403821,24.1357422 226.51259,24.5678711 227.059157,24.6462402 C227.314766,24.685791 227.715173,24.7246094 227.879687,24.7246094 C227.988457,24.7246094 228.025167,24.7832031 228.025167,24.8425293 C228.025167,24.9406738 227.934072,25 227.733528,25 C226.731489,25 225.58329,24.9406738 225.492196,24.9406738 C225.401101,24.9406738 224.253583,25 223.706336,25 C223.505792,25 223.414698,24.9604492 223.414698,24.8425293 C223.414698,24.7832031 223.450728,24.7246094 223.560177,24.7246094 C223.724011,24.7246094 223.94359,24.685791 224.107424,24.6462402 C224.471802,24.5678711 224.562896,24.1357422 224.635636,23.5666504 C224.72673,22.7419434 224.72673,21.1906738 224.72673,19.3061523 L224.72673,15.8505859 Z" id="Fill-23" fill="#FFFFFF"></path>
                <g id="Group-27" transform="translate(0.141414, 34.000000)">
                    <mask id="mask-2" fill="white">
                        <use xlink:href="#path-1"></use>
                    </mask>
                    <g id="Clip-26"></g>
                    <path d="M50.0423368,39.3811492 L50.2891789,39.3811492 C51.9603368,33.5584415 57.6502316,15.2068108 59.8158105,7.10598 C60.4340211,4.76453385 60.4959158,3.87876462 60.4959158,3.05556462 C60.4959158,1.91650308 59.8158105,1.15738 56.9701263,1.15738 C56.6606526,1.15738 56.4130737,0.967410769 56.4130737,0.714118462 C56.4130737,0.397503077 56.7225474,0.271610769 57.4652842,0.271610769 C60.6189684,0.271610769 63.2178105,0.46158 63.7741263,0.46158 C64.2073895,0.46158 66.8666526,0.271610769 68.7846526,0.271610769 C69.3417053,0.271610769 69.6504421,0.397503077 69.6504421,0.650795385 C69.6504421,0.967410769 69.4654947,1.15738 69.0941263,1.15738 C68.8465474,1.15738 67.6712842,1.22070308 66.9904421,1.47324154 C65.1350737,2.16979538 64.1454947,4.82785692 62.9702316,8.30836462 C60.2483368,16.3451185 54.0013895,36.4697954 51.5889684,43.5582108 C49.9804421,48.2403492 49.6709684,49.0002262 48.9901263,49.0002262 C48.3719158,49.0002262 48.0005474,48.1770262 47.1347579,45.7096877 L35.0107579,10.5231646 L34.8869684,10.5231646 C32.6602316,16.5984108 24.1858105,39.7603338 21.9590737,45.6463646 C20.9694947,48.3036723 20.6600211,49.0002262 19.9180211,49.0002262 C19.2990737,49.0002262 18.9896,48.3036723 17.7531789,44.0007185 L6.74181053,6.47274923 C5.75296842,3.11888769 4.94833684,2.16979538 3.34054737,1.53656462 C2.53591579,1.22070308 0.989284211,1.15738 0.556757895,1.15738 C0.247284211,1.15738 -0.000294736842,1.09330308 -0.000294736842,0.714118462 C-0.000294736842,0.397503077 0.371073684,0.271610769 0.989284211,0.271610769 C4.20633684,0.271610769 7.60833684,0.46158 8.28844211,0.46158 C8.84549474,0.46158 11.5666526,0.271610769 14.6599158,0.271610769 C15.5257053,0.271610769 15.7732842,0.460826154 15.7732842,0.714118462 C15.7732842,1.09330308 15.4645474,1.15738 15.1543368,1.15738 C14.6599158,1.15738 13.4846526,1.15738 12.7419158,1.53656462 C12.3712842,1.72653385 11.9380211,2.23311846 11.9380211,3.05556462 C11.9380211,3.87876462 12.4950737,6.09356462 13.1132842,8.87827231 C14.0417053,12.9279338 20.4743368,36.15318 21.4020211,39.5077954 L21.5258105,39.5077954 L34.6401263,3.43550308 C35.5670737,0.840764615 35.8146526,0.524149231 36.1860211,0.524149231 C36.6192842,0.524149231 36.9899158,1.34659538 37.7326526,3.49882615 L50.0423368,39.3811492 Z" id="Fill-25" fill="#FFFFFF" mask="url(#mask-2)"></path>
                </g>
                <path d="M76.6399218,52.0379257 C76.6399218,42.0711146 76.6399218,40.2827657 76.5134327,38.2387209 C76.3869437,36.0660672 75.8817406,35.0440448 73.7954247,34.5973381 C73.2902216,34.4694901 72.2158179,34.4055662 71.6466173,34.4055662 C71.3936393,34.4055662 71.1414141,34.2777182 71.1414141,34.0220224 C71.1414141,33.6384786 71.4576367,33.5113917 72.1525734,33.5113917 C73.6064441,33.5113917 75.31254,33.5113917 76.7031663,33.5753157 L79.2946853,33.7024026 C79.7373968,33.7024026 92.3147719,33.7024026 93.7686426,33.6384786 C94.9695354,33.5753157 95.9806946,33.4474677 96.4866506,33.3196198 C96.8028732,33.2556958 97.0558512,33 97.3713208,33 C97.5618073,33 97.6242989,33.2556958 97.6242989,33.5753157 C97.6242989,34.0220224 97.3088292,34.7883489 97.1183428,36.5774589 C97.0558512,37.2166985 96.9293622,40.0270698 96.8028732,40.7941574 C96.7396287,41.1137772 96.6131397,41.49656 96.3601616,41.49656 C95.9806946,41.49656 95.8542056,41.1777012 95.8542056,40.6663095 C95.8542056,40.2188417 95.791714,39.1328954 95.4754914,38.3665688 C95.0327799,37.3437854 94.4003348,36.5774589 90.9873901,36.1939151 C89.9129864,36.0660672 83.0238525,36.0021432 82.3289158,36.0021432 C82.0759378,36.0021432 81.9494488,36.1939151 81.9494488,36.6413828 L81.9494488,54.2737424 C81.9494488,54.7204491 82.0119404,54.912982 82.3289158,54.912982 C83.1503415,54.912982 90.9248985,54.912982 92.3780164,54.7851341 C93.8951316,54.6572862 94.7798018,54.5294383 95.3490024,53.8909596 C95.791714,53.3795679 96.0439391,53.0599481 96.2969171,53.0599481 C96.4866506,53.0599481 96.6131397,53.1870351 96.6131397,53.5705788 C96.6131397,53.9541226 96.2969171,55.040069 96.1071836,57.1480377 C95.9806946,58.426517 95.8542056,60.7894206 95.8542056,61.2368883 C95.8542056,61.74828 95.8542056,62.4514436 95.4122469,62.4514436 C95.0960244,62.4514436 94.9695354,62.1957477 94.9695354,61.8761279 C94.9695354,61.2368883 94.9695354,60.5984097 94.7173102,59.7673982 C94.4643322,58.8732237 93.8951316,57.7872773 91.4308546,57.5315815 C89.7232529,57.3398096 83.4665641,57.2119617 82.3914074,57.2119617 C82.0759378,57.2119617 81.9494488,57.4037336 81.9494488,57.6594294 L81.9494488,63.2809331 C81.9494488,65.4528258 81.8862043,72.8642004 81.9494488,74.2058426 C82.1391823,78.613552 83.087097,79.4445635 89.2812942,79.4445635 C90.9248985,79.4445635 93.706151,79.4445635 95.3490024,78.7413999 C96.9918538,78.0389973 97.7507879,76.7612791 98.1927465,74.1411577 C98.3192355,73.4395161 98.4457246,73.1838202 98.7619471,73.1838202 C99.1414141,73.1838202 99.1414141,73.6944509 99.1414141,74.1411577 C99.1414141,74.6525493 98.6354581,78.9970958 98.3192355,80.337977 C97.8772769,82 97.3713208,82 94.9062909,82 C90.1659644,82 86.6897752,81.8721521 84.2247452,81.8074671 C81.7597153,81.6803802 80.2426,81.6164562 79.2946853,81.6164562 C79.1681963,81.6164562 78.0937925,81.6164562 76.7664108,81.6803802 C75.5022735,81.6803802 74.0484028,81.8074671 73.1004881,81.8074671 C72.4055514,81.8074671 72.0893288,81.6803802 72.0893288,81.2968364 C72.0893288,81.1050645 72.2158179,80.9140536 72.594532,80.9140536 C73.1637326,80.9140536 73.9219138,80.7862057 74.4911143,80.6583578 C75.7552516,80.4026619 76.0714741,78.9970958 76.3244521,77.1440619 C76.6399218,74.4615385 76.6399218,69.4138284 76.6399218,63.2809331 L76.6399218,52.0379257 Z" id="Fill-28" fill="#FFFFFF"></path>
                <path d="M128.271167,60.936216 C128.59289,60.936216 128.59289,60.7459468 128.528545,60.4912438 L122.419631,43.3094059 C122.097908,42.3542698 121.776185,42.3542698 121.455227,43.3094059 L115.79596,60.4912438 C115.667271,60.8088645 115.79596,60.936216 115.988994,60.936216 L128.271167,60.936216 Z M121.583917,35.4818379 C122.355287,33.3812964 122.612665,33 122.998733,33 C123.384801,33 123.641414,33.3176207 124.412784,35.2908106 C125.377954,37.7089728 135.47394,63.9903775 139.395901,73.663784 C141.711543,79.3271349 143.576006,80.3451887 144.926479,80.7272432 C145.890883,81.0456219 146.855287,81.1092976 147.498733,81.1092976 C147.884035,81.1092976 148.141414,81.1729734 148.141414,81.4913521 C148.141414,81.8726485 147.563078,82 146.855287,82 C145.890883,82 141.196786,82 136.759301,81.8726485 C135.537518,81.8089728 134.830493,81.8089728 134.830493,81.4276764 C134.830493,81.1729734 135.022761,81.0456219 135.28014,80.9819462 C135.666208,80.8545947 136.052276,80.282271 135.666208,79.2642172 L129.685983,63.6090811 C129.557294,63.3543781 129.428605,63.2270266 129.107647,63.2270266 L115.281203,63.2270266 C114.960245,63.2270266 114.767211,63.4180538 114.638522,63.7364325 L110.780906,75.0002166 C110.201804,76.5905941 109.88008,78.1188119 109.88008,79.2642172 C109.88008,80.536216 111.230552,81.1092976 112.323646,81.1092976 L112.967093,81.1092976 C113.416739,81.1092976 113.609773,81.2366491 113.609773,81.4913521 C113.609773,81.8726485 113.223705,82 112.645369,82 C111.101863,82 108.336574,81.8089728 107.629549,81.8089728 C106.922523,81.8089728 103.385098,82 100.362431,82 C99.5267162,82 99.1414141,81.8726485 99.1414141,81.4913521 C99.1414141,81.2366491 99.3987928,81.1092976 99.7197502,81.1092976 C100.170163,81.1092976 101.070222,81.0456219 101.584214,80.9819462 C104.542537,80.5998917 105.828664,78.1817296 106.986102,75.0002166 L121.583917,35.4818379 Z" id="Fill-30" fill="#FFFFFF"></path>
                <path d="M156.941143,62.9802721 C156.941143,72.0827095 157.193927,76.0460317 158.331453,77.1606008 C159.340331,78.1519846 160.983424,78.5849773 165.909696,78.5849773 C169.256822,78.5849773 172.035185,78.5230158 173.551134,76.7268704 C174.372681,75.7362242 175.003888,74.1886624 175.193476,73.0121318 C175.256671,72.5164399 175.383063,72.2066325 175.762239,72.2066325 C176.078218,72.2066325 176.141414,72.4544784 176.141414,73.1360547 C176.141414,73.8168935 175.699043,77.5323697 175.193476,79.3285152 C174.751857,80.7521541 174.562269,81 171.21439,81 C166.668047,81 163.383364,80.876077 160.730641,80.8141155 C158.07867,80.6901926 156.120349,80.6282311 154.289172,80.6282311 C154.036389,80.6282311 152.962058,80.6901926 151.698892,80.6901926 C150.436479,80.7521541 149.046169,80.8141155 148.098983,80.8141155 C147.40458,80.8141155 147.087848,80.6901926 147.087848,80.3191613 C147.087848,80.1332768 147.21424,79.9473924 147.593415,79.9473924 C148.162179,79.9473924 148.919777,79.8234694 149.489293,79.7002841 C150.750954,79.4524381 151.067686,78.0892854 151.319717,76.2938776 C151.635696,73.6929705 151.635696,68.8009636 151.635696,62.8563492 L151.635696,51.958504 C151.635696,42.2976757 151.635696,40.5642293 151.509305,38.5821994 C151.382913,36.4769842 150.877346,35.486338 148.793385,35.0526076 C148.28857,34.9294223 147.21424,34.8674608 146.646229,34.8674608 C146.393445,34.8674608 146.141414,34.7435378 146.141414,34.4956919 C146.141414,34.123923 146.456641,34 147.151796,34 C149.994107,34 153.973193,34.1858845 154.289172,34.1858845 C154.604399,34.1858845 159.214691,34 161.109816,34 C161.804219,34 162.120198,34.123923 162.120198,34.4956919 C162.120198,34.7435378 161.867415,34.8674608 161.614631,34.8674608 C161.17226,34.8674608 160.288269,34.9294223 159.530671,35.0526076 C157.699494,35.3624151 157.193927,36.4150227 157.067535,38.5821994 C156.941143,40.5642293 156.941143,42.2976757 156.941143,51.958504 L156.941143,62.9802721 Z" id="Fill-32" fill="#FFFFFF"></path>
                <path d="M195.233252,63.5454053 C195.233252,69.6544864 195.233252,74.6818379 195.548899,77.354703 C195.737536,79.1997834 196.116313,80.6006498 198.009444,80.8545947 C198.892504,80.9819462 200.280599,81.1092976 200.848764,81.1092976 C201.226789,81.1092976 201.353048,81.3003249 201.353048,81.4913521 C201.353048,81.8089728 201.038152,82 200.343729,82 C196.873866,82 192.898967,81.8089728 192.58332,81.8089728 C192.268425,81.8089728 188.293526,82 186.400395,82 C185.705971,82 185.391076,81.8726485 185.391076,81.4913521 C185.391076,81.3003249 185.517335,81.1092976 185.896111,81.1092976 C186.463524,81.1092976 187.221077,80.9819462 187.788491,80.8545947 C189.050327,80.6006498 189.365223,79.1997834 189.617741,77.354703 C189.933388,74.6818379 189.933388,69.6544864 189.933388,63.5454053 L189.933388,36.6272432 L180.595495,36.7545947 C176.684477,36.8182704 175.170123,37.2640006 174.160804,38.7907024 C173.46638,39.8724319 173.277744,40.3181621 173.088355,40.7631343 C172.898967,41.2725402 172.709579,41.3998917 172.457813,41.3998917 C172.267673,41.3998917 172.141414,41.2088645 172.141414,40.8275681 C172.141414,40.1908106 173.404002,34.717729 173.530261,34.2090811 C173.65652,33.8270266 173.909038,33 174.160804,33 C174.60271,33 175.234004,33.6359994 176.936995,33.7633509 C178.766997,33.9543781 181.16366,34.0817296 181.921213,34.0817296 L205.580464,34.0817296 C207.599102,34.0817296 209.050327,33.9543781 210.059647,33.7633509 C211.005085,33.6359994 211.574001,33.4449722 211.825767,33.4449722 C212.141414,33.4449722 212.141414,33.8270266 212.141414,34.2090811 C212.141414,36.1178373 211.952026,40.5091894 211.952026,41.2088645 C211.952026,41.7819462 211.762638,42.0358911 211.51012,42.0358911 C211.195224,42.0358911 211.068966,41.8456219 211.005085,40.9541615 L210.942707,40.2544864 C210.753319,38.3449722 209.239716,36.8819462 203.182298,36.7545947 L195.233252,36.6272432 L195.233252,63.5454053 Z" id="Fill-34" fill="#FFFFFF"></path>
                <g id="Group-38" transform="translate(218.141414, 33.000000)">
                    <mask id="mask-4" fill="white">
                        <use xlink:href="#path-3"></use>
                    </mask>
                    <g id="Clip-37"></g>
                    <path d="M42.8254149,30.2265688 C42.8254149,36.3967406 42.8254149,41.4743656 43.1318478,44.1739594 C43.3168776,46.0374906 43.6854746,47.4523656 45.5262657,47.70885 C46.3863254,47.837475 47.7371164,47.9661 48.2900119,47.9661 C48.6578776,47.9661 48.7807433,48.1590375 48.7807433,48.351975 C48.7807433,48.6727719 48.4735791,48.8657094 47.7985493,48.8657094 C44.4219373,48.8657094 40.5538627,48.6727719 40.2466985,48.6727719 C39.9395343,48.6727719 36.072191,48.8657094 34.2299373,48.8657094 C33.5549075,48.8657094 33.2470119,48.7370844 33.2470119,48.351975 C33.2470119,48.1590375 33.3698776,47.9661 33.7384746,47.9661 C34.2913701,47.9661 35.0278328,47.837475 35.5807284,47.70885 C36.8079224,47.4523656 37.1150866,46.0374906 37.3608179,44.1739594 C37.6679821,41.4743656 37.6679821,36.3967406 37.6679821,30.2265688 L37.6679821,23.47835 C37.6679821,23.2211 37.4836836,23.092475 37.2993851,23.092475 L11.2686836,23.092475 C11.0843851,23.092475 10.9000866,23.1567875 10.9000866,23.47835 L10.9000866,30.2265688 C10.9000866,36.3967406 10.9000866,41.4743656 11.2065194,44.1739594 C11.3915493,46.0374906 11.7594149,47.4523656 13.6009373,47.70885 C14.460997,47.837475 15.8110567,47.9661 16.3639522,47.9661 C16.7318179,47.9661 16.8546836,48.1590375 16.8546836,48.351975 C16.8546836,48.6727719 16.5475194,48.8657094 15.8724896,48.8657094 C12.4958776,48.8657094 8.62780299,48.6727719 8.32137015,48.6727719 C8.01347463,48.6727719 4.14613134,48.8657094 2.30460896,48.8657094 C1.6295791,48.8657094 1.32168358,48.7370844 1.32168358,48.351975 C1.32168358,48.1590375 1.44454925,47.9661 1.81314627,47.9661 C2.36604179,47.9661 3.10250448,47.837475 3.65466866,47.70885 C4.88259403,47.4523656 5.18975821,46.0374906 5.43548955,44.1739594 C5.74265373,41.4743656 5.74265373,36.3967406 5.74265373,30.2265688 L5.74265373,18.915225 C5.74265373,8.88783437 5.74265373,7.08861563 5.61978806,5.03138125 C5.49692239,2.8462875 5.0054597,1.81805312 2.97963881,1.36786563 C2.48890746,1.24000625 1.44454925,1.17569375 0.892385075,1.17569375 C0.646653731,1.17569375 0.400922388,1.04706875 0.400922388,0.78981875 C0.400922388,0.40394375 0.708086567,0.27531875 1.38384776,0.27531875 C4.14613134,0.27531875 8.01347463,0.46825625 8.32137015,0.46825625 C8.62780299,0.46825625 12.4958776,0.27531875 14.3381313,0.27531875 C15.0131612,0.27531875 15.3203254,0.40394375 15.3203254,0.78981875 C15.3203254,1.04706875 15.074594,1.17569375 14.829594,1.17569375 C14.3995642,1.17569375 14.0309672,1.24000625 13.2945045,1.36786563 C11.6365493,1.68942812 11.1458179,2.781975 11.0229522,5.03138125 C10.9000866,7.08861563 10.9000866,8.88783437 10.9000866,18.915225 L10.9000866,20.2642562 C10.9000866,20.5858187 11.0843851,20.6501312 11.2686836,20.6501312 L37.2993851,20.6501312 C37.4836836,20.6501312 37.6679821,20.5858187 37.6679821,20.2642562 L37.6679821,18.915225 C37.6679821,8.88783437 37.6679821,7.08861563 37.5451164,5.03138125 C37.4222507,2.8462875 36.9307881,1.81805312 34.9049672,1.36786563 C34.4142358,1.24000625 33.3698776,1.17569375 32.8177134,1.17569375 C32.5719821,1.17569375 32.3269821,1.04706875 32.3269821,0.78981875 C32.3269821,0.40394375 32.6334149,0.27531875 33.3091761,0.27531875 C36.072191,0.27531875 39.9395343,0.46825625 40.2466985,0.46825625 C40.5538627,0.46825625 44.4219373,0.27531875 46.2634597,0.27531875 C46.9384896,0.27531875 47.2456537,0.40394375 47.2456537,0.78981875 C47.2456537,1.04706875 46.9999224,1.17569375 46.7549224,1.17569375 C46.3241612,1.17569375 45.9562955,1.24000625 45.2198328,1.36786563 C43.562609,1.68942812 43.0711463,2.781975 42.9482806,5.03138125 C42.8254149,7.08861563 42.8254149,8.88783437 42.8254149,18.915225 L42.8254149,30.2265688 Z" id="Fill-36" fill="#FFFFFF" mask="url(#mask-4)"></path>
                </g>
                <path d="M39.2399122,18.3434046 C38.2563467,18.7354458 37.2141177,18.9336772 36.1414141,18.9336772 C35.0679488,18.9336772 34.0257198,18.7354458 33.0421542,18.3434046 L22.1414141,14 L22.1414141,23.7943994 C30.2339261,24.1547531 33.6440262,26.2815033 36.1414141,28 C38.6380402,26.2815033 42.0489022,24.1547531 50.1414141,23.7943994 L50.1414141,14 L39.2399122,18.3434046 Z" id="Fill-39" fill="#FFFFFF"></path>
                <path d="M18.4528241,22.0008235 C18.0718997,22.2832896 17.6229779,22.4496399 17.1414452,22.4496399 C16.6592185,22.4496399 16.2102967,22.2832896 15.8286785,22 L15.1951923,23.6264446 C15.1285826,23.796089 15.1237256,23.9904388 15.1813153,24.1642007 C15.2389049,24.3387862 15.3540842,24.4779604 15.499793,24.5487828 C16.7126451,25.1417145 17.5744084,25.1573613 18.7872604,24.5537239 C18.9315815,24.4812545 19.0453731,24.3420802 19.1022689,24.1683183 C19.1591647,23.9945564 19.1536139,23.8018536 19.0883919,23.6322092 L18.4528241,22.0008235 Z" id="Fill-41" fill="#FFFFFF"></path>
                <path d="M39.3353451,0.524508197 C37.6189241,-0.174836066 35.6646498,-0.174836066 33.9474832,0.524508197 L15.9422118,7.86172131 C15.4560665,8.06016393 15.1414141,8.50647541 15.1414141,9 C15.1414141,9.49352459 15.4560665,9.93983607 15.9422118,10.1382787 L33.9474832,17.4754918 C35.6646498,18.1748361 37.6189241,18.1748361 39.3353451,17.4754918 L57.3406165,10.1382787 C57.8275074,9.93983607 58.1414141,9.49352459 58.1414141,9 C58.1414141,8.50647541 57.8275074,8.06016393 57.3406165,7.86172131 L39.3353451,0.524508197 Z" id="Fill-43" fill="#FFFFFF"></path>
                <path d="M17.1407792,14.9406039 C17.4849062,14.9406039 17.8188745,14.9623824 18.1414141,15 L18.1414141,11.4276522 L16.1414141,11 L16.1414141,15 C16.4639538,14.9623824 16.7966522,14.9406039 17.1407792,14.9406039" id="Fill-45" fill="#FFFFFF"></path>
                <path d="M19.1414141,19.3959698 C19.1414141,20.2819479 18.2462917,21 17.1409955,21 C16.0365366,21 15.1414141,20.2819479 15.1414141,19.3959698 L15.1414141,18.6040302 C15.1414141,17.7180521 16.0365366,17 17.1409955,17 C18.2462917,17 19.1414141,17.7180521 19.1414141,18.6040302 L19.1414141,19.3959698 Z" id="Fill-47" fill="#FFFFFF"></path>
                <path d="M39.1414141,4 L38.3846995,5.65787258 L36.6509509,5.65787258 C36.7373659,5.75820937 36.8206668,5.88710356 36.9008536,6.04455515 C36.981819,6.20200674 37.0347579,6.36100196 37.0604488,6.52076901 L39.1414141,6.52076901 L38.3846995,8.17941342 L37.0604488,8.17941342 C36.9997248,8.53908223 36.8743842,8.86556273 36.6852055,9.1588549 C36.4960268,9.45060342 36.2601374,9.70530452 35.9783157,9.9198709 C35.6949369,10.1352091 35.3749681,10.3088689 35.0168521,10.4416222 C34.6579575,10.5743755 34.2796002,10.6577322 33.8810015,10.6924642 L37.998557,15 L35.3189151,15 L31.5197715,10.8128684 L31.5197715,9.15499579 L32.6400517,9.15499579 C32.7817411,9.15499579 32.9607991,9.14496211 33.1772257,9.12489475 C33.3944309,9.10482739 33.610079,9.06083357 33.8241701,8.9936851 C34.0390397,8.9257648 34.2344464,8.8285153 34.4111689,8.70039293 C34.5878914,8.57304238 34.7085609,8.39938254 34.7747345,8.17941342 L31.1414141,8.17941342 L31.8981288,6.52076901 L34.7669494,6.52076901 C34.7062254,6.32086725 34.594898,6.16341566 34.4337458,6.04841426 C34.2725936,5.93341285 34.0795224,5.84696885 33.8545321,5.78908223 C33.6303203,5.73196744 33.3788606,5.69569183 33.10171,5.6802554 C32.8237808,5.66559079 32.5365095,5.65787258 32.2391175,5.65787258 L31.1414141,5.65787258 L31.8981288,4 L39.1414141,4 Z" id="Fill-49" fill="#000000"></path>
            </g>
        </g>
    </g>
</svg>