<?xml version="1.0" encoding="UTF-8"?>
<svg width="49px" height="49px" viewBox="0 0 49 49" version="1.1" xmlns="http://www.w3.org/2000/svg" xmlns:xlink="http://www.w3.org/1999/xlink">
    <title>noun_profile Update_1978806</title>
    <g id="Page-1" stroke="none" stroke-width="1" fill="none" fill-rule="evenodd">
        <g id="Wealth-Homepage6" transform="translate(-881.000000, -2337.000000)" fill="#B8B8B8" fill-rule="nonzero" stroke="#B8B8B8">
            <g id="Group-19" transform="translate(0.000000, 2162.000000)">
                <g id="Group-50" transform="translate(110.000000, 123.000000)">
                    <g id="Group-5-Copy" transform="translate(580.000000, 0.000000)">
                        <g id="Group" transform="translate(192.000000, 53.000000)">
                            <path d="M19.6062097,24.4429839 C17.2618548,24.4429839 15.3493548,26.3554839 15.3493548,28.6998387 L15.3493548,33.3885484 C15.3493548,33.7587097 15.596129,34.0054839 15.9662903,34.0054839 L32.9320161,34.0054839 C33.3021774,34.0054839 33.5489516,33.7587097 33.5489516,33.3885484 L33.5489516,28.6381452 C33.5489516,26.2937903 31.6364516,24.3812903 29.2920968,24.3812903 L19.6062097,24.3812903 L19.6062097,24.4429839 Z M32.3150806,28.6381452 L32.3150806,32.7716129 L16.6449194,32.7716129 L16.6449194,28.6381452 C16.6449194,26.9724194 18.0021774,25.6151613 19.6679032,25.6151613 L29.4154839,25.6151613 C31.0195161,25.6768548 32.3150806,27.0341129 32.3150806,28.6381452 Z" id="Shape" stroke-width="0.7"></path>
                            <path d="M19.2977419,16.9780645 C19.2977419,19.8159677 21.6420968,22.1603226 24.48,22.1603226 C27.3179032,22.1603226 29.6622581,19.8159677 29.6622581,16.9780645 C29.6622581,14.1401613 27.3179032,11.7958065 24.48,11.7958065 C21.6420968,11.7958065 19.2977419,14.0784677 19.2977419,16.9780645 Z M28.4283871,16.9780645 C28.4283871,19.1373387 26.6392742,20.9264516 24.48,20.9264516 C22.3207258,20.9264516 20.5316129,19.1373387 20.5316129,16.9780645 C20.5316129,14.8187903 22.3207258,13.0296774 24.48,13.0296774 C26.6392742,13.0296774 28.4283871,14.7570968 28.4283871,16.9780645 Z" id="Shape" stroke-width="0.7"></path>
                            <path d="M36.2096724,3.55392178 L40.8750066,2.66525099 C41.3193241,2.59119509 41.5414829,2.22091559 41.46743,1.7765802 C41.393377,1.40630071 41.0231124,1.11007711 40.5787949,1.18413301 L33.9880846,2.51713919 C33.7659259,2.59119509 33.61782,2.66525099 33.5437671,2.81336279 C33.4697142,2.96147458 33.3956612,3.18364228 33.4697142,3.40580998 L34.8026668,9.99678499 C34.8767197,10.3670645 35.2469843,10.6632881 35.6913019,10.5892322 C36.0615665,10.5151763 36.3577782,10.1448968 36.2837253,9.70056139 L35.3210373,4.66476026 C42.2079592,8.8859465 46.3549229,16.6618159 45.8365525,25.0301325 C45.1700761,36.2125732 36.0615665,45.2473929 24.879575,45.913896 C12.1424721,46.5803991 1.47885105,36.360685 1.47885105,23.6971263 C1.47885105,11.7000707 11.0316782,1.8506361 22.954199,1.4803566 C23.3244636,1.4803566 23.6947282,1.11007711 23.6947282,0.739797615 L23.6947282,0.739797615 C23.6947282,0.295462221 23.3244636,-0.000761374517 22.954199,-0.000761374517 C9.6987256,0.443574019 -0.890842519,11.7741266 0.0718454921,25.400412 C0.886427655,37.0271881 10.291149,46.5063432 21.991511,47.3209581 C35.8394077,48.2836848 47.3916639,37.3234117 47.3916639,23.6971263 C47.3916639,15.4028656 43.1706472,7.92321982 36.2096724,3.55392178 Z" id="Path"></path>
                        </g>
                    </g>
                </g>
            </g>
        </g>
    </g>
</svg>