<?xml version="1.0" encoding="UTF-8"?>
<svg width="61px" height="61px" viewBox="0 0 61 61" version="1.1" xmlns="http://www.w3.org/2000/svg" xmlns:xlink="http://www.w3.org/1999/xlink">
    <title>innovation</title>
    <defs>
        <filter id="filter-1">
            <feColorMatrix in="SourceGraphic" type="matrix" values="0 0 0 0 0.470588 0 0 0 0 0.470588 0 0 0 0 0.470588 0 0 0 1.000000 0"></feColorMatrix>
        </filter>
    </defs>
    <g id="Page-1" stroke="none" stroke-width="1" fill="none" fill-rule="evenodd">
        <g id="Our-history" transform="translate(-956.000000, -3101.000000)">
            <g id="innovation" transform="translate(3.000000, 2584.000000)" filter="url(#filter-1)">
                <g transform="translate(953.000000, 517.000000)">
                    <path d="M43.6092096,12.3326323 C38.9121348,8.62998973 32.7552736,7.20677947 26.7158391,8.42706754 C18.8681256,10.0132585 12.6643884,16.2914526 11.3045094,23.954752 C10.1113009,30.6759778 12.498665,37.0588467 17.170171,41.3955066 C20.181602,44.1909672 21.9089134,48.0809225 21.9089134,52.067748 L21.9089134,55.7111666 C21.9089134,58.6273706 24.3559379,61 27.3635809,61 L34.6364709,61 C37.644114,61 40.0911384,58.6273706 40.0911384,55.7111666 C40.0911384,52.489661 40.0911384,58.7260771 40.0911384,51.0182452 C40.0911384,47.6029993 41.7303797,44.2253997 44.7072455,41.5079861 C48.7063881,37.8572219 51,32.7102504 51,27.3865253 C51.0004735,21.5224395 48.3062845,16.0357339 43.6092096,12.3326323 L43.6092096,12.3326323 Z M34.6364709,57.473652 L27.3635809,57.473652 C26.3611911,57.473652 25.5453584,56.6826224 25.5453584,55.7107075 L25.5453584,53.8302334 L36.4546934,53.8302334 L36.4546934,55.7107075 C36.4546934,56.6826224 35.6388608,57.473652 34.6364709,57.473652 Z M31.0000259,38.3117311 L26.0666769,31.1369142 L27.3635809,29.8794391 L29.7144858,32.1588711 C30.4242555,32.8470623 31.5757964,32.8470623 32.2855661,32.1588711 L34.6364709,29.8794391 L35.933375,31.1369142 L31.0000259,38.3117311 Z M42.2147655,38.9406982 C38.7014293,42.1479716 36.6814978,46.1586703 36.4726863,50.3043444 L32.8182484,50.3043444 L32.8182484,42.0235555 L39.6858263,32.0353732 L43.1949011,28.6329822 C43.9051443,27.944332 43.9051443,26.8282596 43.1949011,26.1396094 C42.4846579,25.4514183 41.3335905,25.4514183 40.6233473,26.1396094 L38.2729159,28.4190415 L35.9220111,26.1396094 C35.2117679,25.4514183 34.0607005,25.4514183 33.3504573,26.1396094 L30.9995525,28.4190415 L28.6491211,26.1396094 C27.9388779,25.4514183 26.7878105,25.4514183 26.0775673,26.1396094 L23.7266624,28.4190415 L21.3757575,26.1396094 C20.6659879,25.4514183 19.5149204,25.4514183 18.8046773,26.1396094 C18.0944341,26.8282596 18.0944341,27.944332 18.8046773,28.6329822 L22.313752,32.0353732 L29.18133,42.0235555 L29.18133,50.3043444 L25.4544473,50.3043444 C25.0122025,45.9929351 22.9643347,41.8931711 19.6849053,38.8484191 C15.6829218,35.1338399 13.9347767,29.9230536 14.887923,24.5525003 C16.0034782,18.2660423 21.0547276,13.1727855 27.4573331,11.8785823 C32.4200388,10.8754485 37.4708146,12.0383491 41.3146507,15.0684099 C45.1589602,18.0989299 47.3635551,22.58847 47.3635551,27.3860663 C47.3640285,31.8062822 45.535389,35.9097192 42.2147655,38.9406982 Z" id="Shape" fill="#000000" fill-rule="nonzero"></path>
                    <path d="M7,27 C7,25.8958333 6.21660153,25 5.25,25 L1.75,25 C0.783854167,25 0,25.8958333 0,27 C0,28.1046875 0.783854167,29 1.75,29 L5.25,29 C6.21660153,29 7,28.1046875 7,27 Z" id="Path" fill="#000000" fill-rule="nonzero"></path>
                    <path d="M59.25,25 L55.75,25 C54.7833985,25 54,25.8958333 54,27 C54,28.1046875 54.7833985,29 55.75,29 L59.25,29 C60.2161458,29 61,28.1046875 61,27 C61,25.8958333 60.2161458,25 59.25,25 Z" id="Path" fill="#000000" fill-rule="nonzero"></path>
                    <path d="M10.0617908,12.8900938 L6.81328506,11.2236416 C5.91653922,10.7631974 4.76923206,11.0365996 4.25150285,11.8338061 C3.73377389,12.6305785 4.04099235,13.6499786 4.93773819,14.1099889 L8.18624389,15.7764411 C9.08298986,16.2364513 10.2307854,15.963917 10.7485145,15.1667105 C11.2662436,14.3695041 10.9590251,13.350538 10.0617908,12.8900938 Z" id="Path" fill="#000000" fill-rule="nonzero"></path>
                    <path d="M56.0619618,39.8901093 L52.8135378,38.2236571 C51.9163262,37.7632129 50.7695363,38.0366151 50.2518202,38.8333876 C49.7336158,39.630594 50.0408265,40.6495601 50.9380382,41.1100044 L54.1864622,42.7764566 C55.0826971,43.2364668 56.2299754,42.9639325 56.7481798,42.166292 C57.2663842,41.3695196 56.9591735,40.3501195 56.0619618,39.8901093 L56.0619618,39.8901093 Z" id="Path" fill="#000000" fill-rule="nonzero"></path>
                    <path d="M16.8899367,6.06216955 C17.3503897,6.95939013 18.3698091,7.26611552 19.1665966,6.74839432 C19.9633842,6.23067311 20.2367916,5.08338342 19.7763387,4.18665122 L18.1098549,0.938194838 C17.649836,0.040974253 16.6304166,-0.266239525 15.833629,0.25148168 C15.0364075,0.769691269 14.763434,1.91649258 15.2234529,2.81371316 L16.8899367,6.06216955 Z" id="Path" fill="#000000" fill-rule="nonzero"></path>
                    <path d="M8.18624389,38.2236571 L4.93773819,39.8901093 C4.04099235,40.3501195 3.73377389,41.3695196 4.25150285,42.166292 C4.76972045,42.9639325 5.91702761,43.2364668 6.81328506,42.7764566 L10.0617908,41.1100044 C10.9590251,40.6495601 11.2662436,39.630594 10.7485145,38.8333876 C10.2307854,38.0366151 9.08347826,37.7632129 8.18624389,38.2236571 Z" id="Path" fill="#000000" fill-rule="nonzero"></path>
                    <path d="M52.8135378,15.7763387 L56.0619618,14.109855 C56.9591735,13.6498359 57.2663842,12.6304166 56.7481798,11.833629 C56.2304637,11.0364075 55.0836738,10.763434 54.1864622,11.223453 L50.9380382,12.8899367 C50.0408265,13.3503896 49.7336158,14.369375 50.2518202,15.1665965 C50.7695363,15.9633841 51.9163262,16.2367916 52.8135378,15.7763387 L52.8135378,15.7763387 Z" id="Path" fill="#000000" fill-rule="nonzero"></path>
                    <path d="M41.833629,6.74829153 C42.6299826,7.26600485 43.649402,6.95977251 44.1098549,6.06207721 L45.7763387,2.81367031 C46.2367916,1.91646339 45.9633842,0.769679546 45.1665966,0.251477849 C44.3693751,-0.26623547 43.3499557,0.0409736289 42.8899367,0.938180548 L41.2234529,4.18658745 C40.763434,5.08330599 41.0364075,6.23057821 41.833629,6.74829153 L41.833629,6.74829153 Z" id="Path" fill="#000000" fill-rule="nonzero"></path>
                </g>
            </g>
        </g>
    </g>
</svg>