<?xml version="1.0" encoding="UTF-8"?>
<svg width="65px" height="80px" viewBox="0 0 65 80" version="1.1" xmlns="http://www.w3.org/2000/svg" xmlns:xlink="http://www.w3.org/1999/xlink">
    <title>protest</title>
    <defs>
        <filter id="filter-1">
            <feColorMatrix in="SourceGraphic" type="matrix" values="0 0 0 0 0.470588 0 0 0 0 0.470588 0 0 0 0 0.470588 0 0 0 1.000000 0"></feColorMatrix>
        </filter>
    </defs>
    <g id="Page-1" stroke="none" stroke-width="1" fill="none" fill-rule="evenodd">
        <g id="Our-history" transform="translate(-362.000000, -3332.000000)">
            <g id="protest" transform="translate(3.000000, 2584.000000)" filter="url(#filter-1)">
                <g transform="translate(359.000000, 748.000000)">
                    <path d="M11.6556249,25.3212435 L11.6556249,32.603158 C10.0944528,33.156899 8.80886374,34.3214301 8.08623392,35.8957358 L5.01975107,42.591829 C3.04210084,46.9136632 3.99717633,52.0207539 7.39681061,55.300057 L16.3107451,63.8955259 L16.3107451,78.4196891 C16.3107451,79.2924948 17.0055994,80 17.8624519,80 L24.8451322,80 C25.7019846,80 26.3968389,79.2924948 26.3968389,78.4196891 C26.3968389,77.5468834 25.7019846,76.8393782 24.8451322,76.8393782 L19.4141586,76.8393782 L19.4141586,63.2155181 C19.4141586,62.7814067 19.2388157,62.3664171 18.9292502,62.0680544 L9.53087289,53.0051295 C7.10245185,50.6626347 6.42001123,47.014329 7.83268504,43.9273497 L10.8982369,37.2329948 C11.6422802,35.612228 13.5016904,34.9791554 15.0234492,35.7027798 L30.3521394,42.9816917 C28.2038014,45.936399 24.23407,47.0519404 20.8381599,45.4398653 L16.6190692,43.4360311 C15.8422849,43.0668705 14.9190193,43.4094819 14.5570062,44.2002694 C14.1946826,44.991215 14.5307823,45.9315 15.3074115,46.3005026 L19.5266573,48.3044948 C21.2561897,49.1256244 23.199392,49.4911503 25.2063695,49.281443 C28.4806259,52.8840777 30.2761057,57.5396736 30.2761057,62.477513 C30.2761057,63.3503187 30.97096,64.0578238 31.8278125,64.0578238 C32.6846649,64.0578238 33.3795192,63.3503187 33.3795192,62.477513 C33.3795192,57.2890363 31.6740383,52.3687383 28.5354011,48.3775052 C30.8463579,47.3305492 32.8114394,45.4643601 33.9617196,42.9522979 C33.9623402,42.9510337 33.9626506,42.9497694 33.9632713,42.9485052 C34.734004,43.298544 35.5860462,43.4948187 36.4829327,43.4948187 C37.8682964,43.4948187 39.1490752,43.0298912 40.1829774,42.2454249 C41.1794834,44.3832694 43.319287,45.865285 45.7931731,45.865285 C46.7488692,45.865285 47.6546005,45.6437254 48.4639707,45.2491218 C48.03601,48.0860959 47.3427074,50.6729067 46.6239568,53.3499534 C45.4527286,57.7124016 44.2414663,62.223399 44.2414663,67.9896373 L44.2414663,76.8393782 L38.8104928,76.8393782 C37.9536403,76.8393782 37.258786,77.5468834 37.258786,78.4196891 C37.258786,79.2924948 37.9536403,80 38.8104928,80 L45.7931731,80 C46.6500255,80 47.3448798,79.2924948 47.3448798,78.4196891 L47.3448798,67.9896373 C47.3448798,62.6478705 48.448764,58.5363756 49.6175095,54.1837254 C50.7887377,49.8212772 52,45.3102798 52,39.5440415 L52,30.0621762 C52,26.5766425 49.2156174,23.7409326 45.7931731,23.7409326 C44.4078093,23.7409326 43.1270306,24.2058601 42.0931284,24.9903264 C41.0966223,22.8524819 38.9568187,21.3704663 36.4829327,21.3704663 C35.0975689,21.3704663 33.8167901,21.8353938 32.782888,22.6198601 C31.7863819,20.4820155 29.6465783,19 27.1726923,19 C25.3202648,19 23.6557489,19.8318756 22.5175721,21.1468523 C21.3793952,19.8318756 19.7148794,19 17.8624519,19 C14.4400075,19 11.6556249,21.8357098 11.6556249,25.3212435 L11.6556249,25.3212435 Z M42.6897596,30.0621762 C42.6897596,28.3194093 44.0819509,26.9015544 45.7931731,26.9015544 C47.5043953,26.9015544 48.8965865,28.3194093 48.8965865,30.0621762 L48.8965865,39.5440415 C48.8965865,41.2868083 47.5043953,42.7046632 45.7931731,42.7046632 C44.0819509,42.7046632 42.6897596,41.2868083 42.6897596,39.5440415 L42.6897596,30.0621762 Z M33.3795192,27.6917098 C33.3795192,25.948943 34.7717105,24.5310881 36.4829327,24.5310881 C38.1941548,24.5310881 39.5863461,25.948943 39.5863461,27.6917098 L39.5863461,37.1735751 C39.5863461,38.916342 38.1941548,40.3341969 36.4829327,40.3341969 C34.7717105,40.3341969 33.3795192,38.916342 33.3795192,37.1735751 L33.3795192,27.6917098 Z M24.0692788,25.3212435 C24.0692788,23.5784767 25.4614701,22.1606218 27.1726923,22.1606218 C28.8839144,22.1606218 30.2761057,23.5784767 30.2761057,25.3212435 L30.2761057,37.1735751 C30.2761057,38.0737202 30.4630864,38.9299326 30.7976344,39.7058653 L24.0692788,36.5109508 L24.0692788,25.3212435 Z M14.7590384,25.3212435 C14.7590384,23.5784767 16.1512297,22.1606218 17.8624519,22.1606218 C19.573674,22.1606218 20.9658653,23.5784767 20.9658653,25.3212435 L20.9658653,35.0373109 L16.3357276,32.8387824 C15.8317332,32.5990492 15.3012047,32.4315363 14.7590384,32.3367176 L14.7590384,25.3212435 Z" id="Shape" fill="#000000" fill-rule="nonzero"></path>
                    <path d="M34,6.57142857 L34,1.42857143 C34,0.639571429 33.3283,0 32.5,0 C31.6717,0 31,0.639571429 31,1.42857143 L31,6.57142857 C31,7.36042857 31.6717,8 32.5,8 C33.3283,8 34,7.36042857 34,6.57142857 Z" id="Path" fill="#000000" fill-rule="nonzero"></path>
                    <path d="M18.2853877,12.766747 C18.9686032,12.286519 19.2028648,11.2229209 18.8084768,10.3908272 L16.6658401,5.87031799 C16.2714521,5.03822426 15.3978277,4.75297474 14.7146123,5.23320274 C14.0313968,5.71343075 13.7971352,6.77702881 14.1915232,7.60912254 L16.3341599,12.1296317 C16.7272623,12.9591165 17.6003154,13.2483664 18.2853877,12.766747 Z" id="Path" fill="#000000" fill-rule="nonzero"></path>
                    <path d="M7.1298267,20.334206 L2.60919783,18.1915806 C1.77638632,17.7970518 0.713107968,18.031455 0.233215122,18.7148097 C-0.247025599,19.3980216 0.0382314752,20.2716414 0.870173296,20.6660273 L5.39080217,22.8086528 C6.21926525,23.2011818 7.28463085,22.971778 7.76678488,22.2854236 C8.2470256,21.602069 7.96176852,20.728592 7.1298267,20.334206 Z" id="Path" fill="#000000" fill-rule="nonzero"></path>
                    <path d="M48.6658401,12.129968 L50.8084768,7.60927057 C51.2028648,6.77731613 50.9686032,5.71349984 50.2853877,5.23325183 C49.601601,4.75282989 48.7285479,5.03843917 48.3341599,5.87039361 L46.1915232,10.391091 C45.7971352,11.2230455 46.0313968,12.2868618 46.7146123,12.7671098 C47.3951137,13.2449226 48.269738,12.9655752 48.6658401,12.129968 Z" id="Path" fill="#000000" fill-rule="nonzero"></path>
                    <path d="M59.6091978,22.8084485 L64.1298267,20.6659002 C64.9617685,20.2715285 65.2470256,19.3980829 64.7667849,18.7147528 C64.2863702,18.0315656 63.2229179,17.797028 62.3908022,18.1915425 L57.8701733,20.3340909 C57.0382315,20.7284626 56.7529744,21.6019081 57.2332151,22.2852382 C57.7118904,22.9664257 58.7749948,23.2039629 59.6091978,22.8084485 L59.6091978,22.8084485 Z" id="Path" fill="#000000" fill-rule="nonzero"></path>
                    <circle id="Oval" fill="#000000" fill-rule="nonzero" cx="32.5" cy="78.5" r="1.5"></circle>
                </g>
            </g>
        </g>
    </g>
</svg>