<?xml version="1.0" encoding="UTF-8"?>
<svg width="61px" height="73px" viewBox="0 0 61 73" version="1.1" xmlns="http://www.w3.org/2000/svg" xmlns:xlink="http://www.w3.org/1999/xlink">
    <title>behavior</title>
    <defs>
        <filter id="filter-1">
            <feColorMatrix in="SourceGraphic" type="matrix" values="0 0 0 0 0.470588 0 0 0 0 0.470588 0 0 0 0 0.470588 0 0 0 1.000000 0"></feColorMatrix>
        </filter>
    </defs>
    <g id="Page-1" stroke="none" stroke-width="1" fill="none" fill-rule="evenodd">
        <g id="Our-history" transform="translate(-657.000000, -3527.000000)">
            <g id="behavior" transform="translate(3.000000, 2584.000000)" filter="url(#filter-1)">
                <g transform="translate(654.000000, 943.000000)">
                    <path d="M8.72093292,5.52114251 L11.3927424,7.52615821 C11.7310132,7.78005764 12.183377,7.80930873 12.5505647,7.60045597 C13.4282364,7.10128619 14.3667481,6.70434895 15.3396166,6.42075967 C15.7431652,6.3031703 16.0427847,5.95581365 16.1063446,5.53196541 L16.6065216,2.19383146 L21.3453187,2.19383146 L21.8453525,5.53181916 C21.9089125,5.9556674 22.208532,6.30302405 22.6120806,6.42061341 C23.5850922,6.70420269 24.5236039,7.10113993 25.4011325,7.60030972 C25.7680339,7.80916247 26.220684,7.78005764 26.5589548,7.52601196 L29.2224614,5.52713899 L32.5733892,8.95083237 L30.6170589,11.6720609 C30.3685451,12.0178087 30.3399145,12.4799759 30.5443371,12.8549748 C31.0329187,13.7516669 31.4214362,14.7103712 31.6990101,15.7043231 C31.8141052,16.1167635 32.1540938,16.4227298 32.5689515,16.4876672 L35.7636993,16.9872758 C35.8188132,16.9959048 35.8734977,17 35.9276096,17 C36.44883,17 36.9062042,16.6115456 36.9875151,16.0689379 C37.077129,15.4700219 36.6747256,14.9103024 36.0886568,14.8186002 L33.5577099,14.4228331 C33.3322438,13.73514 33.0603961,13.0644126 32.7451729,12.4175248 L34.8495235,9.49022239 C35.1633151,9.05364993 35.1182219,8.44829871 34.7434471,8.06540199 L30.0889671,3.30990665 C29.7140491,2.92657117 29.1212521,2.88108573 28.6942264,3.20138512 L25.8290171,5.35148621 C25.1957078,5.02943175 24.5392076,4.75169269 23.8661017,4.52134039 L23.3281324,0.930623306 C23.2482529,0.395474685 22.7973207,0 22.2670816,0 L15.6847588,0 C15.1545197,0 14.7035874,0.395474685 14.6234217,0.930915817 L14.0854523,4.5216329 C13.4123464,4.7519852 12.7558463,5.02972427 12.1225369,5.35177872 L9.2573276,3.20167764 C8.83001559,2.88093948 8.23736174,2.92700994 7.86258692,3.31019917 L7.31445369,3.87035747 C6.89515825,4.29888588 6.89515825,4.99330666 7.31459684,5.42154256 C7.69853346,5.81379963 8.30049226,5.84714587 8.72093292,5.52114251 Z" id="Path" fill="#000000" fill-rule="nonzero"></path>
                    <path d="M8.95604828,35 C9.1858311,35 9.41650282,34.932469 9.61354418,34.7948692 L10.5464535,34.1428212 C11.041131,33.79713 11.1476519,33.1353541 10.7842365,32.6647516 C10.4211174,32.1938672 9.72554664,32.0926412 9.23101727,32.4384734 L9.06701368,32.5530928 L5.59923392,29.2529544 L7.62387091,26.629959 C7.88106174,26.2966743 7.91069202,25.8513079 7.69927998,25.4898265 C7.19334295,24.6248936 6.79126006,23.7007477 6.50414265,22.7429068 C6.38502893,22.3454747 6.03316936,22.0503965 5.60382661,21.9877999 L2.22256726,21.495345 L2.22256726,16.8282319 L5.60382661,16.335777 C6.03316936,16.2731804 6.38502893,15.9782432 6.50414265,15.5806702 C6.79126006,14.6229702 7.19334295,13.6986833 7.69927998,12.8338914 C7.91054387,12.472551 7.88120989,12.0270436 7.62387091,11.693759 L5.59908576,9.07019964 L5.87790669,8.80500994 C6.31184214,8.3919287 6.31184214,7.72253971 5.87790669,7.30959946 C5.4438231,6.89680018 4.74040026,6.89680018 4.30646482,7.30959946 L3.35311058,8.21682737 C2.96510207,8.58606279 2.91843438,9.16959291 3.24333039,9.59042824 L5.42115594,12.4122102 C5.09492656,13.0360615 4.81358706,13.6824702 4.5802486,14.345233 L0.942983645,14.8750485 C0.400601379,14.9541401 0,15.3980967 0,15.9202991 L0,22.4029959 C0,22.9251983 0.400601379,23.3692958 0.942983645,23.4482465 L4.5802486,23.978062 C4.81358706,24.6408248 5.09492656,25.2873744 5.42115594,25.9110848 L3.24333039,28.7328667 C2.91858253,29.1535611 2.96510207,29.7372322 3.35311058,30.1063266 L8.17010512,34.6904005 C8.38522095,34.8951084 8.66981978,35 8.95604828,35 Z" id="Path" fill="#000000" fill-rule="nonzero"></path>
                    <path d="M18.8362894,12.1445202 C20.8845836,12.1445202 22.7898994,13.0555124 24.0639691,14.6437441 C24.4361757,15.1078183 25.1185062,15.1860218 25.5886848,14.8181651 C26.0584293,14.4504514 26.1375883,13.7760712 25.765237,13.3118541 C24.0771381,11.207079 21.5515744,10 18.8362894,10 C13.9640295,10 10,13.9161799 10,18.7296271 C10,20.4383808 10.4998451,22.0935215 11.4457015,23.5161962 C11.6540909,23.8297251 12.0005382,24 12.3537872,24 C12.5582693,24 12.7649221,23.9430987 12.9485653,23.8238634 C13.4495681,23.4988971 13.5890733,22.8339529 13.259847,22.3389976 C12.5471263,21.2670234 12.1705782,20.0187697 12.1705782,18.7296271 C12.1707229,15.0985254 15.1608214,12.1445202 18.8362894,12.1445202 Z" id="Path" fill="#000000" fill-rule="nonzero"></path>
                    <path d="M50.0302857,36.5940812 C49.4456868,36.5415149 48.9277776,36.9785622 48.875561,37.5712979 C48.4730108,42.1343715 46.3697318,46.319427 42.9532336,49.355779 C42.7230833,49.5602993 42.5911229,49.8553027 42.5911229,50.165243 L42.5911229,65.6434424 L27.0951371,65.6434424 L27.0951371,62.7551667 C27.0951371,62.160133 26.6188025,61.6779878 26.0309401,61.6779878 L17.4904042,61.6779878 C15.7526414,61.6779878 14.3389621,60.2470633 14.3389621,58.4881019 L14.3389621,52.6354297 C14.3389621,52.0403961 13.8626275,51.5582508 13.2747651,51.5582508 L8.59471035,51.5582508 L13.7232887,37.5837932 C13.7756471,37.4411747 13.7974987,37.2889334 13.7875662,37.1372666 C13.7617416,36.7458916 13.7488294,36.3525059 13.7488294,35.9678812 C13.7488294,26.145302 21.6437524,18.1542142 31.3478103,18.1542142 C33.4181702,18.1542142 35.4468135,18.515141 37.3772669,19.2266536 C37.9295142,19.4304558 38.5402214,19.1420591 38.7412837,18.5832187 C38.9424879,18.0242346 38.6578506,17.4060776 38.1056033,17.2025626 C35.9408847,16.4045884 33.6673342,16 31.3478103,16 C20.4701559,16 11.6204353,24.9576763 11.6204353,35.9680248 C11.6204353,36.3236375 11.6303678,36.685426 11.6499491,37.0470708 L6.06660389,52.2604278 C5.94528543,52.59105 5.99154253,52.9608814 6.19033453,53.2504271 C6.38926843,53.5401164 6.71562218,53.7127523 7.06411124,53.7127523 L12.2107099,53.7127523 L12.2107099,58.4882455 C12.2107099,61.4351198 14.5791868,63.8324892 17.4905461,63.8324892 L24.9667431,63.8324892 L24.9667431,65.6432988 L23.5543408,65.6432988 C23.2055679,65.6432988 22.8787885,65.8163656 22.6799965,66.1064858 L19.1143689,71.3088291 C18.8886172,71.6381586 18.8622251,72.0671631 19.0458346,72.4223448 C19.229586,72.7775266 19.59269,73 19.9888551,73 L26.031082,73 L43.6556037,73 L46.1540545,73 C46.7419169,73 47.2182515,72.5178547 47.2182515,71.9228211 L47.2182515,66.7204777 C47.2182515,66.1254441 46.7419169,65.6432988 46.1540545,65.6432988 L44.7196588,65.6432988 L44.7196588,50.6449467 C48.3352327,47.2716532 50.558695,42.7161917 50.9957253,37.7628921 C51.0479419,37.1701565 50.615736,36.6470784 50.0302857,36.5940812 Z M45.0897156,70.8454985 L43.6554618,70.8454985 L26.0309401,70.8454985 L22.0221808,70.8454985 L24.1112706,67.797513 L26.0255482,67.797513 C26.0273928,67.797513 26.0292374,67.7978003 26.031082,67.7978003 C26.0329266,67.7978003 26.0347712,67.797513 26.0366158,67.797513 L43.6502117,67.797513 C43.6520563,67.797513 43.653901,67.7978003 43.6557456,67.7978003 C43.6575902,67.7978003 43.6594348,67.797513 43.6612794,67.797513 L45.0901413,67.797513 L45.0901413,70.8454985 L45.0897156,70.8454985 Z" id="Shape" fill="#000000" fill-rule="nonzero"></path>
                    <path d="M60.0498075,23.9031294 L51.6362408,17.4984525 C50.8992143,16.9373181 49.9239267,16.8425664 49.0916527,17.251786 C48.2592362,17.6607219 47.7422197,18.4885228 47.7422197,19.4119265 L47.7422197,20.8526348 L40.8429154,20.8526348 C39.3142518,20.8526348 38.0706175,22.0897972 38.0706175,23.6103636 L38.0706175,24.2194412 L36.2577803,24.2194412 L36.2577803,22.7787329 C36.2577803,21.8551874 35.7407638,21.0273865 34.9083473,20.6185924 C34.0759307,20.2093728 33.1009283,20.3038408 32.3637592,20.8652589 L23.9501925,27.2699358 C23.3463412,27.72951 23,28.4269563 23,29.1834098 C23,29.9397213 23.3463412,30.6371677 23.9501925,31.0967419 L32.3637592,37.5014188 C32.7970777,37.8312058 33.3122406,38 33.8326792,38 C34.1976991,38 34.5652856,37.9168795 34.9084899,37.748369 C35.7407638,37.3392912 36.2577803,36.5114903 36.2577803,35.5880866 L36.2577803,34.1475201 L43.1570846,34.1475201 C44.6857482,34.1475201 45.9293825,32.9102159 45.9293825,31.3896495 L45.9293825,30.7807137 L47.7422197,30.7807137 L47.7422197,32.2212802 C47.7422197,33.1448257 48.2592362,33.9726266 49.0915101,34.3815625 C49.4347144,34.5500731 49.8021583,34.6331936 50.1673208,34.6331936 C50.6874742,34.6331936 51.2030648,34.4645412 51.6362408,34.1346123 L60.0498075,27.7299355 C60.6536588,27.2703613 61,26.5729149 61,25.8166034 C61,25.0601499 60.6538014,24.3627036 60.0498075,23.9031294 Z M43.7907364,28.6529136 L40.8430579,28.6529136 C40.4937225,28.6529136 40.2095488,28.3702188 40.2095488,28.0227013 L40.2095488,26.3470995 L43.1572272,26.3470995 C43.5065627,26.3470995 43.7907364,26.6297943 43.7907364,26.97717 L43.7907364,28.6529136 Z M43.1572272,32.0198619 L35.1885286,32.0198619 C34.5977952,32.0198619 34.1191343,32.4960318 34.1191343,33.083691 L34.1191343,35.5880866 C34.1191343,35.7329092 34.0332976,35.8053914 33.9614343,35.8407106 C33.8894284,35.8761715 33.7794946,35.8998595 33.6637149,35.8119163 L25.2501482,29.4072394 C25.1583229,29.3373104 25.1390738,29.2469558 25.1390738,29.1835516 C25.1390738,29.1200055 25.1584655,29.029651 25.2501482,28.959722 L33.6637149,22.5550451 C33.7794946,22.4671019 33.8892858,22.4907898 33.9612917,22.5262508 C34.0334401,22.5615699 34.1191343,22.634194 34.1191343,22.7788748 L34.1191343,25.2834122 C34.1191343,25.8710714 34.5977952,26.3472413 35.1885286,26.3472413 L38.0707601,26.3472413 L38.0707601,28.0228431 C38.0707601,29.5435514 39.314537,30.7807137 40.8430579,30.7807137 L43.7907364,30.7807137 L43.7907364,31.3896495 C43.7907364,31.7370252 43.5065627,32.0198619 43.1572272,32.0198619 Z M58.750137,26.0402912 L50.3365703,32.444968 C50.2207905,32.5329112 50.1108568,32.5090814 50.0388509,32.4737623 C49.966845,32.4384432 49.8811509,32.3658191 49.8811509,32.2211384 L49.8811509,29.7167428 C49.8811509,29.1290836 49.40249,28.6529136 48.8117566,28.6529136 L45.929525,28.6529136 L45.929525,26.9773119 C45.929525,25.4566036 44.6857482,24.2195831 43.1572272,24.2195831 L40.2095488,24.2195831 L40.2095488,23.6105054 C40.2095488,23.2631298 40.4937225,22.9804349 40.8430579,22.9804349 L48.8117566,22.9804349 C49.40249,22.9804349 49.8811509,22.504265 49.8811509,21.9166058 L49.8811509,19.4120684 C49.8811509,19.2672457 49.9669876,19.1947635 50.0389935,19.1594444 C50.1109994,19.1241253 50.2207905,19.1002955 50.3365703,19.1882387 L58.750137,25.5929156 C58.8419623,25.6628446 58.8612114,25.7531991 58.8612114,25.8167452 C58.8612114,25.8800076 58.8419623,25.9703621 58.750137,26.0402912 Z" id="Shape" fill="#000000" fill-rule="nonzero"></path>
                    <path d="M35.4508496,49.8564747 L34.0460008,49.8564747 C33.46819,49.8564747 33,50.3361957 33,50.9282374 C33,51.520279 33.46819,52 34.0460008,52 L35.4508496,52 C37.4078473,52 39,50.3686344 39,48.3632951 L39,44.636562 C39,42.6313656 37.4078473,41 35.4508496,41 L34.0460008,41 C33.46819,41 33,41.479721 33,42.0717626 C33,42.6638043 33.46819,43.1435253 34.0460008,43.1435253 L35.4508496,43.1435253 C36.2543177,43.1435253 36.9079984,43.8134483 36.9079984,44.636562 L36.9079984,48.3632951 C36.9079984,49.1865517 36.2543177,49.8564747 35.4508496,49.8564747 Z" id="Path" fill="#000000" fill-rule="nonzero"></path>
                </g>
            </g>
        </g>
    </g>
</svg>