<?xml version="1.0" encoding="UTF-8"?>
<svg width="19px" height="9px" viewBox="0 0 19 9" version="1.1" xmlns="http://www.w3.org/2000/svg" xmlns:xlink="http://www.w3.org/1999/xlink">
    <title>Icons/24/Arrow-CTA</title>
    <g id="Jan-Drop" stroke="none" stroke-width="1" fill="none" fill-rule="evenodd">
        <g id="Landing-Page-Scenario-1A" transform="translate(-164.000000, -31.000000)" fill="#9B1E26">
            <g id="Path" transform="translate(161.000000, 23.000000)">
                <path d="M18.202261,8.1330059 L18.2626223,8.20008075 L21.2618213,12.2000807 C21.3283098,12.2887557 21.3598904,12.3876128 21.362512,12.4847564 C21.3653104,12.5645631 21.3486704,12.6467438 21.3091272,12.724255 L21.2618213,12.7999487 L18.2626223,16.7999487 L18.202261,16.8670236 C18.0501881,17.0080911 17.8248878,17.0403063 17.6393751,16.9475095 L17.5626351,16.9000384 L17.4955603,16.8396771 C17.3544927,16.6876042 17.3222775,16.462304 17.4150744,16.2767913 L17.4625454,16.2000513 L19.862,13 L3.5,13 L3.41012437,12.9919443 C3.17687516,12.9496084 3,12.7454599 3,12.5 C3,12.2545401 3.17687516,12.0503916 3.41012437,12.0080557 L3.5,12 L19.862,12.0000295 L17.4625454,8.7999782 C17.3152946,8.60359142 17.3343402,8.33414998 17.4955603,8.16035235 L17.5626351,8.09999103 C17.7590219,7.95274026 18.0284634,7.97178584 18.202261,8.1330059 Z"></path>
            </g>
        </g>
    </g>
</svg>