<?xml version="1.0" encoding="UTF-8"?>
<svg width="39px" height="40px" viewBox="0 0 39 40" version="1.1" xmlns="http://www.w3.org/2000/svg" xmlns:xlink="http://www.w3.org/1999/xlink">
    <title>Group 19</title>
    <defs>
        <linearGradient x1="35.3114295%" y1="0.478525153%" x2="64.8467388%" y2="100%" id="linearGradient-1">
            <stop stop-color="#FFDF66" offset="0%"></stop>
            <stop stop-color="#BA5B03" offset="100%"></stop>
        </linearGradient>
        <linearGradient x1="4.2028378%" y1="0.478525153%" x2="96.2903118%" y2="100%" id="linearGradient-2">
            <stop stop-color="#FFDF66" offset="0%"></stop>
            <stop stop-color="#BA5B03" offset="100%"></stop>
        </linearGradient>
        <linearGradient x1="3.89865028%" y1="0.478525153%" x2="96.5977749%" y2="100%" id="linearGradient-3">
            <stop stop-color="#FFDF66" offset="0%"></stop>
            <stop stop-color="#BA5B03" offset="100%"></stop>
        </linearGradient>
    </defs>
    <g id="Jan-Drop" stroke="none" stroke-width="1" fill="none" fill-rule="evenodd">
        <g id="Group-9" transform="translate(-449.000000, -318.000000)">
            <g id="Group-5-Copy-3" transform="translate(429.000000, 189.000000)">
                <g id="Group-19" transform="translate(20.000000, 129.500000)">
                    <circle id="Oval-Copy-8" fill="#FFFFFF" cx="19.5" cy="19.5" r="19.5"></circle>
                    <g id="Group-7" transform="translate(7.000000, 8.000000)">
                        <path d="M11.3856569,16.5973367 L12.2848387,16.5973367 C12.4871545,16.5973367 12.6445113,16.4399799 12.6445113,16.237664 L12.6445113,15.4958391 C13.8134476,15.2710437 14.6002316,14.1920256 14.4878339,13.0006099 C14.3754362,11.8316736 13.3188976,10.9100124 12.0825228,10.9100124 L11.4980547,10.9100124 C11.2957388,10.9100124 11.1159024,10.8200942 10.9810252,10.6852169 C10.8461479,10.5278601 10.7787093,10.3480238 10.8011888,10.1457079 C10.8461479,9.7860352 11.1608615,9.51628069 11.5654933,9.51628069 L12.3522773,9.51628069 C12.5545932,9.51628069 12.7344295,9.67363749 12.7793886,9.85347383 C12.8243477,10.0108306 12.9592249,10.1232283 13.1165818,10.1232283 L14.0157635,10.1232283 C14.1281612,10.1232283 14.2180794,10.0782693 14.285518,10.0108306 C14.3529566,9.943392 14.3754362,9.83099429 14.3754362,9.74107612 C14.285518,8.79693531 13.5661726,8.05511039 12.6445113,7.92023313 L12.6445113,7.17840821 C12.6445113,6.97609233 12.4871545,6.81873553 12.2848387,6.81873553 L11.3856569,6.81873553 C11.1833411,6.81873553 11.0259843,6.97609233 11.0259843,7.17840821 L11.0259843,7.94271268 C10.0368844,8.16750811 9.2725799,8.97677165 9.18266173,9.96587155 C9.1152231,10.6177783 9.31753898,11.269685 9.76712984,11.764235 C10.2167207,12.2587849 10.8236684,12.5285394 11.4755751,12.5285394 L12.1499614,12.5285394 C12.3522773,12.5285394 12.5321136,12.6184576 12.6669909,12.7533349 C12.8018681,12.9106917 12.8693068,13.090528 12.8468272,13.3153235 C12.8018681,13.6749961 12.4871545,13.9447507 12.0825228,13.9447507 L11.2957388,13.9447507 C11.0934229,13.9447507 10.9135865,13.8098734 10.8686275,13.6075575 C10.8236684,13.4502007 10.6887911,13.337803 10.5314343,13.337803 L9.63225259,13.337803 C9.51985487,13.337803 9.4299367,13.3827621 9.36249807,13.4502007 C9.29505944,13.5176393 9.2725799,13.6300371 9.2725799,13.7199552 C9.36249807,14.664096 10.0818434,15.405921 11.0035047,15.5407982 L11.0035047,16.2826231 C11.0259843,16.4399799 11.1833411,16.5973367 11.3856569,16.5973367 Z" id="Path" fill="url(#linearGradient-1)" fill-rule="nonzero"></path>
                        <path d="M5.90064845,14.9563301 C6.32775977,14.9563301 6.68743245,14.5966574 6.68743245,14.1695461 L6.68743245,6.77377644 C6.68743245,5.67227883 7.58661417,4.79557666 8.66563224,4.79557666 L15.8366065,4.79557666 L15.0048634,5.62731975 C14.6901498,5.94203335 14.6901498,6.43658329 15.0048634,6.7512969 C15.1622202,6.9086537 15.3645361,6.97609233 15.5668519,6.97609233 C15.7691678,6.97609233 15.9714837,6.9086537 16.1288405,6.7512969 L18.3318357,4.54830168 C18.4891925,4.39094488 18.5566312,4.18862899 18.5566312,3.98631311 C18.5566312,3.78399722 18.466713,3.58168133 18.3318357,3.42432453 L16.1288405,1.22132932 C15.8141269,0.906615717 15.319577,0.906615717 15.0048634,1.22132932 C14.6901498,1.53604292 14.6901498,2.03059287 15.0048634,2.34530647 L15.8366065,3.17704956 L8.68811178,3.17704956 C6.709912,3.17704956 5.11386444,4.77309711 5.11386444,6.7512969 L5.11386444,14.1695461 C5.11386444,14.5966574 5.47353713,14.9563301 5.90064845,14.9563301 Z" id="Path" fill="url(#linearGradient-2)" fill-rule="nonzero"></path>
                        <path d="M17.7698472,8.43726262 C17.3427358,8.43726262 16.9830631,8.79693531 16.9830631,9.22404663 L16.9830631,16.6198163 C16.9830631,17.7213139 16.0838814,18.5980161 15.0048634,18.5980161 L7.8114096,18.5980161 L8.64315269,17.766273 C8.9578663,17.4515594 8.9578663,16.9570094 8.64315269,16.6422958 C8.32843909,16.3275822 7.83388915,16.3275822 7.51917554,16.6422958 L5.31618033,18.845291 C5.00146673,19.1600046 5.00146673,19.6545546 5.31618033,19.9692682 L7.51917554,22.1722634 C7.67653235,22.3296202 7.87884823,22.3970588 8.08116412,22.3970588 C8.28348001,22.3970588 8.48579589,22.3296202 8.64315269,22.1722634 C8.9578663,21.8575498 8.9578663,21.3629998 8.64315269,21.0482862 L7.8114096,20.2165432 L14.9823838,20.2165432 C16.9605836,20.2165432 18.5566312,18.6204956 18.5566312,16.6422958 L18.5566312,9.22404663 C18.5566312,8.79693531 18.1969585,8.43726262 17.7698472,8.43726262 Z" id="Path" fill="url(#linearGradient-3)" fill-rule="nonzero"></path>
                        <rect id="Rectangle" x="0" y="0" width="24" height="24"></rect>
                    </g>
                </g>
            </g>
        </g>
    </g>
</svg>