<?xml version="1.0" encoding="UTF-8"?>
<svg width="24px" height="16px" viewBox="0 0 24 16" version="1.1" xmlns="http://www.w3.org/2000/svg" xmlns:xlink="http://www.w3.org/1999/xlink">
    <title>Shape@1.5x</title>
    <defs>
        <linearGradient x1="0.532670455%" y1="29.3875232%" x2="100%" y2="70.8116548%" id="linearGradient-1">
            <stop stop-color="#FFDF66" offset="0%"></stop>
            <stop stop-color="#BA5B03" offset="100%"></stop>
        </linearGradient>
    </defs>
    <g id="Mobile-Web" stroke="none" stroke-width="1" fill="none" fill-rule="evenodd">
        <g id="Cards" transform="translate(-598.000000, -374.000000)" fill="url(#linearGradient-1)">
            <g id="Group-4" transform="translate(185.000000, 137.000000)">
                <g id="Group-10" transform="translate(383.000000, 96.000000)">
                    <g id="Group-19" transform="translate(22.000000, 129.500000)">
                        <path d="M26.282766,18.1943265 C26.2079607,18.1184046 26.106202,18.0756985 26.0001465,18.0756985 L15.7654929,18.0756985 L13.7379373,16.0232364 C14.3002466,15.1809775 14.1932144,14.0536161 13.4826618,13.3353235 L12.2826521,12.1205727 C11.4631141,11.2931424 10.1367361,11.2931424 9.31719822,12.1205727 L8.11718845,13.3353235 C7.96093718,13.4934942 7.96093718,13.7497307 8.11718845,13.9079013 L14.3459501,20.2135729 L13.0658615,24.3558651 C12.8764069,24.9707536 12.9869546,25.640211 13.3641062,26.1590108 C13.7412577,26.6778106 14.3397,26.9840685 14.9760333,26.9838709 L25.0239666,26.9838709 C25.6601047,26.9836731 26.2579611,26.6772174 26.6347219,26.1584176 C27.0114828,25.6396178 27.1220306,24.9705559 26.9323806,24.3558651 L26.0665533,21.5499174 L30.1173675,25.650492 C30.2734234,25.808465 30.5267458,25.808465 30.6828018,25.650492 L31.8828115,24.4357413 C32.0390628,24.2775706 32.0390628,24.0213341 31.8828115,23.8631634 L26.282766,18.1943265 Z M25.5875626,25.3829147 C25.3778715,25.6605728 25.0422928,25.8241489 24.6857632,25.8225806 L15.3134266,25.8225806 C14.9568971,25.8227449 14.6216828,25.6591688 14.4107164,25.3823882 C14.1995678,25.105432 14.1381726,24.7482675 14.2451132,24.4207643 L15.4234643,20.7903226 L24.5757255,20.7903226 L25.7540766,24.4207643 C25.8624747,24.7486185 25.800533,25.1066606 25.5875626,25.3829147 L25.5875626,25.3829147 Z M30.4001823,24.7916253 L25.4827595,19.8139942 C25.4769,19.8078651 25.4688922,19.805888 25.4628374,19.8001543 C25.4372513,19.7778127 25.4091261,19.7588322 25.3788524,19.7436083 C25.3659616,19.7370837 25.3544381,19.7289775 25.3413521,19.7236392 C25.2962345,19.7056474 25.2483826,19.6961571 25.20014,19.6953662 L14.9654864,19.6953662 L8.96543756,13.6216124 L9.60001302,12.9794395 L15.317247,18.7669044 C15.3922477,18.8428263 15.493811,18.8855324 15.6000618,18.8855324 L25.8345201,18.8855324 L31.0345624,24.1494523 L30.4001823,24.7916253 Z" id="Shape"></path>
                    </g>
                </g>
            </g>
        </g>
    </g>
</svg>