<?xml version="1.0" encoding="UTF-8"?>
<svg width="12px" height="20px" viewBox="0 0 12 20" version="1.1" xmlns="http://www.w3.org/2000/svg" xmlns:xlink="http://www.w3.org/1999/xlink">
    <title>Mobile</title>
    <defs>
        <linearGradient x1="32.1917614%" y1="0.478525153%" x2="68%" y2="100%" id="linearGradient-1">
            <stop stop-color="#FFDF66" offset="0%"></stop>
            <stop stop-color="#BA5B03" offset="100%"></stop>
        </linearGradient>
    </defs>
    <g id="Desktop" stroke="none" stroke-width="1" fill="none" fill-rule="evenodd">
        <g id="Group-5" transform="translate(-470.000000, -1347.000000)" fill="url(#linearGradient-1)">
            <g id="Group-19-Copy-2" transform="translate(457.000000, 1337.000000)">
                <g id="Mobile" transform="translate(13.000000, 10.000000)">
                    <path d="M2.47504543,0 C1.10949839,0 0,1.1568173 0,2.57813365 L0,17.4195092 C0,18.8419327 1.10946411,20 2.47504543,20 L9.52495457,20 C10.8905016,20 12,18.8431827 12,17.4218664 L12,2.57834793 C12,1.15703158 10.8905359,0.000214284949 9.52495457,0.000214284949 L2.47504543,0 Z M2.47504543,1.24999554 L9.52495457,1.24999554 C10.2282312,1.24999554 10.7999863,1.84681483 10.7999863,2.57813365 L10.7999863,14.999875 L1.19987657,14.999875 L1.19987657,2.57813365 C1.19987657,1.84681483 1.77163168,1.24999554 2.47490828,1.24999554 L2.47504543,1.24999554 Z M4.78133464,2.52691955 L4.78133464,3.77691508 L7.20011657,3.77691508 L7.20011657,2.52691955 L4.78133464,2.52691955 Z M1.20015086,16.2500848 L10.8002606,16.2500848 L10.8002606,17.4219378 C10.8002606,18.1532566 10.2285055,18.7500848 9.52522886,18.7500848 L2.47531972,18.7500848 C1.77204311,18.7500848 1.200288,18.1532566 1.200288,17.4219378 L1.20015086,16.2500848 Z" id="Shape"></path>
                </g>
            </g>
        </g>
    </g>
</svg>