<?xml version="1.0" encoding="UTF-8"?>
<svg width="18px" height="20px" viewBox="0 0 18 20" version="1.1" xmlns="http://www.w3.org/2000/svg" xmlns:xlink="http://www.w3.org/1999/xlink">
    <title></title>
    <g id="Jan-Drop" stroke="none" stroke-width="1" fill="none" fill-rule="evenodd">
        <g id="Landing-Page-Scenario-1A" transform="translate(-178.000000, -1099.000000)" fill="#E2E2E3" fill-rule="nonzero">
            <g id="Group" transform="translate(0.000000, 1086.000000)">
                <g id="Easy-Banking" transform="translate(175.000000, 11.000000)">
                    <path d="M11.69,2 L20.402,6.598 L20.402,8.446 L3,8.446 L3,6.598 L11.69,2 Z M15.804,10.25 L18.554,10.25 L18.554,16.696 L15.804,16.696 L15.804,10.25 Z M3,21.25 L3,18.5 L20.402,18.5 L20.402,21.25 L3,21.25 Z M10.304,10.25 L13.054,10.25 L13.054,16.696 L10.304,16.696 L10.304,10.25 Z M4.804,10.25 L7.554,10.25 L7.554,16.696 L4.804,16.696 L4.804,10.25 Z" id=""></path>
                </g>
            </g>
        </g>
    </g>
</svg>