<?xml version="1.0" encoding="UTF-8"?>
<svg width="127px" height="127px" viewBox="0 0 127 127" version="1.1" xmlns="http://www.w3.org/2000/svg" xmlns:xlink="http://www.w3.org/1999/xlink">
    <title>Group 2@3x</title>
    <defs>
        <linearGradient x1="0.819061555%" y1="0%" x2="97.291924%" y2="98.0795258%" id="linearGradient-1">
            <stop stop-color="#9B1E26" offset="0%"></stop>
            <stop stop-color="#56070C" offset="100%"></stop>
        </linearGradient>
        <ellipse id="path-2" cx="55" cy="55.4560951" rx="55" ry="55.4560951"></ellipse>
        <filter x="-12.7%" y="-9.0%" width="125.5%" height="125.2%" filterUnits="objectBoundingBox" id="filter-3">
            <feOffset dx="0" dy="4" in="SourceAlpha" result="shadowOffsetOuter1"></feOffset>
            <feGaussianBlur stdDeviation="4" in="shadowOffsetOuter1" result="shadowBlurOuter1"></feGaussianBlur>
            <feColorMatrix values="0 0 0 0 0   0 0 0 0 0   0 0 0 0 0  0 0 0 0.1 0" type="matrix" in="shadowBlurOuter1"></feColorMatrix>
        </filter>
    </defs>
    <g id="Desktop" stroke="none" stroke-width="1" fill="none" fill-rule="evenodd">
        <g id="1_Homepage_Default-MVP" transform="translate(-727.000000, -2100.000000)">
            <g id="Group-2" transform="translate(735.430922, 2104.000000)">
                <g id="Base-Copy">
                    <use fill="black" fill-opacity="1" filter="url(#filter-3)" xlink:href="#path-2"></use>
                    <use fill="url(#linearGradient-1)" fill-rule="evenodd" xlink:href="#path-2"></use>
                </g>
                <g id="noun-message-4556628" transform="translate(32.043465, 29.183673)" fill="#FFFFFF">
                    <path d="M2.08270242,39.7124569 C3.70159435,41.5870809 6.08842093,42.664066 8.59914281,42.6529508 L36.1095962,42.6529508 C38.6150125,42.6655832 40.9976142,41.5938942 42.6157201,39.7256037 L42.6157201,39.7154826 C43.9636341,38.2014851 44.7066129,36.2627583 44.7066129,34.2560902 L44.7066129,17.4626839 C44.7066129,17.4356945 44.6927967,17.4139533 44.691261,17.388838 C44.6805143,17.2718792 44.6571029,17.1564269 44.6206427,17.0443525 C44.6003017,16.9453962 44.5715169,16.8483015 44.5346725,16.7538458 C44.4843952,16.6676294 44.4268217,16.5859117 44.3627322,16.5086908 C44.2967189,16.4082279 44.2199628,16.3148949 44.1339926,16.2301794 C44.1151862,16.2133111 44.1063593,16.1896948 44.0860183,16.1732018 L25.6589271,1.1733313 C24.7332102,0.415382504 23.5638096,0 22.3556094,0 C21.1478023,0 19.9784115,0.415334523 19.0526847,1.1733313 L0.620680991,16.1732018 C0.599955794,16.19007 0.59151205,16.2136863 0.57270669,16.2301794 L0.572322919,16.2305542 C0.486352752,16.3152707 0.409981769,16.4086123 0.343966506,16.5090657 C0.279488881,16.5862856 0.222301526,16.6679985 0.172026172,16.7542206 C0.134797651,16.848684 0.106012874,16.945771 0.0860560056,17.0447273 C0.0495958122,17.1568113 0.0258002526,17.2722636 0.0154376543,17.3892129 C0.0154376543,17.4143281 4.26354818e-05,17.4360694 4.26354818e-05,17.4630588 L4.26354818e-05,34.256465 C-0.00643865821,36.2547844 0.726224255,38.1883292 2.06336984,39.7007913 L2.08270242,39.7124569 Z M3.80210575,36.0715505 C3.56684225,35.493531 3.44441091,34.8779711 3.44095245,34.2561353 L3.44095245,20.3348813 L14.1199209,27.4435782 L3.80210575,36.0715505 Z M8.59914281,39.2941571 C7.70374633,39.2877847 6.82560283,39.050125 6.05462238,38.6055507 L20.1281843,26.8501664 L20.1278005,26.8501664 C20.7506961,26.3287455 21.5447854,26.0427298 22.3649899,26.0446014 C23.1855481,26.0464849 23.978085,26.3358755 24.5982492,26.8602904 L38.6629685,38.6156747 L38.6633523,38.6156747 C37.888088,39.0576292 37.0073212,39.2919116 36.1099892,39.2941571 L8.59914281,39.2941571 Z M41.2678062,34.2561353 C41.266271,34.8776448 41.1449917,35.4935694 40.9101113,36.0715505 L30.5936913,27.4431943 L41.2678062,20.3311388 L41.2678062,34.2561353 Z M21.2578814,3.75259218 C21.5653009,3.49994258 21.9544658,3.36162249 22.3563345,3.36162249 C22.758557,3.36162249 23.1477218,3.49994258 23.4551806,3.75259218 L39.9300121,17.1566092 L27.8823986,25.1875616 L26.8334643,24.310725 C25.5892058,23.2686702 24.0045054,22.6951034 22.3649807,22.6932801 C20.7257507,22.6914059 19.1395765,23.2615594 17.892567,24.3010328 L16.8333163,25.1875616 L4.78079013,17.1585861 L21.2578814,3.75259218 Z" id="Shape"></path>
                </g>
            </g>
        </g>
    </g>
</svg>