<?xml version="1.0" encoding="UTF-8"?>
<svg width="4px" height="16px" viewBox="0 0 4 16" version="1.1" xmlns="http://www.w3.org/2000/svg" xmlns:xlink="http://www.w3.org/1999/xlink">
    <title>Icons/24/More</title>
    <g id="Mobile-Web" stroke="none" stroke-width="1" fill="none" fill-rule="evenodd">
        <g id="N-1-Landing-Page-Mobile-Web_MVP" transform="translate(-356.000000, -41.000000)" fill="#9B1E26">
            <g id="Group" transform="translate(346.000000, 37.000000)">
                <g id="Icons/24/More" transform="translate(12.000000, 12.000000) rotate(-90.000000) translate(-12.000000, -12.000000) ">
                    <path d="M16,12 C16,13.1 16.9,14 18,14 C19.1,14 20,13.1 20,12 C20,10.9 19.1,10 18,10 C16.9,10 16,10.9 16,12 Z M14,12 C14,10.9 13.1,10 12,10 C10.9,10 10,10.9 10,12 C10,13.1 10.9,14 12,14 C13.1,14 14,13.1 14,12 Z M8,12 C8,10.9 7.1,10 6,10 C4.9,10 4,10.9 4,12 C4,13.1 4.9,14 6,14 C7.1,14 8,13.1 8,12 Z" id="Shape"></path>
                </g>
            </g>
        </g>
    </g>
</svg>