<?xml version="1.0" encoding="UTF-8"?>
<svg width="186px" height="190px" viewBox="0 0 186 190" version="1.1" xmlns="http://www.w3.org/2000/svg" xmlns:xlink="http://www.w3.org/1999/xlink">
    <title>Group 14</title>
    <defs>
        <linearGradient x1="2.08310249%" y1="0%" x2="97.9168975%" y2="89.835122%" id="linearGradient-1">
            <stop stop-color="#353535" offset="0%"></stop>
            <stop stop-color="#000000" offset="100%"></stop>
        </linearGradient>
        <rect id="path-2" x="0" y="0" width="186" height="190" rx="8"></rect>
        <linearGradient x1="0%" y1="36.9506144%" x2="100%" y2="63.0493856%" id="linearGradient-4">
            <stop stop-color="#D6AE0A" offset="0%"></stop>
            <stop stop-color="#876500" offset="100%"></stop>
        </linearGradient>
    </defs>
    <g id="Jan-Drop" stroke="none" stroke-width="1" fill="none" fill-rule="evenodd">
        <g id="Group-10" transform="translate(-525.000000, -808.000000)">
            <g id="Group-14" transform="translate(525.000000, 808.000000)">
                <g id="Millennia-Credit-card-Copy">
                    <mask id="mask-3" fill="white">
                        <use xlink:href="#path-2"></use>
                    </mask>
                    <use id="Mask" fill="url(#linearGradient-1)" xlink:href="#path-2"></use>
                </g>
                <g id="Logo_Private-white" transform="translate(77.000000, 128.000000)" fill="url(#linearGradient-4)" stroke="url(#linearGradient-4)" stroke-width="0.5">
                    <path d="M36.5603493,12.9202803 C37.0896835,16.9811467 32.5422221,24.0891623 25.7330605,28.1440303 C26.9360926,28.0780487 28.1992763,27.9580822 29.46246,27.7961274 C29.7391573,27.7601375 30.063976,27.9880739 30.1060821,28.1260353 C30.1060821,28.1680236 30.027885,28.2280069 29.8895364,28.2460019 C27.9887456,28.4979315 26.2623946,28.6778813 24.7465741,28.7318662 C22.584352,29.9164621 20.2240849,30.6989834 17.7810183,31.0412215 C15.4711966,31.3411378 13.985452,30.5253655 13.871164,29.667605 C13.7869517,29.0677724 14.47268,28.39596 16.1629401,28.174022 C17.1614567,28.0480571 20.4156586,28.3119834 24.4999525,28.174022 C31.0925685,24.4430635 35.459575,17.0111383 34.9422712,13.0462452 C34.7076799,11.2467475 33.4625417,10.1610506 30.8820378,10.4969568 C15.4892421,12.4943992 0.216749633,42.1201286 0.67390183,45.6411457 C0.67390183,45.8630837 0.812250522,45.9890485 0.992705336,45.9650552 C3.71155788,45.611154 11.7117213,30.441389 13.8170275,23.6392879 C13.8831943,23.4473415 14.1117704,23.4173499 14.2019978,23.4053532 C14.3824526,23.4053532 14.4967406,23.549313 14.5328316,23.8192377 C15.0501354,27.7961274 3.70554272,46.6128744 0.896462769,46.9907689 C0.397204447,47.0567505 0.132537386,46.7688309 0.0242644968,46.1330084 C-0.679509281,40.7345155 14.0275581,12.0865131 30.9181288,9.88512765 C34.5272251,9.41725826 36.2776368,10.7488865 36.5603493,12.9202803 Z M81.742826,11.1250449 C81.7454156,11.4607748 81.6612757,11.7916566 81.4982893,12.0866908 C80.4956885,14.0220032 78.6983433,17.09927 76.7665028,20.3929073 C78.0433923,20.2288264 80.8665896,19.8864271 83.6561899,19.5510626 L84.2986283,19.4738801 C87.3939131,19.1022502 90.2962056,18.7571105 90.8131808,18.6956631 L90.8853866,18.6870821 C90.8915086,18.6863547 90.8946146,18.6859858 90.8946146,18.6859858 C91.4081418,18.6198726 91.9338958,18.6018418 91.9828032,18.9564487 C92.0622776,19.5574774 91.9033287,19.948146 90.711212,20.1044135 C90.0509627,20.1044135 83.3253049,20.7582852 76.8051027,21.4840109 L76.0817998,21.5649132 L76.0817998,21.5649132 C72.5176764,27.6052515 68.7884907,33.9761556 68.9780067,35.388573 C69.0758214,36.0977869 69.3876058,36.4704247 69.9561538,36.3983012 C71.6942906,36.1754123 74.3002873,34.623089 76.2415626,33.0592304 C76.7421641,30.3539547 79.9415534,27.6770287 81.6696596,27.4540019 C81.9171976,27.377953 82.1855079,27.4193542 82.3993004,27.5665879 C82.613093,27.7138216 82.749331,27.9510229 82.7697848,28.2116311 C82.9357255,29.4536463 80.1393178,31.9811471 77.5211427,33.8006993 C77.6379158,34.6949502 78.1357378,35.2662772 79.4325334,35.0986052 C81.7679948,34.8067316 85.9533874,31.2110977 87.4284157,29.2549239 L88.0430108,29.75794 C86.8998639,31.5153914 82.1121681,35.7755034 78.9408574,36.1977886 C77.639508,36.4105584 76.4132809,35.5187965 76.1997632,34.2043542 L76.1950327,34.1496004 C74.3162869,35.5679015 71.9071505,36.9271489 70.0234014,37.1676179 C69.0208007,37.3298957 68.1954891,37.0233711 68.0732207,35.95354 C68.0135353,35.5027828 68.1287226,34.8487368 68.38145,34.03861 C66.5924161,35.8833366 63.0307413,38.4184689 60.4690457,38.7589585 C58.7374425,38.9923839 57.9137285,37.7822574 57.7273407,36.3018488 L57.6852531,35.9885674 C55.8153621,37.929684 53.284095,39.9567994 52.0575427,40.1226543 C51.0474409,40.2577953 50.5724525,39.7909445 50.4702398,39.0108122 C50.3810731,38.3177486 50.6137265,37.3665336 51.1318319,36.3467236 C50.2785223,36.8379533 49.3281526,37.1717159 48.328379,37.3207329 C47.1745867,37.5040398 46.0739979,36.7812383 45.8200515,35.6734122 C43.7142951,38.2646356 40.7662361,40.8618711 39.0382772,41.0843195 C38.6975294,41.1773829 38.3315195,41.1087491 38.0509939,40.8991852 C37.7704683,40.6896214 37.608388,40.3637507 37.6137949,40.0201744 C37.5480062,39.5315481 37.6315084,38.9174459 37.8071612,38.2685917 C35.8262447,39.9134093 32.7835445,41.7641975 30.5027133,42.0468024 C30.0845956,42.1683865 29.6308607,42.0943394 29.2788478,41.847074 C28.9268349,41.5998085 28.7179217,41.2083899 28.7153432,40.7912951 C28.6498078,40.3183584 28.7068209,39.7537027 28.8433653,39.1595637 C26.9200151,40.8698821 24.0350276,42.7558502 21.8599528,43.0484972 C20.6535536,43.2172572 19.4471545,42.7859816 19.2722266,41.4671531 C19.1757147,40.6733559 19.9055862,39.0670103 20.7862575,37.8169359 C19.8452662,37.7294307 19.2782586,37.3794099 19.0611067,36.8731298 C18.4173461,37.7722609 17.7287631,38.6359856 16.9981642,39.4607837 C16.8567154,39.6147245 16.6700701,39.7158212 16.4673485,39.7483008 C16.2461599,39.776413 16.022095,39.7304157 15.827957,39.617043 C16.1778127,39.2482711 16.4432206,38.8857495 16.8051403,38.4607242 C17.7582492,37.4241348 18.5116548,36.2085633 19.0249148,34.8792611 C19.2657106,34.1720808 19.775922,33.5982116 20.4364018,33.2916667 C20.6897456,33.2916667 20.8043535,33.34792 20.8164175,33.4541763 C20.8646735,33.8229483 19.8452662,34.7667544 19.9357461,35.5105487 C20.0262261,36.2543429 20.3941778,36.6856186 21.6367689,36.6793682 C21.8436633,36.37162 22.1493845,36.1500891 22.4993443,36.054331 C22.7526882,36.0168288 22.945712,36.3168467 22.96984,36.5293593 C23.048256,37.1543965 20.3338579,39.4607837 20.5872017,41.4734035 C20.7628717,42.036814 21.3173712,42.3751146 21.8780488,42.2609503 C23.6333596,42.0546881 25.937582,40.5483484 27.4697089,39.2982741 C28.1622808,38.7471568 28.8075616,38.1360217 29.3987104,37.4717923 C30.0445429,35.9162738 30.9603556,34.5563857 31.3777798,34.5019137 C31.5298381,34.4791324 31.6826455,34.5383703 31.7749732,34.6558911 C31.846344,34.7585158 31.89687,34.8730247 31.9239207,34.9934567 C31.9921883,35.4968441 29.8696864,38.7126012 30.0620769,40.1635414 C30.1303445,40.6669288 30.4965071,40.9748834 31.3033061,40.8801281 C33.5930961,40.5937409 36.7041047,38.4076044 38.4122445,36.6141772 C39.0515058,35.1936456 39.9075571,33.975266 40.363665,33.9359098 C40.5051899,33.9116722 40.6507988,33.9439782 40.7674248,34.025491 C40.8840507,34.1070039 40.9617961,34.230806 40.9830052,34.3687824 C41.0759062,35.0301155 38.3384228,37.6513995 38.6418995,39.9420169 C38.6728665,40.1464289 38.895829,40.2185744 39.1064046,40.1945259 C41.2493214,39.9179684 44.346022,36.2746242 45.6466363,34.7655822 C45.4422541,32.8777768 46.2659764,30.5570988 47.7709729,30.3586989 C48.1859308,30.3106019 48.3407658,30.6532927 48.390313,31.0080077 C48.4956009,31.7715469 47.7709729,33.1002252 46.6437739,34.6152793 C46.6614,35.1587065 46.9306161,35.6654194 47.3765158,35.9944306 C47.8224156,36.3234419 48.3974146,36.439641 48.9415258,36.3106969 C50.5156073,36.0190966 51.9082851,35.137977 52.8185949,33.8577522 L52.8709375,33.9004883 C54.4317054,32.2328587 56.692265,30.7854192 59.4890064,30.4109286 C60.833979,30.2314527 61.0311302,30.5128591 61.0781298,30.764208 L61.0883343,30.83478 L61.0883343,30.83478 C61.166497,31.406058 60.6073335,31.4490574 60.4510082,31.4981996 C60.0484688,31.5079989 59.6468892,31.5428727 59.248506,31.6026267 C54.2160342,32.2721891 51.5164168,36.651987 51.7208421,38.2613938 C51.7153269,38.4534009 51.7980432,38.6369894 51.9443976,38.7575743 C52.0907521,38.8781591 52.2838923,38.9218554 52.4663935,38.8756712 C53.8733211,38.6852452 56.9216642,35.8534263 57.6551905,35.1162935 C57.8115158,33.8877387 58.4909296,32.7390399 59.5611565,32.5916133 C59.813682,32.5916133 59.9219072,32.5916133 59.9399447,32.7574682 C59.9880448,33.1198919 59.3386936,34.1027358 58.3887169,35.1777212 C58.6893424,37.1495517 59.801657,37.739258 61.2266221,37.548832 C63.7158017,37.2171222 67.142933,34.477445 68.6460607,32.493329 L68.8710389,32.6822257 C69.8869717,30.1460383 71.7347341,26.6832456 73.7198496,23.1720316 L74.3075534,22.1378068 C74.3731489,22.022922 74.4388184,21.9080775 74.5045377,21.7933041 C71.0321156,22.189983 67.8714778,22.54459 65.9090703,22.797022 C61.2567583,23.3980507 57.3869639,23.9389765 55.2167001,24.2154497 C54.4892032,24.3116143 53.4743756,24.1853983 53.4193548,23.7766988 C53.5110561,23.2477935 54.4892032,23.1215775 54.4892032,23.1215775 C55.2193201,23.0266618 60.2643129,22.4106343 65.1875239,21.8109556 L65.9632142,21.7164837 C70.7324188,21.1357114 75.164787,20.597257 75.164787,20.597257 C76.9132248,17.5320107 78.6188688,14.520857 79.7865319,12.2489685 C80.3978738,11.0469112 80.9603084,10.81251 81.2231854,10.7764482 C81.4629536,10.7390795 81.690794,10.8919244 81.742826,11.1250449 Z M81.0919402,28.5097148 C79.9567274,28.6425785 78.793382,29.9061668 78.1257727,31.2913656 C78.2036074,31.2040335 78.2733599,31.119399 78.3376515,31.0371253 L78.9489934,31.5239586 C78.705512,31.8862197 78.3039642,32.331906 77.792249,32.8129394 L77.5457265,32.9809693 C80.0041069,31.3228791 81.6573677,29.6088982 81.5467406,28.7705379 C81.5467406,28.5593954 81.3500701,28.4724543 81.0919402,28.5097148 Z M16.0125611,28.8158428 C15.110287,28.9358093 14.6892258,29.2657172 14.7313319,29.5776301 C14.8035138,30.1234777 16.0306066,30.6933186 18.1539582,30.4173957 C19.9871624,30.1780163 21.7677963,29.6368078 23.4232388,28.8158428 C19.7600061,28.9238126 17.4622148,28.6298947 16.0125611,28.8158428 Z M36.4171703,26.8445032 C36.4854379,27.3478906 35.9268848,28.3309765 35.3497132,28.402043 C35.0750022,28.416365 34.8359152,28.2245129 34.8035724,27.9637998 C34.8275071,27.270249 35.2999237,26.6636714 35.9889463,26.4417933 C36.2496044,26.40626 36.3799335,26.5957706 36.4171703,26.8445032 Z M4.94623656,0 L4.94623656,0.933941998 L2.26481057,0.933941998 L2.26481057,2.50523631 L4.41132293,2.50523631 L4.41132293,3.40131579 L2.26481057,3.40131579 L2.26481057,5.875 L0.989247312,5.875 L0.989247312,0 L4.94623656,0 Z M13.8494624,0 L13.8494624,5.875 L12.8602151,5.875 L12.8602151,0 L13.8494624,0 Z M52.4301075,0 L52.4301075,0.933941998 L50.9731645,0.933941998 L50.9731645,5.875 L49.9187232,5.875 L49.9187232,0.933941998 L48.4731183,0.933941998 L48.4731183,0 L52.4301075,0 Z M27.1892691,0.500750184 C27.5143413,0.839736848 27.6915137,1.3150697 27.6760189,1.80664266 C27.6875635,2.20741941 27.5676937,2.59945717 27.3381573,2.91162861 C27.0932605,3.23957204 26.7504495,3.46196723 26.3703842,3.53946153 L27.6989247,5.875 L26.5192724,5.84988668 L25.2709024,3.57085317 L24.801332,3.57085317 L24.801332,5.84988668 L23.7419355,5.84988668 L23.7419355,0.00476217528 L25.7748316,0.00476217528 C26.2865604,-0.0320116589 26.7919847,0.145220883 27.1892691,0.500750184 Z M38.8780914,0.438426039 C39.2238007,0.724975374 39.4387456,1.14719587 39.4714857,1.60404198 L38.284697,1.60404198 C38.2607627,1.41148649 38.1726273,1.23358751 38.0354714,1.10098668 C37.8847421,0.960554937 37.6862496,0.887737796 37.4836147,0.898537596 C37.3053022,0.889070388 37.1298952,0.948062087 36.9910973,1.06417776 C36.8610425,1.18835541 36.7914091,1.36608228 36.8012112,1.5488286 C36.7968473,1.70135654 36.847623,1.85009118 36.9436258,1.96599641 C37.0484388,2.07946554 37.1733297,2.17109817 37.3115303,2.23592852 C37.5053724,2.32399988 37.703427,2.40180838 37.9049247,2.46905171 C38.1977585,2.57378525 38.4849746,2.69460871 38.7653465,2.83100613 C39.0013684,2.94652111 39.2054443,3.12163813 39.3587408,3.34019626 C39.5146264,3.60765233 39.5871364,3.91822027 39.5664288,4.22974526 C39.5715561,4.51282901 39.5039866,4.79225633 39.3706087,5.0395416 C39.2231279,5.30293799 39.0045344,5.51613927 38.7416107,5.65302368 C38.4274546,5.80952728 38.0813912,5.88529213 37.7328403,5.87387723 C37.374331,5.88190342 37.0182881,5.81079402 36.6884662,5.66529332 C36.3910924,5.5356649 36.1343262,5.32329823 35.9467233,5.05181125 C35.7607643,4.7860984 35.6516927,4.47121056 35.6322243,4.14385777 L36.819013,4.14385777 C36.8416068,4.36327749 36.938251,4.5674533 37.0919744,4.72053092 C37.2528145,4.87524114 37.4657387,4.95889135 37.6853687,4.95365411 C37.8789423,4.96595477 38.0691957,4.89744342 38.2134897,4.76347467 C38.3247416,4.63589085 38.3842365,4.46893789 38.3796401,4.29722829 C38.3885294,4.13551934 38.3352021,3.97673768 38.2312915,3.8555212 C38.1285908,3.73532302 38.0007394,3.64090917 37.8574531,3.57945426 C37.7031706,3.50583642 37.4954825,3.42608375 37.2640587,3.33406143 C36.9726262,3.24112195 36.6888666,3.12418605 36.4155048,2.98437665 C36.1865147,2.85965973 35.9908413,2.67843498 35.8458462,2.45678207 C35.6816485,2.20124616 35.6005775,1.89822116 35.6144224,1.59177234 C35.5945727,1.1412448 35.7842295,0.708051144 36.1247416,0.426156398 C36.5171491,0.127722566 36.9970533,-0.021772407 37.4836147,0.00285376568 C37.9832026,-0.0232763866 38.4760752,0.130675012 38.8780914,0.438426039 Z M25.6774816,1.01557318 L24.8070585,1.01557318 L24.801332,2.76722703 L25.6774816,2.76722703 C26.2844872,2.76722703 26.58799,2.47214556 26.58799,1.88198261 C26.5938714,1.64823784 26.513327,1.42181103 26.3646577,1.25414969 C26.1724546,1.07999424 25.926085,0.994458668 25.6774816,1.01557318 Z" id="Combined-Shape"></path>
                </g>
            </g>
        </g>
    </g>
</svg>