<?xml version="1.0" encoding="UTF-8"?>
<svg width="186px" height="190px" viewBox="0 0 186 190" version="1.1" xmlns="http://www.w3.org/2000/svg" xmlns:xlink="http://www.w3.org/1999/xlink">
    <title>Group 13</title>
    <defs>
        <linearGradient x1="2.20090518%" y1="0.122923951%" x2="97.9168975%" y2="100%" id="linearGradient-1">
            <stop stop-color="#9D1D27" offset="0%"></stop>
            <stop stop-color="#54123C" offset="100%"></stop>
        </linearGradient>
        <rect id="path-2" x="0" y="0" width="186" height="190" rx="8"></rect>
    </defs>
    <g id="Jan-Drop" stroke="none" stroke-width="1" fill="none" fill-rule="evenodd">
        <g id="Group-10" transform="translate(-305.000000, -808.000000)">
            <g id="Group-13" transform="translate(305.000000, 808.000000)">
                <g id="Millennia-Credit-card-Copy">
                    <mask id="mask-3" fill="white">
                        <use xlink:href="#path-2"></use>
                    </mask>
                    <use id="Mask" fill="url(#linearGradient-1)" xlink:href="#path-2"></use>
                </g>
                <g id="Logo_Wealth-white" transform="translate(76.000000, 128.000000)" fill="#FFFFFF" fill-rule="nonzero">
                    <polygon id="Path" points="5 0 5 0.953813104 2.96707106 0.953813104 2.96707106 2.55853921 4.59445407 2.55853921 4.59445407 3.47368421 2.96707106 3.47368421 2.96707106 6 2 6 2 0"></polygon>
                    <polygon id="Path" points="15 0 15 6 14 6 14 0"></polygon>
                    <path d="M26.8075253,5.97435236 L25.5513748,3.64682877 L25.0767004,3.64682877 L25.0767004,5.97435236 L24,5.97435236 L24,0.00486349816 L26.0549928,0.00486349816 C26.5722839,-0.032692758 27.0832019,0.148310689 27.4848046,0.511404443 C27.8153185,0.856156212 27.9947857,1.34260275 27.9768452,1.84508187 C27.9885153,2.25438578 27.8673425,2.65476477 27.6353111,2.97357815 C27.3877525,3.3084991 27.0412152,3.53562611 26.6570188,3.61476922 L28,6 L26.8075253,5.97435236 Z M25.0709117,2.8261042 L25.9565847,2.8261042 C26.5701881,2.8261042 26.8769899,2.5247444 26.8769899,1.9220248 C26.8829352,1.68330673 26.8015153,1.45206233 26.6512301,1.28083373 C26.4575379,1.10175562 26.208032,1.01423936 25.9565847,1.03718112 L25.0767004,1.03718112 L25.0709117,2.8261042 Z" id="Shape"></path>
                    <path d="M40.8061683,5.14691208 C40.6567854,5.41586656 40.4353728,5.63356672 40.1690582,5.77333962 C39.8508504,5.9331457 39.5003239,6.01050931 39.1472777,5.99885353 C38.7841447,6.00704909 38.42351,5.93443917 38.0894344,5.78586817 C37.7882255,5.65350438 37.5281477,5.43665643 37.3381253,5.15944063 C37.149768,4.88812081 37.0392898,4.56658832 37.0195702,4.23232787 L38.2216649,4.23232787 C38.2445501,4.45637769 38.3424407,4.66486194 38.4981466,4.82116976 C38.6610611,4.97914461 38.8767314,5.06455997 39.0991939,5.05921222 C39.295264,5.07177245 39.4879711,5.00181539 39.634126,4.86501968 C39.7533812,4.73768955 39.8202344,4.56687051 39.8204507,4.38893475 C39.8294546,4.22381348 39.7754396,4.06168126 39.6701889,3.93790692 C39.5661636,3.81517237 39.4366634,3.71876624 39.2915291,3.65601453 C39.1352568,3.58084322 38.9248902,3.49940764 38.6604294,3.40544351 C38.3656161,3.30943046 38.0782791,3.19006122 37.8009317,3.04837981 C37.5733709,2.91936121 37.3794382,2.7344413 37.2359473,2.50965213 C37.0696319,2.248724 36.9875154,1.93930468 37.0015388,1.62638929 C36.9814331,1.16635489 37.1735359,0.724020148 37.5184395,0.436176966 C37.9223942,0.125853408 38.4179324,-0.0270906289 38.9188797,0.00394196209 C39.4250337,-0.0237931663 39.9245974,0.133512216 40.3313409,0.448705517 C40.6815088,0.741301507 40.8992259,1.17243154 40.9323882,1.63891785 L39.7302936,1.63891785 C39.7016286,1.44240827 39.6106392,1.26156665 39.4718433,1.12524726 C39.3206736,0.983414563 39.1220821,0.909172674 38.9188797,0.918526173 C38.7382676,0.908859191 38.5605984,0.969095711 38.4200105,1.08766161 C38.2882783,1.21445961 38.2177469,1.39593681 38.2276753,1.58253937 C38.2077909,1.73120146 38.2397844,1.88236295 38.3178324,2.00851009 C38.4239972,2.12437361 38.5504988,2.21793983 38.6904818,2.28413821 C38.8467541,2.35304524 39.0511101,2.43448082 39.2915291,2.52218068 C39.5881396,2.62912427 39.8790599,2.7524973 40.1630477,2.89177293 C40.4021135,3.00972546 40.6088214,3.18853773 40.764095,3.41170779 C40.9304112,3.68196175 41.0123019,3.99928346 40.9985034,4.32002772 C41.0055333,4.60851652 40.9391746,4.89380496 40.8061683,5.14691208 L40.8061683,5.14691208 Z" id="Path"></path>
                    <polygon id="Path" points="53 0 53 0.953813104 51.5272206 0.953813104 51.5272206 6 50.4613181 6 50.4613181 0.953813104 49 0.953813104 49 0"></polygon>
                    <path d="M39.0086123,20.684738 C39.0115776,20.2025227 38.9611435,19.7214468 38.85822,19.2501912 C38.7716138,18.8456058 38.6611354,18.4464315 38.527357,18.0547356 C38.3829804,17.6542579 38.2325882,17.2717121 38.0761802,16.9130754 C37.7747691,16.4697164 37.4006102,16.0797623 36.9692931,15.7594607 C36.4399123,15.3290967 35.8985001,14.9166645 35.3570879,14.5161868 C35.0344869,14.3216906 34.7931722,14.01826 34.6773149,13.6614361 C34.6251187,13.4166253 34.641769,13.1622611 34.7254404,12.9262308 C34.8241955,12.6586494 35.0025341,12.4272472 35.2367741,12.262753 C35.3838221,12.1408966 35.559882,12.0585739 35.7481078,12.0236618 C35.9489828,11.9802149 36.1583085,11.996854 36.3496769,12.0714801 C36.6231305,12.1714175 36.8774294,12.3169583 37.1016383,12.5018441 C37.3756155,12.7177748 37.6274887,12.9600312 37.8535996,13.2250948 C38.0846044,13.4966178 38.295696,13.7842663 38.4852472,14.0858228 C38.7303845,14.4605579 38.9321841,14.8615798 39.0868163,15.2812785 C39.4145077,16.0249655 39.6488747,16.8058846 39.7846364,17.6064397 C39.9494062,18.5938391 40.0199027,19.5945 39.9951856,20.5950788 C39.9586811,22.5133769 39.7574274,24.4250771 39.3936165,26.3093568 C38.9991811,28.4088026 38.4235597,30.4706076 37.6731289,32.4719307 C37.0918058,34.1402211 36.4025753,35.7694363 35.609747,37.3493897 C34.9265303,38.7225711 34.0911937,40.0156912 33.1192509,41.2047341 C32.6268278,41.8648736 32.0596318,42.4665542 31.4288418,42.9979176 C30.8669471,43.4832983 30.2490181,43.9006464 29.5880404,44.2411915 C28.8700902,44.6145802 28.0702745,44.8055567 27.259968,44.7970784 C26.8471295,44.8084622 26.436698,44.7309782 26.0568298,44.5699418 C25.7688335,44.4401829 25.4980806,44.2755563 25.2507273,44.079805 C25.0058612,43.8750448 24.7839963,43.6445762 24.5890013,43.392418 C23.991171,42.2748632 23.6753261,41.0298069 23.6686006,39.7642101 C23.6011855,37.8025268 23.7565696,35.8395448 24.1318088,33.9124547 C23.8731341,34.456387 23.620475,34.9823875 23.3798474,35.5024107 C23.1392198,36.0224339 22.9286706,36.4049797 22.7000743,36.883162 C22.4714781,37.3613442 22.2609289,37.7737764 22.0985052,38.1144813 C21.6413127,38.9094593 21.1660732,39.69846 20.6727865,40.4515971 C20.2076561,41.1759451 19.6867426,41.8633969 19.1147226,42.5077808 C18.6100982,43.079929 18.0454332,43.5969052 17.4303291,44.0499186 C16.9167791,44.4425862 16.3236379,44.7199292 15.6917945,44.8628284 C15.3940273,44.9226134 15.0925705,44.962551 14.7894408,44.982374 C14.487113,45.0058753 14.1833994,45.0058753 13.8810715,44.982374 C13.5489348,44.9495582 13.2240971,44.8648328 12.918561,44.7313283 C12.491756,44.5644031 12.1090258,44.3027007 11.7996425,43.9662367 C11.5186105,43.6620853 11.2761738,43.3248412 11.0777596,42.9620539 C10.8530627,42.571457 10.6696114,42.1588235 10.5303317,41.7307346 C10.0834124,40.3422463 9.94386968,38.8741692 10.1212647,37.4270943 C10.308081,35.8133019 10.6690946,34.2241636 11.1980734,32.6871127 C11.7530404,31.0461297 12.4286168,29.4478854 13.2193455,27.9052901 C14.0254481,26.3213114 14.8616291,24.8389464 15.7218729,23.4462405 C16.5821167,22.0535347 17.4182977,20.8102608 18.2123689,19.6984871 C19.0064401,18.5867133 19.6681661,17.6960989 20.1915312,17.0146891 C19.2450625,17.5367048 18.30862,18.0069173 17.3822036,18.4253268 C16.4557872,18.8437363 15.5173394,19.268123 14.5608446,19.6865325 C13.6043497,20.104942 12.6177764,20.5711697 11.6011247,21.049352 C10.5844729,21.5275342 9.47758578,22.1372166 8.31054175,22.8425354 C7.21276891,23.468823 6.20166772,24.2343625 5.30269631,25.1198784 C4.67079066,25.7408307 4.09880731,26.4192258 3.5942401,27.1461758 C3.16697412,27.784864 2.86113698,28.4959532 2.69188647,29.2442004 C2.64977663,29.4474279 2.60165111,29.686519 2.55352558,29.9674511 C2.50540005,30.2483832 2.46329022,30.5651789 2.43321176,30.8819746 C2.39676892,31.2294023 2.38270366,31.5787885 2.39110193,31.9279983 C2.40002163,32.2667546 2.44642102,32.6035077 2.52946282,32.9321811 C2.64311898,33.2921301 2.64311898,33.6780286 2.52946282,34.0379775 C2.42458742,34.2690505 2.26825709,34.4734349 2.07227031,34.6357054 C1.82913887,34.8035747 1.5437623,34.9008524 1.24812066,34.9166374 C1.05885088,34.9188525 0.871585587,34.8779581 0.70069279,34.7970919 C0.537643506,34.6930134 0.399961936,34.5541692 0.297641502,34.390637 C0.146785411,34.1399629 0.0581190294,33.8572227 0.038966794,33.5657726 C-0.0129889313,33.0670059 -0.0129889313,32.5642424 0.038966794,32.0654757 C0.0943829594,31.5262695 0.184806702,30.9911845 0.309672883,30.4635652 C0.468042819,29.7804933 0.702076641,29.1169541 1.00749303,28.4850861 C2.01706758,26.3600257 3.53514551,24.5130244 5.42902582,23.1055357 C7.81618069,21.3720675 10.4525709,20.0058684 13.249424,19.052941 L14.0013853,18.7779862 L14.921786,18.3894631 L15.914375,17.9710537 L16.8829013,17.5825306 C17.9897884,17.0684847 19.04855,16.5245523 20.0652017,15.9626882 C21.0818535,15.400824 21.9842071,14.8987327 22.7722626,14.4384822 C23.5603181,13.9782318 24.1799343,13.5777542 24.6491582,13.2788903 C25.1183821,12.9800263 25.352994,12.8305944 25.3710411,12.8305944 C25.4751456,12.7317366 25.6200409,12.6873903 25.7620838,12.710913 C25.9041267,12.7344356 26.0267148,12.8230778 26.092924,12.95014 C26.1230238,13.0061084 26.1433638,13.066739 26.1530809,13.1294583 C26.1585723,13.1990865 26.1585723,13.2690349 26.1530809,13.338663 C26.137627,13.4260881 26.1004023,13.5082813 26.0447985,13.5777542 L25.1544762,14.6417097 C24.5529071,15.335074 23.8490713,16.2615521 22.9527333,17.4330986 C22.0563954,18.6046452 21.0397436,19.9734419 19.9749664,21.4677614 C18.9101891,22.962081 17.8514275,24.5759461 16.8227443,26.249584 C15.6196062,28.2420101 14.616991,30.06508 13.8148989,31.7187936 C13.0859595,33.2026598 12.4823154,34.7441188 12.0101916,36.3272751 C11.5608905,37.6748492 11.3671144,39.0935553 11.438701,40.5113699 C11.4756137,40.8163575 11.5359465,41.1180937 11.6191717,41.4139389 C11.6833634,41.6855167 11.7698787,41.9514019 11.8778464,42.2089169 C11.9878174,42.4790011 12.1445935,42.7278365 12.3410546,42.9441221 C12.9193985,43.6397986 13.7918315,44.0267906 14.6992055,43.9901458 L14.6992055,43.9602594 C15.4017734,43.9105844 16.0709083,43.6429669 16.6121952,43.1951678 C17.3426242,42.630008 17.9940365,41.9706947 18.5492476,41.2346205 C19.2372179,40.3278312 19.8680653,39.3796175 20.4381746,38.3954134 C21.0638064,37.327473 21.6653755,36.2037447 22.2428818,35.0242285 C22.9106235,33.6255454 23.524224,32.2029531 24.1017303,30.7624291 C24.6792366,29.321905 25.1845547,27.9949493 25.6237001,26.7755845 C26.0628455,25.5562197 26.4298027,24.5161733 26.7125401,23.6554453 C26.9952776,22.7947172 27.163717,22.2448076 27.2238739,22.0057165 C27.2840308,21.7666253 27.3020779,21.6470798 27.3441877,21.4677614 C27.3862975,21.2884431 27.4284074,21.1091247 27.4645015,20.9238291 C27.4645015,20.9238291 27.4645015,20.8401472 27.49458,20.7325562 C27.5252424,20.5944866 27.5654422,20.45868 27.6148938,20.3261013 L27.8134116,19.8778054 C27.8774469,19.7295734 27.9647583,19.5923812 28.0720863,19.4713505 C28.155373,19.3719003 28.2737062,19.3077671 28.4029493,19.2920322 C28.5508226,19.2924212 28.6921011,19.352891 28.7939692,19.4593959 C29.2252162,19.8896132 29.445073,20.4859897 29.3955383,21.0911929 C29.3835604,22.0001878 29.2459171,22.9032351 28.9864713,23.7749908 C28.9263144,23.9961501 28.8060006,24.4145596 28.6255298,25.0361965 L27.9758352,27.2537668 C27.7231762,28.1144948 27.4624963,29.0688669 27.1937954,30.116883 C26.9170736,31.168884 26.6644146,32.2388168 26.423787,33.3266814 C26.1831593,34.4145461 25.9786259,35.4964334 25.8222179,36.5663662 C25.6722784,37.5566002 25.5778868,38.5543542 25.5394804,39.5550054 C25.5014943,40.3563034 25.5620994,41.1592126 25.7199511,41.9459166 C25.809012,42.5264129 26.0905964,43.0607419 26.520038,43.4641453 C26.7361626,43.4835511 26.9536081,43.4835511 27.1697327,43.4641453 C27.5818264,43.422046 27.9864348,43.3255601 28.3728708,43.177236 C28.9659857,42.9568165 29.5328712,42.6721769 30.06328,42.3284625 C30.7883241,41.8448891 31.4474807,41.2703032 32.0243952,40.6189609 C32.8116512,39.7281846 33.5182296,38.7700938 34.1359027,37.7558446 C34.9701233,36.3821388 35.6981112,34.9474489 36.3135828,33.4641588 C36.5903046,32.8066582 36.854995,32.0953621 37.0956226,31.3362478 C37.3362502,30.5771335 37.5467994,29.8777919 37.7272701,29.2322459 C37.9498507,28.4731315 38.1423528,27.7379263 38.3288392,27.0146756 C38.5454041,25.8730155 38.7198591,24.7731963 38.840173,23.715218 C38.9604868,22.6572398 38.9905652,21.6470798 39.0086123,20.684738 Z" id="Path"></path>
                    <path d="M47.2415952,25.3259085 C47.4674161,25.4694926 47.6705772,25.6468917 47.8442015,25.8521008 C48.0197856,26.0300898 48.164444,26.2369599 48.2720521,26.4639523 C48.3944719,26.7227156 48.446487,27.0100191 48.4227037,27.2960704 C48.3763468,27.5804743 48.2953795,27.8579312 48.1816611,28.1220699 C47.9749385,28.558034 47.6863053,28.9487825 47.3319861,29.2723508 C46.7910322,29.78041 46.1824824,30.2088111 45.524167,30.545002 C44.506909,31.0704228 43.4358801,31.4807852 42.3303532,31.768705 C42.0893107,32.2398307 41.8783985,32.6987194 41.6976165,33.1514895 L41.6976165,33.1514895 C41.6373559,33.2922153 41.5770953,33.4574152 41.5168346,33.6409707 C41.456574,33.8245262 41.4264437,33.9836076 41.3782352,34.1794001 C41.3257015,34.39632 41.2914303,34.617383 41.2757921,34.8401997 C41.2320349,35.1741491 41.256653,35.513675 41.3481048,35.8375177 C41.4369416,36.1552014 41.6566361,36.4184181 41.9507112,36.5595025 C42.0318249,36.6036687 42.119262,36.6346379 42.209832,36.6512802 L42.493057,36.7124654 C43.0795159,36.7984541 43.6772833,36.7567401 44.2466415,36.5900951 C44.7328384,36.4427334 45.2001082,36.2373487 45.6386622,35.9782435 C45.9187923,35.8081427 46.1866263,35.6179871 46.4401287,35.4092216 C46.6751452,35.2134291 46.8679792,35.0421107 47.0427351,34.9013849 C47.3862207,34.5526295 47.7176542,34.1855186 48.0430616,33.7939336 C48.3684691,33.4023486 48.645668,33.0474747 48.9168409,32.7231934 C49.1880138,32.3989121 49.4712388,31.9767346 49.7363856,31.5851496 L50.5499042,30.3614465 C50.8090249,29.963743 51.0560935,29.6088691 51.2730318,29.3029434 C51.3112018,29.2219907 51.3644005,29.1492784 51.4297095,29.0887954 C51.4999002,28.9942665 51.6159776,28.9471231 51.7310127,28.966425 C51.8235122,29.0153512 51.9007295,29.0895153 51.953977,29.1805731 C52.0262898,29.2784693 52.0142376,29.4375507 51.9117946,29.6394617 C51.7490908,29.963743 51.5683089,30.3063799 51.3634228,30.6490167 C51.1585366,30.9916536 51.0199371,31.2608683 50.8090249,31.6218607 L50.2064185,32.6497712 L49.9352457,33.0474747 C49.7544637,33.2922153 49.5073951,33.5981411 49.2060919,33.965252 C49.0674925,34.1304519 48.8264499,34.4057851 48.4829643,34.7790145 C48.0918373,35.2027612 47.6730854,35.59932 47.229543,35.9660065 C46.7001489,36.4108841 46.1335624,36.8080519 45.5362191,37.1529985 C44.8912075,37.512779 44.1899584,37.7570141 43.4632532,37.8749833 C42.831424,38.0116474 42.1810947,38.0364866 41.5409389,37.9484055 C41.1221201,37.8833852 40.715635,37.753378 40.3357261,37.562939 C40.0003008,37.4021379 39.7086264,37.1605977 39.4860512,36.8593097 C39.1801683,36.3545039 39.0136558,35.7754489 39.0039661,35.1828366 C38.9764275,34.2906915 39.0924471,33.3999617 39.3474517,32.5457565 C39.5261412,31.816926 39.7702122,31.1062483 40.0766054,30.4226317 C40.3341422,29.8562262 40.6259598,29.3065485 40.9503846,28.7767511 C41.2408504,28.2757513 41.5756771,27.8026694 41.9507112,27.363374 C42.2755472,26.9660731 42.6411872,26.6050789 43.0414288,26.2865154 C43.3452474,26.0372648 43.6675989,25.8122481 44.005599,25.6134787 C44.3287713,25.4261302 44.6726378,25.2782582 45.0300298,25.1729456 C45.2541535,25.0939323 45.4868235,25.0425759 45.7230271,25.0199827 C45.9653701,24.9933391 46.2098379,24.9933391 46.4521808,25.0199827 C46.7284756,25.08276 46.994369,25.185803 47.2415952,25.3259085 Z M47.3922468,27.161463 C47.3037721,27.0486454 47.1807878,26.9689862 47.0427351,26.935078 C46.9193434,26.9108079 46.7925108,26.9108079 46.6691191,26.935078 C46.5190254,26.9611963 46.3743665,27.012914 46.2412686,27.0880409 C45.7478465,27.3453496 45.3031093,27.6891983 44.9275867,28.1037144 C44.3900183,28.6813516 43.8907684,29.2945485 43.4331229,29.939269 C43.3306798,30.1044689 43.2222107,30.2635503 43.1137415,30.4165132 C42.9983799,30.5798483 42.8917651,30.7493726 42.7943601,30.9243499 C43.1197676,30.8019796 43.5476181,30.6123057 44.0839378,30.355328 C44.6202469,30.0811592 45.1376624,29.7704442 45.6326362,29.4253137 C46.1043735,29.1191983 46.535708,28.7532103 46.9161877,28.336218 C47.2396925,28.0390444 47.414488,27.609954 47.3922468,27.1675816 L47.3922468,27.161463 Z" id="Shape"></path>
                    <path d="M60.5188466,30.8560683 C60.4182333,31.0518868 60.31762,31.2477053 60.2229251,31.4494577 C60.1282302,31.65121 60.0276169,31.8173591 59.9388405,32.0131775 C59.850064,32.208996 59.767206,32.3929467 59.684348,32.547228 C59.4298555,33.1406173 59.175363,33.7043372 58.926789,34.2799249 C58.6999624,34.7984897 58.5023702,35.3294206 58.334946,35.8702084 C58.2045562,36.2728747 58.1192016,36.688822 58.0804535,37.1103921 C58.0301041,37.3720691 58.1335969,37.6395475 58.3467828,37.7987238 C58.889699,37.4975474 59.3698923,37.094662 59.7612876,36.6119451 C60.2670334,36.0151021 60.7373724,35.3889868 61.1698739,34.7368347 C61.7243818,33.9551135 62.2380048,33.145034 62.7086657,32.3098722 C63.1052005,31.6393422 63.4543879,31.0340851 63.7503093,30.5297041 C63.9765052,30.1216865 64.223431,29.725573 64.4901131,29.3429254 C64.5141336,29.2968523 64.5576411,29.2641365 64.6084817,29.253917 C64.7011808,29.205373 64.8117041,29.205373 64.9044032,29.253917 C65.0050165,29.2895204 65.0286902,29.4081983 64.9635875,29.6099506 C64.7860346,30.1024638 64.5611342,30.6602498 64.282968,31.2773747 C64.0462308,31.7936235 63.7325541,32.3988806 63.3478561,33.0931462 C62.9631582,33.7874117 62.4896838,34.5410162 61.9392698,35.3539596 C61.6019193,35.8524067 61.2527319,36.3271182 60.8976261,36.784028 C60.5644546,37.2042954 60.2025588,37.6008433 59.8145535,37.9708067 C59.4647054,38.3068068 59.0654962,38.5869834 58.6308675,38.8015518 C58.4048141,38.9066684 58.1627189,38.9728668 57.9147374,38.9973703 C57.7358403,39.0068051 57.5565113,38.9908231 57.3820788,38.9498992 C57.2187604,38.920113 57.0658711,38.8485783 56.9381965,38.7422129 C56.7346128,38.6404708 56.5611661,38.4870298 56.43513,38.2971709 C56.33207,38.1452385 56.2466841,37.9819841 56.1806375,37.8105916 C56.1004595,37.61973 56.0409347,37.4207954 56.0030846,37.2172022 C55.9087415,36.4921385 55.9488717,35.7558368 56.1214532,35.0453972 C55.8685999,35.4196602 55.5812836,35.769314 55.2632808,36.0897624 C54.943333,36.3994044 54.5945239,36.6775911 54.2216372,36.9205075 C53.7785339,37.2096307 53.2843318,37.4110508 52.7657034,37.5138969 C52.3249957,37.6421379 51.8570091,37.6421379 51.4163014,37.5138969 C51.0036659,37.3799665 50.6541955,37.0992375 50.433842,36.7246891 C50.1593267,36.2327631 50.0108741,35.6802184 50.0017966,35.1166039 C49.9841959,34.2815323 50.0960046,33.4487828 50.3332287,32.6481042 C50.5133431,31.9376195 50.7610811,31.2461149 51.0730325,30.5831092 C51.3277656,30.0335841 51.6163533,29.5004817 51.9371232,28.9868918 C52.2341943,28.5029245 52.5707215,28.0444485 52.9432563,27.6161624 C53.2707221,27.2107027 53.6396812,26.8407796 54.0440843,26.5124582 C54.4286229,26.2053127 54.8477457,25.9444191 55.292873,25.7351181 C55.7964306,25.4960359 56.3407179,25.3550778 56.8967675,25.3197456 C57.385901,25.2722833 57.8784304,25.3648739 58.3171907,25.5867708 C58.6874111,25.8151299 58.9803101,26.1501554 59.1576077,26.5480615 C59.4104417,27.1670252 59.4622157,27.850152 59.3055685,28.5003125 C59.4416924,28.2451551 59.6370006,27.9069232 59.8974115,27.4737489 C60.1578224,27.0405747 60.400478,26.63707 60.6668074,26.2513669 C60.9003219,25.9119108 61.1637632,25.5941609 61.4539585,25.3019439 C61.7143695,25.0527204 61.9333514,24.9577781 62.1109043,25.017117 C62.3969438,25.0995257 62.6205533,25.3237195 62.7027473,25.6105064 C62.7589717,25.9781226 62.7118314,26.3541754 62.5666234,26.6964089 C62.352741,27.2901353 62.0955817,27.8672807 61.7972275,28.4231719 C61.4657954,29.0818341 61.03375,29.9007114 60.5188466,30.8560683 Z M54.1032686,35.7633983 C54.4922879,35.434571 54.8508287,35.0711213 55.1745044,34.6774958 C55.5059365,34.273991 55.8077764,33.8882879 56.0800242,33.5322543 C56.352272,33.1762207 56.5653354,32.8617243 56.7310515,32.5946991 C56.8967675,32.3276739 57.0032992,32.1615249 57.0447283,32.1021859 C57.2420092,31.8054913 57.4254806,31.5028627 57.5951422,31.1943002 L58.0390245,30.3635551 C58.1692299,30.1143316 58.3112723,29.8235708 58.4651514,29.4853389 C58.4950075,29.3263407 58.5167368,29.1659163 58.5302542,29.0046935 C58.54803,28.7775767 58.54803,28.5494126 58.5302542,28.3222957 C58.5118958,28.0999246 58.466174,27.8806841 58.3941303,27.6695674 C58.3461005,27.4929148 58.2194213,27.3483859 58.0508613,27.2779305 C57.5951422,27.082112 57.0506467,27.2779305 56.4173747,27.8001131 C55.6577585,28.4863389 54.9714666,29.249994 54.3695979,30.0787282 C53.9862614,30.6157588 53.6439889,31.1810913 53.3457096,31.7698879 C53.0325365,32.3827249 52.7539318,33.0127092 52.5112109,33.6568661 C52.3090091,34.2036311 52.1409945,34.7625006 52.0081444,35.3302241 C51.9013974,35.6701199 51.9013974,36.0346935 52.0081444,36.3745893 C52.0693037,36.5703583 52.2606119,36.694909 52.4638635,36.671284 C52.6718186,36.6564001 52.873921,36.595611 53.0557065,36.4932672 C53.1740751,36.4339283 53.2983621,36.3627215 53.4285676,36.2855809 C53.558773,36.2084403 53.6712232,36.1253658 53.7718365,36.0482252 C53.8898683,35.9624938 54.0007146,35.8672344 54.1032686,35.7633983 L54.1032686,35.7633983 Z" id="Shape"></path>
                    <path d="M63.0293535,33.6646988 C63.1776061,32.7239576 63.3781585,31.7924238 63.6300556,30.8745329 C63.8823505,29.9910817 64.1286383,29.2129962 64.3689192,28.5402764 C64.6317345,27.7926949 64.9345351,27.0601316 65.2759793,26.3458322 C65.7144918,25.2881222 66.1890465,24.266885 66.6876292,23.3064357 C67.186212,22.3459864 67.6727806,21.4159311 68.1353212,20.6074517 C68.5978619,19.7989722 69.0123463,19.0938322 69.3727675,18.5163469 C69.7331888,17.9388616 69.9734696,17.5255036 70.1536803,17.3005883 C70.5977808,16.642664 71.0918509,16.020746 71.6314074,15.4404777 C72.0478003,14.99642 72.5204541,14.6101 73.0370503,14.2915858 C73.4744581,13.9897693 74.0280022,13.9174908 74.5267915,14.0970644 C74.9292619,14.2611918 75.0734304,14.8325984 74.965304,15.8173628 C74.6914578,17.2630759 74.175433,18.6507862 73.4395207,19.9205481 C71.5852202,23.3304525 69.345597,26.5107315 66.7657205,29.3973862 C66.5494677,29.9262412 66.333215,30.4672538 66.1229693,31.0265027 C65.9127235,31.5857517 65.7204989,32.1389218 65.5222672,32.6738556 C65.3613253,33.180047 65.2309328,33.6956686 65.1318108,34.217869 C65.0462662,34.6478647 65.0099846,35.0864056 65.0236844,35.5248095 C65.053327,35.6664041 65.1061129,35.802 65.179867,35.9260098 C65.2579583,36.065822 65.3961197,36.096216 65.6003584,36.0171917 C66.1508524,35.8154739 66.649653,35.4914303 67.0600645,35.0689 C67.5706613,34.5825966 68.063237,34.071978 68.5257776,33.543123 C69.0423814,32.9352437 69.5649922,32.2240249 70.087603,31.4702546 C70.369933,31.0629755 70.640249,30.6617751 70.9045579,30.254496 C71.1688668,29.8472169 71.4031406,29.5068045 71.6254004,29.2028648 C71.679413,29.126913 71.7396997,29.0557382 71.805611,28.9901071 C71.9077304,28.8867676 71.9978357,28.8442161 72.081934,28.8685312 C72.1744342,28.9222117 72.2511471,28.9998411 72.3041937,29.0934466 C72.376278,29.1907073 72.3582569,29.3487559 72.2621446,29.549356 C72.099955,29.8715321 71.9197444,30.2119445 71.7155057,30.5523569 C71.511267,30.8927693 71.3731055,31.1602362 71.1628598,31.5188849 L70.5621577,32.5401221 C70.0395469,33.2513409 69.504922,33.9078506 68.9642901,34.5218086 C68.4661085,35.0632612 67.9257402,35.5633313 67.3484015,36.0171917 C66.8221889,36.4529771 66.2065349,36.764482 65.5462953,36.9290106 C65.2282089,36.9941379 64.9027705,37.0145929 64.5791649,36.9897986 C64.1743075,36.9509525 63.7928094,36.7803199 63.4918941,36.5034951 C63.3259037,36.372928 63.2058506,36.1917624 63.1494939,35.9867977 C63.0765184,35.7475908 63.0301772,35.500883 63.0113324,35.2512638 C62.9962225,34.9819875 62.9962225,34.7120606 63.0113324,34.4427843 C62.9933114,34.1692386 63.0113324,33.9078506 63.0293535,33.6646988 Z M73.7338647,16.7048666 C73.4489022,16.9572412 73.2091085,17.2574801 73.0250362,17.5923704 C72.7126712,18.0786738 72.4243341,18.5892924 72.0759269,19.1181474 C71.7094987,19.7260267 71.3190423,20.449403 70.8745228,21.2214097 C70.5921928,21.7077132 70.3218768,22.2061742 70.0575679,22.7167928 C69.793259,23.2274114 69.5890203,23.5982178 69.3066903,24.0906 C69.0243603,24.5829822 68.7720655,25.0328129 68.5558127,25.4583284 C68.5309612,25.5492264 68.4880358,25.6340343 68.4296653,25.7075589 L68.2794898,26.0114986 C68.2194195,26.1330744 68.1593493,26.2668079 68.0992791,26.4066201 C69.204571,24.9071845 70.1196405,23.5657975 70.8444877,22.3824592 C71.5653302,21.2031734 72.1420042,20.2001725 72.5624956,19.3430627 C72.8913661,18.7276436 73.1822621,18.0922069 73.4335137,17.4404005 L73.7338647,16.7048666 Z" id="Shape"></path>
                    <path d="M75.958079,25.3925358 C75.2790438,26.7231508 74.6833989,28.0171434 74.1711442,29.286721 C73.9507556,29.8177462 73.7363234,30.3670827 73.5278477,30.9408341 C73.319372,31.5145855 73.1287656,32.0700257 72.9322028,32.6071547 C72.7718437,33.1193327 72.6425406,33.6411806 72.5450336,34.1697118 C72.4592689,34.6074754 72.4252709,35.0542311 72.4437739,35.5003267 C72.4665226,35.6408316 72.5107461,35.7767828 72.5748158,35.9031735 C72.6462932,36.0435595 72.789248,36.0740782 73.0096366,35.9947296 C73.5554961,35.792184 74.0500975,35.4668106 74.4570538,35.0425464 C74.9693084,34.5542473 75.4517808,34.0415332 75.9104274,33.510508 C76.4266531,32.8797884 76.9448641,32.1859967 77.4650607,31.4291332 C77.7390574,31.0201827 78.0130541,30.617336 78.2691814,30.2083855 C78.5253087,29.799435 78.7695231,29.4576256 78.9899118,29.1524387 C79.0434697,29.0761752 79.1032488,29.0047083 79.1686052,28.9388079 C79.2639084,28.8350443 79.3532552,28.7923181 79.4366455,28.8167331 C79.5290519,28.8663983 79.607105,28.940067 79.6629905,29.0303639 C79.7285115,29.1280238 79.7165986,29.286721 79.6153389,29.4881443 C79.4545148,29.8116425 79.2758213,30.1534518 79.0792585,30.4952612 L78.5431781,31.4962743 L77.9475331,32.5217024 C77.429322,33.2358398 76.899198,33.8950435 76.3631176,34.5115211 C75.8712287,35.0551521 75.3373918,35.5572835 74.7667892,36.0130408 C74.2445712,36.4499252 73.6342587,36.7626272 72.9798544,36.9286016 C72.6604477,36.9941952 72.333789,37.0147311 72.0089531,36.9896389 C71.6111006,36.9572726 71.2364599,36.7847312 70.9487051,36.5013399 C70.6902251,36.2581845 70.5289287,35.9254398 70.496015,35.5674679 C70.43745,35.1471162 70.4175078,34.7220604 70.4364505,34.2978903 C70.4605028,33.7612878 70.5322777,33.2280527 70.6508827,32.7048145 C70.7700116,32.0944407 70.9129664,31.526793 71.079747,30.9408341 C71.2465276,30.3548752 71.437134,29.7933313 71.6336968,29.2439948 C71.8719548,28.5054424 72.139995,27.7607863 72.4437739,27.0039228 C72.7475528,26.2470592 73.0394188,25.5146106 73.3848929,24.8004732 C73.730367,24.0863358 74.0520152,23.3966133 74.3974893,22.7313058 L75.3981728,20.8513544 L74.2664474,20.8513544 C73.9209734,20.8513544 73.5874122,20.8513544 73.2657639,20.8513544 C73.0674281,20.8380422 72.8684548,20.8380422 72.670119,20.8513544 C72.5092949,20.8513544 72.3901659,20.8818731 72.312732,20.8818731 C71.7991373,20.9754282 71.300237,21.139681 70.8295761,21.3701721 C70.445139,21.5771665 70.0235943,21.7017728 69.5906347,21.7363965 C69.4573342,21.7711388 69.3158731,21.7443771 69.2034655,21.6631516 C69.1221811,21.5935078 69.0604963,21.5029067 69.024772,21.4006908 C68.9917427,21.2913482 68.9917427,21.1743278 69.024772,21.0649852 C69.0399791,20.864809 69.1374089,20.6806616 69.2928122,20.5583749 C69.4524185,20.4277883 69.6341483,20.3284691 69.8288926,20.2653955 C70.0237611,20.2077104 70.2230078,20.1668757 70.4245376,20.1433207 C70.615144,20.1433207 70.7461858,20.1433207 70.8295761,20.1433207 L72.7415964,20.0700758 L75.9699919,19.9602086 C76.369074,19.2887973 76.7085917,18.7394609 77.0004577,18.245058 C77.2923237,17.7506552 77.5007994,17.4332608 77.6437542,17.2074225 C78.0428363,16.5970486 78.3883104,16.0599197 78.6861328,15.6753841 C78.9442546,15.3290258 79.2355899,15.0100385 79.5557745,14.7232009 C79.7484526,14.5185979 79.9691699,14.3438262 80.2109839,14.2043832 C80.409048,14.1017252 80.6224388,14.0336495 80.8423675,14.0029598 C81.0594203,13.983994 81.274607,14.0567616 81.4380125,14.2043832 C81.6000469,14.3475312 81.6970663,14.5529961 81.7060527,14.7720308 C81.7210974,15.0467009 81.6867746,15.3218665 81.604793,15.5838281 C81.5024986,15.9187077 81.3667674,16.2418814 81.1997545,16.5482187 C81.021061,16.8839244 80.8185417,17.2135262 80.6041095,17.5431281 L80.0918549,18.3060954 C79.9310308,18.5319337 79.7642502,18.782187 79.5855567,19.0568553 C79.4068632,19.3315235 79.2341262,19.6122955 79.0792585,19.8991712 C80.1514194,19.8991712 81.2533625,19.8991712 82.3791315,19.8991712 C83.5049004,19.8991712 84.6187564,19.9357936 85.7147431,19.972416 L87.0847265,20.0334534 C87.5433731,20.0334534 87.9960632,20.0883871 88.430884,20.1250095 L89.1813966,20.1860469 C89.3958288,20.1860469 89.6400432,20.2226693 89.9140399,20.2348768 C90.1880366,20.2470843 90.4441639,20.2714992 90.7062477,20.3081216 L91.4388909,20.4363002 C91.6873377,20.4676548 91.9312736,20.5291223 92.1655778,20.6194123 C92.3753638,20.6883266 92.5755723,20.7847515 92.7612227,20.906288 C92.9054682,20.9929797 92.9956208,21.1500288 92.9994807,21.3213422 C93.0035844,21.446261 92.9833346,21.570764 92.9399162,21.6875665 C92.9029535,21.7839884 92.8412044,21.8683563 92.7612227,21.9317161 C92.644301,22.0013814 92.506003,22.0231841 92.3740535,21.9927535 C92.1335591,21.9942697 91.8949961,21.948692 91.6711925,21.8584712 L90.9385492,21.5654918 C90.6764654,21.4617282 90.3965123,21.3640684 90.0867769,21.2603049 C89.7512645,21.1533994 89.4059913,21.0818191 89.0563112,21.046674 C88.9133564,21.046674 88.7823145,21.046674 88.6512726,21.046674 L88.2462341,21.046674 C87.3527667,21.0039478 86.3520832,20.9795329 85.2680094,20.9673254 L81.8311381,20.9673254 C81.2771883,20.9673254 80.7172821,20.9368067 80.1573758,20.9368067 L78.435962,20.9368067 C78.1798347,21.4067946 77.9177509,21.8950937 77.6616236,22.4078077 C77.4054962,22.9205217 77.1553254,23.3477834 76.8694158,23.8910161 C76.5835062,24.4342489 76.2559015,24.8798218 75.958079,25.3925358 Z" id="Path"></path>
                    <path d="M90.9041987,28.9202604 C90.9863141,28.9564383 91.015641,29.0408535 90.9921795,29.1614467 C90.9687179,29.2820398 90.9217948,29.3242474 90.8455448,29.5352854 C90.7692948,29.7463233 90.6578524,30.0176579 90.5229485,30.3372297 C90.1323421,31.2028537 89.6896244,32.0426044 89.1973711,32.8515964 C88.7611112,33.5719547 88.2749833,34.2591007 87.7427552,34.9077092 C87.2420685,35.5427751 86.6484517,36.0940269 85.9831391,36.5417461 L85.6722736,36.6924875 C85.4718845,36.7852399 85.2610757,36.8520766 85.0446773,36.8914662 C84.767547,36.9453114 84.4830572,36.9453114 84.2059269,36.8914662 C83.8739051,36.8174044 83.5640944,36.662297 83.3026574,36.439242 C83.0503913,36.2049344 82.8811751,35.8909661 82.8216957,35.5468528 C82.7306136,35.109267 82.7009857,34.6605234 82.7337149,34.2142987 C82.7677691,33.6797862 82.8462607,33.1492504 82.9683303,32.6284991 C83.0942266,32.0695391 83.2669217,31.5228223 83.4844844,30.9944622 C83.6193883,30.6507718 83.7894845,30.2709034 83.994773,29.8608868 L84.5813117,28.7212817 L85.2323696,27.5153505 C84.8137276,27.7372974 84.4203007,28.0062536 84.0592923,28.3172948 C83.3904376,28.8667511 82.7666097,29.4717503 82.1940993,30.1261917 C81.486599,30.9096799 80.8468104,31.7550149 80.2819832,32.6526177 C79.6855187,33.5703731 79.2562381,34.5919085 79.0150596,35.6674459 C79.0151464,35.7607135 79.0249784,35.8537016 79.0443866,35.9448101 C79.0409531,36.0151118 79.0409531,36.0855464 79.0443866,36.1558481 C79.049134,36.2059767 79.049134,36.2564609 79.0443866,36.3065895 C79.0647112,36.4391723 79.0484544,36.5749575 78.9974635,36.6985172 C78.9418558,36.8266342 78.827184,36.9173137 78.6924633,36.9397034 C78.6091466,36.9772957 78.5194838,36.9977788 78.4285209,37 L78.1469824,37 C78.0323444,36.9862221 77.9242085,36.937981 77.8361169,36.8613179 C77.6171253,36.7177673 77.4358392,36.5210505 77.3082321,36.2885005 C77.1468177,35.9318592 77.0513476,35.547462 77.0266935,35.1549251 C76.9911022,34.7658657 76.9911022,34.3742313 77.0266935,33.9851718 C77.0618858,33.5630958 77.1264051,33.1289606 77.2026551,32.6887957 C77.337559,32.08583 77.5017898,31.4225678 77.6894822,30.7653353 C77.8771746,30.1081027 78.0765977,29.4930778 78.2760209,28.9021714 C78.475444,28.3112651 78.7041941,27.7746257 78.9094827,27.2741642 C79.1147712,26.7737027 79.2965982,26.3335378 79.4549636,25.9717584 C79.7892907,25.224081 80.1236177,24.5246409 80.4579448,23.8674083 C80.7922718,23.2101758 81.0972719,22.6614771 81.3670797,22.1549859 C81.6368875,21.6484948 81.9888107,21.0817071 82.2820801,20.6174235 C82.8099649,19.8134693 83.3495805,19.0456931 83.9009268,18.3140948 C84.4464078,17.590536 84.9860234,16.9453628 85.5021774,16.3785751 C85.9674662,15.8664077 86.4693802,15.390747 87.0037165,14.9555762 C87.3913204,14.6296835 87.8243186,14.365454 88.2882362,14.1717208 C88.4950333,14.089514 88.7123822,14.0387331 88.9334287,14.0209794 C89.1279949,13.9930069 89.3254013,13.9930069 89.5199674,14.0209794 C89.7299634,14.0501946 89.9306312,14.1285839 90.1065061,14.2501064 C90.3983732,14.5502351 90.5296931,14.9777278 90.4584293,15.3957411 C90.3609767,16.0546247 90.1630312,16.6935812 89.8718906,17.2890532 C89.3138417,18.4167649 88.6519369,19.486897 87.8952552,20.4847711 C87.4436205,21.0877367 87.0095818,21.6907024 86.587274,22.1730749 C86.1649661,22.6554474 85.7191967,23.1800275 85.2499658,23.6744593 C84.7807349,24.1688912 84.2645808,24.6753823 83.7015037,25.1999624 C83.1384265,25.7245425 82.4990994,26.3214785 81.7776568,27.0088593 C81.5195798,27.5575581 81.2321758,28.2147906 80.9095796,28.962468 C80.5869833,29.7101454 80.2819832,30.4879711 80.0121754,31.2778561 C80.188137,30.9944622 80.3758294,30.7050387 80.5987141,30.4156152 C80.8215988,30.1261917 81.0386181,29.8126496 81.2908297,29.523226 C81.6662145,29.0589425 82.0709261,28.6006886 82.5166955,28.1424347 C82.9493611,27.6987547 83.4056053,27.280057 83.8833307,26.8882662 C84.3283373,26.5225253 84.8010234,26.1938709 85.2968889,25.9054322 C85.7289123,25.6494419 86.1953603,25.4604818 86.6811202,25.3446742 C86.8947416,25.308457 87.1126913,25.308457 87.3263127,25.3446742 C87.5614708,25.3949586 87.7822264,25.5001754 87.9715053,25.6521866 C88.2631972,25.8997499 88.4294142,26.2703427 88.4231401,26.6591393 C88.3976077,27.0463075 88.3062914,27.4258839 88.1533323,27.7806553 C88.0594861,27.9434561 87.9656399,28.1062568 87.8776591,28.2811168 C87.7896783,28.4559769 87.6841013,28.6248072 87.5667936,28.8056969 C87.390832,29.1132094 87.1386203,29.5473447 86.8160241,30.1261917 C86.4934278,30.7050387 86.1766969,31.332123 85.8775622,31.9350886 C85.5725527,32.5707396 85.3061449,33.225206 85.0798696,33.8947269 C84.8861865,34.3884973 84.7943126,34.9182215 84.8100618,35.4503783 C84.8339544,35.60175 84.8857126,35.7470479 84.9625618,35.8784839 C85.0388119,36.017166 85.1971773,36.0292253 85.4317928,35.9086322 C85.7129982,35.7520759 85.9667547,35.5482764 86.1825623,35.3056665 C86.4465047,35.0222727 86.6987163,34.7449085 86.9333318,34.4615147 C87.1679473,34.1781208 87.4788128,33.7439855 87.754486,33.3399986 C88.0301591,32.9360116 88.3410246,32.4415798 88.6401594,31.9772962 L89.4026597,30.6809201 C89.6372751,30.2769331 89.8484291,29.9151537 90.0361214,29.6016116 C90.1787937,29.3527888 90.3416479,29.116794 90.5229485,28.8961418 C90.5456684,28.8718306 90.5785641,28.8605582 90.6109293,28.8659935 C90.7112434,28.8635924 90.8109954,28.8820507 90.9041987,28.9202604 Z M89.5962174,15.2027921 C89.4918919,15.164614 89.3779467,15.164614 89.2736211,15.2027921 C89.0034759,15.323537 88.7629984,15.5048261 88.5697747,15.7334018 C88.1235543,16.203456 87.7100043,16.7051523 87.3321781,17.2347863 C86.8199343,17.9181473 86.1825623,18.8748528 85.420062,20.1049027 C85.2030427,20.4727118 84.9684272,20.8827284 84.7103502,21.347012 C84.4522732,21.8112955 84.2293885,22.2273418 83.918523,22.7820702 C83.6076575,23.3367986 83.2791958,23.9397642 82.9448688,24.5909671 C84.2877648,23.204524 85.5509624,21.7388452 86.7280433,20.2013772 C87.5120177,19.1873714 88.2068617,18.1038083 88.8043902,16.9634517 C88.997948,16.6016724 89.1445826,16.3062192 89.2442942,16.0710626 C89.3440058,15.835906 89.4202558,15.6670756 89.4789097,15.5464825 C89.5273613,15.435521 89.5666036,15.3205484 89.5962174,15.2027921 L89.5962174,15.2027921 Z" id="Shape"></path>
                </g>
            </g>
        </g>
    </g>
</svg>