<?xml version="1.0" encoding="UTF-8"?>
<svg width="186px" height="190px" viewBox="0 0 186 190" version="1.1" xmlns="http://www.w3.org/2000/svg" xmlns:xlink="http://www.w3.org/1999/xlink">
    <title>Group 12</title>
    <defs>
        <linearGradient x1="2.08310249%" y1="0%" x2="97.3723873%" y2="99.4318182%" id="linearGradient-1">
            <stop stop-color="#6C9FF3" offset="0%"></stop>
            <stop stop-color="#25499B" offset="100%"></stop>
        </linearGradient>
        <rect id="path-2" x="0" y="0" width="186" height="190" rx="8"></rect>
    </defs>
    <g id="Jan-Drop" stroke="none" stroke-width="1" fill="none" fill-rule="evenodd">
        <g id="Group-10" transform="translate(-74.000000, -808.000000)">
            <g id="Group-12" transform="translate(74.000000, 808.000000)">
                <mask id="mask-3" fill="white">
                    <use xlink:href="#path-2"></use>
                </mask>
                <use id="Mask" fill="url(#linearGradient-1)" xlink:href="#path-2"></use>
                <g id="Logo_Select-white" mask="url(#mask-3)" fill="#FFFFFF" fill-rule="nonzero">
                    <g transform="translate(83.000000, 127.000000)">
                        <polygon id="Path" points="5 0 5 0.953813104 2.28055077 0.953813104 2.28055077 2.55853921 4.44234079 2.55853921 4.44234079 3.47368421 2.28055077 3.47368421 2.28055077 6 1 6 1 0"></polygon>
                        <polygon id="Path" points="14 0 14 6 13 6 13 0"></polygon>
                        <path d="M26.8364018,6 L25.5576961,3.66248446 L25.0927122,3.66248446 L25.0927122,6 L24,6 L24,0.00488437695 L26.0633661,0.00488437695 C26.5827649,-0.0328331066 27.0957647,0.14894738 27.4990038,0.513599881 C27.8330067,0.858672521 28.0153836,1.34736397 27.9988615,1.85300273 C28.0132259,2.26448945 27.8912562,2.66758919 27.6559359,2.9863436 C27.4073686,3.32270235 27.0594193,3.5508044 26.6736574,3.63028727 L27.9988615,6 L26.8364018,6 Z M25.0927122,2.83823655 L25.9819939,2.83823655 C26.5980975,2.83823655 26.9119617,2.53558302 26.9119617,1.93027597 C26.9179312,1.6905331 26.8361796,1.45829597 26.685282,1.28633229 C26.4884145,1.10670821 26.2362066,1.01895623 25.9819939,1.0416337 L25.0927122,1.0416337 L25.0927122,2.83823655 Z" id="Shape"></path>
                        <path d="M40.7669556,5.14698281 C40.6279462,5.41011878 40.4219204,5.62712627 40.1721005,5.77354532 C39.8567221,5.93199522 39.5101312,6.00930313 39.1608469,5.99910782 C38.7995812,6.00667303 38.4408463,5.93409044 38.1079534,5.78607657 C37.8098476,5.65368426 37.5524493,5.43678959 37.3643846,5.15951406 C37.1779678,4.88813579 37.0686277,4.56653403 37.0491114,4.23220156 L38.2388215,4.23220156 C38.2567683,4.45636968 38.351985,4.66586864 38.5065063,4.82117031 C38.668733,4.9774932 38.8815132,5.06265955 39.1013614,5.05926406 C39.2951355,5.06975565 39.4851277,5.00005119 39.6307824,4.86502969 C39.7524221,4.72997842 39.818671,4.5499006 39.8151875,4.36377968 C39.8224807,4.19774981 39.7668454,4.0354706 39.6605252,3.91265468 C39.558759,3.78851447 39.4302591,3.69183636 39.2857665,3.63070155 C39.0920953,3.5354886 38.8934972,3.45181501 38.6909114,3.38007655 C38.3991353,3.28404282 38.1147587,3.16464786 37.8402686,3.02293593 C37.6015862,2.90581298 37.3933971,2.72952414 37.2335164,2.50915467 C37.0689145,2.24817032 36.987644,1.93868434 37.001523,1.62570154 C36.9810633,1.16406717 37.1738811,0.720525365 37.5190469,0.435232783 C37.9096964,0.129478936 38.389264,-0.0233892972 38.8753165,0.0029046547 C39.3779624,-0.0236844663 39.8738932,0.133467793 40.2791745,0.447764033 C40.6240559,0.741878208 40.8391196,1.17227977 40.8740295,1.63823279 L39.6843194,1.63823279 C39.6554593,1.44319841 39.5678765,1.26308902 39.4344802,1.12445154 C39.2815544,0.980054456 39.0803766,0.905663601 38.8753165,0.917685911 C38.696714,0.909188528 38.5212603,0.969306104 38.3815867,1.08685779 C38.2512117,1.2136831 38.1814069,1.39519941 38.1912331,1.58184217 C38.1885012,1.73844975 38.2415577,1.89045559 38.3399469,2.00790467 C38.4442087,2.12477517 38.5696033,2.21850826 38.708757,2.28359217 C38.8574708,2.35251405 39.0597215,2.43396717 39.3036121,2.52168592 C39.5975707,2.62751858 39.8855526,2.75094339 40.166152,2.8913578 C40.4038968,3.00744022 40.6088916,3.18665517 40.7610071,3.41140468 C40.9273417,3.68116581 41.0104486,3.99848658 40.9989491,4.31992031 C40.9959805,4.61294195 40.9156528,4.89931234 40.7669556,5.14698281 Z" id="Path"></path>
                        <polygon id="Path" points="54 0 54 0.953813104 52.5272206 0.953813104 52.5272206 6 51.4670487 6 51.4670487 0.953813104 50 0.953813104 50 0"></polygon>
                        <path d="M9.92703544,47.9877982 C8.62560883,47.9826685 7.33483014,47.7548798 6.11148974,47.314454 C5.20992749,46.9851032 4.36259054,46.5249678 3.59712684,45.9490614 C2.88320902,45.414203 2.2829245,44.7446525 1.8307869,43.978906 C1.43107531,43.3088223 1.17633373,42.5635664 1.08276394,41.7905371 C0.988962472,41.1107988 0.972095235,40.4227879 1.03247668,39.739331 C1.0788911,39.2132463 1.16930017,38.6918968 1.30277069,38.1806637 C1.36069028,37.9107613 1.44057337,37.6459597 1.54163517,37.3888607 C2.20604011,35.3147989 3.56286463,33.5270429 5.38861041,32.3200748 C6.2909341,31.720116 7.25110458,31.2105285 8.25498411,30.7988155 C9.43935017,30.3155426 10.6632944,29.9338311 11.9133821,29.6578711 C13.7119051,29.2321867 15.5366385,28.9239482 17.3758355,28.73514 C19.2616077,28.5356306 21.1473799,28.3859986 23.0834393,28.2800092 C23.1651561,27.887225 23.240587,27.4882062 23.3034461,27.095422 C23.3663052,26.7026379 23.4291642,26.2911497 23.4920233,25.8484882 C23.4920233,25.7404206 23.5548824,25.324776 23.6806005,24.6015544 C23.8320349,23.7241697 24.0420269,22.8577238 24.3091912,22.0079321 C23.5548824,22.0889828 22.8068594,22.1450948 22.0714083,22.1762681 C21.3359571,22.2074415 20.600506,22.2261455 19.8650548,22.2261455 C18.9158828,22.2261455 17.9792826,22.2261455 17.0866838,22.1326254 C15.7746551,22.0329721 14.4693157,21.8602068 13.1768495,21.6151479 C11.9157843,21.3957252 10.6689777,21.1021785 9.44302058,20.7360596 C8.6754064,20.5125489 7.92186423,20.2439846 7.18637988,19.9317872 C6.48864418,19.6325231 5.84748164,19.3083203 5.26289226,19.0402296 C4.46637884,18.6887972 3.70100334,18.2716891 2.97482202,17.7932957 C2.4478067,17.439545 1.94777245,17.0477795 1.47877609,16.6211779 C1.06043049,16.2515253 0.688933321,15.8328105 0.372456418,15.3742441 C0.179791447,15.1090904 0.0566614351,14.8005606 0.0141597049,14.4764518 C-0.0122761717,14.2684083 -0.0016378027,14.0573752 0.0455892412,13.8529849 C0.0981460687,13.6594827 0.207551118,13.4858614 0.359884604,13.3542113 C0.588134711,13.1754935 0.858571204,13.0574714 1.14562301,13.0113045 C1.40770108,12.9741313 1.67462386,13.0292869 1.89993188,13.1671713 C2.2360189,13.3878432 2.49853381,13.7024631 2.65424075,14.0711983 C2.99391717,14.7645327 3.37163768,15.4388876 3.78570406,16.0912311 C4.21356078,16.7708683 4.79451425,17.342818 5.48289902,17.7621224 C6.30859023,18.2042932 7.1608882,18.5957364 8.03497736,18.9342402 C9.09577484,19.3503049 10.1810387,19.7021707 11.2847914,19.9878993 C12.5784306,20.3180978 13.8901654,20.5741429 15.2134834,20.7547636 C16.7555061,20.9570269 18.3096232,21.0549298 19.8650548,21.047793 C20.6193637,21.047793 21.3988162,21.047793 22.1971264,20.972977 C22.9954366,20.898161 23.8251764,20.8420489 24.7114893,20.7360596 C24.8372074,20.3806834 24.9754974,20.0128379 25.1326451,19.6262885 C25.2897928,19.239739 25.4532264,18.8718935 25.6229459,18.5165174 C26.8424119,16.0725271 28.346839,14.6011451 30.1362273,14.1023716 C30.2490797,14.0630823 30.3646147,14.0318296 30.4819522,14.0088516 C30.7051749,13.9629067 30.9328971,13.9419932 31.1608301,13.9465049 C31.4456153,13.9474166 31.7297002,13.9745499 32.0094276,14.0275556 C32.6112814,14.1232134 33.149777,14.4531025 33.5054736,14.9440519 C33.7546541,15.2970553 33.9102924,15.7065636 33.9580589,16.1348737 C34.0725792,16.8336724 33.9510345,17.5504203 33.612334,18.1736105 C33.2412164,18.7963883 32.734351,19.3289453 32.1288599,19.7322778 C30.6546497,20.6329647 29.0306244,21.2663018 27.3327126,21.6026786 C27.1650884,22.2718664 27.0079408,22.995088 26.8612696,23.7723434 C26.7104078,24.5579117 26.5532601,25.4245307 26.3898265,26.3846698 C26.3458252,26.6776992 26.2955379,26.9707287 26.2452507,27.2637581 C26.1949634,27.5567876 26.1446762,27.8435823 26.1006748,28.1366118 L26.7984105,28.1366118 C27.0309891,28.1366118 27.2572817,28.1366118 27.4898603,28.1366118 L29.8345037,28.0368571 C30.5888126,28.0368571 31.305406,27.9869797 31.9779981,27.943337 C32.1391946,27.9204065 32.3019411,27.9734445 32.4180116,28.0867344 C32.5436255,28.1920618 32.6226104,28.3420289 32.6380183,28.5044573 C32.6381213,28.6714133 32.5779098,28.8328804 32.4682989,28.9595881 C32.3654677,29.0899241 32.2077158,29.1658561 32.0408572,29.1653322 C30.695673,29.2463829 29.1870553,29.3087296 27.5275758,29.3523723 C27.2572817,29.3523723 26.9807018,29.3897803 26.7104078,29.3960149 C26.4401138,29.4022496 26.1509621,29.3960149 25.8555244,29.3960149 C25.5412291,30.9796209 25.1787417,32.5445228 24.7680625,34.0907208 C24.3749844,35.5911991 23.8750468,37.062119 23.2720165,38.4923972 C22.702415,39.8404879 21.9991269,41.1290858 21.1725235,42.339188 C20.3916226,43.486764 19.4400484,44.5104594 18.3501512,45.3754719 C17.2432058,46.2417473 15.9953599,46.9143506 14.6603236,47.3643313 C13.131222,47.8440355 11.5293684,48.0550311 9.92703544,47.9877982 Z M4.53372702,45.0762078 C5.11706204,45.4786472 5.75104949,45.8035373 6.4194992,46.0425815 C7.02817729,46.2662821 7.66101838,46.4190182 8.30527137,46.4977123 C8.89113082,46.5697744 9.48256725,46.5864752 10.0716113,46.5475897 C10.6141162,46.5094152 11.152416,46.4259915 11.6808036,46.2982029 C12.8845738,46.0292289 14.038414,45.5748209 15.1003371,44.9515144 C16.9106784,43.6547032 18.4989176,41.6201229 19.8650548,38.8477733 C21.2240552,35.8769172 22.2302673,32.7594431 22.8634326,29.5581163 C20.0182496,29.7519347 17.194407,30.1815474 14.4214591,30.8424582 C12.4542653,31.3075056 10.5536559,32.0154717 8.7641426,32.9497763 C7.43110864,33.6471711 6.24650126,34.5934833 5.27546408,35.7366734 C4.4779465,36.7133517 3.85501341,37.8183218 3.43369325,39.00364 C3.10641959,39.8358028 2.94420819,40.7228102 2.9559643,41.6159664 C2.97222801,42.2569089 3.1020185,42.8900197 3.33940464,43.4863671 C3.49961877,43.9006943 3.73385011,44.2829697 4.03085444,44.6148422 C4.18939134,44.7780971 4.35729465,44.9321417 4.53372702,45.0762078 Z M31.4059805,18.6848534 C31.7251449,18.4747131 31.9987094,18.2033786 32.2105767,17.8868158 C32.3719192,17.6471759 32.5048045,17.3898481 32.6065888,17.1199515 C32.6886334,16.8552885 32.7309926,16.5800975 32.732307,16.3032098 C32.6934519,16.0498289 32.5919531,15.8099309 32.4368693,15.6049269 C32.1787737,15.3117865 31.7974856,15.1549801 31.4059805,15.1809694 C30.8541164,15.1775376 30.3232147,15.390408 29.9287923,15.7732629 C29.6012603,16.0836915 29.3140789,16.4334589 29.0739089,16.8144527 C28.8354718,17.2537962 28.6255158,17.7077694 28.4453182,18.1736105 C28.172662,18.8432846 27.9396865,19.528187 27.7475825,20.2248167 C28.5458927,19.9941339 29.2562002,19.7509818 29.8785051,19.5015951 C30.4173407,19.2878885 30.9298172,19.0138672 31.4059805,18.6848534 Z" id="Shape"></path>
                        <path d="M36.2298937,26.3259063 C36.4668313,26.4684445 36.6817833,26.6457506 36.8678037,26.852095 C37.0393335,27.0319705 37.1815409,27.238515 37.289065,27.4639424 C37.4113214,27.722704 37.463267,28.0100056 37.4395155,28.2960549 C37.3961187,28.5811264 37.3151505,28.8589557 37.1987947,29.1220489 C36.9923481,29.55801 36.7041002,29.9487559 36.3502541,30.272322 C35.8100224,30.7803777 35.2022849,31.208776 34.5448484,31.5449646 C33.5294046,32.0714317 32.4596891,32.481836 31.3552984,32.7686594 C31.1145777,33.2397819 30.903947,33.6986674 30.7534966,34.1514345 L30.7534966,34.1514345 C30.6933164,34.2921594 30.6331362,34.4573582 30.572956,34.6409124 C30.5127758,34.8244667 30.4887037,34.983547 30.4345416,35.1793382 C30.382078,35.3962567 30.3478526,35.6173181 30.3322352,35.8401333 C30.2885365,36.1740805 30.3131217,36.5136041 30.4044515,36.8374446 C30.4952651,37.1539854 30.7140214,37.4164266 31.0062533,37.5594245 C31.0876658,37.6026413 31.174841,37.6335588 31.2650282,37.6512016 L31.547875,37.7123864 C32.1335511,37.7983745 32.7305204,37.7566609 33.2991185,37.5900169 C33.7846663,37.4426563 34.2513123,37.237273 34.6892809,36.9781695 C34.969037,36.8080699 35.2365134,36.6179155 35.4896774,36.4091514 C35.7243801,36.2133603 35.9169567,36.042043 36.0914792,35.9013181 C36.4345063,35.5525651 36.7654974,35.1854566 37.0904704,34.7938743 C37.4154434,34.402292 37.6922723,34.0474205 37.9630831,33.7231413 C38.2338939,33.3988622 38.5167408,32.9766875 38.7815337,32.5851052 C39.0463265,32.1935228 39.3351914,31.7713481 39.5939662,31.3614104 C39.852741,30.9514726 40.0392996,30.6271935 40.2800203,30.3212698 C40.3160914,30.2406757 40.3671835,30.1679527 40.4304708,30.1071232 C40.5005678,30.012595 40.6164903,29.965452 40.7313718,29.9847537 C40.8237478,30.0336795 40.9008621,30.1078431 40.9540385,30.1989003 C41.0262547,30.2967959 41.0142186,30.4558762 40.9119123,30.6577859 C40.7494258,30.982065 40.5688852,31.3246995 40.3702906,31.6673341 L39.8106149,32.6462899 L39.208813,33.6741935 C39.1305787,33.796563 39.0403085,33.925051 38.9380021,34.0718944 C38.7574616,34.3166333 38.5167408,34.622557 38.2098219,34.9896655 C38.0714074,35.1548643 37.8306867,35.4301956 37.4876596,35.8034225 C37.0985175,36.2286542 36.6802201,36.6253094 36.2359117,36.9904065 C35.7005423,37.4277056 35.1286684,37.8166837 34.5267944,38.1529165 C33.8826439,38.5126946 33.1823309,38.7569281 32.4565959,38.8748964 C31.8256252,39.0116819 31.1761432,39.0365217 30.5368479,38.9483181 C30.1185882,38.8832984 29.7126458,38.753292 29.3332441,38.5628543 C28.998841,38.4038071 28.7091238,38.1618526 28.4907215,37.8592298 C28.1803487,37.3563148 28.0117347,36.7764204 28.003262,36.1827679 C27.9783528,35.2903282 28.0962372,34.3997026 28.352307,33.5457056 C28.5261188,32.8162777 28.7679335,32.105358 29.0744693,31.4225951 C29.3334888,30.8559764 29.6269326,30.3062913 29.9531001,29.7767256 C30.2390936,29.274547 30.5715933,28.8012771 30.9460732,28.3633581 C31.2720258,27.9675199 31.6370196,27.6066846 32.0353346,27.2865067 C32.3387476,27.0372578 32.6606688,26.8122426 32.9982176,26.6134745 C33.3209584,26.4261273 33.664366,26.2782563 34.0212808,26.1729444 C34.2451053,26.0939317 34.4774646,26.0425756 34.7133529,26.0199826 C34.9553724,25.9933391 35.1995138,25.9933391 35.4415332,26.0199826 C35.7174591,26.0827594 35.9829976,26.1858018 36.2298937,26.3259063 L36.2298937,26.3259063 Z M36.3803441,28.1614485 C36.293235,28.0500957 36.1728172,27.970625 36.0373171,27.9350649 C35.9120558,27.9109043 35.7834432,27.9109043 35.6581819,27.9350649 C35.5099648,27.9603061 35.3673317,28.0120968 35.2369206,28.0880268 C34.7411874,28.3433836 34.2947453,28.6874313 33.9189745,29.1036935 C33.3821237,29.6813268 32.8835403,30.2945195 32.4265058,30.9392357 C32.3241995,31.1044345 32.2218931,31.2635148 32.1075508,31.4164766 C31.9922634,31.5785022 31.8877197,31.7481556 31.7946138,31.92431 C32.1155748,31.8019405 32.5428541,31.6122678 33.0764518,31.3552919 C33.6127679,31.0824716 34.1295822,30.7717049 34.6230827,30.4252839 C35.0948739,30.1176025 35.5274402,29.7517985 35.9109387,29.3361955 C36.2303646,29.0368715 36.4023661,28.6086579 36.3803441,28.1675669 L36.3803441,28.1614485 Z" id="Shape"></path>
                        <path d="M39.0210665,35.5179203 C39.169615,34.5375767 39.3705676,33.5668282 39.6229673,32.6102968 C39.8677403,31.6896549 40.1145197,30.8788144 40.3633054,30.1777752 C40.6221091,29.3978174 40.9235629,28.6342676 41.2661566,27.8909515 C41.7115632,26.7887151 42.1810458,25.7244869 42.6866425,24.7236057 C43.1922392,23.7227244 43.6918169,22.7281778 44.1552805,21.8856638 C44.6187442,21.0431498 45.0280367,20.3083256 45.3590822,19.7065298 C45.6901276,19.1047341 45.960983,18.6739751 46.1475722,18.4395915 C46.5887771,17.7510274 47.0840713,17.1026167 47.6282483,16.5011759 C48.0433757,16.038592 48.5149636,15.6359963 49.0306772,15.3039191 C49.4711702,14.9892767 50.0276378,14.9140121 50.5294102,15.101209 C50.9266648,15.2722457 51.07714,15.8677067 50.9627788,16.8939267 C50.6911754,18.4003743 50.1761069,19.8466421 49.4399697,21.1698436 C47.585203,24.7301036 45.3452845,28.052567 42.7648896,31.0709667 C42.5421863,31.6220849 42.325502,32.1858725 42.1148367,32.7686641 C41.9041715,33.3514557 41.7115632,33.9279127 41.5129359,34.4853655 C41.3470226,35.0119191 41.2143159,35.5494249 41.1156814,36.0943772 C41.0316642,36.5426742 40.9973271,36.9997132 41.0133582,37.4563359 C41.0407468,37.6036353 41.0916235,37.7449944 41.1638334,37.8744256 C41.2420806,38.0201235 41.3865368,38.051797 41.585164,37.969446 C42.1380109,37.7581581 42.6395571,37.4206796 43.053802,36.9812341 C43.5654177,36.4744587 44.0529574,35.9423446 44.516421,35.3912265 C45.0420811,34.7366416 45.5657348,34.0165984 46.0873822,33.2310966 C46.3682692,32.8087838 46.6391246,32.386471 46.8999483,31.9641583 C47.1647846,31.5524033 47.405545,31.1849912 47.6282483,30.8682566 C47.6823687,30.7891074 47.7427757,30.7149364 47.8088185,30.6465424 C47.9111416,30.5388526 48.0014268,30.4945098 48.0796739,30.5198485 C48.1730508,30.571393 48.2519237,30.6478492 48.3083962,30.7415628 C48.3746053,30.8429178 48.3625673,31.0076198 48.2602441,31.2166646 C48.0977309,31.5524033 47.9171607,31.907146 47.7185334,32.2618888 L47.1888607,33.2881088 C46.9781954,33.6555209 46.7735491,34.0102637 46.5869598,34.352337 C46.0633061,35.0934959 45.5336334,35.7776426 44.9859037,36.4174465 C44.4888486,36.9816474 43.949405,37.5027784 43.3728095,37.9757807 C42.8451068,38.4291959 42.2283844,38.75373 41.567107,38.9259844 C41.250427,38.9939143 40.926318,39.0152335 40.6040657,38.9893313 C40.1978384,38.9511282 39.8149185,38.7730052 39.5146252,38.482556 C39.3466948,38.3468282 39.2243768,38.1581672 39.1655227,37.9441072 C39.0944905,37.694572 39.0500775,37.4374891 39.0331045,37.1776095 C39.0179256,36.8969987 39.0179256,36.6157063 39.0331045,36.3350955 C38.9849525,36.0436997 38.9969905,35.771308 39.0210665,35.5179203 Z M49.7710152,17.8441305 C49.4854841,18.1071293 49.2452118,18.4200073 49.0607722,18.7689955 C48.7477838,19.2757708 48.4588714,19.8078849 48.1097689,20.3590031 C47.7486284,20.9924723 47.3573929,21.7463006 46.9059673,22.5508064 C46.6250802,23.0575817 46.3542249,23.5770265 46.0934012,24.1091406 C45.8706979,24.552569 45.6178995,25.0276709 45.3350061,25.5407809 C45.0521127,26.0538909 44.8053334,26.5226581 44.5826301,26.9660865 C44.5600217,27.0604985 44.5190295,27.14894 44.4622499,27.2258089 C44.4201169,27.3081599 44.3719648,27.4158496 44.3117747,27.5425435 C44.2515847,27.6692373 44.1913946,27.8086005 44.1312045,27.9542984 C45.238702,26.3917411 46.1535912,24.9938858 46.8758722,23.7607325 C47.5981532,22.5275792 48.1619337,21.4802435 48.5672135,20.6187254 C48.8981543,19.9772164 49.1916238,19.3150685 49.4459887,18.635967 C49.626559,18.1714229 49.7349011,17.9074774 49.7710152,17.8441305 Z" id="Shape"></path>
                        <path d="M54.2452908,26.3259716 C54.4707376,26.4695551 54.6735622,26.6469533 54.8468988,26.8521613 C55.0202264,27.030473 55.1626143,27.2373467 55.2680244,27.4640098 C55.3928597,27.7218976 55.4449232,28.009944 55.4184264,28.2961237 C55.3779779,28.5818573 55.2969165,28.8600965 55.1777832,29.1221192 C54.9760694,29.5593202 54.6895888,29.9505712 54.335532,30.2723943 C53.7950286,30.7798859 53.1875686,31.2082272 52.5307079,31.5450391 C51.5177265,32.0715935 50.4503384,32.482012 49.3482015,32.7687361 C49.1075583,33.2398594 48.8969955,33.6987458 48.710497,34.1515137 L48.710497,34.1515137 C48.6503362,34.2922388 48.5901754,34.4574379 48.5300146,34.6409924 C48.4698538,34.824547 48.4457895,34.9836276 48.3976608,35.1794191 C48.3430418,35.396128 48.3068123,35.6172047 48.2893714,35.8402154 C48.2512571,36.1746595 48.2778255,36.5134562 48.3675804,36.8375285 C48.45627,37.1552106 48.6756005,37.418426 48.9691884,37.5595097 C49.0484463,37.6027364 49.1336125,37.6336707 49.2218638,37.6512869 L49.5106357,37.7124718 C50.096123,37.7984601 50.6929001,37.7567463 51.261315,37.5901021 C51.7467064,37.4427412 52.2132021,37.2373575 52.6510295,36.9782536 C52.9297495,36.8066721 53.1970422,36.6165867 53.4511682,36.4092345 L54.0527762,35.9014003 C54.3896767,35.5526467 54.7265772,35.1855376 55.0454295,34.7939546 C55.3642817,34.4023715 55.6470375,34.0474994 55.9237772,33.7232197 C56.2005169,33.39894 56.4772566,32.9767646 56.735948,32.5851816 C56.9946395,32.1935985 57.2894274,31.7714231 57.5541349,31.3614846 C57.8188424,30.9515461 58.0534696,30.608911 58.2760645,30.3029867 C58.3141591,30.2236063 58.3649887,30.1512336 58.4264666,30.0888398 C58.4973712,29.9954225 58.6125784,29.9485552 58.7272706,29.9664701 C58.8206021,30.0162552 58.8994366,30.090102 58.9558816,30.180617 C59.0280746,30.2785128 59.0100263,30.4375934 58.913769,30.6395034 C58.7513349,30.9637831 58.5708525,31.3064182 58.3663057,31.6490534 L57.8188424,32.6463664 C57.6082796,33.0012385 57.4037329,33.3438737 57.2172344,33.6742718 C57.1390254,33.7966415 57.0487842,33.9251297 56.9465108,34.0719733 C56.7660284,34.3167127 56.5253852,34.622637 56.2245812,34.9897461 C56.0801953,35.1549452 55.8395521,35.430277 55.4966355,35.8035045 C54.6414316,36.7443209 53.6418082,37.5377951 52.536724,38.1530027 C51.89493,38.5127934 51.1968142,38.7570496 50.4732085,38.8749839 C49.8424261,39.0116474 49.1931741,39.0364864 48.5540789,38.9484057 C48.135954,38.8833858 47.7301423,38.7533792 47.3508629,38.5629412 C47.0149273,38.4038649 46.7233557,38.1620105 46.5025956,37.8593154 C46.1939569,37.3616872 46.0215742,36.7892667 46.0032609,36.201206 C45.9783598,35.3087648 46.0962062,34.4181376 46.3521936,33.5641391 C46.5307027,32.827817 46.7785053,32.1106851 47.0921714,31.4226694 C47.3492815,30.8562668 47.6406157,30.3065918 47.9645031,29.776797 C48.2544876,29.2757997 48.5887595,28.8027202 48.9631724,28.3634271 C49.2870045,27.9677827 49.6498663,27.6069452 50.0460668,27.2865737 C50.3608443,27.0458923 50.6926264,26.8291193 51.03872,26.6380144 C51.3511709,26.445184 51.6842019,26.2891768 52.0313733,26.1730095 C52.2572002,26.0940298 52.4914714,26.0426809 52.7292386,26.0200474 C52.9691642,25.9933175 53.2112426,25.9933175 53.4511682,26.0200474 C53.7292027,26.0818368 53.9967787,26.1849166 54.2452908,26.3259716 Z M54.3956928,28.1615171 C54.3073648,28.0487 54.1845842,27.9690412 54.0467602,27.9351331 C53.9215392,27.9109724 53.792968,27.9109724 53.6677471,27.9351331 C53.5200616,27.9622415 53.3777793,28.0139216 53.2466215,28.0880952 C52.7520552,28.3422274 52.3075284,28.686482 51.935116,29.1037637 C51.3966822,29.6798168 50.8981581,30.2931352 50.4431281,30.9393091 C50.3408547,31.1045082 50.2325653,31.2635888 50.1242759,31.416551 C50.0070075,31.5784305 49.900487,31.7480852 49.8054236,31.9243852 C50.1302919,31.8020155 50.5574336,31.6123425 51.0868487,31.3553661 C51.6259631,31.094681 52.1466063,30.7961952 52.6450135,30.4620673 C53.1147974,30.1543301 53.5452264,29.788506 53.9264385,29.372977 C54.2551701,29.0648322 54.4279101,28.6211268 54.3956928,28.1676355 L54.3956928,28.1615171 Z" id="Shape"></path>
                        <path d="M69.7336871,30.00867 C69.8246783,30.0593092 69.9012487,30.1330727 69.9559479,30.2227834 C70.0280324,30.3206638 70.0100113,30.4797194 69.9138985,30.6815977 C69.7517082,31.0058265 69.5714968,31.3484078 69.3672572,31.6909892 C69.1630176,32.0335705 69.0248555,32.3027416 68.8146089,32.6636755 L68.2139041,33.6914196 L67.9375799,34.0890587 C67.7573685,34.3337596 67.5170866,34.6396358 67.2167343,35.0066873 C67.0785722,35.1718604 66.8382903,35.447149 66.4958886,35.820318 C66.1052747,36.2454429 65.6857459,36.6420239 65.2404157,37.0071177 C64.7072867,37.4478862 64.1363207,37.8389431 63.5344142,38.1755648 C62.3165845,38.8385908 60.930495,39.111525 59.5577489,38.9586079 C59.1403962,38.8998186 58.7348691,38.7738581 58.3563394,38.5854389 C58.0283186,38.401456 57.7369751,38.1566253 57.4973317,37.8635711 C57.1912711,37.3654077 57.0212335,36.7931191 57.0047538,36.205722 C56.9743365,35.3135727 57.0900539,34.4224946 57.3471555,33.5690691 C57.5303677,32.8386974 57.781808,32.1278622 58.0980364,31.4462882 C58.3547605,30.8799745 58.6456572,30.3303858 58.9690583,29.8006742 C59.2586074,29.2997555 59.5923775,28.8267503 59.9662281,28.3875261 C60.289574,27.9919438 60.651891,27.631163 61.0474967,27.3108419 C61.3533114,27.062789 61.6765542,26.8378782 62.0146313,26.6379142 C62.3280818,26.4438681 62.6627461,26.2878304 63.0118011,26.1729824 C63.2350397,26.0933393 63.4670532,26.0419739 63.7026116,26.0200442 C63.9421769,25.9933186 64.1838919,25.9933186 64.4234573,26.0200442 C64.7077211,26.0698536 64.983081,26.1626409 65.2404157,26.2953328 C65.3244285,26.3396298 65.4047846,26.390776 65.4806976,26.4482709 C65.679912,26.5666394 65.8535869,26.7247811 65.9912966,26.9132028 C65.9912966,26.9499079 66.0513671,27.0110832 66.1114376,27.0967285 C66.1620494,27.1691917 66.2081923,27.2447867 66.2495996,27.3230769 C66.297656,27.4148398 66.3457124,27.5127202 66.3877617,27.6167181 C66.4298111,27.720716 66.423804,27.7635386 66.4478322,27.8797716 C66.4658954,27.9850109 66.4658954,28.0926436 66.4478322,28.1978829 C66.43029,28.3481625 66.3897522,28.4947186 66.3276913,28.6322271 C66.2703191,28.7540832 66.1536147,28.8356474 66.0213318,28.8463404 C65.7990711,28.8891631 65.660909,28.8463404 65.6008385,28.7239899 C65.5573454,28.6482407 65.5268723,28.5654845 65.5107328,28.479289 C65.5017417,28.393336 65.4815403,28.308987 65.4506623,28.2284705 C65.4081038,28.1048323 65.305903,28.0123163 65.1803452,27.9837695 C64.7178026,27.7818912 64.1651542,27.9837695 63.5224002,28.5221116 C62.749806,29.2279379 62.0530785,30.0154056 61.4439618,30.8712409 C61.0947924,31.3728181 60.7796895,31.8981098 60.5008553,32.4434446 C60.2039877,32.9942719 59.9431162,33.564439 59.7199392,34.1502339 L59.7199392,34.1502339 C59.6598687,34.290937 59.5997982,34.4561101 59.5397278,34.6396358 C59.4796573,34.8231616 59.4496221,34.9822172 59.4015657,35.177978 C59.3505172,35.4054641 59.3163805,35.6365455 59.2994459,35.8692582 C59.2613888,36.2036497 59.2879173,36.5423932 59.3775375,36.8664146 C59.4660939,37.1840469 59.6850951,37.4472209 59.9782422,37.5882825 C60.1702107,37.6684237 60.3725306,37.7199339 60.578947,37.7412206 C61.1536078,37.8263827 61.7395335,37.7846554 62.2969625,37.6188701 C62.7816251,37.4715323 63.2474204,37.2661809 63.6845904,37.0071177 C63.9628919,36.8355631 64.2297832,36.6455076 64.4835277,36.4381879 L65.0842325,35.9304334 C65.4266342,35.5817346 65.7570218,35.2146831 66.0753953,34.8231616 C66.3937688,34.43164 66.6761,34.0768236 66.9524242,33.7525948 C67.2287484,33.428366 67.5050725,33.0062569 67.7633756,32.6147353 C68.0216786,32.2232138 68.3160239,31.8011046 68.580334,31.3912305 C68.8446441,30.9813564 69.0789189,30.638775 69.3011797,30.3328988 C69.3551926,30.256463 69.4154795,30.1848348 69.4813911,30.1187855 C69.5594827,30.0270226 69.6495884,29.9841999 69.7336871,30.00867 Z" id="Path"></path>
                        <path d="M74.226622,26.3939484 C73.5201703,27.7244014 72.9004758,29.0182365 72.3675386,30.2876596 C72.1382516,30.8186202 71.9151616,31.3678899 71.6982685,31.9415715 C71.4813755,32.5152531 71.2830732,33.0706257 71.0785741,33.6076893 C70.9117404,34.119805 70.7772166,34.6415893 70.6757726,35.1700562 C70.5865452,35.6077666 70.5511745,36.0544679 70.5704246,36.5005092 C70.5940918,36.640997 70.6401009,36.7769317 70.7067574,36.903307 C70.7811207,37.0436759 70.9298474,37.0741908 71.1591343,36.9948519 C71.7270332,36.792331 72.2416045,36.4669971 72.6649919,36.0427846 C73.1979292,35.5545449 73.6998817,35.0418933 74.1770465,34.5109326 C74.7182463,33.8802898 75.2573805,33.1865826 75.7944491,32.4298111 C76.0795085,32.0209104 76.364568,31.6181127 76.6310366,31.209212 C76.8975052,30.8003113 77.15158,30.4585435 77.3808669,30.1533937 C77.4365873,30.0771395 77.49878,30.0056813 77.5667753,29.9397889 C77.6659264,29.8360379 77.7588806,29.793317 77.8456378,29.817729 C77.9417752,29.8673881 78.0229798,29.9410479 78.0811217,30.0313338 C78.1492881,30.1289817 78.1368942,30.2876596 78.0315461,30.4890585 C77.8642286,30.8125173 77.6783203,31.154285 77.4738211,31.4960528 L76.9160961,32.4969441 L76.2964016,33.5222473 C75.7572674,34.2362978 75.2057393,34.8954214 74.6480143,35.5118239 C74.1362651,36.0553888 73.5808741,36.5574591 72.9872331,37.0131609 C72.4439302,37.4499922 71.808976,37.7626561 71.1281496,37.9286102 C70.7958467,37.9941959 70.455999,38.0147293 70.1180476,37.9896402 C69.7041315,37.9572778 69.3143645,37.7847574 69.0149914,37.5014005 C68.7459175,37.2591013 68.5798809,36.9255218 68.5502206,36.5676422 C68.4841288,36.1478437 68.4612906,35.7225412 68.4820542,35.2982191 C68.5070776,34.7616819 68.5817504,34.2285118 68.7051442,33.7053372 C68.8290831,33.0950376 68.9778098,32.527459 69.1513242,31.9415715 C69.3248387,31.3556839 69.5231409,30.7942083 69.7276401,30.2449387 C69.9755179,29.5064762 70.2543804,28.7619107 70.5704246,28.0051392 C70.8864688,27.2483678 71.1901191,26.5160083 71.5495419,25.8019578 C71.9089647,25.0879073 72.2435997,24.3982688 72.6030225,23.7330422 L73.6441092,21.8533196 L72.4790836,21.8533196 C72.1196608,21.8533196 71.7726319,21.8533196 71.4379969,21.8533196 C71.2316531,21.840009 71.0246461,21.840009 70.8183024,21.8533196 C70.6509849,21.8533196 70.527046,21.8838345 70.4464857,21.8838345 C69.9121543,21.9773783 69.3931105,22.1416111 68.9034464,22.3720742 C68.5034874,22.5790433 68.0649225,22.7036345 67.6144819,22.7382539 C67.4757994,22.7729921 67.3286266,22.7462336 67.2116805,22.665018 C67.1271142,22.5953827 67.0629389,22.5047926 67.0257722,22.4025892 C66.9914093,22.2932599 66.9914093,22.1762537 67.0257722,22.0669244 C67.0415933,21.8667726 67.1429569,21.6826476 67.3046347,21.5603758 C67.4706851,21.4298051 67.6597525,21.3304979 67.8623597,21.267432 C68.0650961,21.2097539 68.2723875,21.1689242 68.4820542,21.1453721 C68.6803564,21.1453721 68.8166892,21.1453721 68.9034464,21.1453721 L70.8926657,21.0721361 L74.2514098,20.9622822 C74.6666051,20.2909527 75.019831,19.741683 75.3234812,19.2473404 C75.6271315,18.7529977 75.8440246,18.435642 75.9927513,18.2098311 C76.4079466,17.5995315 76.7673694,17.0624679 77.0772166,16.6779792 C77.3474771,16.3330974 77.6504253,16.0143068 77.9819706,15.7259119 C78.1824282,15.5213338 78.4120571,15.3465833 78.6636345,15.2071572 C78.8696956,15.1045117 79.0917022,15.0364443 79.3205106,15.0057584 C79.5566816,14.9780208 79.7935925,15.0513497 79.9711898,15.2071572 C80.1397665,15.3502879 80.2407031,15.5557277 80.2500524,15.7747358 C80.2657046,16.0493725 80.229996,16.3245046 80.1447043,16.5864343 C80.0382796,16.9212731 79.8970683,17.2444076 79.7233121,17.5507076 C79.5374037,17.8863723 79.3267076,18.2159341 79.1036176,18.5454959 L78.5706803,19.3083703 C78.4033628,19.5341812 78.2298484,19.784404 78.04394,20.0590388 C77.8580317,20.3336736 77.6783203,20.6144114 77.5171997,20.9012522 C78.6326498,20.9012522 79.7790846,20.9012522 80.9503071,20.9012522 C82.1215297,20.9012522 83.2803584,20.9378702 84.4205962,20.9744882 L85.8458935,21.0355181 C86.3230583,21.0355181 86.7940261,21.0904451 87.246403,21.1270631 L88.0272181,21.188093 C88.2503081,21.188093 88.5043828,21.224711 88.7894423,21.236917 C89.0745018,21.249123 89.3409704,21.273535 89.613636,21.3101529 L90.3758602,21.4383158 C90.6343381,21.4696667 90.8881231,21.5311267 91.1318874,21.6214057 C91.3501437,21.6903116 91.5584358,21.7867247 91.7515819,21.9082465 C91.9016514,21.9949276 91.995444,22.1519576 91.9994597,22.3232502 C92.0037291,22.4481538 91.9826617,22.5726416 91.9374903,22.68943 C91.8990351,22.7858401 91.8347929,22.8701977 91.7515819,22.9335498 C91.6299394,23.0032066 91.4860575,23.0250067 91.3487805,22.9945798 C91.098576,22.9960958 90.8503809,22.9505236 90.617541,22.8603138 L89.8553168,22.5673701 C89.5826512,22.4636191 89.2913948,22.3659712 88.9691537,22.2622203 C88.6200947,22.1553278 88.2608809,22.0837562 87.8970822,22.0486154 C87.7483556,22.0486154 87.6120228,22.0486154 87.47569,22.0486154 L87.0542978,22.0486154 C86.124756,22.0058944 85.0836693,21.9814825 83.9558254,21.9692765 L80.3801882,21.9692765 C79.8038723,21.9692765 79.2213595,21.9387615 78.6388467,21.9387615 L76.9284899,21.9387615 C76.6620213,22.4086922 76.3893558,22.8969318 76.1228871,23.4095835 C75.8564185,23.9222351 75.5961468,24.3494448 75.2986935,24.8926114 C75.0012401,25.435778 74.5116815,25.8812967 74.226622,26.3939484 Z" id="Path"></path>
                    </g>
                </g>
            </g>
        </g>
    </g>
</svg>