

<svg width="141" height="45" viewBox="0 0 141 45" fill="none" xmlns="http://www.w3.org/2000/svg">
<path d="M135.656 44.4629H4.40625C2 44.4629 0.03125 42.4829 0.03125 40.0629V4.86289C0.03125 2.44289 2 0.462891 4.40625 0.462891H135.656C138.062 0.462891 140.031 2.44289 140.031 4.86289V40.0629C140.031 42.4829 138.062 44.4629 135.656 44.4629Z" fill="#2C2C2C"/>
<path d="M29.5611 22.2418C29.5611 18.8318 32.4049 17.1818 32.5142 17.0718C30.8736 14.7618 28.4674 14.4318 27.5924 14.3218C25.5142 14.1018 23.4361 15.5318 22.4517 15.5318C21.358 15.5318 19.7174 14.3218 17.9674 14.3218C15.6705 14.3218 13.5924 15.6418 12.3892 17.7318C9.98298 21.9118 11.733 28.0718 14.0299 31.4818C15.233 33.1318 16.5455 35.0018 18.2955 34.8918C20.0455 34.7818 20.7017 33.7918 22.7799 33.7918C24.858 33.7918 25.4049 34.8918 27.2642 34.8918C29.1236 34.8918 30.3267 33.2418 31.4205 31.5918C32.733 29.7218 33.2799 27.8518 33.2799 27.7418C33.1705 27.6318 29.5611 26.3118 29.5611 22.2418Z" fill="white"/>
<path d="M26.1706 12.1227C27.0456 10.9127 27.7018 9.37266 27.5924 7.72266C26.2799 7.83266 24.5299 8.60266 23.6549 9.81266C22.7799 10.8027 22.0143 12.4527 22.2331 13.9927C23.6549 14.1027 25.1862 13.2227 26.1706 12.1227Z" fill="white"/>
<path d="M54.5 34.6724H52.0937L50.7812 30.4924H46.1875L44.875 34.6724H42.5781L47.0625 20.4824H49.9062L54.5 34.6724ZM50.3437 28.7324L49.1406 24.9924C49.0312 24.6624 48.8125 23.6724 48.375 22.3524C48.2656 22.9024 48.0469 23.8924 47.7187 24.9924L46.5156 28.7324H50.3437Z" fill="white"/>
<path d="M66.2031 29.502C66.2031 31.262 65.7656 32.582 64.7813 33.682C63.9063 34.562 62.9219 35.002 61.6094 35.002C60.2969 35.002 59.3125 34.562 58.7656 33.572V38.962H56.4687V27.962C56.4687 26.862 56.4688 25.762 56.3594 24.552H58.3281L58.4375 26.202C59.2031 24.992 60.2969 24.332 61.8281 24.332C63.0312 24.332 64.0156 24.772 64.7813 25.762C65.7656 26.642 66.2031 27.852 66.2031 29.502ZM63.9063 29.502C63.9063 28.512 63.6875 27.632 63.25 27.082C62.8125 26.422 62.1562 26.092 61.2812 26.092C60.7344 26.092 60.1875 26.312 59.75 26.642C59.3125 26.972 58.9844 27.522 58.875 28.072C58.7656 28.402 58.7656 28.622 58.7656 28.732V30.492C58.7656 31.262 58.9844 31.812 59.4219 32.362C59.8594 32.912 60.5156 33.132 61.1719 33.132C62.0469 33.132 62.7031 32.802 63.1406 32.142C63.5781 31.482 63.9063 30.602 63.9063 29.502Z" fill="white"/>
<path d="M77.9062 29.502C77.9062 31.262 77.4688 32.582 76.4844 33.682C75.6094 34.562 74.625 35.002 73.3125 35.002C72 35.002 71.0156 34.562 70.4688 33.572V38.962H68.1719V27.962C68.1719 26.862 68.1719 25.762 68.0625 24.552H70.0312L70.1406 26.202C70.9062 24.992 72 24.332 73.5312 24.332C74.7344 24.332 75.7188 24.772 76.4844 25.762C77.4688 26.642 77.9062 27.852 77.9062 29.502ZM75.6094 29.502C75.6094 28.512 75.3906 27.632 74.9531 27.082C74.5156 26.422 73.8594 26.092 72.9844 26.092C72.4375 26.092 71.8906 26.312 71.4531 26.642C71.0156 26.972 70.6875 27.522 70.5781 28.072C70.4688 28.402 70.4688 28.622 70.4688 28.732V30.492C70.4688 31.262 70.6875 31.812 71.125 32.362C71.5625 32.912 72.2187 33.132 72.875 33.132C73.75 33.132 74.4063 32.802 74.8438 32.142C75.2813 31.482 75.6094 30.602 75.6094 29.502Z" fill="white"/>
<path d="M90.9219 30.713C90.9219 31.923 90.4844 32.913 89.7188 33.683C88.8438 34.563 87.5313 34.893 85.8906 34.893C84.3594 34.893 83.1562 34.563 82.2812 34.013L82.8281 32.143C83.8125 32.693 84.9062 33.023 86.1094 33.023C86.9844 33.023 87.6406 32.803 88.0781 32.473C88.5156 32.033 88.7344 31.593 88.7344 30.933C88.7344 30.383 88.5156 29.833 88.1875 29.503C87.75 29.063 87.0938 28.733 86.2188 28.403C83.7031 27.523 82.5 26.093 82.5 24.333C82.5 23.123 82.9375 22.243 83.8125 21.473C84.6875 20.703 85.7813 20.373 87.3125 20.373C88.625 20.373 89.6094 20.593 90.4844 21.033L89.9375 22.903C89.1719 22.463 88.2969 22.243 87.2031 22.243C86.4375 22.243 85.7813 22.463 85.3438 22.793C85.0156 23.123 84.7969 23.563 84.7969 24.113C84.7969 24.663 85.0156 25.103 85.4531 25.543C85.7813 25.873 86.5469 26.203 87.5313 26.643C88.7344 27.083 89.6094 27.743 90.2656 28.403C90.7031 28.953 90.9219 29.723 90.9219 30.713Z" fill="white"/>
<path d="M98.4688 26.2021H95.9531V31.1521C95.9531 32.3621 96.3906 33.0221 97.2656 33.0221C97.7031 33.0221 98.0313 33.0221 98.25 32.9121L98.3594 34.6721C97.9219 34.8921 97.375 34.8921 96.6094 34.8921C95.7344 34.8921 94.9687 34.6721 94.5312 34.1221C93.9844 33.5721 93.7656 32.6921 93.7656 31.3721V26.2021H92.2344V24.4421H93.7656V22.5721L95.9531 21.9121V24.4421H98.4688V26.2021Z" fill="white"/>
<path d="M109.734 29.5027C109.734 31.0427 109.297 32.3627 108.422 33.3527C107.438 34.3427 106.234 34.8927 104.703 34.8927C103.172 34.8927 101.969 34.3427 101.094 33.3527C100.219 32.3627 99.7812 31.1527 99.7812 29.6127C99.7812 28.0727 100.219 26.7527 101.203 25.7627C102.078 24.7727 103.391 24.2227 104.922 24.2227C106.453 24.2227 107.656 24.7727 108.531 25.7627C109.297 26.7527 109.734 27.9627 109.734 29.5027ZM107.328 29.6127C107.328 28.6227 107.109 27.8527 106.672 27.1927C106.234 26.4227 105.469 25.9827 104.594 25.9827C103.719 25.9827 102.953 26.4227 102.516 27.1927C102.078 27.8527 101.859 28.7327 101.859 29.6127C101.859 30.6027 102.078 31.3727 102.516 32.0327C102.953 32.8027 103.719 33.2427 104.594 33.2427C105.469 33.2427 106.125 32.8027 106.672 32.0327C107.109 31.3727 107.328 30.4927 107.328 29.6127Z" fill="white"/>
<path d="M117.062 26.4233C116.844 26.4233 116.625 26.3133 116.297 26.3133C115.531 26.3133 114.875 26.6433 114.437 27.1933C114.109 27.7433 113.891 28.4033 113.891 29.1733V34.5633H111.594V27.5233C111.594 26.3133 111.594 25.3233 111.484 24.3333H113.453L113.563 26.3133H113.672C113.891 25.6533 114.328 25.1033 114.766 24.6633C115.313 24.3333 115.859 24.1133 116.406 24.1133C116.625 24.1133 116.844 24.1133 116.953 24.1133V26.4233H117.062Z" fill="white"/>
<path d="M127.125 29.0627C127.125 29.5027 127.125 29.8327 127.016 30.0527H120.234C120.234 31.0427 120.563 31.8127 121.219 32.3627C121.766 32.8027 122.531 33.1327 123.406 33.1327C124.391 33.1327 125.375 33.0227 126.141 32.6927L126.469 34.2327C125.484 34.6727 124.391 34.8927 123.078 34.8927C121.547 34.8927 120.234 34.4527 119.359 33.4627C118.484 32.5827 118.047 31.2627 118.047 29.7227C118.047 28.1827 118.484 26.8627 119.25 25.8727C120.125 24.7727 121.328 24.2227 122.859 24.2227C124.281 24.2227 125.484 24.7727 126.141 25.8727C126.797 26.7527 127.125 27.8527 127.125 29.0627ZM124.937 28.5127C124.937 27.8527 124.828 27.3027 124.5 26.7527C124.062 26.0927 123.516 25.7627 122.75 25.7627C121.984 25.7627 121.437 26.0927 121 26.6427C120.672 27.0827 120.453 27.7427 120.344 28.4027H124.937V28.5127Z" fill="white"/>
<path d="M49.5781 11.7928C49.5781 13.0028 49.25 13.9928 48.4844 14.6528C47.8281 15.2028 46.8437 15.5328 45.5312 15.5328C44.875 15.5328 44.3281 15.5328 43.8906 15.4228V8.49281C44.4375 8.38281 45.0938 8.38281 45.8594 8.38281C47.0625 8.38281 47.9375 8.60281 48.5938 9.15281C49.25 9.81281 49.5781 10.6928 49.5781 11.7928ZM48.4844 11.7928C48.4844 11.0228 48.2656 10.3628 47.8281 9.92281C47.3906 9.48281 46.7344 9.26281 45.9688 9.26281C45.6406 9.26281 45.3125 9.26281 45.0938 9.37281V14.5428C45.2031 14.5428 45.5313 14.5428 45.8594 14.5428C46.7344 14.5428 47.3906 14.3228 47.8281 13.8828C48.1563 13.4428 48.4844 12.6728 48.4844 11.7928Z" fill="white"/>
<path d="M55.8125 12.8939C55.8125 13.6639 55.5938 14.3239 55.1563 14.7639C54.7188 15.3139 54.0625 15.5339 53.2969 15.5339C52.5313 15.5339 51.9844 15.3139 51.5469 14.7639C51.1094 14.3239 50.8906 13.6639 50.8906 12.8939C50.8906 12.1239 51.1094 11.4639 51.5469 11.0239C51.9844 10.4739 52.6406 10.2539 53.4062 10.2539C54.1719 10.2539 54.7188 10.4739 55.1563 11.0239C55.5938 11.4639 55.8125 12.1239 55.8125 12.8939ZM54.7188 12.8939C54.7188 12.4539 54.6094 12.0139 54.3906 11.6839C54.1719 11.2439 53.8437 11.1339 53.4062 11.1339C52.9687 11.1339 52.6406 11.3539 52.4219 11.6839C52.2031 12.0139 52.0937 12.4539 52.0937 12.8939C52.0937 13.3339 52.2031 13.7739 52.4219 14.1039C52.6406 14.5439 52.9687 14.6539 53.4062 14.6539C53.8437 14.6539 54.1719 14.4339 54.3906 13.9939C54.6094 13.7739 54.7188 13.3339 54.7188 12.8939Z" fill="white"/>
<path d="M64.125 10.3633L62.5938 15.4233H61.6094L60.9531 13.2233C60.7344 12.6733 60.625 12.1233 60.5156 11.5733C60.4062 12.1233 60.2969 12.6733 60.0781 13.2233L59.4219 15.4233H58.4375L56.9062 10.3633H58L58.5469 12.7833C58.6563 13.3333 58.7656 13.8833 58.875 14.4333C58.9844 13.9933 59.0938 13.4433 59.3125 12.7833L60.0781 10.3633H60.9531L61.6094 12.6733C61.8281 13.2233 61.9375 13.7733 62.0469 14.3233C62.1563 13.7733 62.2656 13.2233 62.375 12.6733L63.0312 10.3633H64.125Z" fill="white"/>
<path d="M69.9219 15.4239H68.8281V12.5639C68.8281 11.6839 68.5 11.2439 67.8437 11.2439C67.5156 11.2439 67.2969 11.3539 67.0781 11.5739C66.8594 11.7939 66.75 12.1239 66.75 12.4539V15.4239H65.6562V11.7939C65.6562 11.3539 65.6562 10.9139 65.6562 10.3639H66.6406V11.1339C66.75 10.9139 66.9688 10.6939 67.1875 10.4739C67.5156 10.3639 67.8437 10.2539 68.1719 10.2539C68.6094 10.2539 69.0469 10.3639 69.375 10.6939C69.8125 11.0239 69.9219 11.5739 69.9219 12.3439V15.4239Z" fill="white"/>
<path d="M72.9844 15.4227H71.8906V8.05273H72.9844V15.4227Z" fill="white"/>
<path d="M79.5469 12.8939C79.5469 13.6639 79.3281 14.3239 78.8906 14.7639C78.4531 15.3139 77.7969 15.5339 77.0313 15.5339C76.2656 15.5339 75.7188 15.3139 75.2813 14.7639C74.8438 14.3239 74.625 13.6639 74.625 12.8939C74.625 12.1239 74.8438 11.4639 75.2813 11.0239C75.7188 10.4739 76.375 10.2539 77.1406 10.2539C77.9063 10.2539 78.4531 10.4739 78.8906 11.0239C79.3281 11.4639 79.5469 12.1239 79.5469 12.8939ZM78.3438 12.8939C78.3438 12.4539 78.2344 12.0139 78.0156 11.6839C77.7969 11.2439 77.4688 11.1339 77.0313 11.1339C76.5938 11.1339 76.2656 11.3539 76.0469 11.6839C75.8281 12.0139 75.7188 12.4539 75.7188 12.8939C75.7188 13.3339 75.8281 13.7739 76.0469 14.1039C76.2656 14.5439 76.5938 14.6539 77.0313 14.6539C77.4688 14.6539 77.7969 14.4339 78.0156 13.9939C78.2344 13.7739 78.3438 13.3339 78.3438 12.8939Z" fill="white"/>
<path d="M84.9062 15.4239H83.9219L83.8125 14.8739C83.4844 15.3139 82.9375 15.5339 82.3906 15.5339C81.9531 15.5339 81.5156 15.4239 81.2969 15.0939C81.0781 14.7639 80.8594 14.4339 80.8594 14.1039C80.8594 13.4439 81.0781 13.0039 81.625 12.6739C82.1719 12.3439 82.8281 12.2339 83.8125 12.2339V12.1239C83.8125 11.4639 83.4844 11.1339 82.8281 11.1339C82.2812 11.1339 81.9531 11.2439 81.5156 11.4639L81.2969 10.6939C81.7344 10.3639 82.2812 10.2539 83.0469 10.2539C84.3594 10.2539 85.0156 10.9139 85.0156 12.3439V14.2139C84.7969 14.7639 84.9062 15.0939 84.9062 15.4239ZM83.7031 13.6639V12.8939C82.5 12.8939 81.8438 13.2239 81.8438 13.8839C81.8438 14.1039 81.9531 14.3239 82.0625 14.4339C82.1719 14.5439 82.3906 14.6539 82.6094 14.6539C82.8281 14.6539 83.0469 14.5439 83.2656 14.4339C83.4844 14.3239 83.5937 14.1039 83.7031 13.8839C83.7031 13.8839 83.7031 13.7739 83.7031 13.6639Z" fill="white"/>
<path d="M91.25 15.4227H90.2656V14.6527C89.9375 15.3127 89.3906 15.5327 88.625 15.5327C87.9688 15.5327 87.5312 15.3127 87.0937 14.8727C86.6562 14.4327 86.5469 13.7727 86.5469 13.0027C86.5469 12.2327 86.7656 11.5727 87.2031 11.0227C87.5312 10.4727 88.0781 10.2527 88.625 10.2527C89.2812 10.2527 89.7188 10.4727 90.0469 10.9127V8.05273H91.1406V13.9927C91.1406 14.5427 91.25 14.9827 91.25 15.4227ZM90.0469 13.3327V12.4527C90.0469 12.3427 90.0469 12.2327 90.0469 12.1227C89.9375 11.9027 89.8281 11.6827 89.6094 11.4627C89.3906 11.2427 89.1719 11.2427 88.8437 11.2427C88.4062 11.2427 88.0781 11.4627 87.8594 11.7927C87.6406 12.1227 87.5313 12.5627 87.5313 13.1127C87.5313 13.6627 87.6406 13.9927 87.8594 14.3227C88.0781 14.6527 88.4062 14.8727 88.8437 14.8727C89.1719 14.8727 89.5 14.7627 89.7187 14.4327C89.9375 13.9927 90.0469 13.6627 90.0469 13.3327Z" fill="white"/>
<path d="M100.766 12.8939C100.766 13.6639 100.547 14.3239 100.109 14.7639C99.6719 15.3139 99.0156 15.5339 98.25 15.5339C97.4844 15.5339 96.9375 15.3139 96.5 14.7639C96.0625 14.3239 95.8438 13.6639 95.8438 12.8939C95.8438 12.1239 96.0625 11.4639 96.5 11.0239C96.9375 10.4739 97.5938 10.2539 98.3594 10.2539C99.125 10.2539 99.6719 10.4739 100.109 11.0239C100.547 11.4639 100.766 12.1239 100.766 12.8939ZM99.5625 12.8939C99.5625 12.4539 99.4531 12.0139 99.2344 11.6839C99.0156 11.2439 98.6875 11.1339 98.25 11.1339C97.8125 11.1339 97.4844 11.3539 97.2656 11.6839C97.0469 12.0139 96.9375 12.4539 96.9375 12.8939C96.9375 13.3339 97.0469 13.7739 97.2656 14.1039C97.4844 14.5439 97.8125 14.6539 98.25 14.6539C98.6875 14.6539 99.0156 14.4339 99.2344 13.9939C99.4531 13.7739 99.5625 13.3339 99.5625 12.8939Z" fill="white"/>
<path d="M106.672 15.4226H105.578V12.5626C105.578 11.6826 105.25 11.2426 104.594 11.2426C104.266 11.2426 104.047 11.3526 103.828 11.5726C103.609 11.7926 103.5 12.1226 103.5 12.4526V15.4226H102.406V11.7926C102.406 11.3526 102.406 10.9126 102.406 10.3626H103.391V11.1326C103.5 10.9126 103.719 10.6926 103.938 10.4726C104.266 10.2526 104.594 10.1426 104.922 10.1426C105.359 10.1426 105.797 10.2526 106.125 10.5826C106.562 10.9126 106.672 11.4626 106.672 12.2326V15.4226Z" fill="white"/>
<path d="M114.219 11.2423H113.016V13.6623C113.016 14.3223 113.234 14.5423 113.672 14.5423C113.891 14.5423 114 14.5423 114.219 14.5423V15.4223C114 15.5323 113.672 15.5323 113.344 15.5323C112.906 15.5323 112.578 15.4223 112.359 15.0923C112.141 14.8723 112.031 14.3223 112.031 13.7723V11.2423H111.266V10.3623H112.031V9.48234L113.125 9.15234V10.3623H114.328V11.2423H114.219Z" fill="white"/>
<path d="M120.125 15.4227H119.031V12.5627C119.031 11.6827 118.703 11.2427 118.047 11.2427C117.5 11.2427 117.172 11.4627 116.953 12.0127C116.953 12.1227 116.953 12.2327 116.953 12.4527V15.4227H115.859V8.05273H116.953V11.1327C117.281 10.5827 117.828 10.2527 118.484 10.2527C118.922 10.2527 119.359 10.3627 119.578 10.6927C119.906 11.0227 120.125 11.6827 120.125 12.3427V15.4227Z" fill="white"/>
<path d="M126.141 12.6733C126.141 12.8933 126.141 13.0033 126.141 13.2233H122.859C122.859 13.7733 123.078 14.1033 123.297 14.3233C123.625 14.5433 123.953 14.6533 124.391 14.6533C124.937 14.6533 125.375 14.5433 125.703 14.4333L125.922 15.2033C125.484 15.4233 124.937 15.5333 124.281 15.5333C123.516 15.5333 122.859 15.3133 122.422 14.8733C121.984 14.4333 121.766 13.7733 121.766 13.0033C121.766 12.2333 121.984 11.5733 122.422 11.1333C122.859 10.5833 123.406 10.3633 124.172 10.3633C124.937 10.3633 125.484 10.5833 125.812 11.1333C126.031 11.4633 126.141 12.0133 126.141 12.6733ZM125.047 12.3433C125.047 12.0133 124.937 11.6833 124.828 11.4633C124.609 11.1333 124.391 11.0233 123.953 11.0233C123.625 11.0233 123.297 11.1333 123.078 11.4633C122.859 11.6833 122.75 12.0133 122.75 12.3433H125.047Z" fill="white"/>
</svg>
