<svg width="15" height="26" viewBox="0 0 15 26" fill="none" xmlns="http://www.w3.org/2000/svg">
<path d="M7.94099 16.2433L6.05099 12.9433V12.5033H6.27099C6.80432 12.5033 7.21099 12.4266 7.49099 12.2733C7.77765 12.1199 7.94432 11.8433 7.99099 11.4433H6.05099V10.8033H7.98099C7.91432 10.4299 7.73765 10.1599 7.45099 9.99326C7.17099 9.8266 6.77765 9.74326 6.27099 9.74326H6.05099V9.10326H10.191V9.74326H8.30099C8.62099 10.0033 8.81099 10.3566 8.87099 10.8033H10.191V11.4433H8.89099C8.84432 11.9299 8.65765 12.3099 8.33099 12.5833C8.01099 12.8499 7.58432 13.0199 7.05099 13.0933L8.96099 16.2433H7.94099Z" fill="#2C2C2C"/>
<path d="M12.0918 0.967796H3.14844C1.854 0.967796 0.794922 2.02688 0.794922 3.32131V21.6787C0.794922 22.9732 1.854 24.0323 3.14844 24.0323H12.0918C13.3862 24.0323 14.4453 22.9732 14.4453 21.6787V3.32131C14.4453 2.02688 13.3862 0.967796 12.0918 0.967796ZM7.54951 22.7849C6.91406 22.7849 6.37276 22.2671 6.37276 21.6081C6.37276 20.9727 6.89053 20.4314 7.54951 20.4314C8.2085 20.4314 8.72627 20.9491 8.72627 21.6081C8.72627 22.2671 8.18496 22.7849 7.54951 22.7849ZM12.5625 19.5606H2.67773V4.02737H12.5625V19.5606Z" fill="black"/>
</svg>
