<svg width="15" height="26" viewBox="0 0 15 26" fill="none" xmlns="http://www.w3.org/2000/svg">
<path d="M7.44099 16.3948L5.55099 13.0948V12.6548H5.77099C6.30432 12.6548 6.71099 12.5781 6.99099 12.4248C7.27765 12.2715 7.44432 11.9948 7.49099 11.5948H5.55099V10.9548H7.48099C7.41432 10.5815 7.23765 10.3115 6.95099 10.1448C6.67099 9.97812 6.27765 9.89479 5.77099 9.89479H5.55099V9.25479H9.69099V9.89479H7.80099C8.12099 10.1548 8.31099 10.5081 8.37099 10.9548H9.69099V11.5948H8.39099C8.34432 12.0815 8.15765 12.4615 7.83099 12.7348C7.51099 13.0015 7.08432 13.1715 6.55099 13.2448L8.46099 16.3948H7.44099Z" fill="white"/>
<path d="M11.5919 1.11932H2.64851C1.35407 1.11932 0.294991 2.17841 0.294991 3.47284V21.8303C0.294991 23.1247 1.35407 24.1838 2.64851 24.1838H11.5919C12.8863 24.1838 13.9454 23.1247 13.9454 21.8303V3.47284C13.9454 2.17841 12.8863 1.11932 11.5919 1.11932ZM7.04958 22.9364C6.41413 22.9364 5.87282 22.4186 5.87282 21.7597C5.87282 21.1242 6.3906 20.5829 7.04958 20.5829C7.70857 20.5829 8.22634 21.1007 8.22634 21.7597C8.22634 22.4186 7.68503 22.9364 7.04958 22.9364ZM12.0626 19.7121H2.1778V4.17889H12.0626V19.7121Z" fill="#D7DF23"/>
</svg>
