
<svg width="20" height="19" viewBox="0 0 20 19" fill="none" xmlns="http://www.w3.org/2000/svg">
<path d="M18.3438 9.15039V16.7997C18.3416 17.1656 18.1948 17.5158 17.9353 17.7738C17.6758 18.0318 17.3247 18.1766 16.9588 18.1766H3.17802C2.81421 18.1734 2.46625 18.0272 2.20936 17.7695C1.95246 17.5119 1.80728 17.1635 1.80518 16.7997V9.23494" fill="white"/>
<path d="M18.3438 9.15039V16.7997C18.3416 17.1656 18.1948 17.5158 17.9353 17.7738C17.6758 18.0318 17.3247 18.1766 16.9588 18.1766H3.17802C2.81421 18.1734 2.46625 18.0272 2.20936 17.7695C1.95246 17.5119 1.80728 17.1635 1.80518 16.7997V9.23494" stroke="black" stroke-miterlimit="10"/>
<path d="M7.84398 9.45189H2.44116C2.11262 9.45083 1.79784 9.31985 1.56553 9.08753C1.33322 8.85522 1.20223 8.54044 1.20117 8.2119V5.05153C1.21058 4.72862 1.34524 4.42202 1.57666 4.19661C1.80808 3.9712 2.11811 3.84466 2.44116 3.84375H17.5586C17.8816 3.84466 18.1917 3.9712 18.4231 4.19661C18.6545 4.42202 18.7892 4.72862 18.7986 5.05153V8.19982C18.7975 8.52836 18.6665 8.84314 18.4342 9.07545C18.2019 9.30777 17.8871 9.43875 17.5586 9.43981H12.2001" fill="white"/>
<path d="M7.84398 9.45189H2.44116C2.11262 9.45083 1.79784 9.31985 1.56553 9.08753C1.33322 8.85522 1.20223 8.54044 1.20117 8.2119V5.05153C1.21058 4.72862 1.34524 4.42202 1.57666 4.19661C1.80808 3.9712 2.11811 3.84466 2.44116 3.84375H17.5586C17.8816 3.84466 18.1917 3.9712 18.4231 4.19661C18.6545 4.42202 18.7892 4.72862 18.7986 5.05153V8.19982C18.7975 8.52836 18.6665 8.84314 18.4342 9.07545C18.2019 9.30777 17.8871 9.43875 17.5586 9.43981H12.2001" stroke="black" stroke-miterlimit="10"/>
<path d="M8.19971 4.22266V13.5827L10.3337 11.62L12.5197 13.5827V4.22266" fill="#D7DF23"/>
<path d="M8.19971 4.22266V13.5827L10.3337 11.62L12.5197 13.5827V4.22266" stroke="black" stroke-miterlimit="10"/>
<path d="M5.38006 3.78819C4.38163 3.603 4.43799 2.58041 4.4541 2.40326C4.59098 1.09886 5.66993 0.736523 6.95823 0.841198C8.4277 0.961976 9.72808 2.45158 9.72808 3.77209" stroke="black" stroke-miterlimit="10"/>
<path d="M14.7844 3.81541C15.7869 3.63424 15.7305 2.60763 15.7104 2.43451C15.5735 1.13011 14.5026 0.767773 13.2063 0.872448C11.7408 0.993226 10.4404 2.48283 10.4404 3.79931" stroke="black" stroke-miterlimit="10"/>
</svg>
