

<svg width="141" height="45" viewBox="0 0 141 45" fill="none" xmlns="http://www.w3.org/2000/svg">
<g clip-path="url(#clip0)">
<path d="M135.809 44.2129H4.55859C2.15234 44.2129 0.183594 42.2441 0.183594 39.8379V4.83789C0.183594 2.43164 2.15234 0.462891 4.55859 0.462891H135.809C138.215 0.462891 140.184 2.43164 140.184 4.83789V39.8379C140.184 42.2441 138.215 44.2129 135.809 44.2129Z" fill="#2C2C2C"/>
<path fill-rule="evenodd" clip-rule="evenodd" d="M10.9023 21.9004V10.416C10.9023 9.75977 11.4492 9.21289 11.9961 9.21289C12.543 9.21289 12.7617 9.32227 13.0898 9.54102L34.1992 21.1348C34.6367 21.3535 34.8555 21.6816 34.8555 22.0098C34.8555 22.3379 34.6367 22.666 34.1992 22.8848L13.0898 34.3691C12.8711 34.4785 12.543 34.6973 11.9961 34.6973C11.4492 34.6973 10.9023 34.1504 10.9023 33.4941V21.9004Z" fill="url(#paint0_linear)"/>
<path fill-rule="evenodd" clip-rule="evenodd" d="M24.5742 22.0098L11.7773 9.21289C11.8867 9.21289 11.8867 9.21289 11.9961 9.21289C12.543 9.21289 12.7617 9.32227 13.0898 9.54102L28.6211 17.9629L24.5742 22.0098Z" fill="url(#paint1_linear)"/>
<path fill-rule="evenodd" clip-rule="evenodd" d="M28.5117 25.8379L24.5742 21.9004L28.6211 17.9629L34.1992 21.0254C34.6367 21.2441 34.8555 21.5723 34.8555 21.9004C34.8555 22.2285 34.6367 22.5566 34.1992 22.7754L28.5117 25.8379Z" fill="url(#paint2_linear)"/>
<path fill-rule="evenodd" clip-rule="evenodd" d="M11.8867 34.5879L24.5742 21.9004L28.5117 25.8379L13.0898 34.3691C12.7617 34.4785 12.543 34.5879 11.8867 34.5879C11.9961 34.5879 11.9961 34.5879 11.8867 34.5879Z" fill="url(#paint3_linear)"/>
<path fill-rule="evenodd" clip-rule="evenodd" d="M77.95 37.541C77.4032 37.1035 76.9657 36.3379 76.7469 35.9004L78.4969 35.1348C78.6063 35.3535 78.825 35.6816 79.0438 36.0098C79.4813 36.4473 80.1375 36.8848 80.7938 36.8848C81.45 36.8848 82.2157 36.5566 82.6532 36.0098C82.9813 35.4629 83.2 34.916 83.2 34.1504V33.4941C81.8875 35.1348 79.1532 34.916 77.6219 33.166C75.9813 31.416 75.9813 28.4629 77.6219 26.7129C79.2625 25.0723 81.6688 24.8535 83.0907 26.3848V25.6191H84.95V33.9316C84.95 36.0098 84.1844 37.2129 83.2 37.9785C82.5438 38.5254 81.5594 38.7441 80.6844 38.7441C79.7 38.5254 78.7157 38.1973 77.95 37.541ZM123.778 37.9785L125.638 33.6035L122.356 26.0566H124.216L126.513 31.416L128.809 26.0566H130.669L125.638 37.9785H123.778ZM114.919 33.8223C114.372 33.2754 114.153 32.5098 114.153 31.7441C114.153 31.0879 114.372 30.4316 114.809 29.9941C115.575 29.2285 116.669 28.9004 117.872 28.9004C118.638 28.9004 119.294 29.0098 119.841 29.3379C119.841 28.0254 118.747 27.4785 117.872 27.4785C117.106 27.4785 116.341 27.916 116.013 28.6816L114.372 28.0254C114.7 27.2598 115.575 25.8379 117.763 25.8379C118.856 25.8379 119.95 26.166 120.606 26.9316C121.263 27.6973 121.481 28.5723 121.481 29.7754V34.3691H119.622V33.6035C119.403 33.9316 118.966 34.1504 118.638 34.3691C118.2 34.5879 117.653 34.6973 117.106 34.6973C116.45 34.5879 115.466 34.3691 114.919 33.8223ZM56.6219 29.8848C56.6219 27.6973 58.2625 25.291 61.2157 25.291C64.0594 25.291 65.8094 27.6973 65.8094 29.8848C65.8094 32.0723 64.1688 34.4785 61.2157 34.4785C58.2625 34.4785 56.6219 32.0723 56.6219 29.8848ZM66.4657 29.8848C66.4657 27.6973 68.1063 25.291 71.0594 25.291C73.9032 25.291 75.6532 27.6973 75.6532 29.8848C75.6532 32.0723 74.0125 34.4785 71.0594 34.4785C68.2157 34.4785 66.4657 32.0723 66.4657 29.8848ZM44.2625 32.291C41.5282 29.5566 41.6375 25.0723 44.3719 22.2285C45.7938 20.8066 47.5438 20.1504 49.4032 20.1504C51.1532 20.1504 52.9032 20.8066 54.2157 22.1191L52.9032 23.541C50.9344 21.5723 47.7625 21.6816 45.9032 23.6504C43.9344 25.7285 43.9344 28.9004 45.9032 30.9785C47.8719 33.0566 51.1532 33.166 53.1219 31.0879C53.7782 30.4316 53.9969 29.5566 54.1063 28.6816H49.4032V26.7129H55.8563C55.9657 27.1504 55.9657 27.6973 55.9657 28.2441C55.9657 29.8848 55.3094 31.5254 54.2157 32.6191C53.0125 33.8223 51.2625 34.4785 49.5125 34.4785C47.6532 34.3691 45.6844 33.7129 44.2625 32.291ZM90.5282 33.0566C88.8875 31.3066 88.8875 28.3535 90.5282 26.4941C92.1688 24.7441 94.9032 24.7441 96.4344 26.4941C96.9813 27.041 97.3094 27.8066 97.6375 28.5723L91.6219 31.0879C91.95 31.8535 92.7157 32.5098 93.8094 32.5098C94.7938 32.5098 95.45 32.1816 96.1063 31.1973L97.7469 32.291C97.5282 32.5098 97.3094 32.7285 97.2 32.9473C95.3407 34.8066 92.1688 34.8066 90.5282 33.0566ZM101.903 34.3691V22.2285H105.841C108.138 22.2285 109.997 23.8691 109.997 25.8379C109.997 27.8066 108.356 29.4473 106.278 29.4473H103.872V34.3691H101.903ZM111.091 34.3691V22.2285H112.95V34.3691H111.091ZM86.3719 34.1504V20.5879H88.3407V34.1504H86.3719ZM119.731 30.7598C119.294 30.4316 118.638 30.3223 117.981 30.3223C116.669 30.3223 115.903 30.9785 115.903 31.7441C115.903 32.5098 116.669 32.9473 117.434 32.9473C118.528 32.9473 119.731 32.0723 119.731 30.7598ZM63.7313 29.8848C63.7313 28.5723 62.8563 27.1504 61.2157 27.1504C59.575 27.1504 58.7 28.5723 58.7 29.8848C58.7 31.1973 59.575 32.6191 61.2157 32.6191C62.7469 32.6191 63.7313 31.1973 63.7313 29.8848ZM73.575 29.8848C73.575 28.5723 72.7 27.1504 71.0594 27.1504C69.4188 27.1504 68.5438 28.5723 68.5438 29.8848C68.5438 31.1973 69.4188 32.6191 71.0594 32.6191C72.7 32.6191 73.575 31.1973 73.575 29.8848ZM83.3094 30.6504C83.3094 30.541 83.3094 30.4316 83.4188 30.3223C83.4188 30.2129 83.4188 29.9941 83.4188 29.8848C83.4188 29.7754 83.4188 29.5566 83.4188 29.4473V29.3379C83.4188 29.2285 83.3094 29.0098 83.3094 28.9004C82.9813 27.8066 81.9969 27.041 81.0125 27.041C79.7 27.041 78.6063 28.3535 78.6063 29.7754C78.6063 31.3066 79.7 32.5098 81.1219 32.5098C81.9969 32.6191 82.8719 31.8535 83.3094 30.6504ZM91.2938 29.666L95.3407 27.916C94.9032 27.1504 94.2469 26.9316 93.7 26.9316C92.0594 27.041 91.075 28.791 91.2938 29.666ZM108.028 25.9473C108.028 24.8535 107.153 24.0879 105.95 24.0879H103.763V27.916H106.059C107.153 27.916 108.028 27.041 108.028 25.9473Z" fill="white"/>
<path fill-rule="evenodd" clip-rule="evenodd" d="M125.199 35.791H125.09V35.6816H125.199H125.09V35.791H125.199Z" fill="white"/>
<path fill-rule="evenodd" clip-rule="evenodd" d="M125.418 35.791C125.418 35.6816 125.418 35.6816 125.418 35.791C125.309 35.6816 125.309 35.6816 125.418 35.791C125.309 35.791 125.309 35.791 125.418 35.791ZM125.418 35.6816C125.418 35.791 125.418 35.791 125.418 35.6816C125.418 35.791 125.309 35.791 125.418 35.6816C125.309 35.6816 125.418 35.6816 125.418 35.6816Z" fill="white"/>
<path fill-rule="evenodd" clip-rule="evenodd" d="M125.527 35.6816H125.418H125.527V35.791V35.6816Z" fill="white"/>
<path d="M42.7305 11.5098C42.7305 9.54102 44.1523 8.33789 45.9023 8.33789C47.1055 8.33789 47.8711 8.88477 48.418 9.65039L47.543 10.1973C47.2148 9.65039 46.668 9.21289 46.0117 9.21289C44.8086 9.21289 43.9336 10.0879 43.9336 11.4004C43.9336 12.7129 44.8086 13.5879 46.0117 13.5879C46.668 13.5879 47.2148 13.2598 47.4336 13.041V12.0566H45.5742V11.1816H48.5273V13.4785C47.9805 14.1348 47.1055 14.5723 46.0117 14.5723C44.1523 14.6816 42.7305 13.3691 42.7305 11.5098Z" fill="white"/>
<path d="M49.8398 14.5723V8.33789H53.9961V9.32227H50.8242V10.8535H53.8867V11.8379H50.8242V13.5879H53.9961V14.5723H49.8398Z" fill="white"/>
<path d="M57.0586 14.5723V9.32227H55.1992V8.33789H60.0117V9.32227H58.1523V14.4629H57.0586V14.5723Z" fill="white"/>
<path d="M63.7305 14.5723V8.33789H64.8242V14.4629H63.7305V14.5723Z" fill="white"/>
<path d="M67.7773 14.5723V9.32227H65.918V8.33789H70.7305V9.32227H68.8711V14.4629H67.7773V14.5723Z" fill="white"/>
<path d="M74.2305 11.5098C74.2305 9.65039 75.543 8.33789 77.4023 8.33789C79.2617 8.33789 80.5742 9.65039 80.5742 11.5098C80.5742 13.3691 79.1523 14.6816 77.293 14.6816C75.543 14.6816 74.2305 13.2598 74.2305 11.5098ZM79.3711 11.5098C79.3711 10.1973 78.6055 9.32227 77.293 9.32227C76.0898 9.32227 75.2148 10.3066 75.2148 11.5098C75.2148 12.8223 75.9805 13.6973 77.293 13.6973C78.6055 13.6973 79.3711 12.7129 79.3711 11.5098Z" fill="white"/>
<path d="M86.043 14.5723L82.8711 10.1973V14.5723H81.7773V8.33789H82.8711L86.043 12.6035V8.33789H87.1367V14.4629H86.043V14.5723Z" fill="white"/>
</g>
<defs>
<linearGradient id="paint0_linear" x1="17.9761" y1="7.65277" x2="24.0991" y2="32.7991" gradientUnits="userSpaceOnUse">
<stop stop-color="#006884"/>
<stop offset="1" stop-color="#8AD1D0"/>
</linearGradient>
<linearGradient id="paint1_linear" x1="10.5094" y1="11.2295" x2="27.1956" y2="20.2503" gradientUnits="userSpaceOnUse">
<stop stop-color="#24BBB6"/>
<stop offset="1" stop-color="#DBE692"/>
</linearGradient>
<linearGradient id="paint2_linear" x1="29.7087" y1="26.2974" x2="29.7087" y2="17.6038" gradientUnits="userSpaceOnUse">
<stop stop-color="#FCC072"/>
<stop offset="1" stop-color="#F58A5B"/>
</linearGradient>
<linearGradient id="paint3_linear" x1="13.7403" y1="36.8511" x2="26.9218" y2="23.4359" gradientUnits="userSpaceOnUse">
<stop stop-color="#712B8F"/>
<stop offset="1" stop-color="#EA1D27"/>
</linearGradient>
<clipPath id="clip0">
<rect width="140" height="43.75" fill="white" transform="translate(0.183594 0.462891)"/>
</clipPath>
</defs>
</svg>
