<svg xmlns="http://www.w3.org/2000/svg" width="18" height="20" viewBox="0 0 18 20">
    <path fill="#005899" fill-rule="nonzero" d="M14.497 12.849c-1.092 0-2.065.548-2.688 1.395l-5.215-3.069a3.761 3.761 0 0 0-.004-2.363l5.211-3.064c.619.85 1.596 1.403 2.692 1.403 1.868 0 3.394-1.603 3.394-3.575C17.887 1.603 16.365 0 14.493 0S11.1 1.603 11.1 3.576c0 .415.067.814.194 1.183L6.086 7.824C5.467 6.968 4.489 6.42 3.394 6.42 1.525 6.42 0 8.023 0 9.996c0 1.972 1.525 3.575 3.398 3.575 1.095 0 2.073-.552 2.696-1.407l5.21 3.069a3.731 3.731 0 0 0-.197 1.191c0 1.969 1.522 3.576 3.394 3.576s3.394-1.603 3.394-3.576c0-1.972-1.526-3.575-3.398-3.575zm0-11.724c1.285 0 2.33 1.1 2.33 2.455 0 1.354-1.045 2.454-2.33 2.454-1.285 0-2.33-1.1-2.33-2.454s1.05-2.455 2.33-2.455zM3.397 12.45c-1.284 0-2.329-1.1-2.329-2.454s1.045-2.454 2.33-2.454c1.285 0 2.33 1.1 2.33 2.454s-1.05 2.454-2.33 2.454zm11.1 6.425c-1.285 0-2.33-1.1-2.33-2.455 0-1.354 1.045-2.454 2.33-2.454 1.285 0 2.33 1.1 2.33 2.454s-1.045 2.455-2.33 2.455z"/>
</svg>
