<?xml version="1.0" encoding="UTF-8"?>
<svg width="36px" height="36px" viewBox="0 0 36 36" version="1.1" xmlns="http://www.w3.org/2000/svg" xmlns:xlink="http://www.w3.org/1999/xlink">
    <title>Fill 1</title>
    <g id="Page-1" stroke="none" stroke-width="1" fill="none" fill-rule="evenodd">
        <g id="FASTag-TOLL-PLAZA-List" transform="translate(-1210.000000, -555.000000)" fill="#9D1D27">
            <g id="Group-3" transform="translate(1210.000000, 555.000000)">
                <path d="M21.6338022,22.3170607 C23.6907461,20.2686562 25.7384764,18.2294202 27.7421169,16.2340944 C25.7165888,14.2059146 23.6756899,12.1623191 21.625982,10.1099596 L21.625982,10.3345888 C21.625982,11.6004764 21.6261169,12.866409 21.6258472,14.1323416 C21.6258022,14.4541393 21.625218,14.4542292 21.2999596,14.4542292 C18.4684989,14.4543191 15.6370831,14.4530607 12.8056674,14.4570157 C12.5901169,14.4573303 12.3662966,14.4634876 12.1605888,14.5194427 C11.3364539,14.7438022 10.8413978,15.4207461 10.840364,16.3064539 C10.8377573,18.5760719 10.8422067,20.8457798 10.8348304,23.1153978 C10.8341618,23.3242067 10.8948809,23.3842517 11.1002292,23.3824539 C12.1039146,23.3736 13.1077348,23.3730607 14.1113753,23.3829529 C14.317982,23.3849258 14.3762742,23.3254652 14.3752404,23.1180045 C14.3670157,21.4925663 14.3742517,19.8670831 14.366836,18.2416449 C14.3658472,18.0323865 14.4345213,17.9729258 14.6373079,17.9734202 C16.8769933,17.9788584 19.1167236,17.9790831 21.356364,17.9730157 C21.5709258,17.9724315 21.6387461,18.0373303 21.6372629,18.2552629 C21.628364,19.5360719 21.6334427,20.8169708 21.6338022,22.0978697 C21.6338472,22.1776449 21.6338022,22.2574652 21.6338022,22.3170607 M35.9556,18.0169708 C35.9556,18.5934202 35.7746112,19.0176899 35.3862517,19.4057348 C30.0649483,24.7223191 24.7465663,30.0418697 19.425218,35.3584989 C19.278027,35.5055551 19.1168135,35.643982 18.9438697,35.7589483 C18.4163191,36.1095101 17.2520045,36.0338247 16.6987011,35.4749034 C13.546027,32.2900944 10.3684539,29.1299596 7.19928539,25.9614652 C5.00890337,23.7715775 2.81955506,21.5807011 0.627555056,19.3924764 C-0.207231461,18.5590831 -0.209793258,17.4633528 0.623555056,16.6302292 C5.92386966,11.3311281 11.2246787,6.03261124 16.5201843,0.728701124 C16.9325888,0.315622472 17.3781169,0.00568988764 17.9826562,2.03452359e-05 C18.4761393,-0.00446741573 18.9125888,0.154139326 19.2643191,0.503173034 C20.3952854,1.62528539 21.5215775,2.7521618 22.6482742,3.87854382 C25.3088584,6.53845393 27.9685888,9.19926292 30.6289034,11.8594876 C32.2208584,13.4514876 33.8130382,15.0433079 35.4056225,16.6347236 C35.7871056,17.0159371 35.9556,17.4313528 35.9556,18.0169708" id="Fill-1"></path>
            </g>
        </g>
    </g>
</svg>