<?xml version="1.0" encoding="UTF-8"?>
<svg width="32px" height="32px" viewBox="0 0 32 32" version="1.1" xmlns="http://www.w3.org/2000/svg" xmlns:xlink="http://www.w3.org/1999/xlink">
    <title>Group 16</title>
    <defs>
        <polygon id="path-1" points="1.25e-05 3.125e-05 32 3.125e-05 32 32 1.25e-05 32"></polygon>
    </defs>
    <g id="Page-1" stroke="none" stroke-width="1" fill="none" fill-rule="evenodd">
        <g id="FASTag-Landing" transform="translate(-180.000000, -3262.000000)">
            <g id="Group-60" transform="translate(113.000000, 3158.000000)">
                <g id="Group-46" transform="translate(67.000000, 98.000000)">
                    <g id="Group-16" transform="translate(0.000000, 6.000000)">
                        <path d="M14.3407562,4.96255625 L15.5556312,5.91230625 C15.6593812,6.01724375 15.8001312,6.08505625 15.9566312,6.09580625 C15.9592562,6.09605625 15.9619437,6.09599375 15.9646312,6.09618125 C15.9763812,6.09686875 15.9880687,6.09799375 16.0000062,6.09799375 C16.0013187,6.09799375 16.0025062,6.09780625 16.0038187,6.09780625 C16.0053812,6.09780625 16.0069437,6.09799375 16.0085687,6.09799375 C16.1457562,6.09799375 16.2830687,6.05293125 16.3966937,5.96286875 L17.6623812,4.95999375 C17.9330062,4.74561875 17.9785687,4.35255625 17.7641312,4.08199375 C17.5498812,3.81143125 17.1566937,3.76574375 16.8861937,3.98024375 L16.6250062,4.18724375 L16.6250062,2.67336875 C16.6250062,2.32818125 16.3451312,2.04836875 16.0000062,2.04836875 C15.6548812,2.04836875 15.3750062,2.32818125 15.3750062,2.67336875 L15.3750062,4.18443125 L15.1106937,3.97780625 C14.8386312,3.76524375 14.4459437,3.81330625 14.2333812,4.08530625 C14.0207562,4.35718125 14.0688812,4.74999375 14.3407562,4.96255625" id="Fill-1" fill="#FFCB05"></path>
                        <path d="M26.3482688,23.4226063 C26.0170188,23.4226063 25.7475188,23.1531063 25.7475188,22.8219188 C25.7475188,22.4906062 26.0170813,22.2211062 26.3482688,22.2211062 C26.6794563,22.2211062 26.9489563,22.4906062 26.9489563,22.8219188 C26.9490188,23.1531063 26.6795188,23.4226063 26.3482688,23.4226063 M26.3482688,20.9711062 C25.3277688,20.9711062 24.4975188,21.8014187 24.4975188,22.8219188 C24.4975188,23.8423563 25.3277688,24.6726063 26.3482688,24.6726063 C27.3687688,24.6726063 28.1989563,23.8423563 28.1989563,22.8219188 C28.1989563,21.8014187 27.3687688,20.9711062 26.3482688,20.9711062" id="Fill-3" fill="#54565B"></path>
                        <path d="M26.3482688,28.125 C26.0170188,28.125 25.7475188,27.8555 25.7475188,27.52425 C25.7475188,27.193 26.0170813,26.9235 26.3482688,26.9235 C26.6794563,26.9235 26.9489563,27.193 26.9489563,27.52425 C26.9490188,27.8555 26.6795188,28.125 26.3482688,28.125 M26.3482688,25.6735 C25.3277688,25.6735 24.4975188,26.50375 24.4975188,27.52425 C24.4975188,28.54475 25.3277688,29.375 26.3482688,29.375 C27.3687688,29.375 28.1989563,28.54475 28.1989563,27.52425 C28.1989563,26.50375 27.3687688,25.6735 26.3482688,25.6735" id="Fill-5" fill="#54565B"></path>
                        <path d="M5.459625,23.4226063 C5.128375,23.4226063 4.8589375,23.1531063 4.8589375,22.8219188 C4.8589375,22.4906062 5.1284375,22.2211062 5.459625,22.2211062 C5.7908125,22.2211062 6.060375,22.4906062 6.060375,22.8219188 C6.060375,23.1531063 5.7908125,23.4226063 5.459625,23.4226063 M5.459625,20.9711062 C4.439125,20.9711062 3.6089375,21.8014187 3.6089375,22.8219188 C3.6089375,23.8423563 4.439125,24.6726063 5.459625,24.6726063 C6.480125,24.6726063 7.310375,23.8423563 7.310375,22.8219188 C7.310375,21.8014187 6.480125,20.9711062 5.459625,20.9711062" id="Fill-7" fill="#54565B"></path>
                        <path d="M5.459625,28.125 C5.128375,28.125 4.8589375,27.8555 4.8589375,27.52425 C4.8589375,27.193 5.1284375,26.9235 5.459625,26.9235 C5.7908125,26.9235 6.060375,27.193 6.060375,27.52425 C6.060375,27.8555 5.7908125,28.125 5.459625,28.125 M5.459625,25.6735 C4.439125,25.6735 3.6089375,26.50375 3.6089375,27.52425 C3.6089375,28.54475 4.4390625,29.375 5.459625,29.375 C6.4801875,29.375 7.310375,28.54475 7.310375,27.52425 C7.310375,26.50375 6.480125,25.6735 5.459625,25.6735" id="Fill-9" fill="#54565B"></path>
                        <path d="M16.7000125,10.5581375 C16.5970125,10.3068875 16.3321375,10.148325 16.0620125,10.1752625 C15.7905125,10.202325 15.5647625,10.4080125 15.5106375,10.6750125 C15.3997625,11.2221375 16.0437,11.6280125 16.492325,11.3007 C16.721825,11.1332625 16.809325,10.82045 16.7000125,10.5581375" id="Fill-11" fill="#54565B"></path>
                        <g id="Group-15">
                            <mask id="mask-2" fill="white">
                                <use xlink:href="#path-1"></use>
                            </mask>
                            <g id="Clip-14"></g>
                            <path d="M16.034575,24.4492187 L14.513325,26.4692812 L13.5197625,26.4692812 C12.962825,26.4692812 12.5097,26.0161562 12.5097,25.4592187 C12.5097,24.9022812 12.962825,24.4491562 13.5197625,24.4491562 L16.034575,24.4492187 Z M19.462825,24.4492188 L17.9415125,26.4692813 L16.078075,26.4692813 L17.5993875,24.4492188 L19.462825,24.4492188 Z M18.8353875,10.1692812 L18.8286375,10.1692812 C18.4835125,10.1692812 18.2036375,10.4490937 18.2036375,10.7942812 C18.2036375,11.0355938 18.3828875,11.4187813 18.863825,11.4192812 L24.257825,11.4204687 L24.257825,18.4092812 L22.6906375,18.4092812 C22.3455125,18.4092812 22.0656375,18.6891562 22.0656375,19.0342812 L22.0656375,23.1992812 L13.5197,23.1992812 C12.2735125,23.1992812 11.2596375,24.2131563 11.2596375,25.4592813 C11.2596375,26.7055312 12.2735125,27.7193438 13.5197,27.7193438 L22.0656375,27.7193438 L22.0656375,30.7500312 L9.7005125,30.7500312 L9.7005125,19.0342188 C9.7005125,18.6890937 9.4206375,18.4092188 9.0755125,18.4092188 L7.5292,18.4092188 L7.5292,11.4205312 L13.1862625,11.4219062 C13.361075,11.4217813 13.52745,11.4164687 13.6781375,11.3141562 C13.8480125,11.1989687 13.9532625,11.0025313 13.9532625,10.7969062 C13.9532625,10.4552188 13.6645125,10.1705938 13.323575,10.1692812 C13.1811375,10.1700313 3.7881375,10.1714687 1.2500125,10.1718438 L1.2500125,3.69378125 L11.9068875,3.69378125 L11.9068875,6.60828125 C11.9068875,7.47834375 12.6147625,8.18621875 13.484825,8.18621875 L18.5152,8.18621875 C19.3852625,8.18621875 20.0931375,7.47834375 20.0931375,6.60828125 L20.0931375,3.69378125 L30.7500125,3.69378125 L30.7500125,10.1717813 C28.240825,10.1714687 19.036075,10.1700313 18.8353875,10.1692812 L18.8353875,10.1692812 Z M25.507825,18.4092188 L27.188825,18.4092188 L27.188825,11.4219687 L25.507825,11.4219687 L25.507825,18.4092188 Z M23.3156375,30.7500312 L29.3392,30.7500312 L29.3392,19.6592812 L23.3156375,19.6592812 L23.3156375,30.7500312 Z M22.0656375,26.4692813 L19.506325,26.4692813 L21.0276375,24.4492188 L22.0656375,24.4492188 L22.0656375,26.4692813 Z M4.5982,18.4092188 L6.2792,18.4092188 L6.2792,11.4219687 L4.5982,11.4219687 L4.5982,18.4092188 Z M2.42695,30.7500312 L8.4505125,30.7500312 L8.4505125,19.6592812 L2.42695,19.6592812 L2.42695,30.7500312 Z M13.15695,1.57796875 C13.15695,1.39715625 13.304075,1.25003125 13.4848875,1.25003125 L18.5151375,1.25003125 C18.6960125,1.25003125 18.843075,1.39715625 18.843075,1.57796875 L18.843075,6.60821875 C18.843075,6.78909375 18.69595,6.93621875 18.5151375,6.93621875 L13.4848875,6.93621875 C13.3040125,6.93621875 13.15695,6.78909375 13.15695,6.60821875 L13.15695,1.57796875 Z M31.37495,11.4219062 C31.5407,11.4219062 31.6997,11.3560313 31.8168875,11.2387813 C31.9341375,11.1215937 32.0000125,10.9625937 32.0000125,10.7969062 L32.0000125,3.06878125 C32.0000125,2.72359375 31.7201375,2.44378125 31.3750125,2.44378125 L20.093075,2.44378125 L20.093075,1.57796875 C20.093075,0.70790625 19.3852,3.125e-05 18.5151375,3.125e-05 L13.4848875,3.125e-05 C12.614825,3.125e-05 11.90695,0.70790625 11.90695,1.57796875 L11.90695,2.44378125 L0.6250125,2.44378125 C0.2798875,2.44378125 1.25e-05,2.72359375 1.25e-05,3.06878125 L1.25e-05,10.7969062 C1.25e-05,10.9625937 0.0658875,11.1215937 0.1831375,11.2387813 C0.300325,11.3559688 0.459325,11.4219062 0.625075,11.4219062 L3.3482,11.4213437 L3.3482,18.4092188 L1.80195,18.4092188 C1.456825,18.4092188 1.17695,18.6890937 1.17695,19.0342188 L1.17695,30.7500312 L0.6250125,30.7500312 C0.2798875,30.7500312 1.25e-05,31.0297812 1.25e-05,31.3750312 C1.25e-05,31.7202188 0.2798875,32.0000312 0.6250125,32.0000312 L31.3750125,32.0000312 C31.7201375,32.0000312 32.0000125,31.7202188 32.0000125,31.3750312 C32.0000125,31.0297812 31.7201375,30.7500312 31.3750125,30.7500312 L30.5892,30.7500312 L30.5892,19.0342188 C30.5892,18.6890937 30.309325,18.4092188 29.9642,18.4092188 L28.438825,18.4092188 L28.438825,11.4212812 L31.37495,11.4219062 Z" id="Fill-13" fill="#54565B" mask="url(#mask-2)"></path>
                        </g>
                    </g>
                </g>
            </g>
        </g>
    </g>
</svg>