<?xml version="1.0" encoding="UTF-8"?>
<svg width="22px" height="38px" viewBox="0 0 22 38" version="1.1" xmlns="http://www.w3.org/2000/svg" xmlns:xlink="http://www.w3.org/1999/xlink">
    <title>Group 16</title>
    <defs>
        <polygon id="path-1" points="0 37.9999258 20.1516523 37.9999258 20.1516523 0 0 0"></polygon>
    </defs>
    <g id="Page-1" stroke="none" stroke-width="1" fill="none" fill-rule="evenodd">
        <g id="FASTag-Landing" transform="translate(-468.000000, -3259.000000)">
            <g id="Group-60" transform="translate(113.000000, 3158.000000)">
                <g id="Group-3" transform="translate(290.740000, 75.000000)">
                    <g id="Group-16" transform="translate(65.000000, 26.000000)">
                        <path d="M17.215143,36.8867188 L2.93649453,36.8867188 C1.93120156,36.8867188 1.11331094,36.0688281 1.11331094,35.0636094 L1.11331094,21.3414531 L14.2402328,21.3414531 C14.5476469,21.3414531 14.7968734,21.0922266 14.7968734,20.7848125 C14.7968734,20.4773984 14.5476469,20.2281719 14.2402328,20.2281719 L1.11331094,20.2281719 L1.11331094,10.0757891 C1.11331094,9.07049609 1.93120156,8.25260547 2.93649453,8.25260547 L17.2152172,8.25260547 C18.2205102,8.25260547 19.0383266,9.07049609 19.0383266,10.0757891 L19.0383266,20.2281719 L16.6202055,20.2281719 C16.3128656,20.2281719 16.0635648,20.4773984 16.0635648,20.7848125 C16.0635648,21.0922266 16.3128656,21.3414531 16.6202055,21.3414531 L19.0383266,21.3414531 L19.0383266,35.0635352 C19.0383266,36.0688281 18.2205102,36.8867188 17.215143,36.8867188 M17.215143,7.13932422 L16.5819086,7.13932422 L16.5819086,0.556640625 C16.5819086,0.331460937 16.4463109,0.128546875 16.2382758,0.0423789062 C16.0303891,-0.043640625 15.7908852,0.00378515625 15.6316859,0.163058594 L14.835393,0.959351562 L14.0391,0.163058594 C13.8216391,-0.054328125 13.4691742,-0.054328125 13.2519359,0.163058594 L12.455643,0.959351562 L11.6592758,0.163058594 C11.4418891,-0.054328125 11.0894242,-0.054328125 10.8720375,0.163058594 L10.0758187,0.959351562 L9.27952578,0.163058594 C9.06206484,-0.054328125 8.7096,-0.054328125 8.49236172,0.163058594 L7.69606875,0.959351562 L6.89970156,0.163058594 C6.68224062,-0.054328125 6.32977578,-0.054328125 6.1125375,0.163058594 L5.31624453,0.959351562 L4.51995156,0.163058594 C4.36075234,0.00378515625 4.12132266,-0.043640625 3.9132875,0.0423789062 C3.70532656,0.128546875 3.56972891,0.331535156 3.56972891,0.556640625 L3.56972891,5.31621484 C3.56972891,5.62362891 3.81888125,5.87285547 4.12636953,5.87285547 C4.43378359,5.87285547 4.68301016,5.62362891 4.68301016,5.31621484 L4.68301016,1.90044531 L4.9226625,2.14009766 C5.14004922,2.35748437 5.49251406,2.35748437 5.70975234,2.14009766 L6.50604531,1.34380469 L7.30233828,2.14009766 C7.51979922,2.35748437 7.87226406,2.35748437 8.08950234,2.14009766 L8.88579531,1.34380469 L9.68208828,2.14009766 C9.89954922,2.35748437 10.2520141,2.35748437 10.4692523,2.14009766 L11.2656195,1.34380469 L12.0618383,2.14009766 C12.2792992,2.35748437 12.6316898,2.35748437 12.8490766,2.14009766 L13.6452953,1.34380469 L14.4416625,2.14009766 C14.6590492,2.35748437 15.0115141,2.35748437 15.2287523,2.14009766 L15.4684789,1.90044531 L15.4684789,7.13932422 L2.93649453,7.13932422 C1.31733828,7.13932422 2.96875e-05,8.45663281 2.96875e-05,10.0757891 L2.96875e-05,35.0635352 C2.96875e-05,36.6826914 1.31733828,37.9999258 2.93649453,37.9999258 L17.2152172,37.9999258 C18.8342992,37.9999258 20.1516078,36.6826172 20.1516078,35.0635352 L20.1516078,10.0757891 C20.1516078,8.45663281 18.8342992,7.13932422 17.215143,7.13932422" id="Fill-1" fill="#787878"></path>
                        <mask id="mask-2" fill="white">
                            <use xlink:href="#path-1"></use>
                        </mask>
                        <g id="Clip-4"></g>
                        <path d="M4.68298047,16.6584727 L15.4685977,16.6584727 L15.4685977,11.8223047 L4.68298047,11.8223047 L4.68298047,16.6584727 Z M16.5818789,17.2151133 L16.5818789,11.2656641 C16.5818789,10.95825 16.3326523,10.7090234 16.0252383,10.7090234 L4.12633984,10.7090234 C3.81892578,10.7090234 3.56969922,10.95825 3.56969922,11.2656641 L3.56969922,17.2151133 C3.56969922,17.5225273 3.81892578,17.7717539 4.12633984,17.7717539 L16.0252383,17.7717539 C16.3326523,17.7717539 16.5818789,17.5226016 16.5818789,17.2151133 L16.5818789,17.2151133 Z" id="Fill-3" fill="#FFCB05" mask="url(#mask-2)"></path>
                        <path d="M10.6707043,24.9877313 L9.4808293,24.9877313 C9.13163008,24.9877313 8.84766914,24.7036219 8.84766914,24.3544969 C8.84766914,24.0054461 9.1317043,23.7213367 9.4808293,23.7213367 L10.6707043,23.7213367 C11.0199035,23.7213367 11.3039387,24.0054461 11.3039387,24.3544969 C11.3039387,24.7036219 11.0199035,24.9877313 10.6707043,24.9877313 M10.6707043,22.6080555 L9.4808293,22.6080555 C8.5177668,22.6080555 7.73438789,23.3915086 7.73438789,24.3544969 C7.73438789,25.3174852 8.51784102,26.1010125 9.4808293,26.1010125 L10.6707043,26.1010125 C11.633841,26.1010125 12.4172199,25.3174852 12.4172199,24.3544969 C12.4172199,23.3915086 11.633841,22.6080555 10.6707043,22.6080555" id="Fill-5" fill="#787878" mask="url(#mask-2)"></path>
                        <path d="M10.6707043,29.747298 L9.4808293,29.747298 C9.13163008,29.747298 8.84766914,29.4631887 8.84766914,29.1141379 C8.84766914,28.7649387 9.1317043,28.4808293 9.4808293,28.4808293 L10.6707043,28.4808293 C11.0199035,28.4808293 11.3039387,28.7649387 11.3039387,29.1141379 C11.3039387,29.4632629 11.0199035,29.747298 10.6707043,29.747298 M10.6707043,27.367548 L9.4808293,27.367548 C8.5177668,27.367548 7.73438789,28.1510012 7.73438789,29.1141379 C7.73438789,30.0771262 8.51784102,30.8605793 9.4808293,30.8605793 L10.6707043,30.8605793 C11.633841,30.8605793 12.4172199,30.077052 12.4172199,29.1141379 C12.4172199,28.1510012 11.633841,27.367548 10.6707043,27.367548" id="Fill-6" fill="#787878" mask="url(#mask-2)"></path>
                        <path d="M10.6707043,34.5068648 L9.4808293,34.5068648 C9.13163008,34.5068648 8.84766914,34.2228297 8.84766914,33.8737047 C8.84766914,33.5245797 9.1317043,33.2404703 9.4808293,33.2404703 L10.6707043,33.2404703 C11.0199035,33.2404703 11.3039387,33.5245797 11.3039387,33.8737047 C11.3039387,34.2228297 11.0199035,34.5068648 10.6707043,34.5068648 M10.6707043,32.1271891 L9.4808293,32.1271891 C8.5177668,32.1271891 7.73438789,32.9106422 7.73438789,33.8737047 C7.73438789,34.8366187 8.51784102,35.6201461 9.4808293,35.6201461 L10.6707043,35.6201461 C11.633841,35.6201461 12.4172199,34.8366187 12.4172199,33.8737047 C12.4172199,32.9106422 11.633841,32.1271891 10.6707043,32.1271891" id="Fill-7" fill="#787878" mask="url(#mask-2)"></path>
                        <path d="M16.0252531,24.9877313 L14.8353781,24.9877313 C14.4861789,24.9877313 14.2021437,24.7036219 14.2021437,24.3544969 C14.2021437,24.0054461 14.4862531,23.7213367 14.8353781,23.7213367 L16.0252531,23.7213367 C16.3744523,23.7213367 16.6584875,24.0054461 16.6584875,24.3544969 C16.6584875,24.7036219 16.3744523,24.9877313 16.0252531,24.9877313 M16.0252531,22.6080555 L14.8353781,22.6080555 C13.8723156,22.6080555 13.0888625,23.3915086 13.0888625,24.3544969 C13.0888625,25.3174852 13.8723898,26.1010125 14.8353781,26.1010125 L16.0252531,26.1010125 C16.9883156,26.1010125 17.7717688,25.3174852 17.7717688,24.3544969 C17.7717688,23.3915086 16.9883156,22.6080555 16.0252531,22.6080555" id="Fill-8" fill="#787878" mask="url(#mask-2)"></path>
                        <path d="M16.0252531,29.747298 L14.8353781,29.747298 C14.4861789,29.747298 14.2021437,29.4631887 14.2021437,29.1141379 C14.2021437,28.7649387 14.4862531,28.4808293 14.8353781,28.4808293 L16.0252531,28.4808293 C16.3744523,28.4808293 16.6584875,28.7649387 16.6584875,29.1141379 C16.6584875,29.4632629 16.3744523,29.747298 16.0252531,29.747298 M16.0252531,27.367548 L14.8353781,27.367548 C13.8723156,27.367548 13.0888625,28.1510012 13.0888625,29.1141379 C13.0888625,30.0771262 13.8723898,30.8605793 14.8353781,30.8605793 L16.0252531,30.8605793 C16.9883156,30.8605793 17.7717688,30.077052 17.7717688,29.1141379 C17.7717688,28.1510012 16.9883156,27.367548 16.0252531,27.367548" id="Fill-9" fill="#787878" mask="url(#mask-2)"></path>
                        <path d="M16.0252531,34.5068648 L14.8353781,34.5068648 C14.4861789,34.5068648 14.2021437,34.2228297 14.2021437,33.8737047 C14.2021437,33.5245797 14.4862531,33.2404703 14.8353781,33.2404703 L16.0252531,33.2404703 C16.3744523,33.2404703 16.6584875,33.5245797 16.6584875,33.8737047 C16.6584875,34.2228297 16.3744523,34.5068648 16.0252531,34.5068648 M16.0252531,32.1271891 L14.8353781,32.1271891 C13.8723156,32.1271891 13.0888625,32.9106422 13.0888625,33.8737047 C13.0888625,34.8366187 13.8723898,35.6201461 14.8353781,35.6201461 L16.0252531,35.6201461 C16.9883156,35.6201461 17.7717688,34.8366187 17.7717688,33.8737047 C17.7717688,32.9106422 16.9883156,32.1271891 16.0252531,32.1271891" id="Fill-10" fill="#787878" mask="url(#mask-2)"></path>
                        <path d="M5.31622227,24.9877313 L4.12634727,24.9877313 C3.77714805,24.9877313 3.49311289,24.7036219 3.49311289,24.3544969 C3.49311289,24.0054461 3.77722227,23.7213367 4.12634727,23.7213367 L5.31622227,23.7213367 C5.66542148,23.7213367 5.94945664,24.0054461 5.94945664,24.3544969 C5.94945664,24.7036219 5.66542148,24.9877313 5.31622227,24.9877313 M5.31622227,22.6080555 L4.12634727,22.6080555 C3.16328477,22.6080555 2.37983164,23.3915086 2.37983164,24.3544969 C2.37983164,25.3174852 3.16335898,26.1010125 4.12634727,26.1010125 L5.31622227,26.1010125 C6.27928477,26.1010125 7.06273789,25.3174852 7.06273789,24.3544969 C7.06273789,23.3915086 6.27928477,22.6080555 5.31622227,22.6080555" id="Fill-11" fill="#787878" mask="url(#mask-2)"></path>
                        <path d="M5.31622227,29.747298 L4.12634727,29.747298 C3.77714805,29.747298 3.49311289,29.4631887 3.49311289,29.1141379 C3.49311289,28.7649387 3.77722227,28.4808293 4.12634727,28.4808293 L5.31622227,28.4808293 C5.66542148,28.4808293 5.94945664,28.7649387 5.94945664,29.1141379 C5.94945664,29.4632629 5.66542148,29.747298 5.31622227,29.747298 M5.31622227,27.367548 L4.12634727,27.367548 C3.16328477,27.367548 2.37983164,28.1510012 2.37983164,29.1141379 C2.37983164,30.0771262 3.16335898,30.8605793 4.12634727,30.8605793 L5.31622227,30.8605793 C6.27928477,30.8605793 7.06273789,30.077052 7.06273789,29.1141379 C7.06273789,28.1510012 6.27928477,27.367548 5.31622227,27.367548" id="Fill-12" fill="#787878" mask="url(#mask-2)"></path>
                        <path d="M5.31622227,34.5068648 L4.12634727,34.5068648 C3.77714805,34.5068648 3.49311289,34.2228297 3.49311289,33.8737047 C3.49311289,33.5245797 3.77722227,33.2404703 4.12634727,33.2404703 L5.31622227,33.2404703 C5.66542148,33.2404703 5.94945664,33.5245797 5.94945664,33.8737047 C5.94945664,34.2228297 5.66542148,34.5068648 5.31622227,34.5068648 M5.31622227,32.1271891 L4.12634727,32.1271891 C3.16328477,32.1271891 2.37983164,32.9106422 2.37983164,33.8737047 C2.37983164,34.8366187 3.16335898,35.6201461 4.12634727,35.6201461 L5.31622227,35.6201461 C6.27928477,35.6201461 7.06273789,34.8366187 7.06273789,33.8737047 C7.06273789,32.9106422 6.27928477,32.1271891 5.31622227,32.1271891" id="Fill-13" fill="#787878" mask="url(#mask-2)"></path>
                        <path d="M13.050484,5.87284805 C13.357898,5.87284805 13.6071246,5.62362148 13.6071246,5.31620742 C13.6071246,5.00879336 13.357898,4.7595668 13.050484,4.7595668 L7.10103477,4.7595668 C6.7936207,4.7595668 6.54439414,5.00879336 6.54439414,5.31620742 C6.54439414,5.62362148 6.7936207,5.87284805 7.10103477,5.87284805 L13.050484,5.87284805 Z" id="Fill-14" fill="#FFCB05" mask="url(#mask-2)"></path>
                        <path d="M7.10102734,14.7970738 L13.0504766,14.7970738 C13.3578906,14.7970738 13.6071172,14.5478473 13.6071172,14.2404332 C13.6071172,13.9330191 13.3578906,13.6837926 13.0504766,13.6837926 L7.10102734,13.6837926 C6.79361328,13.6837926 6.54438672,13.9330191 6.54438672,14.2404332 C6.54438672,14.5478473 6.79361328,14.7970738 7.10102734,14.7970738" id="Fill-15" fill="#FFCB05" mask="url(#mask-2)"></path>
                    </g>
                </g>
            </g>
        </g>
    </g>
</svg>