<?xml version="1.0" encoding="UTF-8"?>
<svg width="29px" height="26px" viewBox="0 0 29 26" version="1.1" xmlns="http://www.w3.org/2000/svg" xmlns:xlink="http://www.w3.org/1999/xlink">
    <title>Group 6</title>
    <defs>
        <polygon id="path-1" points="0 1.22501817e-05 28.9483095 1.22501817e-05 28.9483095 25.9878178 0 25.9878178"></polygon>
    </defs>
    <g id="Page-1" stroke="none" stroke-width="1" fill="none" fill-rule="evenodd">
        <g id="FASTag-Landing" transform="translate(-580.000000, -1414.000000)">
            <g id="Group-48" transform="translate(83.000000, 1266.000000)">
                <g id="Group-61" transform="translate(434.000000, 148.000000)">
                    <g id="Group-6" transform="translate(63.000000, 0.000000)">
                        <mask id="mask-2" fill="white">
                            <use xlink:href="#path-1"></use>
                        </mask>
                        <g id="Clip-2"></g>
                        <path d="M1.71502148,24.2747505 L17.3089219,24.2747505 L17.3089219,22.5995271 L1.71502148,22.5995271 L1.71502148,24.2747505 Z M15.5807598,20.8767592 C15.5854043,20.7776659 15.5910117,20.7133145 15.5910117,20.6489631 C15.5914082,15.1877223 15.5957129,9.72653796 15.5884063,4.26535358 C15.5864238,2.76073753 14.5212969,1.70370499 12.997041,1.69468113 C10.6794199,1.68091974 8.36157227,1.68424729 6.04395117,1.69981345 C5.69294922,1.70212581 5.32382227,1.75846855 4.99558984,1.8783167 C3.97028125,2.25280694 3.39894727,3.15835141 3.39838086,4.35322343 C3.39566211,9.76748373 3.39702148,15.1818004 3.3969082,20.5961171 L3.3969082,20.8767592 L15.5807598,20.8767592 Z M0,21.5510108 C0.187933594,21.049397 0.561535156,20.8527332 1.08342188,20.8855575 C1.27792578,20.8977397 1.47395898,20.8875315 1.69899219,20.8875315 C1.69899219,20.7472668 1.69899219,20.6373449 1.69904883,20.527423 C1.69961523,15.0938742 1.69740625,9.66032538 1.70216406,4.22683297 C1.70391992,2.25308894 2.9960625,0.596420824 4.89816797,0.134342733 C5.25143555,0.0485032538 5.62430078,0.00879826464 5.98833008,0.00704989154 C8.31563672,-0.00417353579 10.643,0.0015791757 12.9703066,0.000845986985 C14.1326855,0.000451193059 15.1546523,0.367214751 15.9952559,1.1764859 C16.8746016,2.02298048 17.2869453,3.07110195 17.2873984,4.2836269 C17.288418,7.06134056 17.2877383,9.83911063 17.2877383,12.6168807 L17.2877383,12.9840954 C17.7547402,12.9840954 18.1953477,12.9681345 18.6343125,12.9884382 C19.1114531,13.0105466 19.6041699,13.0009024 20.0600703,13.1195098 C21.5046895,13.4954664 22.4996387,14.8073102 22.5055859,16.2972061 C22.5150449,18.6713839 22.5079082,21.0456182 22.5093242,23.4199089 C22.5096641,23.9379913 22.7762148,24.2541649 23.2126309,24.2641475 C23.5793223,24.2724946 23.8716445,24.0489284 23.935875,23.6855488 C23.9666309,23.5117831 23.9628926,23.3307983 23.9628926,23.1530282 C23.9635156,16.7435488 23.9669141,10.334013 23.9538301,3.92459002 C23.9528105,3.42258134 24.1158223,3.08142299 24.5221621,2.78668113 C25.5421465,2.04672451 26.5346035,1.26931887 27.5442227,0.514924078 C28.0832715,0.112121475 28.7878242,0.348659436 28.9259141,0.974577007 C29.010082,1.35606074 28.8511484,1.64899783 28.5475547,1.87809111 C27.6542188,2.55217354 26.7651875,3.23200868 25.8668672,3.89954881 C25.7146172,4.01274187 25.6457988,4.1275141 25.6562773,4.31729718 C25.671627,4.5951757 25.6602422,4.87452061 25.6602422,5.18223427 C25.9451445,5.18223427 26.1971387,5.17980911 26.4491328,5.18274187 C27.0217129,5.18939696 27.4099844,5.53619523 27.406416,6.03448156 C27.402791,6.52481562 27.0253379,6.86230803 26.4660684,6.87088069 C26.2131113,6.87477223 25.960041,6.87155748 25.662168,6.87155748 L25.662168,7.22027332 C25.6614883,12.6162603 25.6616016,18.0122473 25.6596191,23.4082343 C25.659166,24.5692668 25.0380449,25.4868243 24.0304648,25.8293362 C22.4301973,26.3733623 20.8223398,25.2172928 20.8150898,23.5019696 C20.8052344,21.1747158 20.782748,18.8468416 20.824209,16.520321 C20.8427305,15.4804902 20.0869746,14.6011714 18.9605059,14.6680043 C18.417832,14.7002082 17.8715898,14.6735879 17.3076758,14.6735879 L17.3076758,20.8893362 C17.5440371,20.8893362 17.7756973,20.8888286 18.0074141,20.8893926 C18.7048867,20.8909718 19.0213945,21.2065249 19.022584,21.907397 C19.0243965,22.9208894 19.0241133,23.9344382 19.0226973,24.9479306 C19.0217344,25.6659479 18.7097578,25.9798091 17.9913848,25.9805423 C15.7771895,25.9828547 13.5629375,25.9831931 11.3486855,25.9834187 C7.92832813,25.9837007 4.50802734,25.9786811 1.08772656,25.9878259 C0.569011719,25.9891714 0.192634766,25.8218915 0,25.3240564 L0,21.5510108 Z" id="Fill-1" fill="#787878" mask="url(#mask-2)"></path>
                        <path d="M7.14057031,7.99801735 L11.8455938,7.99801735 L11.8455938,6.1295705 L7.14057031,6.1295705 L7.14057031,7.99801735 Z M9.4941582,4.43195662 C10.520543,4.43195662 11.5469277,4.43144902 12.5732559,4.43212581 C13.228418,4.43257701 13.5638438,4.76533189 13.5649766,5.41888503 C13.5668457,6.52554881 13.5679219,7.63215618 13.5663926,8.73881996 C13.565543,9.37195662 13.2247363,9.71204338 12.5882656,9.71238178 C10.5260938,9.71334056 8.46386523,9.71249458 6.40169336,9.71029501 C5.76001172,9.70956182 5.42764453,9.37697614 5.42685156,8.73876356 C5.42554883,7.62273753 5.42537891,6.5067115 5.42696484,5.39074187 C5.42787109,4.77209978 5.76482617,4.43539696 6.38674023,4.43398698 C7.42258398,4.43167462 8.45837109,4.43336659 9.4941582,4.43336659 L9.4941582,4.43195662 Z" id="Fill-3" fill="#787878" mask="url(#mask-2)"></path>
                        <path d="M7.39684082,11.4128777 C7.75475293,11.4128777 8.11283496,11.4082529 8.47063379,11.4140056 C8.97909668,11.4221271 9.34391895,11.7735501 9.34757219,12.2497844 C9.35128223,12.7402312 8.98357129,13.0970121 8.45760645,13.1005089 C7.75118457,13.1052464 7.04464941,13.1051336 6.33828418,13.1005089 C5.82427051,13.0971813 5.43379004,12.7223527 5.43843457,12.2491076 C5.44313574,11.7733245 5.82948145,11.4167692 6.35131152,11.4116933 C6.69976465,11.4083657 7.04833105,11.4110729 7.39684082,11.4110729 L7.39684082,11.4128777 Z" id="Fill-4" fill="#787878" mask="url(#mask-2)"></path>
                        <path d="M7.37471699,16.490892 C7.0169748,16.490892 6.65911934,16.4954603 6.30149043,16.489764 C5.82837129,16.4823193 5.47096895,16.1462933 5.4416291,15.6910395 C5.4144416,15.2673128 5.74091816,14.8391306 6.19257051,14.8197293 C6.99114668,14.7853822 7.79312129,14.7851002 8.59169746,14.8172477 C9.06306074,14.8361978 9.37379121,15.2493779 9.3454709,15.7073952 C9.31817012,16.1491696 8.96858418,16.4741978 8.50441426,16.4891436 C8.48560957,16.4897076 8.46680488,16.4895948 8.44794355,16.4895948 C8.09020137,16.4896512 7.73245918,16.4896512 7.37471699,16.4896512 L7.37471699,16.490892 Z" id="Fill-5" fill="#787878" mask="url(#mask-2)"></path>
                    </g>
                </g>
            </g>
        </g>
    </g>
</svg>