<?xml version="1.0" encoding="UTF-8"?>
<svg width="32px" height="32px" viewBox="0 0 32 32" version="1.1" xmlns="http://www.w3.org/2000/svg" xmlns:xlink="http://www.w3.org/1999/xlink">
    <title>Group 13</title>
    <defs>
        <polygon id="path-1" points="0 0.0350681499 27.9470854 0.0350681499 27.9470854 21 0 21"></polygon>
        <polygon id="path-3" points="0.0182488676 0.057 13.9471515 0.057 13.9471515 31.9964762 0.0182488676 31.9964762"></polygon>
    </defs>
    <g id="Page-1" stroke="none" stroke-width="1" fill="none" fill-rule="evenodd">
        <g id="FASTag-Landing" transform="translate(-840.000000, -1411.000000)">
            <g id="Group-48" transform="translate(83.000000, 1266.000000)">
                <g id="Group-13" transform="translate(757.000000, 145.000000)">
                    <g id="Group-3" transform="translate(0.000000, 11.000000)">
                        <mask id="mask-2" fill="white">
                            <use xlink:href="#path-1"></use>
                        </mask>
                        <g id="Clip-2"></g>
                        <path d="M18.9939369,7.64073545 C18.6835102,6.87099 17.8676524,6.36749909 16.9943636,6.38888091 C16.2090569,6.40803545 15.4037147,6.95441727 15.1673947,7.64073545 L18.9939369,7.64073545 Z M23.5546391,5.75754455 C23.7005502,6.36234455 23.8358836,6.94429909 23.9879547,7.52160818 C24.0035102,7.58072636 24.1179369,7.64805364 24.1885591,7.65059909 C24.5284791,7.66307182 24.8700169,7.66949909 25.2094391,7.65002636 C25.6959547,7.62215364 26.0775636,7.19769909 26.0800646,6.71056273 C26.0824791,6.23278091 25.7227724,5.78955364 25.2534924,5.76448091 C24.6992169,5.73482636 24.142328,5.75754455 23.5546391,5.75754455 L23.5546391,5.75754455 Z M4.39050578,5.75989909 C3.79727911,5.75989909 3.22987467,5.73291727 2.666328,5.76836273 C2.20569689,5.79738091 1.85967911,6.23965364 1.86434578,6.70229 C1.86932356,7.18866273 2.22436356,7.61101727 2.69563467,7.64646273 C3.05521689,7.67357182 3.41828356,7.66256273 3.77917244,7.64951727 C3.84438133,7.64716273 3.94679911,7.56399 3.96366133,7.49939909 C4.11274578,6.93036273 4.24627467,6.35706273 4.39050578,5.75989909 L4.39050578,5.75989909 Z M19.8727636,17.1973264 C19.8727636,17.7288173 19.8715191,18.2243536 19.8733236,18.71989 C19.8741324,18.9651445 19.9985769,19.0886627 20.2383191,19.08879 C20.826568,19.0891082 21.4155636,19.1046991 22.0024436,19.07549 C22.122968,19.0695082 22.3292969,18.9013809 22.3360169,18.7972082 C22.3701769,18.2660991 22.3518213,17.7314264 22.3518213,17.1973264 L19.8727636,17.1973264 Z M5.58959022,17.19809 C5.58959022,17.7304082 5.58865689,18.2261355 5.59002578,18.7218627 C5.590648,18.9487264 5.699848,19.0847809 5.926088,19.0867536 C6.52460356,19.0919718 7.12374133,19.1024082 7.72126133,19.0768264 C7.83911022,19.0717991 8.04419467,18.9203445 8.04967022,18.8267355 C8.08127911,18.2849991 8.06510133,17.7403355 8.06510133,17.19809 L5.58959022,17.19809 Z M15.5236169,15.2629082 C15.5236169,14.7334536 15.5294036,14.2187627 15.5207547,13.7043264 C15.5171458,13.4927991 15.3905236,13.3752627 15.1815191,13.3746264 C14.3759902,13.3720809 13.5702747,13.3631082 12.765368,13.3852536 C12.6498213,13.3884355 12.4457947,13.5433264 12.4403191,13.6375718 C12.4089591,14.1794355 12.4250747,14.7242264 12.4250747,15.2629082 L15.5236169,15.2629082 Z M5.852168,7.64722636 L13.1270036,7.64722636 C13.7231547,5.74265364 14.9503636,4.57123545 16.9226213,4.50613545 C19.0444613,4.43607182 20.3676169,5.62505364 21.0193947,7.63551727 L22.0877502,7.63551727 C21.9043191,6.88257182 21.729288,6.15520818 21.5496524,5.42899 C21.4230302,4.91716273 21.3181236,4.39750818 21.1547902,3.89796273 C20.7653413,2.70688091 19.7574036,1.95043545 18.5268347,1.94540818 C15.4854124,1.93306273 12.4437413,1.92599909 9.40263022,1.95870818 C8.94759911,1.96367182 8.46071022,2.12479909 8.04873689,2.33619909 C7.32185689,2.70910818 6.89071911,3.35851727 6.698888,4.17719909 C6.42959022,5.32653545 6.14025689,6.47090818 5.852168,7.64722636 L5.852168,7.64722636 Z M17.3882302,15.2552082 C17.4579191,15.2671082 17.4875991,15.27659 17.5172791,15.27659 C19.4415636,15.2771627 21.3660347,15.2879809 23.2902569,15.2721355 C24.1972702,15.26469 24.8320613,14.5742355 24.8390924,13.6391627 C24.8446924,12.8985627 24.8405236,12.1578355 24.8403369,11.4171082 C24.8399636,10.17219 24.2463636,9.56242636 23.0337147,9.56236273 C16.9916258,9.56217182 10.9495991,9.56225534 4.90751022,9.56255364 C4.79370578,9.56255364 4.67959022,9.56083545 4.56628356,9.56904455 C3.721928,9.63007182 3.10941244,10.2947536 3.10574133,11.1581718 C3.10250578,11.9411536 3.10455911,12.7241991 3.10518133,13.5071809 C3.10599022,14.6476718 3.71875467,15.2774809 4.83079022,15.2781173 C6.63100356,15.2791991 8.43121689,15.2786264 10.2314302,15.2777991 C10.3316702,15.2777991 10.4319102,15.2692718 10.5571636,15.2635445 C10.5571636,14.7592264 10.5568524,14.27489 10.5572258,13.7905536 C10.5582213,12.4267627 11.4804791,11.4757809 12.8143369,11.4684627 C13.569528,11.4642627 14.3248436,11.4662355 15.0800969,11.4680173 C16.4540258,11.4711355 17.3800791,12.41149 17.3878569,13.8115536 C17.390408,14.2862809 17.3882302,14.7610082 17.3882302,15.2552082 L17.3882302,15.2552082 Z M-1.86666666e-05,6.25963545 C0.203261333,5.81519909 0.346185778,5.32596273 0.622639111,4.93574455 C1.144808,4.19883545 1.90833689,3.86245364 2.797368,3.84826273 C3.407768,3.83852636 4.01847911,3.84011727 4.62887911,3.84998091 C4.80546578,3.85284455 4.87092356,3.79449 4.921448,3.61707182 C5.56594578,1.35365364 7.295288,0.0362536364 9.60740356,0.0356172727 C12.515048,0.0348536364 15.4227547,0.0350681499 18.3304613,0.0356172727 C20.6097858,0.0361263636 22.3151724,1.30560818 22.985928,3.52887182 C23.0688702,3.80378091 23.1915724,3.85214455 23.4388436,3.85208091 C24.1618658,3.85195364 24.8939724,3.81084455 25.6058569,3.91056273 C26.875688,4.08855364 27.730248,5.05932636 27.9226391,6.40638091 C28.081928,7.52141727 27.4500613,8.70161727 26.3986302,9.25321727 C26.3530213,9.27714455 26.3082213,9.30266273 26.2824613,9.31679 C26.4122569,9.77719909 26.6289147,10.2233536 26.6486391,10.6784173 C26.6994747,11.8490082 26.7478213,13.0318809 26.6388702,14.1943264 C26.5160436,15.5052355 25.7389502,16.4189264 24.546088,16.9191718 C24.2743013,17.0332082 24.2001947,17.16939 24.2132613,17.4484355 C24.2349769,17.9129809 24.2286924,18.37969 24.215128,18.8449355 C24.1847013,19.8891445 23.4428258,20.8252991 22.4302836,20.9305536 C21.5617236,21.0208536 20.6701413,21.0241627 19.801768,20.9342445 C18.7695636,20.8273991 18.0345324,19.8900355 18.012568,18.8236809 C18.0014924,18.2872264 18.0105769,17.7503264 18.0105769,17.1989173 L9.935688,17.1989173 C9.935688,17.7228991 9.94614133,18.2475809 9.93332356,18.7716264 C9.91260356,19.6205355 9.54343911,20.2743991 8.82191022,20.69739 C8.62031022,20.8155627 8.38249689,20.9288991 8.15806133,20.9358991 C7.27133244,20.9635809 6.37645244,21.0190082 5.49756356,20.9299809 C4.49902133,20.8287355 3.76181244,19.8977355 3.73113689,18.8652355 C3.71539467,18.3365445 3.72167911,17.8069627 3.72914578,17.2779536 C3.731448,17.11689 3.68279022,17.0446627 3.52841689,16.9828082 C2.04435467,16.3879355 1.24479911,15.1821536 1.24212356,13.5581536 C1.24131467,13.0818991 1.24635467,12.6056445 1.241128,12.1294536 C1.230488,11.1764991 1.182888,10.2181355 1.73411467,9.35026273 C0.746896889,8.92504455 0.252168,8.13423545 -1.86666666e-05,7.14882636 L-1.86666666e-05,6.25963545 Z" id="Fill-1" fill="#787878" mask="url(#mask-2)"></path>
                    </g>
                    <g id="Group-6" transform="translate(18.000000, 0.000000)">
                        <mask id="mask-4" fill="white">
                            <use xlink:href="#path-3"></use>
                        </mask>
                        <g id="Clip-5"></g>
                        <path d="M12.1140485,1.937 C9.68526061,1.937 7.28756364,1.8923125 4.89241212,1.9524375 C3.24556364,1.99375 1.86380606,3.55425 1.84313939,5.233375 C1.8181697,7.259625 3.27871515,8.785125 5.2561697,8.7889375 C7.44229091,8.7931875 9.62841212,8.790125 11.8145939,8.7893125 C11.9116242,8.78925 12.0087152,8.78025 12.1140485,8.7750625 L12.1140485,1.937 Z M13.2741697,0.057 C13.7965939,0.30725 13.9478061,0.73725 13.9472018,1.3150625 C13.9364727,11.1575625 13.9395636,21.0000625 13.9393818,30.8425625 C13.9393818,31.470625 13.7551394,31.78975 13.2944727,31.942375 C13.1912606,31.9765625 13.0780485,31.9913125 12.9692606,31.99225 C12.404897,31.997 11.8404727,31.99825 11.2761091,31.993375 C10.7147758,31.9885625 10.3172,31.59925 10.3116848,31.0595625 C10.3062303,30.52925 10.7125333,30.13225 11.2736242,30.1240625 C11.5441697,30.1201875 11.8148364,30.123375 12.1050788,30.123375 L12.1050788,10.66125 L11.7803515,10.66125 L5.24950303,10.66125 C2.69429091,10.66125 0.636472727,8.9335625 0.1192,6.3540625 C-0.465587879,3.437875 1.55841212,0.5078125 4.42738182,0.1154375 C4.49435152,0.1063125 4.55877576,0.0769375 4.62435152,0.057 L13.2741697,0.057 Z" id="Fill-4" fill="#787878" mask="url(#mask-4)"></path>
                    </g>
                    <path d="M6.97718722,24.9967092 C6.65539202,24.9968423 6.33352992,25.0038306 6.01200227,24.9953781 C5.42680454,24.9800038 4.99136767,24.5410053 5.00012992,23.9860009 C5.00875839,23.4431761 5.43623566,23.0174886 6.00765459,23.0083705 C6.67311717,22.9976551 7.33904797,22.9965902 8.00444367,23.0089029 C8.57198313,23.0194187 8.9983902,23.4556885 9,23.9984467 C9.0016008,24.5398073 8.57345465,24.976543 8.00885824,24.9945129 C7.66525775,25.0054945 7.32112215,24.9965761 6.97718722,24.9967092" id="Fill-7" fill="#787878"></path>
                    <path d="M20.9935268,24.9963231 C20.6606927,24.9966558 20.327658,25.0051054 19.9951584,24.9947928 C19.4291532,24.9772281 19.0006695,24.5441648 19,24.0028522 C18.9993986,23.4611405 19.4258088,23.0204924 19.9910782,23.0098471 C20.6675153,22.9971393 21.3446881,22.9960083 22.0210583,23.0107121 C22.5828495,23.0229541 23.0076544,23.4742475 22.9998954,24.0154935 C22.9922702,24.543566 22.5722143,24.97297 22.0252053,24.9935287 C21.6817361,25.0064361 21.3374642,24.9959904 20.9935268,24.9963231" id="Fill-9" fill="#787878"></path>
                    <path d="M24.1116674,4.26871714 L24.1116674,4.68711748 L24.1116674,5.10689538 C24.6702188,5.12931192 24.9017251,4.99168188 24.8870996,4.66952238 C24.8728633,4.35493942 24.6381872,4.22651394 24.1116674,4.26871714 M24.1115562,6.36591598 C24.1115562,6.70310333 24.1148372,7.0025332 24.1107776,7.30183785 C24.105161,7.72361946 23.8740996,8.00664393 23.5474994,7.9998814 C23.2305198,7.99336933 23.0044077,7.71798401 23.003073,7.31229473 C22.9991247,6.10480712 22.998791,4.8972569 23.0031843,3.68970667 C23.0048526,3.25490093 23.2217889,3.0048751 23.6034435,3.00474987 C23.9998348,3.00456202 24.4040672,2.97782498 24.7909491,3.0532773 C25.5548699,3.20236608 26.0718247,4.00948676 25.9918568,4.84109031 C25.9082743,5.70988779 25.2729249,6.35483294 24.4890956,6.36572813 C24.3716463,6.36735615 24.2541414,6.36591598 24.1115562,6.36591598" id="Fill-11" fill="#787878"></path>
                </g>
            </g>
        </g>
    </g>
</svg>