<?xml version="1.0" encoding="UTF-8"?>
<svg width="30px" height="33px" viewBox="0 0 30 33" version="1.1" xmlns="http://www.w3.org/2000/svg" xmlns:xlink="http://www.w3.org/1999/xlink">
    <title>icons / ATM Copy 6</title>
    <g id="Page-1" stroke="none" stroke-width="1" fill="none" fill-rule="evenodd">
        <g id="FASTag-TOLL-PLAZA-List" transform="translate(-766.000000, -2473.000000)">
            <g id="Group-3" transform="translate(0.000000, 2111.000000)">
                <g id="Group-9" transform="translate(679.000000, 362.000000)">
                    <g id="Group-34" transform="translate(0.347377, 0.440858)">
                        <g id="Group" transform="translate(85.652623, 0.000000)">
                            <g id="Group-40-Copy">
                                <rect id="Rectangle" x="0" y="0" width="32" height="32"></rect>
                                <path d="M27.8838286,13.2816355 L27.8838286,11.4179286 C27.4987101,4.56882983 22.1416855,-2.10557497e-12 16,-2.10557497e-12 C9.85831451,-2.10557497e-12 3.96519999,4.0463518 3.96519999,11.3846282 L3.96519999,13.2817096 C2.24835113,13.2817096 1.33434776,14.7915347 1.33434776,16.5337432 L1.33434776,21.3730384 C1.29110539,23.0615971 2.63572636,24.4652343 4.33756363,24.5081393 C4.35100685,24.5085098 4.36437539,24.5087321 4.37781861,24.5088803 L7.26519871,24.5088803 C7.67417141,24.4898361 7.99016182,24.1453366 7.9708932,23.7395549 C7.97022104,23.7249569 7.96910077,23.7103588 7.96753239,23.6958348 L7.96753239,14.2107985 C7.96753239,13.7462541 7.69441092,13.2816355 7.26519871,13.2816355 L6.40677428,13.2816355 L6.40677428,11.3846282 C5.97736374,6.0855663 10.6950875,2.28416861 15.974689,2.28416861 C21.2542905,2.28416861 25.0439626,5.89247596 25.5260238,11.3846282 L25.5260238,13.2816355 L24.4148502,13.2816355 C23.985638,13.2816355 23.7125166,13.74618 23.7125166,14.2107985 L23.7125166,23.6958348 C23.6689754,24.099764 23.9636808,24.4622702 24.3707863,24.5054716 C24.3854245,24.5070277 24.4001374,24.5081393 24.4148502,24.5088062 L25.1986309,24.5054716 L25.1205856,24.6215892 C23.9497556,26.1655011 20.4155731,26.624355 20.3772341,26.5193782 L20.5390678,28.6477494 C20.5502588,28.5936694 20.5601432,28.5392327 20.5686994,28.4844823 C22.8192779,28.1514577 25.1986309,27.6402444 27.2080598,25.3352447 L27.8838286,24.4117878 C29.5616174,24.2956703 30.2082235,23.2698974 30.2082235,21.7599982 L30.2082235,16.920703 C30.2082235,15.2561533 29.6787228,13.2816355 27.8838286,13.2816355 Z M4.36812406,21.8666667 C3.85799765,21.8513494 3.45452166,21.329165 3.46694608,20.7002628 C3.4671728,20.6899209 3.46749021,20.6795789 3.46789831,20.6691811 L3.46789831,17.018418 C3.46789831,16.3466946 3.84693357,15.7333333 4.36812406,15.7333333 L5.6,15.7333333 L5.6,21.8666667 L4.36812406,21.8666667 Z M28.08,20.9612629 C28.08,21.7498296 27.3866514,21.8666667 27.0666718,21.8666667 L25.9466667,21.8666667 L25.9466667,15.7333333 L27.0666718,15.7333333 C27.6533435,15.7333333 28.08,16.6387371 28.08,17.3104666 L28.08,20.9612629 Z" id="Shape-Copy-4" fill="#767676" fill-rule="nonzero"></path>
                            </g>
                            <path d="M16.7333333,23.32 C14.3400994,23.32 12.4,25.2600994 12.4,27.6533333 C12.4,30.0465672 14.3400994,31.9866667 16.7333333,31.9866667 C19.1265672,31.9866667 21.0666667,30.0465672 21.0666667,27.6533333 C21.0666667,25.2600994 19.1265672,23.32 16.7333333,23.32 Z M16.7333333,25.9866667 C17.6538079,25.9866667 18.4,26.7328588 18.4,27.6533333 C18.4,28.5738079 17.6538079,29.32 16.7333333,29.32 C15.8128588,29.32 15.0666667,28.5738079 15.0666667,27.6533333 C15.0666667,26.7328588 15.8128588,25.9866667 16.7333333,25.9866667 Z" id="Oval-Copy" fill="#767676" fill-rule="nonzero"></path>
                        </g>
                    </g>
                </g>
            </g>
        </g>
    </g>
</svg>