<?xml version="1.0" encoding="UTF-8"?>
<svg width="28px" height="21px" viewBox="0 0 28 21" version="1.1" xmlns="http://www.w3.org/2000/svg" xmlns:xlink="http://www.w3.org/1999/xlink">
    <title>icons / ATM</title>
    <g id="Page-1" stroke="none" stroke-width="1" fill="none" fill-rule="evenodd">
        <g id="FASTag-Landing" transform="translate(-237.000000, -3691.000000)" fill="#737373" fill-rule="nonzero" stroke="#737373" stroke-width="0.5">
            <g id="Group-43" transform="translate(0.000000, 3418.000000)">
                <g id="Group-53" transform="translate(202.000000, 166.000000)">
                    <g id="Group" transform="translate(33.000000, 101.000000)">
                        <g id="contact" transform="translate(2.666667, 6.666667)">
                            <path d="M26.0606061,0 L0.606060606,0 C0.270909091,0 0,0.279375 0,0.625 L0,19.375 C0,19.720625 0.270909091,20 0.606060606,20 L26.0606061,20 C26.3951515,20 26.6666667,19.720625 26.6666667,19.375 L26.6666667,0.625 C26.6666667,0.279375 26.3951515,0 26.0606061,0 Z M25.4545455,17.238125 L17.9466667,9.49625 L17.089697,10.38 L25.2060606,18.75 L1.46060606,18.75 L9.5769697,10.38 L8.72,9.49625 L1.21212121,17.238125 L1.21212121,1.25 L25.4545455,1.25 L25.4545455,17.238125 Z" id="Shape"></path>
                            <path d="M24.3205,1.11111111 L13.3333333,11.8864085 L2.34616667,1.11111111 L1.11111111,1.11111111 L1.11111111,1.59476788 L12.9012778,13.1575807 C13.1402222,13.3919175 13.5264444,13.3919175 13.7653889,13.1575807 L25.5555556,1.59476788 L25.5555556,1.11111111 L24.3205,1.11111111 Z" id="Path"></path>
                        </g>
                    </g>
                </g>
            </g>
        </g>
    </g>
</svg>