<?xml version="1.0" encoding="UTF-8"?>
<svg width="21px" height="24px" viewBox="0 0 21 24" version="1.1" xmlns="http://www.w3.org/2000/svg" xmlns:xlink="http://www.w3.org/1999/xlink">
    <title>Group 3</title>
    <defs>
        <polygon id="path-1" points="0 0 20.8059 0 20.8059 23.331 0 23.331"></polygon>
        <linearGradient x1="10.6604899%" y1="0.478525153%" x2="115.229604%" y2="139.708439%" id="linearGradient-3">
            <stop stop-color="#FFDF66" offset="0%"></stop>
            <stop stop-color="#BA5B03" offset="100%"></stop>
        </linearGradient>
    </defs>
    <g id="Page-1" stroke="none" stroke-width="1" fill="none" fill-rule="evenodd">
        <g id="1366_normal-size" transform="translate(-1030.000000, -407.000000)">
            <g id="Group-9" transform="translate(1008.000000, 147.000000)">
                <g id="Group-3" transform="translate(22.000000, 260.000000)">
                    <mask id="mask-2" fill="white">
                        <use xlink:href="#path-1"></use>
                    </mask>
                    <g id="Clip-2"></g>
                    <path d="M14.2969,17.333 L14.2969,18.484 C14.3039,18.988 14.4279,19.464 14.6699,19.911 C14.9109,20.359 15.3549,20.583 16.0019,20.583 C16.6479,20.583 17.0919,20.362 17.3329,19.922 C17.5749,19.482 17.6919,19.002 17.6849,18.484 L17.6849,17.333 C17.6919,16.815 17.5799,16.332 17.3489,15.884 C17.1179,15.437 16.6689,15.213 16.0019,15.213 C15.3619,15.213 14.9199,15.437 14.6749,15.884 C14.4299,16.332 14.3039,16.815 14.2969,17.333 L14.2969,17.333 Z M11.1969,18.484 L11.1969,17.333 C11.2039,16.459 11.3939,15.655 11.7669,14.92 C12.1399,14.185 12.6809,13.596 13.3919,13.152 C14.1019,12.708 14.9719,12.486 16.0019,12.486 C17.0459,12.486 17.9239,12.706 18.6379,13.146 C19.3519,13.587 19.8919,14.174 20.2569,14.91 C20.6229,15.645 20.8059,16.453 20.8059,17.333 L20.8059,18.484 C20.8059,19.357 20.6219,20.162 20.2519,20.897 C19.8829,21.632 19.3389,22.222 18.6219,22.665 C17.9049,23.109 17.0309,23.331 16.0019,23.331 C14.9579,23.331 14.0799,23.109 13.3699,22.665 C12.6599,22.222 12.1219,21.632 11.7559,20.897 C11.3899,20.162 11.2039,19.357 11.1969,18.484 L11.1969,18.484 Z M3.1219,4.848 L3.1219,5.998 C3.1289,6.517 3.2529,6.996 3.4939,7.436 C3.7359,7.876 4.1689,8.097 4.7939,8.097 C5.4469,8.097 5.8949,7.876 6.1359,7.436 C6.3779,6.996 6.4949,6.517 6.4879,5.998 L6.4879,4.848 C6.4949,4.329 6.3829,3.846 6.1519,3.398 C5.9219,2.951 5.4689,2.728 4.7939,2.728 C4.1619,2.728 3.7269,2.955 3.4889,3.409 C3.2509,3.864 3.1289,4.343 3.1219,4.848 L3.1219,4.848 Z M1.0439,22.575 L16.0439,0.756 L18.8249,0.756 L3.8249,22.575 L1.0439,22.575 Z M-0.0001,5.998 L-0.0001,4.848 C0.0069,3.967 0.1969,3.159 0.5699,2.424 C0.9429,1.688 1.4859,1.101 2.1999,0.661 C2.9139,0.22 3.7779,-3.55271368e-15 4.7939,-3.55271368e-15 C5.8449,-3.55271368e-15 6.7279,0.22 7.4419,0.661 C8.1549,1.101 8.6949,1.688 9.0609,2.424 C9.4259,3.159 9.6099,3.967 9.6099,4.848 L9.6099,5.998 C9.6099,6.879 9.4249,7.685 9.0559,8.416 C8.6859,9.148 8.1429,9.732 7.4249,10.169 C6.7079,10.605 5.8309,10.824 4.7939,10.824 C3.7569,10.824 2.8829,10.602 2.1729,10.158 C1.4629,9.714 0.9249,9.128 0.5599,8.4 C0.1929,7.672 0.0069,6.872 -0.0001,5.998 L-0.0001,5.998 Z" id="Fill-1" fill="url(#linearGradient-3)" mask="url(#mask-2)"></path>
                </g>
            </g>
        </g>
    </g>
</svg>