<?xml version="1.0" encoding="UTF-8"?>
<svg width="23px" height="24px" viewBox="0 0 23 24" version="1.1" xmlns="http://www.w3.org/2000/svg" xmlns:xlink="http://www.w3.org/1999/xlink">
    <title>Group 56</title>
    <g id="Final" stroke="none" stroke-width="1" fill="none" fill-rule="evenodd">
        <g id="Offers_desktop05A" transform="translate(-983.000000, -269.000000)" fill="#9B1E26">
            <g id="Group-65" transform="translate(0.000000, 114.000000)">
                <g id="Group-64" transform="translate(958.000000, 134.000000)">
                    <g id="Group-56" transform="translate(26.000000, 21.000000)">
                        <g id="hand" transform="translate(6.620690, 0.000000)">
                            <path d="M3.31043103,0 C1.48503866,0 0,1.48503866 0,3.31043103 C0,5.13565095 1.48503866,6.62068966 3.31043103,6.62068966 C5.13565095,6.62068966 6.62068966,5.13565095 6.62068966,3.31043103 C6.62068966,1.48503866 5.13565095,0 3.31043103,0 Z M3.31043103,5.29668965 C2.2152301,5.29668965 1.32417241,4.40563196 1.32417241,3.31043103 C1.32417241,2.2152301 2.2152301,1.32417241 3.31043103,1.32417241 C4.40563196,1.32417241 5.29651724,2.2152301 5.29651724,3.31043103 C5.29651724,4.40563196 4.40563196,5.29668965 3.31043103,5.29668965 Z" id="Shape"></path>
                            <path d="M8.27586207,13.2413793 C9.79705457,13.2413793 11.0344828,12.0037715 11.0344828,10.4827586 C11.0344828,8.96174566 9.79705457,7.72413793 8.27586207,7.72413793 C6.7548491,7.72413793 5.51724138,8.96174566 5.51724138,10.4827586 C5.51724138,12.0037715 6.7548491,13.2413793 8.27586207,13.2413793 Z M8.27586207,9.10344828 C9.0364583,9.10344828 9.65517241,9.72216234 9.65517241,10.4827586 C9.65517241,11.2433549 9.0364583,11.862069 8.27586207,11.862069 C7.51544538,11.862069 6.89655172,11.2433549 6.89655172,10.4827586 C6.89655172,9.72216234 7.51544538,9.10344828 8.27586207,9.10344828 Z" id="Shape"></path>
                        </g>
                        <path d="M19.8253439,14.2687037 L19.3379836,14.2687037 C18.5128647,14.2693791 17.7015949,14.4808559 16.981167,14.8831061 L13.422004,16.8732559 L12.4068613,16.8732559 C12.1628696,15.5398825 11.0016217,14.5708495 9.64610907,14.5694754 L3.23560215,14.5694754 C3.08779014,14.5695568 2.94750046,14.6346688 2.85202099,14.7475053 L0.909747194,17.0495656 L0.0528656351,17.0495656 L0,23.217284 C0.0887050743,23.217284 0.432949734,23.1991169 1.03273398,23.1627828 L11.2638583,22.6931969 C11.2738922,22.6931969 11.2836394,22.6931969 11.2925265,22.6909034 C12.9015487,22.5192964 14.4064228,21.8126406 15.5661023,20.684126 L20.4847136,15.8882149 C20.760067,15.6208062 20.8453828,15.2129468 20.7002988,14.8575913 C20.5564661,14.5008853 20.2099552,14.2676831 19.8253439,14.2687037 Z M14.866597,19.9671332 C13.8720126,20.9345631 12.5824393,21.5415576 11.2030816,21.6915283 L1.03388071,22.158534 L1.03388071,18.4603301 L3.47068178,15.5731508 L9.64610907,15.5731508 C10.4929905,15.5749872 11.2248665,16.1650175 11.4063395,16.9922291 L6.32259908,18.2401579 C6.07656549,18.3008886 5.91445262,18.5355636 5.94472672,18.7871669 C5.97500082,19.0387703 6.18815498,19.2282914 6.44157231,19.2289258 C6.48205933,19.2289791 6.52240019,19.2240689 6.56169227,19.214305 L12.0103795,17.8766445 L13.5527312,17.8766445 C13.6384383,17.8767032 13.7227297,17.8547913 13.797558,17.813001 L17.4711073,15.7589211 C18.0417467,15.4398898 18.6845044,15.2721195 19.3382703,15.2715608 L19.6822893,15.2715608 L14.866597,19.9671332 Z" id="Shape" stroke="#9B1E26" stroke-width="0.679799947" fill-rule="nonzero"></path>
                    </g>
                </g>
            </g>
        </g>
    </g>
</svg>