<?xml version="1.0" encoding="UTF-8"?>
<svg width="48px" height="48px" viewBox="0 0 48 48" version="1.1" xmlns="http://www.w3.org/2000/svg" xmlns:xlink="http://www.w3.org/1999/xlink">
    <title>Shape</title>
    <g id="Final" stroke="none" stroke-width="1" fill="none" fill-rule="evenodd">
        <g id="Offers_desktop05A" transform="translate(-668.000000, -2952.000000)" fill="#FFFFFF" fill-rule="nonzero">
            <g id="Group-72" transform="translate(118.000000, 2871.000000)">
                <g id="Group-40" transform="translate(453.000000, 0.000000)">
                    <g id="Group-49" transform="translate(47.000000, 37.000000)">
                        <path d="M50.3388443,74.2328979 C49.851615,74.8263691 49.8943959,75.6928259 50.4377167,76.235395 L54.5490615,80.3475118 C55.1314011,80.9253008 56.0709145,80.9243688 56.6521071,80.3454257 L57.2206065,79.7768195 C58.6242114,78.3729511 60.8140549,78.3729511 62.2176598,79.7768195 C63.621276,81.1806767 63.6212647,83.3709426 62.2176598,84.774811 L61.6491604,85.3434398 C61.3696855,85.6241184 61.2132903,86.0044428 61.2144535,86.4005674 C61.2156167,86.7966919 61.3742427,87.176091 61.6553611,87.4551229 L65.7584646,91.5589968 C66.0374441,91.840168 66.416772,91.9988238 66.8128222,91.9999936 C67.2088723,92.0011506 67.5891254,91.844726 67.8697513,91.5651987 L76.7906977,82.6425209 L59.3607489,65.2092995 L50.4398024,74.1319265 C50.404578,74.1639374 50.3709056,74.1976162 50.3389007,74.2328472 L50.3388443,74.2328979 Z M61.1627907,63.1290702 L78.8708729,80.8372044 L97.5520503,62.1559782 C97.8387485,61.8714605 98,61.4842605 98,61.0803465 C98,60.6764324 97.8387527,60.2892316 97.552056,60.0047124 L93.3834771,55.8361283 C93.0989594,55.5494301 92.71176,55.3881803 92.307847,55.3881803 C91.903934,55.3881803 91.5167347,55.5494301 91.232217,55.8361283 L90.656736,56.4116108 C89.2307445,57.837606 87.0038604,57.8397078 85.5778574,56.4137011 C84.1518544,54.9876944 84.153939,52.760816 85.5799821,51.3348093 L86.1554688,50.7593211 C86.749504,50.1699187 86.7533498,49.2105797 86.1640592,48.6164336 L81.9870158,44.439471 C81.39287,43.8501714 80.4335248,43.8540172 79.8441228,44.4480614 L61.1627907,63.1290702 Z M69.4666102,65.8374837 L76.3026064,59.0014943 C77.7887057,57.5153892 80.0194926,59.7461759 78.5333873,61.232281 L71.6973971,68.0682704 C70.2112918,69.5543695 67.9805108,67.3235888 69.4666102,65.8374837 L69.4666102,65.8374837 Z M75.0483835,70.3040485 L81.88545,63.4669847 C83.3717833,61.9806461 85.6007472,64.209609 84.1144079,65.6959417 L77.2773414,72.5330114 C75.7910021,74.0193441 73.5620443,71.7903871 75.0483835,70.3040485 Z" id="Shape"></path>
                    </g>
                </g>
            </g>
        </g>
    </g>
</svg>