<?xml version="1.0" encoding="UTF-8"?>
<svg width="48px" height="52px" viewBox="0 0 48 52" version="1.1" xmlns="http://www.w3.org/2000/svg" xmlns:xlink="http://www.w3.org/1999/xlink">
    <title>Group 5</title>
    <g id="Page-1" stroke="none" stroke-width="1" fill="none" fill-rule="evenodd">
        <g id="Website-Migration_Desktop" transform="translate(-760.000000, -828.000000)" fill="#9D1D27" stroke="#FFFFFF">
            <g id="Group-2" transform="translate(115.000000, 746.000000)">
                <g id="Group-49" transform="translate(605.702529, 82.000000)">
                    <g id="Group-5" transform="translate(39.297471, 0.000000)">
                        <path d="M23.4442945,10 C29.4010403,10 33.9863213,14.9503226 34.1787431,20.5749244 L34.1850332,20.9426583 L34.1850332,27.1833738 L30.5719871,30.9097903 L30.5719871,32.9258005 L43.0535019,38.4424753 L45,50.4878811 L41.7302644,51 L40.0642094,40.6948551 L27.2623356,35.0354783 L27.2623356,29.602584 L30.8732749,25.8770988 L30.8741779,20.9426583 C30.8741779,16.9992804 27.7863746,13.4613516 23.7890949,13.2678428 L23.4442945,13.2595152 C19.3705727,13.2595152 16.3052622,16.465304 16.1334271,20.3315074 L16.1258221,20.6742921 L16.1250697,25.8770988 L19.7376644,29.602584 L19.7376644,35.0354783 L6.93413516,40.6948551 L5.26973556,51 L2,50.4878811 L3.94649813,38.4424753 L16.4263575,32.9258005 L16.4263575,30.9097903 L12.8149668,27.1833738 L12.8149668,20.6742921 C12.8149668,14.9245972 17.3449707,10 23.4442945,10 Z" id="Shape" fill-rule="nonzero"></path>
                        <path d="M44,20.5 C44.9475469,20.5 45.821043,20.9037836 46.4586297,21.5413703 C47.0962164,22.178957 47.5,23.0524531 47.5,24 C47.5,24.9475469 47.0962164,25.821043 46.4586297,26.4586297 C45.821043,27.0962164 44.9475469,27.5 44,27.5 C43.0524531,27.5 42.178957,27.0962164 41.5413703,26.4586297 C40.9037836,25.821043 40.5,24.9475469 40.5,24 C40.5,23.0524531 40.9037836,22.178957 41.5413703,21.5413703 C42.178957,20.9037836 43.0524531,20.5 44,20.5 Z M44.7413703,23.2586297 C44.5655602,23.0828195 44.4012339,22.8058599 43.2586297,23.2586297 C43.0505983,23.466661 42.9285714,23.7447433 42.9285714,24 C42.9285714,24.2552567 43.0505983,24.533339 43.2586297,24.7413703 C43.466661,24.9494017 43.7447433,25.0714286 44,25.0714286 C44.2552567,25.0714286 44.533339,24.9494017 44.7413703,24.7413703 C44.9494017,24.533339 45.0714286,24.2552567 45.0714286,24 C45.0714286,23.7447433 44.9494017,23.466661 44.7413703,23.2586297 Z" id="Path"></path>
                        <path d="M35,0.5 C35.9475469,0.5 36.821043,0.903783625 37.4586297,1.54137034 C38.0962164,2.17895705 38.5,3.0524531 38.5,4 C38.5,4.9475469 38.0962164,5.82104295 37.4586297,6.45862966 C36.821043,7.09621638 35.9475469,7.5 35,7.5 C34.0524531,7.5 33.178957,7.09621638 32.5413703,6.45862966 C31.9037836,5.82104295 31.5,4.9475469 31.5,4 C31.5,3.0524531 31.9037836,2.17895705 32.5413703,1.54137034 C33.178957,0.903783625 34.0524531,0.5 35,0.5 Z M35.7413703,3.25862966 C35.5655602,3.08281948 35.4012339,2.80585986 34.2586297,3.25862966 C34.0505983,3.46666102 33.9285714,3.74474335 33.9285714,4 C33.9285714,4.25525665 34.0505983,4.53333898 34.2586297,4.74137034 C34.466661,4.9494017 34.7447433,5.07142857 35,5.07142857 C35.2552567,5.07142857 35.533339,4.9494017 35.7413703,4.74137034 C35.9494017,4.53333898 36.0714286,4.25525665 36.0714286,4 C36.0714286,3.74474335 35.9494017,3.46666102 35.7413703,3.25862966 Z" id="Path-Copy"></path>
                        <path d="M13,0.5 C13.9475469,0.5 14.821043,0.903783625 15.4586297,1.54137034 C16.0962164,2.17895705 16.5,3.0524531 16.5,4 C16.5,4.9475469 16.0962164,5.82104295 15.4586297,6.45862966 C14.821043,7.09621638 13.9475469,7.5 13,7.5 C12.0524531,7.5 11.178957,7.09621638 10.5413703,6.45862966 C9.90378362,5.82104295 9.5,4.9475469 9.5,4 C9.5,3.0524531 9.90378362,2.17895705 10.5413703,1.54137034 C11.178957,0.903783625 12.0524531,0.5 13,0.5 Z M13.7413703,3.25862966 C13.5655602,3.08281948 13.4012339,2.80585986 12.2586297,3.25862966 C12.0505983,3.46666102 11.9285714,3.74474335 11.9285714,4 C11.9285714,4.25525665 12.0505983,4.53333898 12.2586297,4.74137034 C12.466661,4.9494017 12.7447433,5.07142857 13,5.07142857 C13.2552567,5.07142857 13.533339,4.9494017 13.7413703,4.74137034 C13.9494017,4.53333898 14.0714286,4.25525665 14.0714286,4 C14.0714286,3.74474335 13.9494017,3.46666102 13.7413703,3.25862966 Z" id="Path-Copy-2"></path>
                        <path d="M4,20.5 C4.9475469,20.5 5.82104295,20.9037836 6.45862966,21.5413703 C7.09621638,22.178957 7.5,23.0524531 7.5,24 C7.5,24.9475469 7.09621638,25.821043 6.45862966,26.4586297 C5.82104295,27.0962164 4.9475469,27.5 4,27.5 C3.0524531,27.5 2.17895705,27.0962164 1.54137034,26.4586297 C0.903783625,25.821043 0.5,24.9475469 0.5,24 C0.5,23.0524531 0.903783625,22.178957 1.54137034,21.5413703 C2.17895705,20.9037836 3.0524531,20.5 4,20.5 Z M4.74137034,23.2586297 C4.56556015,23.0828195 4.40123394,22.8058599 3.25862966,23.2586297 C3.0505983,23.466661 2.92857143,23.7447433 2.92857143,24 C2.92857143,24.2552567 3.0505983,24.533339 3.25862966,24.7413703 C3.46666102,24.9494017 3.74474335,25.0714286 4,25.0714286 C4.25525665,25.0714286 4.53333898,24.9494017 4.74137034,24.7413703 C4.9494017,24.533339 5.07142857,24.2552567 5.07142857,24 C5.07142857,23.7447433 4.9494017,23.466661 4.74137034,23.2586297 Z" id="Path-Copy-3"></path>
                    </g>
                </g>
            </g>
        </g>
    </g>
</svg>