<?xml version="1.0" encoding="UTF-8"?>
<svg width="34px" height="37px" viewBox="0 0 34 37" version="1.1" xmlns="http://www.w3.org/2000/svg" xmlns:xlink="http://www.w3.org/1999/xlink">
    <title>Group 6</title>
    <g id="Page-1" stroke="none" stroke-width="1" fill="none" fill-rule="evenodd">
        <g id="Website-Migration_Desktop" transform="translate(-552.000000, -1040.000000)" stroke="#9D1D27" stroke-width="2">
            <g id="Group-2" transform="translate(115.000000, 746.000000)">
                <g id="Group-51" transform="translate(378.702529, 295.000000)">
                    <g id="Group-6" transform="translate(59.297471, 0.000000)">
                        <polyline id="Path" transform="translate(28.636364, 6.363636) scale(-1, 1) rotate(90.000000) translate(-28.636364, -6.363636) " points="33.4090909 3.97727273 28.6363636 8.75 23.8636364 3.97727273"></polyline>
                        <polyline id="Path-Copy-2" transform="translate(28.636364, 28.636364) scale(-1, 1) rotate(90.000000) translate(-28.636364, -28.636364) " points="33.4090909 26.25 28.6363636 31.0227273 23.8636364 26.25"></polyline>
                        <polyline id="Path-Copy" transform="translate(20.681818, 17.500000) scale(-1, 1) rotate(90.000000) translate(-20.681818, -17.500000) " points="25.4545455 15.1136364 20.6818182 19.8863636 15.9090909 15.1136364"></polyline>
                        <path d="M29.4584346,27.8142927 C29.4584346,31.0757966 29.4584346,29.4848875 29.4584346,23.0415654 C29.4584346,13.3765823 21.6234177,5.54156539 11.9584346,5.54156539 C2.29345149,5.54156539 -5.54156539,13.3765823 -5.54156539,23.0415654 L-5.54156539,27.8142927" id="Oval" transform="translate(11.958435, 17.500000) rotate(-90.000000) translate(-11.958435, -17.500000) "></path>
                        <line x1="4.77272727" y1="17.5" x2="22.2727273" y2="17.5" id="Line-4-Copy"></line>
                        <line x1="12.7272727" y1="28.6363636" x2="30.2272727" y2="28.6363636" id="Line-4-Copy-2"></line>
                        <line x1="12.7272727" y1="6.36363636" x2="30.2272727" y2="6.36363636" id="Line-4"></line>
                    </g>
                </g>
            </g>
        </g>
    </g>
</svg>