<?xml version="1.0" encoding="UTF-8"?>
<svg width="76px" height="18px" viewBox="0 0 76 18" version="1.1" xmlns="http://www.w3.org/2000/svg" xmlns:xlink="http://www.w3.org/1999/xlink">
    <title>Group 14</title>
    <g id="Page-1" stroke="none" stroke-width="1" fill="none" fill-rule="evenodd">
        <g id="Website-Migration_Desktop" transform="translate(-745.000000, -1062.000000)" stroke="#9D1D27" stroke-width="2">
            <g id="Group-2" transform="translate(115.000000, 746.000000)">
                <g id="Group-52" transform="translate(605.702529, 317.000000)">
                    <g id="Group-14" transform="translate(25.297471, 0.000000)">
                        <path d="M7.85466512,0.247069852 L9.76264696,4.98257535 L14.6473268,5.42261806 C14.986113,5.45329994 15.1239373,5.89657232 14.8667678,6.12991607 L11.1616796,9.49604095 L12.2719742,14.5036463 C12.348971,14.8516433 11.9893957,15.125358 11.6983477,14.9404593 L7.50047963,12.2856695 L3.30261161,14.9404593 C3.01079357,15.1245506 2.65198827,14.8508359 2.72898511,14.5036463 L3.83927963,9.49604095 L0.13342145,6.12910865 C-0.123748014,5.89576491 0.013306371,5.45249252 0.35286246,5.42181065 L5.23754234,4.98176794 L7.14552417,0.247069852 C7.27795875,-0.0823566174 7.72223055,-0.0823566174 7.85466512,0.247069852 Z" id="Path"></path>
                        <path d="M27.3546651,0.247069852 L29.262647,4.98257535 L34.1473268,5.42261806 C34.486113,5.45329994 34.6239373,5.89657232 34.3667678,6.12991607 L30.6616796,9.49604095 L31.7719742,14.5036463 C31.848971,14.8516433 31.4893957,15.125358 31.1983477,14.9404593 L27.0004796,12.2856695 L22.8026116,14.9404593 C22.5107936,15.1245506 22.1519883,14.8508359 22.2289851,14.5036463 L23.3392796,9.49604095 L19.6334215,6.12910865 C19.376252,5.89576491 19.5133064,5.45249252 19.8528625,5.42181065 L24.7375423,4.98176794 L26.6455242,0.247069852 C26.7779587,-0.0823566174 27.2222305,-0.0823566174 27.3546651,0.247069852 Z" id="Path"></path>
                        <path d="M46.8546651,0.247069852 L48.762647,4.98257535 L53.6473268,5.42261806 C53.986113,5.45329994 54.1239373,5.89657232 53.8667678,6.12991607 L50.1616796,9.49604095 L51.2719742,14.5036463 C51.348971,14.8516433 50.9893957,15.125358 50.6983477,14.9404593 L46.5004796,12.2856695 L42.3026116,14.9404593 C42.0107936,15.1245506 41.6519883,14.8508359 41.7289851,14.5036463 L42.8392796,9.49604095 L39.1334215,6.12910865 C38.876252,5.89576491 39.0133064,5.45249252 39.3528625,5.42181065 L44.2375423,4.98176794 L46.1455242,0.247069852 C46.2779587,-0.0823566174 46.7222305,-0.0823566174 46.8546651,0.247069852 Z" id="Path"></path>
                        <path d="M66.3546651,0.247069852 L68.262647,4.98257535 L73.1473268,5.42261806 C73.486113,5.45329994 73.6239373,5.89657232 73.3667678,6.12991607 L69.6616796,9.49604095 L70.7719742,14.5036463 C70.848971,14.8516433 70.4893957,15.125358 70.1983477,14.9404593 L66.0004796,12.2856695 L61.8026116,14.9404593 C61.5107936,15.1245506 61.1519883,14.8508359 61.2289851,14.5036463 L62.3392796,9.49604095 L58.6334215,6.12910865 C58.376252,5.89576491 58.5133064,5.45249252 58.8528625,5.42181065 L63.7375423,4.98176794 L65.6455242,0.247069852 C65.7779587,-0.0823566174 66.2222305,-0.0823566174 66.3546651,0.247069852 Z" id="Path"></path>
                    </g>
                </g>
            </g>
        </g>
    </g>
</svg>