<?xml version="1.0" encoding="UTF-8"?>
<svg width="47px" height="31px" viewBox="0 0 47 31" version="1.1" xmlns="http://www.w3.org/2000/svg" xmlns:xlink="http://www.w3.org/1999/xlink">
    <title>Group 10</title>
    <g id="Page-1" stroke="none" stroke-width="1" fill="none" fill-rule="evenodd">
        <g id="Website-Migration_Desktop" transform="translate(-863.000000, -1376.000000)" fill="#FFFFFF">
            <g id="Group-48" transform="translate(113.000000, 1249.000000)">
                <g id="Group-39" transform="translate(122.000000, 122.000000)">
                    <g id="Group-10" transform="translate(628.000000, 5.000000)">
                        <g id="Group-11" transform="translate(6.000000, 17.000000) scale(-1, 1) translate(-6.000000, -17.000000) translate(0.000000, 10.000000)">
                            <path d="M0.751304348,0 L11.2486957,0 C11.6636296,-7.62221271e-17 12,0.336370414 12,0.751304348 L12,2.74869565 C12,3.16362959 11.6636296,3.5 11.2486957,3.5 L0.751304348,3.5 C0.336370414,3.5 1.30378293e-17,3.16362959 0,2.74869565 L0,0.751304348 C6.02075511e-17,0.336370414 0.336370414,1.8724443e-16 0.751304348,0 Z" id="Rectangle" transform="translate(6.000000, 1.750000) scale(1, -1) translate(-6.000000, -1.750000) "></path>
                            <path d="M0.751304348,5.25 L7.82012422,5.25 C8.23505816,5.25 8.57142857,5.58637041 8.57142857,6.00130435 L8.57142857,7.99869565 C8.57142857,8.41362959 8.23505816,8.75 7.82012422,8.75 L0.751304348,8.75 C0.336370414,8.75 5.08147514e-17,8.41362959 0,7.99869565 L0,6.00130435 C-5.08147514e-17,5.58637041 0.336370414,5.25 0.751304348,5.25 Z" id="Rectangle" transform="translate(4.285714, 7.000000) scale(1, -1) translate(-4.285714, -7.000000) "></path>
                            <path d="M0.751304348,10.5 L4.3915528,10.5 C4.80648673,10.5 5.14285714,10.8363704 5.14285714,11.2513043 L5.14285714,13.2486957 C5.14285714,13.6636296 4.80648673,14 4.3915528,14 L0.751304348,14 C0.336370414,14 2.35082434e-16,13.6636296 0,13.2486957 L0,11.2513043 C-5.08147514e-17,10.8363704 0.336370414,10.5 0.751304348,10.5 Z" id="Rectangle" transform="translate(2.571429, 12.250000) scale(1, -1) translate(-2.571429, -12.250000) "></path>
                        </g>
                        <path d="M15,-1 L30.3054168,2.94007709 L46,-0.968612655 L30.5073748,32 L15,-1 Z M40.8333333,2.47368421 L32.2222222,4.91288381 L32.2222222,23.3157895 L40.8333333,2.47368421 Z M20.1666667,2.47368421 L28.7777778,23.3157895 L28.7777778,4.99498981 L20.1666667,2.47368421 Z M33.0833333,5.72080693 L31.3611111,6.17392991 L33.0833333,5.72080693 Z" id="Path-2" fill-rule="nonzero" transform="translate(30.500000, 15.500000) rotate(-90.000000) translate(-30.500000, -15.500000) "></path>
                    </g>
                </g>
            </g>
        </g>
    </g>
</svg>