<?xml version="1.0" encoding="UTF-8"?>
<svg width="50px" height="50px" viewBox="0 0 50 50" version="1.1" xmlns="http://www.w3.org/2000/svg" xmlns:xlink="http://www.w3.org/1999/xlink">
    <title>Group 53</title>
    <g id="Page-1" stroke="none" stroke-width="1" fill="none" fill-rule="evenodd">
        <g id="Wealth-Homepage6" transform="translate(-1169.000000, -2333.000000)" fill="#B8B8B8" fill-rule="nonzero" stroke="#FFFFFF" stroke-width="2">
            <g id="Group-19" transform="translate(0.000000, 2162.000000)">
                <g id="Group-50" transform="translate(110.000000, 123.000000)">
                    <g id="Group-5-Copy" transform="translate(580.000000, 0.000000)">
                        <g id="Group-6-Copy" transform="translate(291.000000, 0.000000)">
                            <g id="Group-53" transform="translate(189.000000, 49.000000)">
                                <path d="M30,26 C26.6862915,26 24,28.6862915 24,32 C24,35.3137085 26.6862915,38 30,38 C33.3137085,38 36,35.3137085 36,32 C36,28.6862915 33.3137085,26 30,26 Z M30,30 C31.1045695,30 32,30.8954305 32,32 C32,33.1045695 31.1045695,34 30,34 C28.8954305,34 28,33.1045695 28,32 C28,30.8954305 28.8954305,30 30,30 Z" id="Oval"></path>
                                <path d="M18,10 C14.6862915,10 12,12.6862915 12,16 C12,19.3137085 14.6862915,22 18,22 C21.3137085,22 24,19.3137085 24,16 C24,12.6862915 21.3137085,10 18,10 Z M18,14 C19.1045695,14 20,14.8954305 20,16 C20,17.1045695 19.1045695,18 18,18 C16.8954305,18 16,17.1045695 16,16 C16,14.8954305 16.8954305,14 18,14 Z" id="Oval"></path>
                                <path d="M24,0 C10.745166,0 0,10.745166 0,24 C0,37.254834 10.745166,48 24,48 C37.254834,48 48,37.254834 48,24 C48,10.745166 37.254834,0 24,0 Z M24,4 C35.045695,4 44,12.954305 44,24 C44,35.045695 35.045695,44 24,44 C12.954305,44 4,35.045695 4,24 C4,12.954305 12.954305,4 24,4 Z" id="Oval"></path>
                                <polygon id="Line-2" points="31.6792453 11 35 13.3636364 16.3207547 37 13 34.6363636"></polygon>
                            </g>
                        </g>
                    </g>
                </g>
            </g>
        </g>
    </g>
</svg>