<?xml version="1.0" encoding="UTF-8"?>
<svg width="64px" height="56px" viewBox="0 0 64 56" version="1.1" xmlns="http://www.w3.org/2000/svg" xmlns:xlink="http://www.w3.org/1999/xlink">
    <title>Group</title>
    <g id="Page-1" stroke="none" stroke-width="1" fill="none" fill-rule="evenodd">
        <g id="Wealth-Homepage6" transform="translate(-591.000000, -2508.000000)">
            <g id="Group-19" transform="translate(0.000000, 2162.000000)">
                <g id="Group-50" transform="translate(110.000000, 123.000000)">
                    <g id="Group-6-Copy" transform="translate(291.000000, 174.000000)">
                        <g id="Group" transform="translate(191.000000, 50.000000)">
                            <g id="avatar" fill="#B8B8B8" stroke="#FFFFFF" stroke-width="3">
                                <path d="M21.3924953,0.584465195 L21.5815643,0.584742694 C23.7177441,0.626749871 25.6665752,1.13547617 27.3509889,2.09594894 C30.4031747,3.83003909 32.4265278,6.99805522 32.6467707,11.700611 C32.7719343,12.9613215 32.7912632,14.6755426 32.5479886,16.6014754 C32.1528421,19.7297327 31.1503088,22.4635276 29.3254671,24.5063526 C27.5332858,26.5098426 25.1427679,27.6260903 22.2641057,27.8183182 L21.5911839,27.846259 L21.2640947,27.846259 C18.105982,27.792534 15.4811888,26.6623668 13.5629517,24.5056291 C11.7387567,22.4635276 10.7362234,19.7297327 10.341077,16.6014754 C10.0978024,14.6755426 10.1171313,12.9613215 10.2370075,11.7730093 C10.4622791,6.96773946 12.5092869,3.79470691 15.5973956,2.05692025 C17.2630472,1.1151132 19.0505388,0.684208517 20.7568363,0.600079168 L21.3924953,0.584465195 Z M21.900408,5.96311231 L21.4648962,5.94445158 L21.3830339,5.94480103 C18.2599703,5.94480103 16.0164438,7.385307 15.6506535,11.452475 L15.5849903,12.3037546 C15.234594,14.3915498 15.7022348,18.8497618 17.5976182,20.9636011 C18.3987991,21.8674295 19.4438886,22.362643 20.8486317,22.4722477 L21.4742073,22.4953769 C23.1763757,22.4800795 24.3808174,21.9827313 25.295658,20.9588723 C27.0683905,18.9769976 27.5648502,15.1838414 27.347001,12.7671496 L27.2895906,12.2715171 L27.2829533,12.2077223 C27.2596919,12.1159141 27.2562379,12.078223 27.2600973,12.039322 L27.263137,12.0040492 L27.2295801,11.5016994 C26.8861544,7.68867326 24.9011002,6.15675247 21.900408,5.96311231 Z" id="Shape"></path>
                                <path d="M13.4475161,27.5112821 L13.4136328,27.5357517 C12.2634549,28.3924015 9.5137745,29.8584752 6.71136447,30.6724883 L5.86984296,30.9054791 C3.41268712,31.7431534 1.90858074,33.4900569 1.1751141,35.8252462 C0.833930724,36.9114957 0.702988403,37.8268569 0.640263527,39.1185888 L0.603812324,40.1041351 C0.570760456,41.7974245 0.701035256,43.6603693 1.18541225,44.8765259 C1.38575747,45.3939857 1.75724497,45.8419487 2.24465292,46.1444656 C3.17717815,46.7625704 5.07959965,47.7184461 7.60074729,48.595805 C11.6617072,50.0090184 16.3061864,50.8505414 21.4681862,50.8505414 C26.7230092,50.8505414 31.4364904,49.9776652 35.5426111,48.519478 C37.9545783,47.6629274 39.593548,46.8351797 40.6989046,46.1399764 C41.1827524,45.8267621 41.5538936,45.3855201 41.7558251,44.8641399 C42.1567846,43.8050861 42.3009254,42.2443618 42.3087949,40.7299461 L42.2947146,39.8504502 C42.2431649,38.1398617 42.1324096,37.1086713 41.738571,35.8458473 C41.0072755,33.5009843 39.5011021,31.7489157 37.0474532,30.9179914 L36.902393,30.873754 C33.8409819,30.0972682 30.7121856,28.4521845 29.4943554,27.5451474 C28.2400472,26.6663457 26.5566705,26.9613516 25.6983061,28.1705849 C24.8407372,29.3786977 25.1365639,31.043421 26.3528144,31.894831 C28.4187293,33.3430089 31.6986627,35.0672536 35.4567738,36.0264937 C36.3694922,36.3550928 36.7712081,37.3044466 36.886181,39.451631 L36.9077252,39.968661 C36.9061061,40.0754107 36.9097185,40.1937947 36.9274295,40.3345 L36.9215181,40.7395624 L36.8927435,41.4092754 L36.8283113,42.1626698 L36.4146569,42.3726356 C35.2965474,42.9125365 33.891242,43.4694742 32.2374705,43.9680541 C29.0023948,44.9433664 25.3952355,45.508997 21.4587248,45.508997 C17.5397699,45.508997 13.9360197,44.941713 10.6932388,43.9634317 L9.88524014,43.7089181 C8.57344703,43.277808 7.43746053,42.8149683 6.49902645,42.363507 L6.07194111,42.1485993 L6.06216708,42.0361826 C6.02546971,41.648345 6.00052387,41.2039648 5.99170483,40.7839386 L6.00092826,39.9162204 C6.0780014,37.4447784 6.46828695,36.3709739 7.57462431,35.9796046 C9.08777334,35.599374 10.7100857,35.0001512 12.2928269,34.2662679 C13.1051288,33.8896208 13.8730841,33.4934476 14.5908217,33.0899029 L15.2916025,32.6843513 C15.8442813,32.3552144 16.2577679,32.087876 16.5083973,31.9168182 C17.7714244,31.0340253 18.067251,29.369302 17.2096821,28.1611892 C16.3513178,26.9519558 14.667941,26.6569499 13.4475161,27.5112821 Z" id="Path"></path>
                            </g>
                            <g id="Group-3" transform="translate(32.697475, 14.716364)">
                                <polygon id="Path-2" fill="#FFFFFF" points="8.70138592 23.8236961 12.0414505 22.7020038 12.7651433 30.7149025 10.2174057 34.4057932 4.47220771 33.709305 2.6409868 31.7920799 2.6409868 28.0340559"></polygon>
                                <g id="avatar-copy" fill="#B8B8B8" stroke="#FFFFFF">
                                    <path d="M14.088204,0.515050607 C16.1532623,0.532938447 17.4741058,0.902996044 18.6153399,1.60932516 C20.4790879,2.7586535 21.7482276,4.76226073 22.0869557,7.60891143 L22.1218916,7.94111181 L22.1659048,8.60093147 C22.2757451,9.66310801 22.3315785,10.1955231 22.0994187,12.1904531 C21.835714,14.4564456 21.1754558,16.4491464 19.9369746,17.9539909 C18.8159558,19.3142273 17.3342998,20.1167058 15.5672452,20.3348137 L15.2524647,20.3672318 L14.7096309,20.3941908 C12.3731541,20.3512666 10.588981,19.5289882 9.29800414,17.9535203 C8.05989153,16.4491234 7.39965041,14.4564292 7.13594761,12.1904531 C6.99538177,10.9825826 6.98445985,9.88928108 7.03524043,9.05301249 C7.2137443,5.21293736 8.55859605,2.8642723 10.6603204,1.58053544 C11.768299,0.900541051 12.9531685,0.584548489 14.088204,0.515050607 Z M14.5757623,4.1900293 C13.420086,4.1900293 12.460473,4.50142417 11.7598906,5.2284512 C11.1489163,5.86248781 10.723897,6.8317943 10.590048,8.26875383 L10.590048,8.26875383 L10.5048241,9.5248819 L10.4935609,9.8469829 C10.451157,11.6877808 10.7818599,13.7816724 11.9423049,15.5469211 C12.4828523,16.2088104 13.1539594,16.6005685 14.638332,16.7113721 C15.8500217,16.6995525 16.6590498,16.3170833 17.29575,15.5436446 C18.4690234,14.119912 18.8673179,11.3178924 18.6689533,8.85053896 C18.6021114,7.2302658 18.2111997,6.13336065 17.5920532,5.41151496 C16.887672,4.59029643 15.8760003,4.22015273 14.5757623,4.1900293 Z" id="Shape"></path>
                                    <path d="M29.2496617,30.6401958 L29.2484597,30.2269727 L29.2420172,30.0576204 C29.2060566,28.7584528 29.1286087,27.9757799 28.8506926,27.0085394 C28.3671932,25.3258003 27.3998296,24.0150333 25.8474133,23.2956581 L25.3355633,23.0900252 C24.0844977,22.7420086 22.9128787,22.2222962 21.7938037,21.5836415 L21.241705,21.2557007 C20.8099041,20.9896575 20.4700872,20.758402 20.3818592,20.6870771 C19.3144701,19.8752643 17.8718346,20.1496758 17.1601666,21.2378843 C16.4797643,22.2782846 16.7121173,23.697503 17.6961032,24.4451573 C19.1432965,25.5462714 21.4218296,26.8463973 24.0479408,27.5739543 C24.4282812,27.7261536 24.6539492,28.3106539 24.7286861,29.709399 L24.746583,30.1538318 C24.7451742,30.2296632 24.7480309,30.3312784 24.7619438,30.4512502 L24.7552663,30.7881607 L24.7137783,31.5548469 L24.5034216,31.6697503 C23.7807238,32.0402349 22.8832008,32.4210988 21.8338244,32.7644882 C19.6723712,33.4717844 17.2608645,33.8822269 14.6273572,33.8822269 C12.0059407,33.8822269 9.59675849,33.4705924 7.43001117,32.7610952 L6.81706547,32.5502957 C6.02441983,32.2642606 5.33118786,31.9603672 4.74879931,31.6628246 L4.53265275,31.5464286 L4.53191143,31.5133739 C4.51244896,31.2534811 4.49942693,30.9665699 4.49512817,30.6964872 L4.50226013,30.1062822 C4.55072897,28.4249253 4.7819498,27.7344218 5.32515621,27.5258477 C6.34602159,27.2495903 7.47817797,26.7956941 8.58114359,26.2405889 C9.33398486,25.8616957 10.0315826,25.4568695 10.6650429,25.047402 L11.3585863,24.5788131 C11.4152979,24.5384003 11.4648025,24.5023969 11.5066759,24.4713279 C12.5361478,23.6905513 12.7685008,22.2713329 12.0880984,21.2309326 C11.4357361,20.2334081 10.1691581,19.9196993 9.16566878,20.4798616 L8.86640583,20.6801254 L8.46878021,20.9566269 C8.20409539,21.1308674 7.84149433,21.358208 7.45844445,21.5771775 C6.56533687,22.0877203 5.63668276,22.522216 4.70897235,22.8375776 L3.84820808,23.1039286 C2.03225255,23.7758718 0.930635634,25.1645998 0.401624002,26.9927134 C0.167527656,27.8016837 0.0741737334,28.4819373 0.0289304558,29.4162543 L0.0048421641,30.1254929 C-0.0234205438,31.5340256 0.0667500931,32.9336159 0.415735862,33.8846804 C0.576080772,34.3342169 0.87859431,34.7301657 1.28186924,35.0018437 C1.93637808,35.4729455 3.26611803,36.1981452 5.0213466,36.8611382 C7.83827752,37.9251623 11.0579315,38.5583528 14.6338066,38.5583528 C18.2741192,38.5583528 21.5417433,37.9015437 24.3901444,36.8036028 C26.0684376,36.1566901 27.2139996,35.5287157 27.9927665,34.9970812 C28.3928041,34.7160256 28.6939652,34.3273988 28.8561939,33.872752 C29.1405514,33.0575581 29.2396851,31.9227783 29.2496617,30.6401958 Z" id="Path" stroke-width="2"></path>
                                </g>
                            </g>
                        </g>
                    </g>
                </g>
            </g>
        </g>
    </g>
</svg>