<?xml version="1.0" encoding="UTF-8"?>
<svg width="21px" height="24px" viewBox="0 0 21 24" version="1.1" xmlns="http://www.w3.org/2000/svg" xmlns:xlink="http://www.w3.org/1999/xlink">
    <title>icons /close</title>
    <g id="Page-1" stroke="none" stroke-width="1" fill="none" fill-rule="evenodd">
        <g id="Features-" transform="translate(-981.000000, -173.000000)" stroke-width="2">
            <g id="icons-/-bag" transform="translate(979.000000, 173.000000)">
                <path d="M12.5,7 C16.6421356,7 20,10.3578644 20,14.5 C20,14.6892325 20.013771,18.8297718 20,19.0154851 C23.6842105,21.8268911 18.1442083,22.0097685 13.6313535,22.0211213 L11.9986879,22.0211697 C7.33355134,22.0085161 0.176470588,21.7804626 5,19.0154851 C5.44962981,18.7577452 5,15.0142464 5,14.5 C5,10.3578644 8.35786438,7 12.5,7 Z M15.5,2 C16.3284271,2 17,2.67157288 17,3.5 C17,4.32842712 16.3284271,5 15.5,5 C14.6715729,5 14,4.32842712 14,3.5 C14,2.67157288 14.6715729,2 15.5,2 Z M9.5,2 C10.3284271,2 11,2.67157288 11,3.5 C11,4.32842712 10.3284271,5 9.5,5 C8.67157288,5 8,4.32842712 8,3.5 C8,2.67157288 8.67157288,2 9.5,2 Z M12.5,1.5 C13.3284271,1.5 14,2.17157288 14,3 C14,3.82842712 13.3284271,4.5 12.5,4.5 C11.6715729,4.5 11,3.82842712 11,3 C11,2.17157288 11.6715729,1.5 12.5,1.5 Z" id="Oval-Copy-3" stroke="#787878"></path>
                <line x1="9" y1="6" x2="16" y2="6" id="Line-2" stroke="#FFCB05"></line>
            </g>
        </g>
    </g>
</svg>