<svg width="11" height="11" viewBox="0 0 11 11" fill="none" xmlns="http://www.w3.org/2000/svg">
<path fill-rule="evenodd" clip-rule="evenodd" d="M2.59945 0.228634L4.15496 2.38129C4.31879 2.64489 4.31879 2.99626 4.11407 3.21727L3.04979 4.35944C2.59945 4.88663 5.91544 8.44504 6.40669 7.962L7.47096 6.81801C7.67568 6.5983 8.0031 6.5983 8.24872 6.77412L10.2957 8.44347C10.5004 8.66318 10.5413 8.97067 10.3366 9.19037L9.19054 10.4206L9.10851 10.5512C7.67568 12.0889 4.07317 9.27711 2.92711 8.09105C1.82194 6.86085 -0.757199 2.99495 0.63473 1.50116L1.90373 0.140594C2.10845 -0.0791124 2.39472 -0.0349622 2.59945 0.228634Z" fill="white"/>
</svg>
