<svg width="420" height="356" viewBox="0 0 420 356" fill="none" xmlns="http://www.w3.org/2000/svg">
<path d="M186.274 301.028C260.977 301.028 321.536 240.411 321.536 165.636C321.536 90.8612 260.977 30.2441 186.274 30.2441C111.571 30.2441 51.0117 90.8612 51.0117 165.636C51.0117 240.411 111.571 301.028 186.274 301.028Z" fill="#F6F6F6"/>
<path d="M186.271 270.254C243.994 270.254 290.788 223.415 290.788 165.636C290.788 107.857 243.994 61.0186 186.271 61.0186C128.548 61.0186 81.7539 107.857 81.7539 165.636C81.7539 223.415 128.548 270.254 186.271 270.254Z" fill="#E7F1F9"/>
<path d="M186.276 240.273C227.457 240.273 260.84 206.857 260.84 165.636C260.84 124.416 227.457 91 186.276 91C145.095 91 111.711 124.416 111.711 165.636C111.711 206.857 145.095 240.273 186.276 240.273Z" fill="#DEEBF8"/>
<path d="M225.08 242.19C223.531 234.264 217.31 227.765 210.741 225.911C206.395 224.685 202.347 224.542 200.655 212.641C198.392 196.75 191.891 190.278 190.546 189.083C189.196 187.888 181.92 181.394 167.496 178.875C153.072 176.357 144.847 185.241 143.364 187.893C141.881 190.545 139.458 196.295 134.72 198.234C130.944 199.781 124.723 202.54 122.483 211.321C120.31 219.822 125.667 227.698 126.246 232.838C126.535 235.396 125.587 239.225 123.89 241.378C121.245 244.735 118.996 248.805 119.134 253.311C119.268 257.818 122.474 261.745 121.935 265.988C121.396 270.232 121.396 269.964 117.486 275.799C113.576 281.634 118.012 287.973 118.012 287.973L195.676 291.712C195.676 291.712 186.048 321.97 212.643 312.368C214.989 311.522 225.931 308.17 230.371 298.149C234.33 289.212 232.054 277.511 227.895 270.156C225.9 266.626 221.914 264.058 223.001 258.357C223.74 254.439 226.626 250.111 225.08 242.19Z" fill="#333333"/>
<path d="M132.701 269.037C132.701 269.037 127.317 271.48 115.81 291.806C104.303 312.132 101.074 317.33 101.074 317.33L103.991 342.876L109.268 344.636C109.268 344.636 125.919 326.075 128.898 319.705C131.877 313.336 132.701 269.037 132.701 269.037Z" fill="#3B88C1"/>
<path d="M132.458 269.037C122.02 277.76 112.361 298.817 101.633 316.411C101.633 316.411 104.291 350.163 109.413 344.431C112.191 341.32 120.229 332.084 123.685 327.461C124.928 325.799 128.601 320.784 128.601 320.784L138.519 311.82C138.519 311.82 137.53 264.798 132.458 269.037Z" fill="#367DA9"/>
<path d="M213.776 342.166H128.377C128.377 342.166 128.377 333.497 128.377 330.354C128.377 327.212 126.733 326.467 122.766 320.958C118.798 315.448 120.361 309.301 120.762 304.982C121.162 300.663 129.481 274.519 130.657 270.989C131.832 267.459 150.607 260.527 150.607 260.527H175.697C175.697 260.527 191.915 265.997 197.687 270.013C197.687 270.013 209.02 276.949 210.921 289.216C210.917 289.216 213.776 307.813 213.776 342.166Z" fill="#3F8ABF"/>
<path d="M191 276.748C191 276.748 186.757 278.959 176.287 297.783C165.817 316.607 161.761 324.011 161.761 324.011L160.18 342.189H170.921C172.448 342.189 173.905 341.583 174.978 340.495C183.087 332.266 211.507 292.367 208.702 287.451C201.987 275.705 191 276.748 191 276.748Z" fill="#367DA9"/>
<path d="M151.141 254.688C151.141 254.688 152.802 258.981 150.74 262.297C150.74 262.297 148.679 273.57 160.676 273.717C172.672 273.864 176.28 267.972 175.692 260.528C175.692 260.528 173.189 254.488 174.587 247.338L151.141 254.688Z" fill="white"/>
<path d="M161.112 273.944C160.965 273.944 160.822 273.944 160.675 273.94C156.97 273.895 154.209 272.794 152.459 270.673C149.645 267.254 150.482 262.462 150.522 262.257L150.553 262.181C152.53 259.003 150.949 254.808 150.936 254.768L150.851 254.545L151.079 254.474L174.885 247.017L174.814 247.382C173.447 254.376 175.883 260.385 175.905 260.443L175.923 260.509C176.239 264.526 175.331 267.713 173.215 269.973C170.748 272.607 166.678 273.944 161.112 273.944ZM150.954 262.377C150.878 262.845 150.255 267.294 152.806 270.392C154.467 272.407 157.117 273.454 160.68 273.494C166.34 273.557 170.446 272.277 172.882 269.67C174.903 267.508 175.772 264.45 175.473 260.581C175.277 260.086 173.109 254.363 174.302 247.663L151.43 254.831C151.747 255.771 152.771 259.408 150.954 262.377Z" fill="#858585"/>
<path d="M139.017 205.994C139.017 205.994 136.18 219.144 136.452 227.457C136.795 237.99 142.727 249.067 148.68 253.301C152.176 255.789 161.354 259.288 170.875 250.279C180.125 241.529 183.104 230.479 183.104 230.479L186.275 208.566L177.818 198.59L147.166 193.905L139.017 205.994Z" fill="white"/>
<path d="M157.828 256.324C152.786 256.324 149.193 253.944 148.547 253.485C142.771 249.379 136.581 238.521 136.225 227.466C135.958 219.22 138.768 206.084 138.794 205.95C138.799 205.923 138.812 205.896 138.826 205.874L146.979 193.785C147.028 193.714 147.113 193.674 147.198 193.692L177.849 198.377C177.903 198.385 177.952 198.412 177.987 198.452L186.444 208.428C186.484 208.477 186.502 208.54 186.493 208.602L183.322 230.515C183.287 230.653 180.214 241.752 171.022 250.445C166.235 254.973 161.622 256.324 157.828 256.324ZM139.226 206.084C139.053 206.908 136.416 219.492 136.675 227.448C136.946 235.837 141.662 248.038 148.81 253.119C149.905 253.899 159.823 260.429 170.724 250.115C179.822 241.507 182.864 230.528 182.89 230.421L186.043 208.633L177.707 198.8L147.278 194.151L139.226 206.084Z" fill="#878787"/>
<path d="M139.016 204.675C139.016 204.675 150.995 215.377 161.353 218.729C171.711 222.081 176.44 224.577 178.68 226.409C180.92 228.246 182.96 234.161 182.96 234.161L193.559 210.296L188.46 194.792L169.507 190.714L150.349 188.472L143.83 193.776L139.016 204.675Z" fill="#333333"/>
<path d="M10.4141 280.444L14.5155 276.873H93.2261L89.5834 281.21L10.4141 280.444Z" fill="white"/>
<path d="M89.5838 281.433L10.41 280.671C10.3165 280.671 10.2363 280.613 10.2052 280.523C10.174 280.439 10.1963 280.341 10.2675 280.278L14.3689 276.708C14.409 276.672 14.4624 276.654 14.5159 276.654H93.2265C93.3111 276.654 93.3913 276.703 93.4269 276.784C93.4625 276.864 93.4492 276.953 93.3957 277.02L89.753 281.357C89.7129 281.402 89.6506 281.433 89.5838 281.433ZM11.0023 280.229L89.4814 280.987L92.7456 277.096H14.6005L11.0023 280.229Z" fill="#878787"/>
<path d="M93.2287 276.873L104.322 338.101H143.724V342.875H97.388L89.5859 281.21L93.2287 276.873Z" fill="white"/>
<path d="M143.722 343.098H97.3858C97.2744 343.098 97.1809 343.013 97.1631 342.902L89.3655 281.237C89.3566 281.175 89.3744 281.112 89.4145 281.068L93.0572 276.73C93.1151 276.664 93.2042 276.637 93.2844 276.659C93.369 276.681 93.4313 276.748 93.4447 276.833L104.506 337.878H143.722C143.846 337.878 143.944 337.976 143.944 338.101V342.875C143.944 343 143.846 343.098 143.722 343.098ZM97.5817 342.652H143.499V338.324H104.319C104.213 338.324 104.119 338.248 104.101 338.141L93.0929 277.381L89.8198 281.282L97.5817 342.652Z" fill="#878787"/>
<path d="M100.32 342.875H23.0562L10.418 280.443H89.9079L100.32 342.875Z" fill="white"/>
<path d="M100.319 343.098H23.0561C22.9493 343.098 22.8602 343.022 22.8379 342.92L10.1997 280.488C10.1863 280.421 10.2042 280.354 10.2442 280.301C10.2888 280.247 10.3511 280.221 10.4179 280.221H89.9079C90.0147 280.221 90.1083 280.301 90.1261 280.408L100.538 342.84C100.547 342.902 100.529 342.969 100.489 343.022C100.449 343.071 100.386 343.098 100.319 343.098ZM23.2387 342.652H100.057L89.7208 280.666H10.6896L23.2387 342.652Z" fill="#878787"/>
<path d="M184.767 272.469C184.767 272.469 180.523 274.68 170.053 293.504C159.584 312.328 155.527 319.732 155.527 319.732L155.117 336.046L165.685 340.356C165.685 340.356 211.878 293.018 208.698 287.455C201.987 275.705 184.767 272.469 184.767 272.469Z" fill="#3F8ABF"/>
<path d="M417.809 355.071H2.4573C1.52658 355.071 0.769531 354.313 0.769531 353.381V344.564C0.769531 343.633 1.52658 342.875 2.4573 342.875H417.809C418.74 342.875 419.497 343.633 419.497 344.564V353.377C419.501 354.313 418.744 355.071 417.809 355.071Z" fill="white"/>
<path d="M417.809 355.294H2.45731C1.40189 355.294 0.546875 354.434 0.546875 353.382V344.565C0.546875 343.508 1.40635 342.652 2.45731 342.652H417.809C418.864 342.652 419.719 343.513 419.719 344.565V353.377C419.724 354.434 418.864 355.294 417.809 355.294ZM2.46176 343.098C1.65127 343.098 0.99665 343.758 0.99665 344.565V353.377C0.99665 354.188 1.65573 354.844 2.46176 354.844H417.813C418.624 354.844 419.279 354.184 419.279 353.377V344.565C419.279 343.753 418.619 343.098 417.813 343.098H2.46176Z" fill="#878787"/>
<path d="M191.307 233.171L181.986 221.185C181.679 220.793 181.114 220.722 180.722 221.029L155.441 240.727C155.049 241.034 154.978 241.601 155.285 241.993L164.605 253.979C164.913 254.371 165.478 254.443 165.87 254.135L191.151 234.437C191.543 234.13 191.614 233.564 191.307 233.171Z" fill="#F8B3C0"/>
<path d="M168.053 251.345C165.372 260.131 149.242 317.147 149.242 317.147C149.242 317.147 154.243 318.551 159.836 318.324C164.806 318.123 170.573 316.411 170.573 316.411L180.107 245.546C180.09 245.555 180.072 245.564 180.054 245.577C180.076 245.457 180.103 245.336 180.103 245.207C180.067 241.748 179.871 232.561 178.731 230.529C177.32 228.01 175.636 225.42 171.37 225.991C168.302 226.401 163.452 230.961 160.972 233.488C160.099 234.38 160.175 235.815 161.123 236.627L164.152 239.207C164.494 239.497 164.735 239.889 164.842 240.326C164.846 240.322 165.973 247.574 168.053 251.345Z" fill="white"/>
<path d="M158.612 318.573C153.557 318.573 149.229 317.374 149.184 317.361C149.126 317.343 149.077 317.307 149.051 317.254C149.024 317.2 149.015 317.142 149.033 317.084C149.193 316.518 165.087 260.349 167.816 251.367C165.768 247.587 164.672 240.652 164.628 240.357C164.534 239.983 164.321 239.635 164.013 239.372L160.985 236.791C160.482 236.363 160.179 235.739 160.148 235.084C160.117 234.424 160.357 233.8 160.82 233.328C163.417 230.68 168.235 226.183 171.348 225.768C175.627 225.197 177.377 227.64 178.932 230.422C180.085 232.477 180.294 241.445 180.33 245.207C180.33 245.292 180.321 245.372 180.308 245.448C180.33 245.488 180.339 245.528 180.334 245.577L170.8 316.442C170.787 316.532 170.729 316.603 170.644 316.625C170.586 316.643 164.793 318.346 159.85 318.546C159.431 318.564 159.021 318.573 158.612 318.573ZM149.523 316.986C150.538 317.245 154.987 318.292 159.832 318.101C164.294 317.918 169.473 316.496 170.377 316.237L179.871 245.662C179.845 245.626 179.831 245.586 179.836 245.537L179.849 245.452C179.862 245.372 179.88 245.292 179.88 245.207C179.853 242.301 179.671 232.659 178.535 230.636C177.057 227.997 175.4 225.67 171.397 226.209C168.418 226.606 163.684 231.037 161.128 233.64C160.754 234.023 160.558 234.527 160.584 235.062C160.607 235.601 160.852 236.096 161.266 236.448L164.294 239.029C164.672 239.354 164.94 239.782 165.06 240.264C165.073 240.357 166.209 247.538 168.248 251.229C168.28 251.283 168.284 251.345 168.266 251.403C165.701 259.819 150.618 313.108 149.523 316.986Z" fill="#878787"/>
<path d="M171.373 316.411C171.373 316.411 144.137 328.406 148.969 333.461C153.093 337.776 164.177 341.872 166.804 339.193C169.975 335.957 172.789 332.922 175.27 330.314C177.968 327.475 172.616 307.63 172.616 307.63C172.616 307.63 172.09 311.994 171.373 316.411Z" fill="#367DA9"/>
<path d="M148.776 315.97C148.776 315.97 142.225 333.167 146.58 338.262C150.299 342.612 155.571 342.224 159.063 342.144C163.921 342.037 166.749 341.204 168.935 334.968C170.209 331.326 171.376 316.411 171.376 316.411C171.376 316.411 157.9 320.338 148.776 315.97Z" fill="#3F8ABF"/>
<path d="M289.36 0.588867C232.871 0.588867 187.078 41.3705 187.078 91.6779C187.078 120.068 201.662 145.422 224.521 162.129C225.278 162.681 226.053 163.212 226.828 163.742C226.819 163.742 226.805 163.747 226.805 163.747C226.805 163.747 222.437 177.605 217.511 182.281C216.42 183.32 216.83 185.196 218.246 185.709C223.189 187.492 233.325 188.187 248.403 175.176C248.408 175.171 248.417 175.167 248.421 175.162C260.961 180.048 274.798 182.776 289.36 182.776C345.849 182.776 391.641 141.994 391.641 91.6868C391.641 41.3794 345.849 0.588867 289.36 0.588867Z" fill="white"/>
<path d="M224.073 186.921C222.082 186.921 220.1 186.613 218.163 185.918C217.42 185.651 216.876 185.018 216.707 184.224C216.542 183.444 216.783 182.655 217.348 182.12C221.913 177.792 226.059 165.298 226.54 163.822L226.384 163.715C225.72 163.26 225.039 162.788 224.38 162.311C200.524 144.878 186.844 119.136 186.844 91.682C186.844 67.2861 197.509 44.3523 216.876 27.1062C236.234 9.86459 261.974 0.370117 289.348 0.370117C316.722 0.370117 342.461 9.86459 361.82 27.1062C381.187 44.3523 391.852 67.2861 391.852 91.682C391.852 116.078 381.187 139.012 361.82 156.258C342.461 173.499 316.722 182.994 289.348 182.994C275.164 182.994 261.408 180.444 248.454 175.416C242.999 180.105 233.46 186.921 224.073 186.921ZM226.99 163.889C226.598 165.115 222.434 177.908 217.66 182.441C217.21 182.869 217.019 183.502 217.148 184.13C217.281 184.768 217.718 185.281 218.319 185.494C229.229 189.426 241.761 180.609 248.258 175.002C248.32 174.948 248.427 174.917 248.503 174.948C261.444 179.989 275.191 182.544 289.361 182.544C316.628 182.544 342.261 173.089 361.539 155.919C380.808 138.758 391.42 115.944 391.42 91.6775C391.42 67.4109 380.808 44.5974 361.539 27.4361C342.261 10.2658 316.628 0.81141 289.361 0.81141C233.086 0.81141 187.302 41.5752 187.302 91.6775C187.302 118.989 200.916 144.601 224.656 161.95C225.306 162.427 225.988 162.895 226.647 163.35L226.954 163.559C227.03 163.608 227.065 163.702 227.047 163.786C227.03 163.827 227.012 163.862 226.99 163.889Z" fill="#878787"/>
<path d="M324.117 93.0508C324.117 93.0508 325.355 132 327.711 135.664C327.711 135.664 334.137 150.691 343.987 150.044C353.838 149.402 357.944 147.909 357.712 139.119C357.481 130.329 339.703 106.749 339.703 106.749L336.061 96.8218C336.065 96.8218 331.928 94.972 324.117 93.0508Z" fill="#3F8ABF"/>
<path d="M287.76 73.4768C287.76 73.4768 287.421 82.3205 286.758 83.8316C286.758 83.8316 292.609 96.5801 300.438 96.8653C308.271 97.1506 308.93 91.9532 308.93 90.3485C308.93 88.7438 307.042 84.0233 307.514 82.793C307.986 81.5627 289.621 67.6152 289.621 67.6152L287.76 73.4768Z" fill="white"/>
<path d="M301.045 97.102C300.845 97.102 300.64 97.0975 300.431 97.0886C297.162 96.9682 293.72 94.6503 290.487 90.3756C288.06 87.1706 286.572 83.9568 286.559 83.9256C286.532 83.8676 286.532 83.8008 286.559 83.7428C287.196 82.2852 287.539 73.5574 287.539 73.4683C287.539 73.4505 287.543 73.4282 287.548 73.4103L289.414 67.5532C289.436 67.4819 289.489 67.4284 289.561 67.4061C289.632 67.3838 289.703 67.3972 289.761 67.4418C289.806 67.4774 294.406 70.9721 298.89 74.5738C308.082 81.9554 307.85 82.5571 307.73 82.8781C307.485 83.5155 308.001 85.4055 308.456 87.0726C308.816 88.3965 309.159 89.6446 309.159 90.3533C309.159 91.2181 308.972 93.4067 307.253 95.0649C305.846 96.4155 303.762 97.102 301.045 97.102ZM287 83.8275C287.53 84.9374 293.177 96.3843 300.444 96.6473C303.343 96.7543 305.521 96.1124 306.937 94.7439C308.531 93.2016 308.705 91.1601 308.705 90.3533C308.705 89.7025 308.371 88.4812 308.019 87.1885C307.498 85.2896 307.008 83.4932 307.307 82.7176C307.235 81.679 296.606 73.2142 289.739 67.99L287.98 73.5218C287.953 74.1637 287.632 82.098 287 83.8275Z" fill="#878787"/>
<path d="M324.92 57.9922C324.92 57.9922 330.037 58.4379 333.061 60.2878C336.084 62.1377 338.605 79.4684 338.605 79.4684C340.791 81.657 357.095 121.021 358.943 127.079C360.791 133.137 358.27 140.536 354.739 142.39C351.208 144.24 343.143 139.868 339.277 132.129C335.412 124.391 331.547 84.1845 331.547 84.1845C331.547 84.1845 323.629 77.944 323.246 75.4076C322.867 72.8624 324.92 57.9922 324.92 57.9922Z" fill="white"/>
<path d="M352.82 143.032C352.05 143.032 351.19 142.885 350.269 142.582C346.702 141.428 341.861 137.777 339.082 132.219C335.297 124.641 331.596 86.9482 331.338 84.2871C330.479 83.6051 323.402 77.9173 323.033 75.4301C322.654 72.8893 324.618 58.5673 324.703 57.9567C324.721 57.8408 324.823 57.7605 324.943 57.7648C325.152 57.7828 330.149 58.2375 333.182 60.0918C336.192 61.9328 338.623 77.9976 338.824 79.3616C341.224 82.1074 357.238 120.705 359.162 127.008C361.103 133.364 358.391 140.723 354.851 142.578C354.277 142.885 353.591 143.032 352.82 143.032ZM325.112 58.233C324.863 60.0606 323.126 73.0542 323.469 75.3677C323.834 77.7881 331.61 83.9394 331.685 84.0018C331.734 84.0375 331.761 84.0954 331.77 84.1534C331.81 84.5546 335.675 124.409 339.479 132.022C342.195 137.465 346.924 141.036 350.402 142.159C352.112 142.712 353.617 142.72 354.637 142.186C358.008 140.42 360.556 133.128 358.73 127.142C357.006 121.489 340.605 81.782 338.45 79.6246C338.414 79.5889 338.392 79.5488 338.387 79.4998C338.361 79.3259 335.849 62.2537 332.946 60.4796C330.345 58.8883 326.101 58.3445 325.112 58.233Z" fill="#878787"/>
<path d="M288.37 65.6992C288.37 65.6992 285.93 65.7794 285.93 66.2207C285.93 66.662 287.969 71.2666 287.969 71.2666L292.77 70.3439L291.612 66.5372L288.37 65.6992Z" fill="#333333"/>
<path d="M316.843 49.3051L305.995 57.7609C305.541 58.1131 305.461 58.7683 305.813 59.223L323.92 82.509C324.271 82.9636 324.926 83.0439 325.38 82.6917L336.228 74.2358C336.682 73.8837 336.763 73.2284 336.411 72.7738L318.304 49.4878C317.952 49.0331 317.298 48.9485 316.843 49.3051Z" fill="#F8B3C0"/>
<path d="M297.937 80.1903C302.76 82.5483 308.166 84.0639 313.377 80.6093C318.342 77.3197 319.553 68.476 320.043 61.3217C320.711 51.5553 316.285 44.9449 316.285 44.9449L296.771 44.459L294.348 47.0087L294.228 58.411C294.228 58.411 290.928 55.4556 288.274 55.6027C285.014 55.7855 285.241 59.8507 285.566 62.7124C286.052 67.0139 289.173 66.3319 289.173 66.3319C289.173 66.3319 290.861 76.7313 297.937 80.1903Z" fill="white"/>
<path d="M306.735 82.8695C303.502 82.8695 300.434 81.6615 297.842 80.3956C291.309 77.204 289.288 68.1018 288.994 66.5862C288.593 66.6219 287.738 66.6174 286.936 66.0469C286.059 65.4184 285.525 64.304 285.347 62.7439C285.079 60.3814 284.968 57.7782 286.157 56.3696C286.665 55.7679 287.373 55.4336 288.263 55.3845C290.49 55.2597 293.068 57.172 294.012 57.9387L294.128 46.9197L296.68 44.2363H296.778L316.408 44.7222L316.47 44.8158C316.515 44.8827 320.932 51.6046 320.264 61.3308C319.765 68.6322 318.541 77.4447 313.5 80.7923C311.237 82.2989 308.949 82.8695 306.735 82.8695ZM289.359 66.0647L289.394 66.2965C289.412 66.399 291.149 76.6245 298.038 79.9899C302.291 82.0716 307.866 83.9972 313.259 80.4223C318.14 77.1862 319.333 68.5074 319.828 61.3041C320.442 52.3623 316.697 46.0104 316.167 45.1635L296.871 44.6821L294.578 47.0936L294.453 58.9015L294.088 58.5761C294.057 58.5449 290.815 55.6743 288.295 55.8258C287.52 55.8704 286.936 56.1378 286.5 56.6505C285.422 57.9298 285.538 60.4215 285.792 62.6859C285.952 64.1123 286.424 65.1197 287.195 65.6724C288.099 66.3232 289.123 66.1137 289.132 66.1137L289.359 66.0647Z" fill="#878787"/>
<path d="M288.446 78.1665C288.41 78.3448 288.228 78.4429 288.063 78.3582C286.433 77.538 277.491 72.6392 276.128 67.6022C274.614 61.9903 276.28 58.8076 276.128 54.2565C275.977 49.7054 273.634 42.4308 275.487 39.2436C277.34 36.061 281.735 33.6316 289.158 33.177C296.582 32.7223 304.762 31.9645 307.791 29.0805C310.819 26.1965 317.182 26.0494 318.394 30.4445C319.547 34.6346 321.894 45.4262 320.122 52.6964C320.055 52.9727 319.658 52.9683 319.592 52.6964C319.204 51.1229 318.438 48.64 316.813 45.3192C316.737 45.1677 316.67 44.9403 316.541 45.0518C315.339 46.0948 309.327 50.5256 295.602 48.7604C295.424 48.7381 295.268 48.8718 295.29 49.0501C295.478 50.5924 296.199 57.0558 295.482 60.4078C295.286 61.3127 294.124 61.5579 293.563 60.8224C292.271 59.1285 290.748 56.0752 288.9 55.9593C285.934 55.7765 285.743 61.0096 285.743 61.0096C285.743 61.0096 285.943 67.317 289.363 65.9396C290.419 65.5161 290.102 69.354 290.343 70.5085C290.432 70.9365 289.203 73.2856 289.118 73.6288C288.798 74.9749 288.548 77.6539 288.446 78.1665Z" fill="#333333"/>
<path d="M280.437 91.4774C280.437 91.4774 270.653 93.2381 265.465 97.3479L270.867 146.028L267.816 151.68L269.847 181.1C269.847 181.1 301.87 187.933 336.627 172.47L334.61 135.602C334.61 135.602 330.442 96.9869 329.609 94.3971L316.303 91.1253L311.85 89.9975L303.838 100.825L298.971 97.9943L283.776 89.1016L280.437 91.4774Z" fill="#3F8ABF"/>
<path d="M294.712 99.1437C294.712 99.1437 298.911 101.35 303.85 100.833L303.609 97.2537C303.578 96.799 303.182 96.4603 302.723 96.4826C299.388 96.6252 298.15 95.8139 297.437 95.6267C289.911 93.6253 294.712 99.1437 294.712 99.1437Z" fill="#357CA8"/>
<path d="M286.04 83.7167C285.185 85.0985 282.192 87.822 280.437 91.4772C280.326 91.7134 280.326 91.9898 280.451 92.2216C281.364 93.9422 285.483 101.355 290.871 105.358C291.201 105.603 291.664 105.554 291.949 105.26L298.981 97.9985C299.404 97.5617 299.493 96.0996 298.914 95.9302C296.794 95.3017 292.506 92.6228 287.473 83.6587C287.22 83.2174 286.418 83.106 286.04 83.7167Z" fill="#367DA9"/>
<path d="M302.244 101.087C302.244 101.087 308.862 100.628 310.269 95.97C311.676 91.3119 309.227 92.7829 309.227 92.7829L307.143 93.7636C307.143 93.7636 305.166 96.6431 302.195 96.4826L302.244 101.087Z" fill="#367DA9"/>
<path d="M308.294 95.506C310.404 96.3797 314.541 98.2518 316.305 100.182C316.545 100.445 316.991 100.271 317.008 99.9145C317.111 97.7035 317.204 92.9697 316.314 91.1287C315.227 88.8866 311.166 84.8882 308.2 83.3638C307.893 83.2078 306.592 83.2256 306.65 83.5688C307.056 85.7842 308.129 91.8642 306.931 94.0083C306.681 94.4585 307.813 95.3099 308.294 95.506Z" fill="#367DA9"/>
<path d="M311.692 180.132C311.674 180.012 310.12 167.99 310.12 163.974C310.12 159.516 308.579 133.837 305.537 126.437C302.438 118.895 301.712 96.7191 301.703 96.4962L302.037 96.4873C302.046 96.7102 302.767 118.824 305.845 126.308C308.908 133.752 310.454 159.503 310.454 163.974C310.454 167.968 312.008 179.967 312.021 180.088L311.692 180.132Z" fill="#357AA8"/>
<path d="M305.423 109.9C305.988 109.9 306.447 109.441 306.447 108.875C306.447 108.309 305.988 107.85 305.423 107.85C304.857 107.85 304.398 108.309 304.398 108.875C304.398 109.441 304.857 109.9 305.423 109.9Z" fill="#367DA9"/>
<path d="M308.915 123.611C309.481 123.611 309.939 123.152 309.939 122.586C309.939 122.02 309.481 121.561 308.915 121.561C308.349 121.561 307.891 122.02 307.891 122.586C307.891 123.152 308.349 123.611 308.915 123.611Z" fill="#367DA9"/>
<path d="M312.227 139.97C312.793 139.97 313.252 139.511 313.252 138.945C313.252 138.379 312.793 137.92 312.227 137.92C311.662 137.92 311.203 138.379 311.203 138.945C311.203 139.511 311.662 139.97 312.227 139.97Z" fill="#367DA9"/>
<path d="M313.255 154.813C313.82 154.813 314.279 154.354 314.279 153.788C314.279 153.222 313.82 152.763 313.255 152.763C312.689 152.763 312.23 153.222 312.23 153.788C312.23 154.354 312.689 154.813 313.255 154.813Z" fill="#367DA9"/>
<path d="M272.547 121.004L267.84 149.946L268.739 164.986C268.739 164.986 282.718 150.071 278.942 123.612" fill="#367DA9"/>
<path d="M313.528 169.238C314.094 169.238 314.552 168.779 314.552 168.213C314.552 167.647 314.094 167.188 313.528 167.188C312.962 167.188 312.504 167.647 312.504 168.213C312.504 168.779 312.962 169.238 313.528 169.238Z" fill="#367DA9"/>
<path d="M252.746 123.157C252.746 123.157 262.592 95.382 267.103 96.8798C268.778 97.4325 274.843 108.157 276.945 114.389C277.751 116.778 280.784 127.391 277.306 135.919C273.868 144.352 268.653 161.295 265.019 162.343C258.041 164.357 252.746 123.157 252.746 123.157Z" fill="#3F8ABF"/>
<path d="M217.994 91.2143C217.246 91.5576 216.85 92.3822 217.082 93.1712C217.901 95.9348 220.217 102.282 224.701 104.342C230.495 106.998 234.841 109.174 234.841 109.174C234.841 109.174 246.914 150.018 249.568 153.642C252.222 157.266 260.193 164.518 265.02 162.343C269.848 160.167 271.055 154.85 268.4 149.291C265.746 143.733 243.427 109.276 243.69 106.187C243.983 102.741 238.559 99.1665 233.835 97.5886C229.11 96.0106 231.474 91.9855 228.411 90.9335C225.632 89.9796 222.123 89.3244 217.994 91.2143Z" fill="white"/>
<path d="M263.059 162.966C260.752 162.966 258.245 161.642 256.357 160.354C253.396 158.339 250.724 155.598 249.392 153.775C246.783 150.209 235.449 112.004 234.657 109.329C234.015 109.008 229.892 106.967 224.61 104.542C220.023 102.438 217.668 95.93 216.87 93.2332C216.612 92.3551 217.053 91.3967 217.904 91.0089C222.245 89.0253 225.839 89.8143 228.489 90.7237C229.967 91.2318 230.275 92.3685 230.6 93.5765C230.996 95.0341 231.406 96.5451 233.908 97.3787C238.981 99.0726 244.209 102.741 243.915 106.209C243.754 108.086 252.982 123.183 259.719 134.207C263.959 141.142 267.619 147.133 268.603 149.197C270.095 152.322 270.407 155.442 269.476 157.983C268.733 160.02 267.223 161.598 265.112 162.552C264.462 162.842 263.772 162.966 263.059 162.966ZM218.086 91.4146C217.436 91.7132 217.097 92.4398 217.293 93.104C218.073 95.7428 220.366 102.108 224.788 104.136C230.519 106.766 234.893 108.95 234.937 108.973C234.991 108.999 235.035 109.048 235.053 109.111C235.173 109.521 247.143 149.959 249.748 153.512C251.944 156.512 258.312 162.525 263.041 162.525C263.709 162.525 264.342 162.405 264.93 162.142C266.929 161.241 268.354 159.748 269.058 157.827C269.944 155.402 269.641 152.402 268.198 149.389C267.223 147.343 263.567 141.361 259.336 134.438C250.247 119.568 243.309 108.041 243.469 106.169C243.737 103.049 238.745 99.4604 233.766 97.8022C231.032 96.8928 230.573 95.1901 230.168 93.6924C229.86 92.5557 229.593 91.575 228.342 91.1471C225.768 90.2601 222.281 89.4934 218.086 91.4146Z" fill="#878787"/>
<path d="M349.496 255.272C349.496 255.272 361.617 238.935 368.756 236.791C368.756 236.791 370.377 254.456 372.648 264.2C374.919 273.944 377.297 285.592 373.356 292.893C368.809 301.318 363.007 304.79 363.007 304.79H346.191L347.167 255.267H349.496V255.272Z" fill="#82B279"/>
<path d="M329.182 205.749C329.182 205.749 327.886 235.623 323.99 256.083C320.093 276.543 329.182 300.894 334.695 304.795H348.647C348.647 304.795 350.593 246.018 348.647 238.547C346.701 231.077 338.267 214.842 329.182 205.749Z" fill="#82B279"/>
<path d="M341.857 304.978C339.23 303.23 337.418 296.081 336.474 283.733C335.761 274.417 335.601 262.061 336.05 250.681C336.821 231.215 329.041 206.07 328.961 205.816L329.388 205.683C329.469 205.937 337.271 231.153 336.496 250.699C336.046 262.066 336.202 274.404 336.914 283.702C337.836 295.737 339.631 302.963 342.102 304.608L341.857 304.978Z" fill="#A3CF97"/>
<path d="M353.039 304.951L352.723 304.634C352.812 304.545 361.665 295.421 360.609 270.802C360.075 258.325 368.469 236.925 368.554 236.711L368.968 236.876C368.883 237.09 360.525 258.406 361.055 270.784C362.119 295.626 353.128 304.862 353.039 304.951Z" fill="#A3CF97"/>
<path d="M312.031 304.795H384.057C384.057 304.795 392.211 328.041 376.522 342.167H321.146C321.146 342.167 307.328 335.396 312.031 304.795Z" fill="white"/>
<path d="M376.523 342.389H321.148C321.112 342.389 321.081 342.38 321.05 342.367C320.907 342.296 317.496 340.579 314.628 335.061C311.996 329.997 309.373 320.632 311.814 304.763C311.832 304.656 311.925 304.576 312.032 304.576H384.058C384.152 304.576 384.236 304.634 384.268 304.723C384.348 304.96 392.292 328.272 376.67 342.336C376.635 342.367 376.581 342.389 376.523 342.389ZM321.201 341.943H376.439C391.099 328.665 384.553 307.028 383.898 305.017H312.223C310.91 313.683 310.349 325.816 315.002 334.816C317.63 339.889 320.796 341.721 321.201 341.943Z" fill="#878787"/>
<path d="M278.339 324.645L276.242 324.966C276.019 325.001 275.814 324.845 275.778 324.622L271.454 296.148C271.419 295.925 271.575 295.72 271.797 295.684L273.895 295.363C274.117 295.328 274.322 295.484 274.358 295.707L278.682 324.181C278.713 324.404 278.562 324.609 278.339 324.645Z" fill="white"/>
<path d="M276.177 325.193C276.044 325.193 275.915 325.153 275.808 325.068C275.674 324.97 275.585 324.823 275.558 324.653L271.234 296.179C271.207 296.014 271.252 295.845 271.35 295.711C271.448 295.577 271.595 295.488 271.764 295.461L273.862 295.14C274.209 295.091 274.525 295.323 274.579 295.666L278.903 324.141C278.956 324.484 278.716 324.805 278.373 324.858L276.275 325.179C276.244 325.188 276.208 325.193 276.177 325.193ZM273.951 295.582C273.942 295.582 273.933 295.582 273.924 295.582L271.826 295.903C271.777 295.911 271.733 295.934 271.706 295.974C271.675 296.014 271.666 296.063 271.671 296.112L275.995 324.587C276.004 324.636 276.03 324.68 276.066 324.707C276.106 324.734 276.155 324.747 276.204 324.743L278.301 324.422C278.35 324.413 278.395 324.39 278.422 324.35C278.453 324.31 278.462 324.261 278.457 324.212L274.133 295.738C274.124 295.689 274.098 295.644 274.062 295.617C274.026 295.595 273.991 295.582 273.951 295.582Z" fill="#878787"/>
<path d="M290.704 326.816L288.597 326.589C288.374 326.566 288.214 326.366 288.236 326.138L291.309 297.499C291.331 297.276 291.532 297.116 291.759 297.138L293.865 297.365C294.088 297.387 294.248 297.588 294.226 297.815L291.153 326.455C291.127 326.678 290.926 326.838 290.704 326.816Z" fill="white"/>
<path d="M290.742 327.043C290.72 327.043 290.697 327.043 290.675 327.039L288.569 326.811C288.226 326.776 287.972 326.464 288.012 326.116L291.085 297.476C291.12 297.129 291.437 296.879 291.779 296.919L293.886 297.147C294.055 297.164 294.202 297.245 294.309 297.378C294.416 297.508 294.46 297.673 294.442 297.842L291.37 326.481C291.334 326.802 291.062 327.043 290.742 327.043ZM290.724 326.593C290.831 326.606 290.915 326.53 290.929 326.428L294.002 297.788C294.006 297.739 293.993 297.69 293.962 297.655C293.93 297.619 293.886 297.592 293.837 297.588L291.73 297.361C291.628 297.347 291.539 297.423 291.526 297.525L288.453 326.165C288.444 326.267 288.515 326.357 288.618 326.37L290.724 326.593Z" fill="#878787"/>
<path d="M286.896 298.51H283.961V328.125H286.896V298.51Z" fill="white"/>
<path d="M286.892 328.348H283.957C283.832 328.348 283.734 328.25 283.734 328.126V298.51C283.734 298.385 283.832 298.287 283.957 298.287H286.892C287.016 298.287 287.114 298.385 287.114 298.51V328.126C287.114 328.25 287.016 328.348 286.892 328.348ZM284.184 327.903H286.674V298.733H284.184V327.903Z" fill="#878787"/>
<path d="M287.196 327.529L285.237 328.336C285.027 328.421 284.791 328.323 284.707 328.113L273.761 301.475C273.676 301.266 273.774 301.029 273.983 300.945L275.943 300.138C276.152 300.053 276.388 300.151 276.473 300.361L287.419 326.999C287.503 327.208 287.405 327.444 287.196 327.529Z" fill="white"/>
<path d="M285.08 328.59C284.831 328.59 284.599 328.443 284.497 328.198L273.551 301.56C273.488 301.404 273.488 301.234 273.551 301.078C273.613 300.922 273.738 300.802 273.894 300.74L275.853 299.933C276.174 299.799 276.543 299.955 276.672 300.276L287.618 326.914C287.748 327.235 287.596 327.605 287.276 327.734L285.316 328.541C285.24 328.577 285.16 328.59 285.08 328.59ZM276.093 300.334C276.071 300.334 276.044 300.338 276.022 300.347L274.063 301.154C274.018 301.172 273.983 301.208 273.965 301.252C273.947 301.297 273.947 301.346 273.965 301.395L284.911 328.033C284.951 328.126 285.058 328.175 285.151 328.131L287.111 327.324C287.204 327.284 287.249 327.177 287.209 327.083L276.263 300.445C276.245 300.401 276.209 300.365 276.165 300.347C276.142 300.338 276.12 300.334 276.093 300.334Z" fill="#878787"/>
<path d="M272.957 311.977H294.221L291.197 342.167H276.876L272.957 311.977Z" fill="white"/>
<path d="M291.199 342.39H276.878C276.766 342.39 276.673 342.305 276.655 342.194L272.736 312.007C272.727 311.945 272.75 311.878 272.79 311.834C272.834 311.785 272.892 311.758 272.959 311.758H294.223C294.285 311.758 294.348 311.785 294.388 311.834C294.428 311.878 294.45 311.941 294.446 312.003L291.422 342.189C291.409 342.301 291.315 342.39 291.199 342.39ZM277.074 341.944H290.999L293.978 312.204H273.213L277.074 341.944Z" fill="#878787"/>
<path d="M283.961 297.556L285.279 293.357L286.896 297.556" fill="white"/>
<path d="M286.892 297.779C286.803 297.779 286.719 297.726 286.683 297.637L285.298 294.035L284.171 297.623C284.136 297.739 284.011 297.81 283.891 297.77C283.775 297.735 283.708 297.61 283.744 297.489L285.062 293.291C285.089 293.201 285.173 293.139 285.267 293.135C285.352 293.121 285.45 293.188 285.481 293.277L287.097 297.476C287.142 297.592 287.084 297.721 286.968 297.766C286.95 297.775 286.919 297.779 286.892 297.779Z" fill="#878787"/>
<path d="M70.0595 182.45H31.9622C30.5149 182.45 29.3438 183.627 29.3438 185.076V205.647C29.3438 207.096 30.5149 208.268 31.9622 208.268H56.6375L65.9537 216.55L66.733 208.268H70.064C71.5113 208.268 72.6869 207.091 72.6869 205.643V185.076C72.678 183.627 71.5068 182.45 70.0595 182.45Z" fill="#DEEBF8"/>
<path d="M41.7712 198.132C43.2543 198.132 44.4565 196.928 44.4565 195.444C44.4565 193.959 43.2543 192.756 41.7712 192.756C40.2882 192.756 39.0859 193.959 39.0859 195.444C39.0859 196.928 40.2882 198.132 41.7712 198.132Z" fill="white"/>
<path d="M51.0056 198.132C52.4886 198.132 53.6909 196.928 53.6909 195.444C53.6909 193.959 52.4886 192.756 51.0056 192.756C49.5226 192.756 48.3203 193.959 48.3203 195.444C48.3203 196.928 49.5226 198.132 51.0056 198.132Z" fill="white"/>
<path d="M60.2478 198.132C61.7308 198.132 62.9331 196.928 62.9331 195.444C62.9331 193.959 61.7308 192.756 60.2478 192.756C58.7647 192.756 57.5625 193.959 57.5625 195.444C57.5625 196.928 58.7647 198.132 60.2478 198.132Z" fill="white"/>
<path d="M106.668 152.854L107.432 125.946L147.317 127.081L146.553 153.989L106.668 152.854Z" fill="white"/>
<path d="M127.395 144.026C127.342 144.026 127.289 144.008 127.248 143.973L107.85 126.945C107.757 126.865 107.748 126.722 107.828 126.629C107.908 126.535 108.051 126.526 108.144 126.606L127.4 143.509L146.339 127.591C146.433 127.511 146.575 127.525 146.651 127.618C146.731 127.712 146.718 127.854 146.624 127.93L127.542 143.977C127.498 144.008 127.449 144.026 127.395 144.026Z" fill="#E1E9F6"/>
<path d="M110.605 68.1869C109.087 69.1363 107.421 69.8317 105.68 70.2507C96.5199 72.4928 87.2794 66.8764 85.0395 57.7073C82.7995 48.5382 88.4106 39.2889 97.5708 37.0468C106.731 34.8047 115.972 40.4211 118.211 49.5902C119.971 56.7846 116.898 64.291 110.605 68.1869Z" fill="#DEEBF8"/>
<path d="M106.83 50.593C106.83 53.4636 104.506 55.7904 101.638 55.7904C98.7699 55.7904 96.4453 53.4636 96.4453 50.593C96.4453 47.7223 98.7699 45.3955 101.638 45.3955C104.506 45.4 106.826 47.7223 106.83 50.593Z" fill="white"/>
<path d="M110.609 64.9188V67.0629C109.09 68.0123 107.425 68.7077 105.684 69.1267C101.235 70.2232 96.5322 69.4788 92.6445 67.054V64.9188C92.649 59.9576 96.6702 55.9414 101.622 55.9414C106.574 55.9459 110.587 59.9621 110.591 64.9188H110.609Z" fill="white"/>
<path d="M312.932 74.6369C312.923 74.6369 312.909 74.6369 312.901 74.6369C309.899 74.6102 308.242 73.1481 307.383 71.9268C306.457 70.6073 306.239 69.3058 306.23 69.2523C306.216 69.1765 306.247 69.1007 306.305 69.0472C306.363 68.9982 306.443 68.9804 306.515 69.0027C311.876 70.6118 315.849 69.0249 315.889 69.0116C315.955 68.9848 316.031 68.9937 316.089 69.0294C316.151 69.0651 316.187 69.1319 316.196 69.2032C316.205 69.328 316.41 72.27 314.998 73.7811C314.464 74.3472 313.769 74.6369 312.932 74.6369ZM306.746 69.5331C307.045 70.6742 308.323 74.1511 312.901 74.1912C313.609 74.1956 314.214 73.9549 314.668 73.4735C315.702 72.3725 315.768 70.2998 315.76 69.5331C314.753 69.8674 311.306 70.799 306.746 69.5331Z" fill="#868686"/>
<path d="M148.326 243.352C144.011 243.388 144.501 236.871 144.501 236.871C144.501 236.871 149.502 238.935 156.369 236.871C156.369 236.871 155.34 243.29 148.326 243.352Z" fill="white"/>
<path d="M148.288 243.576C147.259 243.576 146.409 243.219 145.754 242.519C144.013 240.656 144.267 237.01 144.276 236.854C144.28 236.782 144.32 236.72 144.382 236.68C144.445 236.644 144.521 236.635 144.583 236.662C144.632 236.68 149.602 238.668 156.304 236.653C156.375 236.631 156.455 236.649 156.513 236.698C156.571 236.747 156.598 236.827 156.584 236.903C156.575 236.97 155.444 243.509 148.324 243.571C148.31 243.576 148.301 243.576 148.288 243.576ZM144.708 237.183C144.685 238.079 144.743 240.785 146.079 242.216C146.654 242.831 147.42 243.139 148.324 243.13C154.202 243.081 155.747 238.521 156.072 237.192C150.319 238.815 145.865 237.571 144.708 237.183Z" fill="#878787"/>
<path d="M169.005 241.9C168.894 241.9 168.796 241.815 168.783 241.704C168.351 238.116 166.142 235.486 166.12 235.463L162.468 232.036C162.379 231.951 162.375 231.808 162.459 231.719C162.544 231.63 162.686 231.626 162.775 231.71L166.445 235.156C166.556 235.285 168.783 237.928 169.228 241.655C169.241 241.775 169.157 241.887 169.032 241.905C169.023 241.9 169.014 241.9 169.005 241.9Z" fill="#878787"/>
<path d="M171.99 236.996C171.91 236.996 171.834 236.952 171.794 236.876C171.776 236.845 170.195 233.796 169.59 232.298C169.095 231.072 165.947 229.084 165.916 229.066C165.813 228.999 165.782 228.861 165.845 228.759C165.911 228.656 166.049 228.625 166.152 228.687C166.285 228.772 169.452 230.773 169.999 232.129C170.596 233.604 172.168 236.635 172.186 236.666C172.244 236.778 172.199 236.911 172.092 236.965C172.061 236.987 172.026 236.996 171.99 236.996Z" fill="#878787"/>
<path d="M175.756 235.624C175.636 235.624 175.538 235.53 175.533 235.41C175.431 233.167 173.338 229.905 173.129 229.584L169.686 226.624C169.593 226.544 169.584 226.401 169.664 226.307C169.744 226.214 169.887 226.205 169.98 226.285L173.445 229.267C173.458 229.28 173.471 229.294 173.485 229.312C173.583 229.459 175.867 232.922 175.979 235.387C175.983 235.512 175.89 235.615 175.765 235.619C175.765 235.624 175.76 235.624 175.756 235.624Z" fill="#878787"/>
</svg>
