<svg width="88" height="22" viewBox="0 0 88 22" fill="none" xmlns="http://www.w3.org/2000/svg">
<path d="M62.0742 2.77236C62.0742 2.77236 62.2502 2.23202 62.5435 2.20358C62.8368 2.20358 63.0128 2.77236 63.0128 2.77236L64.3211 6.37271C63.7325 6.51795 63.1274 6.59057 62.52 6.58885C61.9268 6.58781 61.3358 6.51715 60.7601 6.3784L62.0742 2.77236ZM68.8266 11.4064L64.7904 1.45849C64.6009 1.02593 64.2843 0.656986 63.8801 0.397638C63.4758 0.13829 63.0018 0 62.5171 0C62.0324 0 61.5584 0.13829 61.1541 0.397638C60.7499 0.656986 60.4333 1.02593 60.2438 1.45849L56.2076 11.4064H58.9297L59.9974 8.49993C60.8311 8.69482 61.6859 8.7922 62.5435 8.79001C63.4054 8.79356 64.2645 8.69423 65.1013 8.49425L66.1749 11.4348L68.8266 11.4064Z" fill="#D62049"/>
<path d="M81.2476 2.77236C81.2476 2.77236 81.4178 2.23202 81.717 2.20358C82.0162 2.20358 82.1922 2.77236 82.1922 2.77236L83.4945 6.37271C82.908 6.51832 82.3048 6.59095 81.6994 6.58885C81.1061 6.58781 80.5152 6.51715 79.9394 6.3784L81.2476 2.77236ZM88 11.4064L83.9638 1.45849C83.7744 1.02593 83.4578 0.656986 83.0535 0.397638C82.6493 0.13829 82.1753 0 81.6906 0C81.2058 0 80.7318 0.13829 80.3276 0.397638C79.9234 0.656986 79.6068 1.02593 79.4173 1.45849L75.3752 11.4064H78.1032L79.165 8.49993C79.9987 8.69482 80.8535 8.7922 81.7111 8.79001C82.573 8.79299 83.432 8.69366 84.2689 8.49425L85.3425 11.4348L88 11.4064Z" fill="#D62049"/>
<path d="M73.3876 0.00170898H70.8181V11.4057H73.3876V0.00170898Z" fill="#D62049"/>
<path d="M0 0.00219727V3.31247L3.59032 3.35797V11.4062H8.60034V3.31247H12.1203V0.00219727H0ZM15.6343 0.00219727L10.8472 11.4062H15.7106L18.3505 4.62066L20.8203 11.4062H25.7775L20.8379 0.0306367L15.6343 0.00219727ZM24.6629 0.00219727V3.31247L28.1828 3.35797V11.4062H33.2456V3.31247H36.7656V0.00219727H24.6629ZM40.2268 0.00219727L35.3928 11.4062H40.2562L42.8961 4.62066L45.3894 11.4062H50.3525L45.4128 0.0306367L40.2268 0.00219727Z" fill="#0073BB"/>
<path d="M35.3921 17.4297H36.3366V21.0699H38.6187V21.8661H35.3921V17.4297Z" fill="#4D4D4F"/>
<path d="M40.1492 21.8661H39.1988V17.4297H40.1492V21.8661Z" fill="#4D4D4F"/>
<path d="M41.0281 17.4348H44.2899V18.214H41.9902V19.2321H44.02V20.0057H41.9902V21.8656H41.0281V17.4348Z" fill="#4D4D4F"/>
<path d="M48.3123 18.2146H45.8894V19.1588H48.1129V19.9266H45.8894V21.0642H48.4238V21.8605H44.9567V17.4297H48.3123V18.2146Z" fill="#4D4D4F"/>
<path d="M51.8055 21.8661H50.8551V17.4297H51.8055V21.8661Z" fill="#4D4D4F"/>
<path d="M52.6843 17.4297H53.6875L55.5061 20.5238V17.4297H56.392V21.8661H55.4357L53.576 18.7379V21.8661H52.6843V17.4297Z" fill="#4D4D4F"/>
<path d="M57.9874 20.4955C58.0012 20.6601 58.0622 20.8177 58.1634 20.9505C58.2694 21.0509 58.3969 21.1273 58.5368 21.1745C58.6767 21.2217 58.8256 21.2384 58.973 21.2235C59.1715 21.2334 59.3703 21.2084 59.5596 21.1496C59.6785 21.1234 59.7844 21.0581 59.8592 20.9647C59.9341 20.8714 59.9733 20.7559 59.9703 20.6377C59.9714 20.5688 59.9536 20.5007 59.9185 20.4407C59.8834 20.3807 59.8324 20.3309 59.7708 20.2964C59.5707 20.1946 59.3547 20.1255 59.1314 20.0917L58.6386 19.9836C58.2857 19.9294 57.9458 19.8138 57.6354 19.6424C57.479 19.5347 57.3541 19.3895 57.2728 19.221C57.1916 19.0526 57.1568 18.8665 57.172 18.6811C57.1693 18.4944 57.2083 18.3092 57.2862 18.1384C57.3642 17.9676 57.4793 17.8151 57.6237 17.6915C58.0023 17.4056 58.4767 17.2658 58.9554 17.299C59.4022 17.2879 59.8407 17.4176 60.2049 17.6687C60.3763 17.7949 60.5145 17.9586 60.6083 18.1464C60.7021 18.3342 60.7488 18.5408 60.7447 18.7494H59.806C59.8052 18.6306 59.7702 18.5144 59.7049 18.4139C59.6396 18.3134 59.5466 18.2326 59.4364 18.1806C59.2528 18.0985 59.0518 18.0595 58.8498 18.0668C58.6437 18.0611 58.4402 18.1124 58.2631 18.2147C58.1929 18.2573 58.1353 18.317 58.0962 18.3879C58.0571 18.4587 58.0378 18.5382 58.0402 18.6186C58.0384 18.6919 58.0585 18.7642 58.098 18.8268C58.1376 18.8893 58.1949 18.9395 58.2631 18.9712C58.4515 19.0531 58.6481 19.116 58.8498 19.1589L59.6535 19.3409C59.9373 19.3931 60.2069 19.5016 60.4455 19.6594C60.5836 19.7685 60.6929 19.908 60.7644 20.0663C60.8358 20.2245 60.8672 20.397 60.8561 20.5695C60.8638 20.7613 60.826 20.9523 60.7456 21.1278C60.6653 21.3033 60.5446 21.4587 60.3927 21.5819C60.0019 21.8713 59.5166 22.0146 59.0258 21.9857C58.5193 22.0157 58.0178 21.875 57.6061 21.5876C57.4361 21.4599 57.3 21.2947 57.2091 21.1058C57.1183 20.9168 57.0754 20.7095 57.084 20.5012L57.9874 20.4955Z" fill="#4D4D4F"/>
<path d="M61.5639 17.4297H62.5378V20.1541C62.5224 20.3813 62.5605 20.6088 62.6492 20.8196C62.7208 20.9495 62.8317 21.0551 62.967 21.1222C63.1022 21.1893 63.2554 21.2147 63.406 21.195C63.5558 21.2151 63.7084 21.1899 63.8428 21.1227C63.9773 21.0555 64.087 20.9496 64.1569 20.8196C64.2456 20.6088 64.2837 20.3813 64.2684 20.1541V17.4297H65.2422V20.1541C65.2625 20.5347 65.1838 20.9141 65.0134 21.2575C64.8152 21.4841 64.5684 21.6661 64.2904 21.7909C64.0123 21.9157 63.7095 21.9804 63.4031 21.9804C63.0966 21.9804 62.7939 21.9157 62.5158 21.7909C62.2377 21.6661 61.991 21.4841 61.7927 21.2575C61.6223 20.9141 61.5437 20.5347 61.5639 20.1541V17.4297Z" fill="#4D4D4F"/>
<path d="M69.0606 17.5432C69.2273 17.6097 69.3744 17.7152 69.4888 17.8503C69.5871 17.9615 69.6645 18.0886 69.7176 18.2257C69.7788 18.3739 69.8087 18.5325 69.8056 18.6921C69.8054 18.9088 69.7489 19.122 69.6414 19.312C69.5248 19.5198 69.3289 19.6749 69.0958 19.7443C69.2836 19.8082 69.4431 19.9327 69.5475 20.097C69.6481 20.3147 69.6924 20.5528 69.6766 20.7909V21.0866C69.6665 21.2249 69.6665 21.3636 69.6766 21.5018C69.687 21.5536 69.7087 21.6026 69.74 21.6458C69.7713 21.6889 69.8117 21.7251 69.8584 21.7521V21.8659H68.8025C68.8025 21.7692 68.7497 21.6895 68.7379 21.627C68.7123 21.5014 68.6986 21.3739 68.6969 21.2459V20.8307C68.7198 20.6294 68.6655 20.4269 68.5443 20.2619C68.3885 20.1475 68.1928 20.0964 67.9987 20.1197H67.066V21.8659H66.1332V17.4294H68.3214C68.5729 17.423 68.8235 17.4615 69.0606 17.5432ZM67.0836 18.1972V19.3917H68.1161C68.2831 19.4024 68.4504 19.3731 68.603 19.3064C68.6947 19.259 68.7695 19.1858 68.8177 19.0965C68.8658 19.0072 68.8851 18.9059 68.8729 18.8058C68.8914 18.697 68.8768 18.5852 68.831 18.4843C68.7851 18.3833 68.71 18.2974 68.6147 18.2371C68.4746 18.1769 68.3219 18.1496 68.1689 18.1574L67.0836 18.1972Z" fill="#4D4D4F"/>
<path d="M72.025 17.4297H73.1103L74.7295 21.8661H73.6911L73.386 20.9561H71.7023L71.3914 21.8661H70.3941L72.025 17.4297ZM71.9605 20.1882H73.1338L72.5471 18.4421L71.9605 20.1882Z" fill="#4D4D4F"/>
<path d="M75.2924 17.4297H76.2956L78.1142 20.5238V17.4297H79.0059V21.8661H78.0497L76.1841 18.7379V21.8661H75.2924V17.4297Z" fill="#4D4D4F"/>
<path d="M80.3365 17.8911C80.5489 17.7023 80.7984 17.557 81.0701 17.464C81.3418 17.3709 81.6301 17.332 81.9177 17.3495C82.2052 17.3671 82.4862 17.4407 82.7437 17.566C83.0013 17.6913 83.2301 17.8657 83.4164 18.0788C83.5993 18.3213 83.7072 18.6093 83.7274 18.9092H82.7711C82.7336 18.7322 82.6532 18.5665 82.5365 18.4257C82.4408 18.3254 82.3232 18.2472 82.1922 18.197C82.0612 18.1468 81.9202 18.1258 81.7797 18.1356C81.6207 18.1313 81.4633 18.1667 81.3226 18.2384C81.1818 18.3102 81.0624 18.4158 80.976 18.5451C80.7612 18.8866 80.6589 19.2834 80.6826 19.6827C80.6439 20.0856 80.7541 20.4888 80.9936 20.8202C81.0855 20.9391 81.2052 21.0352 81.3429 21.1004C81.4806 21.1657 81.6323 21.1983 81.7855 21.1956C81.9268 21.2033 82.068 21.1784 82.1975 21.123C82.3269 21.0677 82.4411 20.9834 82.5306 20.8771C82.647 20.7227 82.7289 20.5464 82.7711 20.3595H83.7215C83.6548 20.8109 83.4337 21.2275 83.0938 21.5426C82.7387 21.8513 82.2739 22.0144 81.7973 21.9976C81.5102 22.0115 81.2235 21.9637 80.9578 21.8575C80.692 21.7513 80.4538 21.5893 80.2602 21.3833C79.8639 20.9006 79.6654 20.2929 79.7029 19.677C79.6821 19.3535 79.7274 19.0293 79.8361 18.7228C79.9448 18.4163 80.1149 18.1337 80.3365 17.8911V17.8911Z" fill="#4D4D4F"/>
<path d="M87.8762 18.2146H85.4592V19.1588H87.6826V19.9266H85.4592V21.0642H87.9935V21.8605H84.5205V17.4297H87.8762V18.2146Z" fill="#4D4D4F"/>
<path d="M32.9483 19.6489H25.6444V21.9582H32.9483V19.6489Z" fill="#D62049"/>
<path d="M25.6416 19.6489H18.3378V21.9582H25.6416V19.6489Z" fill="#0073BB"/>
</svg>
