<svg width="20" height="22" viewBox="0 0 20 22" fill="none" xmlns="http://www.w3.org/2000/svg">
<g clip-path="url(#clip0_685_13626)">
<mask id="mask0_685_13626" style="mask-type:alpha" maskUnits="userSpaceOnUse" x="0" y="0" width="20" height="22">
<path d="M0.181641 0.363281H19.3769V21.3613H0.181641V0.363281Z" fill="white"/>
</mask>
<g mask="url(#mask0_685_13626)">
<path fill-rule="evenodd" clip-rule="evenodd" d="M12.8667 18.7904L11.8164 19.5318C10.9979 20.0419 10.2948 20.311 9.77999 20.311C9.26513 20.311 8.56206 20.0419 7.74356 19.5323L6.69325 18.7909C5.97341 18.2267 5.23345 17.5356 4.54043 16.7803L3.44559 15.4819L2.39528 13.956C1.64287 12.707 1.23195 11.5666 1.23195 10.716V5.85865C5.84122 4.7959 8.18418 2.86387 9.44665 1.82266L9.47778 1.79728L9.77999 1.55015L10.1133 1.82314C10.5899 2.21635 11.1823 2.70582 11.9769 3.23169C12.0343 3.26999 12.0987 3.29653 12.1665 3.30977C12.2342 3.323 12.3039 3.32267 12.3715 3.3088C12.509 3.28054 12.6273 3.20104 12.7049 3.08418C12.7814 2.9679 12.8087 2.82607 12.781 2.68966C12.7533 2.55326 12.6727 2.43338 12.5569 2.3562C11.8092 1.86098 11.2398 1.39066 10.7819 1.01326C10.5199 0.796783 10.2934 0.609998 10.0846 0.461049C9.9026 0.331257 9.65786 0.330778 9.47491 0.461049C9.26992 0.607603 9.04482 0.792951 8.77758 1.01278C7.45093 2.10667 5.23058 3.93716 0.597357 4.92377C0.479903 4.94911 0.37464 5.01384 0.299028 5.10723C0.223415 5.20061 0.181996 5.31703 0.181641 5.43719L0.181641 10.716C0.181641 11.6696 0.543716 12.8023 1.25733 14.082C1.88186 15.2032 2.74969 16.3818 3.76647 17.4901C5.48298 19.3613 7.96435 21.3613 9.77999 21.3613C11.5956 21.3613 14.076 19.3613 15.7925 17.4901C16.2399 17.0025 16.6618 16.4968 17.0431 15.9925C17.0689 15.9613 17.9664 14.683 18.3017 14.082C19.0153 12.8018 19.3769 11.6691 19.3769 10.716V5.43719C19.3765 5.31703 19.3351 5.20061 19.2595 5.10723C19.1839 5.01384 19.0786 4.94911 18.9612 4.92377C17.7931 4.67568 16.6858 4.35001 15.6695 3.95488C15.3989 3.85 15.0947 3.9841 14.9899 4.25374C14.9646 4.31803 14.9524 4.3867 14.9538 4.45576C14.9553 4.52482 14.9705 4.59289 14.9985 4.65605C15.055 4.7844 15.158 4.88306 15.2892 4.93383C16.2351 5.30117 17.2567 5.61248 18.3266 5.85913V10.716C18.3266 11.5661 17.9166 12.7055 17.1652 13.9541C17.1652 13.9541 15.816 15.8526 15.3031 16.434C14.7427 17.0691 12.8667 18.7904 12.8667 18.7904Z" fill="#4197D3"/>
<path fill-rule="evenodd" clip-rule="evenodd" d="M14.054 3.23063C13.9924 3.19959 13.9253 3.18107 13.8564 3.17614C13.7876 3.17121 13.7185 3.17996 13.6531 3.2019C13.52 3.24644 13.4122 3.34031 13.3495 3.46531C13.2867 3.59031 13.2767 3.73351 13.3208 3.86666C13.3423 3.93224 13.3767 3.99285 13.422 4.04492C13.4674 4.09699 13.5227 4.13946 13.5846 4.16982L13.6378 4.06302L13.5866 4.17078C13.6591 4.2078 13.7394 4.22701 13.8208 4.22682C13.9184 4.22703 14.0141 4.19985 14.0971 4.14838C14.1801 4.09691 14.2469 4.0232 14.2901 3.93562C14.352 3.81078 14.3619 3.6665 14.3176 3.53437C14.2734 3.40225 14.1786 3.29303 14.054 3.23063ZM11.6502 10.2868H10.3547V8.99127C10.3547 8.67421 10.0966 8.41607 9.7795 8.41607C9.46245 8.41607 9.2043 8.67421 9.2043 8.99127V10.2868H7.90878C7.59125 10.2868 7.3331 10.5449 7.3331 10.862C7.3331 11.179 7.59125 11.4372 7.90878 11.4372H9.2043V12.7327C9.2043 12.8853 9.2649 13.0316 9.37277 13.1394C9.48064 13.2473 9.62695 13.3079 9.7795 13.3079C9.93206 13.3079 10.0784 13.2473 10.1862 13.1394C10.2941 13.0316 10.3547 12.8853 10.3547 12.7327V11.4372H11.6502C11.9673 11.4372 12.2254 11.179 12.2254 10.862C12.2254 10.5449 11.9673 10.2868 11.6502 10.2868Z" fill="#EB9AA7"/>
<path fill-rule="evenodd" clip-rule="evenodd" d="M9.77984 6.34361C8.5819 6.34539 7.43351 6.82202 6.58639 7.66906C5.73926 8.51609 5.26251 9.66442 5.26061 10.8624C5.26238 12.0604 5.73908 13.2089 6.58622 14.056C7.43336 14.9031 8.58181 15.3798 9.77984 15.3816C10.9778 15.3797 12.1261 14.903 12.9732 14.0558C13.8202 13.2087 14.2968 12.0603 14.2986 10.8624C14.2967 9.66451 13.82 8.51625 12.973 7.66923C12.126 6.82221 10.9777 6.34551 9.77984 6.34361ZM9.77984 16.3395C6.75968 16.3395 4.30273 13.8825 4.30273 10.8624C4.30273 7.8422 6.75968 5.38574 9.77984 5.38574C11.2318 5.38764 12.6237 5.96525 13.6503 6.99191C14.677 8.01856 15.2546 9.41046 15.2565 10.8624C15.2565 13.8825 12.7995 16.3395 9.77984 16.3395Z" fill="#4197D3"/>
</g>
</g>
<defs>
<clipPath id="clip0_685_13626">
<rect width="19.6364" height="21.0732" fill="white" transform="translate(0.181641 0.363281)"/>
</clipPath>
</defs>
</svg>
