<svg width="21" height="22" viewBox="0 0 21 22" fill="none" xmlns="http://www.w3.org/2000/svg">
<path fill-rule="evenodd" clip-rule="evenodd" d="M14.5107 3.60115C14.6683 3.70627 14.6683 3.91651 14.5632 4.12675L12.7236 7.4908C13.1967 7.85872 14.1427 8.59446 15.0888 9.75078C15.8772 10.6969 16.5079 11.6956 16.9284 12.6942C17.5066 14.0082 17.7694 15.3223 17.7694 16.6888C17.7694 18.5284 16.2452 20 14.4581 20H6.3113C4.47169 20 3 18.5284 3 16.6888C3 15.3223 3.2628 13.9556 3.84096 12.6942C4.31401 11.643 4.94473 10.6443 5.68057 9.75078C6.62665 8.64702 7.57273 7.91108 8.04577 7.54316L6.10104 4.59999C5.99592 4.44231 5.99593 4.23207 6.15361 4.07439C6.83689 3.39111 7.52017 3.07555 8.30857 3.07555C8.93929 3.07555 9.62258 3.28579 10.4635 3.60115C10.5161 3.60115 10.5687 3.65376 10.6738 3.65376C10.9366 3.65376 11.1994 3.54864 11.5673 3.39096C11.9878 3.23328 12.4608 3.02319 12.9339 3.02319C13.5646 2.91807 14.0376 3.18067 14.5107 3.60115ZM12.0929 8.0164H8.88674C8.57138 8.22664 7.52017 9.01494 6.46897 10.2764C4.83961 12.2737 3.94609 14.4287 3.94609 16.6888C3.94609 18.0554 5.04984 19.159 6.41641 19.159H14.5632C15.9298 19.159 17.0336 18.0554 17.0336 16.6888C17.0336 14.4287 16.1926 12.2737 14.5107 10.2764C13.4595 9.01494 12.4083 8.2792 12.0929 8.0164ZM11.9352 4.07439C11.5673 4.23207 11.1468 4.38955 10.7263 4.38955C10.5687 4.38955 10.411 4.33714 10.2533 4.28458C9.4649 4.02178 8.9393 3.81159 8.4137 3.81159C7.94066 3.81159 7.52018 3.96927 7.0997 4.33719L8.99185 7.12278H11.9878L13.7223 3.96917C13.4069 3.75893 13.1967 3.75898 13.039 3.75898C12.6185 3.75898 12.3031 3.91671 11.9352 4.07439Z" fill="#4197D3" stroke="#4197D3" stroke-width="0.2" stroke-linecap="round" stroke-linejoin="round"/>
<path fill-rule="evenodd" clip-rule="evenodd" d="M12.5607 11.2751C12.7709 11.2751 12.9286 11.4329 12.9286 11.6432C12.9286 11.8534 12.7709 12.0109 12.5607 12.0109H11.6146C11.7723 12.2212 11.8774 12.4316 11.93 12.6944H12.5607C12.7709 12.6944 12.9286 12.8518 12.9286 13.0095V13.0621C12.9286 13.2724 12.7709 13.4302 12.5607 13.4302H11.93V13.4828C11.7197 14.2712 11.0365 14.8491 10.2481 14.8491H10.1429H10.0904L11.8774 16.4785C12.0351 16.5837 12.0351 16.7939 11.93 16.9515L11.8774 17.0041C11.7197 17.1618 11.5095 17.1618 11.3518 17.0041L8.88149 14.6916C8.82893 14.639 8.77637 14.5339 8.77637 14.4288C8.77637 14.2185 8.93405 14.0607 9.14429 14.0607H10.1429C10.616 14.0607 10.9839 13.798 11.1941 13.3775V13.3249H9.19686C8.98662 13.3249 8.82893 13.1672 8.82893 13.0095V12.9572C8.82893 12.7469 8.98662 12.5891 9.19686 12.5891H11.1941C11.0365 12.2212 10.6685 11.9585 10.2481 11.906H10.1955H9.19686C8.98662 11.906 8.82893 11.7482 8.82893 11.5379C8.82893 11.3277 8.98662 11.1699 9.19686 11.1699H12.5607V11.2751Z" fill="#EB9AA7"/>
</svg>
