<svg width="24" height="22" viewBox="0 0 24 22" fill="none" xmlns="http://www.w3.org/2000/svg">
<mask id="mask0_299_11467" style="mask-type:alpha" maskUnits="userSpaceOnUse" x="0" y="0" width="24" height="22">
<path d="M0 0H24V22H0V0Z" fill="white"/>
</mask>
<g mask="url(#mask0_299_11467)">
<path fill-rule="evenodd" clip-rule="evenodd" d="M13.0646 0C7.30281 0 2.57075 4.50632 2.16098 10.1983L1.11922 8.45111C0.948563 8.16404 0.578328 8.07094 0.292457 8.24308C0.00755015 8.41523 -0.0854906 8.78764 0.0861286 9.07471L1.90452 12.1248C1.99033 12.2689 2.13158 12.3707 2.295 12.4056C2.33694 12.4148 2.37888 12.4197 2.42131 12.4197C2.54327 12.4197 2.66379 12.3823 2.76551 12.3106L5.51479 10.3854C5.78813 10.1944 5.85513 9.81664 5.6652 9.54217C5.47478 9.26723 5.09924 9.19982 4.82638 9.39088L3.36376 10.415C3.66699 5.29092 7.89528 1.21229 13.0646 1.21229C18.4296 1.21229 22.7948 5.6032 22.7948 10.9998C22.7948 16.3969 18.4296 20.7879 13.0646 20.7879C12.732 20.7879 12.462 21.0589 12.462 21.394C12.462 21.7286 12.732 22.0001 13.0646 22.0001C19.0944 22.0001 24 17.0656 24 10.9998C24 4.9345 19.0944 0 13.0646 0Z" fill="#4196D2"/>
</g>
<path fill-rule="evenodd" clip-rule="evenodd" d="M15.9251 9.18107H14.9216C14.8338 8.80939 14.6678 8.45696 14.4338 8.14246L14.4147 8.11387H15.9251C16.2367 8.11387 16.5 7.85714 16.5 7.55256C16.5 7.2474 16.2367 7 15.9251 7H10.5845C10.2627 7 10 7.2474 10 7.55256C10 7.85714 10.2627 8.11387 10.5845 8.11387H12.222C12.8942 8.15238 13.4691 8.57133 13.7031 9.15248L13.7228 9.18107H10.5845C10.2627 9.18107 10 9.43839 10 9.74297L10.0096 9.80948C10.0388 10.0855 10.2824 10.3049 10.5845 10.3049L13.7228 10.2955L13.7031 10.3428C13.4595 10.9625 12.8261 11.4006 12.105 11.4006H10.5845C10.2531 11.4006 10 11.6574 10.0096 11.9719C10.0096 12.1148 10.0681 12.2578 10.1749 12.3622L14.0052 15.8486C14.2392 16.058 14.5998 16.0487 14.8141 15.8299L14.8631 15.7721C15.038 15.5434 15.0087 15.2289 14.8046 15.0387L12.0369 12.5151H12.2411C13.5276 12.4579 14.5998 11.5716 14.8923 10.3906L14.9216 10.2955L15.9251 10.3049C16.2367 10.3049 16.5 10.0475 16.5 9.74297L16.4904 9.67645C16.4612 9.39988 16.2176 9.18107 15.9251 9.18107ZM15.9251 9.18107H14.9216C14.8338 8.80939 14.6678 8.45696 14.4338 8.14246L14.4147 8.11387H15.9251C16.2367 8.11387 16.5 7.85714 16.5 7.55256C16.5 7.2474 16.2367 7 15.9251 7H10.5845C10.2627 7 10 7.2474 10 7.55256C10 7.85714 10.2627 8.11387 10.5845 8.11387H12.222C12.8942 8.15238 13.4691 8.57133 13.7031 9.15248L13.7228 9.18107H10.5845C10.2627 9.18107 10 9.43839 10 9.74297L10.0096 9.80948C10.0388 10.0855 10.2824 10.3049 10.5845 10.3049L13.7228 10.2955L13.7031 10.3428C13.4595 10.9625 12.8261 11.4006 12.105 11.4006H10.5845C10.2531 11.4006 10 11.6574 10.0096 11.9719C10.0096 12.1148 10.0681 12.2578 10.1749 12.3622L14.0052 15.8486C14.2392 16.058 14.5998 16.0487 14.8141 15.8299L14.8631 15.7721C15.038 15.5434 15.0087 15.2289 14.8046 15.0387L12.0369 12.5151H12.2411C13.5276 12.4579 14.5998 11.5716 14.8923 10.3906L14.9216 10.2955L15.9251 10.3049C16.2367 10.3049 16.5 10.0475 16.5 9.74297L16.4904 9.67645C16.4612 9.39988 16.2176 9.18107 15.9251 9.18107ZM16.5 7.55256C16.5 7.2474 16.2367 7 15.9251 7H10.5845C10.2627 7 10 7.2474 10 7.55256C10 7.85714 10.2627 8.11387 10.5845 8.11387H12.222C12.8942 8.15238 13.4691 8.57133 13.7031 9.15248L13.7228 9.18107H10.5845C10.2627 9.18107 10 9.43839 10 9.74297L10.0096 9.80948C10.0388 10.0855 10.2824 10.3049 10.5845 10.3049L13.7228 10.2955L13.7031 10.3428C13.4595 10.9625 12.8261 11.4006 12.105 11.4006H10.5845C10.2531 11.4006 10 11.6574 10.0096 11.9719C10.0096 12.1148 10.0681 12.2578 10.1749 12.3622L14.0052 15.8486C14.2392 16.058 14.5998 16.0487 14.8141 15.8299L14.8631 15.7721C15.038 15.5434 15.0087 15.2289 14.8046 15.0387L12.0369 12.5151H12.2411C13.5276 12.4579 14.5998 11.5716 14.8923 10.3906L14.9216 10.2955L15.9251 10.3049C16.2367 10.3049 16.5 10.0475 16.5 9.74297L16.4904 9.67645C16.4612 9.39988 16.2176 9.18107 15.9251 9.18107H14.9216C14.8338 8.80939 14.6678 8.45696 14.4338 8.14246L14.4147 8.11387H15.9251C16.2367 8.11387 16.5 7.85714 16.5 7.55256Z" fill="#EA9AA6"/>
</svg>
