<svg width="20" height="22" viewBox="0 0 20 22" fill="none" xmlns="http://www.w3.org/2000/svg">
<mask id="mask0_285_11498" style="mask-type:alpha" maskUnits="userSpaceOnUse" x="0" y="0" width="20" height="22">
<path d="M0.5 0.5H19.6953V21.498H0.5V0.5Z" fill="white"/>
</mask>
<g mask="url(#mask0_285_11498)">
<path fill-rule="evenodd" clip-rule="evenodd" d="M13.1851 18.9269L12.1348 19.6683C11.3163 20.1783 10.6132 20.4475 10.0983 20.4475C9.58349 20.4475 8.88042 20.1783 8.06191 19.6687L7.01161 18.9274C6.29177 18.3632 5.55181 17.6721 4.85879 16.9168L3.76395 15.6184L2.71364 14.0925C1.96123 12.8434 1.55031 11.7031 1.55031 10.8525V5.99513C6.15958 4.93237 8.50254 3.00034 9.76501 1.95914L9.79614 1.93375L10.0983 1.68662L10.4317 1.95962C10.9082 2.35282 11.5007 2.84229 12.2952 3.36817C12.3526 3.40647 12.4171 3.43301 12.4848 3.44624C12.5526 3.45948 12.6223 3.45915 12.6899 3.44528C12.8273 3.41702 12.9456 3.33751 13.0232 3.22065C13.0997 3.10437 13.1271 2.96254 13.0994 2.82614C13.0716 2.68974 12.9911 2.56985 12.8752 2.49267C12.1276 1.99745 11.5581 1.52714 11.1003 1.14974C10.8383 0.933257 10.6118 0.746472 10.403 0.597523C10.221 0.467732 9.97622 0.467253 9.79327 0.597523C9.58828 0.744078 9.36318 0.929426 9.09594 1.14926C7.76929 2.24315 5.54894 4.07364 0.915716 5.06025C0.798262 5.08559 0.693 5.15032 0.617387 5.2437C0.541775 5.33708 0.500356 5.45351 0.5 5.57367V10.8525C0.5 11.8061 0.862075 12.9387 1.57569 14.2185C2.20022 15.3396 3.06805 16.5183 4.08483 17.6266C5.80134 19.4978 8.2827 21.4978 10.0983 21.4978C11.914 21.4978 14.3944 19.4978 16.1109 17.6266C16.5582 17.139 16.9802 16.6332 17.3614 16.1289C17.3873 16.0978 18.2848 14.8195 18.6201 14.2185C19.3337 12.9383 19.6953 11.8056 19.6953 10.8525V5.57367C19.6949 5.45351 19.6535 5.33708 19.5779 5.2437C19.5023 5.15032 19.397 5.08559 19.2795 5.06025C18.1114 4.81216 17.0041 4.48648 15.9878 4.09136C15.7172 3.98647 15.4131 4.12057 15.3082 4.39022C15.283 4.45451 15.2707 4.52317 15.2722 4.59223C15.2737 4.66129 15.2889 4.72937 15.3168 4.79252C15.3733 4.92088 15.4763 5.01954 15.6075 5.0703C16.5534 5.43765 17.575 5.74896 18.645 5.99561V10.8525C18.645 11.7026 18.235 12.842 17.4835 14.0906C17.4835 14.0906 16.1344 15.9891 15.6214 16.5705C15.0611 17.2056 13.1851 18.9269 13.1851 18.9269Z" fill="#4196D2"/>
<path fill-rule="evenodd" clip-rule="evenodd" d="M14.3732 3.36735C14.3116 3.33631 14.2445 3.31779 14.1757 3.31286C14.1069 3.30793 14.0378 3.31668 13.9724 3.33861C13.8392 3.38316 13.7315 3.47703 13.6687 3.60203C13.606 3.72703 13.5959 3.87023 13.64 4.00338C13.6615 4.06896 13.696 4.12957 13.7413 4.18164C13.7866 4.23371 13.8419 4.27618 13.9039 4.30654L13.9571 4.19974L13.9058 4.3075C13.9783 4.34452 14.0586 4.36373 14.14 4.36354C14.2376 4.36375 14.3334 4.33657 14.4163 4.2851C14.4993 4.23363 14.5662 4.15992 14.6094 4.07234C14.6712 3.94749 14.6811 3.80322 14.6369 3.67109C14.5926 3.53896 14.4978 3.42975 14.3732 3.36735ZM11.9695 10.4235H10.6739V9.12799C10.6739 8.81093 10.4158 8.55279 10.0987 8.55279C9.78169 8.55279 9.52355 8.81093 9.52355 9.12799V10.4235H8.22802C7.91049 10.4235 7.65234 10.6817 7.65234 10.9987C7.65234 11.3158 7.91049 11.5739 8.22802 11.5739H9.52355V12.8694C9.52355 13.022 9.58415 13.1683 9.69202 13.2762C9.79989 13.384 9.94619 13.4446 10.0987 13.4446C10.2513 13.4446 10.3976 13.384 10.5055 13.2762C10.6133 13.1683 10.6739 13.022 10.6739 12.8694V11.5739H11.9695C12.2865 11.5739 12.5447 11.3158 12.5447 10.9987C12.5447 10.6817 12.2865 10.4235 11.9695 10.4235Z" fill="#EA9AA6"/>
<path fill-rule="evenodd" clip-rule="evenodd" d="M10.0982 6.48033C8.90026 6.48211 7.75187 6.95874 6.90475 7.80577C6.05762 8.65281 5.58087 9.80114 5.57897 10.9991C5.58074 12.1971 6.05744 13.3456 6.90458 14.1927C7.75172 15.0399 8.90017 15.5166 10.0982 15.5183C11.2962 15.5164 12.4445 15.0397 13.2915 14.1925C14.1386 13.3454 14.6152 12.197 14.617 10.9991C14.6151 9.80122 14.1384 8.65296 13.2914 7.80594C12.4443 6.95892 11.2961 6.48223 10.0982 6.48033ZM10.0982 16.4762C7.07804 16.4762 4.62109 14.0193 4.62109 10.9991C4.62109 7.97892 7.07804 5.52246 10.0982 5.52246C11.5501 5.52436 12.942 6.10197 13.9687 7.12863C14.9953 8.15528 15.5729 9.54718 15.5748 10.9991C15.5748 14.0193 13.1179 16.4762 10.0982 16.4762Z" fill="#4196D2"/>
</g>
</svg>
