<svg width="16" height="16" viewBox="0 0 16 16" fill="none" xmlns="http://www.w3.org/2000/svg">
<path d="M12 10.7197C11.4933 10.7197 11.04 10.9197 10.6933 11.233L5.94 8.46634C5.97333 8.31301 6 8.15967 6 7.99967C6 7.83967 5.97333 7.68634 5.94 7.53301L10.64 4.79301C11 5.12634 11.4733 5.33301 12 5.33301C12.5304 5.33301 13.0391 5.12229 13.4142 4.74722C13.7893 4.37215 14 3.86344 14 3.33301C14 2.80257 13.7893 2.29387 13.4142 1.91879C13.0391 1.54372 12.5304 1.33301 12 1.33301C11.4696 1.33301 10.9609 1.54372 10.5858 1.91879C10.2107 2.29387 10 2.80257 10 3.33301C10 3.49301 10.0267 3.64634 10.06 3.79967L5.36 6.53967C5 6.20634 4.52667 5.99967 4 5.99967C3.46957 5.99967 2.96086 6.21039 2.58579 6.58546C2.21071 6.96053 2 7.46924 2 7.99967C2 8.53011 2.21071 9.03882 2.58579 9.41389C2.96086 9.78896 3.46957 9.99967 4 9.99967C4.52667 9.99967 5 9.79301 5.36 9.45967L10.1067 12.2263C10.0733 12.3663 10.0533 12.513 10.0533 12.6663C10.0533 13.7397 10.9267 14.6063 12 14.6063C13.0733 14.6063 13.9467 13.7397 13.9467 12.6663C13.9467 12.1501 13.7416 11.6549 13.3765 11.2898C13.0114 10.9248 12.5163 10.7197 12 10.7197Z" fill="#0073BB"/>
</svg>
