<svg width="48" height="48" viewBox="0 0 48 48" fill="none" xmlns="http://www.w3.org/2000/svg">
    <path d="M30.0633 35.969C32.2385 35.969 34.0018 34.2057 34.0018 32.0305C34.0018 29.8553 32.2385 28.092 30.0633 28.092C27.8881 28.092 26.1248 29.8553 26.1248 32.0305C26.1248 34.2057 27.8881 35.969 30.0633 35.969Z" stroke="#9C1D26" stroke-width="3" />
    <path d="M18.243 20.2151C20.4181 20.2151 22.1815 18.4517 22.1815 16.2766C22.1815 14.1014 20.4181 12.3381 18.243 12.3381C16.0678 12.3381 14.3045 14.1014 14.3045 16.2766C14.3045 18.4517 16.0678 20.2151 18.243 20.2151Z" stroke="#9C1D26" stroke-width="3" />
    <path d="M24.1536 45.8155C36.1169 45.8155 45.8151 36.1173 45.8151 24.154C45.8151 12.1906 36.1169 2.49243 24.1536 2.49243C12.1902 2.49243 2.49203 12.1906 2.49203 24.154C2.49203 36.1173 12.1902 45.8155 24.1536 45.8155Z" stroke="#787878" stroke-width="3" />
    <path d="M33.0161 12.3389L15.293 35.9696" stroke="#9C1D26" stroke-width="3" />
</svg>
