<svg width="49" height="48" viewBox="0 0 49 48" fill="none" xmlns="http://www.w3.org/2000/svg">
    <path d="M33.6842 11.6484V14.8507L40.5741 14.8495L40.5762 19.134C40.5762 21.7634 38.4061 23.8879 35.7203 23.8879H32.8828V27.0902H35.7203C40.2071 27.0902 43.8471 23.5265 43.8471 19.1339V13.2495C43.8471 12.3483 43.1322 11.6484 42.2117 11.6484H33.6842Z" fill="#787878" />
    <path d="M15.2722 14.8515V11.6492H6.74477C5.82429 11.6492 5.10938 12.3492 5.10938 13.2504V19.1347C5.10938 23.5274 8.74939 27.091 13.2361 27.091H16.0736V23.8887H13.2361L12.9032 23.8778C10.3732 23.7108 8.38024 21.6546 8.38024 19.1347L8.37888 14.8503L15.2722 14.8515Z" fill="#787878" />
    <path d="M25.6807 31.1962H23.2765L22.9515 31.5144L22.9505 37.9043L19.1093 37.9044C18.2486 37.9044 17.5823 38.5569 17.5823 39.3995C17.5823 40.2421 18.2487 40.8945 19.1093 40.8945H29.848C30.7087 40.8945 31.3751 40.2421 31.3751 39.3995L31.3615 39.193C31.2627 38.4527 30.637 37.9044 29.848 37.9044L26.0055 37.9043L26.0057 31.5144L25.6807 31.1962Z" fill="#787878" />
    <path d="M32.7987 6.41016H16.1543L15.9406 6.41989C14.6906 6.54617 13.7935 7.52164 13.7935 8.72142V21.9613L13.7996 22.3142C13.9981 27.9477 18.7171 32.4202 24.4765 32.4202C30.3755 32.4202 35.1595 27.7365 35.1595 21.9613V8.72142L35.1496 8.51223C35.0206 7.28849 34.0242 6.41016 32.7987 6.41016ZM16.9334 9.18785L17.0496 9.18329L31.941 9.18417C32.294 9.18417 32.5615 9.40406 32.597 9.71475L32.602 9.82082L32.601 22.4493C32.601 26.5441 28.9626 29.8651 24.4765 29.8651C20.0968 29.8651 16.5076 26.6937 16.357 22.71L16.352 22.4378V9.78656C16.352 9.4644 16.593 9.22019 16.9334 9.18785Z" fill="#787878" />
    <path d="M26.4221 16.4482L25.4076 14.3536C25.2372 14.002 24.8857 13.7793 24.5009 13.7793C24.116 13.7793 23.7645 14.002 23.5942 14.3536L22.5796 16.4482L20.311 16.784C19.9302 16.8404 19.6138 17.1122 19.4948 17.4852C19.3759 17.8581 19.4751 18.2676 19.7507 18.5413L21.3922 20.1716L21.0047 22.4738C20.9397 22.8603 21.0956 23.2509 21.4069 23.4814C21.7184 23.7119 22.1311 23.7424 22.4718 23.5599L24.5009 22.473L26.53 23.5599C26.6779 23.6392 26.8394 23.6783 27.0004 23.6783C27.21 23.6783 27.4187 23.6119 27.5948 23.4815C27.9062 23.251 28.0621 22.8604 27.997 22.4739L27.6095 20.1717L29.2511 18.5413C29.5266 18.2676 29.6259 17.8582 29.5069 17.4853C29.388 17.1122 29.0716 16.8405 28.6907 16.7841L26.4221 16.4482Z" fill="#9C1D26" />
</svg>
