<svg width="49" height="48" viewBox="0 0 49 48" fill="none" xmlns="http://www.w3.org/2000/svg">
    <path fill-rule="evenodd" clip-rule="evenodd" d="M22.3782 7.5L22.5112 7.5002C24.0142 7.53005 25.3854 7.89161 26.5706 8.57422C28.7181 9.80666 30.1417 12.0582 30.2967 15.4003C30.3847 16.2963 30.3983 17.5147 30.2272 18.8834C29.9491 21.1067 29.2438 23.0496 27.9598 24.5015C26.6988 25.9254 25.0169 26.7187 22.9915 26.8553L22.518 26.8752H22.2879C20.0658 26.837 18.2191 26.0338 16.8694 24.501C15.5859 23.0496 14.8805 21.1067 14.6025 18.8834C14.4313 17.5147 14.4449 16.2963 14.5293 15.4518C14.6878 12.0366 16.128 9.78155 18.3008 8.54649C19.4728 7.87714 20.7304 7.57089 21.931 7.5111L22.3782 7.5ZM22.7356 11.3227L22.4292 11.3094L22.3716 11.3096C20.1742 11.3096 18.5957 12.3334 18.3383 15.224L18.2921 15.829C18.0456 17.3128 18.3746 20.4813 19.7082 21.9836C20.2719 22.626 21.0072 22.9779 21.9956 23.0558L22.4357 23.0723C23.6333 23.0614 24.4808 22.7079 25.1245 21.9803C26.3717 20.5717 26.721 17.8759 26.5678 16.1583L26.5274 15.8061L26.5227 15.7608C26.5063 15.6955 26.5039 15.6687 26.5066 15.6411L26.5088 15.616L26.4852 15.259C26.2435 12.549 24.8469 11.4603 22.7356 11.3227Z" fill="#787878" />
    <path fill-rule="evenodd" clip-rule="evenodd" d="M16.7902 26.6367L16.7663 26.6541C15.9571 27.2629 14.0224 28.3048 12.0506 28.8834L11.4585 29.049C9.72971 29.6443 8.67143 30.8858 8.15537 32.5455C7.91531 33.3175 7.82318 33.968 7.77905 34.8861L7.7534 35.5865C7.73015 36.79 7.82181 38.114 8.16261 38.9783C8.30357 39.3461 8.56495 39.6644 8.90789 39.8794C9.56401 40.3187 10.9025 40.9981 12.6764 41.6216C15.5337 42.626 18.8015 43.2241 22.4335 43.2241C26.1307 43.2241 29.4471 42.6037 32.3361 41.5674C34.0332 40.9586 35.1864 40.3703 35.9641 39.8763C36.3045 39.6536 36.5656 39.3401 36.7077 38.9695C36.9898 38.2168 37.0912 37.1076 37.0968 36.0313L37.0869 35.4062C37.0506 34.1905 36.9727 33.4576 36.6956 32.5601C36.181 30.8936 35.1213 29.6484 33.3949 29.0578L33.2929 29.0264C31.1389 28.4746 28.9375 27.3054 28.0806 26.6607C27.1981 26.0362 26.0137 26.2458 25.4097 27.1052C24.8064 27.9639 25.0145 29.147 25.8702 29.7521C27.3238 30.7813 29.6316 32.0068 32.2757 32.6885C32.9179 32.922 33.2006 33.5968 33.2815 35.1228L33.2966 35.4902C33.2955 35.5661 33.298 35.6502 33.3105 35.7502L33.3063 36.0381L33.2861 36.5141L33.2407 37.0495L32.9497 37.1988C32.163 37.5825 31.1742 37.9783 30.0107 38.3326C27.7345 39.0258 25.1965 39.4278 22.4268 39.4278C19.6694 39.4278 17.1339 39.0246 14.8523 38.3294L14.2838 38.1485C13.3608 37.8421 12.5615 37.5131 11.9012 37.1923L11.6007 37.0395L11.5939 36.9596C11.568 36.684 11.5505 36.3682 11.5443 36.0697L11.5508 35.453C11.605 33.6965 11.8796 32.9333 12.658 32.6552C13.7227 32.3849 14.8641 31.9591 15.9777 31.4375C16.5493 31.1698 17.0896 30.8882 17.5946 30.6014L18.0876 30.3132C18.4765 30.0793 18.7674 29.8893 18.9438 29.7677C19.8324 29.1403 20.0406 27.9572 19.4372 27.0986C18.8333 26.2392 17.6488 26.0295 16.7902 26.6367Z" fill="#787878" />
    <path fill-rule="evenodd" clip-rule="evenodd" d="M36.8489 -0.000671387L36.9493 -0.000450969C38.0612 0.022902 39.0801 0.306966 39.9603 0.843014C41.4478 1.7456 42.4589 3.33721 42.6713 5.6311L42.703 6.09925C42.7661 6.77797 42.7758 7.69634 42.6536 8.72899C42.4537 10.4192 41.945 11.9009 41.007 13.0223C40.0828 14.1258 38.8439 14.7515 37.3582 14.8712L36.947 14.8913L36.7794 14.8912C35.1272 14.8613 33.7438 14.2251 32.7417 13.0217C31.8042 11.9009 31.2954 10.4192 31.0955 8.72899C30.9908 7.84386 30.983 7.0427 31.0205 6.43511L31.0428 6.14796C31.1575 3.53598 32.2144 1.78628 33.8187 0.822095C34.6772 0.303654 35.5952 0.0625543 36.4746 0.0103799L36.8489 -0.000671387ZM36.8767 3.34176L36.8442 3.34204C35.4664 3.34204 34.5026 3.98792 34.3182 5.92135L34.2571 6.80834C34.196 8.1033 34.3934 9.61835 35.0171 10.5826L35.2172 10.8546C35.5569 11.2639 35.9884 11.4866 36.5836 11.5407L36.886 11.5536C37.6339 11.5465 38.1398 11.3234 38.5348 10.8512C39.3409 9.8887 39.5843 7.9875 39.4963 6.76464L39.4643 6.44916L39.4475 6.32843C39.3572 4.12989 38.4008 3.37769 36.8767 3.34176Z" fill="#9C1D26" />
</svg>
