<svg width="64" height="64" viewBox="0 0 64 64" fill="none" xmlns="http://www.w3.org/2000/svg">
<path d="M31.1425 41.8125H13.9999C13.7726 41.8125 13.5546 41.903 13.3938 42.0642C13.2331 42.2254 13.1428 42.444 13.1428 42.6719C13.1428 42.8998 13.2331 43.1184 13.3938 43.2795C13.5546 43.4407 13.7726 43.5312 13.9999 43.5312H31.1425C31.3699 43.5312 31.5879 43.4407 31.7486 43.2795C31.9094 43.1184 31.9997 42.8998 31.9997 42.6719C31.9997 42.444 31.9094 42.2254 31.7486 42.0642C31.5879 41.903 31.3699 41.8125 31.1425 41.8125ZM47.8875 44.7894L43.6447 49.0433L41.8258 47.2197C41.6642 47.0631 41.4477 46.9765 41.2229 46.9785C40.9982 46.9804 40.7832 47.0708 40.6243 47.2302C40.4654 47.3895 40.3752 47.605 40.3733 47.8304C40.3713 48.0557 40.4577 48.2728 40.6138 48.4348L43.0378 50.8652C43.1986 51.0263 43.4165 51.1168 43.6438 51.1168C43.8711 51.1168 44.0891 51.0263 44.2498 50.8652L49.0977 46.0045C49.2539 45.8424 49.3403 45.6254 49.3383 45.4C49.3364 45.1747 49.2462 44.9592 49.0873 44.7998C48.9284 44.6405 48.7134 44.5501 48.4887 44.5482C48.2639 44.5462 48.0474 44.6328 47.8858 44.7894H47.8875ZM47.428 36.9691V18.6094C47.4231 18.5722 47.4156 18.5355 47.4058 18.4994C47.4014 18.4628 47.3946 18.4267 47.3852 18.3911C47.3518 18.2449 47.2802 18.1102 47.1778 18.0009L33.4637 4.25094C33.3544 4.14735 33.2194 4.07495 33.0728 4.04125C33.0407 4.03291 33.008 4.0266 32.9751 4.02234C32.9363 4.01205 32.8967 4.00458 32.8568 4H12.2857C11.149 4 10.059 4.45271 9.25524 5.25853C8.45152 6.06435 8 7.15727 8 8.29688V54.7031C8 55.8427 8.45152 56.9357 9.25524 57.7415C10.059 58.5473 11.149 59 12.2857 59H46.4286C46.628 58.9971 46.82 58.9234 46.9703 58.792C49.4719 58.3096 51.7328 56.9815 53.3757 55.0295C55.0185 53.0775 55.944 50.6196 55.9975 48.066C56.0511 45.5125 55.2295 43.0178 53.67 40.9982C52.1104 38.9787 49.9072 37.5565 47.428 36.9691ZM33.7139 6.93391L44.5018 17.75H36.2853C35.6034 17.75 34.9493 17.4784 34.4671 16.9949C33.9849 16.5114 33.7139 15.8556 33.7139 15.1719V6.93391ZM12.2857 57.2812C11.6037 57.2812 10.9496 57.0096 10.4674 56.5261C9.98518 56.0426 9.71426 55.3869 9.71426 54.7031V8.29688C9.71426 7.61311 9.98518 6.95736 10.4674 6.47387C10.9496 5.99037 11.6037 5.71875 12.2857 5.71875H31.9997V15.1719C31.9997 16.3115 32.4512 17.4044 33.2549 18.2102C34.0586 19.016 35.1487 19.4688 36.2853 19.4688H45.7138V36.6992C45.4292 36.6769 45.1464 36.6562 44.8567 36.6562C42.4389 36.6545 40.0863 37.4419 38.1545 38.8995C36.2227 40.3571 34.8167 42.4056 34.149 44.7354C33.4813 47.0652 33.5883 49.5496 34.4537 51.8131C35.3191 54.0765 36.896 55.996 38.9459 57.2812H12.2857ZM44.8567 57.2812C42.9919 57.2812 41.169 56.7268 39.6185 55.6881C38.068 54.6494 36.8595 53.173 36.1459 51.4457C35.4323 49.7183 35.2456 47.8176 35.6094 45.9839C35.9732 44.1502 36.8711 42.4658 38.1897 41.1438C39.5083 39.8217 41.1883 38.9214 43.0173 38.5566C44.8462 38.1919 46.7419 38.3791 48.4648 39.0946C50.1876 39.8101 51.6601 41.0217 52.6961 42.5763C53.7321 44.1308 54.2851 45.9585 54.2851 47.8281C54.2819 50.3343 53.2876 52.7369 51.5201 54.509C49.7526 56.2811 47.3563 57.2781 44.8567 57.2812ZM13.1428 32.3594C13.1428 32.5873 13.2331 32.8059 13.3938 32.967C13.5546 33.1282 13.7726 33.2188 13.9999 33.2188H41.4281C41.6555 33.2188 41.8735 33.1282 42.0342 32.967C42.195 32.8059 42.2853 32.5873 42.2853 32.3594C42.2853 32.1315 42.195 31.9129 42.0342 31.7517C41.8735 31.5905 41.6555 31.5 41.4281 31.5H13.9999C13.7726 31.5 13.5546 31.5905 13.3938 31.7517C13.2331 31.9129 13.1428 32.1315 13.1428 32.3594ZM34.5711 36.6562H13.9999C13.7726 36.6562 13.5546 36.7468 13.3938 36.908C13.2331 37.0691 13.1428 37.2877 13.1428 37.5156C13.1428 37.7435 13.2331 37.9621 13.3938 38.1233C13.5546 38.2845 13.7726 38.375 13.9999 38.375H34.5711C34.7984 38.375 35.0164 38.2845 35.1772 38.1233C35.3379 37.9621 35.4282 37.7435 35.4282 37.5156C35.4282 37.2877 35.3379 37.0691 35.1772 36.908C35.0164 36.7468 34.7984 36.6562 34.5711 36.6562ZM20.857 19.4688C21.3655 19.4688 21.8627 19.3175 22.2856 19.0343C22.7084 18.751 23.038 18.3483 23.2326 17.8772C23.4273 17.4061 23.4782 16.8878 23.379 16.3877C23.2797 15.8876 23.0348 15.4282 22.6752 15.0676C22.3156 14.7071 21.8574 14.4615 21.3586 14.362C20.8598 14.2626 20.3428 14.3136 19.8729 14.5087C19.4031 14.7039 19.0015 15.0343 18.7189 15.4583C18.4364 15.8823 18.2856 16.3807 18.2856 16.8906C18.2856 17.5744 18.5565 18.2301 19.0387 18.7136C19.521 19.1971 20.175 19.4688 20.857 19.4688ZM20.857 16.0312C21.0265 16.0312 21.1922 16.0817 21.3332 16.1761C21.4741 16.2705 21.584 16.4047 21.6489 16.5618C21.7137 16.7188 21.7307 16.8916 21.6976 17.0583C21.6646 17.225 21.5829 17.3781 21.4631 17.4983C21.3432 17.6185 21.1905 17.7003 21.0242 17.7335C20.8579 17.7666 20.6856 17.7496 20.529 17.6846C20.3723 17.6195 20.2385 17.5094 20.1443 17.3681C20.0501 17.2267 19.9998 17.0606 19.9998 16.8906C19.9998 16.6627 20.0901 16.4441 20.2509 16.283C20.4116 16.1218 20.6296 16.0312 20.857 16.0312ZM13.9999 48.6875H29.4283C29.6556 48.6875 29.8736 48.597 30.0344 48.4358C30.1951 48.2746 30.2854 48.056 30.2854 47.8281C30.2854 47.6002 30.1951 47.3816 30.0344 47.2205C29.8736 47.0593 29.6556 46.9688 29.4283 46.9688H13.9999C13.7726 46.9688 13.5546 47.0593 13.3938 47.2205C13.2331 47.3816 13.1428 47.6002 13.1428 47.8281C13.1428 48.056 13.2331 48.2746 13.3938 48.4358C13.5546 48.597 13.7726 48.6875 13.9999 48.6875ZM31.1425 52.125H13.9999C13.7726 52.125 13.5546 52.2155 13.3938 52.3767C13.2331 52.5379 13.1428 52.7565 13.1428 52.9844C13.1428 53.2123 13.2331 53.4309 13.3938 53.592C13.5546 53.7532 13.7726 53.8438 13.9999 53.8438H31.1425C31.3699 53.8438 31.5879 53.7532 31.7486 53.592C31.9094 53.4309 31.9997 53.2123 31.9997 52.9844C31.9997 52.7565 31.9094 52.5379 31.7486 52.3767C31.5879 52.2155 31.3699 52.125 31.1425 52.125ZM14.2348 19.6406C14.3183 19.9468 14.357 20.2635 14.3496 20.5808C14.2858 21.3626 14.5239 22.139 15.0148 22.7498C15.6242 23.2415 16.3985 23.4802 17.1782 23.4167L17.4473 23.4322C17.44 23.4605 17.4343 23.4892 17.4302 23.5181V29.0181C17.4302 29.1736 17.4724 29.3261 17.5521 29.4594C17.6318 29.5928 17.746 29.7019 17.8827 29.7753C18.0194 29.8487 18.1734 29.8835 18.3282 29.8761C18.4831 29.8686 18.6331 29.8192 18.7621 29.7331L20.857 28.3203L22.9535 29.7211C23.0939 29.8157 23.2592 29.8665 23.4284 29.8672C23.5697 29.8673 23.7088 29.8318 23.8329 29.7641C23.9695 29.6908 24.0837 29.5817 24.1634 29.4486C24.243 29.3154 24.2852 29.1631 24.2855 29.0078V23.4219L24.5358 23.4081C25.3154 23.4714 26.0896 23.2328 26.6992 22.7413C27.1903 22.133 27.4308 21.3594 27.3712 20.5791C27.3634 20.2617 27.4021 19.945 27.486 19.6389C27.6371 19.3805 27.8241 19.1449 28.0414 18.9394C28.6519 18.4222 29.0385 17.6878 29.1197 16.8906C29.0367 16.0924 28.6476 15.3578 28.0346 14.8419C27.8173 14.6363 27.6302 14.4008 27.4792 14.1423C27.3957 13.8362 27.357 13.5195 27.3643 13.2022C27.4281 12.4204 27.19 11.6439 26.6992 11.0331C26.0907 10.539 25.3164 10.2978 24.5358 10.3594C24.2199 10.3678 23.9046 10.3296 23.5998 10.2459C23.3419 10.0947 23.1069 9.90717 22.9021 9.68906C22.3862 9.07594 21.6529 8.68771 20.857 8.60625C20.0594 8.68904 19.3253 9.07987 18.8101 9.69594C18.6055 9.91356 18.3712 10.101 18.1142 10.2528C17.8088 10.3363 17.4929 10.3745 17.1764 10.3663C16.3968 10.303 15.6226 10.5416 15.013 11.0331C14.5208 11.6434 14.2809 12.4198 14.3428 13.2022C14.3505 13.5195 14.3118 13.8363 14.2279 14.1423C14.0768 14.4008 13.8898 14.6363 13.6725 14.8419C13.062 15.359 12.6755 16.0935 12.5942 16.8906C12.6772 17.6888 13.0663 18.4234 13.6794 18.9394C13.8968 19.1455 14.0838 19.3816 14.2348 19.6406ZM22.5712 27.4008L21.3318 26.5741C21.191 26.4798 21.0254 26.4296 20.8561 26.4296C20.6868 26.4296 20.5213 26.4798 20.3804 26.5741L19.141 27.4008V24.3878C19.5946 24.8553 20.2059 25.136 20.8553 25.175C21.5046 25.136 22.1159 24.8553 22.5695 24.3878L22.5712 27.4008ZM14.9308 16.0158C15.2971 15.6668 15.5979 15.2546 15.8188 14.7989C15.987 14.3064 16.0676 13.788 16.057 13.2675C16.0363 12.9197 16.0949 12.5717 16.2285 12.25C16.55 12.1165 16.8976 12.0577 17.245 12.0781C17.7645 12.0876 18.2816 12.0049 18.7724 11.8341C19.2269 11.6126 19.6375 11.3104 19.9844 10.942C20.281 10.6636 20.6495 10.3181 20.8587 10.3181C21.0678 10.3181 21.4364 10.6619 21.733 10.942C22.0802 11.3108 22.4915 11.613 22.9467 11.8341C23.4374 12.0052 23.9545 12.0879 24.4741 12.0781C24.8215 12.0576 25.1691 12.1164 25.4906 12.25C25.6243 12.5723 25.6829 12.9208 25.6621 13.2692C25.6525 13.7906 25.7349 14.3097 25.9055 14.8023C26.1263 15.2581 26.4271 15.6703 26.7935 16.0192C27.0712 16.3148 27.4157 16.6844 27.4157 16.8941C27.4157 17.1038 27.0729 17.4733 26.7935 17.7689C26.4271 18.1179 26.1263 18.5301 25.9055 18.9858C25.7347 19.4785 25.6518 19.9974 25.6603 20.5189C25.6813 20.8673 25.6227 21.2159 25.4889 21.5381C25.1674 21.6717 24.8198 21.7304 24.4724 21.71C23.9529 21.7006 23.4358 21.7832 22.9449 21.9541C22.4905 22.1755 22.0799 22.4778 21.733 22.8461C21.4364 23.1245 21.0678 23.47 20.8587 23.47C20.6495 23.47 20.281 23.1262 19.9844 22.8461C19.6372 22.4774 19.2259 22.1751 18.7707 21.9541C18.28 21.7829 17.7628 21.7003 17.2433 21.71C16.8959 21.7305 16.5483 21.6717 16.2267 21.5381C16.0931 21.2159 16.0345 20.8673 16.0553 20.5189C16.0649 19.9975 15.9825 19.4785 15.8119 18.9858C15.5911 18.5301 15.2903 18.1179 14.9239 17.7689C14.6462 17.4733 14.3016 17.1038 14.3016 16.8941C14.3016 16.6844 14.6531 16.3114 14.9308 16.0158Z" fill="#9B1E26"/>
</svg>
