<svg width="64" height="64" viewBox="0 0 64 64" fill="none" xmlns="http://www.w3.org/2000/svg">
<path fill-rule="evenodd" clip-rule="evenodd" d="M16.8516 6V8H14.8516V10H16.8516V12H18.8516V10H20.8516V8H18.8516V6H16.8516ZM37.1484 6V8H39.1484V6H37.1484ZM32.0039 6.99219L30.1445 7.73828L30.8906 9.59375L32.7461 8.85156L32.0039 6.99219ZM44.293 6.99219L43.5469 8.85156L45.4023 9.59375L46.1484 7.73828L44.293 6.99219ZM38.1484 10C29.8763 10 23.1484 16.724 23.1484 24.9922C23.1484 33.2606 29.8763 39.9844 38.1484 39.9844C46.4206 39.9844 53.1484 33.2606 53.1484 24.9922C53.1484 16.724 46.4206 10 38.1484 10ZM25.418 10.8594L24.0039 12.2734L25.418 13.6875L26.832 12.2734L25.418 10.8594ZM50.875 10.8594L49.4609 12.2734L50.875 13.6875L52.2891 12.2734L50.875 10.8594ZM38.1484 12C45.3403 12 51.1484 17.8054 51.1484 24.9922C51.1484 32.179 45.3403 37.9844 38.1484 37.9844C30.9566 37.9844 25.1484 32.179 25.1484 24.9922C25.1484 24.543 25.1705 24.0975 25.2148 23.6602C25.8793 17.1006 31.4061 12 38.1484 12ZM55.4023 16.9844L53.5469 17.7305L54.293 19.5859L56.1484 18.8398L55.4023 16.9844ZM33.2617 18V18.0078V18.0273H33.2148V20.0273H35.2461C37.0846 20.0273 38.0131 20.8919 38.3477 21.9688H33.2617V23.9453H38.3477C38.0121 25.0215 37.0827 25.8906 35.2461 25.8906H33.2148V27.3047V27.875H33.793L39.8203 33.8164L41.2227 32.3945L36.5 27.7383C38.6396 27.2839 40.0152 25.6907 40.3945 23.9297H43.0781V21.9531H40.3984C40.2459 21.2417 39.9165 20.5704 39.4531 19.9766H43.0781V18H33.2617ZM55.1484 24V26H57.1484V24H55.1484ZM8.85156 28V30H6.85156V32H8.85156V34H10.8516V32H12.8516V30H10.8516V28H8.85156ZM54.293 30.4141L53.5469 32.2695L55.4023 33.0156L56.1484 31.1602L54.293 30.4141ZM21.5586 36L18.5586 41.1953L20.2891 42.1953L23.2891 37L21.5586 36ZM50.875 36.3125L49.4609 37.7266L50.875 39.1406L52.2891 37.7266L50.875 36.3125ZM17.5586 42.9297L16.5586 44.6602L18.2891 45.6602L19.2891 43.9297L17.5586 42.9297ZM26.4883 43.4648L21.4883 52.125L23.2188 53.125L28.2188 44.4648L26.4883 43.4648ZM35.4141 44L32.4141 49.1953L34.1484 50.1953L37.1484 45L35.4141 44ZM50.8516 50V52H48.8516V54H50.8516V56H52.8516V54H54.8516V52H52.8516V50H50.8516ZM31.4141 50.9297L30.4141 52.6602L32.1484 53.6602L33.1484 51.9297L31.4141 50.9297ZM20.4883 53.8555L19.4883 55.5898L21.2188 56.5898L22.2188 54.8555L20.4883 53.8555Z" fill="#9B1E26"/>
</svg>
