<svg width="64" height="64" viewBox="0 0 64 64" fill="none" xmlns="http://www.w3.org/2000/svg">
<g clip-path="url(#clip0_50_127)">
<path d="M63.965 50.5761C63.945 50.2961 63.9155 50.0178 63.8763 49.7411C63.4794 46.9533 62.1523 44.3812 60.1102 42.4422C58.0682 40.5032 55.431 39.3109 52.6263 39.0586L52.635 33.4674C53.3857 33.5945 54.1574 33.4663 54.8267 33.1034C55.496 32.7404 56.0243 32.1636 56.3273 31.4651C56.6303 30.7666 56.6904 29.9867 56.4981 29.2501C56.3057 28.5134 55.872 27.8624 55.2663 27.4011L52.5163 25.3024C52.5982 25.1602 52.6413 24.999 52.6413 24.8349V16.5436C52.6344 15.9203 52.3804 15.3251 51.9351 14.8887C51.4899 14.4524 50.8897 14.2105 50.2663 14.2161H45.6413C45.0179 14.2105 44.4177 14.4524 43.9724 14.8887C43.5272 15.3251 43.2732 15.9203 43.2663 16.5436V18.2499L29.615 7.82864C29.2375 7.54194 28.7766 7.38672 28.3025 7.38672C27.8285 7.38672 27.3675 7.54194 26.99 7.82864L1.33754 27.4011C0.622001 27.9496 0.152363 28.7587 0.0310643 29.6521C-0.0902348 30.5454 0.146647 31.4505 0.690041 32.1699C0.959199 32.5273 1.29673 32.8276 1.683 33.0533C2.06926 33.2791 2.49656 33.4258 2.94004 33.4849C3.09415 33.5059 3.24951 33.5163 3.40504 33.5161C3.62802 33.5152 3.85036 33.4922 4.06879 33.4474L4.02379 59.7499C4.02281 60.3076 4.13177 60.8599 4.34446 61.3754C4.55714 61.8909 4.86938 62.3595 5.26329 62.7542C5.65721 63.1489 6.12509 63.4621 6.64016 63.6759C7.15523 63.8896 7.70738 63.9997 8.26504 63.9999H50.225C50.3095 64.0005 50.3937 63.9892 50.475 63.9661C50.8175 63.9949 51.1638 64.0086 51.5113 64.0086C54.5195 64.0055 57.4257 62.9176 59.6966 60.9445C61.9674 58.9715 63.4505 56.2457 63.8738 53.2674C63.913 52.9916 63.9425 52.7132 63.9625 52.4324C63.985 52.1241 63.9963 51.8132 63.9963 51.4999C63.9988 51.1899 63.9875 50.8811 63.965 50.5761ZM45.1413 16.5436C45.1478 16.4174 45.204 16.2989 45.2978 16.214C45.3915 16.1292 45.515 16.085 45.6413 16.0911H50.2663C50.3926 16.085 50.5161 16.1292 50.6098 16.214C50.7036 16.2989 50.7598 16.4174 50.7663 16.5436V23.7074L50.3163 23.6236L45.1413 19.6749V16.5436ZM4.31504 31.3299C3.99439 31.5727 3.59046 31.6783 3.192 31.6234C2.79355 31.5686 2.43316 31.3578 2.19004 31.0374C1.94514 30.7139 1.83818 30.3066 1.89251 29.9045C1.94684 29.5024 2.15806 29.1381 2.48004 28.8911L28.1238 9.31864C28.1744 9.28042 28.236 9.25973 28.2994 9.25973C28.3628 9.25973 28.4245 9.28042 28.475 9.31864L49.335 25.2336L54.1238 28.8911C54.446 29.1379 54.6574 29.5021 54.712 29.9042C54.7666 30.3063 54.6598 30.7137 54.415 31.0374C54.1719 31.3578 53.8115 31.5686 53.4131 31.6234C53.0146 31.6783 52.6107 31.5727 52.29 31.3299L28.8738 13.4599C28.7101 13.3358 28.5104 13.2686 28.305 13.2686C28.0997 13.2686 27.8999 13.3358 27.7363 13.4599L4.31504 31.3299ZM24.9988 48.3749H23.2863C23.0376 48.3749 22.7992 48.4737 22.6234 48.6495C22.4476 48.8253 22.3488 49.0638 22.3488 49.3124C22.3488 49.561 22.4476 49.7995 22.6234 49.9753C22.7992 50.1511 23.0376 50.2499 23.2863 50.2499H24.9988V62.1136H11.5638V36.5124H24.9988V48.3749ZM26.8738 62.1136V35.5749C26.8738 35.3263 26.775 35.0878 26.5992 34.912C26.4234 34.7362 26.1849 34.6374 25.9363 34.6374H10.6238C10.3752 34.6374 10.1367 34.7362 9.96088 34.912C9.78506 35.0878 9.68629 35.3263 9.68629 35.5749V62.1161H8.26504C7.95421 62.1165 7.64636 62.0555 7.35913 61.9367C7.07189 61.8179 6.81091 61.6436 6.59112 61.4238C6.37132 61.204 6.19704 60.943 6.07824 60.6558C5.95944 60.3686 5.89846 60.0607 5.89879 59.7499L5.94254 32.4499L28.3013 15.3849L50.76 32.5211L50.75 39.0336C48.7738 39.1429 46.8533 39.7288 45.1525 40.7411V35.5749C45.1525 35.3263 45.0538 35.0878 44.8779 34.912C44.7021 34.7362 44.4637 34.6374 44.215 34.6374H30.78C30.5314 34.6374 30.2929 34.7362 30.1171 34.912C29.9413 35.0878 29.8425 35.3263 29.8425 35.5749V48.2399C29.8425 48.4885 29.9413 48.727 30.1171 48.9028C30.2929 49.0786 30.5314 49.1774 30.78 49.1774H39.2313C39.2225 49.2236 39.215 49.2686 39.2075 49.3149C39.2021 49.3388 39.1979 49.363 39.195 49.3874C39.1838 49.4511 39.1738 49.5124 39.1638 49.5774L39.145 49.7024C39.135 49.7761 39.125 49.8499 39.1163 49.9236C39.1163 49.9411 39.1163 49.9586 39.1088 49.9774C39.0988 50.0649 39.0888 50.1524 39.08 50.2399C39.08 50.2536 39.08 50.2686 39.08 50.2836C39.0713 50.3824 39.0625 50.4811 39.055 50.5811C39.0475 50.6811 39.0438 50.7486 39.04 50.8311C39.0275 51.0549 39.0213 51.2786 39.0213 51.5036C39.0213 51.8161 39.0325 52.127 39.055 52.4361C39.075 52.7161 39.1046 52.9945 39.1438 53.2711C39.5181 55.9521 40.7601 58.4366 42.68 60.3449C43.3532 61.0192 44.1009 61.6147 44.9088 62.1199L26.8738 62.1136ZM38.435 41.0249V36.5124H43.2775V41.0249H38.435ZM42.4575 42.8999C41.2524 44.1603 40.326 45.6604 39.7388 47.3024H38.435V42.8999H42.4575ZM31.7175 41.0249V36.5124H36.56V41.0249H31.7175ZM36.56 42.8999V47.3024H31.7175V42.8999H36.56ZM62.095 52.2924C62.0838 52.4511 62.0675 52.6086 62.05 52.7661C61.7385 55.3435 60.4941 57.7177 58.5518 59.4403C56.6095 61.1629 54.1037 62.1147 51.5075 62.1161C50.8688 62.1158 50.2314 62.0593 49.6025 61.9474C47.3714 61.5394 45.3293 60.4281 43.7751 58.7761C42.221 57.1241 41.2362 55.018 40.965 52.7661C40.9475 52.6086 40.9313 52.4511 40.92 52.2924C40.9017 52.0299 40.8921 51.7657 40.8913 51.4999C40.8913 51.4149 40.8913 51.3286 40.8913 51.2436C40.8913 51.1861 40.8913 51.1286 40.8975 51.0711C40.9038 51.0136 40.8975 50.9799 40.8975 50.9336C40.8975 50.8874 40.8975 50.8749 40.9038 50.8449C40.9038 50.7866 40.9075 50.7278 40.915 50.6686C40.915 50.6186 40.9225 50.5686 40.9275 50.5199C40.9325 50.4711 40.9338 50.4511 40.9375 50.4174C40.945 50.3424 40.9538 50.2674 40.9625 50.1936C40.9713 50.1199 40.985 50.0199 40.9975 49.9336C41.01 49.8474 41.0238 49.7624 41.0388 49.6761C41.0538 49.5899 41.07 49.5061 41.0863 49.4261C41.1025 49.3461 41.1213 49.2561 41.14 49.1761C41.4982 47.5757 42.226 46.0813 43.265 44.8124C43.49 44.5374 43.73 44.2724 43.985 44.0174C44.3305 43.6717 44.6993 43.3501 45.0888 43.0549C46.579 41.931 48.3391 41.2195 50.1917 40.9921C52.0443 40.7646 53.9242 41.0293 55.6421 41.7593C57.3599 42.4894 58.8551 43.6591 59.9772 45.1507C61.0993 46.6423 61.8086 48.4032 62.0338 50.2561C62.0525 50.4136 62.0675 50.5724 62.0788 50.7311C62.0975 50.9899 62.1075 51.2524 62.1075 51.5149C62.1075 51.7774 62.1138 52.0299 62.095 52.2924ZM56.6975 45.4174C56.6975 45.1688 56.5988 44.9303 56.423 44.7545C56.2471 44.5787 56.0087 44.4799 55.76 44.4799H47.3338C47.0851 44.4799 46.8467 44.5787 46.6709 44.7545C46.4951 44.9303 46.3963 45.1688 46.3963 45.4174C46.3963 45.666 46.4951 45.9045 46.6709 46.0803C46.8467 46.2561 47.0851 46.3549 47.3338 46.3549H50.2388C50.7601 46.3577 51.2688 46.5156 51.7 46.8086C52.1312 47.1015 52.4654 47.5163 52.66 47.9999H47.3338C47.0851 47.9999 46.8467 48.0987 46.6709 48.2745C46.4951 48.4503 46.3963 48.6888 46.3963 48.9374C46.3963 49.186 46.4951 49.4245 46.6709 49.6003C46.8467 49.7761 47.0851 49.8749 47.3338 49.8749H52.7088C52.5284 50.3851 52.1948 50.8271 51.7535 51.1404C51.3122 51.4536 50.7849 51.6229 50.2438 51.6249H47.3875C47.1934 51.6031 46.9974 51.6426 46.8268 51.7378C46.6563 51.8329 46.5198 51.9791 46.4364 52.1557C46.353 52.3324 46.327 52.5306 46.362 52.7228C46.3969 52.915 46.4911 53.0914 46.6313 53.2274L53.0188 59.4324C53.106 59.5229 53.2105 59.5948 53.3261 59.6441C53.4418 59.6934 53.5661 59.7189 53.6917 59.7191C53.8174 59.7194 53.9418 59.6944 54.0577 59.6456C54.1735 59.5968 54.2783 59.5252 54.3659 59.4351C54.4535 59.345 54.522 59.2382 54.5675 59.1211C54.613 59.0039 54.6345 58.8788 54.6307 58.7532C54.6269 58.6276 54.5979 58.5041 54.5454 58.3899C54.4929 58.2757 54.4179 58.1733 54.325 58.0886L49.6013 53.4999H50.2388C51.279 53.4981 52.2865 53.1359 53.0899 52.475C53.8932 51.8141 54.4428 50.8953 54.645 49.8749H55.76C56.0087 49.8749 56.2471 49.7761 56.423 49.6003C56.5988 49.4245 56.6975 49.186 56.6975 48.9374C56.6975 48.6888 56.5988 48.4503 56.423 48.2745C56.2471 48.0987 56.0087 47.9999 55.76 47.9999H54.6238C54.4903 47.4105 54.2395 46.854 53.8863 46.3636H55.7613C55.8848 46.3635 56.0071 46.3389 56.1211 46.2913C56.2351 46.2438 56.3386 46.1741 56.4256 46.0864C56.5126 45.9987 56.5814 45.8947 56.6281 45.7803C56.6748 45.6659 56.6984 45.5434 56.6975 45.4199V45.4174ZM32.9888 25.8374C32.9888 24.9103 32.7139 24.004 32.1988 23.2332C31.6837 22.4623 30.9516 21.8615 30.0951 21.5067C29.2386 21.1519 28.2961 21.0591 27.3868 21.24C26.4775 21.4208 25.6423 21.8673 24.9867 22.5228C24.3312 23.1784 23.8847 24.0136 23.7039 24.9229C23.523 25.8322 23.6158 26.7747 23.9706 27.6312C24.3254 28.4878 24.9262 29.2198 25.6971 29.7349C26.4679 30.25 27.3742 30.5249 28.3013 30.5249C29.5441 30.5236 30.7356 30.0293 31.6144 29.1505C32.4932 28.2717 32.9875 27.0802 32.9888 25.8374ZM28.3013 28.6499C27.745 28.6499 27.2013 28.4849 26.7387 28.1759C26.2762 27.8669 25.9157 27.4276 25.7029 26.9137C25.49 26.3998 25.4343 25.8343 25.5428 25.2887C25.6514 24.7431 25.9192 24.242 26.3126 23.8487C26.7059 23.4553 27.207 23.1875 27.7526 23.0789C28.2982 22.9704 28.8637 23.0261 29.3776 23.239C29.8915 23.4519 30.3308 23.8123 30.6398 24.2749C30.9488 24.7374 31.1138 25.2811 31.1138 25.8374C31.1128 26.583 30.8162 27.2978 30.2889 27.825C29.7617 28.3523 29.0469 28.6489 28.3013 28.6499Z" fill="#9B1E26"/>
</g>
<defs>
<clipPath id="clip0_50_127">
<rect width="64" height="64" fill="white"/>
</clipPath>
</defs>
</svg>
