<svg width="64" height="64" viewBox="0 0 64 64" fill="none" xmlns="http://www.w3.org/2000/svg">
<path d="M8.62936 58.7636H55.4657C59.6354 58.7636 63.1263 55.3697 63.1263 51.103C63.1263 50.5212 62.7384 50.1333 62.1566 50.1333H60.6051V9.21209C60.6051 6.98178 58.7627 5.23633 56.6294 5.23633H7.46572C5.23542 5.23633 3.48996 7.07875 3.48996 9.21209V50.1333H1.93845C1.35663 50.1333 0.96875 50.5212 0.96875 51.103C0.96875 55.3697 4.36269 58.7636 8.62936 58.7636ZM5.42936 9.21209C5.42936 8.04845 6.39905 7.17572 7.46572 7.17572H56.4354C57.5991 7.17572 58.4718 8.14542 58.4718 9.21209V50.1333H5.42936V9.21209ZM4.45966 52.0727H59.5384H60.993C60.5081 54.7878 58.1809 56.8242 55.3687 56.8242H8.62936C5.81723 56.8242 3.48996 54.7878 3.00511 52.0727H4.45966Z" fill="#9B1E26"/>
<path d="M51.2955 35.976L45.1864 34.0366V32.0002C48.1925 29.2851 50.1319 24.4366 50.1319 20.8487C50.1319 15.6124 45.8652 11.3457 40.6289 11.3457C35.3925 11.3457 31.1258 15.6124 31.1258 20.8487C31.1258 24.4366 33.0652 29.2851 36.0713 32.0002V34.1336L29.9622 36.073C28.2167 36.6548 27.0531 38.2063 27.0531 39.9518V45.0912C27.0531 45.673 27.441 46.0609 28.0228 46.0609H53.041C53.6228 46.0609 54.0107 45.673 54.0107 45.0912V39.9518C54.2046 38.1093 53.041 36.5578 51.2955 35.976ZM40.7258 13.2851C44.8955 13.2851 48.2895 16.679 48.2895 20.8487C48.2895 21.5275 48.1925 22.2063 47.9986 22.9821C47.5137 21.9154 47.3198 20.073 47.2228 18.8124C47.2228 18.4245 46.9319 18.0366 46.544 17.9396C46.1561 17.8427 45.7683 17.9396 45.4773 18.2306C44.5077 19.3942 42.9561 20.1699 41.2107 20.2669C39.1743 20.3639 37.2349 19.5881 35.9743 18.2306C35.6834 17.9396 35.1986 17.8427 34.8107 18.0366C34.4228 18.2306 34.2289 18.6184 34.2289 19.0063C34.5198 20.9457 34.1319 22.9821 33.744 24.3396C33.3561 23.079 33.1622 21.9154 33.1622 20.8487C33.1622 16.679 36.5561 13.2851 40.7258 13.2851ZM34.7137 26.6669C35.5864 25.5033 36.1683 23.176 36.2652 20.9457C37.7198 21.8184 39.4652 22.3033 41.3076 22.2063C42.8592 22.1093 44.3137 21.7215 45.4773 20.9457C45.6713 22.4002 46.0592 24.1457 47.0289 25.0184C47.1258 25.1154 47.2228 25.1154 47.3198 25.2124C46.0592 28.7033 43.441 32.0002 40.7258 32.0002C38.3986 32.0002 36.1683 29.479 34.7137 26.6669ZM40.7258 33.9396C41.5986 33.9396 42.4713 33.7457 43.344 33.2609V34.8124C43.344 35.5881 41.9864 35.976 40.7258 35.976C39.4652 35.976 38.1076 35.4912 38.1076 34.8124V33.2609C38.9804 33.6487 39.8531 33.9396 40.7258 33.9396ZM52.2652 44.1215H49.4531V41.0184C49.4531 40.4366 49.0652 40.0487 48.4834 40.0487C47.9016 40.0487 47.5137 40.4366 47.5137 41.0184V44.1215H33.938V41.0184C33.938 40.4366 33.5501 40.0487 32.9683 40.0487C32.3864 40.0487 31.9986 40.4366 31.9986 41.0184V44.1215H29.1864V39.9518C29.1864 38.9821 29.7683 38.2063 30.738 37.9154L36.5561 36.073C36.847 36.5578 37.2349 37.0427 37.8167 37.3336C38.5925 37.7215 39.6592 38.0124 40.7258 38.0124C42.7622 38.0124 44.3137 37.2366 44.9925 36.073L50.8107 37.9154C51.6834 38.2063 52.3622 38.9821 52.3622 39.9518V44.1215H52.2652ZM11.247 20.2669H23.3683C23.9501 20.2669 24.3379 19.879 24.3379 19.2972C24.3379 18.7154 23.9501 18.3275 23.3683 18.3275H11.247C10.6652 18.3275 10.2773 18.7154 10.2773 19.2972C10.2773 19.879 10.7622 20.2669 11.247 20.2669ZM11.247 13.9639H23.3683C23.9501 13.9639 24.3379 13.576 24.3379 12.9942C24.3379 12.4124 23.9501 12.0245 23.3683 12.0245H11.247C10.6652 12.0245 10.2773 12.4124 10.2773 12.9942C10.2773 13.576 10.7622 13.9639 11.247 13.9639ZM23.4652 27.6366L10.9561 32.2912C10.5683 32.4851 10.2773 32.873 10.3743 33.2609C10.3743 33.6487 10.7622 34.0366 11.1501 34.1336L17.1622 35.2972L18.3258 41.3093C18.4228 41.6972 18.8107 42.0851 19.1986 42.0851H19.2955C19.6834 42.0851 20.0713 41.7942 20.1683 41.4063L24.8228 28.8972C24.9198 28.5093 24.8228 28.1215 24.6289 27.8306C24.241 27.6366 23.8531 27.5396 23.4652 27.6366ZM19.4895 37.4305L18.9076 34.2306C18.8107 33.8427 18.5198 33.5518 18.1319 33.4548L14.9319 32.873L22.2046 30.1578L19.4895 37.4305Z" fill="#9B1E26"/>
</svg>
