<svg width="24" height="24" viewBox="0 0 24 24" fill="none" xmlns="http://www.w3.org/2000/svg">
<path fill-rule="evenodd" clip-rule="evenodd" d="M8.5 23C12.6421 23 16 19.6421 16 15.5C16 11.3579 12.6421 8 8.5 8C4.35786 8 1 11.3579 1 15.5C1 19.6421 4.35786 23 8.5 23ZM15.5 16C19.6421 16 23 12.6421 23 8.5C23 4.35786 19.6421 1 15.5 1C11.3579 1 8 4.35786 8 8.5C8 12.6421 11.3579 16 15.5 16Z" stroke="#787878" stroke-width="2"/>
<path fill-rule="evenodd" clip-rule="evenodd" d="M8.5 8C12.6421 8 16 11.3579 16 15.5C16 15.6628 15.9948 15.8243 15.9846 15.9845C15.8243 15.9948 15.6628 16 15.5 16C11.3579 16 8 12.6421 8 8.5C8 8.33722 8.00519 8.17566 8.0154 8.01546C8.17566 8.00519 8.33722 8 8.5 8Z" stroke="#FFCB05" stroke-width="2"/>
</svg>
