<?xml version="1.0" encoding="UTF-8"?>
<svg width="56px" height="56px" viewBox="0 0 56 56" version="1.1" xmlns="http://www.w3.org/2000/svg" xmlns:xlink="http://www.w3.org/1999/xlink">
    <title>icons / 7</title>
    <g id="icons-/-7" stroke="none" stroke-width="1" fill="none" fill-rule="evenodd">
        <rect id="Rectangle-Copy-11" x="6" y="6" width="45" height="45"></rect>
        <g id="Group-23" transform="translate(11.625000, 6.000000)" fill="#777777" fill-rule="nonzero" stroke="#777777" stroke-width="0.679799947">
            <path d="M33.7829231,28.0000056 L32.9616666,28.0000056 C31.5712489,28.0011377 30.2041685,28.3556242 28.9901668,29.0298932 L22.9925788,32.3658677 L21.2819498,32.3658677 C20.8707965,30.13081 18.9139638,28.5064753 16.6297733,28.5041721 L5.82735172,28.5041721 C5.57827195,28.5043084 5.34186813,28.613452 5.18097454,28.8025933 L1.90802583,32.6614056 L0.464084511,32.6614056 L0.375,43.0000056 C0.524477977,43.0000056 1.10456875,42.9695513 2.11527233,42.9086427 L19.3558618,42.1215027 C19.37277,42.1215027 19.3891951,42.1215027 19.404171,42.1176583 C22.1155534,41.8300033 24.6514347,40.6454764 26.6056243,38.7538119 L34.8940348,30.7146997 C35.3580361,30.2664578 35.5018028,29.5827865 35.2573201,28.9871243 C35.0149458,28.3891984 34.4310363,27.9982948 33.7829231,28.0000056 Z M25.4268797,37.5519577 C23.7508936,39.1736052 21.5778183,40.1910755 19.2534463,40.4424628 L2.1172047,41.2252779 L2.1172047,35.0261896 L6.22348721,30.1865758 L16.6297733,30.1865758 C18.0568633,30.189654 19.2901562,31.1786881 19.5959585,32.5652957 L11.029287,34.6571276 C10.6146929,34.758927 10.3415146,35.1522994 10.3925298,35.5740477 C10.4435451,35.9957959 10.8027337,36.3134794 11.2297702,36.3145428 C11.2979954,36.3146321 11.3659743,36.3064014 11.4321858,36.2900348 L20.6138335,34.0477909 L23.2128688,34.0477909 C23.3572948,34.0478892 23.4993354,34.0111596 23.6254294,33.9411089 L29.8157711,30.4979719 C30.7773622,29.963198 31.860481,29.6819742 32.9621497,29.6810378 L33.5418601,29.6810378 L25.4268797,37.5519577 Z" id="Shape"></path>
            <path d="M19.375,26 C26.5547017,26 32.375,20.1797017 32.375,13 C32.375,5.82029825 26.5547017,9.09494702e-13 19.375,9.09494702e-13 C12.1952983,9.09494702e-13 6.375,5.82029825 6.375,13 C6.38328637,20.1762666 12.1987334,25.9917136 19.375,26 L19.375,26 Z M19.375,1.75431832 C25.5858185,1.75431832 30.6206817,6.78918151 30.6206817,13 C30.6206817,19.2108185 25.5858185,24.2456817 19.375,24.2456817 C13.1641815,24.2456817 8.12931832,19.2108185 8.12931832,13 C8.13649981,6.79215861 13.1671586,1.76149981 19.375,1.75431832 Z" id="Shape"></path>
        </g>
        <path d="M34.2218042,24.4810273 L30.7849057,20.1286933 C30.4155195,19.6629454 30.1585551,19.3738605 30.0300729,19.2614386 C30.8812674,19.0847756 31.5718591,18.7475098 32.0857879,18.2335811 C32.4712344,17.8320743 32.6960782,17.3502661 32.7924399,16.7720962 L34.5108891,16.7720962 L34.8481548,15.7763593 L32.8245604,15.7763593 C32.7442591,15.0697073 32.503355,14.4915375 32.1179084,14.0097293 L34.5108891,14.0097293 L34.8320945,13.0139924 L27.2837662,13.0139924 L26.9465005,14.0097293 L28.6167689,14.0097293 C29.4197825,14.0097293 30.0300729,14.1863923 30.44764,14.5557786 C30.7849057,14.8448635 30.9936893,15.2463703 31.0739907,15.7763593 L27.2998265,15.7763593 L26.978621,16.7720962 L31.0418701,16.7720962 C30.9455085,17.1896633 30.7206646,17.5429893 30.3673386,17.7999537 C29.8534099,18.1532797 29.0825168,18.346003 28.0707196,18.346003 L27.0910429,18.346003 L27.0910429,19.5184029 C27.4764895,19.5184029 27.8298155,19.6308248 28.151021,19.8396084 C28.4240456,20.0323317 28.6970702,20.3053563 28.9700949,20.6747426 L31.8448838,24.4810273 L34.2218042,24.4810273 Z" id="₹" fill="#9D1D27" fill-rule="nonzero"></path>
    </g>
</svg>