<?xml version="1.0" encoding="UTF-8"?>
<svg width="56px" height="56px" viewBox="0 0 56 56" version="1.1" xmlns="http://www.w3.org/2000/svg" xmlns:xlink="http://www.w3.org/1999/xlink">
    <title>icons / 9</title>
    <g id="icons-/-9" stroke="none" stroke-width="1" fill="none" fill-rule="evenodd">
        <path d="M28.5,5 C15.5213084,5 5,15.5213084 5,28.5 C5,41.4786916 15.5213084,52 28.5,52 C41.4786916,52 52,41.4786916 52,28.5 C52,15.5213084 41.4786916,5 28.5,5 Z M28.5,9 C39.2695526,9 48,17.7304474 48,28.5 C48,39.2695526 39.2695526,48 28.5,48 C17.7304474,48 9,39.2695526 9,28.5 C9,17.7304474 17.7304474,9 28.5,9 Z" id="Oval" fill="#787878" fill-rule="nonzero"></path>
        <path d="M29.4728868,18.3294265 L32.0168626,24.6434338 L38.5297691,25.2301574 C38.9814839,25.2710666 39.1652497,25.8620964 38.8223571,26.1732214 L33.8822395,30.6613879 L35.3626322,37.338195 C35.4652947,37.8021911 34.985861,38.167144 34.5977969,37.9206124 L29.0006395,34.3808927 L23.4034822,37.9206124 C23.0143914,38.1660674 22.5359844,37.8011146 22.6386468,37.338195 L24.1190395,30.6613879 L19.1778953,26.1721449 C18.8350026,25.8610199 19.0177418,25.26999 19.4704833,25.2290809 L25.9833898,24.6423572 L28.5273656,18.3294265 C28.703945,17.8901912 29.2963074,17.8901912 29.4728868,18.3294265 Z" id="Path" stroke="#9C1D26" stroke-width="3"></path>
    </g>
</svg>