<?xml version="1.0" encoding="UTF-8"?>
<svg width="56px" height="56px" viewBox="0 0 56 56" version="1.1" xmlns="http://www.w3.org/2000/svg" xmlns:xlink="http://www.w3.org/1999/xlink">
    <title>icons / 6</title>
    <g id="icons-/-6" stroke="none" stroke-width="1" fill="none" fill-rule="evenodd">
        <g id="hotel" transform="translate(6.000000, 6.000000)">
            <path d="M43.2666667,6.71186441 L35.2,6.71186441 L35.2,0.745762712 C35.2,0.333915254 34.87165,0 34.4666667,0 L9.53333333,0 C9.12835,0 8.8,0.333915254 8.8,0.745762712 L8.8,11.1864407 L0.733333333,11.1864407 C0.32835,11.1864407 0,11.5203559 0,11.9322034 L0,42.5084746 C0,42.920322 0.32835,43.2542373 0.733333333,43.2542373 C1.13831667,43.2542373 1.46666667,42.920322 1.46666667,42.5084746 L1.46666667,12.6779661 L8.8,12.6779661 L8.8,43.2542373 C8.8,43.6660847 9.12835,44 9.53333333,44 L34.4666667,44 C34.87165,44 35.2,43.6660847 35.2,43.2542373 L35.2,8.20338983 L42.5333333,8.20338983 L42.5333333,42.5084746 C42.5333333,42.920322 42.8616833,43.2542373 43.2666667,43.2542373 C43.67165,43.2542373 44,42.920322 44,42.5084746 L44,7.45762712 C44,7.04577966 43.67165,6.71186441 43.2666667,6.71186441 Z M21.2666667,42.5084746 L18.3333333,42.5084746 L18.3333333,35.7966102 L21.2666667,35.7966102 L21.2666667,42.5084746 Z M25.6666667,42.5084746 L22.7333333,42.5084746 L22.7333333,35.7966102 L25.6666667,35.7966102 L25.6666667,42.5084746 Z M33.7333333,42.5084746 L27.1333333,42.5084746 L27.1333333,35.0508475 C27.1333333,34.639 26.8049833,34.3050847 26.4,34.3050847 L17.6,34.3050847 C17.1950167,34.3050847 16.8666667,34.639 16.8666667,35.0508475 L16.8666667,42.5084746 L10.2666667,42.5084746 L10.2666667,1.49152542 L33.7333333,1.49152542 L33.7333333,42.5084746 Z" id="Shape" stroke="#979797" stroke-width="1.3" fill="#787878"></path>
            <path d="M16.375,3 L12.625,3 C12.2798437,3 12,3.3358125 12,3.75 L12,8.25 C12,8.6641875 12.2798437,9 12.625,9 L16.375,9 C16.7201563,9 17,8.6641875 17,8.25 L17,3.75 C17,3.3358125 16.7201563,3 16.375,3 Z M15.75,7.5 L13.25,7.5 L13.25,4.5 L15.75,4.5 L15.75,7.5 Z" id="Shape" fill="#9C1D26"></path>
            <path d="M24.25,3 L19.75,3 C19.3358125,3 19,3.3358125 19,3.75 L19,8.25 C19,8.6641875 19.3358125,9 19.75,9 L24.25,9 C24.6641875,9 25,8.6641875 25,8.25 L25,3.75 C25,3.3358125 24.6641875,3 24.25,3 Z M23.5,7.5 L20.5,7.5 L20.5,4.5 L23.5,4.5 L23.5,7.5 Z" id="Shape" fill="#9C1D26"></path>
            <path d="M31.375,3 L27.625,3 C27.2798437,3 27,3.3358125 27,3.75 L27,8.25 C27,8.6641875 27.2798437,9 27.625,9 L31.375,9 C31.7201563,9 32,8.6641875 32,8.25 L32,3.75 C32,3.3358125 31.7201563,3 31.375,3 Z M30.75,7.5 L28.25,7.5 L28.25,4.5 L30.75,4.5 L30.75,7.5 Z" id="Shape" fill="#9C1D26"></path>
            <path d="M16.375,11 L12.625,11 C12.2798437,11 12,11.3358125 12,11.75 L12,16.25 C12,16.6641875 12.2798437,17 12.625,17 L16.375,17 C16.7201563,17 17,16.6641875 17,16.25 L17,11.75 C17,11.3358125 16.7201563,11 16.375,11 Z M15.75,15.5 L13.25,15.5 L13.25,12.5 L15.75,12.5 L15.75,15.5 Z" id="Shape" fill="#9C1D26"></path>
            <path d="M24.25,11 L19.75,11 C19.3358125,11 19,11.3358125 19,11.75 L19,16.25 C19,16.6641875 19.3358125,17 19.75,17 L24.25,17 C24.6641875,17 25,16.6641875 25,16.25 L25,11.75 C25,11.3358125 24.6641875,11 24.25,11 Z M23.5,15.5 L20.5,15.5 L20.5,12.5 L23.5,12.5 L23.5,15.5 Z" id="Shape" fill="#9C1D26"></path>
            <path d="M31.375,11 L27.625,11 C27.2798437,11 27,11.3358125 27,11.75 L27,16.25 C27,16.6641875 27.2798437,17 27.625,17 L31.375,17 C31.7201563,17 32,16.6641875 32,16.25 L32,11.75 C32,11.3358125 31.7201563,11 31.375,11 Z M30.75,15.5 L28.25,15.5 L28.25,12.5 L30.75,12.5 L30.75,15.5 Z" id="Shape" fill="#9C1D26"></path>
            <path d="M16.375,18 L12.625,18 C12.2798437,18 12,18.3358125 12,18.75 L12,23.25 C12,23.6641875 12.2798437,24 12.625,24 L16.375,24 C16.7201563,24 17,23.6641875 17,23.25 L17,18.75 C17,18.3358125 16.7201563,18 16.375,18 Z M15.75,22.5 L13.25,22.5 L13.25,19.5 L15.75,19.5 L15.75,22.5 Z" id="Shape" fill="#9C1D26"></path>
            <path d="M24.25,18 L19.75,18 C19.3358125,18 19,18.3358125 19,18.75 L19,23.25 C19,23.6641875 19.3358125,24 19.75,24 L24.25,24 C24.6641875,24 25,23.6641875 25,23.25 L25,18.75 C25,18.3358125 24.6641875,18 24.25,18 Z M23.5,22.5 L20.5,22.5 L20.5,19.5 L23.5,19.5 L23.5,22.5 Z" id="Shape" fill="#9C1D26"></path>
            <path d="M31.375,18 L27.625,18 C27.2798437,18 27,18.3358125 27,18.75 L27,23.25 C27,23.6641875 27.2798437,24 27.625,24 L31.375,24 C31.7201563,24 32,23.6641875 32,23.25 L32,18.75 C32,18.3358125 31.7201563,18 31.375,18 Z M30.75,22.5 L28.25,22.5 L28.25,19.5 L30.75,19.5 L30.75,22.5 Z" id="Shape" fill="#9C1D26"></path>
            <path d="M16.375,25 L12.625,25 C12.2798437,25 12,25.3358125 12,25.75 L12,30.25 C12,30.6641875 12.2798437,31 12.625,31 L16.375,31 C16.7201563,31 17,30.6641875 17,30.25 L17,25.75 C17,25.3358125 16.7201563,25 16.375,25 Z M15.75,29.5 L13.25,29.5 L13.25,26.5 L15.75,26.5 L15.75,29.5 Z" id="Shape" fill="#9C1D26"></path>
            <path d="M24.25,25 L19.75,25 C19.3358125,25 19,25.3358125 19,25.75 L19,30.25 C19,30.6641875 19.3358125,31 19.75,31 L24.25,31 C24.6641875,31 25,30.6641875 25,30.25 L25,25.75 C25,25.3358125 24.6641875,25 24.25,25 Z M23.5,29.5 L20.5,29.5 L20.5,26.5 L23.5,26.5 L23.5,29.5 Z" id="Shape" fill="#9C1D26"></path>
            <path d="M31.375,25 L27.625,25 C27.2798437,25 27,25.3358125 27,25.75 L27,30.25 C27,30.6641875 27.2798437,31 27.625,31 L31.375,31 C31.7201563,31 32,30.6641875 32,30.25 L32,25.75 C32,25.3358125 31.7201563,25 31.375,25 Z M30.75,29.5 L28.25,29.5 L28.25,26.5 L30.75,26.5 L30.75,29.5 Z" id="Shape" fill="#9C1D26"></path>
            <path d="M40.3333333,11 L37.6666667,11 C37.2985,11 37,11.2985 37,11.6666667 L37,14.3333333 C37,14.7015 37.2985,15 37.6666667,15 L40.3333333,15 C40.7015,15 41,14.7015 41,14.3333333 L41,11.6666667 C41,11.2985 40.7015,11 40.3333333,11 Z M39.6666667,13.6666667 L38.3333333,13.6666667 L38.3333333,12.3333333 L39.6666667,12.3333333 L39.6666667,13.6666667 Z" id="Shape" fill="#787878"></path>
            <path d="M40.3333333,16 L37.6666667,16 C37.2985,16 37,16.2985 37,16.6666667 L37,19.3333333 C37,19.7015 37.2985,20 37.6666667,20 L40.3333333,20 C40.7015,20 41,19.7015 41,19.3333333 L41,16.6666667 C41,16.2985 40.7015,16 40.3333333,16 Z M39.6666667,18.6666667 L38.3333333,18.6666667 L38.3333333,17.3333333 L39.6666667,17.3333333 L39.6666667,18.6666667 Z" id="Shape" fill="#787878"></path>
            <path d="M40.3333333,22 L37.6666667,22 C37.2985,22 37,22.2985 37,22.6666667 L37,25.3333333 C37,25.7015 37.2985,26 37.6666667,26 L40.3333333,26 C40.7015,26 41,25.7015 41,25.3333333 L41,22.6666667 C41,22.2985 40.7015,22 40.3333333,22 Z M39.6666667,24.6666667 L38.3333333,24.6666667 L38.3333333,23.3333333 L39.6666667,23.3333333 L39.6666667,24.6666667 Z" id="Shape" fill="#787878"></path>
            <path d="M40.3333333,27 L37.6666667,27 C37.2985,27 37,27.2985 37,27.6666667 L37,30.3333333 C37,30.7015 37.2985,31 37.6666667,31 L40.3333333,31 C40.7015,31 41,30.7015 41,30.3333333 L41,27.6666667 C41,27.2985 40.7015,27 40.3333333,27 Z M39.6666667,29.6666667 L38.3333333,29.6666667 L38.3333333,28.3333333 L39.6666667,28.3333333 L39.6666667,29.6666667 Z" id="Shape" fill="#787878"></path>
            <path d="M40.3333333,33 L37.6666667,33 C37.2985,33 37,33.2985 37,33.6666667 L37,36.3333333 C37,36.7015 37.2985,37 37.6666667,37 L40.3333333,37 C40.7015,37 41,36.7015 41,36.3333333 L41,33.6666667 C41,33.2985 40.7015,33 40.3333333,33 Z M39.6666667,35.6666667 L38.3333333,35.6666667 L38.3333333,34.3333333 L39.6666667,34.3333333 L39.6666667,35.6666667 Z" id="Shape" fill="#787878"></path>
            <path d="M7.33333333,15 L4.66666667,15 C4.2985,15 4,15.2985 4,15.6666667 L4,18.3333333 C4,18.7015 4.2985,19 4.66666667,19 L7.33333333,19 C7.7015,19 8,18.7015 8,18.3333333 L8,15.6666667 C8,15.2985 7.7015,15 7.33333333,15 Z M6.66666667,17.6666667 L5.33333333,17.6666667 L5.33333333,16.3333333 L6.66666667,16.3333333 L6.66666667,17.6666667 Z" id="Shape" fill="#787878"></path>
            <path d="M7.33333333,20 L4.66666667,20 C4.2985,20 4,20.2985 4,20.6666667 L4,23.3333333 C4,23.7015 4.2985,24 4.66666667,24 L7.33333333,24 C7.7015,24 8,23.7015 8,23.3333333 L8,20.6666667 C8,20.2985 7.7015,20 7.33333333,20 Z M6.66666667,22.6666667 L5.33333333,22.6666667 L5.33333333,21.3333333 L6.66666667,21.3333333 L6.66666667,22.6666667 Z" id="Shape" fill="#787878"></path>
            <path d="M7.33333333,26 L4.66666667,26 C4.2985,26 4,26.2985 4,26.6666667 L4,29.3333333 C4,29.7015 4.2985,30 4.66666667,30 L7.33333333,30 C7.7015,30 8,29.7015 8,29.3333333 L8,26.6666667 C8,26.2985 7.7015,26 7.33333333,26 Z M6.66666667,28.6666667 L5.33333333,28.6666667 L5.33333333,27.3333333 L6.66666667,27.3333333 L6.66666667,28.6666667 Z" id="Shape" fill="#787878"></path>
            <path d="M7.33333333,31 L4.66666667,31 C4.2985,31 4,31.2985 4,31.6666667 L4,34.3333333 C4,34.7015 4.2985,35 4.66666667,35 L7.33333333,35 C7.7015,35 8,34.7015 8,34.3333333 L8,31.6666667 C8,31.2985 7.7015,31 7.33333333,31 Z M6.66666667,33.6666667 L5.33333333,33.6666667 L5.33333333,32.3333333 L6.66666667,32.3333333 L6.66666667,33.6666667 Z" id="Shape" fill="#787878"></path>
            <path d="M7.33333333,37 L4.66666667,37 C4.2985,37 4,37.2985 4,37.6666667 L4,40.3333333 C4,40.7015 4.2985,41 4.66666667,41 L7.33333333,41 C7.7015,41 8,40.7015 8,40.3333333 L8,37.6666667 C8,37.2985 7.7015,37 7.33333333,37 Z M6.66666667,39.6666667 L5.33333333,39.6666667 L5.33333333,38.3333333 L6.66666667,38.3333333 L6.66666667,39.6666667 Z" id="Shape" fill="#787878"></path>
        </g>
    </g>
</svg>