<svg width="25" height="25" viewBox="0 0 25 25" fill="none" xmlns="http://www.w3.org/2000/svg">
<path d="M17.4376 7.1558L14.9896 4.90519H17.4376V7.1558Z" fill="#D7DF23" stroke="#D7DF23" stroke-width="1.5" stroke-miterlimit="10"/>
<path d="M20.7855 13.3334H19.2803V15.4356V21.9216C19.2803 22.2646 19.0022 22.5427 18.6592 22.5427H13.4742C13.1302 22.5427 12.8506 22.2643 12.8506 21.9216V16.6959H9.81861V21.9216C9.81861 22.2643 9.53906 22.5427 9.195 22.5427H4.03411C3.69005 22.5427 3.4105 22.2643 3.4105 21.9216V13.3334H1.90524C1.45366 13.3334 1.06659 13.055 0.894564 12.648C0.722534 12.2411 0.851557 11.7699 1.17411 11.4701L10.6142 2.90329C11.0443 2.51779 11.6679 2.51779 12.0765 2.90329L21.5166 11.4701C21.8392 11.7699 21.9682 12.2411 21.7962 12.648C21.6242 13.055 21.2371 13.3334 20.7855 13.3334Z" fill="#005899"/>
<circle cx="20.632" cy="18.6608" r="3.59901" fill="#D7DF23" stroke="white" stroke-width="0.4" stroke-miterlimit="10"/>
<path d="M20.4836 21.056L19.45 19.1724V18.9213H19.5703C19.8619 18.9213 20.0844 18.8775 20.2375 18.79C20.3943 18.7025 20.4854 18.5446 20.5109 18.3162H19.45V17.9509H20.5055C20.469 17.7378 20.3724 17.5837 20.2156 17.4886C20.0625 17.3935 19.8474 17.3459 19.5703 17.3459H19.45V16.9806H21.7141V17.3459H20.6805C20.8555 17.4943 20.9594 17.696 20.9922 17.9509H21.7141V18.3162H21.0031C20.9776 18.594 20.8755 18.8109 20.6969 18.9669C20.5219 19.1192 20.2885 19.2162 19.9968 19.258L21.0414 21.056H20.4836Z" fill="#005899"/>
</svg>
