<svg width="34" height="21" viewBox="0 0 34 21" fill="none" xmlns="http://www.w3.org/2000/svg">
<path d="M0.574914 18.4568C0.574914 16.5124 0.957897 14.587 1.702 12.7906C2.4461 10.9941 3.53674 9.36188 4.91166 7.98697L8.29053 11.3658C7.35933 12.297 6.62066 13.4025 6.1167 14.6192C5.61274 15.8359 5.35336 17.1399 5.35336 18.4568L0.574914 18.4568Z" fill="#EB5C30"/>
<path d="M4.84768 8.05142C6.21417 6.66813 7.83974 5.56754 9.63158 4.81248C11.4234 4.05742 13.3464 3.66268 15.2908 3.6508L15.32 8.42916C14.0031 8.4372 12.7007 8.70455 11.4871 9.21593C10.2736 9.72732 9.17262 10.4727 8.24713 11.4096L4.84768 8.05142Z" fill="#ECCA43"/>
<path d="M15.3362 3.65051C17.2806 3.64454 19.2071 4.02161 21.0058 4.76019C22.8045 5.49877 24.4401 6.58439 25.8193 7.95508L22.4508 11.3443C21.5167 10.416 20.409 9.68071 19.1908 9.18049C17.9726 8.68027 16.6677 8.42489 15.3508 8.42893L15.3362 3.65051Z" fill="#95AE23"/>
<path d="M25.744 7.88077C27.1329 9.24157 28.2401 10.8626 29.0025 12.6513C29.765 14.4401 30.1676 16.3614 30.1874 18.3058L25.4092 18.3546C25.3958 17.0377 25.1231 15.7364 24.6067 14.525C24.0904 13.3135 23.3405 12.2156 22.3998 11.294L25.744 7.88077Z" fill="#2C8C08"/>
<path d="M21.1502 10.5143L14.5424 13.567C14.1946 13.7216 13.8854 13.9535 13.6149 14.3012C12.7262 15.3832 12.9194 17.0062 14.0014 17.895C15.0833 18.7837 16.7063 18.5905 17.5951 17.5085L22.1548 11.8281C22.3481 11.5963 22.3867 11.2485 22.2708 10.978C22.0389 10.5143 21.5752 10.3211 21.1502 10.5143Z" fill="#6D7D0F"/>
</svg>
