<svg width="34" height="22" viewBox="0 0 34 22" fill="none" xmlns="http://www.w3.org/2000/svg">
<path d="M0.574914 18.4568C0.574914 16.5124 0.957897 14.587 1.702 12.7906C2.4461 10.9941 3.53674 9.36188 4.91166 7.98696L8.29053 11.3658C7.35933 12.297 6.62066 13.4025 6.1167 14.6192C5.61274 15.8359 5.35336 17.1399 5.35336 18.4568L0.574914 18.4568Z" fill="#EB5C30"/>
<path d="M4.84768 8.0513C6.21417 6.66801 7.83974 5.56742 9.63158 4.81236C11.4234 4.0573 13.3464 3.66256 15.2908 3.65068L15.32 8.42904C14.0031 8.43708 12.7007 8.70443 11.4871 9.21581C10.2736 9.72719 9.17262 10.4726 8.24713 11.4095L4.84768 8.0513Z" fill="#ECCA43"/>
<path d="M15.3362 3.65039C17.2806 3.64442 19.2071 4.02149 21.0058 4.76007C22.8045 5.49865 24.4401 6.58427 25.8193 7.95496L22.4508 11.3442C21.5167 10.4159 20.409 9.68059 19.1908 9.18037C17.9726 8.68015 16.6677 8.42477 15.3508 8.42881L15.3362 3.65039Z" fill="#95AE23"/>
<path d="M25.744 7.88065C27.1329 9.24145 28.2401 10.8625 29.0025 12.6512C29.765 14.4399 30.1676 16.3613 30.1874 18.3056L25.4092 18.3544C25.3958 17.0376 25.1231 15.7363 24.6067 14.5248C24.0904 13.3134 23.3405 12.2155 22.3998 11.2939L25.744 7.88065Z" fill="#2C8C08"/>
<path d="M8.20629 15.8519L14.9803 18.5155C15.3324 18.66 15.7137 18.723 16.1519 18.678C17.5481 18.5721 18.5872 17.3104 18.4813 15.9142C18.3754 14.518 17.1137 13.479 15.7175 13.5849L8.46093 14.2177C8.15983 14.2384 7.88185 14.4509 7.76656 14.7217C7.59183 15.2098 7.77282 15.6784 8.20629 15.8519Z" fill="#6D7D0F"/>
</svg>
