<svg width="25" height="25" viewBox="0 0 25 25" fill="none" xmlns="http://www.w3.org/2000/svg">
<path d="M1.56348 12.1156V17.2917C1.56348 18.3962 2.45891 19.2917 3.56348 19.2917H21.5635C22.668 19.2917 23.5635 18.3962 23.5635 17.2917V7.29166C23.5635 6.18709 22.668 5.29166 21.5635 5.29166H3.56348C2.45891 5.29166 1.56348 6.18709 1.56348 7.29166V12.1156Z" fill="#005899" stroke="#005899" stroke-width="0.7" stroke-miterlimit="10"/>
<line x1="3.86348" y1="9.02503" x2="21.2635" y2="9.02503" stroke="white" stroke-width="0.6" stroke-linecap="round"/>
<circle cx="5.5635" cy="14.6584" r="2.24202" fill="#D7DF23" stroke="white" stroke-width="0.6"/>
<path d="M13.1653 13.247H10.4312V14.1644H11.2954V16.0697H12.4069V14.1644H13.1653V13.247Z" fill="white"/>
<path d="M18.564 13.247H15.8298V14.1644H16.6941V16.0697H17.8055V14.1644H18.564V13.247Z" fill="white"/>
<path d="M13.8537 13.2822L12.7773 16.0521H13.8537L14.4887 14.5878L14.9827 16.0521H16.1647L15.0885 13.2822H13.8537Z" fill="white"/>
<path d="M19.2524 13.2822L18.176 16.0521H19.2524L19.8874 14.5878L20.3814 16.0521H21.5634L20.4872 13.2822H19.2524Z" fill="white"/>
</svg>
