<?xml version="1.0" encoding="UTF-8"?>
<svg width="30px" height="26px" viewBox="0 0 30 26" version="1.1" xmlns="http://www.w3.org/2000/svg" xmlns:xlink="http://www.w3.org/1999/xlink">
    <title>Group 38</title>
    <defs>
        <polygon id="path-1" points="0.0204360334 0.0501557082 5.20981067 0.0501557082 5.20981067 3.52444444 0.0204360334 3.52444444"></polygon>
        <polygon id="path-3" points="0 25.9694356 29.5342667 25.9694356 29.5342667 0 0 0"></polygon>
    </defs>
    <g id="Page-1" stroke="none" stroke-width="1" fill="none" fill-rule="evenodd">
        <g id="FASTag-Landing" transform="translate(-841.000000, -1588.000000)">
            <g id="Group-48" transform="translate(83.000000, 1266.000000)">
                <g id="Group-18" transform="translate(758.000000, 322.000000)">
                    <g id="Group-3" transform="translate(24.324444, 22.444991)">
                        <mask id="mask-2" fill="white">
                            <use xlink:href="#path-1"></use>
                        </mask>
                        <g id="Clip-2"></g>
                        <path d="M5.20981067,2.88120444 C4.97956622,3.37884444 4.58505956,3.53784889 4.04951733,3.52357778 C3.03262844,3.49648 2.01452622,3.51699111 0.997001778,3.5152 C0.414197333,3.51421778 0.0263928889,3.16888 0.0204995556,2.65188444 C0.014664,2.14292 0.411424,1.78718222 0.993015111,1.78573778 C1.80802844,1.78371556 2.62304178,1.78521778 3.47959733,1.78521778 C3.47959733,1.53567556 3.47919289,1.3 3.47965511,1.06438222 C3.48075289,0.517053333 3.71729511,0.176164444 4.16773067,0.0718755556 C4.57182844,-0.0216088889 4.929704,0.189048889 5.16624622,0.658088889 C5.17335289,0.672186667 5.19496178,0.679004444 5.20981067,0.689231111 L5.20981067,2.88120444 Z" id="Fill-1" fill="#787878" mask="url(#mask-2)"></path>
                    </g>
                    <path d="M29.5342551,2.82928533 C29.4813884,2.916992 29.4334329,3.00804978 29.3747884,3.09165422 C29.1730284,3.37973422 28.7827396,3.526432 28.4629396,3.439072 C28.0794684,3.33432089 27.8246107,3.02665422 27.8083751,2.62428978 C27.7968196,2.33869422 27.8061218,2.05228978 27.8061218,1.73329867 C27.5261884,1.73329867 27.2701751,1.73335644 27.0141618,1.73329867 C26.4190507,1.73312533 25.823824,1.73855644 25.2287707,1.73104533 C24.7184773,1.724632 24.347024,1.35260089 24.3448193,0.863280889 C24.3426907,0.393778667 24.7148373,0.00984533333 25.2082596,0.00626311111 C26.3600596,-0.00211466667 27.5119751,0.00308533333 28.6638907,0.00372088889 C29.1066996,0.003952 29.344744,0.287814222 29.5342551,0.637312 L29.5342551,2.82928533 Z" id="Fill-4" fill="#787878"></path>
                    <mask id="mask-4" fill="white">
                        <use xlink:href="#path-3"></use>
                    </mask>
                    <g id="Clip-7"></g>
                    <path d="M3.48596444,19.0157067 L26.0581822,19.0157067 L26.0581822,6.93743556 L3.48596444,6.93743556 L3.48596444,19.0157067 Z M14.7732,5.19429444 C18.7611956,5.19429444 22.7490756,5.19429444 26.7370711,5.19445333 C27.4910133,5.19445333 27.8040822,5.50714667 27.8040822,6.26189778 C27.8040822,10.7406 27.8040822,15.21936 27.8040822,19.69812 C27.8040822,20.4544311 27.49136,20.7689733 26.7404222,20.7691547 C18.7549556,20.7691547 10.7694889,20.7691547 2.78402222,20.7689733 C2.04874222,20.7689733 1.73524,20.4542 1.73495111,19.7153956 C1.73495111,15.2270444 1.73495111,10.7386356 1.73495111,6.25028444 C1.73495111,5.5094 2.04637333,5.19456889 2.78061333,5.19451111 C6.77814222,5.19429444 10.7757289,5.19429444 14.7732,5.19429444 L14.7732,5.19429444 Z" id="Fill-6" fill="#787878" mask="url(#mask-4)"></path>
                    <path d="M1.73433867,1.73277289 C1.73433867,2.03939956 1.74034756,2.30725733 1.73306756,2.57482622 C1.71925867,3.08569733 1.34601422,3.46315956 0.864436444,3.46223681 C0.382916444,3.46136844 0.0141786667,3.08419511 0.00701422222,2.56696844 C-0.000728,2.00016844 -0.00171022222,1.43307956 0.00776533333,0.866279556 C0.0160275556,0.372857333 0.373267556,0.0100128889 0.867729778,0.00631511111 C2.02056978,-0.00229377778 3.17352533,-0.00183155556 4.32630756,0.00602622222 C4.81637867,0.00937733333 5.18846756,0.391692889 5.19313207,0.864199556 C5.19776978,1.34167511 4.81354756,1.72641733 4.30510311,1.73080844 C3.46114311,1.73808844 2.61700978,1.73277289 1.73433867,1.73277289" id="Fill-8" fill="#787878" mask="url(#mask-4)"></path>
                    <path d="M1.73174444,24.2305902 C2.61279778,24.2305902 3.45646889,24.2241769 4.29990889,24.2326702 C4.95279778,24.2391991 5.37122444,24.8510658 5.12220222,25.4295947 C4.98087778,25.757888 4.71590889,25.9512702 4.36028667,25.9546213 C3.18832222,25.9658302 2.01606889,25.9661769 0.844104444,25.9556613 C0.370557778,25.9513858 0.0186911111,25.5850169 0.00881111111,25.1010702 C-0.00309111111,24.5152036 -0.00280222222,23.9287013 0.00904222222,23.3427769 C0.0185755556,22.8694036 0.398002222,22.5062702 0.859357778,22.5011858 C1.31805556,22.4961591 1.70048667,22.8493547 1.72862444,23.3260213 C1.74549556,23.6124258 1.73174444,23.9006791 1.73174444,24.2305902" id="Fill-9" fill="#787878" mask="url(#mask-4)"></path>
                    <path d="M6.98376756,12.9816382 C6.98394089,11.8390827 6.97619867,10.6964693 6.98682978,9.55402933 C6.99335867,8.84486489 7.67981644,8.43643378 8.27902978,8.77616711 C8.60379867,8.96030489 8.71565644,9.262136 8.71508089,9.62486489 C8.71207422,11.6699093 8.71363422,13.7149538 8.71363422,15.7599982 C8.71363422,15.9712338 8.71710089,16.1825271 8.71276756,16.3936471 C8.701732,16.9259538 8.33334089,17.310176 7.84194089,17.3063908 C7.35054089,17.3026071 6.98734978,16.918616 6.98503867,16.380416 C6.98018533,15.2475093 6.98359422,14.1145449 6.98376756,12.9816382" id="Fill-10" fill="#787878" mask="url(#mask-4)"></path>
                    <path d="M22.555104,12.9847987 C22.5549884,14.1273542 22.5585129,15.2699098 22.5531973,16.4124076 C22.5512907,16.8257498 22.3383796,17.1201276 21.9743218,17.2530742 C21.6370729,17.3761987 21.2590329,17.2950787 21.0441573,16.9960209 C20.9283129,16.8348209 20.8364462,16.6138787 20.8351751,16.4192253 C20.8211351,14.1246964 20.8226951,11.8299364 20.8290507,9.535292 C20.8304951,9.02193644 21.2159884,8.65117644 21.7012062,8.65705693 C22.1845751,8.66302089 22.5500196,9.03742089 22.5530818,9.55718978 C22.559784,10.6996876 22.5551618,11.8422431 22.555104,12.9847987" id="Fill-11" fill="#787878" mask="url(#mask-4)"></path>
                    <path d="M12.1741187,11.2646156 C12.1741187,11.8018911 12.1764298,12.3391667 12.1734831,12.8763844 C12.1704209,13.4534111 11.811852,13.84942 11.3020787,13.8453494 C10.800972,13.8413311 10.4467364,13.4526022 10.4449453,12.8913489 C10.441652,11.7976733 10.4415942,10.70394 10.4450031,9.61026444 C10.4467942,9.04774 10.798892,8.66149556 11.3013276,8.65706607 C11.813412,8.65259778 12.1703053,9.04548667 12.1734253,9.62407333 C12.1764876,10.1708822 12.1741187,10.7177489 12.1741187,11.2646156" id="Fill-12" fill="#787878" mask="url(#mask-4)"></path>
                    <path d="M15.6344644,11.2672387 C15.6345222,11.8141053 15.6381622,12.360972 15.6334822,12.9077809 C15.6287444,13.4592698 15.2599489,13.850772 14.75994,13.8453409 C14.2692333,13.8399676 13.9082956,13.4559764 13.9059844,12.9174876 C13.9012467,11.8046298 13.9009,10.6917142 13.9061578,9.57885644 C13.9087,9.03961644 14.2704467,8.66001644 14.7643889,8.65711118 C15.2587933,8.65423867 15.6265489,9.03395422 15.6329044,9.56914978 C15.6396067,10.1350831 15.6344067,10.7011898 15.6344644,11.2672387" id="Fill-13" fill="#787878" mask="url(#mask-4)"></path>
                    <path d="M17.3649782,11.2396209 C17.3649782,10.6927542 17.3615116,10.1458876 17.3659604,9.59902089 C17.3704671,9.04111867 17.7297871,8.65510533 18.2334938,8.65711965 C18.7359293,8.659092 19.0921293,9.04614533 19.0939782,9.60647422 C19.0975604,10.7002076 19.0972716,11.7938831 19.0941516,12.8876164 C19.092476,13.4486964 18.7396271,13.839332 18.2406582,13.8453409 C17.7290938,13.8514653 17.3688493,13.4570742 17.3656138,12.8801631 C17.3624938,12.3333542 17.3649204,11.7864876 17.3649782,11.2396209" id="Fill-14" fill="#787878" mask="url(#mask-4)"></path>
                    <path d="M11.3188516,17.3071311 C10.8492338,17.3125622 10.4540916,16.9297844 10.4445582,16.4601667 C10.4348516,15.9785311 10.830976,15.5762822 11.3127849,15.5785261 C11.7826916,15.5806733 12.1712471,15.9695178 12.1732186,16.4395978 C12.1751182,16.9078289 11.787256,17.3017 11.3188516,17.3071311" id="Fill-15" fill="#787878" mask="url(#mask-4)"></path>
                    <path d="M14.7637938,17.3071311 C14.2933093,17.3038956 13.9060827,16.9148778 13.9050984,16.4445667 C13.9040604,15.9630467 14.3075804,15.5675578 14.7888116,15.5785356 C15.2584293,15.5892244 15.6403404,15.9855222 15.633696,16.45514 C15.6270516,16.9234289 15.2320249,17.3103667 14.7637938,17.3071311" id="Fill-16" fill="#787878" mask="url(#mask-4)"></path>
                    <path d="M18.2188933,15.5785067 C18.6883378,15.5723244 19.0842311,15.9550444 19.0941689,16.4247778 C19.1041067,16.8936444 18.72364,17.2935822 18.2548311,17.3071022 C17.77412,17.3209689 17.3675956,16.9275022 17.3655081,16.4463289 C17.3635511,15.9757289 17.74812,15.5846889 18.2188933,15.5785067" id="Fill-17" fill="#787878" mask="url(#mask-4)"></path>
                </g>
            </g>
        </g>
    </g>
</svg>