<svg width="23" height="23" viewBox="0 0 23 23" fill="none" xmlns="http://www.w3.org/2000/svg">
<g clip-path="url(#clip0_285_11469)">
<path d="M0.554688 11.3299C0.586587 11.1756 0.618494 11.0159 0.661027 10.8562C0.85815 10.0529 1.3168 9.33811 1.96466 8.82454C2.61252 8.31096 3.41273 8.02782 4.23912 8.01979H4.30824C4.80898 7.9858 5.30939 8.09076 5.75436 8.32313C6.39172 8.6362 7.09645 8.78688 7.80598 8.76182C8.5155 8.73675 9.20786 8.5367 9.82159 8.17944C10.0336 8.07005 10.2689 8.01346 10.5074 8.01447C11.3277 7.95602 12.147 8.14114 12.8627 8.54663C13.3373 8.82198 13.7442 9.20021 14.0536 9.65355C13.7825 9.70676 13.522 9.75999 13.304 9.79192C13.2381 9.78362 13.1776 9.75144 13.1339 9.70146C12.8422 9.4032 12.4928 9.1677 12.107 9.00939C11.7212 8.85108 11.3071 8.77328 10.8902 8.78079C10.5448 8.77607 10.2028 8.85073 9.89071 8.99899C9.23067 9.31958 8.51001 9.49584 7.77664 9.51602C7.04328 9.53621 6.31404 9.39985 5.6374 9.11605L5.50448 9.06818H5.45131C5.45131 9.12672 5.48853 9.17993 5.5098 9.22782L8.10432 14.2302C8.12595 14.2827 8.16415 14.3268 8.2131 14.3556C8.26205 14.3844 8.31906 14.3964 8.37546 14.3898C8.86459 14.3898 9.35372 14.3898 9.84285 14.3898C10.0906 14.3835 10.3371 14.4265 10.568 14.5166C10.7989 14.6066 11.0096 14.7417 11.1878 14.9141C11.3659 15.0865 11.508 15.2927 11.6057 15.5207C11.7034 15.7486 11.7548 15.9937 11.7568 16.2418C11.7555 16.4891 11.705 16.7337 11.6082 16.9612C11.5114 17.1888 11.3703 17.3948 11.1931 17.5672C11.0159 17.7396 10.8062 17.8749 10.5762 17.9653C10.3462 18.0557 10.1005 18.0994 9.85349 18.0937H4.31355V21.441H3.56923V18.1044H2.43678C2.01365 18.1029 1.60352 17.9579 1.2733 17.693C0.943074 17.4282 0.712252 17.0592 0.618493 16.6462C0.606719 16.6029 0.592518 16.5602 0.575959 16.5185L0.554688 11.3299ZM2.00081 9.8345C1.54417 10.374 1.29527 11.0592 1.29902 11.7663V16.1726C1.29037 16.3307 1.31537 16.4888 1.37238 16.6365C1.42939 16.7842 1.5171 16.9181 1.6297 17.0293C1.74231 17.1405 1.87723 17.2265 2.02553 17.2815C2.17384 17.3366 2.33214 17.3595 2.48995 17.3487H5.67993H5.89791C5.51511 16.6196 5.1589 15.9172 4.78142 15.22C4.75587 15.1903 4.72396 15.1667 4.68806 15.1511C4.65216 15.1354 4.6132 15.128 4.57407 15.1295C4.23381 15.1295 3.89886 15.1295 3.55328 15.1295V14.3792H4.35077L2.00081 9.8345ZM2.5697 9.30233L3.57985 11.2394C4.60065 13.2084 5.62499 15.1774 6.65287 17.1465C6.69009 17.2263 6.78047 17.3274 6.84959 17.3327C7.51417 17.3327 8.17875 17.3327 8.88054 17.3327L8.7689 17.1039L7.76937 15.1828C6.70604 13.1002 5.62499 11.0212 4.52622 8.94576C4.48368 8.86061 4.38267 8.75951 4.30292 8.75951C3.67999 8.74751 3.0706 8.94209 2.5697 9.31295V9.30233ZM8.59345 15.1029C8.60203 15.1425 8.61268 15.1816 8.62535 15.22C8.97093 15.8852 9.31651 16.5558 9.68867 17.2156C9.7126 17.2504 9.74427 17.279 9.78119 17.2993C9.8181 17.3196 9.85924 17.3311 9.90133 17.3327C10.187 17.3316 10.4613 17.2204 10.6672 17.0222C10.8731 16.824 10.9949 16.5541 11.0072 16.2684C11.0218 15.9782 10.9218 15.6939 10.7288 15.4769C10.5359 15.2598 10.2654 15.1274 9.97577 15.1083C9.5079 15.0976 9.06131 15.1136 8.59345 15.1136V15.1029Z" fill="#4196D2" stroke="#4196D2" stroke-width="0.2" stroke-miterlimit="10"/>
<path d="M17.5662 22.9465C17.2419 22.7815 16.9122 22.6325 16.6039 22.4462C15.3449 21.7493 14.2977 20.7245 13.5732 19.4804C12.8488 18.2362 12.4741 16.8191 12.4888 15.3791C12.4569 13.9689 12.4888 12.5533 12.4888 11.1218C12.4888 10.7546 12.5792 10.6481 12.9407 10.5896C14.515 10.3996 16.0422 9.92734 17.4492 9.19532C17.53 9.14861 17.6217 9.12402 17.715 9.12402C17.8084 9.12402 17.9 9.14861 17.9809 9.19532C19.3989 9.96239 20.948 10.457 22.5479 10.6535C22.599 10.6526 22.6498 10.6624 22.697 10.6821C22.7443 10.7018 22.7869 10.7311 22.8223 10.768C22.8578 10.805 22.8852 10.8488 22.9029 10.8969C22.9206 10.9449 22.9283 10.9961 22.9253 11.0472C22.9253 12.7449 23.0051 14.4584 22.8615 16.1507C22.7707 17.5023 22.331 18.8071 21.5855 19.9377C20.84 21.0682 19.8141 21.9857 18.6082 22.6006C18.3637 22.7336 18.1138 22.8507 17.8639 22.9731L17.5662 22.9465ZM13.2331 11.3346C13.2331 11.9679 13.2331 12.5692 13.2331 13.1759C13.2331 14.1498 13.1799 15.129 13.281 16.0869C13.3868 17.3606 13.8277 18.5836 14.5589 19.6314C15.2901 20.6793 16.2855 21.5146 17.4439 22.0524C17.5247 22.0992 17.6164 22.1237 17.7097 22.1237C17.803 22.1237 17.8947 22.0992 17.9756 22.0524C19.2438 21.4582 20.3148 20.5119 21.0613 19.326C21.8077 18.1402 22.1982 16.7647 22.1863 15.3631C22.2182 14.0966 22.1863 12.83 22.1863 11.5635V11.3346L21.9577 11.2867C20.7172 11.1271 19.5107 10.7677 18.3849 10.2224C18.1794 10.1073 17.9479 10.0468 17.7124 10.0468C17.4769 10.0468 17.2453 10.1073 17.0398 10.2224C15.8386 10.7947 14.5533 11.1703 13.2331 11.3346Z" fill="#4196D2" stroke="#4196D2" stroke-width="0.2" stroke-miterlimit="10"/>
<path d="M7.62998 8.01937C6.64294 8.01937 5.69633 7.62691 4.99838 6.9283C4.30044 6.2297 3.90834 5.28218 3.90834 4.2942C3.90413 3.80233 3.99728 3.31449 4.18242 2.85884C4.36757 2.40319 4.64103 1.98875 4.98704 1.63945C5.33305 1.29014 5.74474 1.01289 6.19836 0.823688C6.65199 0.634487 7.13856 0.537091 7.62998 0.537109C8.12096 0.537097 8.60709 0.634332 9.06036 0.823201C9.51364 1.01207 9.92509 1.28886 10.271 1.63759C10.617 1.98633 10.8905 2.40014 11.076 2.85517C11.2615 3.31021 11.3551 3.79745 11.3516 4.28888C11.3523 4.77852 11.2566 5.26351 11.0699 5.71609C10.8831 6.16866 10.6091 6.57994 10.2635 6.92642C9.91781 7.2729 9.5073 7.54775 9.05542 7.73529C8.60355 7.92283 8.11916 8.01937 7.62998 8.01937ZM10.6179 4.2942C10.6179 3.50333 10.3044 2.74479 9.74622 2.18506C9.18802 1.62533 8.43073 1.31017 7.64061 1.30876C6.85134 1.31014 6.09456 1.62351 5.53497 2.18064C4.97538 2.73777 4.65827 3.49358 4.65267 4.28358C4.65124 5.07403 4.9625 5.8329 5.51841 6.39432C6.07432 6.95574 6.82966 7.27403 7.61935 7.27965C8.01462 7.28178 8.40637 7.20527 8.77183 7.05453C9.13729 6.90378 9.46918 6.68183 9.74819 6.40156C10.0272 6.1213 10.2478 5.78831 10.3971 5.42197C10.5464 5.05563 10.6215 4.66324 10.6179 4.2676V4.2942Z" fill="#4196D2" stroke="#4196D2" stroke-width="0.2" stroke-miterlimit="10"/>
<path d="M8.44811 10.7393H8.44279C8.06988 10.7393 7.76758 11.0418 7.76758 11.4151C7.76758 11.7884 8.06988 12.091 8.44279 12.091H8.44811C8.82102 12.091 9.12332 11.7884 9.12332 11.4151C9.12332 11.0418 8.82102 10.7393 8.44811 10.7393Z" fill="#EA9AA6" stroke="#EA9AA6" stroke-width="0.2" stroke-miterlimit="10"/>
<path d="M20.7455 12.9365L21.2772 13.4687L21.1549 13.6124L16.9016 17.8697C16.6251 18.1411 16.4603 18.1464 16.1892 17.8697L14.0625 15.7411L14.5942 15.2621L16.4869 17.1673L20.7455 12.9365Z" fill="#EA9AA6" stroke="#EA9AA6" stroke-width="0.2" stroke-miterlimit="10"/>
</g>
<defs>
<clipPath id="clip0_285_11469">
<rect width="22.5" height="22.5" fill="white" transform="translate(0.5 0.5)"/>
</clipPath>
</defs>
</svg>
