<svg width="23" height="22" viewBox="0 0 23 22" fill="none" xmlns="http://www.w3.org/2000/svg">
<g clip-path="url(#clip0_834_7986)">
<path d="M16.9841 11.0964C16.9841 12.2673 16.6359 13.4118 15.9835 14.3853C15.331 15.3589 14.4037 16.1176 13.3187 16.5657C12.2338 17.0137 11.0399 17.131 9.88814 16.9026C8.73636 16.6741 7.67837 16.1103 6.84798 15.2824C6.01759 14.4545 5.45208 13.3997 5.22298 12.2513C4.99387 11.103 5.11146 9.91268 5.56086 8.83096C6.01027 7.74924 6.77131 6.82468 7.74775 6.1742C8.72418 5.52371 9.87216 5.17651 11.0465 5.17651C11.8263 5.17645 12.5984 5.32953 13.3188 5.62701C14.0392 5.92449 14.6938 6.36054 15.2452 6.91027C15.7966 7.45999 16.2339 8.11262 16.5323 8.83089C16.8307 9.54915 16.9842 10.319 16.9841 11.0964Z" fill="#FFD644"/>
<path d="M8.80957 19.687C8.90291 19.9443 9.06124 20.1733 9.26927 20.3517C9.47729 20.5302 9.72798 20.6521 9.99709 20.7058V20.9811C9.99709 21.2513 10.1048 21.5105 10.2964 21.7015C10.488 21.8926 10.7479 21.9999 11.0189 21.9999C11.2899 21.9999 11.5498 21.8926 11.7415 21.7015C11.9331 21.5105 12.0407 21.2513 12.0407 20.9811V20.7058C12.3134 20.6613 12.5685 20.5426 12.778 20.3629C12.9874 20.1831 13.143 19.9493 13.2278 19.687H8.80957Z" fill="#FFD644"/>
<path d="M8.729 18.1729H13.341V19.1916H8.729V18.1729Z" fill="#FFD644"/>
<path d="M8.729 16.5205H13.341V17.5393H8.729V16.5205Z" fill="#FFD644"/>
<path d="M0.524518 10.4907C0.455593 10.4907 0.387331 10.5041 0.32364 10.5304C0.259949 10.5567 0.202078 10.5952 0.15334 10.6438C0.104603 10.6924 0.0659546 10.7501 0.039608 10.8136C0.0132613 10.8771 -0.000266779 10.9452 -0.000201908 11.0139C-0.00253785 11.0832 0.00943711 11.1523 0.0349801 11.2168C0.0605231 11.2813 0.099089 11.3399 0.148287 11.389C0.197486 11.438 0.256267 11.4765 0.320986 11.502C0.385705 11.5274 0.454981 11.5394 0.524518 11.537H3.09289C3.23205 11.537 3.36552 11.4819 3.46392 11.3838C3.56232 11.2857 3.61761 11.1526 3.61761 11.0139C3.61761 10.8751 3.56232 10.7421 3.46392 10.644C3.36552 10.5458 3.23205 10.4907 3.09289 10.4907H0.524518Z" fill="#FFD644"/>
<path d="M3.59001 3.08394C3.45193 3.08394 3.34343 3.13901 3.23099 3.24915C3.13794 3.34522 3.08594 3.47355 3.08594 3.6071C3.08594 3.74065 3.13794 3.86898 3.23099 3.96504L5.05568 5.78428C5.15289 5.86949 5.27906 5.91449 5.40842 5.91008C5.53778 5.90567 5.66058 5.85219 5.75173 5.76057C5.84287 5.66894 5.8955 5.54607 5.89885 5.41706C5.90221 5.28805 5.85604 5.16263 5.76977 5.06642L3.94508 3.24718C3.90212 3.19385 3.84734 3.15118 3.78505 3.12252C3.72275 3.09385 3.65464 3.07998 3.58606 3.08198L3.59001 3.08394Z" fill="#FFD644"/>
<path d="M11.0467 2.31511e-07C10.9778 -6.4446e-05 10.9095 0.0134232 10.8458 0.0396913C10.7821 0.0659593 10.7243 0.104492 10.6755 0.153084C10.6268 0.201677 10.5881 0.259374 10.5618 0.322875C10.5354 0.386377 10.5219 0.454435 10.522 0.523154V3.08386C10.522 3.22261 10.5773 3.35567 10.6757 3.45378C10.7741 3.55189 10.9075 3.60701 11.0467 3.60701C11.1859 3.60701 11.3193 3.55189 11.4177 3.45378C11.5161 3.35567 11.5714 3.22261 11.5714 3.08386V0.523154C11.5438 0.220276 11.3229 2.31511e-07 11.0467 2.31511e-07Z" fill="#FFD644"/>
<path d="M18.4757 3.08375C18.3376 3.08375 18.2291 3.13882 18.1167 3.24896L16.292 5.0682C16.245 5.11546 16.2077 5.1715 16.1824 5.2331C16.1571 5.29471 16.1443 5.36068 16.1445 5.42725C16.1448 5.49382 16.1582 5.55968 16.184 5.62107C16.2098 5.68247 16.2475 5.7382 16.2949 5.78507C16.3423 5.83195 16.3985 5.86906 16.4603 5.89428C16.5221 5.9195 16.5883 5.93234 16.6551 5.93207C16.7218 5.9318 16.7879 5.91841 16.8495 5.89269C16.911 5.86696 16.9669 5.82939 17.014 5.78212L18.8386 3.96289C18.9317 3.86682 18.9837 3.73849 18.9837 3.60494C18.9837 3.47139 18.9317 3.34306 18.8386 3.24699C18.7282 3.13686 18.6177 3.08179 18.4796 3.08179L18.4757 3.08375Z" fill="#FFD644"/>
<path d="M19.0003 10.4905C18.8611 10.4905 18.7277 10.5456 18.6293 10.6437C18.5309 10.7419 18.4756 10.8749 18.4756 11.0137C18.4756 11.1524 18.5309 11.2855 18.6293 11.3836C18.7277 11.4817 18.8611 11.5368 19.0003 11.5368H21.541C21.61 11.5369 21.6782 11.5234 21.7419 11.4971C21.8056 11.4709 21.8635 11.4323 21.9122 11.3837C21.961 11.3352 21.9996 11.2775 22.026 11.214C22.0523 11.1505 22.0658 11.0824 22.0658 11.0137C22.0681 10.9443 22.0561 10.8753 22.0306 10.8107C22.005 10.7462 21.9665 10.6876 21.9173 10.6386C21.8681 10.5895 21.8093 10.5511 21.7446 10.5256C21.6799 10.5001 21.6106 10.4882 21.541 10.4905H19.0003Z" fill="#FFD644"/>
</g>
<defs>
<clipPath id="clip0_834_7986">
<rect width="22.0659" height="22" fill="white"/>
</clipPath>
</defs>
</svg>
