<svg width="28" height="29" viewBox="0 0 28 29" fill="none" xmlns="http://www.w3.org/2000/svg">
<path fill-rule="evenodd" clip-rule="evenodd" d="M1.7168 1.7041H15.5641V21.7622H1.7168V1.7041Z" fill="white"/>
<path fill-rule="evenodd" clip-rule="evenodd" d="M11.6946 10.4609H4.16007C3.95643 10.4609 3.80371 10.6135 3.80371 10.8172C3.80371 11.0208 3.95643 11.1736 4.16007 11.1736H11.6946C11.8983 11.1736 12.051 11.0208 12.051 10.8172C12.051 10.6135 11.8983 10.4609 11.6946 10.4609Z" fill="#4197D3"/>
<path fill-rule="evenodd" clip-rule="evenodd" d="M10.371 12.3438H4.16007C3.95643 12.3438 3.80371 12.4966 3.80371 12.7002C3.80371 12.9038 3.95643 13.0564 4.16007 13.0564H10.371C10.5746 13.0564 10.7274 12.9038 10.7274 12.7002C10.7274 12.4966 10.5746 12.3438 10.371 12.3438Z" fill="#4197D3"/>
<path fill-rule="evenodd" clip-rule="evenodd" d="M8.58903 14.1768H4.21085C4.00721 14.1768 3.85449 14.3296 3.85449 14.5332C3.85449 14.7369 4.00721 14.8894 4.21085 14.8894H8.58903C8.79267 14.8894 8.9454 14.7369 8.9454 14.5332C8.9454 14.3296 8.79267 14.1768 8.58903 14.1768Z" fill="#4197D3"/>
<path fill-rule="evenodd" clip-rule="evenodd" d="M8.28402 18.3516H6.75674C6.55311 18.3516 6.40039 18.5041 6.40039 18.7078C6.40039 18.9114 6.55311 19.0642 6.75674 19.0642H8.28402C8.48765 19.0642 8.64039 18.9114 8.64039 18.7078C8.64039 18.5041 8.48765 18.3516 8.28402 18.3516Z" fill="#4197D3"/>
<path fill-rule="evenodd" clip-rule="evenodd" d="M5.28007 18.3516H4.16007C3.95643 18.3516 3.80371 18.5041 3.80371 18.7078C3.80371 18.9114 3.95643 19.0642 4.16007 19.0642H5.28007C5.48371 19.0642 5.63644 18.9114 5.63644 18.7078C5.63644 18.5041 5.48371 18.3516 5.28007 18.3516Z" fill="#4197D3"/>
<path fill-rule="evenodd" clip-rule="evenodd" d="M10.376 9.90039H24.7323V26.4458H10.376V9.90039Z" fill="white"/>
<path fill-rule="evenodd" clip-rule="evenodd" d="M21.4743 10.5618C21.627 10.6636 21.627 10.8672 21.5252 11.0708L19.7434 14.3292C20.2016 14.6856 21.1179 15.3982 22.0343 16.5182C22.7979 17.4346 23.4088 18.4019 23.8161 19.3692C24.3761 20.6419 24.6307 21.9147 24.6307 23.2383C24.6307 25.0201 23.1543 26.4455 21.4234 26.4455H13.5325C11.7507 26.4455 10.3252 25.0201 10.3252 23.2383C10.3252 21.9147 10.5797 20.591 11.1397 19.3692C11.5979 18.351 12.2088 17.3837 12.9216 16.5182C13.8379 15.4491 14.7543 14.7363 15.2125 14.3799L13.3288 11.5292C13.227 11.3765 13.227 11.1729 13.3797 11.0201C14.0416 10.3583 14.7034 10.0527 15.467 10.0527C16.0779 10.0527 16.7397 10.2563 17.5543 10.5618C17.6052 10.5618 17.6561 10.6127 17.7579 10.6127C18.0125 10.6127 18.267 10.5109 18.6234 10.3582C19.0307 10.2054 19.4888 10.002 19.947 10.002C20.5579 9.90014 21.0161 10.1545 21.4743 10.5618ZM19.1325 14.8383H16.027C15.7216 15.042 14.7034 15.8055 13.6852 17.0273C12.107 18.9619 11.2416 21.0492 11.2416 23.2383C11.2416 24.562 12.3106 25.6309 13.6343 25.6309H21.5252C22.8488 25.6309 23.9179 24.562 23.9179 23.2383C23.9179 21.0492 23.1034 18.9619 21.4743 17.0273C20.4561 15.8055 19.4379 15.0929 19.1325 14.8383ZM18.9797 11.0201C18.6234 11.1729 18.2161 11.3254 17.8088 11.3254C17.6561 11.3254 17.5034 11.2746 17.3507 11.2237C16.587 10.9692 16.0779 10.7656 15.5688 10.7656C15.1107 10.7656 14.7034 10.9183 14.2961 11.2747L16.1288 13.9728H19.0307L20.7106 10.9182C20.4052 10.7146 20.2016 10.7146 20.0488 10.7146C19.6416 10.7146 19.3361 10.8674 18.9797 11.0201Z" fill="#4197D3" stroke="#4197D3" stroke-width="0.5" stroke-linecap="round" stroke-linejoin="round"/>
<path fill-rule="evenodd" clip-rule="evenodd" d="M19.5854 17.9955C19.789 17.9955 19.9417 18.1483 19.9417 18.3519C19.9417 18.5556 19.789 18.7082 19.5854 18.7082H18.669C18.8217 18.9118 18.9236 19.1156 18.9745 19.3701H19.5854C19.789 19.3701 19.9417 19.5226 19.9417 19.6754V19.7263C19.9417 19.93 19.789 20.0828 19.5854 20.0828H18.9745V20.1338C18.7708 20.8974 18.109 21.4572 17.3454 21.4572H17.2436H17.1926L18.9236 23.0354C19.0763 23.1372 19.0763 23.3408 18.9745 23.4936L18.9236 23.5445C18.7708 23.6972 18.5672 23.6972 18.4145 23.5445L16.0217 21.3046C15.9708 21.2537 15.9199 21.1518 15.9199 21.05C15.9199 20.8464 16.0727 20.6936 16.2763 20.6936H17.2436C17.7017 20.6936 18.0581 20.4391 18.2617 20.0318V19.9809H16.3272C16.1236 19.9809 15.9708 19.8281 15.9708 19.6754V19.6247C15.9708 19.421 16.1236 19.2682 16.3272 19.2682H18.2617C18.109 18.9118 17.7527 18.6574 17.3454 18.6065H17.2945H16.3272C16.1236 18.6065 15.9708 18.4537 15.9708 18.25C15.9708 18.0464 16.1236 17.8936 16.3272 17.8936H19.5854V17.9955Z" fill="#EB9AA7"/>
<path fill-rule="evenodd" clip-rule="evenodd" d="M2.4803 6.49013V21.0502H9.2512V21.8138H2.12393C1.9203 21.8138 1.76758 21.661 1.76758 21.4573V6.54109V3.843V2.16286C1.76758 1.95922 1.9203 1.80664 2.12393 1.80664H3.19303H6.04394H13.1203H15.2076C15.4112 1.80664 15.5639 1.95922 15.5639 2.16286V3.843V9.23917H14.8003V3.843V2.51932H13.0694H5.99303H3.14211H2.42939V3.843V6.49013H2.4803Z" fill="#4197D3" stroke="#4197D3" stroke-width="0.5" stroke-linejoin="round"/>
<path fill-rule="evenodd" clip-rule="evenodd" d="M5.84007 6.5918H4.16007C3.95643 6.5918 3.80371 6.74437 3.80371 6.94801C3.80371 7.15165 3.95643 7.30447 4.16007 7.30447H5.84007C6.04371 7.30447 6.19643 7.15165 6.19643 6.94801C6.19643 6.74437 6.04371 6.5918 5.84007 6.5918Z" fill="#EB9AA7"/>
<path fill-rule="evenodd" clip-rule="evenodd" d="M7.16358 4.86035H4.21085C4.00721 4.86035 3.85449 5.01293 3.85449 5.21657C3.85449 5.4202 4.00721 5.57303 4.21085 5.57303H7.16358C7.36722 5.57303 7.51994 5.4202 7.51994 5.21657C7.51994 5.01293 7.36722 4.86035 7.16358 4.86035Z" fill="#EB9AA7"/>
<path d="M25.7959 21.8643C26.2032 24.4606 25.6941 26.0896 24.2178 26.8023" stroke="#EB9AA7" stroke-linecap="round" stroke-linejoin="round"/>
</svg>
