<svg width="12" height="12" viewBox="0 0 12 12" fill="none" xmlns="http://www.w3.org/2000/svg">
<g clip-path="url(#clip0_547_5490)">
<path d="M5.49972 7.08398C5.55133 7.08404 5.60244 7.07392 5.65013 7.0542C5.69782 7.03448 5.74115 7.00554 5.77765 6.96905C5.81414 6.93256 5.84307 6.88923 5.86279 6.84154C5.88252 6.79385 5.89264 6.74273 5.89258 6.69113L5.89258 2.95898C5.89258 2.85479 5.85119 2.75487 5.77751 2.68119C5.70384 2.60752 5.60392 2.56613 5.49972 2.56613C5.39553 2.56613 5.29561 2.60752 5.22193 2.68119C5.14826 2.75487 5.10687 2.85479 5.10687 2.95898L5.10687 6.69113C5.10681 6.74273 5.11693 6.79385 5.13665 6.84154C5.15637 6.88923 5.18531 6.93256 5.2218 6.96905C5.25829 7.00554 5.30162 7.03448 5.34931 7.0542C5.397 7.07392 5.44812 7.08404 5.49972 7.08398Z" fill="#D62049"/>
<path d="M5.09226 8.43974C5.13871 8.50888 5.20189 8.56515 5.27592 8.60331C5.34996 8.64147 5.43244 8.66029 5.5157 8.65802C5.59897 8.65574 5.6803 8.63245 5.75214 8.5903C5.82398 8.54815 5.88399 8.48851 5.9266 8.41694C5.9692 8.34537 5.99301 8.26419 5.99581 8.18094C5.99862 8.09769 5.98032 8.01509 5.94262 7.94082C5.90493 7.86654 5.84906 7.80301 5.78022 7.75612C5.71138 7.70924 5.63179 7.68052 5.54887 7.67265C5.45578 7.66382 5.36209 7.6816 5.27871 7.72391C5.19532 7.76623 5.12566 7.83135 5.07783 7.91171C5.03 7.99206 5.00597 8.08434 5.00852 8.17781C5.01107 8.27129 5.04011 8.36212 5.09226 8.43974Z" fill="#D62049"/>
<path d="M5.50014 11.0127C6.77432 11.0141 8.00956 10.5736 8.99532 9.76629C9.98108 8.95894 10.6563 7.8347 10.906 6.58522C11.1556 5.33573 10.9642 4.03834 10.3643 2.91419C9.7645 1.79004 8.79335 0.908712 7.61644 0.420438C6.43953 -0.067835 5.1297 -0.132832 3.91023 0.236527C2.69076 0.605886 1.63713 1.38674 0.928938 2.44598C0.220744 3.50522 -0.098177 4.77729 0.0265388 6.04535C0.151255 7.31341 0.711887 8.49898 1.61287 9.39995C2.64358 10.4316 4.04182 11.0117 5.50014 11.0127V11.0127ZM5.50014 0.798387C6.59236 0.797096 7.65121 1.17464 8.49622 1.86666C9.34123 2.55868 9.92009 3.52234 10.1341 4.59338C10.3481 5.66442 10.1841 6.77654 9.66995 7.74017C9.15579 8.7038 8.32335 9.45928 7.31452 9.87785C6.30569 10.2964 5.18292 10.3522 4.1376 10.0356C3.09227 9.71897 2.1891 9.04964 1.58203 8.14168C0.974963 7.23371 0.701579 6.14331 0.808478 5.05633C0.915378 3.96936 1.39594 2.95311 2.16826 2.1808C3.0517 1.2965 4.25016 0.799249 5.50014 0.798387V0.798387Z" fill="#D62049"/>
</g>
<defs>
<clipPath id="clip0_547_5490">
<rect width="11.0126" height="11.0126" fill="white"/>
</clipPath>
</defs>
</svg>
