<svg width="27" height="29" viewBox="0 0 27 29" fill="none" xmlns="http://www.w3.org/2000/svg">
<mask id="mask0_912_14682" style="mask-type:alpha" maskUnits="userSpaceOnUse" x="11" y="20" width="6" height="9">
<path d="M11.8531 20.6992C11.5975 20.6992 11.3906 20.9139 11.3906 21.1809C11.3906 21.448 11.598 21.6621 11.8531 21.6621H13.0717L13.1588 21.6657C13.696 21.7005 14.1574 22.0634 14.3477 22.5628L14.3565 22.5908H11.8531C11.5975 22.5908 11.3906 22.8054 11.3906 23.0714L11.3948 23.128C11.4191 23.3665 11.6167 23.5531 11.8531 23.5531H14.3597L14.3477 23.5894C14.1476 24.1266 13.6467 24.5005 13.0722 24.502H11.8537C11.7911 24.504 11.7295 24.5184 11.6725 24.5443C11.6154 24.5701 11.5641 24.607 11.5214 24.6528C11.4786 24.6985 11.4454 24.7523 11.4234 24.811C11.4015 24.8696 11.3915 24.932 11.3937 24.9946C11.3948 25.1209 11.4444 25.2419 11.5322 25.3327L14.5857 28.3463C14.6286 28.3894 14.6798 28.4232 14.7363 28.4457C14.7927 28.4681 14.8532 28.4787 14.9139 28.4768C14.9747 28.4749 15.0344 28.4606 15.0893 28.4346C15.1443 28.4087 15.1933 28.3718 15.2334 28.3261L15.2717 28.2805C15.3377 28.1848 15.3686 28.0694 15.3593 27.9536C15.3501 27.8378 15.3012 27.7287 15.2209 27.6448L13.0105 25.4654H13.0706L13.1769 25.4639C14.202 25.4141 15.0622 24.654 15.2961 23.633L15.3142 23.5531H16.1159C16.3689 23.5531 16.5758 23.3385 16.5758 23.0714L16.5732 23.016C16.5457 22.7774 16.3513 22.5908 16.1159 22.5908H15.3137C15.2479 22.2677 15.1174 21.9614 14.93 21.6901L14.9093 21.6621H16.1159C16.3689 21.6621 16.5758 21.4469 16.5758 21.1809C16.5758 20.9149 16.3684 20.6992 16.1159 20.6992H11.8531Z" fill="white"/>
</mask>
<g mask="url(#mask0_912_14682)">
<path fill-rule="evenodd" clip-rule="evenodd" d="M10.4766 29.4951H17.4911V19.7314H10.4766V29.4951Z" fill="#D62049"/>
</g>
<mask id="mask1_912_14682" style="mask-type:alpha" maskUnits="userSpaceOnUse" x="0" y="0" width="27" height="27">
<path d="M0.5 0.476562H26.9444V26.9209H0.5V0.476562Z" fill="white"/>
</mask>
<g mask="url(#mask1_912_14682)">
<path fill-rule="evenodd" clip-rule="evenodd" d="M26.7494 0.671647C26.6245 0.546735 26.455 0.476563 26.2783 0.476562C26.1017 0.476563 25.9322 0.546735 25.8073 0.671647L22.1175 4.36193L18.6688 0.914832C18.607 0.853072 18.5337 0.804088 18.453 0.770676C18.3722 0.737265 18.2857 0.720081 18.1984 0.720105C18.111 0.720129 18.0245 0.737361 17.9438 0.770817C17.8631 0.804272 17.7897 0.853297 17.728 0.915091C17.6662 0.976885 17.6172 1.05024 17.5838 1.13096C17.5504 1.21169 17.5332 1.2982 17.5333 1.38557C17.5333 1.47294 17.5505 1.55944 17.584 1.64015C17.6174 1.72085 17.6665 1.79418 17.7282 1.85594L21.1759 5.30408L16.5066 9.97281C14.8069 8.49088 12.5929 7.58659 10.1672 7.58659C4.83739 7.58659 0.5 11.9224 0.5 17.2533C0.5 22.5842 4.83688 26.9211 10.1678 26.9211C10.2678 26.9211 10.3648 26.9086 10.4654 26.9055C10.2632 26.4855 10.1092 26.0401 10.0055 25.5812C5.48399 25.4931 1.83155 21.7955 1.83155 17.2533C1.83155 12.6577 5.5711 8.91814 10.1678 8.91814C12.387 8.91814 14.402 9.79599 15.8979 11.2157C15.929 11.2815 15.9653 11.3464 16.0203 11.4008C16.0752 11.4552 16.1395 11.4921 16.2054 11.5242C17.6251 13.0191 18.5029 15.0335 18.5029 17.2533C18.5029 17.7946 18.4469 18.323 18.3474 18.8353C18.774 19.0626 19.1663 19.3493 19.5125 19.6867C19.7157 18.9084 19.8345 18.0959 19.8345 17.2533C19.8345 14.8277 18.9302 12.6136 17.4482 10.915L22.1175 6.24467L25.5651 9.69281C25.6268 9.75497 25.7002 9.8043 25.781 9.83797C25.8619 9.87164 25.9486 9.88897 26.0362 9.88897C26.1238 9.88897 26.2105 9.87164 26.2913 9.83797C26.3722 9.8043 26.4456 9.75497 26.5073 9.69281C26.5692 9.63102 26.6183 9.55763 26.6518 9.47684C26.6853 9.39605 26.7025 9.30945 26.7025 9.22199C26.7025 9.13453 26.6853 9.04793 26.6518 8.96715C26.6183 8.88636 26.5692 8.81297 26.5073 8.75118L23.0591 5.30356L26.7494 1.61379C26.8743 1.48884 26.9445 1.3194 26.9445 1.14272C26.9445 0.966041 26.8743 0.796596 26.7494 0.671647" fill="#0073BB"/>
</g>
</svg>
