<svg width="27" height="28" viewBox="0 0 27 28" fill="none" xmlns="http://www.w3.org/2000/svg">
<mask id="mask0_381_10515" style="mask-type:alpha" maskUnits="userSpaceOnUse" x="1" y="0" width="25" height="28">
<path d="M1.37012 0.209961H25.7497V27.7064H1.37012V0.209961Z" fill="white"/>
</mask>
<g mask="url(#mask0_381_10515)">
<path fill-rule="evenodd" clip-rule="evenodd" d="M13.5654 0.209961C13.761 0.209961 13.9476 0.277604 14.0894 0.399713C16.9581 3.04306 20.4118 4.27733 24.9531 4.27733C25.3595 4.27733 25.6898 4.5848 25.6898 4.96343C25.6898 5.29549 25.6987 5.64337 25.7077 6.00091C25.7176 6.37075 25.7274 6.75114 25.7274 7.13064C25.7375 7.76125 25.7478 8.41215 25.7494 9.07751L25.7491 9.52315C25.7225 16.1634 24.6477 24.0899 13.7843 27.652C13.6946 27.6801 13.6084 27.7064 13.5465 27.7064C13.4846 27.7064 13.3993 27.6801 13.3096 27.652C2.52407 24.1152 1.38684 16.3075 1.37012 9.74024L1.37061 9.29446C1.374 8.5549 1.38935 7.83299 1.40416 7.13679C1.44095 6.39447 1.44095 5.67851 1.44095 4.96343C1.44095 4.5848 1.77116 4.27733 2.17764 4.27733C6.7189 4.27733 10.1726 3.04306 13.0485 0.392685C13.1831 0.277604 13.3697 0.209961 13.5654 0.209961ZM13.6218 1.86282L13.4199 2.02886C10.6284 4.32345 7.39807 5.47426 3.25252 5.65172L2.97884 5.66314L2.95282 5.92932C2.91423 6.3343 2.91423 6.77529 2.91423 7.20136C2.90966 7.41696 2.90506 7.63344 2.90075 7.85064L2.89258 8.28596C2.88497 8.72215 2.87928 9.16086 2.8779 9.60091L2.87805 10.0414C2.90366 16.4332 4.00441 23.0266 13.48 26.2793L13.585 26.3154L13.6891 26.2793C23.8444 22.7599 24.3776 15.409 24.3417 8.61843L24.3387 8.1858C24.3364 7.89793 24.3333 7.61126 24.3302 7.3261L24.3293 7.19872C24.2917 6.75772 24.2917 6.34045 24.2917 5.95831V5.66138L23.9884 5.65172C19.9451 5.51292 16.6206 4.32784 13.8237 2.02886L13.6218 1.86282Z" fill="#4197D3"/>
</g>
<path fill-rule="evenodd" clip-rule="evenodd" d="M11.9854 17.5337L8.99824 14.8517C8.85736 14.7252 8.7793 14.5644 8.7793 14.3984C8.7793 14.2332 8.85736 14.0716 8.99824 13.9451C9.1463 13.8125 9.33922 13.7395 9.54201 13.7395C9.7448 13.7395 9.93772 13.8125 10.0867 13.9451L12.5103 16.122L17.8825 11.2982C18.0305 11.1647 18.2324 11.0918 18.4505 11.0918C18.6739 11.0918 18.8901 11.1682 19.0588 11.307C19.1889 11.4247 19.267 11.5855 19.267 11.7507C19.267 11.9158 19.1889 12.0766 19.049 12.204L13.1124 17.5337C12.9482 17.6549 12.74 17.7314 12.5489 17.7314C12.3272 17.7314 12.1271 17.6611 11.9854 17.5337Z" fill="#4197D3" stroke="#4197D3" stroke-width="0.5"/>
<path d="M20.9492 26.176C24.1077 24.2434 25.8844 21.7309 26.2792 18.6387" stroke="#EB9AA7" stroke-width="1.55556" stroke-linecap="round" stroke-linejoin="round"/>
<path d="M2.58984 2.40471C4.56392 2.40471 6.14318 2.01818 7.32762 1.24512" stroke="#EB9AA7" stroke-width="1.55556" stroke-linecap="round" stroke-linejoin="round"/>
</svg>
