<svg width="16" height="17" viewBox="0 0 16 17" fill="none" xmlns="http://www.w3.org/2000/svg">
<path d="M7.33301 6.01237H8.66634V4.67904H7.33301V6.01237ZM7.99967 13.3457C5.05967 13.3457 2.66634 10.9524 2.66634 8.01237C2.66634 5.07237 5.05967 2.67904 7.99967 2.67904C10.9397 2.67904 13.333 5.07237 13.333 8.01237C13.333 10.9524 10.9397 13.3457 7.99967 13.3457ZM7.99967 1.3457C7.1242 1.3457 6.25729 1.51814 5.44845 1.85317C4.63961 2.1882 3.90469 2.67927 3.28563 3.29832C2.03539 4.54857 1.33301 6.24426 1.33301 8.01237C1.33301 9.78048 2.03539 11.4762 3.28563 12.7264C3.90469 13.3455 4.63961 13.8365 5.44845 14.1716C6.25729 14.5066 7.1242 14.679 7.99967 14.679C9.76779 14.679 11.4635 13.9767 12.7137 12.7264C13.964 11.4762 14.6663 9.78048 14.6663 8.01237C14.6663 7.13689 14.4939 6.26998 14.1589 5.46115C13.8238 4.65231 13.3328 3.91738 12.7137 3.29832C12.0947 2.67927 11.3597 2.1882 10.5509 1.85317C9.74206 1.51814 8.87515 1.3457 7.99967 1.3457ZM7.33301 11.3457H8.66634V7.3457H7.33301V11.3457Z" fill="#0073BB"/>
</svg>
