<svg width="31" height="26" viewBox="0 0 31 26" fill="none" xmlns="http://www.w3.org/2000/svg">
<path fill-rule="evenodd" clip-rule="evenodd" d="M29.9303 14.3864C30.4028 15.436 30.006 16.4009 28.8954 17.144L28.7779 17.2201L28.7009 17.2608L22.7504 19.8688C20.4322 20.9236 18.061 21.2593 15.6495 20.8724L15.3814 20.8264C13.4416 20.4718 12.069 20.6683 11.2172 21.3692C11.6718 22.1282 11.7115 23.1176 11.2543 23.9245L10.8971 24.5489C10.235 25.6954 8.78588 26.0085 7.68806 25.2636C7.63964 25.2315 7.59247 25.1973 7.56477 25.1749L1.33134 20.6794C0.269536 19.9795 0.0129171 18.5816 0.759697 17.5481L1.07113 17.1257C1.79623 16.133 3.17394 15.8257 4.20871 16.448L4.92373 16.9213L5.02806 16.8255C6.75388 15.2484 8.1256 14.2488 9.17327 13.8197C10.3298 13.3461 11.8425 13.2532 13.6917 13.5179L14.182 13.5674C16.416 13.8031 17.8954 14.1027 18.6676 14.492C19.4479 14.8853 19.9308 15.5639 20.1107 16.4775L26.8969 13.436L26.9672 13.4097C28.3715 12.9834 29.437 13.2927 29.9303 14.3864ZM3.52157 17.4219C3.0288 17.1794 2.37873 17.3446 2.02639 17.8269L1.73323 18.2243L1.66973 18.3179C1.38118 18.7913 1.51061 19.3783 2.00398 19.704L8.27714 24.2282C8.30007 24.2462 8.32191 24.262 8.34838 24.2796C8.88732 24.6453 9.55648 24.5007 9.86969 23.9584L10.2245 23.3382C10.5513 22.7614 10.3898 21.988 9.89049 21.627L3.59112 17.4594L3.52157 17.4219ZM27.4249 14.5106L27.3462 14.5329L20.0998 17.7816C20.0426 17.8073 19.9819 17.8236 19.9198 17.8302L19.8574 17.8335H16.2822C15.9549 17.8335 15.6897 17.5682 15.6897 17.241C15.6897 16.9355 15.9208 16.6841 16.2176 16.6519L16.2822 16.6485L18.9367 16.6476C18.8195 16.1135 18.5533 15.7614 18.1342 15.5501C17.482 15.2214 15.9419 14.9262 13.5508 14.6942C11.866 14.4536 10.5559 14.534 9.6224 14.9164C8.75312 15.2724 7.51819 16.167 5.94362 17.5946L10.376 20.528C11.4931 19.5442 13.1755 19.2569 15.3757 19.6225L15.5943 19.6606C17.7736 20.0583 19.9092 19.8053 22.0233 18.8948L22.2671 18.7868L28.1816 16.1941L28.2458 16.1532C28.8741 15.7352 29.0409 15.3687 28.877 14.9383L28.8499 14.8733C28.6456 14.4203 28.2388 14.2851 27.4249 14.5106Z" fill="#4197D3"/>
<path d="M4.47656 19.7617L7.72216 22.0668" stroke="#EB9AA7" stroke-width="1.17563" stroke-linecap="round" stroke-linejoin="round"/>
<path d="M20.3411 13.5064C20.3411 13.8278 20.6016 14.0883 20.9229 14.0883C21.2442 14.0883 21.5048 13.8278 21.5048 13.5064V11.7609H23.732C26.9955 11.7609 29.6505 9.10589 29.6505 5.84241V3.03328C29.6505 2.79799 29.5087 2.58579 29.2914 2.49572C29.0739 2.40565 28.8237 2.45546 28.6573 2.62186C28.0168 3.26241 27.1653 3.61512 26.2596 3.61512C24.3136 3.61512 22.5841 4.55928 21.5048 6.01341V0.70592C21.5048 0.384569 21.2442 0.124023 20.9229 0.124023C20.6016 0.124023 20.3411 0.384569 20.3411 0.70592V3.68611C19.2617 2.23197 17.5322 1.28776 15.5863 1.28776C14.6806 1.28776 13.8291 0.935049 13.1886 0.2945C13.0222 0.128094 12.7719 0.0782303 12.5545 0.168357C12.3371 0.258484 12.1953 0.470624 12.1953 0.70592V3.51505C12.1953 6.77853 14.8503 9.43353 18.1138 9.43353H20.3411V13.5064ZM26.2596 4.7788C27.0523 4.7788 27.8142 4.5776 28.4868 4.19935V5.84241C28.4868 8.46424 26.3539 10.5972 23.732 10.5972H22.6684L25.9267 8.15348C26.1838 7.96072 26.2359 7.59596 26.0431 7.3389C25.8504 7.08185 25.4857 7.02965 25.2285 7.22254L21.5048 10.0154V9.53361C21.5048 6.91183 23.6377 4.7788 26.2596 4.7788ZM13.359 3.51505V1.87199C14.0317 2.25024 14.7935 2.45144 15.5863 2.45144C18.2081 2.45144 20.3411 4.58447 20.3411 7.20624V7.68801L16.6173 4.89517C16.3602 4.70241 15.9955 4.75448 15.8027 5.01154C15.61 5.2686 15.662 5.63335 15.9191 5.82612L19.1774 8.26985H18.1138C15.492 8.26985 13.359 6.13688 13.359 3.51505Z" fill="#4197D3"/>
<path d="M11.1797 2.69922C11.1841 4.53934 11.5236 5.96026 12.1981 6.96197" stroke="#EB9AA7" stroke-width="1.17563" stroke-linecap="round" stroke-linejoin="round"/>
</svg>
