<svg width="15" height="20" viewBox="0 0 15 20" fill="none" xmlns="http://www.w3.org/2000/svg">
<path fill-rule="evenodd" clip-rule="evenodd" d="M6.06526 13.8787L5.14664 12.0373L6.03444 11.6937L7.16926 13.0949C6.59196 13.5047 6.11816 13.8419 6.06526 13.8787ZM5.2483 7.9162V5.86322C6.59748 5.94188 8.01198 5.54122 9.15508 4.80936C9.60726 5.29512 9.85244 5.54996 9.93156 5.64702V7.91574C9.93156 9.18488 8.89656 10.2199 7.62788 10.2199C6.2028 10.2199 5.2483 9.11404 5.2483 7.9162ZM4.63972 5.653C4.54036 5.66496 4.42582 5.69164 4.34072 5.72062V4.94736C4.34072 3.15566 5.79846 1.69838 7.5897 1.69838C9.3814 1.69838 10.8387 3.15566 10.8387 4.94736V5.69946C10.7476 5.67186 10.6533 5.65346 10.5567 5.64472C10.5567 5.34296 10.5595 5.40092 9.5723 4.34062C9.39106 4.14558 9.09114 4.10464 8.86252 4.25414C7.7737 4.9653 6.44522 5.32272 5.21932 5.23486C4.95068 5.21462 4.7055 5.39126 4.63972 5.65346V5.653ZM4.6227 7.6701C4.2593 7.61076 4.01872 7.31038 4.01872 6.97228C4.01872 6.63786 4.29564 6.366 4.6227 6.29056V7.6701ZM11.1611 6.97228C11.1611 7.17698 11.0724 7.37064 10.9173 7.50358C10.8152 7.59144 10.6919 7.64802 10.5567 7.6701V6.27446C10.916 6.33288 11.1611 6.63096 11.1611 6.97228ZM6.44614 11.2057V10.621C6.82564 10.7742 7.23136 10.845 7.62788 10.845C8.03728 10.845 8.43932 10.7576 8.79674 10.6012V11.2084L7.62236 12.6583L6.44568 11.2057H6.44614ZM6.99446 13.9864L7.62236 13.5402L8.25026 13.9864L8.7604 14.3484C8.89978 14.4473 9.00696 14.5425 9.20798 14.5425C9.41268 14.5425 9.60358 14.428 9.69788 14.2394L10.6837 12.2641L12.9289 13.1335C13.0103 13.1685 14.1898 13.6993 14.1898 15.1023V18.7754C14.1898 18.8702 14.1125 18.9479 14.0173 18.9479H12.3369V15.6313C12.3369 15.4584 12.1971 15.3185 12.0241 15.3185C11.8516 15.3185 11.7118 15.4584 11.7118 15.6313V18.9479H3.53526V15.6313C3.53526 15.4584 3.39542 15.3185 3.22246 15.3185C3.04996 15.3185 2.90966 15.4584 2.90966 15.6313V18.9479H1.2302C1.13498 18.9479 1.0577 18.8706 1.0577 18.7754V15.1023C1.0577 13.6947 2.24496 13.1648 2.3181 13.1335L4.56152 12.2641L5.5473 14.2394C5.6416 14.4284 5.83342 14.5425 6.0372 14.5425C6.2373 14.5425 6.34356 14.4487 6.48478 14.3484L6.99492 13.9864H6.99446ZM10.0981 12.0373L9.179 13.8787L8.07408 13.094L9.2089 11.6928L10.0981 12.0373ZM5.66644 19.4732H14.0173C14.457 19.4732 14.8149 19.1154 14.8149 18.6756V15.1023C14.8149 13.254 13.2325 12.5824 13.1649 12.5548L13.1589 12.5521L9.42188 11.1049V10.2286C10.0153 9.76678 10.427 9.08276 10.5305 8.30168C10.8263 8.28098 11.1009 8.17058 11.3254 7.97784C11.6184 7.72576 11.7863 7.35914 11.7863 6.97228C11.7863 6.65074 11.6704 6.34438 11.4638 6.10518V4.94736C11.4638 2.81112 9.72594 1.07324 7.5897 1.07324C5.45346 1.07324 3.71558 2.81112 3.71558 4.94736V6.13554C3.5072 6.37198 3.39358 6.66316 3.39358 6.97228C3.39358 7.3596 3.56148 7.72576 3.8545 7.97784C4.07852 8.17058 4.35268 8.28098 4.64892 8.30168C4.75288 9.09748 5.17654 9.8068 5.82054 10.2751V11.1049L2.08764 12.5521L2.08166 12.5548C2.01404 12.5824 0.431641 13.254 0.431641 15.1023V18.6756C0.431641 19.1154 0.789521 19.4732 1.22974 19.4732H5.66644Z" fill="#4197D3" stroke="#CFE5F4" stroke-width="0.15"/>
</svg>
