<svg width="16" height="16" viewBox="0 0 16 16" fill="none" xmlns="http://www.w3.org/2000/svg">
<path d="M12.7812 4.68896C12.7812 3.61568 12.7781 2.5424 12.7812 1.46913C12.7821 1.15824 12.8226 0.848715 12.9017 0.547904C12.98 0.252242 13.1703 0.0770677 13.4801 0.0414993C13.5979 0.0252467 13.7166 0.0169285 13.8356 0.0166016C14.3643 0.0277167 14.6414 0.289144 14.6987 0.812C14.737 1.19477 14.754 1.57934 14.7498 1.96397C14.7498 2.15248 14.8192 2.20183 14.9996 2.1965C15.3622 2.18583 15.3622 2.1965 15.3627 1.82614C15.3627 1.75945 15.3627 1.69276 15.3627 1.62607C15.3658 1.48424 15.3954 1.3522 15.5606 1.32063C15.7258 1.28906 15.8498 1.37265 15.9331 1.50781C15.9886 1.59673 15.9939 1.70254 15.9939 1.80791C15.9939 3.36255 15.9957 4.91704 15.9993 6.47138C15.9993 6.58342 15.9971 6.69368 15.9277 6.79016C15.8889 6.8501 15.8325 6.89664 15.766 6.9234C15.6995 6.95015 15.6264 6.95579 15.5565 6.93955C15.4016 6.90754 15.3739 6.77504 15.3703 6.647C15.3622 6.3291 15.3622 6.01077 15.3618 5.69243C15.3618 4.86324 15.3618 4.0345 15.3618 3.20531C15.3618 3.11105 15.4034 2.96878 15.2275 2.99368C15.0645 3.01724 14.8304 2.87897 14.7695 3.16529C14.7568 3.24556 14.7525 3.3269 14.7565 3.40805C14.7565 4.91081 14.7516 6.41358 14.761 7.9159C14.761 8.13509 14.6947 8.18889 14.4838 8.18266C14.0075 8.16755 13.5293 8.16666 13.0512 8.18266C12.835 8.18978 12.7606 8.14576 12.7638 7.90923C12.779 6.8364 12.7705 5.76268 12.7705 4.6894L12.7812 4.68896Z" fill="white"/>
<path d="M13.7583 9.14737C14.0269 9.14737 14.2956 9.15137 14.5642 9.14737C14.69 9.1447 14.7504 9.17004 14.7522 9.31588C14.7771 10.9653 14.6465 12.6133 14.3623 14.2385C14.3054 14.5582 14.219 14.8734 14.1724 15.1944C14.1357 15.4483 13.8944 15.6102 13.8922 15.876C13.8922 15.9258 13.8282 15.9738 13.7579 15.9649C13.6876 15.9561 13.68 15.8974 13.6571 15.8413C13.0424 14.3377 12.9605 12.7438 12.8513 11.1552C12.8119 10.5728 12.8038 9.98812 12.7711 9.40524C12.7604 9.21406 12.7993 9.12203 13.0201 9.14115C13.265 9.16338 13.5116 9.14737 13.7583 9.14737Z" fill="white"/>
<path d="M11.4831 4.17973C11.4908 3.82129 11.3553 3.47441 11.1062 3.21494C10.2837 2.32573 9.45995 1.44097 8.65185 0.540199C8.31965 0.170288 7.92657 -0.000885764 7.4332 3.44608e-06C5.44226 0.0048941 3.45133 3.44608e-06 1.46039 3.44608e-06C0.540812 3.44608e-06 0.00222496 0.537531 0.00177725 1.44942V7.982C0.00177725 10.1662 0.00177725 12.3504 0.00177725 14.5346C-0.0048406 14.6825 0.00703965 14.8306 0.0371458 14.9756C0.203244 15.6296 0.701985 15.9942 1.44831 15.9982C2.22417 16.0022 2.9996 15.9982 3.77636 15.9982C5.85699 15.9982 7.93746 15.9982 10.0178 15.9982C10.9414 15.9982 11.4813 15.462 11.4813 14.5524C11.4807 11.0945 11.4813 7.63698 11.4831 4.17973ZM10.5877 14.4946C10.5877 14.9596 10.4346 15.1001 9.93989 15.1006C8.03805 15.1006 6.13605 15.1006 4.23391 15.1006H1.66007C1.59291 15.1006 1.52576 15.1037 1.4586 15.0975C1.0109 15.0557 0.904794 14.9401 0.904794 14.4928C0.904794 12.4858 0.904794 10.4789 0.904794 8.47195C0.904794 6.50947 0.904794 4.54698 0.904794 2.58449C0.904794 2.1928 0.853756 1.80243 0.900765 1.40985C0.947774 1.01726 1.07134 0.895438 1.47606 0.894548C2.39341 0.892325 3.31165 0.894548 4.22809 0.894548H7.20442C7.49901 0.894548 7.49633 0.894549 7.49946 1.17732C7.50886 1.93937 7.47976 2.70187 7.51961 3.46437C7.54065 3.86184 7.71122 4.04013 8.11953 4.04235C8.85018 4.04546 9.58128 4.05035 10.3133 4.03879C10.5331 4.03479 10.5922 4.1126 10.5917 4.32023C10.5867 7.71197 10.585 11.104 10.5868 14.4963L10.5877 14.4946Z" fill="white"/>
<path d="M5.7455 9.77931H8.49663C8.60811 9.77931 8.72048 9.77264 8.8248 9.82377C8.99761 9.91269 9.07775 10.0527 9.05313 10.2408C9.0285 10.4289 8.91882 10.552 8.72586 10.5823C8.64471 10.5932 8.56284 10.598 8.48096 10.5965C6.65553 10.5965 4.83054 10.5965 3.006 10.5965C2.9312 10.5978 2.8564 10.5939 2.78215 10.5849C2.55337 10.5538 2.43383 10.4213 2.42981 10.2021C2.42533 9.97272 2.54845 9.82111 2.77543 9.78554C2.84974 9.77725 2.92457 9.77457 2.99928 9.77753L5.7455 9.77931Z" fill="white"/>
<path d="M5.7077 12.9984C4.78409 12.9984 3.86003 13.0007 2.93642 12.9984C2.57826 12.9984 2.41709 12.8499 2.42828 12.5583C2.43589 12.3493 2.54826 12.2275 2.74704 12.1902C2.85754 12.1735 2.96934 12.1671 3.08103 12.171C4.83931 12.171 6.59759 12.171 8.35587 12.171C8.45973 12.171 8.5645 12.1737 8.66926 12.1844C8.90699 12.2093 9.05921 12.3724 9.05607 12.5912C9.05734 12.6924 9.01889 12.7902 8.94888 12.8638C8.87886 12.9374 8.78275 12.9811 8.6809 12.9856C8.496 13.0024 8.30886 12.9993 8.12306 12.9998C7.31779 12.9998 6.51267 12.9993 5.7077 12.9984Z" fill="white"/>
</svg>
