<svg width="24" height="25" viewBox="0 0 24 25" fill="none" xmlns="http://www.w3.org/2000/svg">
<path fill-rule="evenodd" clip-rule="evenodd" d="M19.5989 11.9148C19.4779 11.8543 19.3401 11.845 19.2134 11.8875C19.0849 11.9299 18.9808 12.0206 18.9204 12.1415C18.8605 12.2625 18.8506 12.3991 18.8936 12.527C18.921 12.609 18.968 12.6811 19.0297 12.7381L19.021 12.7555L19.143 12.8171C19.1442 12.8177 19.146 12.8183 19.1471 12.8189L19.1483 12.82C19.1494 12.82 19.15 12.8206 19.1506 12.8212L19.2773 12.884L19.2861 12.8654C19.5023 12.9032 19.7256 12.7927 19.8256 12.5933C19.95 12.3439 19.8483 12.0398 19.5989 11.9148Z" fill="#EA9AA6"/>
<path fill-rule="evenodd" clip-rule="evenodd" d="M10.5018 19.6875H0.399446C0.304678 19.6875 0.228516 19.8956 0.228516 20.1526C0.228516 20.4096 0.304678 20.6177 0.399446 20.6177H10.5018C10.5965 20.6177 10.6727 20.4096 10.6727 20.1526C10.6727 19.8956 10.5965 19.6875 10.5018 19.6875Z" fill="#EA9AA6"/>
<mask id="mask0_299_11478" style="mask-type:alpha" maskUnits="userSpaceOnUse" x="0" y="0" width="24" height="25">
<path d="M0 0H23.3256V24.6163H0V0Z" fill="white"/>
</mask>
<g mask="url(#mask0_299_11478)">
<path fill-rule="evenodd" clip-rule="evenodd" d="M5.02326 5.31977C5.02326 2.90116 6.99419 0.936047 9.41279 0.936047C11.8314 0.936047 13.7965 2.90116 13.7965 5.31977C13.7965 7.73837 11.8314 9.70349 9.41279 9.70349C6.99419 9.70349 5.02326 7.73837 5.02326 5.31977ZM22.9256 13.061C22.1186 12.8901 21.3674 12.6698 20.6901 12.4047C20.4297 12.307 20.1442 12.432 20.0384 12.693C19.9924 12.8157 19.9953 12.9517 20.0483 13.0843C20.1047 13.2052 20.2 13.2948 20.325 13.3448C20.9296 13.5826 21.5831 13.7855 22.3198 13.9634V17.1744C22.3198 17.7227 22.0442 18.4849 21.55 19.311C21.5407 19.3238 20.6262 20.611 20.2802 20.9971C19.9064 21.4221 18.6355 22.5907 18.6372 22.5907L17.9238 23.0971C17.3872 23.4291 16.9314 23.6047 16.6047 23.6047C16.2773 23.6047 15.8093 23.4244 15.2936 23.1023L14.5773 22.5942C14.1076 22.2297 13.6029 21.7587 13.1186 21.2331C12.8552 20.9465 12.6058 20.6506 12.3814 20.3593L11.6651 19.3198C11.1651 18.4942 10.8895 17.7326 10.8895 17.1744V13.9581C12.2849 13.6291 13.5395 13.1395 14.6186 12.5035C14.9046 12.3401 15.1814 12.1645 15.4674 11.968C15.8733 11.682 16.1924 11.4209 16.4488 11.211L16.4895 11.1744C16.5291 11.1413 16.5674 11.1093 16.6041 11.0785C16.6465 11.1145 16.6913 11.1529 16.739 11.1936L16.7721 11.2203C17.0942 11.4849 17.4953 11.8151 18.032 12.1686C18.143 12.2401 18.2756 12.2657 18.4029 12.2419C18.539 12.218 18.6558 12.1395 18.7308 12.0233C18.8058 11.9128 18.8331 11.7738 18.8047 11.6419C18.7762 11.5087 18.6977 11.3953 18.5866 11.3267C18.0919 10.9953 17.7209 10.693 17.382 10.4099L17.3198 10.3599C17.164 10.2343 17.0256 10.1227 16.8959 10.0256C16.7174 9.90407 16.4831 9.90465 16.3116 10.0267C16.1692 10.1273 16.014 10.2535 15.8273 10.4099L15.7453 10.4762C15.4674 10.7012 15.1215 10.9808 14.6965 11.2698C14.6797 11.2814 14.6628 11.2913 14.6459 11.3029C13.9785 10.8512 13.2576 10.4884 12.4884 10.2209L11.9477 10.0291L12.4186 9.70349C13.8663 8.7093 14.7326 7.06977 14.7326 5.31977C14.7326 2.38953 12.343 0 9.41279 0C6.47674 0 4.09302 2.38953 4.09302 5.31977C4.09302 7.06977 4.95349 8.7093 6.40116 9.70349L6.87791 10.0291L6.3314 10.2209C4.98256 10.686 3.77907 11.4419 2.75581 12.4651C1.04651 14.1744 0.0755814 16.4244 0 18.8314H0.936046C1.09302 14.2849 4.8314 10.6395 9.41279 10.6395C10.9959 10.6395 12.4692 11.0791 13.739 11.8372C12.7552 12.3663 11.593 12.7797 10.2779 13.061C10.0459 13.111 9.87791 13.3198 9.87791 13.5581V17.1744C9.87791 17.8506 10.1326 18.6512 10.6349 19.5535C11.0738 20.3366 11.6756 21.1541 12.3756 21.918C13.5674 23.2221 15.3052 24.6163 16.6047 24.6163C17.8953 24.6163 19.6355 23.2227 20.8337 21.918C21.1419 21.5808 21.4326 21.2308 21.6849 20.8924C21.7244 20.8523 22.3523 19.9477 22.5744 19.5529C23.0727 18.6576 23.3256 17.857 23.3256 17.1744V13.5581C23.3256 13.3186 23.157 13.1093 22.9256 13.061Z" fill="#4196D2"/>
</g>
<path fill-rule="evenodd" clip-rule="evenodd" d="M18.4785 15.1468C18.4785 14.9607 18.3215 14.8096 18.1355 14.8096H14.9494C14.7576 14.8096 14.6006 14.9607 14.6006 15.1468C14.6006 15.3328 14.7576 15.4898 14.9494 15.4898H15.9262C16.3273 15.5131 16.6704 15.7689 16.8099 16.1235L16.8215 16.141H14.9494C14.7576 16.141 14.6006 16.2979 14.6006 16.484L14.6064 16.5247C14.6238 16.6933 14.7692 16.827 14.9494 16.827L16.8215 16.8212L16.8099 16.8503C16.6645 17.2282 16.2866 17.4956 15.8564 17.4956H14.9494C14.7517 17.4956 14.6006 17.6526 14.6064 17.8445C14.6064 17.9317 14.6413 18.0189 14.7052 18.0828L16.9901 20.2107C17.1297 20.3386 17.3448 20.3328 17.4727 20.1991L17.5017 20.1642C17.6064 20.0247 17.589 19.8328 17.4669 19.7165L15.8157 18.1758H15.9378C16.7052 18.141 17.3448 17.6003 17.5192 16.8793L17.5366 16.8212L18.1355 16.827C18.3215 16.827 18.4785 16.67 18.4785 16.484L18.4727 16.4433C18.4552 16.2747 18.3099 16.141 18.1355 16.141H17.5366C17.4843 15.9142 17.3855 15.6991 17.2459 15.5072L17.2343 15.4898H18.1355C18.3215 15.4898 18.4785 15.3328 18.4785 15.1468Z" fill="#4196D2"/>
</svg>
