<svg width="14" height="14" viewBox="0 0 14 14" fill="none" xmlns="http://www.w3.org/2000/svg">
<path d="M10.8552 14H3.14451C3.06232 13.9827 2.97795 13.9628 2.89412 13.9482C2.08399 13.8076 1.34952 13.3856 0.820172 12.7566C0.290825 12.1275 0.000593221 11.3319 0.000639169 10.5098C-0.000639273 8.17258 1.48592e-07 5.83536 0.00255703 3.49815C0.00359507 3.29364 0.0212774 3.08956 0.0554295 2.88792C0.329381 1.24457 1.79064 0.00383449 3.45681 0.00191725C5.81682 -0.000639082 8.17682 -0.000639082 10.5368 0.00191725C10.6962 -0.00152817 10.8555 0.00938027 11.0129 0.0345104C12.4487 0.297721 13.4013 1.12296 13.8579 2.51022C13.9253 2.71509 13.9533 2.93284 13.9996 3.14456V10.8557C13.982 10.9379 13.9642 11.0225 13.947 11.1061C13.6568 12.5098 12.8288 13.4291 11.463 13.8639C11.2658 13.9263 11.0582 13.9556 10.8552 14ZM7.00503 1.17363C5.86138 1.17363 4.71772 1.17363 3.57406 1.17363C3.42854 1.17385 3.28316 1.183 3.13875 1.20102C2.07363 1.33605 1.17891 2.33192 1.17589 3.40914C1.16932 5.80113 1.16932 8.19312 1.17589 10.5851C1.17724 10.7124 1.19212 10.8392 1.22027 10.9634C1.46683 12.0828 2.38429 12.8258 3.52968 12.8258C5.84439 12.8276 8.15901 12.8276 10.4735 12.8258C10.6008 12.8248 10.7279 12.8156 10.8541 12.7984C11.929 12.6615 12.821 11.6692 12.824 10.5824C12.8306 8.19495 12.8306 5.80752 12.824 3.42009C12.8231 3.29268 12.8088 3.16572 12.7813 3.0413C12.5367 1.91396 11.6189 1.17472 10.4634 1.17308C9.30787 1.17144 8.15782 1.17363 7.00503 1.17363Z" fill="white"/>
<path d="M7.58762 7.58834V7.77048C7.58762 8.46754 7.58927 9.16487 7.58762 9.86192C7.58762 10.1887 7.42325 10.4114 7.14218 10.4861C7.06365 10.5058 6.98188 10.5089 6.9021 10.4952C6.82232 10.4814 6.74629 10.4512 6.67887 10.4064C6.61146 10.3616 6.55415 10.3032 6.51061 10.2349C6.46708 10.1667 6.43828 10.0901 6.42607 10.0101C6.41762 9.94233 6.41368 9.87407 6.41429 9.80577C6.41429 9.1267 6.41429 8.44772 6.41429 7.76884V7.58834H6.24224C5.54504 7.58834 4.84783 7.58834 4.15062 7.58834C3.81667 7.58834 3.5997 7.43496 3.52053 7.15203C3.49892 7.07305 3.4943 6.99039 3.507 6.9095C3.51969 6.82861 3.5494 6.75133 3.59416 6.68276C3.63893 6.6142 3.69773 6.5559 3.76668 6.51172C3.83564 6.46755 3.91318 6.4385 3.99419 6.42649C4.06199 6.41817 4.13026 6.41424 4.19856 6.41471C4.87741 6.41471 5.55636 6.41471 6.2354 6.41471H6.41292V6.23969C6.41292 5.54264 6.41292 4.84531 6.41292 4.14825C6.41292 3.81958 6.56249 3.60594 6.83864 3.5235C6.9185 3.50003 7.00249 3.49405 7.08487 3.50597C7.16725 3.5179 7.24609 3.54745 7.31601 3.5926C7.38593 3.63776 7.44529 3.69746 7.49004 3.76764C7.53478 3.83782 7.56386 3.91682 7.5753 3.99925C7.58337 4.06706 7.58721 4.1353 7.5868 4.20358C7.5868 4.87808 7.5868 5.5525 7.5868 6.22682V6.41471H7.75117C8.45304 6.41471 9.15463 6.41471 9.8565 6.41471C10.183 6.41471 10.397 6.56617 10.4786 6.8439C10.5014 6.92375 10.5068 7.00757 10.4943 7.08968C10.4819 7.17178 10.4519 7.25024 10.4065 7.31976C10.361 7.38927 10.3012 7.4482 10.231 7.49255C10.1607 7.53691 10.0818 7.56565 9.9995 7.57684C9.93167 7.58465 9.86341 7.58822 9.79513 7.58752C9.12066 7.58752 8.44619 7.58752 7.77172 7.58752L7.58762 7.58834Z" fill="white"/>
</svg>
