<svg width="16" height="17" viewBox="0 0 16 17" fill="none" xmlns="http://www.w3.org/2000/svg">
<g clip-path="url(#clip0_547_5436)">
<path d="M14.3333 14.346L11.1853 11.1923M12.9298 6.97761C12.9298 8.5596 12.3014 10.0768 11.1827 11.1954C10.0641 12.3141 8.5469 12.9425 6.96491 12.9425C5.38292 12.9425 3.86572 12.3141 2.74708 11.1954C1.62844 10.0768 1 8.5596 1 6.97761C1 5.39561 1.62844 3.87842 2.74708 2.75978C3.86572 1.64114 5.38292 1.0127 6.96491 1.0127C8.5469 1.0127 10.0641 1.64114 11.1827 2.75978C12.3014 3.87842 12.9298 5.39561 12.9298 6.97761Z" stroke="#D62049" stroke-width="2" stroke-linecap="round"/>
</g>
<defs>
<clipPath id="clip0_547_5436">
<rect width="16" height="16" fill="white" transform="translate(0 0.0126953)"/>
</clipPath>
</defs>
</svg>
