<svg width="402" height="305" viewBox="0 0 402 305" fill="none" xmlns="http://www.w3.org/2000/svg">
<path d="M255.837 118.488V149.599C255.936 155.154 260.481 159.6 266.042 159.577H377.625C380.334 159.581 382.93 158.513 384.849 156.602C386.768 154.692 387.844 152.097 387.848 149.389V123.088L401.738 108.495L266.057 108.07C263.314 108.078 260.692 109.187 258.773 111.143C256.851 113.103 255.793 115.747 255.837 118.488Z" fill="#E7F1F9"/>
<path d="M371.368 126.928L270.078 126.454L270.089 123.34L371.375 123.814L371.368 126.928Z" fill="#C9DEEE"/>
<path d="M371.368 137.165L270.078 136.691L270.089 133.581L371.375 134.055L371.368 137.165Z" fill="#C9DEEE"/>
<path d="M331.277 146.94L331.293 143.83L371.365 144.026L371.35 147.136L331.277 146.94Z" fill="#C9DEEE"/>
<path d="M303.61 289.204C288.004 278.301 284.467 258.07 285.081 239.878C285.186 236.843 284.855 233.639 286.296 230.98C287.737 228.321 291.112 226.493 293.836 227.776C296.089 228.832 297.067 231.458 298.332 233.624C300.017 236.516 302.485 238.874 305.454 240.428C307.388 241.428 309.78 242.045 311.688 240.992C314.314 239.544 314.619 235.926 314.604 232.906L314.498 216.026C314.498 213.006 314.498 209.922 315.409 207.056C316.319 204.19 318.423 201.531 321.297 200.704C324.171 199.876 327.719 201.55 328.355 204.506C328.611 205.732 328.355 207.011 328.445 208.267C328.536 209.523 329.108 210.907 330.3 211.261C331.493 211.615 332.716 210.761 333.619 209.851C336.738 206.8 338.848 202.878 340.827 198.97C342.802 195.062 344.725 191.068 347.554 187.743C350.384 184.419 354.296 181.782 358.623 181.534C362.95 181.286 367.559 183.96 368.646 188.21C369.733 192.456 367.235 196.785 364.56 200.207C360.549 205.33 355.82 209.847 350.519 213.615C349.567 214.322 348.536 215.026 348.168 216.135C347.517 218.155 349.424 220.152 351.407 220.814C353.657 221.562 356.11 221.329 358.465 221.604C360.824 221.878 363.405 222.924 364.259 225.132C365.501 228.216 362.92 231.484 360.376 233.598C355.286 237.844 349.503 241.187 343.28 243.478C341.064 244.29 338.72 245.001 336.926 246.562C335.131 248.123 334.051 250.838 335.131 252.963C336.211 255.088 338.991 255.784 341.32 255.34C343.649 254.896 345.726 253.648 347.949 252.813C352.099 251.244 357.457 251.53 360.121 255.122C361.862 257.48 362.021 260.767 361.136 263.588C360.252 266.409 358.461 268.816 356.554 271.046C349.906 278.85 341.384 285.157 331.756 288.467C322.128 291.777 313.204 292.702 303.633 289.215" fill="#82B279"/>
<path d="M303.375 302.68C304.222 294.248 305.877 285.914 308.315 277.797C311.332 267.891 314.922 258.165 319.06 248.668C320.136 246.133 321.205 243.636 322.266 241.173C323.323 238.717 324.384 236.283 325.546 233.959C327.808 229.513 330.313 225.196 333.049 221.025C335.641 217.023 338.237 213.319 340.701 209.877C343.165 206.432 345.521 203.28 347.759 200.486C351.322 196.063 355.235 191.933 359.456 188.131C360.946 186.785 362.139 185.773 362.985 185.103L363.937 184.332C364.039 184.242 364.144 184.163 364.261 184.092C364.171 184.193 364.077 184.287 363.971 184.374L363.076 185.179C362.286 185.886 361.112 186.909 359.652 188.278C355.498 192.133 351.642 196.293 348.109 200.727C345.863 203.547 343.527 206.688 341.085 210.141C338.643 213.589 336.058 217.298 333.489 221.296C330.769 225.459 328.282 229.765 326.036 234.203C324.869 236.513 323.835 238.923 322.774 241.387L319.576 248.875C315.448 258.353 311.855 268.056 308.812 277.933C306.362 286.015 304.677 294.312 303.778 302.706" fill="#A3CF97"/>
<path d="M325.706 233.944C325.556 233.53 325.458 233.097 325.409 232.661C325.247 231.83 325.063 230.608 324.852 229.133C324.423 226.128 323.976 221.957 323.498 217.358C323.016 212.758 322.516 208.602 322.046 205.608C321.812 204.111 321.617 202.904 321.466 202.08C321.361 201.652 321.304 201.215 321.297 200.775C321.47 201.182 321.598 201.607 321.677 202.039C321.888 202.859 322.151 204.063 322.433 205.567C323.005 208.553 323.577 212.717 324.051 217.331L325.244 229.115C325.39 230.525 325.526 231.725 325.624 232.684C325.695 233.097 325.721 233.522 325.706 233.944Z" fill="#A3CF97"/>
<path d="M364.537 226.674C364.029 226.787 363.51 226.851 362.991 226.858C361.994 226.948 360.549 227.069 358.754 227.276C355.225 227.663 350.285 228.362 344.932 229.393C339.582 230.423 334.747 231.544 331.286 232.462C329.555 232.913 328.159 233.308 327.192 233.583C326.699 233.748 326.195 233.872 325.68 233.951C326.131 233.714 326.605 233.523 327.091 233.372C328.042 233.041 329.419 232.582 331.15 232.082C334.589 231.067 339.408 229.867 344.796 228.844C349.386 227.96 354.018 227.309 358.675 226.903C360.462 226.749 361.915 226.685 362.912 226.67C363.454 226.617 363.999 226.621 364.537 226.674Z" fill="#A3CF97"/>
<path d="M360.417 260.463C360.255 260.55 360.082 260.621 359.901 260.666L358.404 261.174L352.877 262.961C348.212 264.476 341.793 266.639 334.701 269.035C327.605 271.434 321.16 273.544 316.461 274.962C314.117 275.669 312.225 276.226 310.886 276.579L309.354 276.982C309.177 277.038 308.997 277.072 308.812 277.087C308.974 276.993 309.147 276.921 309.328 276.876L310.825 276.376L316.352 274.582C321.018 273.07 327.444 270.904 334.528 268.508C341.616 266.109 348.069 263.999 352.768 262.581C355.112 261.874 357.004 261.317 358.344 260.963L359.852 260.546C360.033 260.49 360.225 260.459 360.417 260.463Z" fill="#A3CF97"/>
<path d="M49.6719 264.98C49.7772 264.833 49.8638 264.675 49.9315 264.506C50.1158 264.126 50.334 263.659 50.5936 263.095C51.1655 261.869 51.9481 260.083 52.8811 257.852C54.7586 253.407 57.1514 247.182 59.6985 240.281C62.2456 233.38 64.582 227.136 66.3616 222.638L68.4798 217.339C68.7055 216.76 68.8899 216.282 69.0441 215.929C69.1269 215.763 69.1834 215.59 69.2059 215.406C69.1006 215.552 69.0103 215.714 68.9463 215.887C68.762 216.26 68.5438 216.726 68.2842 217.298C67.7123 218.524 66.9297 220.31 65.9967 222.54C64.1192 226.986 61.7264 233.21 59.1793 240.119C56.6322 247.028 54.2958 253.26 52.5162 257.762C51.6396 259.944 50.9285 261.734 50.398 263.061C50.1723 263.641 49.9879 264.118 49.8337 264.509C49.7546 264.656 49.702 264.814 49.6719 264.98Z" fill="white"/>
<path d="M49.6728 265.168C49.6464 265.168 49.6238 265.164 49.5975 265.153C49.5185 265.119 49.4696 265.032 49.4884 264.946C49.5223 264.761 49.5825 264.585 49.669 264.419C49.7593 264.19 49.8722 263.904 49.9963 263.584L50.6133 262.02C51.0874 260.831 51.6668 259.379 52.344 257.691C53.9317 253.67 56.1101 247.901 59.0071 240.055C61.78 232.545 64.075 226.625 65.8282 222.469C66.7124 220.351 67.5062 218.535 68.1195 217.219C68.3829 216.647 68.6011 216.18 68.7854 215.804C68.8532 215.635 68.9472 215.458 69.0638 215.297C69.1128 215.225 69.2068 215.203 69.2858 215.233C69.3648 215.263 69.4137 215.346 69.4025 215.432C69.3761 215.635 69.3159 215.831 69.2219 216.015C69.0939 216.308 68.9359 216.711 68.7553 217.177L68.665 217.41L66.5468 222.71C65.0043 226.606 62.95 232.048 59.8837 240.345C57.1034 247.874 54.8083 253.787 53.0626 257.924C52.1785 260.038 51.3884 261.85 50.7714 263.174C50.508 263.738 50.2898 264.205 50.1054 264.588C50.0377 264.758 49.9436 264.931 49.827 265.089C49.7894 265.141 49.7292 265.168 49.6728 265.168ZM66.2045 222.537C66.1932 222.563 66.1819 222.589 66.1706 222.612C64.4174 226.764 62.1223 232.676 59.3533 240.183C56.4826 247.972 54.3117 253.715 52.724 257.736C54.466 253.606 56.7535 247.713 59.5226 240.213C62.5889 231.913 64.6431 226.471 66.1894 222.567L66.2045 222.537Z" fill="#868686"/>
<path d="M133.099 68.3904V96.7432C133.099 101.873 128.941 106.03 123.809 106.035H22.108C16.9761 106.03 12.8174 101.869 12.8174 96.7432V72.7864L0.160156 59.51L123.782 59.0855C126.251 59.0811 128.622 60.0584 130.374 61.8009C132.122 63.5522 133.104 65.9227 133.099 68.3904Z" fill="#E7F1F9"/>
<path d="M27.8091 76.2848L120.095 75.8603L120.091 73.021L27.8047 73.4456L27.8091 76.2848Z" fill="#C9DEEE"/>
<path d="M27.8091 85.607L120.095 85.1869L120.091 82.3477L27.8047 82.7811L27.8091 85.607Z" fill="#C9DEEE"/>
<path d="M27.7891 91.8806L64.3054 91.7021L64.3193 94.5414L27.8029 94.7198L27.7891 91.8806Z" fill="#C9DEEE"/>
<path d="M48.4844 290.196V137.202C48.4844 129.158 55.0083 122.632 63.0597 122.632H295.38C303.428 122.632 309.956 129.154 309.956 137.202V290.196C309.956 298.241 303.432 304.767 295.38 304.767H63.0559C55.0083 304.763 48.4844 298.241 48.4844 290.196Z" fill="white"/>
<path d="M295.377 304.951H63.0564C54.9184 304.951 48.293 298.332 48.293 290.197V137.203C48.293 129.067 54.9147 122.444 63.0564 122.444H295.377C303.515 122.444 310.14 129.064 310.14 137.203V290.197C310.137 298.332 303.515 304.951 295.377 304.951ZM63.0564 122.824C55.1254 122.824 48.6692 129.274 48.6692 137.206V290.2C48.6692 298.128 55.1216 304.579 63.0564 304.579H295.377C303.308 304.579 309.764 298.128 309.764 290.2V137.203C309.764 129.274 303.312 122.82 295.377 122.82H63.0564V122.824Z" fill="#868686"/>
<path d="M48.4844 290.196V137.202C48.4844 129.158 55.0083 122.632 63.0597 122.632H306.107C314.154 122.632 320.682 129.154 320.682 137.202V290.196C320.682 298.241 314.158 304.767 306.107 304.767H63.0597C55.0083 304.763 48.4844 298.241 48.4844 290.196Z" fill="white"/>
<path d="M306.103 304.951H63.0564C54.9184 304.951 48.293 298.332 48.293 290.197V137.203C48.293 129.067 54.9147 122.444 63.0564 122.444H306.103C314.241 122.444 320.867 129.064 320.867 137.203V290.197C320.863 298.332 314.241 304.951 306.103 304.951ZM63.0564 122.824C55.1254 122.824 48.6692 129.274 48.6692 137.206V290.2C48.6692 298.128 55.1216 304.579 63.0564 304.579H306.103C314.034 304.579 320.491 298.128 320.491 290.2V137.203C320.491 129.274 314.038 122.82 306.103 122.82H63.0564V122.824Z" fill="#868686"/>
<path d="M284.726 128.379H66.3672V299.027H284.726V128.379Z" fill="white"/>
<path d="M284.726 299.215H66.3678C66.2625 299.215 66.1797 299.132 66.1797 299.027V128.379C66.1797 128.274 66.2625 128.191 66.3678 128.191H284.726C284.832 128.191 284.914 128.274 284.914 128.379V299.027C284.914 299.132 284.828 299.215 284.726 299.215ZM66.5559 298.839H284.538V128.567H66.5559V298.839Z" fill="#868686"/>
<path d="M295.452 128.379H66.3672V299.027H295.452V128.379Z" fill="white"/>
<path d="M295.453 299.215H66.3678C66.2625 299.215 66.1797 299.132 66.1797 299.027V128.379C66.1797 128.274 66.2625 128.191 66.3678 128.191H295.453C295.558 128.191 295.641 128.274 295.641 128.379V299.027C295.641 299.132 295.554 299.215 295.453 299.215ZM66.5559 298.839H295.265V128.567H66.5559V298.839Z" fill="#868686"/>
<path d="M310.037 220.261C313.646 218.898 315.467 214.868 314.104 211.259C312.74 207.651 308.708 205.831 305.099 207.194C301.489 208.557 299.668 212.587 301.032 216.196C302.395 219.804 306.427 221.624 310.037 220.261Z" fill="white"/>
<path d="M307.557 220.901C307.016 220.901 306.466 220.837 305.913 220.709C302.061 219.803 299.664 215.933 300.571 212.085C301.477 208.234 305.345 205.838 309.198 206.744C313.05 207.651 315.447 211.521 314.54 215.368C313.769 218.667 310.812 220.901 307.557 220.901ZM307.557 206.929C304.472 206.929 301.673 209.042 300.939 212.172C300.082 215.82 302.354 219.487 306.003 220.344C309.653 221.202 313.321 218.93 314.179 215.282C315.037 211.634 312.764 207.967 309.115 207.109C308.592 206.985 308.073 206.929 307.557 206.929Z" fill="#868686"/>
<path d="M180.888 235.836C177.404 235.836 173.883 234.854 170.764 232.8C162.257 227.204 159.89 215.729 165.489 207.226C168.201 203.104 172.355 200.287 177.19 199.294C182.02 198.297 186.953 199.241 191.073 201.953C195.196 204.664 198.014 208.816 199.007 213.649C200.004 218.479 199.06 223.409 196.347 227.531C192.8 232.913 186.9 235.836 180.888 235.836ZM180.952 199.282C179.725 199.282 178.491 199.406 177.261 199.662C172.528 200.636 168.457 203.397 165.801 207.432C163.145 211.468 162.219 216.297 163.194 221.028C164.168 225.76 166.93 229.829 170.967 232.484C175.004 235.14 179.835 236.069 184.568 235.091C189.301 234.117 193.371 231.356 196.028 227.321C198.684 223.285 199.609 218.456 198.635 213.725C197.661 208.993 194.899 204.924 190.862 202.269C187.875 200.298 184.451 199.282 180.952 199.282Z" fill="#868686"/>
<path d="M188.226 221.025C188.226 221.235 184.818 221.412 180.619 221.412C176.42 221.412 173.004 221.235 173.004 221.025C173.004 220.814 176.413 220.63 180.619 220.63C184.821 220.63 188.226 220.799 188.226 221.025Z" fill="#868686"/>
<path d="M122.719 235.843C121.756 235.843 120.782 235.768 119.803 235.61C114.931 234.835 110.653 232.206 107.756 228.215C104.859 224.221 103.693 219.343 104.468 214.473C105.243 209.602 107.869 205.326 111.865 202.43C115.857 199.534 120.74 198.368 125.612 199.143C130.485 199.918 134.762 202.547 137.659 206.537C140.556 210.531 141.723 215.409 140.948 220.28C139.503 229.355 131.632 235.843 122.719 235.843ZM122.67 199.282C118.885 199.282 115.21 200.467 112.087 202.731C108.174 205.567 105.601 209.756 104.841 214.529C104.081 219.302 105.224 224.082 108.061 227.994C110.898 231.905 115.089 234.478 119.864 235.237C124.638 235.997 129.42 234.854 133.333 232.018C137.246 229.182 139.819 224.992 140.579 220.22C141.339 215.447 140.195 210.667 137.358 206.755C134.522 202.844 130.33 200.271 125.556 199.511C124.589 199.361 123.626 199.282 122.67 199.282Z" fill="#868686"/>
<path d="M130.009 220.991C129.93 221.089 129.17 220.548 127.89 219.878C126.209 219.002 124.343 218.543 122.446 218.539C120.55 218.622 118.691 219.103 116.991 219.95C115.663 220.6 114.873 221.093 114.809 220.995C114.745 220.897 115.437 220.288 116.743 219.483C118.466 218.441 120.422 217.858 122.431 217.783C124.452 217.779 126.434 218.344 128.15 219.412C129.414 220.213 130.058 220.92 130.009 220.991Z" fill="#868686"/>
<path d="M206.237 268.101L210.469 266.002L214.608 268.304L213.916 263.625L217.381 260.406L212.715 259.616L210.725 255.329L208.535 259.518L203.844 260.083L207.147 263.464L206.237 268.101Z" fill="#F9C1CB"/>
<path d="M188.959 268.101L193.192 266.002L197.33 268.304L196.638 263.625L200.103 260.406L195.438 259.616L193.448 255.329L191.258 259.518L186.566 260.083L189.87 263.464L188.959 268.101Z" fill="#F9C1CB"/>
<path d="M171.678 268.101L175.911 266.002L180.042 268.304L179.357 263.625L182.822 260.406L178.157 259.616L176.166 255.329L173.977 259.518L169.285 260.083L172.588 263.464L171.678 268.101Z" fill="#F9C1CB"/>
<path d="M154.401 268.101L158.633 266.002L162.764 268.304L162.08 263.625L165.545 260.406L160.879 259.616L158.889 255.329L156.699 259.518L152.008 260.083L155.311 263.464L154.401 268.101Z" fill="#F9C1CB"/>
<path d="M137.119 268.101L141.352 266.002L145.483 268.304L144.798 263.625L148.263 260.406L143.598 259.616L141.608 255.329L139.418 259.518L134.727 260.083L138.03 263.464L137.119 268.101Z" fill="#F9C1CB"/>
<path d="M217.58 164.121C217.58 164.226 198.618 164.313 175.228 164.313C151.837 164.313 132.875 164.226 132.875 164.121C132.875 164.015 151.83 163.937 175.228 163.937C198.626 163.937 217.58 164.023 217.58 164.121Z" fill="#E0E0E0"/>
<path d="M196.756 159.039C196.756 159.145 187.395 159.231 175.848 159.231C164.298 159.231 154.934 159.145 154.934 159.039C154.934 158.934 164.294 158.848 175.848 158.848C187.403 158.851 196.756 158.934 196.756 159.039Z" fill="#E0E0E0"/>
<path d="M257.481 239.562C269.732 232.521 273.954 216.884 266.911 204.636C259.867 192.388 244.224 188.168 231.972 195.209C219.72 202.251 215.498 217.888 222.542 230.135C229.586 242.383 245.229 246.603 257.481 239.562Z" fill="white"/>
<path d="M244.769 243.168C242.111 243.168 239.437 242.753 236.831 241.914C230.275 239.8 224.935 235.265 221.789 229.135C218.648 223.005 218.08 216.021 220.194 209.468C222.309 202.915 226.846 197.572 232.978 194.431C239.109 191.291 246.092 190.723 252.652 192.837C266.187 197.197 273.649 211.749 269.288 225.279C267.174 231.832 262.637 237.175 256.505 240.315C252.812 242.209 248.807 243.168 244.769 243.168ZM244.713 191.982C240.74 191.982 236.795 192.925 233.157 194.791C227.122 197.884 222.653 203.142 220.574 209.592C218.496 216.041 219.051 222.922 222.145 228.951C225.239 234.985 230.495 239.452 236.951 241.53C243.406 243.608 250.286 243.052 256.321 239.96C262.357 236.867 266.826 231.608 268.905 225.159C273.198 211.841 265.851 197.512 252.524 193.217C249.966 192.39 247.332 191.982 244.713 191.982Z" fill="#868686"/>
<path d="M234.912 209.069C235.991 208.985 236.974 210.175 237.106 211.742C237.242 213.308 236.463 214.639 235.379 214.731C234.3 214.823 233.309 213.624 233.185 212.069C233.061 210.507 233.832 209.161 234.912 209.069Z" fill="#878787"/>
<path d="M253.086 208.733C252.006 208.681 251.067 209.923 251.007 211.486C250.947 213.052 251.77 214.359 252.85 214.399C253.929 214.439 254.868 213.208 254.936 211.645C255.004 210.083 254.173 208.733 253.086 208.733Z" fill="#878787"/>
<path d="M256.196 220.924C256.248 220.976 256.012 221.268 255.553 221.763C254.897 222.47 254.178 223.118 253.406 223.697C252.251 224.56 250.98 225.26 249.629 225.767C247.954 226.394 246.171 226.678 244.384 226.606C242.61 226.51 240.867 226.111 239.232 225.415C237.905 224.88 236.634 224.213 235.439 223.429C233.412 222.071 232.341 221.016 232.397 220.916C232.453 220.816 233.704 221.671 235.746 222.858C236.953 223.545 238.209 224.137 239.508 224.624C241.075 225.236 242.729 225.591 244.408 225.687C246.079 225.759 247.75 225.515 249.333 224.976C250.632 224.524 251.875 223.917 253.026 223.166C253.998 222.494 254.785 221.935 255.297 221.492C255.812 221.048 256.156 220.88 256.196 220.924Z" fill="#878787"/>
<path d="M260.644 172.711C260.644 172.816 222.757 172.902 176.029 172.902C129.301 172.902 91.4062 172.816 91.4062 172.711C91.4062 172.605 129.293 172.526 176.029 172.526C222.765 172.526 260.644 172.609 260.644 172.711Z" fill="#E0E0E0"/>
<path d="M260.644 176.909C260.644 177.006 222.757 177.093 176.029 177.093C129.301 177.093 91.4062 177.006 91.4062 176.909C91.4062 176.811 129.293 176.717 176.029 176.717C222.765 176.717 260.644 176.803 260.644 176.909Z" fill="#E0E0E0"/>
<path d="M230.146 183.065C230.074 183.065 230.007 183.023 229.973 182.956L227.11 176.63C227.068 176.536 227.11 176.423 227.204 176.381C227.298 176.336 227.411 176.381 227.452 176.475L230.315 182.801C230.357 182.895 230.315 183.008 230.221 183.05C230.199 183.061 230.172 183.065 230.146 183.065Z" fill="#868686"/>
<path d="M233.745 179.428C233.699 179.428 233.65 179.41 233.617 179.376L228.59 174.584C228.515 174.513 228.511 174.392 228.583 174.317C228.654 174.242 228.774 174.238 228.85 174.31L233.876 179.101C233.951 179.173 233.955 179.293 233.884 179.368C233.842 179.41 233.793 179.428 233.745 179.428Z" fill="#868686"/>
<path d="M201.553 122.637C201.553 122.637 200.168 120.406 199.886 119.666C199.13 117.638 194.239 104.072 195.416 102.023C200.83 92.5186 205.029 85.7939 215.711 85.7939L234.579 85.6661C234.579 85.6661 252.453 82.0254 265.054 122.671L201.553 122.637Z" fill="#3F8ABF"/>
<path d="M161.86 127.188L186.567 121.866L215.609 106.604L215.714 85.764C211.357 84.5642 203.008 87.5843 188.008 95.2267L165.709 106.735C162.089 108.601 159.535 112.027 158.782 116.029C158.03 120.027 159.166 124.149 161.86 127.199V127.188Z" fill="#3B88C1"/>
<path d="M217.464 167.524C217.102 166.355 217.351 165.599 219.059 166.178C222.829 167.442 226.196 167.024 227.016 166.298C227.836 165.572 227.088 164.181 225.857 164.286C224.518 164.282 223.182 164.098 221.892 163.737C220.842 163.489 219.845 163.067 218.935 162.488C218.145 161.988 217.467 161.514 216.865 161.078C216.865 161.078 213.385 158.566 212.298 156.546L200.375 161.65L202.294 167.618C202.757 169.747 204.28 171.488 206.323 172.233C209.732 173.343 215.153 172.94 215.153 172.94C216.15 172.289 219.981 177.837 221.147 179.793C222.313 181.748 223.686 181.993 224.142 180.801C224.446 179.981 221.034 173.907 219.849 171.992C218.893 170.59 218.092 169.089 217.464 167.513" fill="white"/>
<path d="M223.226 181.707C222.5 181.707 221.668 181.034 220.984 179.883C219.689 177.713 216.555 173.342 215.423 173.079C215.314 173.053 215.269 173.083 215.257 173.09C215.231 173.109 215.201 173.117 215.167 173.121C214.945 173.136 209.67 173.512 206.265 172.406C204.14 171.631 202.589 169.856 202.108 167.652L200.193 161.698C200.163 161.604 200.208 161.507 200.298 161.469L212.221 156.365C212.308 156.328 212.413 156.362 212.462 156.448C213.515 158.404 216.939 160.89 216.973 160.916C217.688 161.439 218.342 161.883 219.031 162.323C219.926 162.891 220.901 163.301 221.932 163.549C223.215 163.906 224.531 164.09 225.856 164.094C226.638 164.026 227.214 164.512 227.432 165.019C227.654 165.535 227.541 166.076 227.135 166.434C226.251 167.22 222.842 167.641 218.993 166.351C218.309 166.118 217.842 166.099 217.643 166.294C217.466 166.467 217.458 166.855 217.624 167.415C217.628 167.423 217.631 167.43 217.635 167.438C218.256 168.999 219.053 170.495 220.002 171.883C220.054 171.966 224.727 179.747 224.313 180.861C224.121 181.365 223.771 181.662 223.327 181.703C223.294 181.707 223.26 181.707 223.226 181.707ZM215.34 172.696C215.393 172.696 215.449 172.703 215.506 172.714C216.943 173.045 220.31 178.014 221.307 179.691C222.063 180.959 222.823 181.372 223.294 181.327C223.67 181.293 223.866 180.985 223.963 180.729C224.197 180.097 221.288 174.67 219.689 172.086C218.741 170.698 217.94 169.198 217.312 167.63C217.3 167.614 217.293 167.596 217.285 167.577C217.052 166.825 217.086 166.317 217.387 166.027C217.703 165.719 218.271 165.708 219.121 165.997C222.963 167.284 226.176 166.791 226.89 166.155C227.173 165.903 227.248 165.538 227.09 165.17C226.924 164.782 226.484 164.418 225.875 164.47C224.501 164.467 223.147 164.278 221.841 163.914C220.777 163.662 219.761 163.233 218.831 162.642C218.135 162.202 217.473 161.751 216.755 161.225C216.615 161.123 213.391 158.784 212.217 156.783L200.607 161.751L202.473 167.558C202.928 169.653 204.392 171.327 206.389 172.056C209.561 173.087 214.588 172.786 215.099 172.752C215.171 172.714 215.25 172.696 215.34 172.696Z" fill="#868686"/>
<path d="M161.156 126.36C161.156 126.36 199.005 169.841 198.956 169.123C198.908 168.404 215.898 155.715 215.898 155.715L178.817 111.542L161.156 126.36Z" fill="#3F8ABF"/>
<path d="M240.275 86.0611C240.275 86.0611 237.679 82.695 237.453 80.9236C237.228 79.1522 239.395 75.9854 244.06 75.2783C245.764 75.0978 245.445 72.7848 245.17 72.1266C244.557 70.6373 243.454 67.8917 243.541 67.5043C243.759 66.5528 244.38 66.5716 245.99 68.9147C247.6 71.2578 249.47 73.6724 249.109 74.7593C248.748 75.8463 247.292 78.9077 247.292 78.9077L248.846 81.4125L240.275 86.0611Z" fill="white"/>
<path d="M240.278 86.2491C240.222 86.2491 240.165 86.2228 240.128 86.1776C240.018 86.0385 237.498 82.7514 237.264 80.9498C237.016 79.0129 239.285 75.8123 244.029 75.0939C244.451 75.0488 244.748 74.8683 244.943 74.5411C245.365 73.834 245.18 72.6493 244.992 72.2017C243.243 67.9631 243.322 67.602 243.352 67.4666C243.39 67.3049 243.502 66.8122 243.901 66.737C244.236 66.673 244.793 66.8498 246.14 68.8093C246.366 69.1365 246.595 69.4637 246.821 69.7909C248.326 71.9385 249.624 73.7964 249.281 74.8194C248.954 75.8123 247.75 78.366 247.502 78.8963L248.999 81.3146C249.026 81.3598 249.033 81.4124 249.022 81.4613C249.01 81.5102 248.977 81.5554 248.928 81.5779L240.357 86.2265C240.338 86.2416 240.308 86.2491 240.278 86.2491ZM244.01 67.1018C243.999 67.1018 243.988 67.1018 243.976 67.1056C243.875 67.1244 243.785 67.2823 243.724 67.5456C243.713 67.6133 243.743 68.1699 245.346 72.055C245.564 72.5778 245.764 73.9017 245.271 74.7291C245.015 75.1616 244.612 75.4099 244.082 75.4663C239.424 76.1696 237.441 79.3288 237.641 80.9009C237.833 82.4091 239.86 85.1922 240.331 85.8203L248.582 81.341L247.133 79.0054C247.099 78.9527 247.095 78.8813 247.122 78.8249C247.137 78.7948 248.578 75.7634 248.928 74.699C249.206 73.8528 247.84 71.8971 246.516 70.0053C246.287 69.6781 246.057 69.3509 245.831 69.0237C244.669 67.3312 244.183 67.1018 244.01 67.1018Z" fill="#868686"/>
<path d="M255.077 120.617L237.168 85.5377L248.703 79.0801L272.929 117.469C272.929 117.469 274.208 119.925 275.992 122.798H255.682" fill="#3F8ABF"/>
<path d="M235.102 84.9176C235.249 81.48 235.433 78.3697 235.433 78.3697C235.433 78.3697 243.119 77.4031 243.45 69.5614C243.782 61.7235 242.999 43.6706 242.999 43.6706L229.187 40.1992L213.664 49.1354L216.049 85.1244C216.396 90.3109 220.828 94.2675 226.023 94.0305C230.952 93.7936 234.887 89.8445 235.102 84.9176Z" fill="white"/>
<path d="M225.588 94.2261C220.52 94.2261 216.201 90.2357 215.859 85.1357L213.473 49.1467C213.469 49.0752 213.503 49.0075 213.567 48.9699L229.091 40.0338C229.132 40.0112 229.185 40.0037 229.23 40.0149L243.041 43.4864C243.12 43.5052 243.181 43.5766 243.184 43.6594C243.192 43.8399 243.963 61.8062 243.636 69.5652C243.327 76.8465 236.713 78.3283 235.607 78.5239C235.569 79.1858 235.411 81.9464 235.283 84.9176C235.061 89.9724 231.081 93.9666 226.028 94.2073C225.885 94.2223 225.735 94.2261 225.588 94.2261ZM213.857 49.2407L216.235 85.1132C216.573 90.1567 220.945 94.0681 226.013 93.8425C230.87 93.6093 234.697 89.7693 234.911 84.9101C235.058 81.5101 235.242 78.3885 235.242 78.3584C235.246 78.2682 235.317 78.1929 235.408 78.1816C235.716 78.144 242.94 77.1398 243.263 69.5539C243.576 62.1748 242.891 45.5211 242.819 43.8211L229.215 40.4023L213.857 49.2407Z" fill="#868686"/>
<path d="M157.717 0.257324C157.54 0.287412 157.36 0.309978 157.183 0.321261L155.652 0.441614C154.805 0.494268 153.966 0.603337 153.138 0.772582C152.642 0.870368 152.096 0.9155 151.547 1.0697C150.994 1.2239 150.4 1.38187 149.779 1.54359C146.758 2.43871 143.913 3.77387 141.355 5.50393C137.991 7.81695 135.192 10.7543 133.138 14.1279C129.985 19.3595 128.627 25.347 129.24 31.3044C129.285 31.9551 129.44 32.5945 129.537 33.2526C129.631 33.9108 129.774 34.5652 129.966 35.2084C130.643 37.9012 131.753 40.4851 133.258 42.8733C136.468 48.0409 141.426 52.099 147.375 54.4233C150.509 55.6306 153.861 56.2888 157.254 56.364C160.75 56.4919 164.241 55.9842 167.526 54.8671L168.53 54.5136L168.662 54.4722L168.786 54.5211L183.339 61.1405L182.917 61.4865L178.275 48.7217L178.222 48.5599L178.346 48.4396C181.823 45.1487 184.377 41.1282 185.799 36.724C187.079 32.7035 187.402 28.4724 186.747 24.324C185.709 17.4113 181.954 11.089 176.194 6.55701C174.012 4.90969 171.604 3.53316 169.034 2.46504C167.093 1.72036 165.073 1.1562 163.007 0.783865L160.753 0.460419L159.091 0.370154L158.071 0.306217C157.954 0.306217 157.838 0.294934 157.725 0.272368C157.838 0.261085 157.954 0.261085 158.071 0.272368H159.091L160.769 0.313739L163.067 0.603337C165.167 0.941827 167.221 1.48341 169.196 2.22057C171.815 3.26989 174.264 4.64266 176.48 6.2975C179.17 8.37734 181.458 10.8634 183.245 13.6503C185.329 16.9035 186.706 20.4991 187.297 24.2337C187.978 28.4498 187.665 32.7487 186.379 36.8444C184.949 41.335 182.353 45.4383 178.82 48.7969L178.873 48.5148C180.404 52.6068 181.935 56.8755 183.531 61.2721L183.768 61.9153L183.109 61.6182L168.557 55.0063H168.809L167.782 55.3674C164.422 56.5032 160.855 57.0147 157.281 56.8718C153.812 56.7928 150.388 56.1233 147.186 54.8897C141.122 52.5052 136.073 48.3568 132.811 43.0764C131.279 40.6581 130.154 38.0404 129.462 35.3137C129.27 34.6593 129.127 33.9973 129.041 33.3241C128.943 32.6622 128.781 32.0115 128.743 31.3496C128.612 30.0558 128.578 28.7545 128.638 27.4532C128.717 24.9897 129.127 22.5488 129.857 20.1794C130.557 18.0055 131.528 15.9106 132.754 13.9399C134.869 10.5286 137.739 7.56872 141.178 5.25194C143.774 3.52564 146.66 2.20553 149.719 1.34426L151.517 0.892934C152.044 0.780104 152.578 0.68984 153.116 0.625903C153.951 0.467941 154.798 0.373915 155.652 0.343827L157.221 0.272368L157.717 0.257324Z" fill="#DEEBF8"/>
<path d="M152.707 24.8696H154.664L158.998 18.9761L159.039 15.0722C159.039 15.0722 162.061 14.9255 161.65 20.0104C161.24 25.0991 161.65 23.8128 161.65 23.8128C161.65 23.8128 168.061 23.9106 168.588 24.4747C168.968 24.8847 169.074 31.2558 169.096 34.7084C169.175 36.4498 168.039 38.0181 166.357 38.4845C166.128 38.5409 165.891 38.571 165.65 38.571C164.047 38.571 155.894 37.1606 155.894 37.1606L152.512 37.1192L152.707 24.8696Z" fill="#DEEBF8"/>
<path d="M147.125 23.7349L148.178 37.109L151.523 37.1504L151.674 24.0621L147.125 23.7349Z" fill="#DEEBF8"/>
<path fill-rule="evenodd" clip-rule="evenodd" d="M247.725 122.848L244.512 99.7588L256.31 122.848H247.725Z" fill="#367DA9"/>
<mask id="mask0_285_7623" style="mask-type:alpha" maskUnits="userSpaceOnUse" x="244" y="99" width="13" height="24">
<path d="M247.725 122.848L244.512 99.7588L256.31 122.848H247.725Z" fill="white"/>
</mask>
<g mask="url(#mask0_285_7623)">
<path d="M258.522 98.8071H243.586V124.077H258.522V98.8071Z" fill="#367DA9"/>
<mask id="mask1_285_7623" style="mask-type:alpha" maskUnits="userSpaceOnUse" x="243" y="98" width="16" height="27">
<path d="M258.522 98.8071H243.586V124.077H258.522V98.8071Z" fill="white"/>
</mask>
<g mask="url(#mask1_285_7623)">
<path d="M262.054 94.0151H238.762V128.59H262.054V94.0151Z" fill="#367DA9"/>
</g>
</g>
<path d="M243.536 46.3858C243.536 46.3858 233.912 53.3775 224.476 52.8585C215.04 52.3395 215.165 59.8841 215.165 59.8841C215.165 59.8841 213.897 68.0116 215.496 76.7259C215.496 76.7259 211.839 71.1032 207.377 67.7822C202.914 64.4612 200.07 53.4791 205.62 45.1635C211.169 36.8479 217.757 41.1505 229.872 37.7054C244.594 33.5232 248.954 42.0231 243.536 46.3858Z" fill="#333333"/>
<path d="M215.811 58.768C214.765 58.1174 213.339 58.6477 212.508 59.5578C211.161 61.0359 210.95 63.2248 211.985 64.9323C213.023 66.6398 215.062 67.4635 216.996 66.952" fill="white"/>
<path d="M215.861 67.2901C214.247 67.2901 212.693 66.4514 211.828 65.0335C210.755 63.2658 210.977 60.9641 212.369 59.4334C213.227 58.5006 214.759 57.8914 215.914 58.6097C216 58.6661 216.03 58.779 215.974 58.8692C215.917 58.9595 215.801 58.9858 215.714 58.9294C214.732 58.3201 213.4 58.8655 212.648 59.6854C211.365 61.092 211.162 63.2094 212.148 64.8379C213.133 66.4665 215.108 67.26 216.948 66.7749C217.05 66.7485 217.151 66.8087 217.178 66.9103C217.204 67.0118 217.144 67.1133 217.042 67.1397C216.655 67.2375 216.256 67.2901 215.861 67.2901Z" fill="#868686"/>
<path d="M238.521 71.2722C241.301 71.2948 240.985 67.105 240.985 67.105C240.985 67.105 237.764 68.4326 233.34 67.105C233.34 67.1012 234.002 71.2308 238.521 71.2722Z" fill="white"/>
<path d="M238.542 71.4608C238.535 71.4608 238.527 71.4608 238.516 71.4608C233.892 71.4194 233.159 67.177 233.151 67.1356C233.14 67.0717 233.166 67.0077 233.215 66.9626C233.264 66.9212 233.332 66.9062 233.392 66.925C237.692 68.215 240.879 66.9438 240.913 66.9325C240.969 66.91 241.033 66.9175 241.082 66.9476C241.135 66.9777 241.165 67.0341 241.172 67.0942C241.18 67.1958 241.345 69.5577 240.209 70.7725C239.777 71.2276 239.216 71.4608 238.542 71.4608ZM238.52 71.0847C239.111 71.0884 239.57 70.8966 239.931 70.5092C240.751 69.6329 240.811 67.9931 240.804 67.3688C239.98 67.6471 237.226 68.3767 233.587 67.3726C233.836 68.3015 234.87 71.0508 238.52 71.0847Z" fill="#878787"/>
</svg>
