<svg width="29" height="28" viewBox="0 0 29 28" fill="none" xmlns="http://www.w3.org/2000/svg">
<mask id="mask0_381_10445" style="mask-type:alpha" maskUnits="userSpaceOnUse" x="7" y="1" width="20" height="24">
<path d="M7.34766 1.83301H26.2578V24.5285H7.34766V1.83301Z" fill="white"/>
</mask>
<g mask="url(#mask0_381_10445)">
<path fill-rule="evenodd" clip-rule="evenodd" d="M16.7945 23.5307C12.1193 23.531 8.32915 19.7413 8.3288 15.0661C8.32851 10.391 12.1182 6.60078 16.7933 6.6005C21.4683 6.60014 25.2585 10.3896 25.2591 15.0645C25.2543 19.7376 21.4676 23.525 16.7945 23.5307ZM16.2465 4.49375H17.3428V5.62021C17.1613 5.60997 16.9788 5.60315 16.7945 5.60315C16.6102 5.60315 16.4279 5.60997 16.2465 5.62021V4.49375ZM15.2386 3.49839H18.3507V2.82723H15.2386V3.49839ZM7.76365 17.833C7.95518 18.4663 8.2036 19.0821 8.52424 19.6608C10.7401 23.6607 15.5958 25.5687 20.029 23.956C24.9389 22.1699 27.4714 16.7418 25.6853 11.8318C24.5174 8.62108 21.7089 6.28952 18.3381 5.73226V4.49489H18.8484C19.1232 4.49489 19.3461 4.27207 19.3461 3.99721V2.33069C19.3459 2.0559 19.1231 1.83301 18.8484 1.83301H14.7409C14.4661 1.83301 14.2434 2.0559 14.2432 2.33069V3.99721C14.2432 4.27207 14.466 4.49489 14.7409 4.49489H15.2511V5.73226C11.8839 6.29521 9.07859 8.62343 7.90477 11.8293L7.60474 12.8246C7.46525 13.396 7.37958 13.9793 7.34879 14.5668L7.34766 15.5622C7.3515 15.6355 7.35626 15.7089 7.3618 15.7823C7.41314 16.4594 7.55007 17.1274 7.74672 17.7773L7.76365 17.833Z" fill="#4197D3"/>
</g>
<path fill-rule="evenodd" clip-rule="evenodd" d="M22.6142 15.5621H22.9685C22.865 16.8578 22.3547 18.0876 21.5105 19.076L21.2616 18.8272C21.0672 18.6328 20.7521 18.6328 20.5578 18.8272C20.3634 19.0215 20.3634 19.3366 20.5578 19.531L20.8066 19.7799C19.8181 20.6239 18.5884 21.1342 17.2926 21.2379V20.8836C17.2926 20.6087 17.0699 20.3859 16.7949 20.3859C16.5202 20.3859 16.2973 20.6087 16.2973 20.8836V21.2379C15.0018 21.1341 13.7721 20.6239 12.7837 19.7799L13.0326 19.531C13.2269 19.3366 13.2269 19.0215 13.0326 18.8272C12.8382 18.6328 12.523 18.6328 12.3287 18.8272L12.0798 19.076C11.2355 18.0876 10.7249 16.8578 10.6212 15.5621H10.9756C11.2504 15.5621 11.4732 15.3393 11.4732 15.0644C11.4732 14.7896 11.2504 14.5667 10.9756 14.5667H10.6212C10.7248 13.271 11.2351 12.0412 12.0793 11.0528L12.3281 11.3017C12.5258 11.4926 12.8409 11.4872 13.0318 11.2896C13.2181 11.0967 13.2182 10.791 13.032 10.5981L12.7831 10.3493C13.7713 9.50498 15.0012 8.99464 16.2968 8.89119V9.24554C16.2968 9.5204 16.5195 9.74322 16.7944 9.74322C17.0693 9.74322 17.2921 9.5204 17.2921 9.24554V8.89119C18.5878 8.99457 19.8177 9.50491 20.806 10.3493L20.5571 10.5981C20.3628 10.7925 20.3628 11.1076 20.5571 11.302C20.7516 11.4963 21.0667 11.4963 21.2611 11.302L21.5099 11.0531C22.3541 12.0414 22.8644 13.2711 22.968 14.5667H22.6142C22.3393 14.5667 22.1165 14.7896 22.1165 15.0644C22.1165 15.3393 22.3393 15.5621 22.6142 15.5621ZM21.9063 10.0134C21.8969 10.0026 21.8893 9.99064 21.8779 9.98012C21.8672 9.97009 21.856 9.96057 21.8443 9.95168C19.0473 7.18017 14.5395 7.18017 11.7426 9.95168C11.7315 9.96106 11.7195 9.96874 11.709 9.98012C11.6985 9.99149 11.6911 10.0023 11.682 10.0134C8.91069 12.8102 8.91069 17.3177 11.682 20.1146C11.6914 20.1259 11.6993 20.1382 11.7104 20.149C11.7215 20.1598 11.7335 20.1674 11.7448 20.1774C14.5415 22.948 19.0482 22.948 21.8449 20.1774C21.8563 20.1678 21.8685 20.1601 21.8793 20.149C21.8901 20.1378 21.8978 20.1259 21.9077 20.1146C24.679 17.3177 24.679 12.8102 21.9077 10.0134H21.9063Z" fill="#4197D3"/>
<path fill-rule="evenodd" clip-rule="evenodd" d="M17.2922 14.8516V11.4606C17.2922 11.1857 17.0694 10.9629 16.7946 10.9629C16.5197 10.9629 16.2969 11.1857 16.2969 11.4606V15.0646C16.2969 15.2006 16.3526 15.3307 16.451 15.4247L18.1605 17.0565C18.3595 17.2463 18.6746 17.2389 18.8645 17.0399C19.0543 16.8409 19.0469 16.5257 18.8478 16.3358L17.2922 14.8516Z" fill="#4197D3"/>
<mask id="mask1_381_10445" style="mask-type:alpha" maskUnits="userSpaceOnUse" x="1" y="11" width="7" height="8">
<path d="M1.5459 11.8291H7.99554V18.2995H1.5459V11.8291Z" fill="white"/>
</mask>
<g mask="url(#mask1_381_10445)">
<path fill-rule="evenodd" clip-rule="evenodd" d="M7.99555 11.8291H3.74081C3.46595 11.8291 3.24313 12.0519 3.24313 12.3268C3.24313 12.6016 3.46595 12.8245 3.74081 12.8245H7.69552L7.99555 11.8291ZM7.43957 14.5666H2.04358C1.76872 14.5666 1.5459 14.7894 1.5459 15.0643C1.5459 15.3392 1.76872 15.562 2.04358 15.562H7.43843L7.43957 14.5666ZM7.69438 17.3042H3.74081C3.46595 17.3042 3.24313 17.527 3.24313 17.8018C3.24313 18.0767 3.46595 18.2995 3.74081 18.2995H7.99555L7.69438 17.3042Z" fill="#EB9AA7"/>
</g>
</svg>
