<svg width="33" height="34" viewBox="0 0 33 34" fill="none" xmlns="http://www.w3.org/2000/svg">
<path fill-rule="evenodd" clip-rule="evenodd" d="M8.28125 14.0724C8.28125 18.4649 11.842 22.0257 16.2345 22.0257C20.627 22.0257 24.1878 18.4649 24.1878 14.0724C24.1878 9.67999 20.627 6.11914 16.2345 6.11914C11.842 6.11914 8.28125 9.67999 8.28125 14.0724Z" fill="#4197D3"/>
<path fill-rule="evenodd" clip-rule="evenodd" d="M9.41797 14.0721C9.41797 17.837 12.4701 20.8892 16.2352 20.8892C20.0001 20.8892 23.0523 17.837 23.0523 14.0721C23.0523 10.307 20.0001 7.25488 16.2352 7.25488C12.4701 7.25488 9.41797 10.307 9.41797 14.0721Z" fill="white"/>
<mask id="mask0_830_7201" style="mask-type:alpha" maskUnits="userSpaceOnUse" x="3" y="2" width="27" height="30">
<path d="M3.40625 2.52441H29.0667V31.6115H3.40625V2.52441Z" fill="white"/>
</mask>
<g mask="url(#mask0_830_7201)">
<path fill-rule="evenodd" clip-rule="evenodd" d="M25.1201 26.9621C24.974 26.9225 24.8183 26.9428 24.6873 27.0184C24.5563 27.094 24.4608 27.2188 24.4222 27.3651L23.8397 29.5664L20.6365 24.0185C20.9058 23.7613 21.2905 23.6457 21.6716 23.7299C22.3468 23.8791 23.0439 23.7174 23.5845 23.2863C23.9081 23.0283 24.1493 22.6935 24.2925 22.3184L27.3178 27.5583L25.1201 26.9621ZM18.6061 24.4544C18.2679 24.5315 17.9178 24.4528 17.6452 24.2387C17.2304 23.9125 16.7335 23.7495 16.2364 23.7495C15.7395 23.7495 15.2423 23.9126 14.8277 24.2387C14.5551 24.4529 14.205 24.5316 13.8668 24.4544C13.5287 24.3772 13.2473 24.1544 13.0946 23.843C12.6303 22.8957 11.5863 22.3929 10.5562 22.6205C10.2175 22.6954 9.86784 22.6142 9.59674 22.398C9.32569 22.1818 9.16878 21.859 9.16634 21.5121C9.15901 20.4572 8.4366 19.5514 7.40969 19.3094C7.07212 19.2299 6.79227 19.0051 6.64178 18.6926C6.49134 18.3802 6.49009 18.0213 6.63837 17.7077C7.08945 16.754 6.83164 15.6245 6.0114 14.9609C5.74172 14.7429 5.5872 14.4189 5.5872 14.0721C5.5872 13.7254 5.74178 13.4014 6.01146 13.1833C6.83164 12.5198 7.0895 11.3902 6.63837 10.4365C6.49009 10.123 6.49134 9.764 6.64183 9.45159C6.79227 9.13913 7.07217 8.91439 7.40969 8.83486C8.4366 8.5929 9.15901 7.68705 9.16634 6.63207C9.16878 6.2853 9.32558 5.96239 9.59674 5.74622C9.86784 5.53005 10.2175 5.44882 10.5562 5.52375C11.5862 5.75111 12.6303 5.24856 13.0946 4.30124C13.2473 3.98986 13.5287 3.76699 13.8668 3.68984C14.2049 3.6128 14.5551 3.69132 14.8277 3.90561C15.6571 4.55774 16.8157 4.55774 17.6452 3.90561C17.9178 3.69132 18.2679 3.6128 18.6061 3.68984C18.9442 3.76699 19.2256 3.98986 19.3783 4.30124C19.8426 5.24856 20.8865 5.75111 21.9167 5.52375C22.2552 5.44876 22.605 5.53005 22.8761 5.74622C23.1472 5.96244 23.3041 6.2853 23.3066 6.63207C23.3139 7.68705 24.0363 8.5929 25.0632 8.83486C25.4007 8.91439 25.6806 9.13913 25.8311 9.45159C25.9815 9.76405 25.9828 10.123 25.8345 10.4365C25.3834 11.3902 25.6413 12.5198 26.4615 13.1833C26.7311 13.4014 26.8857 13.7254 26.8857 14.0721C26.8857 14.4189 26.7311 14.7429 26.4614 14.9609C25.6413 15.6245 25.3834 16.754 25.8345 17.7078C25.9828 18.0213 25.9815 18.3802 25.8311 18.6926C25.6806 19.0051 25.4007 19.2299 25.0632 19.3094C24.0363 19.5514 23.3139 20.4572 23.3066 21.5121C23.3041 21.859 23.1473 22.1818 22.8761 22.398C22.605 22.6142 22.2553 22.6953 21.9166 22.6205C20.8865 22.3929 19.8426 22.8957 19.3783 23.843C19.2256 24.1544 18.9442 24.3772 18.6061 24.4544ZM8.63322 29.5664L8.05074 27.3651C8.01194 27.2188 7.91661 27.094 7.78561 27.0184C7.65449 26.9427 7.49882 26.9225 7.35282 26.9621L5.15509 27.5583L8.18038 22.3184C8.32355 22.6935 8.56477 23.0282 8.88842 23.2863C9.42897 23.7174 10.1263 23.8791 10.8013 23.7299C11.1825 23.6458 11.5672 23.7614 11.8364 24.0185L8.63322 29.5664ZM28.9905 28.1832L24.7184 20.7837C24.8718 20.6049 25.0804 20.4727 25.3237 20.4153C25.9967 20.2567 26.5547 19.8085 26.8547 19.1856C27.1546 18.5626 27.1571 17.8469 26.8616 17.222C26.6353 16.7436 26.7646 16.1771 27.1759 15.8443C27.7135 15.4094 28.0218 14.7635 28.0218 14.0721C28.0218 13.3807 27.7135 12.7347 27.1759 12.3C26.7646 11.9672 26.6353 11.4007 26.8616 10.9223C27.1572 10.2973 27.1546 9.58158 26.8547 8.95865C26.5547 8.33572 25.9967 7.88748 25.3237 7.72892C24.8087 7.60757 24.4464 7.15331 24.4426 6.62412C24.4378 5.93273 24.125 5.28895 23.5845 4.85793C23.0439 4.42685 22.3466 4.2651 21.6716 4.41429C21.1548 4.52837 20.6313 4.2763 20.3984 3.80113C20.0941 3.18036 19.533 2.73604 18.8588 2.5822C18.1847 2.4283 17.4864 2.58521 16.9429 3.01248C16.5269 3.33954 15.9458 3.33954 15.5298 3.01248C14.9863 2.58521 14.2879 2.42841 13.6138 2.5822C12.9398 2.73604 12.3786 3.18036 12.0743 3.80113C11.8414 4.2763 11.3177 4.52854 10.8012 4.41429C10.126 4.26522 9.4288 4.42685 8.8883 4.85793C8.34781 5.28895 8.03501 5.93273 8.03018 6.62412C8.02643 7.15325 7.66414 7.60757 7.14904 7.72892C6.47606 7.88748 5.91801 8.33572 5.6181 8.95865C5.31808 9.58158 5.31564 10.2973 5.61123 10.9223C5.8375 11.4005 5.7082 11.9671 5.29678 12.2999C4.75929 12.7347 4.45092 13.3807 4.45092 14.0721C4.45092 14.7634 4.75929 15.4094 5.29678 15.8442C5.7082 16.177 5.8375 16.7436 5.61123 17.2219C5.31558 17.8469 5.31808 18.5626 5.6181 19.1856C5.91801 19.8085 6.47606 20.2567 7.1491 20.4153C7.39247 20.4726 7.60103 20.6049 7.75447 20.7837L3.48235 28.1832C3.36731 28.3825 3.38384 28.6315 3.52417 28.8138C3.66455 28.9961 3.90099 29.0757 4.12307 29.0155L7.09853 28.2083L7.88724 31.1887C7.9461 31.4112 8.13334 31.5761 8.36138 31.6065C8.38655 31.6099 8.41166 31.6115 8.4366 31.6115C8.63754 31.6115 8.82604 31.5047 8.92841 31.3275L12.5737 25.0137C12.8625 25.2809 13.2184 25.4718 13.6139 25.562C14.2879 25.7158 14.9864 25.5591 15.5299 25.1318C15.9459 24.8047 16.527 24.8047 16.943 25.1318C17.3498 25.4515 17.8431 25.6198 18.3482 25.6198C18.5181 25.6198 18.6894 25.6008 18.8589 25.562C19.2545 25.4718 19.6106 25.2809 19.8992 25.0137L23.5445 31.3275C23.6469 31.5048 23.8354 31.6115 24.0364 31.6115C24.0612 31.6115 24.0864 31.6099 24.1116 31.6065C24.3397 31.5761 24.5269 31.4111 24.5858 31.1887L25.3744 28.2083L28.3499 29.0155C28.572 29.0759 28.8085 28.9961 28.9488 28.8138C29.0891 28.6315 29.1056 28.3825 28.9905 28.1832Z" fill="#4197D3"/>
</g>
<path fill-rule="evenodd" clip-rule="evenodd" d="M16.5707 15.3875C16.4714 15.3158 16.3548 15.2799 16.2381 15.2799C16.1216 15.2799 16.0049 15.3158 15.9056 15.3875L14.6061 16.3258L15.0969 14.7999C15.1717 14.5672 15.0894 14.3128 14.8925 14.1681L13.5975 13.2166H15.1986C15.4441 13.2166 15.6619 13.0589 15.7384 12.8256L16.2381 11.3028L16.738 12.8257C16.8145 13.0589 17.0322 13.2166 17.2777 13.2166H18.8788L17.5839 14.1681C17.3869 14.3128 17.3046 14.5672 17.3794 14.7999L17.8702 16.3258L16.5707 15.3875ZM18.941 18.3677C19.0582 18.3677 19.1754 18.3315 19.275 18.2592C19.4736 18.1149 19.557 17.8593 19.4819 17.6257L18.5864 14.8415L20.9479 13.1064C21.1457 12.9611 21.2278 12.705 21.1514 12.4717C21.0748 12.2383 20.8571 12.0806 20.6116 12.0806H17.6893L16.778 9.304C16.7014 9.07079 16.4838 8.91309 16.2383 8.91309C15.9928 8.91309 15.7751 9.07079 15.6986 9.304L14.7873 12.0806H11.865C11.6195 12.0806 11.4017 12.2383 11.3252 12.4717C11.2487 12.705 11.3308 12.9611 11.5287 13.1064L13.8902 14.8415L12.9947 17.6257C12.9195 17.8593 13.003 18.1149 13.2016 18.2592C13.4003 18.4035 13.6691 18.4038 13.8681 18.2602L16.2384 16.5487L18.6087 18.2602C18.7078 18.3319 18.8243 18.3677 18.941 18.3677Z" fill="#EB9AA7"/>
</svg>
