<svg width="29" height="33" viewBox="0 0 29 33" fill="none" xmlns="http://www.w3.org/2000/svg">
<g clip-path="url(#clip0_285_7326)">
<path fill-rule="evenodd" clip-rule="evenodd" d="M13.122 13.0461C11.8196 14.508 11.0392 16.3876 10.9101 18.3722C10.2995 18.1197 9.64347 17.9955 8.98282 18.0073C8.39398 17.9998 7.80833 18.0948 7.25201 18.288C7.81734 15.8369 10.1017 13.8377 13.122 13.0461ZM16.0009 12.6739C18.123 12.6739 19.8836 15.2244 20.1643 18.5237C18.9695 18.1479 17.72 17.9756 16.468 18.014V18.0073H15.5327V18.014C14.2807 17.9758 13.0312 18.1483 11.8364 18.5243C12.1171 15.2244 13.876 12.6745 16.0009 12.6745V12.6739ZM24.7487 18.2874C24.1925 18.0945 23.6071 17.9997 23.0185 18.0073C22.3573 17.9954 21.7007 18.1196 21.0895 18.3722C20.9604 16.3876 20.1811 14.508 18.8787 13.0461C21.8985 13.8377 24.1834 15.8369 24.7487 18.2874ZM6.64345 19.9604C6.8944 19.9682 7.1038 19.7628 7.11166 19.5023V19.4894C7.17004 19.3428 7.82183 18.9768 8.98282 18.9768C10.1432 18.9768 10.795 19.3428 10.8534 19.4624C10.8529 19.7285 11.06 19.9452 11.3154 19.9452C11.4145 19.9451 11.511 19.9133 11.5907 19.8545C11.6705 19.7957 11.7294 19.7131 11.759 19.6185C11.7659 19.6091 11.7709 19.5984 11.7736 19.587C12.047 19.3793 13.3578 19.0256 15.5327 18.9824V22.371H16.468V18.9824C18.6429 19.0273 19.9538 19.3799 20.226 19.587C20.2296 19.5983 20.2349 19.6089 20.2418 19.6185C20.2593 19.6773 20.2885 19.732 20.3276 19.7794C20.3667 19.8267 20.4149 19.8658 20.4693 19.8941C20.5238 19.9225 20.5834 19.9397 20.6446 19.9446C20.7058 19.9495 20.7673 19.9421 20.8256 19.9228C20.9153 19.8905 20.9933 19.832 21.0494 19.755C21.1056 19.6779 21.1373 19.5858 21.1406 19.4905C21.2057 19.3428 21.8575 18.9768 23.0185 18.9768C24.1789 18.9768 24.8307 19.3428 24.8896 19.4624C24.8896 19.7302 25.099 19.9463 25.3578 19.9463C25.6155 19.9463 25.8249 19.7302 25.8249 19.4624C25.8249 15.1845 21.4173 11.7044 16.0009 11.7044C10.5834 11.7044 6.1758 15.1845 6.1758 19.4624C6.17355 19.7324 6.3824 19.9553 6.64289 19.9604H6.64345ZM13.4527 5.20108C12.6468 6.24751 12.1546 7.50129 12.0335 8.81652C11.5965 8.66073 11.1354 8.58375 10.6715 8.58915C10.2838 8.58665 9.89753 8.63823 9.52401 8.74241C9.98829 7.13848 11.4788 5.82143 13.4527 5.20108ZM16.0004 4.81764C17.5105 4.81764 18.7686 6.59167 19.0274 8.9215C18.0379 8.67515 17.0197 8.56336 16.0004 8.58915C14.9806 8.5633 13.962 8.67509 12.9722 8.9215C13.2304 6.59167 14.4891 4.81764 16.0004 4.81764ZM22.4756 8.74241C22.1025 8.63824 21.7166 8.58665 21.3292 8.58915C20.865 8.58383 20.4035 8.66081 19.9661 8.81652C19.8453 7.50139 19.3536 6.24761 18.548 5.20108C20.5208 5.82143 22.0113 7.13848 22.4756 8.74241ZM8.89524 10.2919C8.99851 10.2901 9.0983 10.2543 9.17918 10.19C9.26006 10.1258 9.31752 10.0367 9.34268 9.93652C9.35547 9.91619 9.36317 9.89308 9.36513 9.86915C9.75852 9.63456 10.2148 9.5273 10.6715 9.56206C11.1281 9.52704 11.5843 9.63433 11.9773 9.86915L11.988 9.87476C12.0183 10.1375 12.253 10.3239 12.5084 10.2908C12.5934 10.2793 12.6736 10.2448 12.7404 10.1911C12.8071 10.1374 12.858 10.0664 12.8874 9.98592C12.8874 9.98367 12.8902 9.98255 12.8913 9.97918C13.7369 9.68195 14.6301 9.5434 15.526 9.57048V11.143H16.4747V9.57104C17.3708 9.54384 18.2642 9.6822 19.11 9.97918C19.11 9.98255 19.1133 9.98367 19.1133 9.98592C19.1342 10.0442 19.1664 10.0977 19.2082 10.1434C19.25 10.189 19.3005 10.2259 19.3567 10.2518C19.4129 10.2776 19.4737 10.292 19.5355 10.2941C19.5974 10.2962 19.659 10.2859 19.7169 10.2638C19.7969 10.2318 19.8668 10.1787 19.9191 10.1102C19.9715 10.0417 20.0044 9.96039 20.0144 9.87476L20.0234 9.86915C20.417 9.63455 20.8734 9.52729 21.3303 9.56206C21.787 9.52741 22.2433 9.63466 22.6367 9.86915C22.6383 9.893 22.6456 9.91611 22.658 9.93652C22.6725 9.99614 22.6986 10.0523 22.735 10.1017C22.7713 10.1512 22.8171 10.1929 22.8697 10.2244C22.9223 10.256 22.9807 10.2768 23.0414 10.2855C23.1021 10.2943 23.164 10.2909 23.2234 10.2756C23.3109 10.2512 23.3895 10.202 23.4498 10.134C23.5101 10.066 23.5494 9.98201 23.563 9.89216C23.5756 9.86498 23.581 9.83502 23.5787 9.80515C23.5793 6.52094 20.1783 3.84473 16.0004 3.84473C11.8213 3.84473 8.42141 6.52094 8.42141 9.80515C8.4195 9.83512 8.4253 9.86507 8.43826 9.89216C8.47699 10.1223 8.66843 10.2896 8.89468 10.2919" fill="#4197D3"/>
<mask id="mask0_285_7326" style="mask-type:alpha" maskUnits="userSpaceOnUse" x="0" y="20" width="29" height="13">
<path d="M0 20.3262H28.594V32.2689H0V20.3262Z" fill="white"/>
</mask>
<g mask="url(#mask0_285_7326)">
<path fill-rule="evenodd" clip-rule="evenodd" d="M27.4169 23.19L17.6709 29.2352C16.8071 29.7719 15.777 29.975 14.7741 29.8061L8.85127 28.9489C8.37535 28.8687 7.88916 28.8712 7.41408 28.9562L6.14531 29.1835L5.09997 23.1642L5.43288 22.948C6.22985 22.429 7.15499 22.1409 8.10572 22.1157C9.05644 22.0904 9.99558 22.329 10.819 22.8049L13.3919 24.287C14.06 24.6716 14.874 24.7058 15.5707 24.3785L19.4887 22.5393C19.8803 22.3567 20.327 22.3311 20.7369 22.4678C21.1468 22.6045 21.4887 22.8931 21.6923 23.2742C21.752 23.3855 21.7656 23.5158 21.7301 23.637C21.6946 23.7582 21.6128 23.8606 21.5025 23.9221L16.0833 26.8829C15.1371 27.4044 14.0263 27.5407 12.9821 27.2636L8.23653 25.9532L7.98222 26.8723L12.7323 28.1831C14.0146 28.5235 15.3787 28.3575 16.5419 27.7194L21.9567 24.7608C22.1783 24.6384 22.3635 24.4592 22.4931 24.2417C22.6227 24.0242 22.6922 23.7761 22.6944 23.5229L25.9033 22.0212C26.1953 21.8857 26.527 21.8629 26.8348 21.9569C27.1426 22.051 27.4049 22.2554 27.5713 22.5309C27.6357 22.6394 27.6556 22.7687 27.6268 22.8915C27.598 23.0144 27.5228 23.1214 27.4169 23.19ZM2.66011 31.2388L1.02867 21.8561L3.81604 21.3581L5.44748 30.7398L2.66011 31.2388ZM28.3847 22.0324C28.0963 21.5558 27.6418 21.2027 27.1087 21.041C26.5755 20.8794 26.0015 20.9205 25.4969 21.1566L22.3867 22.6106C22.0386 22.0849 21.5134 21.7015 20.9066 21.5303C20.2997 21.359 19.6516 21.4113 19.08 21.6776L15.162 23.5156C14.958 23.6112 14.7339 23.6561 14.5087 23.6465C14.2836 23.6368 14.0642 23.5728 13.8691 23.46L11.2956 21.9779C10.3213 21.4143 9.21012 21.1312 8.08492 21.1601C6.95973 21.1889 5.86445 21.5285 4.92032 22.1413L4.67387 20.7215C4.65233 20.5971 4.5823 20.4863 4.47915 20.4135C4.37599 20.3406 4.24815 20.3117 4.12369 20.333L4.12032 20.3336L0.393165 21C0.269151 21.022 0.158911 21.0923 0.0865361 21.1954C0.0141614 21.2985 -0.0144626 21.426 0.00691945 21.5501L1.8006 31.8744C1.82306 31.999 1.89324 32.1101 1.99822 32.182C2.04946 32.2183 2.10746 32.244 2.16879 32.2575C2.23011 32.271 2.29352 32.272 2.35527 32.2606L6.08187 31.5948C6.206 31.5724 6.3163 31.502 6.38874 31.3987C6.46118 31.2955 6.48991 31.1678 6.46867 31.0435L6.30755 30.1205L7.58194 29.8932C7.95249 29.8263 8.33185 29.8244 8.70306 29.8875L14.6247 30.7454C15.8537 30.9523 17.1159 30.7036 18.1745 30.0459L27.9205 23.999C28.2408 23.7982 28.4692 23.4792 28.5561 23.1113C28.643 22.7433 28.5814 22.3559 28.3847 22.033V22.0324Z" fill="#4197D3"/>
</g>
<path fill-rule="evenodd" clip-rule="evenodd" d="M2.24609 22.5369L3.20329 22.3713L3.3689 23.3274L2.41171 23.4941L2.24609 22.5369ZM25.4657 15.0731C25.3983 15.0736 25.332 15.0551 25.2746 15.0196C25.2172 14.9842 25.171 14.9332 25.1413 14.8726C24.4294 13.427 23.2606 12.9605 23.2471 12.9549C23.2034 12.9382 23.1634 12.913 23.1294 12.8807C23.0955 12.8485 23.0683 12.8099 23.0493 12.7672C23.0303 12.7244 23.0199 12.6783 23.0188 12.6315C23.0177 12.5847 23.0258 12.5382 23.0427 12.4945C23.0776 12.4063 23.1457 12.3352 23.2325 12.2967C23.3192 12.2582 23.4176 12.2552 23.5064 12.2885C23.5648 12.3109 24.9476 12.8499 25.7886 14.5605C25.8092 14.6026 25.8214 14.6483 25.8242 14.6951C25.8271 14.7419 25.8206 14.7888 25.8052 14.8331C25.7898 14.8774 25.7658 14.9182 25.7345 14.9531C25.7032 14.988 25.6653 15.0164 25.6229 15.0366C25.574 15.0605 25.5202 15.0729 25.4657 15.0731ZM9.54434 4.96779C9.44646 4.96959 9.35186 4.93247 9.28134 4.86458C9.21081 4.79668 9.17012 4.70356 9.1682 4.60569V3.08428C9.1682 2.88442 9.33662 2.72218 9.54434 2.72218C9.75206 2.72218 9.92048 2.88442 9.92048 3.08428V4.60569C9.92048 4.80554 9.75206 4.96779 9.54434 4.96779ZM11.2285 3.84498C11.1797 3.84558 11.1313 3.83655 11.086 3.81842C11.0407 3.80029 10.9994 3.77341 10.9644 3.73931C10.9295 3.70522 10.9016 3.66458 10.8824 3.61971C10.8632 3.57485 10.853 3.52663 10.8524 3.47783V0.84372C10.8524 0.641054 11.0208 0.476562 11.2285 0.476562C11.4363 0.476562 11.6047 0.641054 11.6047 0.84372V3.47783C11.6047 3.68049 11.4363 3.84498 11.2285 3.84498Z" fill="#EB9AA7"/>
</g>
<defs>
<clipPath id="clip0_285_7326">
<rect width="28.6316" height="32" fill="white" transform="translate(0 0.476562)"/>
</clipPath>
</defs>
</svg>
