<svg width="16" height="16" viewBox="0 0 16 16" fill="none" xmlns="http://www.w3.org/2000/svg">
<path d="M12.8079 5.06778H14.3387C14.7441 5.06778 14.9185 5.24141 14.9185 5.64681C14.9185 6.3684 14.9185 7.09026 14.9185 7.81239V7.98761C15.0889 8.06009 15.2602 8.08956 15.3621 8.18911C15.4557 8.29708 15.5077 8.43491 15.5087 8.57778C15.5198 9.65699 15.5151 10.737 15.5151 11.817C15.5151 12.2463 15.3741 12.396 14.9185 12.4287V12.7353C14.9185 13.3573 14.9185 13.9802 14.9185 14.603C14.9185 15.4337 14.3482 16 13.5215 16H1.39063C0.561511 16 0 15.4337 0 14.6006C0 11.162 0 7.72398 0 4.28646C0 3.23991 0.728765 2.47849 1.77611 2.44185C2.00071 2.43389 2.26354 2.50557 2.44036 2.41159C2.61717 2.31761 2.6793 2.05955 2.80115 1.88194C3.22796 1.26733 3.80508 0.772293 4.4775 0.44403C5.14993 0.115768 5.89522 -0.0347761 6.64234 0.00675253C7.38945 0.0482812 8.11348 0.280496 8.74538 0.68126C9.37728 1.08202 9.89598 1.63797 10.252 2.2961C10.2715 2.34356 10.3057 2.38352 10.3496 2.41005C10.3934 2.43659 10.4447 2.44829 10.4958 2.44345C11.0589 2.43628 11.622 2.43946 12.1858 2.44345C12.639 2.44345 12.8079 2.61389 12.8079 3.06707V5.06778ZM0.951776 5.82124V14.5919C0.951776 14.9399 1.06726 15.0578 1.41292 15.0578H13.4833C13.8433 15.0578 13.9612 14.9407 13.9612 14.5871C13.9612 13.9244 13.9612 13.2607 13.9612 12.5959C13.9612 12.5394 13.9532 12.4828 13.9484 12.4159C13.449 12.4159 12.9656 12.4215 12.4829 12.4159C11.3583 12.3984 10.4026 11.4395 10.3827 10.3133C10.3588 9.02141 11.3201 8.04495 12.6167 8.04336H13.9484V6.01318H13.7597C10.0683 6.01318 6.37647 6.01318 2.68408 6.01318C2.10983 6.01159 1.51567 6.10716 0.951776 5.82124ZM9.76382 5.06699C9.90295 4.38745 9.8328 3.6817 9.56264 3.04284C9.29248 2.40398 8.835 1.86204 8.25054 1.48849C7.65437 1.11009 6.95654 0.923484 6.25107 0.953816C5.54559 0.984148 4.86637 1.22996 4.30487 1.65814C3.18983 2.50796 2.76929 3.94955 3.04646 5.05504H7.09089L7.11319 4.98973C7.0001 4.94752 6.88939 4.87743 6.7731 4.86787C6.53416 4.84876 6.29523 4.86787 6.05629 4.8607C5.33947 4.84398 4.77 4.33504 4.70231 3.65725C4.637 3.02008 5.0862 2.41876 5.75045 2.25946C5.8301 2.24035 5.91611 2.23159 5.99496 2.21805C6.05868 1.57292 6.14947 1.40008 6.46009 1.40884C7.00805 1.42398 6.95549 1.85008 6.96823 2.23398C7.11558 2.23398 7.2462 2.23398 7.37761 2.23398C7.44981 2.23254 7.52181 2.24221 7.59107 2.26265C7.69082 2.30112 7.77407 2.37311 7.82654 2.46627C7.879 2.55942 7.8974 2.66794 7.87859 2.77318C7.86352 2.87933 7.81086 2.97654 7.73018 3.04714C7.64949 3.11773 7.54615 3.15703 7.43894 3.15787C6.98177 3.16504 6.52461 3.15787 6.06744 3.16424C5.80302 3.16424 5.64771 3.32353 5.65089 3.54495C5.65408 3.76637 5.81656 3.90575 6.08019 3.90814C6.28567 3.90814 6.49116 3.90814 6.69585 3.90814C7.4039 3.90814 7.87779 4.27132 8.08328 4.95389C8.09421 4.98035 8.11136 5.00379 8.13326 5.02222C8.15516 5.04066 8.18119 5.05356 8.20912 5.05982C8.72204 5.07017 9.24134 5.06699 9.76382 5.06699ZM14.5474 11.461V9.00787C14.5243 9.00216 14.5009 8.9979 14.4773 8.99513C13.8019 8.99513 13.1233 8.98796 12.4511 8.99513C11.8617 9.0015 11.3575 9.53035 11.336 10.1492C11.3113 10.8342 11.7589 11.4283 12.3714 11.4538C13.0906 11.4865 13.8122 11.461 14.5474 11.461ZM11.8394 5.05743V3.4H10.7387V5.05743H11.8394ZM2.06602 3.40079C1.69726 3.37052 1.3054 3.37451 1.07045 3.7807C0.979145 3.92482 0.933418 4.09312 0.939244 4.26362C0.945069 4.43412 1.00217 4.59891 1.1031 4.73646C1.33726 5.07973 1.6885 5.09964 2.06602 5.05504V3.40079Z" fill="#E6E7E8"/>
<path d="M13.2941 10.2315C13.2944 10.3125 13.2788 10.3928 13.248 10.4678C13.2173 10.5428 13.1721 10.6109 13.115 10.6684C13.0579 10.7259 12.99 10.7715 12.9152 10.8028C12.8405 10.834 12.7603 10.8502 12.6792 10.8504C12.519 10.846 12.3665 10.7805 12.253 10.6674C12.1394 10.5543 12.0734 10.4021 12.0684 10.2419C12.0681 10.0782 12.1319 9.92095 12.246 9.80367C12.3602 9.6864 12.5156 9.61842 12.6792 9.61426C12.7602 9.61426 12.8403 9.63024 12.9151 9.66129C12.9899 9.69234 13.0577 9.73784 13.1149 9.79519C13.172 9.85254 13.2172 9.92061 13.248 9.99548C13.2788 10.0704 13.2944 10.1506 13.2941 10.2315Z" fill="#E6E7E8"/>
</svg>
