<svg width="32" height="27" viewBox="0 0 32 27" fill="none" xmlns="http://www.w3.org/2000/svg">
<mask id="mask0_912_14711" style="mask-type:alpha" maskUnits="userSpaceOnUse" x="0" y="0" width="32" height="27">
<path d="M0 0.976562H32V26.1194H0V0.976562Z" fill="white"/>
</mask>
<g mask="url(#mask0_912_14711)">
<path fill-rule="evenodd" clip-rule="evenodd" d="M26.08 24.5771C23.6731 24.5771 21.712 22.6206 21.712 20.2114C21.712 17.8086 23.6731 15.8514 26.0806 15.8514C28.4943 15.8514 30.4549 17.8086 30.4549 20.2114C30.4549 22.6206 28.4949 24.5771 26.0806 24.5771H26.08ZM5.28686 20.2114C4.88342 20.2123 4.49612 20.0531 4.21004 19.7686C3.92396 19.4841 3.7625 19.0977 3.76114 18.6943V16.0434H8.68686C10.9709 16.0434 12.832 14.1863 12.832 11.9068C12.832 9.62113 10.9709 7.76399 8.68743 7.76399H3.76V3.97999C3.7606 3.78008 3.80057 3.58225 3.87762 3.39778C3.95468 3.21332 4.06732 3.04584 4.2091 2.90491C4.35088 2.76398 4.51903 2.65235 4.70395 2.5764C4.88888 2.50046 5.08695 2.46168 5.28686 2.46228H24.5606C24.9632 2.46243 25.3493 2.62223 25.6342 2.90663C25.9191 3.19104 26.0797 3.57683 26.0806 3.97942V14.3028C22.8171 14.3028 20.1606 16.9531 20.1606 20.2108H5.28686V20.2114ZM1.88 14.5571C1.82912 14.5568 1.77882 14.5464 1.73195 14.5266C1.68509 14.5067 1.64259 14.4779 1.60688 14.4416C1.57117 14.4054 1.54295 14.3625 1.52382 14.3153C1.5047 14.2682 1.49505 14.2177 1.49543 14.1668V9.64056C1.49543 9.43028 1.66914 9.25599 1.88 9.25599H8.68743C9.39095 9.25614 10.0657 9.53541 10.5635 10.0325C11.0614 10.5296 11.3416 11.2039 11.3429 11.9074C11.3412 12.6106 11.0607 13.2845 10.5629 13.7812C10.0651 14.278 9.39066 14.557 8.68743 14.5571H1.88ZM27.576 14.4954V3.97999C27.576 2.32628 26.2234 0.976562 24.5606 0.976562H5.28686C3.624 0.976562 2.27143 2.32628 2.27143 3.97999V7.76399H1.88C1.38203 7.76414 0.904454 7.96179 0.552017 8.31358C0.199579 8.66538 0.00105916 9.1426 0 9.64056L0 14.1668C0.00120992 14.6648 0.199778 15.1419 0.552183 15.4937C0.904588 15.8454 1.38208 16.0431 1.88 16.0434H2.27143V18.6948C2.27143 20.3543 3.624 21.704 5.28686 21.704H20.3531C21.0171 24.2434 23.332 26.1194 26.0806 26.1194C29.344 26.1194 32 23.468 32 20.2114C32 17.4686 30.12 15.1583 27.5754 14.4954H27.576Z" fill="#4196D2"/>
</g>
<path fill-rule="evenodd" clip-rule="evenodd" d="M8.28516 11.706C8.39465 11.706 8.49966 11.7495 8.57709 11.8269C8.65452 11.9043 8.69801 12.0094 8.69801 12.1189C8.69801 12.2284 8.65452 12.3334 8.57709 12.4108C8.49966 12.4882 8.39465 12.5317 8.28516 12.5317C8.17566 12.5317 8.07065 12.4882 7.99322 12.4108C7.9158 12.3334 7.8723 12.2284 7.8723 12.1189C7.8723 12.0094 7.9158 11.9043 7.99322 11.8269C8.07065 11.7495 8.17566 11.706 8.28516 11.706ZM6.28516 12.1191C6.28516 13.222 7.1823 14.1191 8.28516 14.1191C9.38858 14.1191 10.2852 13.222 10.2852 12.1191C10.2852 11.0163 9.38858 10.1191 8.28516 10.1191C7.1823 10.1191 6.28516 11.0163 6.28516 12.1191ZM25.0846 22.6906L22.8566 20.4711L23.9594 19.3717L25.0846 20.4934L27.4674 18.1191L28.5709 19.2174L25.0846 22.6906Z" fill="#EA9AA6"/>
</svg>
