<?xml version="1.0" encoding="UTF-8"?>
<svg width="31px" height="32px" viewBox="0 0 31 32" version="1.1" xmlns="http://www.w3.org/2000/svg" xmlns:xlink="http://www.w3.org/1999/xlink">
    <title>icons / ATM</title>
    <g id="Page-1" stroke="none" stroke-width="1" fill="none" fill-rule="evenodd">
        <g id="Homepage-DOC-Menu" transform="translate(-270.000000, -281.000000)">
            <g id="Start-Here" transform="translate(-12.000000, 144.000000)">
                <g id="Quick-Link-Card-with-Description" transform="translate(258.000000, 107.000000)">
                    <g id="Group-2" transform="translate(23.000000, 18.000000)">
                        <g id="icons-/-ATM" transform="translate(0.000000, 12.000000)">
                            <path d="M28.1403154,16.3177333 C27.5603154,14.7230667 26.462982,13.2610667 24.934982,12.0464 L26.238982,7.6964 C26.2903154,7.52706667 26.2716487,7.34506667 26.1876487,7.18906667 C26.1036487,7.03306667 25.9616487,6.91706667 25.7916487,6.8664 C23.200982,6.08973333 20.390982,7.1344 18.920982,9.36373333 C17.8803154,9.15906667 16.908982,9.0584 15.9663154,9.0584 C10.3363154,9.0584 5.55764868,11.9790667 3.91098202,16.0037333 C3.49942646,16.8600383 3.29364868,17.8862605 3.29364868,19.0824 C3.29364868,21.9383326 4.82298202,24.6390667 7.50364868,26.5410667 L7.50364868,29.9997333 C7.50364868,30.3684 7.80231535,30.6664 8.17031535,30.6664 L12.8476487,30.6664 C13.134982,30.6664 13.3896487,30.4830667 13.4803154,30.2110667 L13.8936487,28.9697333 C15.2783154,29.1524 16.6543154,29.1524 18.038982,28.9697333 L18.4523154,30.2110667 C18.542982,30.4830667 18.7976487,30.6664 19.0843154,30.6664 L23.7623154,30.6664 C24.1303154,30.6664 24.428982,30.3684 24.428982,29.9997333 L24.428982,26.5410667 C25.298982,25.9230667 26.0543154,25.2150667 26.680982,24.4284 L29.998982,24.4284 C30.366982,24.4284 30.6656487,24.1304 30.6656487,23.7610667 L30.6656487,18.1517333 C30.6656487,17.1404 29.842982,16.3177333 28.8323154,16.3177333 L28.1403154,16.3177333 Z" id="Fill-7" stroke="#787878" stroke-width="2"></path>
                            <path d="M14.6666667,6.66666667 C16.1369369,6.66666667 17.3333333,5.46997598 17.3333333,3.99946624 C17.3333333,2.52949026 16.1369369,1.33333333 14.6666667,1.33333333 C13.1963964,1.33333333 12,2.52949026 12,3.99946624 C12,5.46997598 13.1963964,6.66666667 14.6666667,6.66666667" id="Path" stroke="#FFCB05" stroke-width="2"></path>
                            <path d="M22.2099154,14.5286667 C21.640582,14.5286667 21.176582,14.992 21.176582,15.562 C21.176582,16.132 21.640582,16.596 22.2099154,16.596 C22.7792487,16.596 23.242582,16.132 23.242582,15.562 C23.242582,14.992 22.7792487,14.5286667 22.2099154,14.5286667" id="Path" fill="#787878"></path>
                            <path d="M17.1785331,12.09035 C15.5518664,11.9110166 14.0291997,12.0076833 12.5378664,12.30035 C12.1771997,12.37235 11.9418664,12.72235 12.0125331,13.0836833 C12.0751997,13.4016833 12.3538664,13.62235 12.6658664,13.62235 C12.7085331,13.62235 12.7518664,13.61835 12.7958664,13.6096833 C14.1538664,13.3410166 15.5398664,13.2496833 17.0318664,13.4156833 C17.3998664,13.45635 17.7278664,13.19235 17.7678664,12.82635 C17.8085331,12.46035 17.5445331,12.1310166 17.1785331,12.09035" id="Path" fill="#787878"></path>
                            <path d="M5.07803079,12.9951582 C3.95074964,12.8158249 2.89554056,12.9124916 1.8620455,13.2051582 C1.61210325,13.2771582 1.44901708,13.6271582 1.49798913,13.9884916 C1.54141718,14.3064916 1.73453337,14.5271582 1.95074959,14.5271582 C1.98031762,14.5271582 2.01034766,14.5231582 2.04083969,14.5144916 C2.98193465,14.2458249 3.94243363,14.1544916 4.97639069,14.3204916 C5.23141495,14.3611582 5.45871918,14.0971582 5.48643921,13.7311582 C5.51462124,13.3651582 5.33166905,13.0358249 5.07803079,12.9951582" id="Path-Copy" fill="#787878" transform="translate(3.489304, 13.715983) rotate(-140.000000) translate(-3.489304, -13.715983) "></path>
                        </g>
                    </g>
                </g>
            </g>
        </g>
    </g>
</svg>