<?xml version="1.0" encoding="UTF-8"?>
<svg width="27px" height="33px" viewBox="0 0 27 33" version="1.1" xmlns="http://www.w3.org/2000/svg" xmlns:xlink="http://www.w3.org/1999/xlink">
    <title>icons / ATM</title>
    <g id="Page-1" stroke="none" stroke-width="1" fill="none" fill-rule="evenodd">
        <g id="Homepage-DOC-Menu" transform="translate(-272.000000, -400.000000)">
            <g id="Start-Here" transform="translate(-12.000000, 144.000000)">
                <g id="Quick-Link-Card-with-Description-Copy" transform="translate(258.000000, 227.000000)">
                    <g id="Group-2" transform="translate(23.000000, 18.000000)">
                        <g id="Group-84" transform="translate(0.000000, 12.000000)">
                            <rect id="Rectangle-Copy-11" x="0" y="0" width="32" height="32"></rect>
                            <g id="Group-23" transform="translate(4.000000, 0.000000)" fill="#777777" fill-rule="nonzero" stroke="#777777" stroke-width="0.679799947">
                                <path d="M23.9556238,19.908017 L23.3667302,19.908017 C22.3697116,19.908833 21.3894272,20.1643676 20.5189101,20.6504198 L16.2182548,23.0551842 L14.9916241,23.0551842 C14.6968008,21.4440247 13.2936263,20.2731098 11.6557151,20.2714495 L3.90968593,20.2714495 C3.73107976,20.2715478 3.56156306,20.3502248 3.44619203,20.4865689 L1.09927786,23.2682251 L0.0638793091,23.2682251 L1.98478271e-12,30.7208848 C0.107185298,30.7208848 0.523147595,30.6989329 1.24788689,30.6550292 L13.6104954,30.0876129 C13.6226197,30.0876129 13.6343976,30.0876129 13.6451362,30.0848416 C15.5893714,29.8774832 17.4077609,29.0236073 18.8090402,27.6599856 L24.7523622,21.8649263 C25.0850809,21.5418075 25.1881708,21.0489774 25.012861,20.6195895 C24.8390632,20.1885698 24.4203625,19.9067837 23.9556238,19.908017 Z M17.9638047,26.7936192 C16.7620152,27.962597 15.2037808,28.6960488 13.5370569,28.8772633 L1.24927252,29.441562 L1.24927252,24.9728988 L4.19374049,21.4842239 L11.6557151,21.4842239 C12.6790302,21.4864428 13.5633803,22.1993961 13.7826602,23.1989435 L7.63980723,24.7068575 C7.34251663,24.7802404 7.14663025,25.0638061 7.18321145,25.3678267 C7.21979266,25.6718474 7.47735393,25.9008521 7.78356654,25.9016187 C7.83248835,25.9016831 7.88123356,25.8957499 7.9287115,25.8839518 L14.5125419,24.2676121 L16.3762169,24.2676121 C16.4797796,24.267683 16.5816318,24.2412062 16.6720493,24.1907096 L21.1109214,21.7086963 C21.8004439,21.3232002 22.5771095,21.1204777 23.3670766,21.1198027 L23.7827662,21.1198027 L17.9638047,26.7936192 Z" id="Shape"></path>
                                <path d="M13.1712501,17.9688756 C18.1332181,17.9688756 22.1556879,13.9464057 22.1556879,8.98443778 C22.1556879,4.02246981 18.1332181,-1.14989499e-12 13.1712501,-1.14989499e-12 C8.20928213,-1.14989499e-12 4.18681233,4.02246981 4.18681233,8.98443778 C4.19253912,13.9440317 8.21165619,17.9631488 13.1712501,17.9688756 L13.1712501,17.9688756 Z M13.1712501,1.21242798 C17.4636126,1.21242798 20.9432599,4.69207529 20.9432599,8.98443778 C20.9432599,13.2768003 17.4636126,16.7564476 13.1712501,16.7564476 C8.87888762,16.7564476 5.39924031,13.2768003 5.39924031,8.98443778 C5.40420352,4.6941328 8.88094513,1.21739119 13.1712501,1.21242798 Z" id="Shape"></path>
                            </g>
                            <path d="M20.0688385,13.1420639 L17.6248219,10.0470708 C17.3621472,9.71587228 17.179417,9.51030078 17.0880518,9.43035631 C17.6933457,9.30472929 18.1844332,9.06489588 18.5498936,8.69943544 C18.8239889,8.41391948 18.9838779,8.07130032 19.0524017,7.66015733 L20.27441,7.66015733 L20.5142434,6.95207774 L19.075243,6.95207774 C19.0181398,6.44956964 18.8468302,6.03842665 18.5727349,5.69580749 L20.27441,5.69580749 L20.5028228,4.98772789 L15.1351226,4.98772789 L14.8952892,5.69580749 L16.0830356,5.69580749 C16.6540676,5.69580749 17.0880518,5.82143451 17.3849884,6.0841092 C17.6248219,6.2896807 17.7732902,6.57519666 17.8303934,6.95207774 L15.1465433,6.95207774 L14.9181305,7.66015733 L17.8075521,7.66015733 C17.7390282,7.95709393 17.5791393,8.20834798 17.3278853,8.3910782 C16.9624248,8.64233225 16.4142342,8.77937991 15.6947339,8.77937991 L14.998075,8.77937991 L14.998075,9.61308653 C15.2721703,9.61308653 15.5234244,9.693031 15.7518371,9.8414993 C15.945988,9.97854697 16.1401388,10.1726978 16.3342897,10.4353725 L18.378584,13.1420639 L20.0688385,13.1420639 Z" id="₹" fill="#FFCB05" fill-rule="nonzero"></path>
                        </g>
                    </g>
                </g>
            </g>
        </g>
    </g>
</svg>