<?xml version="1.0" encoding="UTF-8"?>
<svg width="27px" height="30px" viewBox="0 0 27 30" version="1.1" xmlns="http://www.w3.org/2000/svg" xmlns:xlink="http://www.w3.org/1999/xlink">
    <title>icons / ATM</title>
    <g id="Page-1" stroke="none" stroke-width="1" fill="none" fill-rule="evenodd">
        <g id="Homepage-DOC-Menu" transform="translate(-884.000000, -402.000000)" stroke-width="2">
            <g id="Start-Here" transform="translate(-12.000000, 144.000000)">
                <g id="Quick-Link-Card-with-Description-Copy-6" transform="translate(870.000000, 227.000000)">
                    <g id="Group-2" transform="translate(23.000000, 18.000000)">
                        <g id="icons-/-ATM" transform="translate(0.000000, 12.000000)">
                            <path d="M16.6666667,9.33333333 C22.1895142,9.33333333 26.6666667,13.8104858 26.6666667,19.3333333 L26.6666667,19.3333333 L26.6674654,19.6715017 C26.6689447,20.2275238 26.6721102,21.369168 26.6737669,22.4849835 L26.6744547,23.0379081 C26.6745435,23.1287599 26.674618,23.2187246 26.6746766,23.3074484 L26.674721,24.062904 C26.6742328,24.7657471 26.6719974,25.2820911 26.6666667,25.3539802 C30.5815603,28.3414194 26.6848246,29.1028595 21.8952567,29.2965691 L21.4766907,29.3120229 L21.4766907,29.3120229 L21.0546349,29.324857 C20.9134803,29.3287254 20.7719126,29.3321975 20.6301002,29.3353138 L19.9908617,29.3470717 C19.6354437,29.3524208 19.2800761,29.3559246 18.9273917,29.358214 L18.5056268,29.3604188 C18.2955568,29.3612701 18.0868319,29.3617751 17.8800206,29.36207 L16.2915062,29.3621578 C15.2781434,29.3607409 14.1649695,29.3527737 13.0400201,29.3241346 L12.617784,29.3123983 C12.2657472,29.3017646 11.9136352,29.2889398 11.5641345,29.2734929 L11.146159,29.2536704 C6.08022511,28.9965129 1.8,28.1436851 6.66666667,25.3539802 C7.26617308,25.0103269 6.66666667,20.0189952 6.66666667,19.3333333 C6.66666667,13.8104858 11.1438192,9.33333333 16.6666667,9.33333333 Z M20.6666667,2.66666667 C21.7712362,2.66666667 22.6666667,3.56209717 22.6666667,4.66666667 C22.6666667,5.77123617 21.7712362,6.66666667 20.6666667,6.66666667 C19.5620972,6.66666667 18.6666667,5.77123617 18.6666667,4.66666667 C18.6666667,3.56209717 19.5620972,2.66666667 20.6666667,2.66666667 Z M12.6666667,2.66666667 C13.7712362,2.66666667 14.6666667,3.56209717 14.6666667,4.66666667 C14.6666667,5.77123617 13.7712362,6.66666667 12.6666667,6.66666667 C11.5620972,6.66666667 10.6666667,5.77123617 10.6666667,4.66666667 C10.6666667,3.56209717 11.5620972,2.66666667 12.6666667,2.66666667 Z M16.6666667,2 C17.7712362,2 18.6666667,2.8954305 18.6666667,4 C18.6666667,5.1045695 17.7712362,6 16.6666667,6 C15.5620972,6 14.6666667,5.1045695 14.6666667,4 C14.6666667,2.8954305 15.5620972,2 16.6666667,2 Z" id="Oval-Copy-3" stroke="#787878"></path>
                            <line x1="12" y1="8" x2="21.3333333" y2="8" id="Line-2" stroke="#FFCB05"></line>
                        </g>
                    </g>
                </g>
            </g>
        </g>
    </g>
</svg>