<?xml version="1.0" encoding="UTF-8"?>
<svg width="30px" height="30px" viewBox="0 0 30 30" version="1.1" xmlns="http://www.w3.org/2000/svg" xmlns:xlink="http://www.w3.org/1999/xlink">
    <title>icons / ATM</title>
    <g id="Page-1" stroke="none" stroke-width="1" fill="none" fill-rule="evenodd">
        <g id="Homepage-DOC-Menu" transform="translate(-576.000000, -523.000000)">
            <g id="Start-Here" transform="translate(-12.000000, 144.000000)">
                <g id="Quick-Link-Card-with-Description-Copy-7" transform="translate(564.000000, 348.000000)">
                    <g id="Group-2" transform="translate(23.000000, 18.000000)">
                        <g id="Group-84" transform="translate(0.000000, 12.000000)">
                            <rect id="Rectangle-Copy-12" x="0" y="0" width="32" height="32"></rect>
                            <path d="M9.92708333,15.1649167 L9.92708333,27.2291667 C9.92708333,29.1246042 11.4691458,30.6666667 13.3645833,30.6666667 C15.2600208,30.6666667 16.8020833,29.1246042 16.8020833,27.2291667 L16.8020833,26.3697917 C16.8020833,25.8951875 16.4173125,25.5104167 15.9427083,25.5104167 C15.4681042,25.5104167 15.0833333,25.8951875 15.0833333,26.3697917 L15.0833333,27.2291667 C15.0833333,28.1768855 14.312302,28.9479167 13.3645833,28.9479167 C12.4168646,28.9479167 11.6458333,28.1768854 11.6458333,27.2291667 L11.6458333,15.1656042 C11.6458333,15.1651458 11.0729167,15.1649167 9.92708333,15.1649167 Z" id="Shape-Copy-4" fill="#FFCB05" transform="translate(13.364583, 22.915792) scale(-1, 1) translate(-13.364583, -22.915792) "></path>
                            <path d="M30.4498177,15.1994635 C29.3004323,8.598375 23.7392448,3.53596875 16.9166667,3.1355 L16.9166667,2.19270833 C16.9166667,1.71810417 16.5318958,1.33333333 16.0572917,1.33333333 C15.5826875,1.33333333 15.1979167,1.71810417 15.1979167,2.19270833 L15.1979167,3.13538542 C8.39877083,3.53247396 2.71102605,8.56864063 1.55041146,15.1991198 C1.376875,15.5068333 1.33333333,15.7923177 1.33333333,16 C1.33333333,16.4746042 1.71810417,16.859375 2.19270833,16.859375 C2.51772396,16.859375 3.08439583,16.6314688 3.1575,16.0617604 C3.16448958,16.0071615 3.17268229,15.9530208 3.18035937,15.898651 C3.56192188,15.5996458 4.692,15.140625 6.48958333,15.140625 C8.58777604,15.140625 9.7774948,15.7661927 9.92771355,16.032427 C9.94346875,16.4474479 10.2580573,16.8349687 10.7861146,16.8602917 C11.2588281,16.8821198 11.659526,16.5184895 11.6842187,16.0466927 C11.9980052,15.7684843 13.2006146,15.278526 15.1979167,15.1649167 L16.9166667,15.1656042 C18.858224,15.2795 20.0162032,15.7601198 20.3148646,16.0332865 C20.3149792,16.0362083 20.315151,16.039073 20.315323,16.0419948 C20.3368073,16.5025052 20.7168802,16.8613229 21.1730938,16.8613229 C21.7146718,16.8613229 22.0559583,16.4625729 22.0722865,16.0324843 C22.2225052,15.7661927 23.412224,15.140625 25.5104167,15.140625 C27.3080573,15.140625 28.4381355,15.5996458 28.8196407,15.898651 C28.8268021,15.9490677 28.8344218,15.9992552 28.8410105,16.049901 C28.9110782,16.5928542 29.4573542,16.859375 29.8072917,16.859375 C30.2818958,16.859375 30.6666667,16.4746042 30.6666667,16 C30.6666667,15.792375 30.623125,15.5070625 30.4498177,15.1994635 Z M10.1062917,14.0987187 C9.04702605,13.607099 7.67546354,13.421875 6.48958333,13.421875 C5.46497917,13.421875 4.48196875,13.5558229 3.65989062,13.8033802 C5.01220312,9.58310417 8.49542187,6.34606771 12.7927552,5.24028125 C11.1766146,7.60470833 10.3990521,11.242901 10.1062917,14.0987187 Z M16.0572917,13.421875 C14.7003385,13.421875 13.1029323,13.5924323 11.8391927,14.0535157 C12.4723802,8.26820312 14.4978698,4.828125 16.0572917,4.828125 C17.6740625,4.828125 19.5621667,8.45033333 20.1614948,14.0334635 C19.0348542,13.6182135 17.5428645,13.421875 16.0572917,13.421875 Z M25.5104167,13.421875 C24.3295782,13.421875 22.9586458,13.6054948 21.8961718,14.0975729 C21.6137813,11.2681094 20.8703645,7.60934896 19.2945,5.24182813 C23.547375,6.34916145 26.9985677,9.58573958 28.3422865,13.8040104 C27.51975,13.5561093 26.5359375,13.421875 25.5104167,13.421875 Z" id="Shape-Copy-4" fill="#767676" fill-rule="nonzero" transform="translate(16.000000, 9.097328) scale(-1, 1) translate(-16.000000, -9.097328) "></path>
                        </g>
                    </g>
                </g>
            </g>
        </g>
    </g>
</svg>