<?xml version="1.0" encoding="UTF-8"?>
<svg width="26px" height="17px" viewBox="0 0 26 17" version="1.1" xmlns="http://www.w3.org/2000/svg" xmlns:xlink="http://www.w3.org/1999/xlink">
    <title>icons /close</title>
    <g id="Page-1" stroke="none" stroke-width="1" fill="none" fill-rule="evenodd">
        <g id="About-Us" transform="translate(-384.000000, -2292.000000)" stroke="#787878" stroke-width="2">
            <g id="Group-44" transform="translate(266.000000, 2168.000000)">
                <g id="Group-40" transform="translate(30.000000, 97.000000)">
                    <g id="Group-38" transform="translate(66.000000, 0.000000)">
                        <g id="icons-/close" transform="translate(23.000000, 23.000000)">
                            <path d="M12,19.2622124 C15.6818983,19.2622124 19.348565,16.885177 23,12.1311062 C19.348565,7.3770354 15.6818983,5 12,5 C8.31810167,5 4.651435,7.3770354 1,12.1311062 C4.651435,16.885177 8.31810167,19.2622124 12,19.2622124 Z M12,16 C9.86666667,16 8,14.1333333 8,12 C8,9.86666667 9.86666667,8 12,8 C14.1333333,8 16,9.86666667 16,12 C16,14.1333333 14.1333333,16 12,16 Z" id="Oval-2"></path>
                        </g>
                    </g>
                </g>
            </g>
        </g>
    </g>
</svg>