<?xml version="1.0" encoding="UTF-8"?>
<svg width="24px" height="19px" viewBox="0 0 24 19" version="1.1" xmlns="http://www.w3.org/2000/svg" xmlns:xlink="http://www.w3.org/1999/xlink">
    <title>icons /close</title>
    <g id="Page-1" stroke="none" stroke-width="1" fill="none" fill-rule="evenodd">
        <g id="About-Us" transform="translate(-957.000000, -2291.000000)" stroke="#787878" stroke-width="2">
            <g id="Group-44" transform="translate(266.000000, 2168.000000)">
                <g id="Group-40" transform="translate(30.000000, 97.000000)">
                    <g id="Group-39-Copy-2" transform="translate(572.000000, 0.000000)">
                        <g id="Group-38" transform="translate(66.000000, 0.000000)">
                            <g id="icons-/close" transform="translate(23.000000, 23.000000)">
                                <path d="M23,15 L22.5909091,12.4285714 L19.7272727,11.1428571 L19.7272727,10.2857143 L20.5454545,9.42857143 L20.5454545,8.14285714 C20.5454545,7.10095189 19.7272727,6 18.4873812,6 C17.2474896,6 16.4545455,7.03920202 16.4545455,8.08110728 L16.4545455,9.42857143 L17.2727273,10.2857143 L17.2727273,11.1428571 L14.4090909,12.4285714 L14,15" id="Shape"></path>
                                <path d="M19,21 L18.1818182,16.1428571 L12.4545455,13.7142857 L12.4545455,12.0952381 L14.0909091,10.4761905 L14.0909091,8.04761905 C14.0909091,6.0795758 12.4545455,4 9.97476232,4 C7.49497918,4 5.90909091,5.96293716 5.90909091,7.93098041 L5.90909091,10.4761905 L7.54545455,12.0952381 L7.54545455,13.7142857 L1.81818182,16.1428571 L1,21" id="Shape"></path>
                            </g>
                        </g>
                    </g>
                </g>
            </g>
        </g>
    </g>
</svg>