<?xml version="1.0" encoding="UTF-8"?>
<svg width="36px" height="36px" viewBox="0 0 36 36" version="1.1" xmlns="http://www.w3.org/2000/svg" xmlns:xlink="http://www.w3.org/1999/xlink">
    <title>icons / alert</title>
    <g id="Page-1" stroke="none" stroke-width="1" fill="none" fill-rule="evenodd">
        <g id="23" transform="translate(-761.000000, -860.000000)">
            <g id="Group-25" transform="translate(0.000000, 793.000000)">
                <g id="Group-11" transform="translate(729.000000, 35.000000)">
                    <g id="icons-/-alert" transform="translate(32.000000, 32.000000)">
                        <path d="M29.6679372,6.3370724 C26.5447763,3.2155798 22.408182,1.5 17.9987762,1.5 C13.5893704,1.5 9.45277606,3.2155798 6.32961514,6.3370724 C0.330330076,12.3331528 -0.13216602,21.937893 5.23564148,28.4588912 L5.9006001,29.2667059 L5.44114109,30.2065917 C4.48220425,32.168227 3.29271924,33.5441665 1.84423524,34.2528227 C1.81736577,34.2660959 1.80223277,34.295019 1.80501137,34.31448 C1.81118418,34.3543763 1.82677751,34.3700811 1.85204201,34.3739967 C2.20097,34.4266369 2.55043203,34.4544553 2.89263724,34.4544553 C4.77034077,34.4544553 6.79051491,33.7981628 8.48578702,32.6312256 L9.30430556,32.0677999 L10.1796966,32.5381345 C12.5735517,33.8243171 15.2635697,34.5 17.9987762,34.5 C22.4129777,34.5 26.5481752,32.7886138 29.6679372,29.6705184 C32.7856559,26.5544651 34.5,22.4147354 34.5,18.0075908 C34.5,13.5984584 32.7842559,9.4517264 29.6679372,6.3370724 Z" id="Path-2" stroke="#787878" stroke-width="2"></path>
                        <path d="M13.5,16.5139645 L13.5,19.5139645 L10.5,19.5139645 L10.5,16.5139645 L13.5,16.5139645 Z M25.5,16.5 L25.5,19.5 L22.5,19.5 L22.5,16.5 L25.5,16.5 Z M19.5,16.5 L19.5,19.5 L16.5,19.5 L16.5,16.5 L19.5,16.5 Z" id="Rectangle-Copy-3" fill="#787878"></path>
                    </g>
                </g>
            </g>
        </g>
    </g>
</svg>