<?xml version="1.0" encoding="UTF-8"?>
<svg width="21px" height="24px" viewBox="0 0 21 24" version="1.1" xmlns="http://www.w3.org/2000/svg" xmlns:xlink="http://www.w3.org/1999/xlink">
    <title>icons /close copy</title>
    <g id="Page-1" stroke="none" stroke-width="1" fill="none" fill-rule="evenodd">
        <g id="Group" transform="translate(-2.000000, 0.000000)" stroke-width="2">
            <g>
                <path d="M12.5,7 C16.6421356,7 20,10.3578644 20,14.5 L20,14.5 L20.0004534,14.698577 C20.0013034,15.0218084 20.0031736,15.6864672 20.0045337,16.3997339 L20.005348,16.8792328 C20.0054656,16.9592783 20.0055726,17.0391206 20.0056671,17.118358 L20.0055537,18.3925375 C20.0047603,18.7376458 20.0030602,18.9742155 20,19.0154851 C23.1052632,21.3850987 19.6575703,21.8873842 15.7951549,21.9935281 L15.4011763,22.0030141 C14.8087813,22.0153666 14.2115777,22.0196616 13.6313535,22.0211213 L11.9986879,22.0211697 C11.4866607,22.0197809 10.9446145,22.0157973 10.3916846,22.0061494 L10.0216621,21.9988447 C9.77418556,21.9933706 9.52539904,21.9866428 9.27698248,21.978392 L8.71937822,21.9571438 C4.76871126,21.7861518 1.23529412,21.1735163 5,19.0154851 C5.44962981,18.7577452 5,15.0142464 5,14.5 C5,10.3578644 8.35786438,7 12.5,7 Z M15.5,2 C16.3284271,2 17,2.67157288 17,3.5 C17,4.32842712 16.3284271,5 15.5,5 C14.6715729,5 14,4.32842712 14,3.5 C14,2.67157288 14.6715729,2 15.5,2 Z M9.5,2 C10.3284271,2 11,2.67157288 11,3.5 C11,4.32842712 10.3284271,5 9.5,5 C8.67157288,5 8,4.32842712 8,3.5 C8,2.67157288 8.67157288,2 9.5,2 Z M12.5,1.5 C13.3284271,1.5 14,2.17157288 14,3 C14,3.82842712 13.3284271,4.5 12.5,4.5 C11.6715729,4.5 11,3.82842712 11,3 C11,2.17157288 11.6715729,1.5 12.5,1.5 Z" id="Oval-Copy-3" stroke="#787878"></path>
                <line x1="9" y1="6" x2="16" y2="6" id="Line-2" stroke="#FFCB05"></line>
            </g>
        </g>
    </g>
</svg>