<?xml version="1.0" encoding="UTF-8"?>
<svg width="22px" height="22px" viewBox="0 0 22 22" version="1.1" xmlns="http://www.w3.org/2000/svg" xmlns:xlink="http://www.w3.org/1999/xlink">
    <title>icons /close copy 3</title>
    <g id="Page-1" stroke="none" stroke-width="1" fill="none" fill-rule="evenodd">
        <g id="Group" transform="translate(-1.000000, -1.000000)" stroke="#787878" stroke-width="2">
            <g id="icons-/close-copy-3">
                <polyline id="Stroke-2" points="19.9999517 2.65908546 1.99995168 2.65908546 1.99995168 5.65908546"></polyline>
                <polygon id="Path" points="20.7963077 5.77272727 20.373729 5.77272727 19.9511502 5.77272727 18.4478717 5.77272727 7.27432554 5.77272727 6.8606149 5.77272727 6.44703864 5.77272727 3.30947549 5.77272727 1.99995168 5.77272727 1.99995168 21.7727273 21.9999517 21.7727273 21.9999517 5.77272727"></polygon>
                <path d="M18,14 C17.4666667,14 17,13.5333333 17,13 C17,12.4666667 17.4666667,12 18,12 C18.5333333,12 19,12.4666667 19,13 C19,13.5333333 18.5333333,14 18,14 Z" id="Path"></path>
            </g>
        </g>
    </g>
</svg>