<svg width="24" height="24" viewBox="0 0 24 24" fill="none" xmlns="http://www.w3.org/2000/svg">
<path fill-rule="evenodd" clip-rule="evenodd" d="M12.0001 2C10.3458 2 9 3.34582 9 5.00008C9 6.65418 10.3458 8 12.0001 8C13.6542 8 15 6.65418 15 5.00008C15 3.34582 13.6542 2 12.0001 2ZM12.0001 6.80013C11.0076 6.80013 10.2 5.9926 10.2 5.00008C10.2 4.00755 11.0076 3.20003 12.0001 3.20003C12.9926 3.20003 13.8 4.00755 13.8 5.00008C13.8 5.9926 12.9926 6.80013 12.0001 6.80013Z" fill="#777777"/>
<path fill-rule="evenodd" clip-rule="evenodd" d="M16.5 14C17.8786 14 19 12.8784 19 11.5C19 10.1216 17.8786 9 16.5 9C15.1216 9 14 10.1216 14 11.5C14 12.8784 15.1216 14 16.5 14ZM16.5 10.25C17.1893 10.25 17.75 10.8107 17.75 11.5C17.75 12.1893 17.1893 12.75 16.5 12.75C15.8109 12.75 15.25 12.1893 15.25 11.5C15.25 10.8107 15.8109 10.25 16.5 10.25Z" fill="#777777"/>
<path fill-rule="evenodd" clip-rule="evenodd" d="M20.525 14.931H20.9667C21.3153 14.93 21.6293 15.1414 21.7596 15.4647C21.8911 15.7867 21.8138 16.1563 21.5643 16.3987L17.1068 20.745C16.0558 21.7677 14.692 22.4081 13.2339 22.5636C13.2258 22.5657 13.217 22.5657 13.2079 22.5657L3.93592 22.9912C3.93592 22.9912 3.12058 23.0406 3 23.0406L3.04791 17.4511H3.82446L5.58464 15.3649C5.67117 15.2626 5.79831 15.2036 5.93226 15.2035H11.7418C12.9702 15.2048 14.0226 16.083 14.2437 17.2914H15.1637L18.3892 15.4878C19.0421 15.1232 19.7773 14.9316 20.525 14.931ZM13.1528 21.6579C14.4028 21.522 15.5715 20.9719 16.4729 20.0952L20.8371 15.8398H20.5253C19.9328 15.8403 19.3503 15.9924 18.8332 16.2815L15.504 18.143C15.4362 18.1809 15.3598 18.2007 15.2822 18.2007H13.8844L8.94653 19.4129C8.91092 19.4218 8.87437 19.4262 8.83768 19.4262C8.60802 19.4256 8.41484 19.2538 8.38741 19.0258C8.35997 18.7978 8.50689 18.5851 8.72986 18.5301L13.337 17.3992C13.1725 16.6495 12.5093 16.1148 11.7418 16.1131H6.14531L3.93695 18.7296V22.0811L13.1528 21.6579Z" fill="#777777"/>
<path d="M20.9667 14.931V15.2709L20.9677 15.2709L20.9667 14.931ZM20.525 14.931V14.5911L20.5248 14.5911L20.525 14.931ZM21.7596 15.4647L21.4444 15.5918L21.445 15.5931L21.7596 15.4647ZM21.5643 16.3987L21.3275 16.1548L21.327 16.1553L21.5643 16.3987ZM17.1068 20.745L17.3438 20.9885L17.3441 20.9883L17.1068 20.745ZM13.2339 22.5636L13.1978 22.2256L13.173 22.2283L13.1489 22.2345L13.2339 22.5636ZM13.2079 22.5657V22.2258H13.2001L13.1923 22.2261L13.2079 22.5657ZM3.93592 22.9912L3.92033 22.6517L3.91536 22.652L3.93592 22.9912ZM3 23.0406L2.66011 23.0377L2.65717 23.3805H3V23.0406ZM3.04791 17.4511V17.1112H2.71091L2.70802 17.4482L3.04791 17.4511ZM3.82446 17.4511V17.791H3.9824L4.08425 17.6703L3.82446 17.4511ZM5.58464 15.3649L5.32517 15.1453L5.32486 15.1457L5.58464 15.3649ZM5.93226 15.2035V14.8636L5.93208 14.8636L5.93226 15.2035ZM11.7418 15.2035L11.7421 14.8636H11.7418V15.2035ZM14.2437 17.2914L13.9094 17.3525L13.9604 17.6313H14.2437V17.2914ZM15.1637 17.2914V17.6313H15.2523L15.3296 17.588L15.1637 17.2914ZM18.3892 15.4878L18.2235 15.191L18.2233 15.1911L18.3892 15.4878ZM16.4729 20.0952L16.7099 20.3388L16.7101 20.3385L16.4729 20.0952ZM13.1528 21.6579L13.1684 21.9975L13.179 21.997L13.1895 21.9958L13.1528 21.6579ZM20.8371 15.8398L21.0744 16.0832L21.6725 15.4999H20.8371V15.8398ZM20.5253 15.8398V15.4999L20.525 15.4999L20.5253 15.8398ZM18.8332 16.2815L18.6673 15.9848L18.6673 15.9848L18.8332 16.2815ZM15.504 18.143L15.6698 18.4398L15.6699 18.4397L15.504 18.143ZM15.2822 18.2007L15.2824 17.8608H15.2822V18.2007ZM13.8844 18.2007V17.8608H13.8433L13.8034 17.8706L13.8844 18.2007ZM8.94653 19.4129L8.86549 19.0828L8.86456 19.0831L8.94653 19.4129ZM8.83768 19.4262L8.83682 19.7661L8.83722 19.7661L8.83768 19.4262ZM8.38741 19.0258L8.72487 18.9852V18.9852L8.38741 19.0258ZM8.72986 18.5301L8.64882 18.2L8.6484 18.2001L8.72986 18.5301ZM13.337 17.3992L13.418 17.7293L13.7401 17.6502L13.669 17.3263L13.337 17.3992ZM11.7418 16.1131L11.7425 15.7732H11.7418V16.1131ZM6.14531 16.1131V15.7732H5.9874L5.88556 15.8939L6.14531 16.1131ZM3.93695 18.7296L3.6772 18.5104L3.59705 18.6054V18.7296H3.93695ZM3.93695 22.0811H3.59705V22.437L3.95255 22.4207L3.93695 22.0811ZM20.9667 14.5911H20.525V15.2709H20.9667V14.5911ZM22.0749 15.3375C21.8926 14.8854 21.4533 14.5898 20.9658 14.5911L20.9677 15.2709C21.1772 15.2703 21.366 15.3974 21.4444 15.5918L22.0749 15.3375ZM21.8011 16.6425C22.1501 16.3036 22.2582 15.7866 22.0743 15.3362L21.445 15.5931C21.524 15.7868 21.4775 16.0091 21.3275 16.1548L21.8011 16.6425ZM17.3441 20.9883L21.8016 16.642L21.327 16.1553L16.8695 20.5016L17.3441 20.9883ZM13.2699 22.9016C14.8038 22.738 16.2383 22.0643 17.3438 20.9885L16.8697 20.5014C15.8733 21.471 14.5803 22.0782 13.1978 22.2256L13.2699 22.9016ZM13.2079 22.9056C13.2105 22.9056 13.2253 22.9057 13.2415 22.9047C13.2588 22.9037 13.2864 22.9011 13.3188 22.8927L13.1489 22.2345C13.1733 22.2282 13.1924 22.2266 13.201 22.2261C13.2085 22.2257 13.2144 22.2258 13.2079 22.2258V22.9056ZM3.9515 23.3308L13.2235 22.9052L13.1923 22.2261L3.92033 22.6517L3.9515 23.3308ZM3 23.3805C3.07269 23.3805 3.32037 23.3672 3.53232 23.3553C3.64218 23.3491 3.74819 23.3429 3.8267 23.3383C3.86596 23.3359 3.89838 23.334 3.92098 23.3326C3.93229 23.332 3.94115 23.3314 3.94718 23.3311C3.9502 23.3309 3.95251 23.3308 3.95408 23.3307C3.95486 23.3306 3.95545 23.3306 3.95585 23.3305C3.95605 23.3305 3.9562 23.3305 3.95631 23.3305C3.95636 23.3305 3.9564 23.3305 3.95643 23.3305C3.95644 23.3305 3.95645 23.3305 3.95646 23.3305C3.95646 23.3305 3.95647 23.3305 3.93592 22.9912C3.91536 22.652 3.91536 22.652 3.91536 22.652C3.91535 22.652 3.91534 22.652 3.91533 22.652C3.91531 22.652 3.91527 22.652 3.91523 22.652C3.91513 22.652 3.91499 22.652 3.91479 22.652C3.91441 22.652 3.91383 22.652 3.91307 22.6521C3.91154 22.6522 3.90926 22.6523 3.90628 22.6525C3.90031 22.6529 3.89153 22.6534 3.88031 22.6541C3.85786 22.6554 3.82563 22.6573 3.78658 22.6596C3.70844 22.6643 3.60308 22.6704 3.49403 22.6766C3.26817 22.6893 3.04789 22.7007 3 22.7007V23.3805ZM2.70802 17.4482L2.66011 23.0377L3.33989 23.0435L3.3878 17.454L2.70802 17.4482ZM3.82446 17.1112H3.04791V17.791H3.82446V17.1112ZM5.32486 15.1457L3.56467 17.2319L4.08425 17.6703L5.84443 15.5841L5.32486 15.1457ZM5.93208 14.8636C5.69821 14.8638 5.47624 14.9668 5.32517 15.1453L5.84412 15.5844C5.8661 15.5585 5.89841 15.5435 5.93245 15.5434L5.93208 14.8636ZM11.7418 14.8636H5.93226V15.5434H11.7418V14.8636ZM14.5781 17.2302C14.3274 15.8605 13.1346 14.8651 11.7421 14.8636L11.7414 15.5434C12.8059 15.5445 13.7178 16.3055 13.9094 17.3525L14.5781 17.2302ZM15.1637 16.9515H14.2437V17.6313H15.1637V16.9515ZM18.2233 15.1911L14.9978 16.9947L15.3296 17.588L18.5551 15.7844L18.2233 15.1911ZM20.5248 14.5911C19.7191 14.5917 18.9269 14.7982 18.2235 15.191L18.5549 15.7846C19.1572 15.4482 19.8355 15.2714 20.5253 15.2709L20.5248 14.5911ZM16.2359 19.8515C15.3889 20.6754 14.2907 21.1923 13.1161 21.32L13.1895 21.9958C14.515 21.8517 15.7541 21.2684 16.7099 20.3388L16.2359 19.8515ZM20.5998 15.5965L16.2356 19.8518L16.7101 20.3385L21.0744 16.0832L20.5998 15.5965ZM20.5253 16.1797H20.8371V15.4999H20.5253V16.1797ZM18.9991 16.5782C19.4656 16.3173 19.9911 16.1802 20.5256 16.1797L20.525 15.4999C19.8746 15.5005 19.2351 15.6674 18.6673 15.9848L18.9991 16.5782ZM15.6699 18.4397L18.9991 16.5782L18.6673 15.9848L15.3382 17.8463L15.6699 18.4397ZM15.2819 18.5406C15.4177 18.5407 15.5512 18.506 15.6698 18.4398L15.3383 17.8462C15.3212 17.8558 15.302 17.8608 15.2824 17.8608L15.2819 18.5406ZM13.8844 18.5406H15.2822V17.8608H13.8844V18.5406ZM9.02757 19.743L13.9654 18.5308L13.8034 17.8706L8.86549 19.0828L9.02757 19.743ZM8.83722 19.7661C8.9017 19.7662 8.96594 19.7583 9.0285 19.7428L8.86456 19.0831C8.85591 19.0852 8.84704 19.0863 8.83813 19.0863L8.83722 19.7661ZM8.04994 19.0664C8.09789 19.4649 8.43547 19.7651 8.83682 19.7661L8.83853 19.0863C8.78056 19.0861 8.7318 19.0428 8.72487 18.9852L8.04994 19.0664ZM8.6484 18.2001C8.25874 18.2963 8.002 18.668 8.04994 19.0664L8.72487 18.9852C8.71795 18.9277 8.75503 18.874 8.81131 18.8601L8.6484 18.2001ZM13.256 17.0691L8.64882 18.2L8.81089 18.8602L13.418 17.7293L13.256 17.0691ZM11.741 16.453C12.3492 16.4543 12.8747 16.878 13.005 17.472L13.669 17.3263C13.4704 16.421 12.6694 15.7752 11.7425 15.7732L11.741 16.453ZM6.14531 16.453H11.7418V15.7732H6.14531V16.453ZM4.1967 18.9489L6.40505 16.3324L5.88556 15.8939L3.6772 18.5104L4.1967 18.9489ZM4.27685 22.0811V18.7296H3.59705V22.0811H4.27685ZM13.1372 21.3184L3.92136 21.7416L3.95255 22.4207L13.1684 21.9975L13.1372 21.3184Z" fill="#777777"/>
</svg>
