<?xml version="1.0" encoding="UTF-8"?>
<svg width="16px" height="22px" viewBox="0 0 16 22" version="1.1" xmlns="http://www.w3.org/2000/svg" xmlns:xlink="http://www.w3.org/1999/xlink">
    <title>Group</title>
    <g id="Symbols" stroke="none" stroke-width="1" fill="none" fill-rule="evenodd">
        <g id="icons-/-pdf-file" transform="translate(-4.000000, -1.000000)" fill-rule="nonzero">
            <g id="Group" transform="translate(4.000000, 1.000000)">
                <path d="M12,0 L-1.77635684e-15,0 L-1.77635684e-15,22 L16,22 L16,4 L12,3.999 L12,0 Z M10,1.999 L10,6 L14,5.999 L14,19.999 L2,19.999 L2,1.999 L10,1.999 Z" id="Path-2" fill="#787878"></path>
                <path d="M4.32324219,14.5517578 L4.32324219,12.984375 C4.47753906,13.1503906 4.62451172,13.2675781 4.76416016,13.3359375 C4.90380859,13.4042969 5.05957031,13.4384766 5.23144531,13.4384766 C5.59277344,13.4384766 5.90039062,13.2944336 6.15429687,13.0063477 C6.40820312,12.7182617 6.53515625,12.3144531 6.53515625,11.7949219 C6.53515625,11.2890625 6.40917969,10.8945313 6.15722656,10.6113281 C5.90527344,10.328125 5.59863281,10.1865234 5.23730469,10.1865234 C5.03027344,10.1865234 4.84179687,10.2353516 4.671875,10.3330078 C4.50195312,10.4306641 4.3671875,10.5576172 4.26757812,10.7138672 L4.26757812,10.7138672 L4.26757812,10.2568359 L3.5,10.2568359 L3.5,14.5517578 L4.32324219,14.5517578 Z M5.02929687,12.7851563 C4.83007812,12.7851563 4.66113281,12.7016602 4.52246094,12.534668 C4.38378906,12.3676758 4.31445312,12.109375 4.31445312,11.7597656 C4.31445312,11.4550781 4.38085937,11.2250977 4.51367187,11.0698242 C4.64648437,10.9145508 4.81347656,10.8369141 5.01464844,10.8369141 C5.20800781,10.8369141 5.37011719,10.9160156 5.50097656,11.0742188 C5.63183594,11.2324219 5.69726562,11.4746094 5.69726562,11.8007813 C5.69726562,12.1503906 5.63378906,12.4018555 5.50683594,12.5551758 C5.37988281,12.7084961 5.22070312,12.7851563 5.02929687,12.7851563 Z M8.3046875,13.4384766 C8.48046875,13.4384766 8.65478516,13.3950195 8.82763672,13.3081055 C9.00048828,13.2211914 9.15039062,13.0888672 9.27734375,12.9111328 L9.27734375,12.9111328 L9.27734375,13.3681641 L10.0419922,13.3681641 L10.0419922,9.07324219 L9.21875,9.07324219 L9.21875,10.6201172 C8.96484375,10.3310547 8.6640625,10.1865234 8.31640625,10.1865234 C7.9375,10.1865234 7.62402344,10.3237305 7.37597656,10.5981445 C7.12792969,10.8725586 7.00390625,11.2734375 7.00390625,11.8007813 C7.00390625,12.3164063 7.13134766,12.7182617 7.38623047,13.0063477 C7.64111328,13.2944336 7.94726562,13.4384766 8.3046875,13.4384766 Z M8.5390625,12.7880859 C8.30078125,12.7880859 8.11523437,12.6806641 7.98242187,12.4658203 C7.890625,12.3173828 7.84472656,12.0771484 7.84472656,11.7451172 C7.84472656,11.4365234 7.91064453,11.2045898 8.04248047,11.0493164 C8.17431641,10.894043 8.33789062,10.8164063 8.53320312,10.8164063 C8.734375,10.8164063 8.89941406,10.8950195 9.02832031,11.0522461 C9.15722656,11.2094727 9.22167969,11.4667969 9.22167969,11.8242188 C9.22167969,12.1445313 9.15527344,12.3852539 9.02246094,12.5463867 C8.88964844,12.7075195 8.72851562,12.7880859 8.5390625,12.7880859 Z M11.7734375,13.3681641 L11.7734375,10.9042969 L12.3886719,10.9042969 L12.3886719,10.2568359 L11.7734375,10.2568359 L11.7734375,10.0371094 C11.7734375,9.87890625 11.7993164,9.77197266 11.8510742,9.71630859 C11.902832,9.66064453 11.9882812,9.6328125 12.1074219,9.6328125 C12.2285156,9.6328125 12.3544922,9.6484375 12.4853516,9.6796875 L12.4853516,9.6796875 L12.5966797,9.10546875 C12.3720703,9.03515625 12.1425781,9 11.9082031,9 C11.6796875,9 11.4907227,9.04052734 11.3413086,9.12158203 C11.1918945,9.20263672 11.0893555,9.30761719 11.0336914,9.43652344 C10.9780273,9.56542969 10.9501953,9.76074219 10.9501953,10.0224609 L10.9501953,10.0224609 L10.9501953,10.2568359 L10.4931641,10.2568359 L10.4931641,10.9042969 L10.9501953,10.9042969 L10.9501953,13.3681641 L11.7734375,13.3681641 Z" id="pdf" fill="#FFCB05"></path>
            </g>
        </g>
    </g>
</svg>