<?xml version="1.0" encoding="UTF-8"?>
<svg width="24px" height="24px" viewBox="0 0 24 24" version="1.1" xmlns="http://www.w3.org/2000/svg" xmlns:xlink="http://www.w3.org/1999/xlink">
    <title>icons /close copy 2</title>
    <g id="Page-1" stroke="none" stroke-width="1" fill="none" fill-rule="evenodd">
        <g id="Investors" transform="translate(-1001.000000, -1058.000000)">
            <g id="Group-39" transform="translate(978.000000, 1035.000000)">
                <g id="hotel" transform="translate(23.000000, 23.000000)">
                    <path d="M23.6,3.66101695 L19.2,3.66101695 L19.2,0.406779661 C19.2,0.182135593 19.0209,0 18.8,0 L5.2,0 C4.9791,0 4.8,0.182135593 4.8,0.406779661 L4.8,6.10169492 L0.4,6.10169492 C0.1791,6.10169492 0,6.28383051 0,6.50847458 L0,23.1864407 C0,23.4110847 0.1791,23.5932203 0.4,23.5932203 C0.6209,23.5932203 0.8,23.4110847 0.8,23.1864407 L0.8,6.91525424 L4.8,6.91525424 L4.8,23.5932203 C4.8,23.8178644 4.9791,24 5.2,24 L18.8,24 C19.0209,24 19.2,23.8178644 19.2,23.5932203 L19.2,4.47457627 L23.2,4.47457627 L23.2,23.1864407 C23.2,23.4110847 23.3791,23.5932203 23.6,23.5932203 C23.8209,23.5932203 24,23.4110847 24,23.1864407 L24,4.06779661 C24,3.84315254 23.8209,3.66101695 23.6,3.66101695 Z M11.6,23.1864407 L10,23.1864407 L10,19.5254237 L11.6,19.5254237 L11.6,23.1864407 Z M14,23.1864407 L12.4,23.1864407 L12.4,19.5254237 L14,19.5254237 L14,23.1864407 Z M18.4,23.1864407 L14.8,23.1864407 L14.8,19.1186441 C14.8,18.894 14.6209,18.7118644 14.4,18.7118644 L9.6,18.7118644 C9.3791,18.7118644 9.2,18.894 9.2,19.1186441 L9.2,23.1864407 L5.6,23.1864407 L5.6,0.813559322 L18.4,0.813559322 L18.4,23.1864407 Z" id="Shape" fill="#787878"></path>
                    <path d="M9.125,2 L6.875,2 C6.66790625,2 6.5,2.16790625 6.5,2.375 L6.5,4.625 C6.5,4.83209375 6.66790625,5 6.875,5 L9.125,5 C9.33209375,5 9.5,4.83209375 9.5,4.625 L9.5,2.375 C9.5,2.16790625 9.33209375,2 9.125,2 Z M8.75,4.25 L7.25,4.25 L7.25,2.75 L8.75,2.75 L8.75,4.25 Z" id="Shape" fill="#FFCB05"></path>
                    <path d="M13.125,2 L10.875,2 C10.6679062,2 10.5,2.16790625 10.5,2.375 L10.5,4.625 C10.5,4.83209375 10.6679062,5 10.875,5 L13.125,5 C13.3320938,5 13.5,4.83209375 13.5,4.625 L13.5,2.375 C13.5,2.16790625 13.3320938,2 13.125,2 Z M12.75,4.25 L11.25,4.25 L11.25,2.75 L12.75,2.75 L12.75,4.25 Z" id="Shape" fill="#FFCB05"></path>
                    <path d="M17.125,2 L14.875,2 C14.6679062,2 14.5,2.16790625 14.5,2.375 L14.5,4.625 C14.5,4.83209375 14.6679062,5 14.875,5 L17.125,5 C17.3320937,5 17.5,4.83209375 17.5,4.625 L17.5,2.375 C17.5,2.16790625 17.3320937,2 17.125,2 Z M16.75,4.25 L15.25,4.25 L15.25,2.75 L16.75,2.75 L16.75,4.25 Z" id="Shape" fill="#FFCB05"></path>
                    <path d="M9.125,6 L6.875,6 C6.66790625,6 6.5,6.16790625 6.5,6.375 L6.5,8.625 C6.5,8.83209375 6.66790625,9 6.875,9 L9.125,9 C9.33209375,9 9.5,8.83209375 9.5,8.625 L9.5,6.375 C9.5,6.16790625 9.33209375,6 9.125,6 Z M8.75,8.25 L7.25,8.25 L7.25,6.75 L8.75,6.75 L8.75,8.25 Z" id="Shape" fill="#FFCB05"></path>
                    <path d="M13.125,6 L10.875,6 C10.6679062,6 10.5,6.16790625 10.5,6.375 L10.5,8.625 C10.5,8.83209375 10.6679062,9 10.875,9 L13.125,9 C13.3320938,9 13.5,8.83209375 13.5,8.625 L13.5,6.375 C13.5,6.16790625 13.3320938,6 13.125,6 Z M12.75,8.25 L11.25,8.25 L11.25,6.75 L12.75,6.75 L12.75,8.25 Z" id="Shape" fill="#FFCB05"></path>
                    <path d="M17.125,6 L14.875,6 C14.6679062,6 14.5,6.16790625 14.5,6.375 L14.5,8.625 C14.5,8.83209375 14.6679062,9 14.875,9 L17.125,9 C17.3320937,9 17.5,8.83209375 17.5,8.625 L17.5,6.375 C17.5,6.16790625 17.3320937,6 17.125,6 Z M16.75,8.25 L15.25,8.25 L15.25,6.75 L16.75,6.75 L16.75,8.25 Z" id="Shape" fill="#FFCB05"></path>
                    <path d="M9.125,10 L6.875,10 C6.66790625,10 6.5,10.1679062 6.5,10.375 L6.5,12.625 C6.5,12.8320938 6.66790625,13 6.875,13 L9.125,13 C9.33209375,13 9.5,12.8320938 9.5,12.625 L9.5,10.375 C9.5,10.1679062 9.33209375,10 9.125,10 Z M8.75,12.25 L7.25,12.25 L7.25,10.75 L8.75,10.75 L8.75,12.25 Z" id="Shape" fill="#FFCB05"></path>
                    <path d="M13.125,10 L10.875,10 C10.6679062,10 10.5,10.1679062 10.5,10.375 L10.5,12.625 C10.5,12.8320938 10.6679062,13 10.875,13 L13.125,13 C13.3320938,13 13.5,12.8320938 13.5,12.625 L13.5,10.375 C13.5,10.1679062 13.3320938,10 13.125,10 Z M12.75,12.25 L11.25,12.25 L11.25,10.75 L12.75,10.75 L12.75,12.25 Z" id="Shape" fill="#FFCB05"></path>
                    <path d="M17.125,10 L14.875,10 C14.6679062,10 14.5,10.1679062 14.5,10.375 L14.5,12.625 C14.5,12.8320938 14.6679062,13 14.875,13 L17.125,13 C17.3320937,13 17.5,12.8320938 17.5,12.625 L17.5,10.375 C17.5,10.1679062 17.3320937,10 17.125,10 Z M16.75,12.25 L15.25,12.25 L15.25,10.75 L16.75,10.75 L16.75,12.25 Z" id="Shape" fill="#FFCB05"></path>
                    <path d="M9.125,14 L6.875,14 C6.66790625,14 6.5,14.1679062 6.5,14.375 L6.5,16.625 C6.5,16.8320937 6.66790625,17 6.875,17 L9.125,17 C9.33209375,17 9.5,16.8320937 9.5,16.625 L9.5,14.375 C9.5,14.1679062 9.33209375,14 9.125,14 Z M8.75,16.25 L7.25,16.25 L7.25,14.75 L8.75,14.75 L8.75,16.25 Z" id="Shape" fill="#FFCB05"></path>
                    <path d="M13.125,14 L10.875,14 C10.6679062,14 10.5,14.1679062 10.5,14.375 L10.5,16.625 C10.5,16.8320937 10.6679062,17 10.875,17 L13.125,17 C13.3320938,17 13.5,16.8320937 13.5,16.625 L13.5,14.375 C13.5,14.1679062 13.3320938,14 13.125,14 Z M12.75,16.25 L11.25,16.25 L11.25,14.75 L12.75,14.75 L12.75,16.25 Z" id="Shape" fill="#FFCB05"></path>
                    <path d="M17.125,14 L14.875,14 C14.6679062,14 14.5,14.1679062 14.5,14.375 L14.5,16.625 C14.5,16.8320937 14.6679062,17 14.875,17 L17.125,17 C17.3320937,17 17.5,16.8320937 17.5,16.625 L17.5,14.375 C17.5,14.1679062 17.3320937,14 17.125,14 Z M16.75,16.25 L15.25,16.25 L15.25,14.75 L16.75,14.75 L16.75,16.25 Z" id="Shape" fill="#FFCB05"></path>
                    <path d="M21.6666667,6 L20.3333333,6 C20.14925,6 20,6.14925 20,6.33333333 L20,7.66666667 C20,7.85075 20.14925,8 20.3333333,8 L21.6666667,8 C21.85075,8 22,7.85075 22,7.66666667 L22,6.33333333 C22,6.14925 21.85075,6 21.6666667,6 Z M21.3333333,7.33333333 L20.6666667,7.33333333 L20.6666667,6.66666667 L21.3333333,6.66666667 L21.3333333,7.33333333 Z" id="Shape" fill="#787878"></path>
                    <path d="M21.6666667,9 L20.3333333,9 C20.14925,9 20,9.14925 20,9.33333333 L20,10.6666667 C20,10.85075 20.14925,11 20.3333333,11 L21.6666667,11 C21.85075,11 22,10.85075 22,10.6666667 L22,9.33333333 C22,9.14925 21.85075,9 21.6666667,9 Z M21.3333333,10.3333333 L20.6666667,10.3333333 L20.6666667,9.66666667 L21.3333333,9.66666667 L21.3333333,10.3333333 Z" id="Shape" fill="#787878"></path>
                    <path d="M21.6666667,12 L20.3333333,12 C20.14925,12 20,12.14925 20,12.3333333 L20,13.6666667 C20,13.85075 20.14925,14 20.3333333,14 L21.6666667,14 C21.85075,14 22,13.85075 22,13.6666667 L22,12.3333333 C22,12.14925 21.85075,12 21.6666667,12 Z M21.3333333,13.3333333 L20.6666667,13.3333333 L20.6666667,12.6666667 L21.3333333,12.6666667 L21.3333333,13.3333333 Z" id="Shape" fill="#787878"></path>
                    <path d="M21.6666667,15 L20.3333333,15 C20.14925,15 20,15.14925 20,15.3333333 L20,16.6666667 C20,16.85075 20.14925,17 20.3333333,17 L21.6666667,17 C21.85075,17 22,16.85075 22,16.6666667 L22,15.3333333 C22,15.14925 21.85075,15 21.6666667,15 Z M21.3333333,16.3333333 L20.6666667,16.3333333 L20.6666667,15.6666667 L21.3333333,15.6666667 L21.3333333,16.3333333 Z" id="Shape" fill="#787878"></path>
                    <path d="M21.6666667,18 L20.3333333,18 C20.14925,18 20,18.14925 20,18.3333333 L20,19.6666667 C20,19.85075 20.14925,20 20.3333333,20 L21.6666667,20 C21.85075,20 22,19.85075 22,19.6666667 L22,18.3333333 C22,18.14925 21.85075,18 21.6666667,18 Z M21.3333333,19.3333333 L20.6666667,19.3333333 L20.6666667,18.6666667 L21.3333333,18.6666667 L21.3333333,19.3333333 Z" id="Shape" fill="#787878"></path>
                    <path d="M3.66666667,8 L2.33333333,8 C2.14925,8 2,8.14925 2,8.33333333 L2,9.66666667 C2,9.85075 2.14925,10 2.33333333,10 L3.66666667,10 C3.85075,10 4,9.85075 4,9.66666667 L4,8.33333333 C4,8.14925 3.85075,8 3.66666667,8 Z M3.33333333,9.33333333 L2.66666667,9.33333333 L2.66666667,8.66666667 L3.33333333,8.66666667 L3.33333333,9.33333333 Z" id="Shape" fill="#787878"></path>
                    <path d="M3.66666667,11 L2.33333333,11 C2.14925,11 2,11.14925 2,11.3333333 L2,12.6666667 C2,12.85075 2.14925,13 2.33333333,13 L3.66666667,13 C3.85075,13 4,12.85075 4,12.6666667 L4,11.3333333 C4,11.14925 3.85075,11 3.66666667,11 Z M3.33333333,12.3333333 L2.66666667,12.3333333 L2.66666667,11.6666667 L3.33333333,11.6666667 L3.33333333,12.3333333 Z" id="Shape" fill="#787878"></path>
                    <path d="M3.66666667,14 L2.33333333,14 C2.14925,14 2,14.14925 2,14.3333333 L2,15.6666667 C2,15.85075 2.14925,16 2.33333333,16 L3.66666667,16 C3.85075,16 4,15.85075 4,15.6666667 L4,14.3333333 C4,14.14925 3.85075,14 3.66666667,14 Z M3.33333333,15.3333333 L2.66666667,15.3333333 L2.66666667,14.6666667 L3.33333333,14.6666667 L3.33333333,15.3333333 Z" id="Shape" fill="#787878"></path>
                    <path d="M3.66666667,17 L2.33333333,17 C2.14925,17 2,17.14925 2,17.3333333 L2,18.6666667 C2,18.85075 2.14925,19 2.33333333,19 L3.66666667,19 C3.85075,19 4,18.85075 4,18.6666667 L4,17.3333333 C4,17.14925 3.85075,17 3.66666667,17 Z M3.33333333,18.3333333 L2.66666667,18.3333333 L2.66666667,17.6666667 L3.33333333,17.6666667 L3.33333333,18.3333333 Z" id="Shape" fill="#787878"></path>
                    <path d="M3.66666667,20 L2.33333333,20 C2.14925,20 2,20.14925 2,20.3333333 L2,21.6666667 C2,21.85075 2.14925,22 2.33333333,22 L3.66666667,22 C3.85075,22 4,21.85075 4,21.6666667 L4,20.3333333 C4,20.14925 3.85075,20 3.66666667,20 Z M3.33333333,21.3333333 L2.66666667,21.3333333 L2.66666667,20.6666667 L3.33333333,20.6666667 L3.33333333,21.3333333 Z" id="Shape" fill="#787878"></path>
                </g>
            </g>
        </g>
    </g>
</svg>