<?xml version="1.0" encoding="UTF-8"?>
<svg width="24px" height="24px" viewBox="0 0 24 24" version="1.1" xmlns="http://www.w3.org/2000/svg" xmlns:xlink="http://www.w3.org/1999/xlink">
    <title>icons /close copy</title>
    <g id="Page-1" stroke="none" stroke-width="1" fill="none" fill-rule="evenodd">
        <g id="Investors" transform="translate(-1000.000000, -966.000000)" stroke-width="2">
            <g id="Group-38" transform="translate(978.000000, 944.000000)">
                <g id="Group" transform="translate(22.000000, 22.000000)">
                    <path d="M8.5,23 C12.6421356,23 16,19.6421356 16,15.5 C16,11.3578644 12.6421356,8 8.5,8 C4.35786438,8 1,11.3578644 1,15.5 C1,19.6421356 4.35786438,23 8.5,23 Z M15.5,16 C19.6421356,16 23,12.6421356 23,8.5 C23,4.35786438 19.6421356,1 15.5,1 C11.3578644,1 8,4.35786438 8,8.5 C8,12.6421356 11.3578644,16 15.5,16 Z" id="Oval-2" stroke="#787878"></path>
                    <path d="M8.5,8 C12.6421356,8 16,11.3578644 16,15.5 C16,15.6627765 15.9948144,15.8243419 15.9845994,15.9845399 C15.8243419,15.9948144 15.6627765,16 15.5,16 C11.3578644,16 8,12.6421356 8,8.5 C8,8.33722206 8.00518568,8.17565529 8.01540085,8.0154559 C8.17565529,8.00518568 8.33722206,8 8.5,8 Z" id="Oval-2-Copy" stroke="#FFCB05"></path>
                </g>
            </g>
        </g>
    </g>
</svg>