<?xml version="1.0" encoding="UTF-8"?>
<svg width="62px" height="59px" viewBox="0 0 62 59" version="1.1" xmlns="http://www.w3.org/2000/svg" xmlns:xlink="http://www.w3.org/1999/xlink">
    <title>Group 13</title>
    <defs>
        <polygon id="path-1" points="0.470133333 0.0781333333 21.7688 0.0781333333 21.7688 15 0.470133333 15"></polygon>
        <polygon id="path-3" points="2.58666667 1.53333333 37.648 1.53333333 37.648 45.1314667 2.58666667 45.1314667"></polygon>
    </defs>
    <g id="Page-1" stroke="none" stroke-width="1" fill="none" fill-rule="evenodd">
        <g id="Investors" transform="translate(-771.000000, -1109.000000)">
            <g id="Group-48" transform="translate(743.000000, 1109.000000)">
                <g id="Group-13" transform="translate(28.000000, 0.000000)">
                    <path d="M61.5704,22.9962667 L61.5704,13.1322667 C61.5704,12.1722667 60.8477333,11.4496 59.8850667,11.4496 L46.8904,11.4496 L46.8904,14.8176 L58.1970667,14.8149333 L58.1997333,22.9962667 C58.1997333,27.9402667 54.1784,31.9642667 49.2344,31.9642667 L45.5757333,31.9642667 L45.5757333,35.3322667 L49.2344,35.3322667 C56.0370667,35.3322667 61.5704,29.7989333 61.5704,22.9962667" id="Fill-1" fill="#787878"></path>
                    <path d="M12.336,35.3322667 L15.9946667,35.3322667 L15.9946667,31.9642667 L11.7573333,31.9456 C7.04,31.6256 3.368,27.6976 3.368,22.9962667 L3.368,14.8149333 L14.68,14.8176 L14.68,11.4496 L1.68533333,11.4496 C0.725333333,11.4496 0,12.1722667 0,13.1322667 L0,22.9962667 C0,29.7989333 5.53333333,35.3322667 12.336,35.3322667" id="Fill-3" fill="#787878"></path>
                    <g id="Group-7" transform="translate(19.666667, 43.801067)">
                        <mask id="mask-2" fill="white">
                            <use xlink:href="#path-1"></use>
                        </mask>
                        <g id="Clip-6"></g>
                        <path d="M21.7474667,12.8541333 C21.6301333,11.9714667 20.8808,11.3234667 19.9288,11.3234667 L12.9581333,11.3234667 L12.9581333,0.222133333 L12.8141333,0.0781333333 L9.42213333,0.0781333333 L9.27813333,0.222133333 L9.27813333,11.3234667 L2.30746667,11.3234667 C1.25946667,11.3234667 0.470133333,12.1154667 0.470133333,13.1608 C0.470133333,14.2088 1.25946667,15.0008 2.30746667,15.0008 L19.9288,15.0008 C20.9768,15.0008 21.7688,14.2088 21.7688,13.1608 L21.7474667,12.8541333 Z" id="Fill-5" fill="#787878" mask="url(#mask-2)"></path>
                    </g>
                    <path d="M33.9765333,18.4925333 L32.3098667,14.9805333 C32.0325333,14.3912 31.4565333,14.0178667 30.8218667,14.0178667 C30.1925333,14.0178667 29.6138667,14.3912 29.3365333,14.9805333 L27.6698667,18.4925333 L23.9472,19.0552 C23.3232,19.1512 22.8032,19.6045333 22.6085333,20.2312 C22.4138667,20.8552 22.5765333,21.5405333 23.0298667,22.0018667 L25.7205333,24.7325333 L25.0858667,28.5938667 C24.9792,29.2418667 25.2352,29.8952 25.7445333,30.2792 C26.2565333,30.6685333 26.9338667,30.7165333 27.4912,30.4125333 L30.8218667,28.5912 L34.1525333,30.4125333 C34.3952,30.5458667 34.6618667,30.6098667 34.9232,30.6098667 C35.2672,30.6098667 35.6112,30.4978667 35.9018667,30.2792 C36.4112,29.8952 36.6672,29.2418667 36.5605333,28.5938667 L35.9232,24.7325333 L38.6165333,22.0018667 C39.0698667,21.5432 39.2352,20.8552 39.0378667,20.2312 C38.8432,19.6045333 38.3232,19.1512 37.6992,19.0552 L33.9765333,18.4925333 Z" id="Fill-8" fill="#FFCB05"></path>
                    <g id="Group-12" transform="translate(10.666667, 0.134400)">
                        <mask id="mask-4" fill="white">
                            <use xlink:href="#path-3"></use>
                        </mask>
                        <g id="Clip-11"></g>
                        <path d="M34.3333333,28.7421333 C34.3333333,36.0594667 27.9653333,41.9981333 20.1173333,41.9981333 C12.4533333,41.9981333 6.17066667,36.3288 5.90933333,29.2088 L5.90133333,28.7208 L5.90133333,5.57413333 C5.90133333,5.0008 6.32266667,4.56346667 6.91733333,4.5048 L7.12,4.4968 L33.1786667,4.49946667 C33.7973333,4.49946667 34.2666667,4.89146667 34.328,5.4488 L34.336,5.63546667 L34.3333333,28.7421333 Z M37.632,5.0568 C37.4186667,3.00346667 35.784,1.53146667 33.7733333,1.53146667 L6.46133333,1.53146667 L6.10933333,1.54746667 C4.056,1.7608 2.58666667,3.39546667 2.58666667,5.40613333 L2.58666667,27.5981333 L2.59733333,28.1901333 C2.92266667,37.6328 10.6666667,45.1314667 20.1173333,45.1314667 C29.7973333,45.1314667 37.648,37.2781333 37.648,27.5981333 L37.648,5.40613333 L37.632,5.0568 Z" id="Fill-10" fill="#787878" mask="url(#mask-4)"></path>
                    </g>
                </g>
            </g>
        </g>
    </g>
</svg>