<?xml version="1.0" encoding="UTF-8"?>
<svg width="36px" height="24px" viewBox="0 0 36 24" version="1.1" xmlns="http://www.w3.org/2000/svg" xmlns:xlink="http://www.w3.org/1999/xlink">
    <title>icons /close</title>
    <g id="Page-1" stroke="none" stroke-width="1" fill="none" fill-rule="evenodd">
        <g id="NetBanking_desktop" transform="translate(-123.000000, -966.000000)" fill="#000000" fill-rule="nonzero" stroke="#787878" stroke-width="0.75">
            <g id="Group-59" transform="translate(106.000000, 860.000000)">
                <g id="Group-18" transform="translate(0.000000, 84.000000)">
                    <g id="Group" transform="translate(15.000000, 15.000000)">
                        <g id="noun_devices_3322926" transform="translate(3.333333, 8.333333)">
                            <path d="M31.6180834,9.41168239 L31.5054974,9.41168239 L31.5054974,5.45224807 C31.5054974,4.41798142 30.6233844,3.57954265 29.5352428,3.57954265 L23.5299067,3.57954265 L23.5299067,1.33764673 C23.5299067,0.59888484 22.8998259,0 22.1225819,0 L1.40732474,0 C0.630080747,0 0,0.59888484 0,1.33764673 L0,14.467987 C0,15.2067489 0.630080747,15.8056338 1.40732474,15.8056338 L8.97028787,15.8056338 C8.92761117,16.9855438 8.6436798,18.1462731 8.13433698,19.2230536 L7.35805665,19.2230536 C7.20260786,19.2230536 7.07659171,19.3428306 7.07659171,19.490583 C7.07659171,19.6383353 7.20260786,19.7581123 7.35805665,19.7581123 L16.17185,19.7581123 C16.3272988,19.7581123 16.453315,19.6383353 16.453315,19.490583 C16.453315,19.3428306 16.3272988,19.2230536 16.17185,19.2230536 L15.3955697,19.2230536 C14.8859531,18.1463609 14.6020091,16.9855798 14.5596188,15.8056338 L17.2701262,15.8056338 L17.2701262,18.3364614 C17.2701262,19.370728 18.1522393,20.2091668 19.2403809,20.2091668 L25.8424227,20.2091668 C25.9335602,21.035679 26.6653324,21.6640885 27.5396563,21.6666667 L31.6180834,21.6666667 C32.5655328,21.6654861 33.3333316,20.9352786 33.3333316,20.0347377 L33.3333316,11.0457516 C33.3342641,10.1443752 32.5664122,9.4128637 31.6180834,9.41168239 Z M14.7622736,19.2214484 L8.76763311,19.2214484 C9.22621233,18.1321332 9.48570021,16.9763796 9.53490656,15.8040286 L13.9944372,15.8040286 C14.0441629,16.9763702 14.3038292,18.1320707 14.7622736,19.2214484 Z M1.40732474,15.2689699 C0.940978343,15.2689699 0.562929895,14.909639 0.562929895,14.4663819 L0.562929895,1.33604155 C0.562929895,0.89278442 0.940978343,0.533453516 1.40732474,0.533453516 L22.1231449,0.533453516 C22.5894913,0.533453516 22.9675397,0.89278442 22.9675397,1.33604155 L22.9675397,3.57793747 L19.2409438,3.57793747 C18.1528022,3.57793747 17.2706892,4.41637625 17.2706892,5.45064289 L17.2706892,15.2689699 L1.40732474,15.2689699 Z M17.8330561,18.3348562 L17.8330561,5.45064289 C17.8330561,4.711881 18.4631369,4.11299616 19.2403809,4.11299616 L29.5363686,4.11299616 C30.3136126,4.11299616 30.9436934,4.711881 30.9436934,5.45064289 L30.9436934,9.41007721 L27.5402192,9.41007721 C26.5932091,9.41125688 25.8259022,10.140813 25.8249719,11.0409361 L25.8249719,19.6725029 L19.2386921,19.6725029 C18.4621077,19.6716172 17.8330561,19.0729917 17.8330561,18.3348562 L17.8330561,18.3348562 Z M32.7704009,20.0347377 C32.7697809,20.6394783 32.2543246,21.1296532 31.6180834,21.1305379 L27.5402192,21.1305379 C26.9038495,21.1299475 26.388212,20.6396003 26.3879017,20.0347377 L26.3879017,19.9507334 C26.3879017,19.9475231 26.3879017,19.9443127 26.3879017,19.9405673 C26.3879017,19.9368219 26.3879017,19.9336116 26.3879017,19.9304012 L26.3879017,11.0425413 C26.388212,10.4376786 26.9038495,9.94733141 27.5402192,9.94674108 L29.2976864,9.94674108 L29.2976864,10.0906719 C29.2976864,10.2384242 29.4237025,10.3582012 29.5791513,10.3582012 C29.7346001,10.3582012 29.8606163,10.2384242 29.8606163,10.0906719 L29.8606163,9.94674108 L31.6180834,9.94674108 C32.2543246,9.94762578 32.7697809,10.4378007 32.7704009,11.0425413 L32.7704009,20.0347377 Z M24.1085986,18.9432179 C24.1065242,18.9779897 24.0989328,19.0122638 24.0860814,19.0448791 C24.0719347,19.0773349 24.0506269,19.1065283 24.0235962,19.1304885 C23.999153,19.1566401 23.9684559,19.1768256 23.9340903,19.1893449 C23.9006023,19.2040828 23.8640307,19.2114009 23.8271337,19.2107473 C23.7508801,19.2106532 23.6777859,19.1817853 23.623916,19.1304885 C23.5987736,19.1062211 23.5795551,19.0769941 23.567623,19.0448791 C23.5518662,19.0131289 23.5441544,18.9783115 23.5451058,18.9432179 C23.5435717,18.9080761 23.5513124,18.8731279 23.567623,18.8415568 C23.5808062,18.8084135 23.5998438,18.7776519 23.623916,18.7505968 C23.7078963,18.6775839 23.8284725,18.6567842 23.9340903,18.6970909 C23.9670954,18.7096142 23.9974253,18.7277452 24.0235962,18.7505968 C24.0495173,18.7774653 24.0706259,18.8081932 24.0860814,18.8415568 C24.0994926,18.874015 24.1071032,18.9083753 24.1085986,18.9432179 L24.1085986,18.9432179 Z M12.0224938,14.2989085 C12.0374585,14.3309069 12.0451322,14.3655524 12.045011,14.4005696 C12.0465722,14.472156 12.018235,14.5414152 11.9662008,14.5931908 C11.9364993,14.6158638 11.9044326,14.6355855 11.8705027,14.6520472 C11.8363537,14.6647944 11.8002036,14.6720282 11.763546,14.6734496 C11.6894195,14.6719336 11.6187972,14.6431654 11.5665205,14.5931908 C11.5128956,14.5419879 11.4825724,14.4728154 11.4820811,14.4005696 C11.4847162,14.3658707 11.492291,14.3316719 11.5045983,14.2989085 C11.5199553,14.2672264 11.5408977,14.2382729 11.5665205,14.2132991 C11.6472856,14.1393452 11.7657374,14.1164108 11.8705027,14.1544426 C11.9044326,14.1709043 11.9364993,14.1906261 11.9662008,14.2132991 C11.9901338,14.2384541 12.0091922,14.2674378 12.0224938,14.2989085 Z" id="Shape"></path>
                        </g>
                    </g>
                </g>
            </g>
        </g>
    </g>
</svg>