<?xml version="1.0" encoding="UTF-8"?>
<svg width="22px" height="24px" viewBox="0 0 22 24" version="1.1" xmlns="http://www.w3.org/2000/svg" xmlns:xlink="http://www.w3.org/1999/xlink">
    <title>Group 18</title>
    <g id="Final-Design" stroke="none" stroke-width="1" fill="none" fill-rule="evenodd">
        <g id="AB-test---Drop-off-SA" transform="translate(-161.000000, -444.000000)" fill-rule="nonzero">
            <g id="Group-16" transform="translate(113.000000, 140.000000)">
                <g id="Group-11" transform="translate(32.000000, 292.000000)">
                    <g id="Group-7" transform="translate(0.000000, 1.000000)">
                        <g id="6-lakhs-Purchase-limit-and-2-lakhs-daily-ATM-withdrawal-limit" transform="translate(15.000000, 11.000000)">
                            <g id="Group-18" transform="translate(1.000000, 0.000000)">
                                <g id="Group-23">
                                    <g id="up-arrow" transform="translate(-0.000000, 0.000000)" fill="#7F7F7F">
                                        <path d="M8.58635396,0.185945358 C8.78699389,-0.061981786 9.21262581,-0.061981786 9.41326574,0.185945358 L9.41326574,0.185945358 L14.943,7.001 L14.7508207,7.00380682 C14.3855449,7.01498248 14.0264315,7.05064443 13.6750663,7.10920667 L9.00033924,1.34781025 L1.63171889,10.4292511 L5.82398159,10.4292511 C6.1162065,10.4292511 6.35337453,10.6630855 6.35337453,10.9512029 L6.35337453,10.9512029 L6.35337453,22.9560962 L11.6473039,22.9560962 L11.6472072,22.2656474 C11.9880456,22.4231926 12.3418474,22.5574601 12.7065734,22.6664105 L12.7060898,22.9560962 C12.7060898,23.5318092 12.2312244,24 11.6473039,24 L11.6473039,24 L6.35337453,24 C5.76945412,24 5.29458865,23.5318092 5.29458865,22.9560962 L5.29458865,22.9560962 L5.29458865,11.4731548 L0.530052178,11.4731548 C0.326765288,11.4731548 0.140948365,11.3583254 0.0520103513,11.1772081 C-0.035868877,10.9960908 -0.0109874087,10.7815686 0.116066897,10.624983 L0.116066897,10.624983 L8.58635396,0.185945358 Z" id="Combined-Shape"></path>
                                    </g>
                                    <path d="M14.8784376,21.4766567 C18.5999136,21.4766567 21.6167659,18.4598043 21.6167659,14.7383283 C21.6167659,11.0168524 18.5999136,8 14.8784376,8 C11.1569616,8 8.14010924,11.0168524 8.14010924,14.7383283 C8.14440434,18.4580238 11.1587421,21.4723616 14.8784376,21.4766567 L14.8784376,21.4766567 Z M14.8784376,8.90932099 C18.0977094,8.90932099 20.7074449,11.5190565 20.7074449,14.7383283 C20.7074449,17.9576002 18.0977094,20.5673357 14.8784376,20.5673357 C11.6591657,20.5673357 9.04943023,17.9576002 9.04943023,14.7383283 C9.05315264,11.5205996 11.6607088,8.91304339 14.8784376,8.90932099 Z" id="Shape" stroke="#777777" stroke-width="0.679799947" fill="#777777"></path>
                                </g>
                                <path d="M17.0516289,17.8565479 L15.2186164,15.5353031 C15.0216104,15.2869042 14.8845627,15.1327256 14.8160389,15.0727672 C15.2700093,14.978547 15.6383249,14.7986719 15.9124202,14.5245766 C16.1179917,14.3104396 16.2379084,14.0534752 16.2893013,13.745118 L17.2058075,13.745118 L17.3856826,13.2140583 L16.3064322,13.2140583 C16.2636048,12.8371772 16.1351226,12.52882 15.9295511,12.2718556 L17.2058075,12.2718556 L17.3771171,11.7407959 L13.351342,11.7407959 L13.1714669,12.2718556 L14.0622767,12.2718556 C14.4905507,12.2718556 14.8160389,12.3660759 15.0387413,12.5630819 C15.2186164,12.7172605 15.3299676,12.9313975 15.372795,13.2140583 L13.3599075,13.2140583 L13.1885979,13.745118 L15.3556641,13.745118 C15.3042712,13.9678204 15.1843545,14.156261 14.9959139,14.2933086 C14.7218186,14.4817492 14.3106756,14.5845349 13.7710505,14.5845349 L13.2485562,14.5845349 L13.2485562,15.2098149 C13.4541277,15.2098149 13.6425683,15.2697733 13.8138778,15.3811245 C13.959491,15.4839102 14.1051041,15.6295234 14.2507173,15.8265294 L15.783938,17.8565479 L17.0516289,17.8565479 Z" id="₹" fill="#7F7F7F"></path>
                            </g>
                        </g>
                    </g>
                </g>
            </g>
        </g>
    </g>
</svg>