<svg id="Layer_1" data-name="Layer 1" xmlns="http://www.w3.org/2000/svg" xmlns:xlink="http://www.w3.org/1999/xlink" viewBox="0 0 26.24 22.11"><defs><style>.cls-1,.cls-2,.cls-5,.cls-6{fill:none;}.cls-2,.cls-6{stroke:#FFFFFF;}.cls-2,.cls-5,.cls-6{stroke-miterlimit:10;}.cls-2{stroke-width:2px;}.cls-3{clip-path:url(#clip-path);}.cls-4{fill:#FFFFFF;}.cls-5{stroke:#FFFFFF;}.cls-6{stroke-width:2px;}</style><clipPath id="clip-path" transform="translate(-16.78 -18.85)"><path class="cls-1" d="M33.75,33.68a3.29,3.29,0,0,0,1.84-1.19,3.51,3.51,0,0,0,.63-2.19H35.14a2.56,2.56,0,0,1-.4,1.66,2.26,2.26,0,0,1-1.3.87,2.53,2.53,0,0,1-1.39,0A2.18,2.18,0,0,1,30.88,32a5.05,5.05,0,0,1-.74-1.62A4.92,4.92,0,0,1,30,28.84a2.29,2.29,0,0,1,.53-1.35,2.54,2.54,0,0,1,1.35-.81,2.12,2.12,0,0,1,1.37,0,2.49,2.49,0,0,1,1.09,1l.93-.5a3.18,3.18,0,0,0-1.53-1.34,3.23,3.23,0,0,0-2.07-.07,3.85,3.85,0,0,0-1.72,1A3.15,3.15,0,0,0,29,28.46a4.58,4.58,0,0,0,.1,2.19,5.21,5.21,0,0,0,.95,1.93,3.21,3.21,0,0,0,1.56,1.14A3.78,3.78,0,0,0,33.75,33.68Z"/></clipPath></defs><title>1</title><polygon class="cls-2" points="18.63 3.19 18.24 3.29 17.85 3.4 16.46 3.77 6.11 6.55 5.73 6.66 5.34 6.76 2.44 7.54 1.22 7.87 4.7 20.89 23.22 15.9 19.75 2.89 18.63 3.19"/><g class="cls-3"><rect class="cls-4" x="24" y="20.74" width="16.96" height="18.14" transform="translate(-23.39 -9.43) rotate(-15)"/></g><path class="cls-5" d="M33.75,33.68a3.29,3.29,0,0,0,1.84-1.19,3.51,3.51,0,0,0,.63-2.19H35.14a2.56,2.56,0,0,1-.4,1.66,2.26,2.26,0,0,1-1.3.87,2.53,2.53,0,0,1-1.39,0A2.18,2.18,0,0,1,30.88,32a5.05,5.05,0,0,1-.74-1.62A4.92,4.92,0,0,1,30,28.84a2.29,2.29,0,0,1,.53-1.35,2.54,2.54,0,0,1,1.35-.81,2.12,2.12,0,0,1,1.37,0,2.49,2.49,0,0,1,1.09,1l.93-.5a3.18,3.18,0,0,0-1.53-1.34,3.23,3.23,0,0,0-2.07-.07,3.85,3.85,0,0,0-1.72,1A3.15,3.15,0,0,0,29,28.46a4.58,4.58,0,0,0,.1,2.19,5.21,5.21,0,0,0,.95,1.93,3.21,3.21,0,0,0,1.56,1.14A3.78,3.78,0,0,0,33.75,33.68Z" transform="translate(-16.78 -18.85)"/><path class="cls-6" d="M23.25,35.63l4.81-1.39Z" transform="translate(-16.78 -18.85)"/></svg>