<?xml version="1.0" encoding="UTF-8"?>
<svg width="140px" height="63px" viewBox="0 0 140 63" version="1.1" xmlns="http://www.w3.org/2000/svg" xmlns:xlink="http://www.w3.org/1999/xlink">
    <title>first wing logo-01@1x</title>
    <defs>
        <rect id="path-1" x="0" y="0" width="140" height="63"></rect>
    </defs>
    <g id="light-version" stroke="none" stroke-width="1" fill="none" fill-rule="evenodd">
        <g id="startup-banking" transform="translate(-658.000000, -181.000000)">
            <g id="first-wing-logo-01@1x" transform="translate(658.000000, 181.000000)">
                <mask id="mask-2" fill="white">
                    <use xlink:href="#path-1"></use>
                </mask>
                <g id="path-1"></g>
                <g id="Group" mask="url(#mask-2)" fill-rule="nonzero">
                    <g transform="translate(0.000000, 4.000000)">
                        <polygon id="Path" fill="#231F20" points="0.146064602 15.7822068 0.146064602 0.371644253 10.662716 0.371644253 10.662716 2.17807523 2.19681162 2.17807523 2.19681162 6.95011276 9.59936566 6.95011276 9.59936566 8.7506596 2.19681162 8.7506596 2.19681162 15.7822068"></polygon>
                        <polygon id="Path" fill="#231F20" points="13.3444621 15.7822068 13.3444621 0.371644253 15.3952091 0.371644253 15.3952091 15.7822068"></polygon>
                        <path d="M19.0994074,15.7822068 L19.0994074,0.371583874 L25.1172691,0.371583874 C25.9113788,0.370351225 26.7050427,0.409629298 27.4952008,0.489327052 C28.1740582,0.546515298 28.8361096,0.732170121 29.4466238,1.03655207 C30.0023345,1.32359759 30.4631417,1.76723814 30.7728904,2.31341045 C31.1317794,3.02026582 31.3009643,3.80932534 31.2636675,4.60234091 C31.2786335,5.27264765 31.1919444,5.94132948 31.0065937,6.58529608 C30.8690827,7.07021262 30.6232694,7.51703137 30.2879559,7.89157517 C29.9635258,8.2382331 29.5634801,8.50414128 29.1194392,8.66828165 C28.611117,8.84997068 28.0837897,8.97237527 27.5477839,9.03309833 L32.2218513,15.7822068 L29.6394291,15.7822068 L25.0938987,9.1625494 L21.1443119,9.1625494 L21.1443119,15.7822068 L19.0994074,15.7822068 Z M21.1443119,7.35611842 L25.8651198,7.35611842 C26.3672705,7.36269836 26.8692012,7.3312275 27.3666639,7.26197218 C27.7331654,7.21571407 28.0835605,7.08262511 28.3891161,6.87361894 C28.662816,6.66304856 28.8665602,6.37372598 28.9733746,6.04395521 C29.1164841,5.58557168 29.1816697,5.1061324 29.1661798,4.62587747 C29.1858449,4.1813795 29.1101182,3.73783662 28.9441616,3.32548253 C28.8089984,3.01877966 28.5849841,2.76035637 28.3014774,2.58408089 C27.9917595,2.40185979 27.6473217,2.28756735 27.2907103,2.24868491 C26.8367249,2.19857999 26.3802387,2.17500394 25.9235457,2.17807523 L21.1443119,2.17807523 L21.1443119,7.35611842 Z" id="Shape" fill="#231F20"></path>
                        <path d="M43.2993906,4.79651753 C43.2832298,4.26451118 43.1703547,3.73999702 42.9663635,3.2489887 C42.8094133,2.88530017 42.5518192,2.5748058 42.2243552,2.35459943 C41.8697554,2.13224104 41.4707275,1.99158795 41.0558384,1.94270963 C40.5249859,1.87444522 39.9901041,1.84298909 39.4549703,1.84856339 C39.0237596,1.84825259 38.5928081,1.86985524 38.1637593,1.91328893 C37.7903657,1.94487306 37.426928,2.05087962 37.0945664,2.22514835 C36.7828959,2.39650238 36.5302523,2.65915064 36.370086,2.97831827 C36.1711625,3.4044305 36.0788883,3.87312353 36.1013272,4.34343874 C36.092735,4.62562683 36.1363215,4.90696364 36.2298639,5.17310249 C36.3057773,5.38018447 36.4300155,5.56584918 36.5921042,5.71444337 C36.767562,5.85882168 36.9648017,5.97403436 37.1763626,6.05572349 C37.4324374,6.15880403 37.6961672,6.24143689 37.9651115,6.30285737 L42.1250313,7.338466 C43.1683165,7.52492336 44.1326015,8.02073923 44.8944161,8.76242788 C45.5196574,9.53000482 45.8328169,10.5077043 45.7708038,11.498553 C45.7978013,12.2710619 45.6373658,13.0385506 45.303397,13.7345262 C45.0034182,14.3087453 44.5655646,14.79826 44.0297137,15.158488 C43.4456399,15.5279917 42.7940628,15.7760717 42.1133462,15.8881215 C41.3427557,16.0331233 40.5602274,16.1040518 39.7763125,16.0999505 C38.9454305,16.1182629 38.1149794,16.0472514 37.2990568,15.8881215 C36.5941196,15.7461462 35.9270502,15.455361 35.3417912,15.0349211 C34.7783473,14.6145175 34.3316972,14.0552733 34.0447375,13.4108985 C33.6956689,12.6021851 33.5242689,11.7270465 33.5422753,10.8454134 L35.5871798,10.8454134 C35.5954535,11.4499473 35.7122376,12.0479888 35.9318922,12.6106554 C36.1040415,13.0370412 36.3965516,13.4032337 36.7732242,13.6639165 C37.1815983,13.9221352 37.6395251,14.0905675 38.1170186,14.1581843 C38.7221803,14.2504842 39.3337156,14.2937732 39.9457475,14.2876353 C40.4650997,14.2904493 40.9841293,14.2609724 41.4998748,14.1993732 C41.9114578,14.1585631 42.309746,14.0302043 42.6683916,13.8227883 C42.9931868,13.6236063 43.2531198,13.3331919 43.4162423,12.9872404 C43.608743,12.5280873 43.6985065,12.0318813 43.6791586,11.5338578 C43.6850152,11.258216 43.6535657,10.9830552 43.5856773,10.7159624 C43.5139685,10.4932021 43.3896665,10.291289 43.2234371,10.1275484 C42.996496,9.91940362 42.7329585,9.75576618 42.4463734,9.64504889 C42.0084037,9.47239695 41.5569797,9.33659696 41.0967365,9.23904322 L37.2990568,8.29169669 C36.8074453,8.18070498 36.330802,8.01081656 35.8793088,7.78566065 C35.4956489,7.59458134 35.1493016,7.33546484 34.8568567,7.02072245 C34.5736993,6.71021628 34.3622137,6.34049824 34.2375428,5.93804069 C34.0932458,5.45143874 34.0242727,4.9453469 34.0330524,4.43758499 C34.0279623,3.83655527 34.1268148,3.23922204 34.3251815,2.67234299 C34.5154745,2.1340863 34.8369044,1.65255867 35.259995,1.27191767 C35.7575694,0.844237083 36.341768,0.530983896 36.9718721,0.353991832 C37.8147611,0.121712286 38.6864383,0.0127207678 39.5601368,0.0303641326 C40.5505332,-0.00102047683 41.5388592,0.140320004 42.481429,0.448138072 C43.1442086,0.666488782 43.7452922,1.04181125 44.2342041,1.54258811 C44.6352376,1.98156278 44.9275279,2.50981449 45.0872214,3.08423279 C45.2407262,3.64456342 45.3270322,4.22139544 45.3442952,4.80240167 L43.2993906,4.79651753 Z" id="Path" fill="#231F20"></path>
                        <polygon id="Path" fill="#231F20" points="51.835406 15.7822068 51.835406 2.19572765 46.6939321 2.19572765 46.6939321 0.371644253 59.0276271 0.371644253 59.0276271 2.19572765 53.886153 2.19572765 53.886153 15.7822068"></polygon>
                        <path d="M64.1749437,0.348107692 C64.3619064,1.89367513 64.5936621,3.43531982 64.8702111,4.97304173 C65.1506552,6.50291812 65.4544696,8.0445628 65.8634505,9.59209162 L67.9141975,0.348107692 L72.1792839,0.348107692 L74.2241883,9.59209162 C74.6097988,8.0445628 74.9369836,6.50291812 75.2174276,4.97304173 C75.4978716,3.44316533 75.7257324,1.89563651 75.9126951,0.348107692 L80.6510308,0.348107692 C80.2381548,2.97243413 79.7220599,5.56733987 79.1027461,8.1328249 C78.483432,10.6983099 77.7745319,13.2481039 76.9760455,15.7822068 L71.9163676,15.7822068 L70.0175277,7.44438053 L68.1829563,15.7822068 L63.1291212,15.7822068 C62.3267396,13.2049536 61.6256295,10.6355458 61.0257908,8.0739835 C60.4259522,5.51242123 59.8962246,2.93712929 59.436608,0.348107692 L64.1749437,0.348107692 Z" id="Path" fill="#9C1C26"></path>
                        <polygon id="Path" fill="#9C1C26" points="87.3291045 0.348107692 87.3291045 15.7822068 82.3979634 15.7822068 82.3979634 0.348107692"></polygon>
                        <polygon id="Path" fill="#9C1C26" points="95.3743427 0.348107692 100.398965 8.17401389 100.398965 0.348107692 105.324263 0.348107692 105.324263 15.7822068 100.463233 15.7822068 95.4561389 8.00337382 95.4561389 15.7822068 90.5308405 15.7822068 90.5308405 0.348107692"></polygon>
                        <path d="M123.65245,8.56236713 C123.679338,9.7727714 123.517679,10.9799405 123.173358,12.1399242 C122.903496,13.0346571 122.410711,13.8449263 121.741925,14.4935802 C121.065831,15.1055108 120.251526,15.5418187 119.369836,15.7645544 C118.292349,16.034324 117.18479,16.1628762 116.074618,16.1470236 C114.8026,16.1719155 113.533588,16.0133992 112.306151,15.6762923 C111.333523,15.4071663 110.438365,14.9090078 109.694516,14.2229098 C108.988631,13.5406172 108.46772,12.6878624 108.181287,11.7456869 C107.829577,10.5891143 107.66389,9.38331414 107.69051,8.17401389 C107.69051,5.4555412 108.339037,3.41374463 109.653618,2.04862415 C110.9682,0.683503672 113.036474,0.000943432677 115.881813,0.000943432677 C116.906735,-0.0103818571 117.930261,0.0802817999 118.937484,0.271613872 C119.769987,0.419097466 120.564667,0.733227903 121.274518,1.19542385 C121.935086,1.64067905 122.471994,2.24823711 122.834488,2.96066585 C123.25989,3.84746628 123.523118,4.80421996 123.611552,5.78505304 L119.042651,5.78505304 C118.981749,5.15270922 118.680255,4.56862681 118.201319,4.15514627 C117.569334,3.77155629 116.833277,3.59858818 116.097988,3.6608785 C115.530942,3.64785394 114.965309,3.72327881 114.421167,3.88447583 C114.001515,4.01985735 113.631356,4.27794358 113.357816,4.62587747 C113.07245,5.0217347 112.882428,5.47901794 112.802771,5.96157725 C112.682663,6.61937215 112.627862,7.28757347 112.639179,7.9563007 C112.628966,8.67842179 112.689634,9.39979205 112.820299,10.1098959 C112.912836,10.6081417 113.112228,11.0800458 113.404557,11.4926688 C113.659263,11.8396136 114.014399,12.09861 114.421167,12.2340705 C114.943656,12.3930685 115.488098,12.4665745 116.03372,12.4517837 C116.388624,12.4533779 116.742826,12.4198737 117.091228,12.3517533 C117.38745,12.294355 117.671904,12.1869262 117.93256,12.0340097 C118.177387,11.8833877 118.388319,11.68298 118.551874,11.4455957 C118.740947,11.1434145 118.871768,10.8080477 118.937484,10.4570602 L116.39596,10.4570602 L116.39596,7.20313079 L123.65245,7.20313079 L123.65245,8.56236713 Z" id="Path" fill="#9C1C26"></path>
                        <path d="M130.009181,10.9042548 C130.046093,11.1850993 130.118749,11.4599901 130.225357,11.7221503 C130.321322,11.9514974 130.471802,12.1535658 130.663551,12.3105643 C130.876631,12.4799821 131.123889,12.6004739 131.388031,12.6636127 C131.747079,12.753821 132.116474,12.7953767 132.486437,12.7871796 C133.836074,12.7871796 134.513814,12.3752898 134.513814,11.5573944 C134.529214,11.1745788 134.342575,10.8120723 134.023036,10.6041637 C133.573339,10.3333998 133.084485,10.1348793 132.574076,10.0157497 L128.881562,9.00956177 C128.40253,8.8813137 127.939838,8.69768473 127.502713,8.46233674 C127.12424,8.2489135 126.79081,7.96308319 126.521159,7.62090472 C126.254905,7.26896538 126.056711,6.86975817 125.9369,6.44407673 C125.792314,5.92333352 125.723434,5.38423414 125.73241,4.84359065 C125.719445,4.12950096 125.838314,3.41919941 126.082965,2.74883681 C126.323775,2.14266771 126.728622,1.61670054 127.251482,1.23072869 C127.862541,0.790278826 128.556362,0.479943131 129.290543,0.318686992 C130.281528,0.0941897524 131.295558,-0.0105024027 132.311159,0.00682757267 C133.169292,-0.00067552731 134.026183,0.0741953312 134.870211,0.230424892 C135.567739,0.361002762 136.234061,0.624633902 136.833319,1.00713137 C137.393495,1.37641389 137.851759,1.88247056 138.165429,2.47816638 C138.536072,3.21250931 138.76412,4.01135799 138.837326,4.83182237 L134.163258,4.83182237 C134.11116,4.55503357 134.014454,4.2886918 133.876972,4.04334761 C133.669675,3.6864151 133.30424,3.45201275 132.895418,3.41374463 C132.665029,3.38181149 132.43271,3.36608238 132.20015,3.36667151 C131.748946,3.34869435 131.2981,3.41042947 130.868041,3.54907985 C130.565118,3.66229253 130.375698,3.96655475 130.406477,4.29048149 C130.393981,4.63997138 130.579756,4.9662489 130.885569,5.1319135 C131.307719,5.36005167 131.757449,5.53212499 132.223521,5.64383369 L135.507053,6.52645468 C136.089326,6.66720754 136.656743,6.86426007 137.201402,7.11486869 C137.641736,7.31839951 138.038597,7.60617263 138.36992,7.96218484 C138.679041,8.29848435 138.908725,8.70077542 139.041817,9.13901284 C139.196683,9.66788428 139.269598,10.2176536 139.257992,10.7689196 C139.269367,11.5357979 139.138594,12.2980839 138.872381,13.0166611 C138.619707,13.6794767 138.198631,14.2638436 137.651282,14.7112934 C137.017297,15.2104281 136.287054,15.5711331 135.507053,15.7704387 C134.471759,16.0422282 133.404198,16.1689499 132.33453,16.1470236 C131.117713,16.1871344 129.902907,16.0200294 128.74134,15.6527559 C127.956801,15.3968306 127.238425,14.9687683 126.63801,14.399434 C126.165294,13.9311934 125.817626,13.350324 125.627243,12.7106858 C125.455686,12.1365278 125.351753,11.5440467 125.317586,10.9454438 L130.009181,10.9042548 Z" id="Path" fill="#9C1C26"></path>
                        <path d="M83.5314248,26.167714 L71.1743594,55 L73.8794759,51.13412 L100.439863,51.13412 C100.439863,51.13412 105.312578,50.3279927 114.012186,44.7792488 L78.3315249,44.7792488 L79.1027461,43.6789146 L115.69485,43.6789146 C119.070424,41.3938856 122.318012,38.9227005 125.422753,36.2766665 L84.2909606,36.2766665 L85.1264502,35.0998384 L126.813288,35.0998384 C129.73458,32.5520059 132.87789,29.6099359 136.214006,26.2089029 L83.5314248,26.167714 Z" id="Path" fill="#9C1C26"></path>
                        <path d="M56.4627327,26.167714 L68.8197981,55 L66.1146816,51.13412 L39.5601368,51.13412 C39.5601368,51.13412 34.6874217,50.3279927 25.9819715,44.7792488 L61.6626326,44.7792488 L60.8914114,43.6789146 L24.3051498,43.6789146 C20.925968,41.3878892 17.6763365,38.9087752 14.5714048,36.2531299 L55.7031967,36.2531299 L54.8677072,35.076302 L13.1808697,35.076302 C10.2595777,32.5284693 7.11626742,29.5863993 3.78015191,26.1853664 L56.4627327,26.167714 Z" id="Path" fill="#9C1C26"></path>
                        <polygon id="Path" fill="#231F20" points="74.5572156 42.101965 70 32.5343535 65.4369418 42.101965 57.7422585 24.48485 3.78015191 24.48485 0 20.2894582 60.4064769 20.2894582 65.7290711 31.9047505 70 22.1311939 74.2709289 31.9047505 79.5935231 20.2894582 140 20.2894582 136.214006 24.48485 82.2518988 24.48485"></polygon>
                    </g>
                </g>
            </g>
        </g>
    </g>
</svg>