<svg xmlns="http://www.w3.org/2000/svg" xmlns:xlink="http://www.w3.org/1999/xlink" width="58.065" height="48.244" viewBox="0 0 58.065 48.244">
  <defs>
    <style>
      .cls-1 {
        fill-rule: evenodd;
        fill: url(#linear-gradient);
      }
    </style>
    <linearGradient id="linear-gradient" x1="-0.168" y1="0.084" x2="1.071" y2="1" gradientUnits="objectBoundingBox">
      <stop offset="0" stop-color="#d6ae0a"/>
      <stop offset="1" stop-color="#876500"/>
    </linearGradient>
  </defs>
  <path id="Path_352" data-name="Path 352" class="cls-1" d="M19.214,44.373H3.823A2.323,2.323,0,0,1,1.5,42.05V12.111A2.323,2.323,0,0,1,3.823,9.788h53.42a2.323,2.323,0,0,1,2.323,2.323V42.05a2.323,2.323,0,0,1-2.323,2.323H41.851l4.374,7.019a2.323,2.323,0,0,1-2.544,3.479l-1.741-.443-.369,1.758a2.323,2.323,0,0,1-4.244.752l-5.04-8.088a4.118,4.118,0,0,1-3.508,0l-5.04,8.088a2.323,2.323,0,0,1-4.245-.752l-.369-1.758-1.741.443a2.323,2.323,0,0,1-2.545-3.479l4.374-7.019Zm2.953-.347-5.356,8.595,4.09-1.042.866,4.13,4.8-7.7a4.135,4.135,0,0,1-4.374-3.975l-.023-.01Zm16.732,0-.023.01A4.135,4.135,0,0,1,34.5,48.012l4.8,7.7.867-4.13,4.089,1.042L38.9,44.026Zm-9.91-14.051a1.813,1.813,0,0,1,3.088,0h0a1.706,1.706,0,0,0,2,.721h0a1.8,1.8,0,0,1,2.381,1.73.007.007,0,0,0,0,0,1.707,1.707,0,0,0,1.305,1.683h0a1.813,1.813,0,0,1,.954,2.937h0a1.707,1.707,0,0,0-.066,2.128l0,0a1.8,1.8,0,0,1-.909,2.8h0a1.706,1.706,0,0,0-1.2,1.761h0a1.813,1.813,0,0,1-2.5,1.815h0a1.708,1.708,0,0,0-2.045.594l0,0a1.8,1.8,0,0,1-2.943,0l0,0a1.707,1.707,0,0,0-2.045-.594h0a1.814,1.814,0,0,1-2.5-1.815h0a1.706,1.706,0,0,0-1.2-1.761h0a1.8,1.8,0,0,1-.909-2.8l0,0a1.707,1.707,0,0,0-.067-2.128h0a1.813,1.813,0,0,1,.955-2.937h0A1.706,1.706,0,0,0,24.6,32.429v0a1.8,1.8,0,0,1,2.381-1.73h0a1.706,1.706,0,0,0,2-.721h0ZM30.533,33.1a4.984,4.984,0,1,0,4.984,4.984A4.986,4.986,0,0,0,30.533,33.1Zm10.4,8.946H57.243V12.111H3.823V42.05H20.132a4.067,4.067,0,0,1-.207-.515,4.119,4.119,0,0,1,.362-3.355,4.134,4.134,0,0,1,2.01-6.188,4.122,4.122,0,0,1,4.982-3.62,4.134,4.134,0,0,1,3.253-1.583,21.2,21.2,0,0,1,6.556,2.275,4.122,4.122,0,0,1,1.679,2.928,4.134,4.134,0,0,1,2.01,6.188c.591,1.009.235,3.7.156,3.871Zm-10.4-6.624a2.662,2.662,0,1,1-2.662,2.662A2.663,2.663,0,0,1,30.533,35.427ZM18.92,23.458H53.759a1.161,1.161,0,1,0,0-2.323H18.92a1.161,1.161,0,1,0,0,2.323Zm0-5.807H53.759a1.161,1.161,0,0,0,0-2.323H18.92a1.161,1.161,0,1,0,0,2.323Z" transform="translate(-1.5 -9.788)"/>
</svg>
