<svg xmlns="http://www.w3.org/2000/svg" xmlns:xlink="http://www.w3.org/1999/xlink" width="39.13" height="43.734" viewBox="0 0 39.13 43.734">
  <defs>
    <style>
      .cls-1 {
        stroke: rgba(0,0,0,0);
        fill: url(#linear-gradient);
      }
    </style>
    <linearGradient id="linear-gradient" x1="0.5" y1="0.335" x2="1.071" y2="1" gradientUnits="objectBoundingBox">
      <stop offset="0" stop-color="#d6ae0a"/>
      <stop offset="1" stop-color="#876500"/>
    </linearGradient>
  </defs>
  <g id="noun_trust_3147025" transform="translate(-7.972 -2.968)">
    <g id="Group_648" data-name="Group 648" transform="translate(8.467 3.5)">
      <path id="Path_365" data-name="Path 365" class="cls-1" d="M48.784,21.847a.712.712,0,0,0-.963.138L42.363,29.6l-2.431-3.44a.688.688,0,1,0-1.1.826l3.027,4.22a.688.688,0,0,0,1.1,0l6.009-8.394A.721.721,0,0,0,48.784,21.847Z" transform="translate(-24.826 -13.361)"/>
      <path id="Path_366" data-name="Path 366" class="cls-1" d="M21.463,38.448c-2.064-1.835-2.8-2.523-3.165-2.844a6.627,6.627,0,0,0-.963-.826,2.937,2.937,0,0,0-2.247-.871c-.459-2.89-1.789-11.6-2.2-12.843a1.888,1.888,0,0,0-2.018-1.376,2.153,2.153,0,0,0-1.881,2.156c-.138,1.835-.459,11.054-.5,13.76-.138,3.027.688,3.945,1.559,4.954.092.092.138.183.229.275,1.009,1.193,3.3,3.715,5.045,5.366,1.422,1.376,1.422,1.743,1.468,2.752v.367c.046,1.33-.275,4.816-.275,4.862a.881.881,0,0,0,.183.55.737.737,0,0,0,.5.229h0l7.018-.183a.705.705,0,0,0,.688-.688c0-1.1,0-2.156.046-3.165C25.04,45.741,25.132,41.7,21.463,38.448ZM23.527,53.4l-5.6.138c.046-.734.138-1.835.183-2.844l5.458-.459v.642C23.572,51.658,23.527,52.529,23.527,53.4Zm.092-4.541-5.458.459v-.367c0-1.33-.092-2.064-1.881-3.715-1.743-1.651-3.99-4.128-4.954-5.275a1.216,1.216,0,0,1-.229-.275c-.78-.871-1.33-1.514-1.238-4.036.092-3.211.367-11.971.5-13.668a.863.863,0,0,1,.688-.871H11.1a.494.494,0,0,1,.5.413c.321,1.1,1.7,9.724,2.247,13.3a2.588,2.588,0,0,0,.183,2.293C15,39,16.6,41.613,16.692,41.75a.7.7,0,0,0,1.193-.734c0-.046-1.7-2.706-2.569-4.495a1.339,1.339,0,0,1-.183-1.1l.046-.046h0c.138-.092.6-.092,1.33.55.55.459.55.459.917.78s1.147,1.009,3.211,2.844C23.3,41.888,23.618,44.915,23.618,48.86Z" transform="translate(-8.467 -12.258)"/>
      <path id="Path_367" data-name="Path 367" class="cls-1" d="M72.132,35.5c-.092-2.66-.367-11.88-.5-13.76a2.272,2.272,0,0,0-1.881-2.156,1.888,1.888,0,0,0-2.018,1.376c-.367,1.238-1.743,9.953-2.2,12.843a3.124,3.124,0,0,0-2.247.871,6.625,6.625,0,0,0-.963.826c-.367.321-1.147,1.009-3.165,2.844-3.669,3.257-3.578,7.293-3.486,12.43,0,1.009.046,2.064.046,3.165a.675.675,0,0,0,.688.688l7.018.183h0a.71.71,0,0,0,.688-.78c0-.046-.275-3.532-.275-4.862v-.367c0-1.009,0-1.376,1.468-2.752,1.743-1.7,4.082-4.22,5.045-5.366.092-.092.138-.183.229-.275C71.4,39.495,72.224,38.577,72.132,35.5ZM57.042,53.346c0-.871,0-1.7-.046-2.523v-.642l5.458.459c.046.963.138,2.11.183,2.844Zm12.476-13.76a1.216,1.216,0,0,0-.229.275c-.963,1.147-3.257,3.623-4.954,5.275-1.743,1.7-1.835,2.385-1.881,3.715v.367L57,48.76c-.046-3.945.321-6.926,3.027-9.4,2.064-1.835,2.844-2.523,3.211-2.844s.367-.321.917-.78c.734-.6,1.193-.642,1.33-.55h0a.045.045,0,0,0,.046.046,1.339,1.339,0,0,1-.183,1.1c-.917,1.835-2.569,4.495-2.569,4.495a.7.7,0,0,0,1.193.734c.092-.092,1.7-2.752,2.66-4.633a2.593,2.593,0,0,0,.183-2.293c.55-3.578,1.926-12.2,2.247-13.3a.539.539,0,0,1,.55-.413.863.863,0,0,1,.688.871c.138,1.7.413,10.458.5,13.668C70.8,38.073,70.252,38.715,69.518,39.586Z" transform="translate(-34.002 -12.204)"/>
      <path id="Path_368" data-name="Path 368" class="cls-1" d="M48.091,9.692a.69.69,0,0,0-.459-.642,28.626,28.626,0,0,1-9.678-5.412.758.758,0,0,0-.871,0A28.8,28.8,0,0,1,27.359,9.05a.69.69,0,0,0-.459.642c0,7.109,1.605,12.2,4.724,15.09a8.668,8.668,0,0,0,5.733,2.385h.183a8.658,8.658,0,0,0,5.871-2.385C46.531,21.938,48.091,16.847,48.091,9.692Zm-10.5,16.145H37.5a7.216,7.216,0,0,1-4.954-2.064c-2.706-2.523-4.174-7.247-4.266-13.577a29.312,29.312,0,0,0,9.265-5.137A30.394,30.394,0,0,0,46.715,10.2c-.046,6.376-1.514,11.054-4.22,13.577A7.076,7.076,0,0,1,37.587,25.837Z" transform="translate(-18.445 -3.5)"/>
    </g>
  </g>
</svg>
