<svg xmlns="http://www.w3.org/2000/svg" xmlns:xlink="http://www.w3.org/1999/xlink" width="54.464" height="54.464" viewBox="0 0 54.464 54.464">
  <defs>
    <style>
      .cls-1 {
        fill: url(#linear-gradient);
      }
    </style>
    <linearGradient id="linear-gradient" x1="-0.168" y1="0.084" x2="1.071" y2="1" gradientUnits="objectBoundingBox">
      <stop offset="0" stop-color="#d6ae0a"/>
      <stop offset="1" stop-color="#876500"/>
    </linearGradient>
  </defs>
  <g id="Group_752" data-name="Group 752" transform="translate(-786 -2178)">
    <path id="Path_290" data-name="Path 290" class="cls-1" d="M51.342,21.616H31.89a.973.973,0,0,1-.973-.973A1.945,1.945,0,0,0,28.973,18.7.973.973,0,0,1,28,17.726V11.89a.973.973,0,0,1,.973-.973,1.945,1.945,0,0,0,1.945-1.945A.973.973,0,0,1,31.89,8H51.342a.973.973,0,0,1,.973.973,1.945,1.945,0,0,0,1.945,1.945.973.973,0,0,1,.973.973v5.835a.973.973,0,0,1-.973.973,1.945,1.945,0,0,0-1.945,1.945A.973.973,0,0,1,51.342,21.616ZM32.736,19.671H50.5a3.89,3.89,0,0,1,2.791-2.791V12.736A3.89,3.89,0,0,1,50.5,9.945H32.736a3.89,3.89,0,0,1-2.791,2.791V16.88A3.89,3.89,0,0,1,32.736,19.671Z" transform="translate(781.341 2173.89)"/>
    <path id="Path_292" data-name="Path 292" class="cls-1" d="M41.863,19.726a4.863,4.863,0,1,1,4.863-4.863A4.863,4.863,0,0,1,41.863,19.726Zm0-7.781a2.918,2.918,0,1,0,2.918,2.918A2.918,2.918,0,0,0,41.863,11.945Z" transform="translate(781.095 2173.835)"/>
    <g id="Group_749" data-name="Group 749" transform="translate(786 2178)">
      <path id="Path_289" data-name="Path 289" class="cls-1" d="M56.095,25.4H26.918A2.918,2.918,0,0,1,24,22.479V6.918A2.918,2.918,0,0,1,26.918,4H56.095a2.918,2.918,0,0,1,2.918,2.918V22.479A2.918,2.918,0,0,1,56.095,25.4ZM26.918,5.945a.973.973,0,0,0-.973.973V22.479a.973.973,0,0,0,.973.973H56.095a.973.973,0,0,0,.973-.973V6.918a.973.973,0,0,0-.973-.973Z" transform="translate(-4.548 -4)"/>
      <path id="Path_291" data-name="Path 291" class="cls-1" d="M36.095,59.4H6.918A2.918,2.918,0,0,1,4,56.479V40.918A2.918,2.918,0,0,1,6.918,38H36.095a2.918,2.918,0,0,1,2.918,2.918V56.479A2.918,2.918,0,0,1,36.095,59.4ZM6.918,39.945a.973.973,0,0,0-.973.973V56.479a.973.973,0,0,0,.973.973H36.095a.973.973,0,0,0,.973-.973V40.918a.973.973,0,0,0-.973-.973Z" transform="translate(-4 -4.932)"/>
      <path id="Path_293" data-name="Path 293" class="cls-1" d="M21.835,54.671a5.835,5.835,0,1,1,5.835-5.835A5.835,5.835,0,0,1,21.835,54.671Zm0-9.726a3.89,3.89,0,1,0,3.89,3.89A3.89,3.89,0,0,0,21.835,44.945Z" transform="translate(-4.329 -5.069)"/>
      <path id="Path_294" data-name="Path 294" class="cls-1" d="M12.973,32.479A.973.973,0,0,1,12,31.506V22.753A8.753,8.753,0,0,1,20.753,14a.973.973,0,0,1,0,1.945,6.808,6.808,0,0,0-6.808,6.808v8.753A.973.973,0,0,1,12.973,32.479Z" transform="translate(-4.22 -4.274)"/>
      <path id="Path_295" data-name="Path 295" class="cls-1" d="M12.876,32.849a.973.973,0,0,1-.691-.282l-3.4-3.4a.977.977,0,0,1,1.381-1.381l2.713,2.723,2.713-2.723a.977.977,0,0,1,1.381,1.381l-3.4,3.4A.973.973,0,0,1,12.876,32.849Z" transform="translate(-4.123 -4.644)"/>
      <path id="Path_296" data-name="Path 296" class="cls-1" d="M42.973,50.479a.973.973,0,0,1,0-1.945,6.808,6.808,0,0,0,6.808-6.808V32.973a.973.973,0,1,1,1.945,0v8.753A8.753,8.753,0,0,1,42.973,50.479Z" transform="translate(-5.043 -4.768)"/>
      <path id="Path_297" data-name="Path 297" class="cls-1" d="M54.28,37.349a.973.973,0,0,1-.691-.282l-2.713-2.723-2.713,2.723a.977.977,0,0,1-1.381-1.381l3.4-3.4a.973.973,0,0,1,1.381,0l3.4,3.4a.973.973,0,0,1-.691,1.663Z" transform="translate(-5.166 -4.768)"/>
      <path id="Path_298" data-name="Path 298" class="cls-1" d="M12.863,46.945H8.973a.973.973,0,0,1,0-1.945h3.89a.973.973,0,0,1,0,1.945Z" transform="translate(-4.109 -5.124)"/>
      <path id="Path_299" data-name="Path 299" class="cls-1" d="M12.863,52.945H8.973a.973.973,0,0,1,0-1.945h3.89a.973.973,0,0,1,0,1.945Z" transform="translate(-4.109 -5.289)"/>
      <path id="Path_300" data-name="Path 300" class="cls-1" d="M34.863,46.945h-3.89a.973.973,0,0,1,0-1.945h3.89a.973.973,0,0,1,0,1.945Z" transform="translate(-4.713 -5.124)"/>
      <path id="Path_301" data-name="Path 301" class="cls-1" d="M34.863,52.945h-3.89a.973.973,0,0,1,0-1.945h3.89a.973.973,0,0,1,0,1.945Z" transform="translate(-4.713 -5.289)"/>
    </g>
  </g>
</svg>
