<svg id="Group_626" data-name="Group 626" xmlns="http://www.w3.org/2000/svg" xmlns:xlink="http://www.w3.org/1999/xlink" width="40" height="40" viewBox="0 0 40 40">
  <defs>
    <linearGradient id="linear-gradient" x1="0.543" y1="0.5" x2="1.071" y2="1" gradientUnits="objectBoundingBox">
      <stop offset="0" stop-color="#d6ae0a"/>
      <stop offset="1" stop-color="#876500"/>
    </linearGradient>
  </defs>
  <g id="Group_620" data-name="Group 620">
    <g id="Group_615" data-name="Group 615">
      <path id="Path_326" data-name="Path 326" d="M52.341,41.955H48.012a.836.836,0,1,1,0-1.671h4.329A1.32,1.32,0,0,0,53.668,39V17a1.319,1.319,0,0,0-1.328-1.281H18.4A1.32,1.32,0,0,0,17.074,17V39.058A1.319,1.319,0,0,0,18.4,40.34H35.948a.836.836,0,1,1,0,1.671H18.4a2.93,2.93,0,0,1-3-2.9V17a2.93,2.93,0,0,1,3-2.9h34a2.93,2.93,0,0,1,3,2.9V39.058A3.057,3.057,0,0,1,52.341,41.955Z" transform="translate(-15.4 -14.1)" fill="url(#linear-gradient)"/>
    </g>
    <g id="Group_616" data-name="Group 616" transform="translate(29.861 3.844)">
      <path id="Path_327" data-name="Path 327" d="M72.015,22.671H67.336a.836.836,0,0,1,0-1.671h4.679a.857.857,0,0,1,.836.836A.82.82,0,0,1,72.015,22.671Z" transform="translate(-66.5 -21)" fill="url(#linear-gradient)"/>
    </g>
    <g id="Group_619" data-name="Group 619" transform="translate(3.565 14.958)">
      <g id="Group_617" data-name="Group 617" transform="translate(0 6.156)">
        <path id="Path_328" data-name="Path 328" d="M29.6,53.671H22.636a.836.836,0,0,1,0-1.671h6.908a.857.857,0,0,1,.836.836A.809.809,0,0,1,29.6,53.671Z" transform="translate(-21.8 -52)" fill="url(#linear-gradient)"/>
      </g>
      <g id="Group_618" data-name="Group 618" transform="translate(0.641)">
        <path id="Path_329" data-name="Path 329" d="M25.373,45.658a.646.646,0,0,1-.557-.223L23.2,43.819a.827.827,0,0,1,1.17-1.17l1,1L27.824,41.2a.827.827,0,1,1,1.17,1.17l-3.008,3.064A.838.838,0,0,1,25.373,45.658Z" transform="translate(-22.95 -40.95)" fill="url(#linear-gradient)"/>
      </g>
    </g>
  </g>
  <g id="Group_621" data-name="Group 621" transform="translate(20.042 20.279)">
    <path id="Path_330" data-name="Path 330" d="M56.129,63.759a2.927,2.927,0,0,1-1.727-.78,2.572,2.572,0,0,0-.557-.39,2.394,2.394,0,0,0-.668-.111,2.291,2.291,0,0,1-2.4-2.4c-.056-.279-.056-.5-.111-.669a2.571,2.571,0,0,0-.39-.557,2.3,2.3,0,0,1,0-3.454,2.572,2.572,0,0,0,.39-.557,2.394,2.394,0,0,0,.111-.669,2.291,2.291,0,0,1,2.4-2.4c.279-.056.5-.056.668-.111a2.572,2.572,0,0,0,.557-.39,2.3,2.3,0,0,1,3.454,0,2.572,2.572,0,0,0,.557.39,2.394,2.394,0,0,0,.668.111,2.291,2.291,0,0,1,2.4,2.4c.056.279.056.5.111.669a2.571,2.571,0,0,0,.39.557,2.3,2.3,0,0,1,0,3.454,2.571,2.571,0,0,0-.39.557,2.394,2.394,0,0,0-.111.669,2.291,2.291,0,0,1-2.4,2.4c-.279.056-.5.056-.668.111a2.572,2.572,0,0,0-.557.39A2.927,2.927,0,0,1,56.129,63.759Zm0-11.7c-.167,0-.446.223-.724.446a3.966,3.966,0,0,1-.947.613,2.833,2.833,0,0,1-1.114.223,2.184,2.184,0,0,0-.78.223,2.184,2.184,0,0,0-.223.78,9.837,9.837,0,0,1-.223,1.114,5.52,5.52,0,0,1-.613.947c-.223.279-.446.557-.446.724s.223.446.446.724a3.966,3.966,0,0,1,.613.947,2.833,2.833,0,0,1,.223,1.114,2.184,2.184,0,0,0,.223.78,2.184,2.184,0,0,0,.78.223,9.833,9.833,0,0,1,1.114.223,5.52,5.52,0,0,1,.947.613c.279.223.557.446.724.446s.446-.223.724-.446a3.966,3.966,0,0,1,.947-.613,2.833,2.833,0,0,1,1.114-.223,2.184,2.184,0,0,0,.78-.223,2.184,2.184,0,0,0,.223-.78A9.837,9.837,0,0,1,60.14,58.8a5.52,5.52,0,0,1,.613-.947c.223-.279.446-.557.446-.724s-.223-.446-.446-.724a3.966,3.966,0,0,1-.613-.947,2.833,2.833,0,0,1-.223-1.114,2.184,2.184,0,0,0-.223-.78,2.184,2.184,0,0,0-.78-.223,9.836,9.836,0,0,1-1.114-.223,5.52,5.52,0,0,1-.947-.613A1.5,1.5,0,0,0,56.129,52.06Z" transform="translate(-49.5 -50.5)" fill="url(#linear-gradient)"/>
  </g>
  <g id="Group_622" data-name="Group 622" transform="translate(23.202 23.51)">
    <path id="Path_331" data-name="Path 331" d="M58.7,63.1a3.4,3.4,0,0,1,0-6.8,3.449,3.449,0,0,1,3.4,3.4A3.376,3.376,0,0,1,58.7,63.1Zm0-5.237a1.783,1.783,0,1,0,1.783,1.783A1.76,1.76,0,0,0,58.7,57.86Z" transform="translate(-55.3 -56.3)" fill="url(#linear-gradient)"/>
  </g>
  <g id="Group_625" data-name="Group 625" transform="translate(17.826 28.348)">
    <g id="Group_623" data-name="Group 623" transform="translate(0 0.032)">
      <path id="Path_332" data-name="Path 332" d="M49.856,76.662a.952.952,0,0,1-.724-.39l-1.114-1.894-2.173.446a.819.819,0,0,1-.78-.279.889.889,0,0,1-.111-.836l3.677-8.189a.8.8,0,1,1,1.448.669l-3.064,6.741,1.17-.223a.964.964,0,0,1,.891.39l.613,1.059L52.2,68.639a.8.8,0,1,1,1.448.669L50.636,76.16a.943.943,0,0,1-.78.5Z" transform="translate(-44.896 -65.041)" fill="url(#linear-gradient)"/>
    </g>
    <g id="Group_624" data-name="Group 624" transform="translate(9.464)">
      <path id="Path_333" data-name="Path 333" d="M65.848,76.636h0a.793.793,0,0,1-.724-.5l-3.175-6.964A.8.8,0,1,1,63.4,68.5L65.9,74.018l.613-1.059a.87.87,0,0,1,.891-.39l1.17.223L65.57,66.107a.8.8,0,1,1,1.448-.669l3.677,8.189a.763.763,0,0,1-.111.836.819.819,0,0,1-.78.279L67.631,74.3l-1.114,1.894A.724.724,0,0,1,65.848,76.636Z" transform="translate(-61.884 -64.984)" fill="url(#linear-gradient)"/>
    </g>
  </g>
</svg>
