<svg xmlns="http://www.w3.org/2000/svg" xmlns:xlink="http://www.w3.org/1999/xlink" width="52.675" height="54.146" viewBox="0 0 52.675 54.146">
    <defs>
        <linearGradient id="linear-gradient" x1="-0.168" y1="0.084" x2="1.071" y2="1" gradientUnits="objectBoundingBox">
            <stop offset="0" stop-color="#d6ae0a" />
            <stop offset="1" stop-color="#876500" />
        </linearGradient>
    </defs>
    <g id="Group_863" data-name="Group 863" transform="translate(-449 -329.074)">
        <g id="Group_748" data-name="Group 748" transform="translate(-76.5 -1848)">
            <path id="Path_284" data-name="Path 284" d="M58.539,41.578H57.326l.379-.759a7.945,7.945,0,0,0,.834-3.534V28.74a7.887,7.887,0,0,0-.455-2.643L50.652,5.162a3.514,3.514,0,1,0-6.774,1.871l3.383,10.295A3.5,3.5,0,0,0,44,19.911l-2.759,10.3a11.357,11.357,0,0,0,1.047,8.5l1.594,2.871H42.737a.878.878,0,0,0-.878.878v5.268a.878.878,0,0,0,.878.878h.878v5.268a.878.878,0,0,0,.878.878H56.783a.878.878,0,0,0,.878-.878V48.6h.878a.878.878,0,0,0,.878-.878V42.456A.878.878,0,0,0,58.539,41.578ZM43.818,37.854a9.612,9.612,0,0,1-.887-7.189l2.76-10.3a1.756,1.756,0,0,1,2.465-1.124l.013.006a1.756,1.756,0,0,1,.913,2.027l-2.066,7.711a.878.878,0,1,0,1.7.454l2.066-7.711a3.46,3.46,0,0,0-1.487-3.842L45.56,6.531a1.748,1.748,0,0,1,1.7-2.212,1.785,1.785,0,0,1,1.718,1.364l7.456,21a6.146,6.146,0,0,1,.351,2.055v8.546a6.173,6.173,0,0,1-.649,2.749l-.772,1.543H45.887ZM55.906,52.991H45.37V48.6H55.906Zm1.756-6.146H43.615V43.334H57.661Z" transform="translate(518.758 2176.473)" fill="url(#linear-gradient)" />
            <path id="Path_286" data-name="Path 286" d="M20.181,30.2,17.422,19.9a3.5,3.5,0,0,0-3.265-2.584l3.4-10.339a3.513,3.513,0,1,0-6.767-1.892l-7.454,21a7.878,7.878,0,0,0-.455,2.642v8.546a7.945,7.945,0,0,0,.834,3.534l.379.759H2.878A.878.878,0,0,0,2,42.448v5.268a.878.878,0,0,0,.878.878h.878v5.268a.878.878,0,0,0,.878.878H16.925a.878.878,0,0,0,.878-.878V48.594h.878a.878.878,0,0,0,.878-.878V42.448a.878.878,0,0,0-.878-.878H17.539l1.6-2.871A11.357,11.357,0,0,0,20.181,30.2Zm-4.134,22.78H5.512v-4.39H16.047ZM17.8,46.838H3.756V43.326H17.8Zm-.2-8.992L15.531,41.57H6.054l-.772-1.543a6.173,6.173,0,0,1-.649-2.749V28.732a6.146,6.146,0,0,1,.351-2.055l7.474-21.07a1.756,1.756,0,0,1,3.221-.42,1.729,1.729,0,0,1,.191,1.291l-3.746,11.4a3.46,3.46,0,0,0-1.487,3.842L12.7,29.432a.878.878,0,1,0,1.7-.454l-2.066-7.711a1.756,1.756,0,0,1,.913-2.027l.013-.006a1.736,1.736,0,0,1,.315-.118,1.756,1.756,0,0,1,2.15,1.241l2.76,10.3a9.612,9.612,0,0,1-.887,7.189Z" transform="translate(523.5 2176.48)" fill="url(#linear-gradient)" />
        </g>
        <g id="Group_751" data-name="Group 751" transform="translate(-84.205 -1857.174)">
            <path id="Path_285" data-name="Path 285" d="M38.056,17.838a.886.886,0,0,0,1.5-.48L40.81,9.839a.886.886,0,0,0-1.02-1.02l-7.519,1.253a.886.886,0,0,0-.48,1.5l1.277,1.277L22.63,24.129a.886.886,0,0,0,.024,1.228l2.506,2.506a.886.886,0,0,0,.626.26H25.8a.886.886,0,0,0,.634-.284l10.392-11.23Zm-1.9-3.108L25.761,25.959l-1.252-1.253L34.947,13.428a.886.886,0,0,0-.023-1.228l-.663-.662,4.6-.766-.766,4.6-.662-.663a.862.862,0,0,0-.644-.26A.886.886,0,0,0,36.153,14.73Z" transform="translate(528.108 2177.943)" fill="#d6ae0a" stroke="#1a1a1a" stroke-width="1" />
            <path id="Path_287" data-name="Path 287" d="M37.544,22a3.544,3.544,0,1,0,3.544,3.544A3.544,3.544,0,0,0,37.544,22Zm0,5.316a1.772,1.772,0,1,1,1.772-1.772A1.772,1.772,0,0,1,37.544,27.316Z" transform="translate(526.786 2176.44)" fill="#d6ae0a" stroke="#1a1a1a" stroke-width="1" />
            <path id="Path_288" data-name="Path 288" d="M25.544,18.088A3.544,3.544,0,1,0,22,14.544,3.544,3.544,0,0,0,25.544,18.088Zm0-5.316a1.772,1.772,0,1,1-1.772,1.772A1.772,1.772,0,0,1,25.544,12.772Z" transform="translate(528.153 2177.693)" fill="#d6ae0a" stroke="#1a1a1a" stroke-width="1" />
        </g>
    </g>
</svg>
