<svg id="noun_lounge_2021820" xmlns="http://www.w3.org/2000/svg" xmlns:xlink="http://www.w3.org/1999/xlink" width="40" height="40" viewBox="0 0 40 40">
  <defs>
    <style>
      .cls-1 {
        fill: url(#linear-gradient);
      }
    </style>
    <linearGradient id="linear-gradient" x1="0.567" y1="0.452" x2="1.071" y2="1" gradientUnits="objectBoundingBox">
      <stop offset="0" stop-color="#d6ae0a"/>
      <stop offset="1" stop-color="#876500"/>
    </linearGradient>
  </defs>
  <path id="Path_344" data-name="Path 344" class="cls-1" d="M42.289,50h3.594a1.874,1.874,0,0,0,1.872-1.872V32.358a4.794,4.794,0,0,0-1.964-8.823c-.031,0-.062,0-.093-.006A14.015,14.015,0,0,0,31.71,10H28.3A14.015,14.015,0,0,0,14.308,23.528c-.031,0-.062,0-.093.006a4.794,4.794,0,0,0-1.964,8.823v15.77A1.874,1.874,0,0,0,14.124,50h3.594a1.874,1.874,0,0,0,1.872-1.872v-.5H40.417v.5A1.874,1.874,0,0,0,42.289,50Zm-22.7-17.548c1.188-.5,9.782-3.839,20.826.018v6.28H19.591Zm29.363-4.8a3.776,3.776,0,0,1-1.936,3.978.5.5,0,0,0-.262.439V48.128a.873.873,0,0,1-.872.872H42.289a.873.873,0,0,1-.872-.872V28.294a3.8,3.8,0,0,1,1.275-2.837,3.75,3.75,0,0,1,2.514-.958h.006a4,4,0,0,1,.463.027A3.778,3.778,0,0,1,48.953,27.654ZM28.3,11H31.71A13.014,13.014,0,0,1,44.7,23.532a4.783,4.783,0,0,0-4.283,4.762v3.121c-10.514-3.56-18.643-.914-20.826-.047V28.294a4.783,4.783,0,0,0-4.282-4.762A13.014,13.014,0,0,1,28.3,11ZM18.591,48.128a.873.873,0,0,1-.872.872H14.124a.873.873,0,0,1-.872-.872V32.071a.5.5,0,0,0-.262-.439,3.795,3.795,0,1,1,5.6-3.338V48.128Zm1-1.5V39.75H40.417v6.875Z" transform="translate(-10.004 -10)"/>
  <path id="Path_345" data-name="Path 345" class="cls-1" d="M38.034,37a3.993,3.993,0,1,0-3.993-3.993A4,4,0,0,0,38.034,37Zm0-6.486a2.493,2.493,0,1,1-2.493,2.493A2.5,2.5,0,0,1,38.034,30.513Z" transform="translate(-22.943 -20.236)"/>
  <path id="Path_346" data-name="Path 346" class="cls-1" d="M59.305,37a3.993,3.993,0,1,0-3.993-3.993A4,4,0,0,0,59.305,37Zm0-6.486a2.493,2.493,0,1,1-2.493,2.493A2.5,2.5,0,0,1,59.305,30.513Z" transform="translate(-34.395 -20.236)"/>
</svg>
