<svg id="noun_Money_1346167" xmlns="http://www.w3.org/2000/svg" xmlns:xlink="http://www.w3.org/1999/xlink" width="50.645" height="54.347" viewBox="0 0 50.645 54.347">
  <defs>
    <style>
      .cls-1 {
        fill: url(#linear-gradient);
      }
    </style>
    <linearGradient id="linear-gradient" x1="-0.168" y1="0.084" x2="1.071" y2="1" gradientUnits="objectBoundingBox">
      <stop offset="0" stop-color="#d6ae0a"/>
      <stop offset="1" stop-color="#876500"/>
    </linearGradient>
  </defs>
  <g id="Group_646" data-name="Group 646" transform="translate(0 0)">
    <path id="Path_350" data-name="Path 350" class="cls-1" d="M22.17,57.76a3.64,3.64,0,0,0,5.134.056l5.3-5.187a3.636,3.636,0,0,0,.6-4.411l.418-.312a6.346,6.346,0,0,1,3.752-1.24h8.163a8.715,8.715,0,0,0,5.474-1.933l4.545-3.678a3.308,3.308,0,0,0,.517-.419l0,0v0c.02-.02.041-.035.06-.055l6.412-6.836a2.319,2.319,0,0,0,.624-1.586,2.356,2.356,0,0,0-.729-1.692,4.448,4.448,0,0,0-4.6-.909c.017-.316.028-.632.028-.95q0-.621-.043-1.237c-.009-.133-.028-.264-.04-.4-.025-.277-.048-.553-.086-.827-.021-.156-.054-.31-.079-.465-.041-.248-.078-.5-.129-.741-.034-.165-.079-.327-.117-.49-.055-.233-.106-.466-.17-.7-.046-.167-.1-.332-.154-.5-.068-.222-.134-.445-.211-.664-.059-.167-.126-.33-.189-.5-.082-.214-.161-.429-.251-.64-.07-.165-.149-.326-.224-.489-.095-.206-.187-.412-.289-.614-.082-.162-.172-.32-.258-.48-.107-.2-.212-.4-.326-.59-.093-.158-.194-.311-.291-.467-.119-.189-.236-.379-.362-.564-.1-.154-.216-.3-.325-.454-.13-.18-.259-.36-.4-.536-.115-.148-.237-.292-.357-.437-.14-.17-.281-.341-.427-.507-.126-.143-.259-.281-.39-.42-.151-.16-.3-.321-.457-.476-.137-.137-.281-.269-.423-.4-.16-.15-.319-.3-.485-.443-.148-.129-.3-.254-.454-.379-.169-.139-.338-.277-.512-.41-.159-.122-.322-.239-.485-.355s-.354-.253-.536-.375-.343-.222-.517-.33c-.118-.074-.231-.153-.352-.224l1.952-7.227a.61.61,0,0,0-.105-.531.6.6,0,0,0-.484-.241H39.418a.611.611,0,0,0-.59.769l1.947,7.223A18.864,18.864,0,0,0,31.44,28.6a18.146,18.146,0,0,0,.452,4h-.723a5.07,5.07,0,0,0-3.518,1.408l-4.312,4.123a3.636,3.636,0,0,0-4.42.507l-5.3,5.187a3.641,3.641,0,0,0-.056,5.136ZM40.215,5.721h8.893l-1.744,6.453h-5.41ZM32.66,28.6a17.651,17.651,0,0,1,9-15.206h5.995A17.634,17.634,0,0,1,56.657,28.6a16.238,16.238,0,0,1-.093,1.7,4.513,4.513,0,0,0-.393.366l-3.087,3.294-.706.426-.007.007-.01,0L50.1,35.863a3.114,3.114,0,0,0-2.48-1.243l-7.149,0-1.531-1.08A5.048,5.048,0,0,0,36,32.606H33.146A16.879,16.879,0,0,1,32.66,28.6Zm-4.166,6.3a3.854,3.854,0,0,1,2.674-1.07H36a3.884,3.884,0,0,1,2.231.711l1.691,1.193c.018.013.039.015.057.026a.61.61,0,0,0,.112.049.593.593,0,0,0,.12.024.524.524,0,0,0,.062.012l7.342,0a1.906,1.906,0,0,1,0,3.813H39.185a.611.611,0,1,0,0,1.221h8.433a3.131,3.131,0,0,0,3.128-3.128,3.091,3.091,0,0,0-.11-.778l2.383-1.548.761-.459a.6.6,0,0,0,.054-.049.529.529,0,0,0,.078-.056L57.061,31.5a3.228,3.228,0,0,1,4.547-.152,1.109,1.109,0,0,1,.347.805,1.084,1.084,0,0,1-.295.752l-6.382,6.806-5.035,4.074a7.489,7.489,0,0,1-4.705,1.661H37.375a7.575,7.575,0,0,0-4.48,1.481l-.458.341-8.159-8.337ZM14.472,44.7l5.3-5.187a2.419,2.419,0,0,1,3.408.037l8.606,8.793a2.419,2.419,0,0,1-.037,3.408l-5.3,5.187a2.418,2.418,0,0,1-3.407-.037l-8.607-8.793a2.419,2.419,0,0,1,.037-3.408Z" transform="translate(-12.532 -4.5)"/>
    <path id="Path_351" data-name="Path 351" class="cls-1" d="M63.173,35.193h.106a1.56,1.56,0,0,1,1.253.636,1.522,1.522,0,0,1,.22,1.373,1.553,1.553,0,0,1-1.111,1.03,1.593,1.593,0,0,1-.353.04,1.552,1.552,0,0,1-1.478-1.059.612.612,0,0,0-.586-.41.646.646,0,0,0-.518.265c-.084.115-.278.385-.229.536a3.534,3.534,0,0,0,1.717,1.812l.17.084v1.125c0,.3.538.626.916.626s.916-.324.916-.626V39.491l.18-.081a3.432,3.432,0,0,0,1.633-1.594A3.242,3.242,0,0,0,65.7,35a2.709,2.709,0,0,0-2.327-1.252h-.092a1.431,1.431,0,0,1-1.417-2.026,1.458,1.458,0,0,1,1.4-.89h.01A1.556,1.556,0,0,1,64.749,31.9a.613.613,0,0,0,.584.416.64.64,0,0,0,.518-.265c.1-.137.283-.393.236-.533a3.563,3.563,0,0,0-1.718-1.8l-.173-.083V28.5c0-.3-.538-.626-.916-.626s-.916.324-.916.626v1.148l-.181.081a3.357,3.357,0,0,0-1.64,1.623,3.036,3.036,0,0,0,.4,2.785A2.574,2.574,0,0,0,63.173,35.193Z" transform="translate(-31.154 -13.599)"/>
  </g>
</svg>
