<svg xmlns="http://www.w3.org/2000/svg" width="37.034" height="34.369" viewBox="0 0 37.034 34.369">
  <defs>
    <style>
      .cls-1, .cls-2 {
        fill: none;
        stroke-linecap: square;
        stroke-width: 1.2px;
      }

      .cls-1 {
        stroke: #d5d5d5;
      }

      .cls-2 {
        stroke: #d6ae0a;
      }
    </style>
  </defs>
  <g id="screen-rotation" transform="translate(0.6 0.761)">
    <line id="Line_57" data-name="Line 57" class="cls-1" y1="12.763" x2="13.923" transform="translate(2.637 2.417)"/>
    <line id="Line_58" data-name="Line 58" class="cls-1" y1="12.763" x2="13.923" transform="translate(17.354 15.908)"/>
    <path id="Path_182" data-name="Path 182" class="cls-1" d="M39.134,26.54,28.589,36.207a2.546,2.546,0,0,1-3.379,0L4.7,17.4a2.064,2.064,0,0,1,0-3.1L15.245,4.641a2.546,2.546,0,0,1,3.378,0l20.512,18.8a2.061,2.061,0,0,1,0,3.1Z" transform="translate(-4 -4)"/>
    <path id="Path_183" data-name="Path 183" class="cls-2" d="M15.238,52.385C9.584,52.385,5,48.183,5,43" transform="translate(-4.36 -20.124)"/>
    <path id="Path_184" data-name="Path 184" class="cls-2" d="M53.238,14.385C53.238,9.2,48.654,5,43,5" transform="translate(-18.044 -4.414)"/>
  </g>
</svg>
