<svg width="32" height="32" viewBox="0 0 32 32" fill="none" xmlns="http://www.w3.org/2000/svg">
<path fill-rule="evenodd" clip-rule="evenodd" d="M29.6667 20.9488V18.739L18.5562 12.1075C18.5707 10.829 18.5726 8.96469 18.5562 7.68783C18.4834 5.43469 18.5453 3.90314 16.9544 1.64972C16.9072 1.58283 16.8453 1.51956 16.7724 1.46905C16.4343 1.23206 15.9689 1.31337 15.7309 1.64972C14.14 3.90314 14.1854 5.43469 14.1126 7.68783C14.0962 8.96107 14.0981 10.8326 14.1126 12.1075L3 18.739V20.9488L14.1126 18.739C14.2217 21.8946 14.9162 24.1244 15.2145 27.2819L9.66715 29.7901V31.9999L16.3344 29.7015L22.9997 31.9999V29.7901L17.4709 27.2911C17.7708 24.1336 18.4471 21.8949 18.5562 18.7389L29.6667 20.9488Z" fill="#9D1D27"/>
</svg>
