<svg width="32" height="32" viewBox="0 0 32 32" fill="none" xmlns="http://www.w3.org/2000/svg">
<path d="M20.2095 1.70714H20.1874C19.938 1.70714 19.7356 1.90949 19.7356 2.15894V8.32015C19.7408 8.54712 19.5823 8.74496 19.3596 8.78993C19.2284 8.8122 19.0939 8.77537 18.9924 8.68951C18.8907 8.60365 18.8318 8.47731 18.8318 8.34413V2.18292C18.837 1.95595 18.6785 1.75789 18.4558 1.71314C18.3246 1.69087 18.1903 1.72748 18.0886 1.81356C17.9869 1.89942 17.9282 2.02575 17.9282 2.15872V8.31994C17.9332 8.5469 17.7747 8.74497 17.5523 8.78972C17.421 8.81198 17.2865 8.77516 17.1848 8.6893C17.0831 8.60343 17.0244 8.4771 17.0244 8.34392V2.18271C17.0294 1.95574 16.8711 1.75768 16.6484 1.71292C16.5172 1.69066 16.3829 1.72727 16.2812 1.81335C16.1795 1.89921 16.1206 2.02554 16.1206 2.15851V8.31972C16.1258 8.54669 15.9673 8.74454 15.7446 8.7895C15.6134 8.81177 15.4791 8.77494 15.3774 8.68908C15.2757 8.60322 15.2171 8.47689 15.2171 8.3437V2.15837C15.2171 2.03868 15.1693 1.9237 15.0847 1.83891C14.9999 1.75411 14.885 1.70658 14.7651 1.70658H14.743C14.5023 1.70593 14.3036 1.89458 14.2918 2.13482C14.2342 3.3157 14.0801 6.67054 14.0801 8.79594C14.0799 9.37687 14.2351 9.94728 14.5295 10.4481C14.8239 10.9487 15.2468 11.3618 15.7545 11.6442C16.1125 11.8356 16.3679 12.1752 16.4523 12.5724C16.8626 14.6745 16.7564 17.3323 15.7003 27.1335C15.5346 28.6705 16.4394 29.3338 17.4762 29.3338C18.513 29.3338 19.4178 28.6705 19.2521 27.1335C18.196 17.3326 18.0898 14.6746 18.5001 12.573V12.5728C18.5844 12.1756 18.8399 11.836 19.1981 11.6445C19.7055 11.3621 20.1287 10.949 20.4229 10.4485C20.7173 9.94763 20.8725 9.37721 20.8725 8.79628C20.8725 6.67132 20.7183 3.31625 20.6607 2.13515C20.6488 1.89491 20.4501 1.70627 20.2094 1.70691L20.2095 1.70714Z" fill="#9D1D27"/>
<path d="M25.5623 2.21209C24.1114 3.61585 22.8549 6.08362 22.7218 10.1668C22.6672 11.8428 22.7618 12.5702 23.0449 13.4868C23.2963 14.4212 23.9742 15.1822 24.8737 15.5393C25.1615 15.6644 25.3261 15.9704 25.2722 16.2793C24.86 22.8884 24.9154 25.6922 25.2565 27.8327C25.5987 29.9803 27.6067 29.591 27.6078 28.1213L27.6271 2.94533C27.6279 1.81411 26.5901 1.2174 25.5623 2.21174L25.5623 2.21209Z" fill="#9D1D27"/>
<path d="M0.729083 16.0382C0.607032 15.916 0.42332 15.8796 0.263583 15.9455C0.104061 16.0117 0 16.1676 0 16.3402V28.7448C0 28.9009 0.0620944 29.0508 0.172579 29.161C0.282851 29.2715 0.432737 29.3336 0.588834 29.3336H12.9935C13.166 29.3336 13.3219 29.2296 13.3881 29.07C13.454 28.9103 13.4176 28.7266 13.2954 28.6045L0.729083 16.0382Z" fill="#9D1D27"/>
<path d="M5.38596 12.6903C5.30909 12.5357 5.14657 12.4426 4.97442 12.4544C4.80205 12.4661 4.65366 12.5807 4.59863 12.7445L3.21094 16.8751L11.6716 25.3358L5.38596 12.6903Z" fill="#9D1D27"/>
</svg>
