<svg width="32" height="32" viewBox="0 0 32 32" fill="none" xmlns="http://www.w3.org/2000/svg">
<path d="M11.3537 13.688L10.0924 11.6787L5.36328 13.688H11.3537Z" fill="#9D1D27"/>
<path d="M21.1192 5.93326L24.8367 4.35207L21.6745 2.1499L17.957 3.72625L21.1192 5.93326Z" fill="#9D1D27"/>
<path d="M19.6831 10.4224H15.6504L17.6973 13.6882H21.7347L19.6831 10.4224Z" fill="#9D1D27"/>
<path d="M16.3439 7.96135L20.0613 6.38037L16.8991 4.17798L13.1816 5.75917L16.3439 7.96135Z" fill="#9D1D27"/>
<path d="M24.8752 10.4224H20.8379L22.8894 13.6882H26.9268L24.8752 10.4224Z" fill="#9D1D27"/>
<path d="M28.0789 13.6882H29.3354V10.4224H26.0273L28.0789 13.6882Z" fill="#9D1D27"/>
<path d="M6.79503 12.017L10.5078 10.4406L7.34561 8.23364L3.63281 9.81483L6.79503 12.017Z" fill="#9D1D27"/>
<path d="M11.5665 9.98922L12.757 9.48589L15.2839 8.40822L12.1169 6.20605L8.4043 7.78703L11.5665 9.98922Z" fill="#9D1D27"/>
<path d="M14.4962 10.4224H13.0421L11 11.2883L12.5058 13.6882H16.5431L14.4962 10.4224Z" fill="#9D1D27"/>
<path d="M16.3889 26.3976C17.4808 26.3976 18.528 25.9638 19.3003 25.1915C20.0725 24.4196 20.5063 23.3721 20.5063 22.2801C20.5063 21.1882 20.0725 20.141 19.3003 19.3688C18.528 18.5965 17.4808 18.1627 16.3889 18.1627C15.2967 18.1627 14.2495 18.5965 13.4773 19.3688C12.7053 20.141 12.2715 21.1882 12.2715 22.2801C12.2715 23.3721 12.7053 24.4195 13.4773 25.1915C14.2495 25.9637 15.2967 26.3976 16.3889 26.3976ZM14.9302 19.7769C14.9144 19.5845 15.0182 19.4019 15.1917 19.3167C15.3652 19.2316 15.573 19.261 15.7158 19.3912L18.9345 21.8945C19.0528 21.9877 19.1221 22.1297 19.1228 22.2804C19.1257 22.4318 19.0558 22.5755 18.9345 22.6663L15.7018 25.1743C15.5589 25.3044 15.351 25.334 15.1777 25.2489C15.0041 25.1636 14.9004 24.981 14.9159 24.7884L14.9302 19.7769Z" fill="#9D1D27"/>
<path d="M4.08008 14.6621V30.5246H28.6949V14.6621H4.08008ZM16.3899 17.189L16.3901 17.1888C17.7404 17.1888 19.0354 17.7254 19.9903 18.6801C20.9451 19.6349 21.4814 20.93 21.4814 22.2803C21.4814 23.6306 20.9451 24.9257 19.9903 25.8805C19.0353 26.8353 17.7404 27.3718 16.3901 27.3718C15.0398 27.3718 13.7447 26.8352 12.7899 25.8805C11.8349 24.9257 11.2987 23.6306 11.2987 22.2803C11.3012 20.9308 11.8383 19.6372 12.7927 18.6828C13.7468 17.7287 15.0405 17.1913 16.3902 17.1888L16.3899 17.189Z" fill="#9D1D27"/>
<path d="M5.7353 12.469L2.56846 10.2668L1.94727 10.5303L3.2224 13.5326L5.7353 12.469Z" fill="#9D1D27"/>
<path d="M25.8939 3.90028L27.0513 3.41082L25.7762 0.408691L22.7363 1.69814L25.8939 3.90028Z" fill="#9D1D27"/>
<path d="M15.9043 20.7744V23.7909L17.8525 22.2802L15.9043 20.7744Z" fill="#9D1D27"/>
</svg>
