<svg width="32" height="32" viewBox="0 0 32 32" fill="none" xmlns="http://www.w3.org/2000/svg">
<path d="M27.201 6.26871C24.1752 3.24342 19.2702 3.24411 16.2451 6.26871L15.4026 7.11128L14.5607 6.26871C11.5349 3.24411 6.63045 3.24342 3.60482 6.26871C0.579755 9.29446 0.579755 14.1995 3.60415 17.2246L15.4025 29.0234L27.2008 17.2251C30.2258 14.1998 30.2258 9.29434 27.2008 6.26871H27.201ZM18.4723 17.974H16.9443V19.5021C16.9443 20.352 16.2543 21.0414 15.4055 21.0414C14.5553 21.0414 13.8655 20.352 13.8655 19.5021V17.974H12.3381C11.4881 17.974 10.7992 17.2848 10.7992 16.4354C10.7992 15.5852 11.4884 14.8958 12.3381 14.8958H13.8655V13.3679C13.8655 12.518 14.5554 11.8291 15.4055 11.8291C16.2543 11.8291 16.9443 12.5182 16.9443 13.3679V14.8958H18.4723C19.3217 14.8958 20.0111 15.5852 20.0111 16.4354C20.0111 17.2851 19.3217 17.974 18.4723 17.974Z" fill="#9D1D27"/>
</svg>
