<svg width="32" height="32" viewBox="0 0 32 32" fill="none" xmlns="http://www.w3.org/2000/svg">
<path d="M16.5327 2.66675C12.8551 2.66733 9.32839 4.1287 6.72836 6.72946C4.12814 9.33008 2.66757 12.8571 2.66797 16.5348C2.66836 20.2123 4.12953 23.739 6.7301 26.3396C9.33066 28.9401 12.8577 30.4005 16.5354 30.4003C20.2132 30.4001 23.7402 28.9392 26.3402 26.3386C28.9406 23.7381 30.4014 20.2109 30.4014 16.5338C30.4014 14.0994 29.7605 11.7081 28.5433 9.59988C27.326 7.49184 25.5753 5.74126 23.467 4.52415C21.3588 3.30715 18.9673 2.6666 16.5326 2.667L16.5327 2.66675ZM9.58641 19.3925C8.82809 19.3931 8.10048 19.0923 7.56384 18.5562C7.02719 18.0202 6.72559 17.293 6.72519 16.5347C6.72481 15.7761 7.02582 15.0487 7.56191 14.5123C8.09815 13.9756 8.82537 13.6742 9.58388 13.674C10.3422 13.6738 11.0696 13.9751 11.6061 14.5113C12.1423 15.0475 12.4437 15.775 12.4437 16.5333C12.4437 17.2912 12.1427 18.0182 11.607 18.5543C11.0711 19.0905 10.3443 19.392 9.58636 19.3925H9.58641ZM16.5327 19.3925C15.7744 19.3925 15.0471 19.0913 14.5109 18.5551C13.9747 18.0188 13.6734 17.2916 13.6734 16.5333C13.6734 15.775 13.9747 15.0478 14.5109 14.5115C15.0471 13.9753 15.7744 13.6741 16.5327 13.6741C17.291 13.6741 18.0182 13.9753 18.5545 14.5115C19.0907 15.0478 19.3919 15.775 19.3919 16.5333C19.3919 17.2916 19.0907 18.0188 18.5545 18.5551C18.0182 19.0913 17.291 19.3925 16.5327 19.3925ZM23.4809 19.3925C22.7224 19.3931 21.995 19.0923 21.4584 18.5562C20.9217 18.0202 20.6201 17.293 20.6197 16.5347C20.6193 15.7761 20.9203 15.0487 21.4564 14.5123C21.9925 13.9756 22.7199 13.6742 23.4782 13.674C24.2367 13.6738 24.9641 13.9751 25.5006 14.5113C26.0368 15.0475 26.3382 15.775 26.3382 16.5333C26.3388 17.2914 26.038 18.0186 25.5019 18.5548C24.9661 19.0913 24.239 19.3925 23.4809 19.3925L23.4809 19.3925Z" fill="#9D1D27"/>
</svg>
