<?xml version="1.0" encoding="utf-8"?>
<!-- Generator: Adobe Illustrator 24.3.2, SVG Export Plug-In . SVG Version: 6.00 Build 0)  -->
<svg version="1.1" id="Layer_1" xmlns="http://www.w3.org/2000/svg" xmlns:xlink="http://www.w3.org/1999/xlink" x="0px" y="0px"
	 viewBox="0 0 215 215" style="enable-background:new 0 0 215 215;" xml:space="preserve">
<style type="text/css">
	.st0{fill:url(#SVGID_1_);}
	.st1{fill:#FFFFFF;}
</style>
<linearGradient id="SVGID_1_" gradientUnits="userSpaceOnUse" x1="107.5" y1="0" x2="107.5" y2="215">
	<stop  offset="0" style="stop-color:#700F12"/>
	<stop  offset="1" style="stop-color:#921A21"/>
</linearGradient>
<circle class="st0" cx="107.5" cy="107.5" r="107.5"/>
<path class="st1" d="M41.4,112.3h119.3l-39.5,35.2c-1.9,1.6-2.1,4.4-0.5,6.2c0.2,0.2,0.3,0.4,0.5,0.5c2.2,1.9,5.4,1.9,7.6,0
	l48.7-43.3c1.9-1.6,2.1-4.4,0.5-6.2c-0.2-0.2-0.3-0.4-0.5-0.5l-48.6-43.3c-2.2-1.9-5.4-1.9-7.6,0c-1.9,1.6-2.1,4.4-0.5,6.2
	c0.2,0.2,0.3,0.4,0.5,0.5l39.5,35.2H41.4c-2.6-0.3-5,1.6-5.3,4.2c-0.3,2.6,1.6,5,4.2,5.3C40.6,112.3,41,112.3,41.4,112.3L41.4,112.3
	z"/>
</svg>
