<svg xmlns="http://www.w3.org/2000/svg" xmlns:xlink="http://www.w3.org/1999/xlink" width="40" height="40" viewBox="0 0 40 40">
  <defs>
    <linearGradient id="linear-gradient" x1="0.543" y1="0.5" x2="1.071" y2="1" gradientUnits="objectBoundingBox">
      <stop offset="0" stop-color="#9d1d27"/>
      <stop offset="1" stop-color="#54123c"/>
    </linearGradient>
  </defs>
  <g id="Section_3_icon_3" data-name="Section 3 icon 3" transform="translate(-0.529 1.941)">
    <g id="Group_614" data-name="Group 614" transform="translate(0.529 1.058)">
      <path id="Path_315" data-name="Path 315" d="M7.514,290.121v3H6.085v-3Z" transform="translate(23.915 -287.123)" fill="url(#linear-gradient)"/>
      <path id="Path_316" data-name="Path 316" d="M6.615,294.588l5.714,2.5v-6l-5.714,2.5v-1.623l5.164-2.258a1.372,1.372,0,0,1,1.342.136,1.518,1.518,0,0,1,.636,1.247v6a1.519,1.519,0,0,1-.636,1.247,1.372,1.372,0,0,1-1.342.136l-5.164-2.257Z" transform="translate(26.243 -289.592)" fill="url(#linear-gradient)"/>
      <path id="Path_317" data-name="Path 317" d="M4.5,297.088a1.519,1.519,0,0,0,.636,1.247,1.373,1.373,0,0,0,1.342.136l5.164-2.259v-1.623l-5.714,2.5v-6l5.714,2.5v-1.623l-5.164-2.258a1.372,1.372,0,0,0-1.342.136A1.518,1.518,0,0,0,4.5,291.09Z" transform="translate(16.931 -289.589)" fill="url(#linear-gradient)"/>
      <path id="Path_318" data-name="Path 318" d="M10.914,2.382,4.714,11.6a10.37,10.37,0,0,1,7.4-3.329V2.382Zm-.226,2.934V6.881a11.53,11.53,0,0,0-1.211.237Z" transform="translate(17.883 5.112)" fill="url(#linear-gradient)"/>
      <path id="Path_319" data-name="Path 319" d="M6.35,2.382V8.268a10.37,10.37,0,0,1,7.4,3.329l-6.2-9.215ZM7.778,5.316l1.211,1.8a11.531,11.531,0,0,0-1.211-.237Z" transform="translate(25.078 5.112)" fill="url(#linear-gradient)"/>
      <path id="Path_320" data-name="Path 320" d="M3.2,3.175A2.2,2.2,0,0,0,1.058,5.422v5.991A2.2,2.2,0,0,0,3.2,13.66H7.487A2.2,2.2,0,0,0,9.63,11.413V5.422A2.2,2.2,0,0,0,7.487,3.175Zm0,1.5H4.63v1.5H2.487V5.422A.732.732,0,0,1,3.2,4.673Zm2.857,0H7.487a.732.732,0,0,1,.714.749v.749H6.058Zm-3.571,3H4.63v1.5H2.487Zm3.571,0H8.2v1.5H6.058Zm-3.571,3H4.63v1.5H3.2a.732.732,0,0,1-.714-.749Zm3.571,0H8.2v.749a.732.732,0,0,1-.714.749H6.058Z" transform="translate(1.799 8.809)" fill="url(#linear-gradient)"/>
      <path id="Path_321" data-name="Path 321" d="M8.109,295.852v-1.5H1.323v1.5Z" transform="translate(2.963 -267.39)" fill="url(#linear-gradient)"/>
      <path id="Path_322" data-name="Path 322" d="M9.63,295.852H2.844v-1.5H9.63Z" transform="translate(9.656 -267.39)" fill="url(#linear-gradient)"/>
      <path id="Path_323" data-name="Path 323" d="M5.887,295.852v-1.5h6.786v1.5Z" transform="translate(23.042 -267.39)" fill="url(#linear-gradient)"/>
      <path id="Path_324" data-name="Path 324" d="M11.151,295.852v-1.5H4.366v1.5Z" transform="translate(16.349 -267.39)" fill="url(#linear-gradient)"/>
      <path id="Path_325" data-name="Path 325" d="M3.386,292.15a1.464,1.464,0,0,0-1.429,1.5v20.971a1.464,1.464,0,0,0,1.429,1.5H37.672a1.465,1.465,0,0,0,1.429-1.5V302.634h1.429v11.983a2.929,2.929,0,0,1-2.857,3H3.386a2.929,2.929,0,0,1-2.857-3V293.646a2.929,2.929,0,0,1,2.857-3H20.529v1.5Z" transform="translate(-0.529 -284.657)" fill="url(#linear-gradient)"/>
      <rect id="Rectangle_451" data-name="Rectangle 451" width="40" height="40" transform="translate(0 -3)" fill="none"/>
    </g>
  </g>
</svg>
