<svg xmlns="http://www.w3.org/2000/svg" xmlns:xlink="http://www.w3.org/1999/xlink" width="54" height="54" viewBox="0 0 54 54">
  <defs>
    <clipPath id="clip-path">
      <rect id="Rectangle_460" data-name="Rectangle 460" width="40" height="40" transform="translate(-13480 -3792)" fill="#fff"/>
    </clipPath>
    <linearGradient id="linear-gradient" x1="0.5" x2="0.5" y2="1" gradientUnits="objectBoundingBox">
      <stop offset="0" stop-color="#700b11"/>
      <stop offset="1" stop-color="#911821"/>
    </linearGradient>
  </defs>
  <g id="_3" data-name="3" transform="translate(13535 3791)">
    <g id="Group_908" data-name="Group 908" transform="translate(-13426.563 -3792.938)">
      <circle id="Ellipse_152" data-name="Ellipse 152" cx="27" cy="27" r="27" transform="translate(-108.438 1.938)" fill="#fff"/>
    </g>
    <g id="Section_4_icon_3" data-name="Section 4 icon 3" transform="translate(-48 8)" clip-path="url(#clip-path)">
      <path id="Path_455" data-name="Path 455" d="M7.979,20.527H12.7a2.849,2.849,0,0,1,1.9.824,3.5,3.5,0,0,0,2.212,1.088h7.1a.95.95,0,0,1,.817.334,1.236,1.236,0,0,1,.252.811,1.4,1.4,0,0,1-.3.842.906.906,0,0,1-.63.325H15.417a.6.6,0,1,0,0,1.2h8.5v.017a2.151,2.151,0,0,0,.271-.017h1.628a.615.615,0,0,0,.221-.04l4.433-1.743a2.812,2.812,0,0,1,1.764-.2.769.769,0,0,1,.58.588c.143.571-.248,1.682-1.649,2.445L22.1,31.947a4.666,4.666,0,0,1-2.8.766,10.991,10.991,0,0,1-2.808-.9L7.956,28.383C7.97,28.291,7.979,28.2,7.979,20.527ZM6.773,28.108c0,.366-1.62.366-1.62-8.478C5.153,19.63,6.773,19.262,6.773,28.108ZM19,4.784a4.536,4.536,0,1,1-4.532,4.535A4.525,4.525,0,0,1,19,4.784Zm0-1.2a5.737,5.737,0,0,0-.6,11.443v6.208H16.816c-.449,0-.846-.33-1.46-.822A4.146,4.146,0,0,0,12.7,19.325H7.951a1.86,1.86,0,0,0-1.823-1.546H5.8a1.86,1.86,0,0,0-1.851,1.851v8.478A1.857,1.857,0,0,0,5.8,29.953h.332a1.843,1.843,0,0,0,1.258-.5l8.665,3.479a11.38,11.38,0,0,0,3.145.981A5.967,5.967,0,0,0,22.681,33l9.058-4.942c1.745-.952,2.573-2.491,2.24-3.8a2.062,2.062,0,0,0-1.38-1.438h0a3.907,3.907,0,0,0-2.559.22s-.006,0-.008,0l-4.081,1.605a2.652,2.652,0,0,0,.237-1.033A2.41,2.41,0,0,0,25.658,22a2.247,2.247,0,0,0-1.745-.77H19.606V19.405a.691.691,0,0,0,.05-.086c1.154-2.168,3.248-2.825,5.93-2.771a.083.083,0,0,1,.008.037,1.353,1.353,0,0,1-.254.822c-.449.689-1.55,1.5-3.823,1.5a.6.6,0,1,0,0,1.2c2.567,0,4.122-.96,4.832-2.051a2.464,2.464,0,0,0,.441-1.631,1.354,1.354,0,0,0-.315-.733,1.112,1.112,0,0,0-.786-.365A7.928,7.928,0,0,0,19.6,17.363V15.025A5.737,5.737,0,0,0,19,3.582Z" transform="translate(-13478.945 -3790.582)" fill="url(#linear-gradient)"/>
    </g>
  </g>
</svg>
