<svg xmlns="http://www.w3.org/2000/svg" xmlns:xlink="http://www.w3.org/1999/xlink" width="54" height="54" viewBox="0 0 54 54">
  <defs>
    <clipPath id="clip-path">
      <rect id="Rectangle_462" data-name="Rectangle 462" width="40" height="40" transform="translate(-13455 -3614)" fill="#fff"/>
    </clipPath>
  </defs>
  <g id="_5" data-name="5" transform="translate(13535 3617)">
    <circle id="Ellipse_110" data-name="Ellipse 110" cx="27" cy="27" r="27" transform="translate(-13535 -3617)" fill="#fff"/>
    <g id="Section_4_icon_5" data-name="Section 4 icon 5" transform="translate(-73 4)" clip-path="url(#clip-path)">
      <g id="Group_816" data-name="Group 816" transform="translate(-13449.039 -3608.563)">
        <path id="Path_284" data-name="Path 284" d="M50.554,23.982h-.666l.208-.416a4.36,4.36,0,0,0,.458-1.939v-4.69a4.328,4.328,0,0,0-.25-1.45L46.226,4a1.928,1.928,0,1,0-3.717,1.027l1.856,5.649a1.923,1.923,0,0,0-1.792,1.417l-1.514,5.652a6.232,6.232,0,0,0,.575,4.663l.875,1.575h-.626a.482.482,0,0,0-.482.482v2.891a.482.482,0,0,0,.482.482h.482v2.891a.482.482,0,0,0,.482.482h6.745a.482.482,0,0,0,.482-.482V27.836h.482a.482.482,0,0,0,.482-.482V24.463A.482.482,0,0,0,50.554,23.982Zm-8.078-2.044a5.274,5.274,0,0,1-.487-3.945L43.5,12.341a.964.964,0,0,1,1.353-.617l.007,0a.964.964,0,0,1,.5,1.112l-1.134,4.231a.482.482,0,1,0,.931.249L46.3,13.089a1.9,1.9,0,0,0-.816-2.108L43.432,4.75a.959.959,0,0,1,.932-1.214.979.979,0,0,1,.943.749L49.4,15.809a3.372,3.372,0,0,1,.193,1.128v4.69a3.387,3.387,0,0,1-.356,1.508l-.423.847h-5.2Zm6.633,8.307H43.328V27.836h5.781Zm.964-3.372H42.364V24.945h7.708Z" transform="translate(-22.13 -1.772)" fill="#9c1d26"/>
        <path id="Path_286" data-name="Path 286" d="M11.977,17.711l-1.514-5.652a1.923,1.923,0,0,0-1.792-1.418l1.864-5.674A1.928,1.928,0,1,0,6.821,3.929L2.731,15.454a4.323,4.323,0,0,0-.25,1.45v4.69a4.36,4.36,0,0,0,.458,1.939l.208.416H2.482A.482.482,0,0,0,2,24.431v2.891a.482.482,0,0,0,.482.482h.482v2.891a.482.482,0,0,0,.482.482H10.19a.482.482,0,0,0,.482-.482V27.8h.482a.482.482,0,0,0,.482-.482V24.431a.482.482,0,0,0-.482-.482h-.626l.875-1.575A6.232,6.232,0,0,0,11.977,17.711Zm-2.269,12.5H3.927V27.8H9.708Zm.964-3.372H2.964V24.912h7.708Zm-.112-4.934L9.425,23.949h-5.2L3.8,23.1a3.387,3.387,0,0,1-.356-1.508V16.9a3.372,3.372,0,0,1,.193-1.128l4.1-11.562a.964.964,0,0,1,1.768-.23.949.949,0,0,1,.105.708L7.556,10.948a1.9,1.9,0,0,0-.816,2.108l1.134,4.231a.482.482,0,1,0,.931-.249L7.671,12.807a.964.964,0,0,1,.5-1.112l.007,0a.953.953,0,0,1,.173-.065.964.964,0,0,1,1.18.681l1.515,5.652a5.274,5.274,0,0,1-.487,3.945Z" transform="translate(-2 -1.739)" fill="#9c1d26"/>
        <path id="Path_285" data-name="Path 285" d="M30.989,13.763a.486.486,0,0,0,.824-.264L32.5,9.374a.486.486,0,0,0-.56-.56L27.814,9.5a.486.486,0,0,0-.264.824l.7.7-5.728,6.19a.486.486,0,0,0,.013.674l1.375,1.375a.486.486,0,0,0,.344.142h.009a.486.486,0,0,0,.348-.156l5.7-6.162Zm-1.044-1.706-5.7,6.162-.687-.688,5.728-6.189a.486.486,0,0,0-.013-.674l-.364-.363,2.522-.421-.421,2.522-.363-.364a.473.473,0,0,0-.353-.142A.486.486,0,0,0,29.944,12.058Z" transform="translate(-12.902 -8.807)" fill="#9c1d26"/>
        <path id="Path_287" data-name="Path 287" d="M35.945,22a1.945,1.945,0,1,0,1.945,1.945A1.945,1.945,0,0,0,35.945,22Zm0,2.917a.972.972,0,1,1,.972-.972A.972.972,0,0,1,35.945,24.917Z" transform="translate(-18.865 -15.585)" fill="#9c1d26"/>
        <path id="Path_288" data-name="Path 288" d="M23.945,14.89A1.945,1.945,0,1,0,22,12.945,1.945,1.945,0,0,0,23.945,14.89Zm0-2.917a.972.972,0,1,1-.972.972A.972.972,0,0,1,23.945,11.972Z" transform="translate(-12.7 -9.934)" fill="#9c1d26"/>
      </g>
    </g>
  </g>
</svg>
