<?xml version="1.0" encoding="UTF-8"?>
<svg width="24px" height="24px" viewBox="0 0 24 24" version="1.1" xmlns="http://www.w3.org/2000/svg" xmlns:xlink="http://www.w3.org/1999/xlink">
    <title>icons /close copy 2</title>
    <g id="Page-1" stroke="none" stroke-width="1" fill="none" fill-rule="evenodd">
        <g id="Product_details_desktop" transform="translate(-981.000000, -448.000000)" stroke="#787878">
            <g id="Group-63" transform="translate(0.000000, 130.000000)">
                <g id="Group" transform="translate(958.000000, 75.000000)">
                    <g transform="translate(23.000000, 243.000000)" id="Path">
                        <path d="M22.8899812,11.7325027 L19.8880583,8.72972296 L19.8880583,4.48381792 C19.8880583,4.2762548 19.7198384,4.10825137 19.5125676,4.10825137 L15.2672697,4.10825137 L12.2655971,1.10572198 C12.1246629,0.964759339 11.8753371,0.964759339 11.7346532,1.10572198 L8.73273027,4.10825137 L4.48743244,4.10825137 C4.28016157,4.10825137 4.11194174,4.2762548 4.11194174,4.48381792 L4.11194174,8.72972296 L1.11001877,11.7325027 C0.963327075,11.8789737 0.963327075,12.1170829 1.11001877,12.2635538 L4.11194174,15.2660832 L4.11194174,19.5119883 C4.11194174,19.7195514 4.28016157,19.8875548 4.48743244,19.8875548 L8.73273027,19.8875548 L11.7344029,22.8900842 C11.8047448,22.9604403 11.9003698,23 12,23 C12.0996302,23 12.1950048,22.9604403 12.2655971,22.8900842 L15.2672697,19.8875548 L19.5125676,19.8875548 C19.7198384,19.8875548 19.8880583,19.7195514 19.8880583,19.5119883 L19.8880583,15.2660832 L22.8899812,12.2635538 C23.0366729,12.1168325 23.0366729,11.8789737 22.8899812,11.7325027 Z"></path>
                        <path d="M19.2469705,14.8449479 C19.1766285,14.9153041 19.1370769,15.0109483 19.1370769,15.1105987 L19.1370769,19.1364217 L15.1118166,19.1364217 C15.0124367,19.1364217 14.9168117,19.1759814 14.8462195,19.2463375 L12,22.0933823 L9.15378051,19.2463375 C9.08343858,19.1759814 8.98781362,19.1364217 8.88818342,19.1364217 L4.86292314,19.1364217 L4.86292314,15.1105987 C4.86292314,15.0109483 4.82337145,14.9155544 4.75302953,14.8449479 L1.90655971,11.9979031 L4.75302953,9.15085825 C4.82337145,9.08050212 4.86292314,8.98485784 4.86292314,8.88520751 L4.86292314,4.85938447 L8.88818342,4.85938447 C8.98756329,4.85938447 9.08318826,4.81982479 9.15378051,4.74946866 L12,1.90242383 L14.8462195,4.74946866 C14.9165614,4.81982479 15.0121864,4.85938447 15.1118166,4.85938447 L19.1370769,4.85938447 L19.1370769,8.88545789 C19.1370769,8.98510822 19.1766285,9.08050212 19.2469705,9.15110863 L22.0934403,11.9981535 L19.2469705,14.8449479 Z"></path>
                        <path d="M15.7393867,8.63357793 L7.802014,14.7678316 C7.63804972,14.8945227 7.60776014,15.1306289 7.73442567,15.2946263 C7.80827217,15.3905209 7.91941742,15.4405965 8.0318143,15.4405965 C8.11191899,15.4405965 8.19302498,15.4150579 8.26111396,15.3622282 L16.1984867,9.22797459 C16.3624509,9.10128347 16.3927405,8.8651773 16.266075,8.7011799 C16.1391591,8.53668176 15.9031006,8.50688681 15.7393867,8.63357793 Z"></path>
                        <path d="M10.3162997,10.5018963 C10.7986801,10.5018963 11.2517722,10.3141131 11.5927178,9.97284825 C11.9336633,9.63183382 12.1214087,9.1783998 12.121659,8.69642273 C12.121659,8.2139449 11.9339136,7.76051088 11.5929681,7.41974683 C11.2520225,7.07848203 10.7986801,6.89044838 10.3162997,6.89044838 C9.83416965,6.89044838 9.38082722,7.07823165 9.03963134,7.41949646 C8.69868578,7.76051088 8.51094043,8.2139449 8.51094043,8.69617235 C8.51094043,9.1783998 8.69868578,9.63183382 9.03963134,9.97284825 C9.38082722,10.3138627 9.83416965,10.5018963 10.3162997,10.5018963 Z"></path>
                        <path d="M9.57082551,7.95054756 C9.77008591,7.75124691 10.034932,7.64158148 10.31655,7.64158148 C10.5981681,7.64158148 10.8627638,7.75124691 11.0620242,7.95079794 C11.2612846,8.14984821 11.3709279,8.41474782 11.3709279,8.69617235 C11.3709279,8.97784726 11.2612846,9.24249649 11.0617739,9.44204752 C10.8627638,9.64134817 10.5979177,9.7510136 10.31655,9.7510136 C10.034932,9.7510136 9.77008591,9.64134817 9.57082551,9.44179714 C9.37156511,9.24274687 9.26217216,8.97809764 9.26217216,8.69642273 C9.26217216,8.41474782 9.37156511,8.14984821 9.57082551,7.95054756 Z"></path>
                        <path d="M13.6837003,13.4941602 C13.2013199,13.4941602 12.7482278,13.6819435 12.4072822,14.0232083 C12.0663367,14.3642227 11.8785913,14.8176567 11.878341,15.2996338 C11.878341,15.7821117 12.0660864,16.2355457 12.4070319,16.5763097 C12.7479775,16.9175745 13.2013199,17.1056082 13.6837003,17.1056082 C14.1660807,17.1056082 14.6194231,16.9178249 14.9603687,16.5765601 C15.3013142,16.2355457 15.4890596,15.7821117 15.4890596,15.2998842 C15.4890596,14.8176567 15.3013142,14.3642227 14.9603687,14.0234587 C14.6191728,13.6819435 14.1658303,13.4941602 13.6837003,13.4941602 Z"></path>
                        <path d="M14.4291745,16.0452586 C14.2299141,16.2445593 13.965068,16.3542247 13.68345,16.3542247 C13.4018319,16.3542247 13.1372362,16.2445593 12.9379758,16.0450082 C12.7387154,15.845958 12.6290721,15.5810584 12.6290721,15.2996338 C12.6290721,15.0179589 12.7387154,14.7533097 12.9382261,14.5537587 C13.1372362,14.354458 13.4020823,14.2447926 13.68345,14.2447926 C13.965068,14.2447926 14.2299141,14.354458 14.4291745,14.554009 C14.6284349,14.7530593 14.7378283,15.0177085 14.7378283,15.2993834 C14.7380782,15.5813087 14.6281846,15.8462083 14.4291745,16.0452586 Z"></path>
                    </g>
                </g>
            </g>
        </g>
    </g>
</svg>