<?xml version="1.0" encoding="UTF-8"?>
<svg width="32px" height="28px" viewBox="0 0 32 28" version="1.1" xmlns="http://www.w3.org/2000/svg" xmlns:xlink="http://www.w3.org/1999/xlink">
    <title>icons / ATM</title>
    <g id="Page-1" stroke="none" stroke-width="1" fill="none" fill-rule="evenodd">
        <g id="Homepage-DOC-Menu" transform="translate(-881.000000, -524.000000)" stroke-width="2">
            <g id="Start-Here" transform="translate(-12.000000, 144.000000)">
                <g id="Quick-Link-Card-with-Description-Copy-5" transform="translate(870.000000, 348.000000)">
                    <g id="Group-2" transform="translate(23.000000, 18.000000)">
                        <g id="icons-/-ATM" transform="translate(0.000000, 12.000000)">
                            <polygon id="Path-2" stroke="#787878" points="27.2583267 7.00728349 26.7178846 7.00779904 26.1774426 7.00831459 24.254878 7.01014862 9.9648687 7.02378054 9.4357682 7.02428528 8.90683955 7.02478985 4.89416479 7.02861773 3.2193959 7.03021537 3.20231566 24.994185 28.7806041 24.9697846 28.7976843 7.00581502"></polygon>
                            <polygon id="Path" stroke="#FFCB05" transform="translate(13.886935, 20.580189) rotate(-15.000000) translate(-13.886935, -20.580189) " points="19.4203396 20.2487436 19.1547014 20.2494064 18.8890632 20.2500693 17.9440838 20.2524273 10.9202551 20.2699539 10.6601915 20.2706028 10.4002124 20.2712515 8.42790151 20.276173 7.60471872 20.2782271 7.59690563 20.9135222 20.169152 20.8821506 20.176965 20.2468556"></polygon>
                        </g>
                    </g>
                </g>
            </g>
        </g>
    </g>
</svg>