<?xml version="1.0" encoding="UTF-8"?>
<svg width="25px" height="25px" viewBox="0 0 25 25" version="1.1" xmlns="http://www.w3.org/2000/svg" xmlns:xlink="http://www.w3.org/1999/xlink">
    <title>icons /close</title>
    <g id="Page-1" stroke="none" stroke-width="1" fill="none" fill-rule="evenodd">
        <g id="About-Us" transform="translate(-671.000000, -2288.000000)">
            <g id="Group-44" transform="translate(266.000000, 2168.000000)">
                <g id="Group-40" transform="translate(30.000000, 97.000000)">
                    <g id="Group-39-Copy" transform="translate(286.000000, 0.000000)">
                        <g id="Group-38" transform="translate(66.000000, 0.000000)">
                            <g id="icons-/close" transform="translate(23.000000, 23.000000)">
                                <path d="M11.0729523,23.0294244 L13.0668731,23.0294244 C13.2956414,22.5525298 13.7902501,21.2883275 14.1861952,20.1993622 L14.2659708,19.9826247 L16.0814524,19.233099 L16.276668,19.317659 C17.3586833,19.789396 18.6375566,20.3122289 19.1359195,20.472833 L20.5370372,19.0717753 C20.3590673,18.5674137 19.8195261,17.3333171 19.3328949,16.2923292 L19.2347005,16.0807492 L19.9858817,14.2474159 L20.1903653,14.166694 C21.2832911,13.7365774 22.5496115,13.2055884 23.0227512,12.9634229 L23.0227512,10.9951533 C22.5440976,10.7651021 21.2828218,10.274414 20.1958792,9.88040029 L19.9830661,9.80267703 L19.2269576,7.96754455 L19.3171744,7.76064236 C19.7823366,6.68750966 20.2997048,5.42162808 20.4654738,4.91162917 L19.060602,3.5075729 C18.6071715,3.66937641 17.3374489,4.22567344 16.2664614,4.72535722 L16.0670224,4.818913 L14.2515408,4.07070669 L14.1704747,3.86428427 C13.7413289,2.76920195 13.2081228,1.49948218 12.9676229,1.02942439 L10.9751098,1.02942439 C10.7450511,1.50499957 10.2520848,2.76968172 9.85707819,3.85828711 L9.77859308,4.07382522 L7.96815612,4.82586971 L7.77294053,4.74047008 C6.68846157,4.26957268 5.40700727,3.74757944 4.90700194,3.58709531 L3.50834788,4.98899259 C3.68385421,5.49251457 4.22503784,6.72577157 4.71002658,7.76675947 L4.80951146,7.97881922 L4.05457614,9.81131295 L3.85138298,9.89155502 C2.76021696,10.3211919 1.49600826,10.8518211 1.02275122,11.0930271 L1.02275122,13.0638154 C1.50140485,13.2947063 2.76139013,13.7867137 3.84762884,14.1824066 L4.05879955,14.2609695 L4.81502536,16.0899849 L4.72480853,16.2964073 C4.25964637,17.3687004 3.74274738,18.6329027 3.5765091,19.1419421 L4.98431388,20.5503163 C5.43645385,20.3871934 6.70453401,19.8308964 7.77681199,19.3307329 L7.97754149,19.2366973 L9.78926893,19.9895814 L9.87033502,20.1960038 C10.3007713,21.291446 10.832335,22.5590068 11.0729523,23.0294244 Z" id="Shape" stroke="#787878" stroke-width="2"></path>
                                <path d="M12.6167659,17 C15.3781897,17 17.6167659,14.7614237 17.6167659,12 C17.6167659,9.23857625 15.3781897,7 12.6167659,7 C9.85534216,7 7.61676591,9.23857625 7.61676591,12 C7.61995297,14.7601025 9.85666336,16.9968129 12.6167659,17 L12.6167659,17 Z M12.6167659,7.90909091 C14.8761126,7.90909091 16.707675,9.7406533 16.707675,12 C16.707675,14.2593467 14.8761126,16.0909091 12.6167659,16.0909091 C10.3574192,16.0909091 8.52585682,14.2593467 8.52585682,12 C8.52846927,9.7417363 10.3585022,7.91170336 12.6167659,7.90909091 Z" id="Shape" stroke="#777777" stroke-width="0.679799947" fill="#777777" fill-rule="nonzero"></path>
                                <path d="M13.933662,14.7407959 L12.628784,12.8430368 C12.4885401,12.6399556 12.3909791,12.5139052 12.3421986,12.4648856 C12.6653694,12.3878547 12.9275645,12.2407959 13.1226864,12.0167063 C13.2690279,11.8416363 13.3543938,11.6315522 13.3909791,11.3794514 L14.0434181,11.3794514 L14.1714669,10.9452777 L13.4031742,10.9452777 C13.3726864,10.6371545 13.281223,10.3850536 13.1348816,10.1749696 L14.0434181,10.1749696 L14.1653694,9.74079592 L11.2995157,9.74079592 L11.1714669,10.1749696 L11.8056133,10.1749696 C12.1104913,10.1749696 12.3421986,10.2520004 12.5007352,10.4130648 C12.628784,10.5391152 12.7080523,10.7141853 12.7385401,10.9452777 L11.3056133,10.9452777 L11.183662,11.3794514 L12.726345,11.3794514 C12.6897596,11.5615242 12.6043938,11.7155858 12.4702474,11.8276307 C12.2751255,11.9816923 11.9824425,12.0657259 11.5982962,12.0657259 L11.226345,12.0657259 L11.226345,12.5769304 C11.3726864,12.5769304 11.5068328,12.62595 11.628784,12.7169864 C11.7324425,12.80102 11.8361011,12.9200676 11.9397596,13.0811321 L13.031223,14.7407959 L13.933662,14.7407959 Z" id="₹" fill="#787878"></path>
                            </g>
                        </g>
                    </g>
                </g>
            </g>
        </g>
    </g>
</svg>