<?xml version="1.0" encoding="UTF-8"?>
<svg width="16px" height="24px" viewBox="0 0 16 24" version="1.1" xmlns="http://www.w3.org/2000/svg" xmlns:xlink="http://www.w3.org/1999/xlink">
    <title>paperless</title>
    <g id="Final-Design" stroke="none" stroke-width="1" fill="none" fill-rule="evenodd">
        <g id="AB-test---Drop-off-SA" transform="translate(-164.000000, -332.000000)">
            <g id="Group-16" transform="translate(113.000000, 140.000000)">
                <g id="Group-10" transform="translate(32.000000, 176.000000)">
                    <g id="Group-6" transform="translate(0.000000, 1.000000)">
                        <g id="paperless" transform="translate(19.000000, 15.000000)">
                            <path d="M13,0 L3,0 C1.34314575,0 0,1.34314575 0,3 L0,21 C0,22.6568542 1.34314575,24 3,24 L13,24 C14.6568542,24 16,22.6568542 16,21 L16,3 C16,1.34314575 14.6568542,0 13,0 Z M3,2 L13,2 C13.5522847,2 14,2.44771525 14,3 L14,21 C14,21.5522847 13.5522847,22 13,22 L3,22 C2.44771525,22 2,21.5522847 2,21 L2,3 C2,2.44771525 2.44771525,2 3,2 Z" id="Rectangle" fill="#787878" fill-rule="nonzero"></path>
                            <line x1="7" y1="20.5" x2="9" y2="20.5" id="Line-5" stroke="#787878" stroke-width="2"></line>
                        </g>
                    </g>
                </g>
            </g>
        </g>
    </g>
</svg>