<svg width="24" height="24" viewBox="0 0 24 24" fill="none" xmlns="http://www.w3.org/2000/svg">
<path d="M18.6632 5.05713C20.2073 5.05713 21.3921 6.34056 21.4625 7.80877L21.4658 7.94692V9.54411L20.6236 10.427V10.5895L23.503 11.8813L23.982 14.8923L22.6276 15.1077L22.2645 12.8297L19.2528 11.4764V9.87627L20.0942 8.9945L20.0944 7.94692C20.0944 7.18003 19.513 6.49103 18.7661 6.43257L18.6632 6.42856C17.8938 6.42856 17.3106 7.03554 17.2614 7.78095L17.258 7.88341L17.2574 8.9945L18.0996 9.87627V11.4764L15.0872 12.8297L14.7248 15.1077L13.3704 14.8923L13.8494 11.8813L16.7281 10.5895V10.427L15.8866 9.54411V7.88341C15.8866 6.36322 17.0694 5.05713 18.6632 5.05713Z" fill="#FFCB05"/>
<path d="M9.90737 3C12.6275 3 14.7391 5.19001 14.8242 7.6922L14.8268 7.84898V10.6331L13.1432 12.299V13.2233L18.9627 15.6909L19.8667 21.0575L18.5143 21.2853L17.7347 16.6601L11.7723 14.1316V11.7261L13.4552 10.0615L13.4554 7.84898C13.4554 6.06783 11.9851 4.45614 10.0603 4.37466L9.90737 4.37143C7.94741 4.37143 6.48968 5.83788 6.41432 7.58662L6.41125 7.72901L6.41082 10.0615L8.09437 11.7261V14.1316L2.13127 16.6601L1.35238 21.2853L0 21.0575L0.903996 15.6909L6.72282 13.2233V12.299L5.03982 10.6331V7.72901C5.03982 5.17338 7.12384 3 9.90737 3Z" fill="#787878"/>
</svg>
