<?xml version="1.0" encoding="UTF-8"?>
<svg width="20px" height="25px" viewBox="0 0 20 25" version="1.1" xmlns="http://www.w3.org/2000/svg" xmlns:xlink="http://www.w3.org/1999/xlink">
    <title>icons /close copy 3</title>
    <g id="Page-1" stroke="none" stroke-width="1" fill="none" fill-rule="evenodd">
        <g id="Group" transform="translate(-2.000000, 0.000000)" stroke="#787878" stroke-width="2">
            <g id="icons-/close-copy-3">
                <path d="M12,23 C11.2073853,22.6657809 10.6140524,22.3755304 10.2200011,22.1292483 C9.2398841,21.5166752 8.25994003,20.8062158 7.34149539,20.0025767 C4.64575967,17.6438079 3,14.9694485 3,12 L3,4 C9.05553042,1.993365 12.1363756,1.0033175 12.2425356,1.0298575 L21,4 L21,12 C21,14.9694485 19.3542403,17.6438079 16.6585046,20.0025767 C15.74006,20.8062158 14.7601159,21.5166752 13.7799989,22.1292483 C13.3859476,22.3755304 12.7926147,22.6657809 12,23 Z" id="Path"></path>
                <polyline id="Path" points="17 8 10.3333333 14 7 11"></polyline>
            </g>
        </g>
    </g>
</svg>