<?xml version="1.0" encoding="UTF-8"?>
<svg width="26px" height="24px" viewBox="0 0 26 24" version="1.1" xmlns="http://www.w3.org/2000/svg" xmlns:xlink="http://www.w3.org/1999/xlink">
    <title>Free-and-unlimited-ATM-withdrawals</title>
    <g id="Final-Design" stroke="none" stroke-width="1" fill="none" fill-rule="evenodd">
        <g id="AB-test---Drop-off-SA" transform="translate(-159.000000, -216.000000)" fill="#787878" fill-rule="nonzero">
            <g id="Group-16" transform="translate(113.000000, 140.000000)">
                <g id="Group-9" transform="translate(32.000000, 60.000000)">
                    <g id="Group-3" transform="translate(0.000000, 1.000000)">
                        <g id="Free-and-unlimited-ATM-withdrawals" transform="translate(14.000000, 15.000000)">
                            <path d="M2.34476941,16.0416252 L10.7454747,20.9997581 L15.4574526,17.6553905 L16.6151018,19.2862946 L10.8457254,23.3815163 L1.32818002,17.7639916 L2.34476941,16.0416252 Z M2.34476941,12.8139279 L10.7444747,17.7717581 L15.5725869,14.3459686 L16.730236,15.9768727 L10.8457254,20.153819 L1.32818002,14.5362943 L2.34476941,12.8139279 Z M14.827224,0 L15.3856095,0.329574941 L25.6729494,6.4014541 L19.8571381,10.5296362 L18.6994889,8.89873204 L21.9994747,6.55575814 L14.9264747,2.38075814 L3.67247472,10.3697581 L10.7454747,14.5447581 L15.4915205,11.1758138 L16.6491697,12.806718 L10.8457254,16.9261216 L0,10.5246675 L14.827224,0 Z M23.2576501,12.1186504 L24.4152993,13.7495546 L20.4302836,16.5782004 L19.2726344,14.9472963 L23.2576501,12.1186504 Z M23.2576501,8.89095311 L24.4152993,10.5218573 L19.9203754,13.7124464 L18.7627262,12.0815422 L23.2576501,8.89095311 Z" id="Path-2"></path>
                            <path d="M20.6432236,8.62921513 L10.7717674,2.9590485 L4.96847938,6.72597795 L14.7834747,12.2847581 L15.0863464,21.0792892 L20.8652441,16.8136937 L20.6432236,8.62921513 Z M10.8354747,5.30075814 L18.6734747,9.80375814 L18.8374747,15.8237581 L16.9544747,17.2137581 L16.744111,11.0966277 L8.82047472,6.60875814 L10.8354747,5.30075814 Z" id="Line"></path>
                        </g>
                    </g>
                </g>
            </g>
        </g>
    </g>
</svg>