<?xml version="1.0" encoding="UTF-8"?>
<svg width="19px" height="24px" viewBox="0 0 19 24" version="1.1" xmlns="http://www.w3.org/2000/svg" xmlns:xlink="http://www.w3.org/1999/xlink">
    <title>icons /close copy</title>
    <g id="Page-1" stroke="none" stroke-width="1" fill="none" fill-rule="evenodd">
        <g id="NetBanking_desktop" transform="translate(-131.000000, -1075.000000)" fill="#737373" fill-rule="nonzero">
            <g id="Group-59" transform="translate(106.000000, 860.000000)">
                <g id="Group-18" transform="translate(0.000000, 84.000000)">
                    <g id="Group-38" transform="translate(0.000000, 109.000000)">
                        <g id="Group" transform="translate(22.000000, 22.000000)">
                            <g id="file" transform="translate(4.000000, 0.700000)">
                                <path d="M16.893052,4.559676 C16.891556,4.424332 16.839196,4.291716 16.739712,4.192188 L12.702052,0.154484 C12.701876,0.154308 12.701744,0.154264 12.701568,0.154132 C12.60622,0.058872 12.474484,0 12.329064,0 L1.112232,0 C0.499884,0 0.00176,0.49808 0.00176,1.110428 L0.00176,21.417528 C0.00176,22.029832 0.49984,22.527956 1.112188,22.527956 L15.783724,22.527956 C16.396028,22.527956 16.8941574,22.029876 16.8941574,21.417528 L16.8941574,4.565132 C16.8941574,4.563196 16.893228,4.561568 16.893052,4.559676 Z M12.856536,1.800964 L15.093232,4.03766 L12.912064,4.03766 C12.881484,4.03766 12.856536,4.012712 12.856536,3.982132 L12.856536,1.800964 Z M15.839296,21.417572 C15.839296,21.448152 15.814348,21.473056 15.783768,21.473056 L1.112232,21.473056 C1.081652,21.473056 1.056748,21.448152 1.056748,21.417572 L1.056748,1.110428 C1.056748,1.079848 1.081652,1.054944 1.112232,1.054944 L11.801592,1.054944 L11.801592,3.982132 C11.801592,4.594436 12.29976,5.092648 12.912108,5.092648 L15.839296,5.092648 L15.839296,21.417572 L15.839296,21.417572 Z" id="Shape" stroke="#737373" stroke-width="0.5"></path>
                                <path d="M13.115872,7.216616 L3.780128,7.216616 C3.488848,7.216616 3.252656,7.452764 3.252656,7.744088 C3.252656,8.035368 3.488848,8.27156 3.780128,8.27156 L13.115828,8.27156 C13.407108,8.27156 13.6433,8.035368 13.6433,7.744088 C13.6433,7.452764 13.407108,7.216616 13.115872,7.216616 Z" id="Path"></path>
                                <path d="M13.115872,10.399532 L3.780128,10.399532 C3.488848,10.399532 3.252656,10.635724 3.252656,10.927004 C3.252656,11.218284 3.488848,11.454476 3.780128,11.454476 L13.115828,11.454476 C13.407108,11.454476 13.6433,11.218284 13.6433,10.927004 C13.6433,10.635724 13.407108,10.399532 13.115872,10.399532 Z" id="Path"></path>
                                <path d="M13.115872,13.582404 L3.780128,13.582404 C3.488848,13.582404 3.252656,13.818596 3.252656,14.109876 C3.252656,14.4012 3.488848,14.637348 3.780128,14.637348 L13.115828,14.637348 C13.407108,14.637348 13.6433,14.4012 13.6433,14.109876 C13.6433,13.81864 13.407108,13.582404 13.115872,13.582404 Z" id="Path"></path>
                                <path d="M8.448,16.765364 L3.780128,16.765364 C3.488848,16.765364 3.252656,17.001556 3.252656,17.292836 C3.252656,17.58416 3.488848,17.820308 3.780128,17.820308 L8.448,17.820308 C8.73928,17.820308 8.975472,17.58416 8.975472,17.292836 C8.975472,17.001512 8.73928,16.765364 8.448,16.765364 Z" id="Path"></path>
                            </g>
                        </g>
                    </g>
                </g>
            </g>
        </g>
    </g>
</svg>