<?xml version="1.0" encoding="UTF-8"?>
<svg width="24px" height="22px" viewBox="0 0 24 22" version="1.1" xmlns="http://www.w3.org/2000/svg" xmlns:xlink="http://www.w3.org/1999/xlink">
    <title>icons /close</title>
    <g id="News-&amp;-Media" stroke="none" stroke-width="1" fill="none" fill-rule="evenodd">
        <g id="news&amp;media_desktop_01-copy-3" transform="translate(-991.000000, -1019.000000)" fill-rule="nonzero">
            <g id="Group-22" transform="translate(115.000000, 874.000000)">
                <g id="Group-41" transform="translate(853.000000, 121.000000)">
                    <g id="Group" transform="translate(23.000000, 23.000000)">
                        <g id="news" transform="translate(0.000000, 1.000000)">
                            <path d="M16.153216,6 L10.846784,6 C10.3790935,6 10,6.44763688 10,7 C10,7.55231383 10.3790517,8 10.846784,8 L16.153216,8 C16.6211987,8 17,7.55236312 17,7 C17,6.44763688 16.6209065,6 16.153216,6 Z" id="Path" fill="#FFCB05"></path>
                            <path d="M18.0624856,11 L9.93751444,11 C9.41971224,11 9,11.4476369 9,12 C9,12.5523138 9.41966604,13 9.93751444,13 L18.0624856,13 C18.5802878,13 19,12.5523631 19,12 C19,11.4476369 18.5802878,11 18.0624856,11 Z" id="Path" fill="#FFCB05"></path>
                            <path d="M23.0488594,0 L6.21398437,0 C5.68865625,0 5.26284375,0.418478511 5.26284375,0.934861551 L5.26284375,9.75354865 L3.5825625,9.75354865 C1.6070625,9.75354865 0,11.3334283 0,13.2747945 L0,18.4787542 C0,20.4204429 1.6070625,22 3.5825625,22 C3.74423437,22 3.90342187,21.9894033 4.05909375,21.9688548 L19.7516719,21.9688548 C22.0939687,21.9688548 24,20.0957224 24,17.7932382 L24,0.934861551 C24,0.418478511 23.5742344,0 23.0488594,0 Z M3.98729852,20.097327 L3.665,20.097327 L3.665,20.1302769 C2.74673487,20.1302769 2,19.3463034 2,18.3830065 L2,12.8775473 C2,11.9142504 2.74706001,11.1302769 3.665,11.1302769 L5.33,11.1302769 L5.33,18.3830552 C5.32995338,19.2306376 4.75159051,19.9394502 3.98729852,20.097327 Z M22.0977659,17.7931921 C22.0977659,19.0430989 21.0236252,20.0991317 19.7516721,20.0991317 L6.76279688,20.0991317 C7.01990625,19.6139399 7.16512501,19.0626798 7.16512501,18.4787542 L7.16512501,1.86967703 L22.0977659,1.86967703 L22.0977659,17.7931921 Z" id="Shape" fill="#787878"></path>
                            <path d="M16.153216,15 L10.846784,15 C10.3790935,15 10,15.4476369 10,16 C10,16.5523138 10.3790517,17 10.846784,17 L16.153216,17 C16.6211987,17 17,16.5523631 17,16 C17,15.4476369 16.6209065,15 16.153216,15 Z" id="Path" fill="#FFCB05"></path>
                        </g>
                    </g>
                </g>
            </g>
        </g>
    </g>
</svg>