<?xml version="1.0" encoding="UTF-8"?>
<svg width="27px" height="27px" viewBox="0 0 27 27" version="1.1" xmlns="http://www.w3.org/2000/svg" xmlns:xlink="http://www.w3.org/1999/xlink">
    <title>icons /close copy</title>
    <g id="News-&amp;-Media" stroke="none" stroke-width="1" fill="none" fill-rule="evenodd">
        <g id="news&amp;media_desktop_01-copy-3" transform="translate(-990.000000, -1108.000000)" fill-rule="nonzero">
            <g id="Group-22" transform="translate(115.000000, 874.000000)">
                <g id="Group-41" transform="translate(853.000000, 121.000000)">
                    <g id="Group-38" transform="translate(0.000000, 91.000000)">
                        <g id="meeting" transform="translate(22.000000, 22.000000)">
                            <path d="M3.01038603,14.625 L3.01206245,14.625 C3.43213306,14.625 3.77310706,14.3166872 3.77407227,13.9356026 C3.77945714,11.6669194 4.75706493,9.53387737 6.52680733,7.92935183 C6.82439756,7.65958962 6.82439756,7.22212992 6.52680733,6.95232166 C6.22926789,6.68255945 5.74676328,6.68255945 5.44917304,6.95232166 C3.39240695,8.81698326 2.25625032,11.2960137 2.25,13.9326549 C2.24908743,14.3142 2.58955341,14.624171 3.01038603,14.625 L3.01038603,14.625 Z" id="Path" fill="#787878"></path>
                            <path d="M23.2259107,13.9356026 C23.2268251,14.3166411 23.5677521,14.625 23.9879291,14.625 L23.9896055,14.625 C24.4104429,14.624171 24.750862,14.3142 24.75,13.9326549 C24.7437498,11.2960137 23.6075803,8.81702932 21.5508417,6.95232166 C21.2532989,6.68255945 20.7707888,6.68255945 20.4731952,6.95232166 C20.1756016,7.22208387 20.1756016,7.65954356 20.4731952,7.92935183 C22.2429069,9.53387737 23.2205257,11.6669194 23.2259107,13.9356026 L23.2259107,13.9356026 Z" id="Path" fill="#787878"></path>
                            <path d="M15.7711213,24.7701457 C14.2640559,25.0998631 12.7358827,25.0998631 11.2288787,24.7701457 C10.7306347,24.6607905 10.2447854,25.0076215 10.1436026,25.5440235 C10.0424198,26.0804915 10.3641308,26.6036784 10.8623134,26.7127032 C11.7374312,26.9041903 12.6187463,27 13.5,27 C14.3812537,27 15.2625688,26.9042564 16.1376866,26.7127032 C16.6358692,26.6037444 16.9575802,26.0805576 16.8563974,25.5440235 C16.7551532,25.0076215 16.2691199,24.6609887 15.7711213,24.7701457 Z" id="Path" fill="#787878"></path>
                            <path d="M16.8409661,8.470513 L16.4215774,6.48504334 C16.2318615,5.58689783 15.7053343,4.87478684 15.0242623,4.51651982 C15.2746584,4.05908057 15.4207153,3.51493889 15.4207153,2.93093648 C15.4207153,1.3148181 14.306755,0 12.9375226,0 C11.5682901,0 10.4543299,1.3148181 10.4543299,2.93093648 C10.4543299,3.51493889 10.6003416,4.05908057 10.8507377,4.51657311 C10.1696657,4.87478684 9.64318368,5.58689783 9.45346775,6.48504334 L9.03403393,8.470513 C8.94937963,8.87119866 9.02437205,9.2876048 9.23977773,9.61299204 C9.45518341,9.93837928 9.77935293,10.125 10.1292122,10.125 L15.7457878,10.125 C16.0956471,10.125 16.4198166,9.93837928 16.6352223,9.61299204 C16.8506279,9.2876048 16.9256204,8.87119866 16.8409661,8.470513 Z M12.9375226,1.59869262 C13.559901,1.59869262 14.0662465,2.19633722 14.0662465,2.93093648 C14.0662465,3.66553574 13.559901,4.26318033 12.9375226,4.26318033 C12.3151442,4.26318033 11.8087986,3.66553574 11.8087986,2.93093648 C11.8087986,2.19633722 12.3151442,1.59869262 12.9375226,1.59869262 Z M10.4181655,8.52636067 L10.7676636,6.87182038 C10.8933132,6.27716001 11.343674,5.86187296 11.8628871,5.86187296 L14.0121581,5.86187296 C14.5313711,5.86187296 14.9817771,6.27716001 15.1073815,6.87182038 L15.4568796,8.52636067 L10.4181655,8.52636067 Z" id="Shape" fill="#787878"></path>
                            <path d="M7.42153485,23.3600092 C7.23182001,22.4618684 6.70529588,21.7497612 6.02427289,21.3915493 C6.27466758,20.9340592 6.42067848,20.3899204 6.42067848,19.8059211 C6.42067848,18.1898112 5.30672461,16.875 3.9375,16.875 C2.56827539,16.875 1.45432152,18.1898112 1.45432152,19.8059211 C1.45432152,20.3899204 1.60033242,20.9340592 1.85072711,21.3915493 C1.16965897,21.7497612 0.643179988,22.4619217 0.453465153,23.3600625 L0.034033734,25.3455217 C-0.0506200777,25.7462053 0.0243719123,26.1626092 0.239776358,26.4879947 C0.455135655,26.8133803 0.779348466,27 1.12920574,27 L6.74574911,27 C7.09560639,27 7.4198192,26.8133803 7.63522364,26.4879947 C7.85062809,26.1626092 7.92562008,25.746152 7.84096627,25.3455217 L7.42153485,23.3600092 Z M3.9375,18.4736842 C4.55987482,18.4736842 5.06621749,19.0713257 5.06621749,19.8059211 C5.06621749,20.5405164 4.55987482,21.1381579 3.9375,21.1381579 C3.31512518,21.1381579 2.80878251,20.5405164 2.80878251,19.8059211 C2.80878251,19.0713257 3.31512518,18.4736842 3.9375,18.4736842 Z M1.41815742,25.4013158 L1.76769865,23.7467842 C1.89325718,23.152127 2.34366061,22.7368421 2.86287065,22.7368421 L5.01212935,22.7368421 C5.53133939,22.7368421 5.98174282,23.152127 6.1073465,23.7467842 L6.45684258,25.4013158 L1.41815742,25.4013158 Z" id="Shape" fill="#787878"></path>
                            <path d="M26.9659654,25.3455663 L26.546534,23.3600966 C26.3568192,22.4619511 25.8302951,21.7498401 25.1492722,21.3915731 C25.3996669,20.9340806 25.5456778,20.3899389 25.5456778,19.8059365 C25.5456778,18.1898181 24.431724,16.875 23.0624996,16.875 C21.6932751,16.875 20.5793214,18.1898181 20.5793214,19.8059365 C20.5793214,20.3899389 20.7253322,20.9340806 20.9757269,21.3915731 C20.2946588,21.7497868 19.7681799,22.4618978 19.5784651,23.3600433 L19.1590337,25.345513 C19.0743799,25.7461987 19.1493719,26.1626048 19.3647763,26.487992 C19.5801808,26.8133793 19.9043935,27 20.2542508,27 L25.8707935,27 C26.2206507,27 26.5448635,26.8133793 26.7602679,26.487992 C26.9756272,26.1626581 27.0506192,25.746252 26.9659654,25.3455663 L26.9659654,25.3455663 Z M23.0624996,18.4737459 C23.6848743,18.4737459 24.1912169,19.0713905 24.1912169,19.8059898 C24.1912169,20.540589 23.6848743,21.1382336 23.0624996,21.1382336 C22.4401248,21.1382336 21.9337822,20.540589 21.9337822,19.8059898 C21.9337822,19.0713905 22.4401248,18.4737459 23.0624996,18.4737459 Z M20.5431573,25.401414 L20.8926533,23.7468737 C21.0183021,23.1522133 21.4686603,22.7369262 21.9878703,22.7369262 L24.1371288,22.7369262 C24.6563388,22.7369262 25.106697,23.1522133 25.2323007,23.7468737 L25.5818419,25.401414 L20.5431573,25.401414 Z" id="Shape" fill="#787878"></path>
                            <path d="M15.5454734,12.6624347 L12.2977638,16.7553098 L11.4545785,15.6926987 C11.1504627,15.3094416 10.6572935,15.3094416 10.3531258,15.6926987 C10.0489581,16.0759559 10.0489581,16.6974646 10.3531258,17.0807872 L11.7470634,18.8374753 C11.8991473,19.0291366 12.0984815,19.125 12.2977638,19.125 C12.4970461,19.125 12.6964323,19.0291366 12.8484642,18.8374753 L16.6468742,14.0505886 C16.9510419,13.6673315 16.9510419,13.0458227 16.6468742,12.6625001 C16.3427584,12.2791775 15.8495892,12.2791775 15.5454734,12.6624347 L15.5454734,12.6624347 Z" id="Path" fill="#FFCB05"></path>
                        </g>
                    </g>
                </g>
            </g>
        </g>
    </g>
</svg>