<?xml version="1.0" encoding="UTF-8"?>
<svg width="27px" height="31px" viewBox="0 0 27 31" version="1.1" xmlns="http://www.w3.org/2000/svg" xmlns:xlink="http://www.w3.org/1999/xlink">
    <title>Group 9</title>
    <defs>
        <filter x="-4.1%" y="-5.5%" width="108.3%" height="110.9%" filterUnits="objectBoundingBox" id="filter-1">
            <feOffset dx="0" dy="2" in="SourceAlpha" result="shadowOffsetOuter1"></feOffset>
            <feGaussianBlur stdDeviation="2" in="shadowOffsetOuter1" result="shadowBlurOuter1"></feGaussianBlur>
            <feColorMatrix values="0 0 0 0 0   0 0 0 0 0   0 0 0 0 0  0 0 0 0.5 0" type="matrix" in="shadowBlurOuter1" result="shadowMatrixOuter1"></feColorMatrix>
            <feMerge>
                <feMergeNode in="shadowMatrixOuter1"></feMergeNode>
                <feMergeNode in="SourceGraphic"></feMergeNode>
            </feMerge>
        </filter>
    </defs>
    <g id="Final" stroke="none" stroke-width="1" fill="none" fill-rule="evenodd">
        <g id="CSR-Page03" transform="translate(-1282.000000, -222.000000)" fill="#FFFFFF" fill-rule="nonzero">
            <g id="Group-18" filter="url(#filter-1)" transform="translate(1081.000000, 201.000000)">
                <g id="Group-14" transform="translate(158.000000, 23.000000)">
                    <g id="Group-9" transform="translate(47.000000, 0.000000)">
                        <g id="Group-23">
                            <path d="M17.9667179,14.9310127 L17.5250477,14.9310127 C16.7772837,14.9316248 16.0420704,15.1232757 15.3891826,15.4878149 L12.1636911,17.2913881 L11.2437181,17.2913881 C11.0226006,16.0830185 9.97021971,15.2048323 8.74178634,15.2035871 L2.93226445,15.2035871 C2.79830982,15.2036608 2.67117229,15.2626686 2.58464402,15.3649266 L0.824458395,17.4511688 L0.0479094818,17.4511688 L0,23.0406636 C0.0803889736,23.0406636 0.392360696,23.0241997 0.935915168,22.9912719 L10.2078716,22.5657097 C10.2169648,22.5657097 10.2257982,22.5657097 10.2338522,22.5636312 C11.6920285,22.4081124 13.0558207,21.7677055 14.1067802,20.7449892 L18.5642717,16.3986947 C18.8138107,16.1563556 18.8911281,15.7867331 18.7596458,15.4646922 C18.6292974,15.1414273 18.3152719,14.9300878 17.9667179,14.9310127 Z M13.4728535,20.0952144 C12.5715114,20.9719478 11.4028356,21.5220366 10.1527927,21.6579475 L0.936954391,22.0811715 L0.936954391,18.7296741 L3.14530536,16.1131679 L8.74178634,16.1131679 C9.50927264,16.1148321 10.1725352,16.6495471 10.3369952,17.3992076 L5.72985542,18.5301431 C5.50688747,18.5851803 5.35997269,18.7978545 5.38740859,19.02587 C5.41484449,19.2538855 5.60801545,19.4256391 5.83767491,19.426214 C5.87436626,19.4262623 5.91092517,19.4218124 5.94653362,19.4129639 L10.8844064,18.2007091 L12.2821627,18.2007091 C12.3598347,18.2007623 12.4362238,18.1809047 12.504037,18.1430322 L15.833191,16.2815222 C16.3503329,15.9924001 16.9328321,15.8403583 17.5253075,15.839852 L17.8370747,15.839852 L13.4728535,20.0952144 Z" id="Shape"></path>
                            <path d="M9.87843758,13.4766567 C13.5999136,13.4766567 16.6167659,10.4598043 16.6167659,6.73832833 C16.6167659,3.01685236 13.5999136,0 9.87843758,0 C6.1569616,0 3.14010924,3.01685236 3.14010924,6.73832833 C3.14440434,10.4580238 6.15874214,13.4723616 9.87843758,13.4766567 L9.87843758,13.4766567 Z M9.87843758,0.909320989 C13.0977094,0.909320989 15.7074449,3.51905647 15.7074449,6.73832833 C15.7074449,9.95760019 13.0977094,12.5673357 9.87843758,12.5673357 C6.65916571,12.5673357 4.04943023,9.95760019 4.04943023,6.73832833 C4.05315264,3.5205996 6.66070885,0.913043393 9.87843758,0.909320989 Z" id="Shape"></path>
                        </g>
                        <path d="M12.0516289,9.8565479 L10.2186164,7.5353031 C10.0216104,7.28690421 9.88456272,7.13272559 9.81603888,7.07276723 C10.2700093,6.97854697 10.6383249,6.79867191 10.9124202,6.52457658 C11.1179917,6.31043961 11.2379084,6.05347524 11.2893013,5.745118 L12.2058075,5.745118 L12.3856826,5.2140583 L11.3064322,5.2140583 C11.2636048,4.83717723 11.1351226,4.52881998 10.9295511,4.27185562 L12.2058075,4.27185562 L12.3771171,3.74079592 L8.35134198,3.74079592 L8.17146692,4.27185562 L9.06227674,4.27185562 C9.49055068,4.27185562 9.81603888,4.36607588 10.0387413,4.5630819 C10.2186164,4.71726052 10.3299676,4.9313975 10.372795,5.2140583 L8.35990746,5.2140583 L8.18859788,5.745118 L10.3556641,5.745118 C10.3042712,5.96782045 10.1843545,6.15626099 9.99591394,6.29330865 C9.72181862,6.48174919 9.31067563,6.58453493 8.77105045,6.58453493 L8.24855623,6.58453493 L8.24855623,7.2098149 C8.45412773,7.2098149 8.64256827,7.26977325 8.81387785,7.38112448 C8.95949099,7.48391022 9.10510413,7.62952337 9.25071727,7.82652938 L10.783938,9.8565479 L12.0516289,9.8565479 Z" id="₹"></path>
                    </g>
                </g>
            </g>
        </g>
    </g>
</svg>