<?xml version="1.0" encoding="UTF-8"?>
<svg width="30px" height="38px" viewBox="0 0 30 38" version="1.1" xmlns="http://www.w3.org/2000/svg" xmlns:xlink="http://www.w3.org/1999/xlink">
    <title>noun_Teacher_3257158</title>
    <defs>
        <filter x="-4.1%" y="-5.5%" width="108.3%" height="110.9%" filterUnits="objectBoundingBox" id="filter-1">
            <feOffset dx="0" dy="2" in="SourceAlpha" result="shadowOffsetOuter1"></feOffset>
            <feGaussianBlur stdDeviation="2" in="shadowOffsetOuter1" result="shadowBlurOuter1"></feGaussianBlur>
            <feColorMatrix values="0 0 0 0 0   0 0 0 0 0   0 0 0 0 0  0 0 0 0.5 0" type="matrix" in="shadowBlurOuter1" result="shadowMatrixOuter1"></feColorMatrix>
            <feMerge>
                <feMergeNode in="shadowMatrixOuter1"></feMergeNode>
                <feMergeNode in="SourceGraphic"></feMergeNode>
            </feMerge>
        </filter>
    </defs>
    <g id="Final" stroke="none" stroke-width="1" fill="none" fill-rule="evenodd">
        <g id="CSR-Page03" transform="translate(-1281.000000, -323.000000)" fill="#FFFFFF" fill-rule="nonzero">
            <g id="Group-18" filter="url(#filter-1)" transform="translate(1081.000000, 201.000000)">
                <g id="Group-16" transform="translate(170.000000, 124.000000)">
                    <g id="noun_Teacher_3257158" transform="translate(34.000000, 0.000000)">
                        <path d="M10.862069,28.9655172 L4.13793103,28.9655172 L4.13793103,22.7586207 C4.13793103,22.4729562 3.90635418,22.2413793 3.62068966,22.2413793 C3.33502513,22.2413793 3.10344828,22.4729562 3.10344828,22.7586207 L3.10344828,28.9655172 L1.03448276,28.9655172 L1.03448276,20.4310345 C1.03448276,19.7798125 1.34109136,19.1665953 1.86206897,18.7758621 L4.77931034,16.587931 L5.18793103,18.2275862 C5.24628389,18.4640603 5.46170836,18.6277829 5.70517241,18.6206897 L7.25689655,18.6206897 L7.25689655,23.2758621 C7.25689655,23.5615266 7.48847341,23.7931034 7.77413793,23.7931034 C8.05980246,23.7931034 8.29137931,23.5615266 8.29137931,23.2758621 L8.29137931,18.6206897 L9.4137931,18.6206897 C9.69945763,18.6206897 9.93103448,18.3891128 9.93103448,18.1034483 C9.93103448,17.8177838 9.69945763,17.5862069 9.4137931,17.5862069 L6.09310345,17.5862069 L5.83448276,16.5517241 L10.3448276,16.5517241 C10.6304921,16.5517241 10.862069,16.3201473 10.862069,16.0344828 C10.862069,15.7488182 10.6304921,15.5172414 10.3448276,15.5172414 L4.65517241,15.5172414 C4.54325679,15.5172414 4.43436009,15.5535403 4.34482759,15.6206897 L3.92068966,15.9362069 C2.36799803,13.8799486 1.5354857,11.3696876 1.55172414,8.79310345 C1.55172414,4.29827586 4.1637931,1.03448276 7.75862069,1.03448276 C11.3534483,1.03448276 13.9655172,4.29827586 13.9655172,8.79310345 C13.9550827,10.2378519 13.692521,11.6696886 13.1896552,13.0241379 C13.1249778,13.1978429 13.1578839,13.392858 13.2759781,13.5357227 C13.3940724,13.6785875 13.5794134,13.7475975 13.7621851,13.7167572 C13.9449567,13.685917 14.0973916,13.5599119 14.162069,13.3862069 C14.7053064,11.9152626 14.9888334,10.3611147 15,8.79310345 C15,3.69827586 11.9534483,0 7.75862069,0 C3.5637931,0 0.517241379,3.69827586 0.517241379,8.79310345 C0.509713496,11.5922106 1.41796171,14.3169552 3.10344828,16.5517241 L1.24137931,17.9482759 C0.459912902,18.5343757 0,19.4542015 0,20.4310345 L0,29.4827586 C0,29.7684231 0.231576854,30 0.517241379,30 L10.862069,30 C11.1477335,30 11.3793103,29.7684231 11.3793103,29.4827586 C11.3793103,29.1970941 11.1477335,28.9655172 10.862069,28.9655172 Z" id="Path"></path>
                        <path d="M8.00103298,15 C9.2257799,15 13,12.5608816 13,9.58387902 L13,7.81045887 C12.9996666,7.66018242 12.9397522,7.51705059 12.8350341,7.4163655 C12.7309112,7.31424228 12.5910343,7.26392515 12.4501136,7.27790027 C10.6955771,7.49534936 8.94547157,6.83453067 7.71109289,5.48850336 C7.58474326,5.3413775 7.39182818,5.28177681 7.21119619,5.33406137 C7.02697574,5.3902414 6.88911043,5.55366354 6.85626953,5.75478267 C6.76625529,6.31093069 6.77643439,6.88024948 6.88626333,7.43234226 C5.86289931,6.96485354 4.98309906,6.20100397 4.34678808,5.22754965 C4.24098122,5.06621937 4.06028176,4.98020611 3.87688518,5.00387504 C3.69540698,5.02681303 3.54014143,5.15342329 3.47196885,5.33406137 C3.10062756,6.35030085 2.94526863,7.44157337 3.01706285,8.52941298 C3.01706285,8.84894814 3.01706285,9.17913448 3.01706285,9.56790226 C3.00206595,12.5608816 6.77628606,15 8.00103298,15 Z M4.1168356,6.63882995 C5.03723321,7.69161474 6.22815879,8.43248332 7.54112801,8.76906435 C7.72652966,8.81502687 7.92034387,8.74482452 8.04102471,8.58799443 C8.16104988,8.43007082 8.18625991,8.2131474 8.10601128,8.0288079 C7.96537922,7.70578151 7.86778967,7.36341139 7.8160712,7.01162097 C9.03306943,7.93718468 10.5004969,8.41403017 11.9952076,8.3696454 L11.9952076,9.57855343 C11.9952076,11.964416 8.59591005,13.9295572 7.99603401,13.9295572 C7.39615797,13.9295572 3.99686039,11.964416 3.99686039,9.59453019 C3.99686039,9.20576241 3.99686039,8.85427373 3.99686039,8.52941298 C3.96435161,7.89636455 4.00464247,7.26145654 4.1168356,6.63882995 Z" id="Shape"></path>
                        <path d="M18.4975189,25 C18.272105,24.9974987 18.0757954,24.8329936 18.0172746,24.5975481 C17.9587539,24.3621025 18.0523384,24.1133155 18.2462162,23.9889251 C20.8778284,22.3332863 21.7765834,18.6881792 20.2566376,15.8352001 C20.1575945,15.6666958 20.151941,15.4530285 20.2419123,15.2786743 C20.3318836,15.10432 20.5029953,14.9973477 20.6875965,15 C20.8721977,15.0027524 21.0405698,15.1146944 21.1261448,15.2916185 C22.9231423,18.6640393 21.8602257,22.9731189 18.7488216,24.9293214 C18.6722231,24.9762762 18.5855635,25.0006447 18.4975189,25 Z" id="Path"></path>
                        <path d="M15.5,24 C13.0147186,24 11,21.9852814 11,19.5 C11,17.0147186 13.0147186,15 15.5,15 C17.9852814,15 20,17.0147186 20,19.5 C20,21.9852814 17.9852814,24 15.5,24 Z M15.5,16 C13.5670034,16 12,17.5670034 12,19.5 C12,21.4329966 13.5670034,23 15.5,23 C17.4329966,23 19,21.4329966 19,19.5 C19,17.5670034 17.4329966,16 15.5,16 Z" id="Shape"></path>
                        <path d="M18.9267001,24.4358238 C18.8539906,24.320762 18.7345079,24.2370751 18.5946404,24.203246 C18.454773,24.1694168 18.3060281,24.1882285 18.1812568,24.2555265 C15.3254566,25.7700912 11.6767451,24.8745181 10.019469,22.2522227 C9.86921468,22.011582 9.53546835,21.9286178 9.27402575,22.0669171 C9.01258316,22.2052164 8.92244729,22.5124079 9.07270165,22.7530486 C10.0149528,24.240532 11.5615897,25.3217302 13.3712432,25.7580043 C13.7874217,25.8703608 14.2134462,25.9491215 14.6444821,25.9933925 L14.6444821,26.9950444 L13.8283034,26.9950444 C12.7765228,26.9950444 11.9238862,27.7798403 11.9238862,28.7479351 L11.9238862,29.4991741 C11.9238862,29.7757726 12.1674967,30 12.4680054,30 L17.9091973,30 C18.209706,30 18.4533164,29.7757726 18.4533164,29.4991741 L18.4533164,28.7479351 C18.4533164,27.7798403 17.6006798,26.9950444 16.5488993,26.9950444 L15.7327205,26.9950444 L15.7327205,25.9633429 C16.7863142,25.8935544 17.8092428,25.6059572 18.725376,25.1219553 C18.8513068,25.0558707 18.9433826,24.9462661 18.9811782,24.817455 C19.0189739,24.6886439 18.9993645,24.5512761 18.9267001,24.4358238 Z M17.3650781,28.7479351 L17.3650781,28.9983481 L13.0121246,28.9983481 L13.0121246,28.7479351 C13.0121246,28.3330374 13.3775403,27.9966962 13.8283034,27.9966962 L16.5488993,27.9966962 C16.9996624,27.9966962 17.3650781,28.3330374 17.3650781,28.7479351 Z" id="Shape"></path>
                    </g>
                </g>
            </g>
        </g>
    </g>
</svg>