<?xml version="1.0" encoding="UTF-8"?>
<svg width="28px" height="24px" viewBox="0 0 28 24" version="1.1" xmlns="http://www.w3.org/2000/svg" xmlns:xlink="http://www.w3.org/1999/xlink">
    <title>icons / chart</title>
    <g id="Page-1" stroke="none" stroke-width="1" fill="none" fill-rule="evenodd">
        <g id="Insurance-Calculator-Screen-1" transform="translate(-158.000000, -708.000000)" fill="#787878">
            <g id="Group-6" transform="translate(0.000000, 107.000000)">
                <g id="Group-7" transform="translate(111.000000, 76.735808)">
                    <g id="Group" transform="translate(47.000000, 524.264192)">
                        <g id="Group-23" transform="translate(0.000000, 0.000000)">
                            <path d="M17.8213328,3.97657786 L17.7975984,3.97269505 C17.4994422,3.92451536 17.2188406,4.1277888 17.1709891,4.42605443 C17.1232469,4.72421068 17.3261922,5.00475755 17.6244031,5.05260911 L17.6435437,5.0557263 C17.6736766,5.06070286 17.7036453,5.06310911 17.7331766,5.06310911 C17.9960047,5.06310911 18.2279344,4.87296068 18.2720125,4.6051013 C18.3211766,4.30710911 18.119325,4.02568724 17.8213328,3.97657786" id="Fill-1"></path>
                            <path d="M5.27303437,2.66954661 C6.20037031,2.81523411 6.93471406,3.54881224 7.08253437,4.47538255 C6.43935469,4.73224974 5.83215937,5.06431224 5.27303437,5.46243724 L5.27303437,2.66954661 Z M27.4420344,10.8984841 C26.8052531,10.2617029 25.7691984,10.2617029 25.1324172,10.8984841 C24.9188625,11.1120388 24.9188625,11.4583201 25.1324172,11.6719294 C25.3459172,11.8854841 25.6921984,11.8854841 25.9058625,11.6719294 C26.1161359,11.4615466 26.458425,11.4616013 26.6687531,11.6719294 C26.9850109,11.9881326 26.9850109,12.5026326 26.6687531,12.8188904 C26.4514797,13.0362185 26.1625656,13.1558747 25.8552219,13.1558747 C25.5479328,13.1558747 25.2590187,13.0362185 25.0417453,12.8188904 C25.0414172,12.8186169 25.0410344,12.8182341 25.0405969,12.817906 C25.044425,12.7127966 25.0469406,12.6075232 25.0469406,12.5018122 C25.0469406,9.11583568 23.0533625,6.02489818 19.9681672,4.62730443 C19.6930891,4.5027263 19.3689562,4.62467943 19.2444328,4.89975755 C19.1198,5.17489036 19.2418078,5.49896849 19.5168312,5.62354661 C22.2118312,6.84433568 23.9531906,9.54420286 23.9531906,12.5017576 C23.9531906,15.0804372 22.6567687,17.4544763 20.4852922,18.8522888 C20.3289406,18.9529685 20.2344406,19.1261638 20.2344406,19.312156 L20.2344406,21.9114529 C20.2344406,22.0924138 20.0872766,22.2395779 19.9063156,22.2395779 L17.2813156,22.2395779 C17.1003547,22.2395779 16.9531906,22.0924138 16.9531906,21.9114529 L16.9531906,20.8342185 C16.9531906,20.4010388 16.6007844,20.0486872 16.1676047,20.0486872 L10.5199719,20.0486872 C10.0867922,20.0486872 9.73438594,20.4010388 9.73438594,20.8342185 L9.73438594,21.9114529 C9.73438594,22.0924138 9.58722187,22.2395779 9.40626094,22.2395779 L6.78126094,22.2395779 C6.6003,22.2395779 6.45313594,22.0924138 6.45313594,21.9114529 L6.45313594,19.312156 C6.45313594,19.1262185 6.35863594,18.9529685 6.20228437,18.8523982 C4.63751094,17.8450544 3.5032375,16.3068591 3.00847969,14.5211482 C2.93547187,14.2575544 2.67893281,14.0882966 2.40779219,14.1252654 C2.38022969,14.1289841 2.35337812,14.134781 2.32734687,14.1423826 L1.80300312,14.1423826 C1.41193281,14.1423826 1.09376094,13.8242107 1.09376094,13.4331404 L1.09376094,11.5703201 C1.09376094,11.1792497 1.41193281,10.8610779 1.80300312,10.8610779 L2.33429219,10.8610779 C2.35813594,10.8677497 2.38263594,10.872781 2.4077375,10.8762263 C2.67887812,10.9133591 2.9353625,10.7440466 3.008425,10.4804529 C3.85881562,7.41357786 6.56218281,5.20081224 9.73547969,4.97424193 C10.0367531,4.95274974 10.2635422,4.69107005 10.24205,4.38979661 C10.2205578,4.08852318 9.95855,3.86228099 9.65760469,3.8832263 C9.13594062,3.92046849 8.62570625,4.00550755 8.13089375,4.13271068 C7.81452656,2.65828099 6.50164375,1.54938255 4.93413594,1.54938255 L4.72615937,1.54938255 C4.42412031,1.54938255 4.17928437,1.79421849 4.17928437,2.09625755 L4.17928437,6.38649193 C3.24325312,7.31940599 2.51519844,8.46915599 2.08283906,9.76743724 L1.80300312,9.76743724 C0.808839062,9.76743724 1.09375e-05,10.5762654 1.09375e-05,11.5704294 L1.09375e-05,13.4332497 C1.09375e-05,14.4274138 0.808839062,15.2362966 1.80300312,15.2362966 L2.08338594,15.2362966 C2.67264375,17.005656 3.81955,18.5361951 5.35938594,19.6044607 L5.35938594,21.9114529 C5.35938594,22.6954529 5.99726094,23.3333279 6.78126094,23.3333279 L9.40626094,23.3333279 C10.1902609,23.3333279 10.8281359,22.6954529 10.8281359,21.9114529 L10.8281359,21.1424372 L15.8593859,21.1424372 L15.8593859,21.9114529 C15.8593859,22.6954529 16.4972609,23.3333279 17.2812609,23.3333279 L19.9062609,23.3333279 C20.6902609,23.3333279 21.3281359,22.6954529 21.3281359,21.9114529 L21.3281359,19.6043513 C23.2348703,18.2826091 24.5073391,16.2836716 24.9097297,14.0417029 C25.2020891,14.177656 25.52305,14.2495701 25.8551672,14.2495701 C26.4546516,14.2495701 27.0181516,14.0161091 27.4420891,13.5922263 C28.1848,12.8495701 28.1848,11.6411951 27.4420344,10.8984841 L27.4420344,10.8984841 Z" id="Fill-3"></path>
                            <path d="M6.57835391,8.95380755 C6.47663516,8.85154193 6.33554141,8.79357318 6.19171328,8.79357318 C6.04733828,8.79357318 5.90679141,8.85154193 5.80507266,8.95380755 C5.70335391,9.0555263 5.64483828,9.19607318 5.64483828,9.34044818 C5.64483828,9.4842763 5.70335391,9.62537005 5.80507266,9.7270888 C5.90679141,9.82880755 6.04788516,9.88732318 6.19171328,9.88732318 C6.33554141,9.88732318 6.47663516,9.82880755 6.57835391,9.7270888 C6.68007266,9.62482318 6.73858828,9.4842763 6.73858828,9.34044818 C6.73858828,9.19662005 6.68007266,9.0555263 6.57835391,8.95380755" id="Fill-5"></path>
                            <path d="M16.640318,6.98177083 L10.4300055,6.98177083 C10.1279664,6.98177083 9.88313047,7.22660677 9.88313047,7.52864583 C9.88313047,7.8306849 10.1279664,8.07552083 10.4300055,8.07552083 L16.640318,8.07552083 C16.9423023,8.07552083 17.187193,7.8306849 17.187193,7.52864583 C17.187193,7.22660677 16.9423023,6.98177083 16.640318,6.98177083" id="Fill-7"></path>
                            <path d="M13.5351453,4.77200208 C12.5400516,4.77200208 11.7304578,3.96240833 11.7304578,2.96731458 C11.7304578,1.97222083 12.5400516,1.16262708 13.5351453,1.16262708 C14.5302391,1.16262708 15.3398328,1.97222083 15.3398328,2.96731458 C15.3398328,3.96240833 14.5302391,4.77200208 13.5351453,4.77200208 M13.5351453,0.0688770833 C11.9369578,0.0688770833 10.6367078,1.36912708 10.6367078,2.96731458 C10.6367078,4.56550208 11.9369578,5.86575208 13.5351453,5.86575208 C15.1333875,5.86575208 16.4335828,4.56550208 16.4335828,2.96731458 C16.4335828,1.36912708 15.1333875,0.0688770833 13.5351453,0.0688770833" id="Fill-9"></path>
                            <path d="M9.50322734,12.1620771 L7.60032109,12.1620771 C7.29828203,12.1620771 7.05344609,12.4069677 7.05344609,12.7089521 C7.05344609,13.0109911 7.29828203,13.2558271 7.60032109,13.2558271 L8.00489922,13.2558271 L8.00489922,16.2064911 C8.00489922,16.5085849 8.24973516,16.7533661 8.55177422,16.7533661 C8.85381328,16.7533661 9.09864922,16.5085849 9.09864922,16.2064911 L9.09864922,13.2558271 L9.50322734,13.2558271 C9.80526641,13.2558271 10.0501023,13.0109911 10.0501023,12.7089521 C10.0501023,12.4069677 9.80526641,12.1620771 9.50322734,12.1620771" id="Fill-17"></path>
                            <path d="M12.3013406,15.122574 L12.7035125,14.1573396 L13.1056844,15.122574 L12.3013406,15.122574 Z M14.6548172,15.9964255 L13.2082781,12.5251911 C13.1234031,12.3213161 12.9242859,12.1886443 12.7035125,12.1886443 C12.4827391,12.1886443 12.2836219,12.3213161 12.1987469,12.5251911 L10.7522625,15.9964255 C10.6361063,16.2752224 10.7679578,16.5954724 11.0467547,16.7116286 C11.3254969,16.8278943 11.6457469,16.695988 11.7619031,16.4171911 L11.845575,16.2163786 L13.56145,16.2163786 L13.6451219,16.4171911 C13.7326766,16.6272458 13.93595,16.7538856 14.1501609,16.7538856 C14.2202703,16.7538856 14.2915281,16.7402849 14.3602703,16.7116286 C14.6391219,16.5954724 14.7709734,16.2752224 14.6548172,15.9964255 L14.6548172,15.9964255 Z" id="Fill-19"></path>
                            <path d="M18.3263883,14.4584708 L19.2705133,13.0066271 C19.4351227,12.753424 19.3633727,12.4146896 19.1101695,12.2500255 C18.8569117,12.0853068 18.5181773,12.1571661 18.353568,12.4103693 L17.6740211,13.455338 L16.9944742,12.4103693 C16.8298102,12.1571661 16.4910211,12.0853615 16.2378727,12.2500255 C15.9846695,12.4146896 15.9129195,12.753424 16.0775289,13.0066271 L17.0216539,14.4584708 L16.0775289,15.9103146 C15.9128648,16.1635177 15.9846695,16.5022521 16.2378727,16.6669161 C16.3299664,16.7268536 16.4333258,16.7554005 16.535482,16.7554005 C16.7143102,16.7554005 16.889693,16.6677365 16.9944742,16.5066271 L17.6740211,15.4616583 L18.353568,16.5066271 C18.4584039,16.6677911 18.6336773,16.7554005 18.8125602,16.7554005 C18.9147711,16.7554005 19.0180758,16.7268536 19.1101695,16.6669161 C19.3633727,16.5022521 19.435068,16.1635177 19.2705133,15.9103146 L18.3263883,14.4584708 Z" id="Fill-21"></path>
                        </g>
                    </g>
                </g>
            </g>
        </g>
    </g>
</svg>