<?xml version="1.0" encoding="UTF-8"?>
<svg width="33px" height="36px" viewBox="0 0 33 36" version="1.1" xmlns="http://www.w3.org/2000/svg" xmlns:xlink="http://www.w3.org/1999/xlink">
    <title>Group 4</title>
    <g id="Symbols" stroke="none" stroke-width="1" fill="none" fill-rule="evenodd">
        <g id="Quick-Link-Single-Card-Copy-3" transform="translate(-63.000000, -34.000000)">
            <g id="Group" transform="translate(15.000000, 27.000000)">
                <g id="Group-4" transform="translate(49.000000, 7.000000)">
                    <g id="hand" transform="translate(10.000000, 0.000000)" fill="#FFCB05">
                        <path d="M4.85726934,0 C2.17894065,0 0,2.24302714 0,5.0001302 C0,7.75697279 2.17894065,10 4.85726934,10 C7.535345,10 9.71428571,7.75697279 9.71428571,5.0001302 C9.71428571,2.24302714 7.535345,0 4.85726934,0 Z M4.85726934,8.00020833 C3.25032273,8.00020833 1.94290774,6.65433995 1.94290774,5.0001302 C1.94290774,3.34592046 3.25032273,2.00005208 4.85726934,2.00005208 C6.46421595,2.00005208 7.77137798,3.34592046 7.77137798,5.0001302 C7.77137798,6.65433995 6.46421595,8.00020833 4.85726934,8.00020833 Z" id="Shape"></path>
                        <path d="M12.1428571,20 C14.374845,20 16.1904762,18.1306966 16.1904762,15.8333333 C16.1904762,13.53597 14.374845,11.6666667 12.1428571,11.6666667 C9.91113276,11.6666667 8.0952381,13.53597 8.0952381,15.8333333 C8.0952381,18.1306966 9.91113276,20 12.1428571,20 Z M12.1428571,13.75 C13.258851,13.75 14.1666667,14.684516 14.1666667,15.8333333 C14.1666667,16.9821506 13.258851,17.9166667 12.1428571,17.9166667 C11.0271267,17.9166667 10.1190476,16.9821506 10.1190476,15.8333333 C10.1190476,14.684516 11.0271267,13.75 12.1428571,13.75 Z" id="Shape"></path>
                    </g>
                    <path d="M29.5898747,22.0000048 L28.8624761,22.0000048 C27.6309633,22.000986 26.4201206,22.3082077 25.344862,22.8925741 L20.0327127,25.783752 L18.5175841,25.783752 C18.1534198,23.846702 16.4202251,22.4389452 14.3970849,22.4369491 L4.82922581,22.4369491 C4.6086123,22.4370673 4.39922606,22.5316584 4.25672031,22.6955809 L1.35782288,26.0398849 L0.0789034244,26.0398849 L0,35.0000048 C0.13239478,35.0000048 0.646189467,34.9736111 1.54138406,34.9208237 L16.8116204,34.2386357 C16.8265963,34.2386357 16.8411443,34.2386357 16.8544086,34.2353039 C19.2559188,33.9860029 21.5019851,32.9594129 23.2328387,31.3199703 L30.5740023,24.3527397 C30.9849749,23.9642635 31.112311,23.3717483 30.8957692,22.8555077 C30.6810949,22.3373053 30.1639178,21.9985221 29.5898747,22.0000048 Z M22.1888077,30.2783633 C20.7043629,31.6837912 18.7796391,32.5655988 16.7209096,32.7834678 L1.54309559,33.4619075 L1.54309559,28.0893643 L5.18008867,23.8950324 L14.3970849,23.8950324 C15.6610789,23.8977001 16.753424,24.754863 17.0242776,25.9565896 L9.43665423,27.7695106 C9.06944227,27.8577368 8.82748433,28.1986595 8.87266926,28.5641746 C8.91785419,28.9296898 9.23599268,29.2050155 9.61422507,29.2059371 C9.67465305,29.2060145 9.73486291,29.1988812 9.79350743,29.1846968 L17.925824,27.2414188 L20.2278266,27.2414188 C20.3557468,27.241504 20.4815542,27.2096717 20.5932375,27.148961 L26.0761115,24.164909 C26.9278065,23.7014383 27.8871403,23.4577109 28.862904,23.4568994 L29.3763618,23.4568994 L22.1888077,30.2783633 Z" id="Shape" stroke="#777777" stroke-width="0.679799947" fill="#777777" fill-rule="nonzero"></path>
                </g>
            </g>
        </g>
    </g>
</svg>