<?xml version="1.0" encoding="UTF-8"?>
<svg width="39px" height="41px" viewBox="0 0 39 41" version="1.1" xmlns="http://www.w3.org/2000/svg" xmlns:xlink="http://www.w3.org/1999/xlink">
    <title>avatar copy 2</title>
    <g id="Symbols" stroke="none" stroke-width="1" fill="none" fill-rule="evenodd">
        <g id="Quick-Link-Single-Card" transform="translate(-57.000000, -27.000000)">
            <g id="Group" transform="translate(15.000000, 27.000000)">
                <g id="avatar-copy-2" transform="translate(41.000000, 1.000000)">
                    <path d="M35.6786497,19.9121383 C34.9158264,17.7907721 33.4725997,15.8458908 31.4629548,14.2300341 L33.1779921,8.44328047 C33.2455064,8.21801833 33.2209557,7.97590588 33.1104779,7.76838093 C33,7.56085597 32.8132398,7.40654254 32.5896537,7.33914128 C29.1823762,6.30595079 25.4866287,7.69565851 23.5532661,10.6613143 C22.1845682,10.3890486 20.9070583,10.255133 19.6672512,10.255133 C12.2626041,10.255133 5.97764139,14.1404613 3.81192459,19.4944278 C3.27064153,20.6335601 3,21.9987314 3,23.5899417 C3,27.389155 5.01139851,30.9819097 8.53704516,33.5121178 L8.53704516,38.1131412 C8.53704516,38.6035741 8.92985533,39 9.41385357,39 L15.5655414,39 C15.9434459,39 16.2783867,38.7561138 16.3976326,38.3942754 L16.9412538,36.7429444 C18.7623849,36.9859437 20.5721175,36.9859437 22.3932486,36.7429444 L22.9368698,38.3942754 C23.0561157,38.7561138 23.3910566,39 23.7680842,39 L29.9206488,39 C30.4046471,39 30.7974573,38.6035741 30.7974573,38.1131412 L30.7974573,33.5121178 C31.9416922,32.6899997 32.9351162,31.7481557 33.7593161,30.7016623 L38.1231916,30.7016623 C38.6071898,30.7016623 39,30.3052364 39,29.8139167 L39,22.3518868 C39,21.0065221 37.9180184,19.9121383 36.5887769,19.9121383 L35.6786497,19.9121383 Z" id="Fill-7" stroke="#787878" stroke-width="2"></path>
                    <path d="M18.5,7 C20.4297297,7 22,5.42934347 22,3.49929944 C22,1.56995596 20.4297297,0 18.5,0 C16.5702703,0 15,1.56995596 15,3.49929944 C15,5.42934347 16.5702703,7 18.5,7" id="Path" stroke="#FFCB05" stroke-width="2"></path>
                    <path d="M28.500484,17 C27.6737657,17 27,17.6723638 27,18.4995163 C27,19.3266688 27.6737657,20 28.500484,20 C29.3272023,20 30,19.3266688 30,18.4995163 C30,17.6723638 29.3272023,17 28.500484,17" id="Path" fill="#787878"></path>
                    <path d="M22.1774542,14.1113816 C19.9228919,13.8903031 17.8124737,14.0094718 15.7454836,14.3702653 C15.2455991,14.4590255 14.9194268,14.8904983 15.0173709,15.3359427 C15.1042269,15.7279666 15.4904593,16 15.9228918,16 C15.9820278,16 16.0420879,15.9950689 16.103072,15.9843848 C17.9852619,15.653178 19.9062599,15.5405841 21.974174,15.7452255 C22.4842225,15.7953586 22.938831,15.4699048 22.994271,15.0187074 C23.0506351,14.5675101 22.6847307,14.1615146 22.1774542,14.1113816" id="Path" fill="#787878"></path>
                    <path d="M5.43737439,14.9935443 C3.93433285,14.7544332 2.52738741,14.8833221 1.149394,15.2735443 C0.816137663,15.3695443 0.598689441,15.836211 0.663985508,16.3179888 C0.721889567,16.7419888 0.979377831,17.036211 1.26766613,17.036211 C1.30709017,17.036211 1.34713021,17.0308776 1.38778625,17.0193221 C2.64257953,16.6610999 3.92324484,16.5393221 5.30185425,16.7606554 C5.6418866,16.8148776 5.94495891,16.4628776 5.98191895,15.9748776 C6.01949499,15.4868776 5.77555874,15.0477665 5.43737439,14.9935443" id="Path-Copy" fill="#787878" transform="translate(3.319072, 15.954644) rotate(-140.000000) translate(-3.319072, -15.954644) "></path>
                </g>
            </g>
        </g>
    </g>
</svg>