<?xml version="1.0" encoding="UTF-8"?>
<svg width="59px" height="65px" viewBox="0 0 59 65" version="1.1" xmlns="http://www.w3.org/2000/svg" xmlns:xlink="http://www.w3.org/1999/xlink">
    <title>Group 22</title>
    <defs>
        <polygon id="path-1" points="0.134725944 0.116034185 55.4491871 0.116034185 55.4491871 51.7291667 0.134725944 51.7291667"></polygon>
    </defs>
    <g id="Page-1" stroke="none" stroke-width="1" fill="none" fill-rule="evenodd">
        <g id="New-to-Investing-2-Copy" transform="translate(-317.000000, -480.000000)">
            <g id="Group-22" transform="translate(317.000000, 480.000000)">
                <g id="Group-3" transform="translate(2.708333, 13.270833)">
                    <mask id="mask-2" fill="white">
                        <use xlink:href="#path-1"></use>
                    </mask>
                    <g id="Clip-2"></g>
                    <path d="M41.7451125,16.7158469 L30.9117792,6.86293021 L31.5619146,3.17959687 C31.6661854,2.59053437 32.2285708,2.19755521 32.8174979,2.30196146 C32.8254875,2.30331562 32.8332063,2.30480521 32.8410604,2.30643021 L35.3761958,2.81343021 L36.3186958,7.52159687 C36.3524146,7.69168021 36.4267583,7.85120104 36.5352271,7.98634687 L40.8685604,13.4030135 C41.1590292,13.7659302 41.648425,13.9032427 42.0852792,13.7442635 L48.0154458,11.5873469 L41.7451125,16.7158469 Z M38.0715292,28.7278469 L35.7717479,30.4525135 L31.7416125,25.0791802 L31.6332792,25.1593469 L33.8477479,22.3923781 L38.0715292,28.7278469 Z M40.6986125,32.6679302 L44.6733625,49.5625135 L43.5726958,49.5625135 L38.4030292,34.0535135 C38.3660604,33.9430135 38.3114875,33.839149 38.2417479,33.7458469 L37.0716125,32.1858469 L39.2752479,30.5326802 L40.6986125,32.6679302 Z M25.6750813,29.1416802 L23.5938625,27.5816802 L28.1548313,20.4154302 L32.1263313,21.0773469 L25.6750813,29.1416802 Z M20.8000813,35.2365135 L5.03866458,28.3421802 L5.2703625,28.0529302 L19.7436958,32.1869302 C20.2050604,32.3190969 20.6981125,32.1322219 20.9559458,31.7275969 L22.4250813,29.4125135 L24.3175292,30.8316802 L20.8000813,35.2365135 Z M18.6474979,10.6080135 C18.2271646,10.733951 17.9242375,11.1009302 17.8804979,11.5375135 L17.6464979,13.8720969 L16.9248625,9.17476354 L28.9032792,5.75251354 L28.5719146,7.63101354 L18.6474979,10.6080135 Z M30.4623313,9.38384687 L35.1920292,13.6835969 L33.4306646,18.9680969 L33.2768313,19.0764302 L28.8817479,18.3408469 L30.4623313,9.38384687 Z M53.3351542,5.82726354 L52.7582792,7.55626354 L42.0646958,11.4454302 L38.3813625,6.84126354 L37.3532792,1.67918021 C37.2675604,1.25072187 36.9324042,0.915701042 36.5039458,0.829846875 L33.2616646,0.179846875 C31.5015188,-0.172371875 29.789175,0.968919792 29.4369563,2.72893021 C29.4320813,2.75303437 29.4276125,2.77727396 29.4234146,2.80151354 L29.3215813,3.37459687 L15.4103625,7.35476354 C14.8861646,7.50494062 14.5552063,8.02141979 14.6379458,8.56051354 L16.7213313,22.1021802 L15.7084146,23.1150969 C15.2853729,23.5380031 15.2853729,24.2238885 15.7084146,24.6469302 C16.1313208,25.0699719 16.8172063,25.0699719 17.2402479,24.6469302 L18.6408625,23.2461802 C18.817175,23.0689198 18.9264563,22.836274 18.9506958,22.5875135 L19.9614458,12.4756802 L28.1503625,10.0208469 L26.5957792,18.8294302 L19.5618313,29.8794302 L5.1728625,25.7714302 C4.75320625,25.6510448 4.30213333,25.794451 4.0288625,26.1354302 L0.372070833,30.7064198 C-0.00154375,31.1734719 0.0741541667,31.855024 0.54120625,32.228774 C1.00852917,32.6027948 1.69075833,32.5266906 2.06437292,32.058826 L3.63669583,30.0895969 L20.6916125,37.5548469 C21.1406542,37.7516073 21.6659354,37.6222844 21.9721125,37.2395969 L30.3246125,26.7984302 L36.3999458,34.9050135 L41.7602792,50.9881802 C41.9080188,51.4319406 42.3238833,51.7306698 42.7917479,51.7291858 L48.2084146,51.7291858 C48.80655,51.7291858 49.2917479,51.2441177 49.2917479,50.6458469 C49.2917479,50.0474406 48.80655,49.5625135 48.2084146,49.5625135 L46.8996125,49.5625135 L42.7635813,31.9810969 C42.7333833,31.8552948 42.6811125,31.7357219 42.6097479,31.6279302 L35.1996125,20.5140135 L36.9416125,15.2793469 L40.9759458,18.9475135 C41.3733938,19.3086698 41.9751854,19.3243781 42.3909146,18.9843469 L54.3075813,9.23434687 C54.4635813,9.10272188 54.5782792,8.92898229 54.6378625,8.73384687 L54.6530292,8.73384687 L55.3932167,6.51355521 C55.5828,5.94494063 55.2751333,5.33041979 54.7065188,5.14124271 C54.1384458,4.95220104 53.5246021,5.25932604 53.3351542,5.82726354 L53.3351542,5.82726354 Z" id="Fill-1" fill="#787878" mask="url(#mask-2)"></path>
                </g>
                <path d="M39.0000135,4.33336042 L34.6666802,4.33336042 C34.6666802,3.13668333 35.6366698,2.16669375 36.8333469,2.16669375 L39.0000135,2.16669375 L39.0000135,4.33336042 Z M39.0000135,7.58336042 C39.0000135,8.7800375 38.030024,9.75002708 36.8333469,9.75002708 C35.6366698,9.75002708 34.6666802,8.7800375 34.6666802,7.58336042 L34.6666802,6.50002708 L39.0000135,6.50002708 L39.0000135,7.58336042 Z M40.0833469,2.70833333e-05 L36.8333469,2.70833333e-05 C34.4401281,2.70833333e-05 32.5000135,1.94014167 32.5000135,4.33336042 L32.5000135,7.58336042 C32.5000135,9.97657917 34.4401281,11.9166937 36.8333469,11.9166937 C39.2265656,11.9166937 41.1666802,9.97657917 41.1666802,7.58336042 L41.1666802,1.08336042 C41.1666802,0.485089583 40.6816177,2.70833333e-05 40.0833469,2.70833333e-05 L40.0833469,2.70833333e-05 Z" id="Fill-4" fill="#787878"></path>
                <path d="M16.2500135,2.16669375 L22.7500135,2.16669375 C23.3482844,2.16669375 23.8333469,2.65175625 23.8333469,3.25002708 C23.8333469,3.84829792 23.3482844,4.33336042 22.7500135,4.33336042 L16.2500135,4.33336042 C15.6517427,4.33336042 15.1666802,3.84829792 15.1666802,3.25002708 C15.1666802,2.65175625 15.6517427,2.16669375 16.2500135,2.16669375" id="Fill-6" fill="#787878"></path>
                <path d="M11.9166802,2.16669375 L11.9166802,2.16669375 C12.514951,2.16669375 13.0000135,2.65175625 13.0000135,3.25002708 C13.0000135,3.84829792 12.514951,4.33336042 11.9166802,4.33336042 C11.3184094,4.33336042 10.8333469,3.84829792 10.8333469,3.25002708 C10.8333469,2.65175625 11.3184094,2.16669375 11.9166802,2.16669375" id="Fill-8" fill="#787878"></path>
                <path d="M31.4166802,54.1666802 L37.9166802,54.1666802 C38.514951,54.1666802 39.0000135,54.6516073 39.0000135,55.2500135 C39.0000135,55.8482844 38.514951,56.3333469 37.9166802,56.3333469 L31.4166802,56.3333469 C30.8184094,56.3333469 30.3333469,55.8482844 30.3333469,55.2500135 C30.3333469,54.6516073 30.8184094,54.1666802 31.4166802,54.1666802" id="Fill-10" fill="#787878"></path>
                <path d="M27.0833469,54.1666802 L27.0833469,54.1666802 C27.6816177,54.1666802 28.1666802,54.6516073 28.1666802,55.2500135 C28.1666802,55.8482844 27.6816177,56.3333469 27.0833469,56.3333469 C26.485076,56.3333469 26.0000135,55.8482844 26.0000135,55.2500135 C26.0000135,54.6516073 26.485076,54.1666802 27.0833469,54.1666802" id="Fill-12" fill="#787878"></path>
                <path d="M5.41668021,17.3333604 L7.58334687,17.3333604 C8.18161771,17.3333604 8.66668021,17.8184229 8.66668021,18.4166937 C8.66668021,19.0149646 8.18161771,19.5000271 7.58334687,19.5000271 L5.41668021,19.5000271 C4.81840937,19.5000271 4.33334688,19.0149646 4.33334688,18.4166937 C4.33334688,17.8184229 4.81840937,17.3333604 5.41668021,17.3333604" id="Fill-14" fill="#787878"></path>
                <path d="M1.08334688,17.3333604 L1.08334688,17.3333604 C1.68161771,17.3333604 2.16668021,17.8184229 2.16668021,18.4166937 C2.16668021,19.0149646 1.68161771,19.5000271 1.08334688,19.5000271 C0.485076042,19.5000271 1.35416667e-05,19.0149646 1.35416667e-05,18.4166937 C1.35416667e-05,17.8184229 0.485076042,17.3333604 1.08334688,17.3333604" id="Fill-16" fill="#787878"></path>
                <path d="M14.0833469,31.4166802 L15.1666802,31.4166802 C15.764951,31.4166802 16.2500135,31.9017427 16.2500135,32.5000135 C16.2500135,33.0982844 15.764951,33.5833469 15.1666802,33.5833469 L14.0833469,33.5833469 C13.485076,33.5833469 13.0000135,33.0982844 13.0000135,32.5000135 C13.0000135,31.9017427 13.485076,31.4166802 14.0833469,31.4166802" id="Fill-18" fill="#787878"></path>
                <path d="M49.8333469,15.1666938 L52.0000135,15.1666938 C52.5982844,15.1666938 53.0833469,15.6517562 53.0833469,16.2500271 C53.0833469,16.8482979 52.5982844,17.3333604 52.0000135,17.3333604 L49.8333469,17.3333604 C49.235076,17.3333604 48.7500135,16.8482979 48.7500135,16.2500271 C48.7500135,15.6517562 49.235076,15.1666938 49.8333469,15.1666938" id="Fill-20" fill="#787878"></path>
            </g>
        </g>
    </g>
</svg>