<?xml version="1.0" encoding="UTF-8"?>
<svg width="72px" height="66px" viewBox="0 0 72 66" version="1.1" xmlns="http://www.w3.org/2000/svg" xmlns:xlink="http://www.w3.org/1999/xlink">
    <title>Group 15</title>
    <defs>
        <polygon id="path-1" points="0 0.100373684 47.9810393 0.100373684 47.9810393 55.5789382 0 55.5789382"></polygon>
        <polygon id="path-3" points="0 0.0589875 28.1918862 0.0589875 28.1918862 32.8624863 0 32.8624863"></polygon>
    </defs>
    <g id="Page-1" stroke="none" stroke-width="1" fill="none" fill-rule="evenodd">
        <g id="New-to-Investing-2-Copy" transform="translate(-980.000000, -477.000000)">
            <g id="Group-15" transform="translate(980.000000, 477.000000)">
                <g id="Group-10" transform="translate(0.000000, 10.000000)">
                    <path d="M24.0276789,30.5133632 C23.0226789,30.2649947 22.0757842,30.0813632 21.1633105,29.7894158 C20.4494684,29.5609421 20.1723632,28.8534158 20.4292579,28.2101526 C20.6676789,27.6134684 21.3107842,27.3226263 21.9854684,27.5703632 C23.3668895,28.0778368 24.7323632,28.0906263 26.1175737,27.5848895 C26.8419947,27.3202579 27.4538368,27.6144158 27.7017316,28.2813632 C27.9302053,28.8962053 27.6726789,29.5443632 26.9534684,29.7793105 C25.9955211,30.0922579 24.9955737,30.2769947 24.0276789,30.5133632" id="Fill-1" fill="#787878"></path>
                    <path d="M20.2324895,22.2858789 C20.2157526,22.5468789 20.2365947,22.8170368 20.1747,23.0668263 C20.0171211,23.7021947 19.5953842,24.0779842 18.9311211,24.0355105 C18.3143842,23.9961947 17.9030684,23.6376158 17.8454368,22.9959316 C17.8035947,22.5280895 17.8024895,22.0533 17.8264895,21.5838789 C17.8626474,20.8755632 18.2807526,20.4770368 18.9653842,20.4070895 C19.5841737,20.3437737 20.1293842,20.8793526 20.2059632,21.5780368 C20.2315421,21.8109316 20.2100684,22.0491947 20.2100684,22.2850895 C20.2174895,22.2854053 20.2250684,22.2855632 20.2324895,22.2858789" id="Fill-3" fill="#787878"></path>
                    <path d="M30.2923421,22.2711474 C30.2923421,22.5313579 30.3387632,22.8021474 30.2833421,23.0500421 C30.1412368,23.6846211 29.7225,24.0683053 29.0642368,24.0362526 C28.4184474,24.0046737 27.9919737,23.6364632 27.9436579,22.9579895 C27.9105,22.4912526 27.9076579,22.0188316 27.9387632,21.5522526 C27.9836053,20.8785158 28.4675526,20.4079895 29.0800263,20.3895158 C29.6722895,20.3715158 30.2181316,20.8502526 30.2994474,21.4900421 C30.3321316,21.7464632 30.3048158,22.0106211 30.3048158,22.2711474 L30.2923421,22.2711474 Z" id="Fill-5" fill="#787878"></path>
                    <g id="Group-9" transform="translate(0.000000, 0.057632)">
                        <mask id="mask-2" fill="white">
                            <use xlink:href="#path-1"></use>
                        </mask>
                        <g id="Clip-8"></g>
                        <path d="M15.0612158,42.2358474 C17.9457947,41.1536368 17.7694263,38.6941105 17.6745316,36.1850053 C21.9585316,38.4528474 26.1699,38.4830053 30.4726895,36.1668474 C30.4006895,38.6611105 30.1360579,41.1489 33.0395842,42.2276368 C28.2536368,46.6677947 19.9924263,46.7434263 15.0612158,42.2358474 M13.9074789,25.3553211 C13.8967421,24.2789526 13.8819,23.2013211 13.9229526,22.1263737 C13.9497947,21.4207421 13.7009526,20.8891105 13.2525316,20.3535316 C11.2406368,17.9502158 9.91432105,15.2677421 10.1546368,12.0271105 C10.2858474,10.2591632 11.0961632,8.84679474 12.6743211,7.66432105 C12.6743211,8.23116316 12.6590053,8.65747895 12.6776368,9.08237368 C12.7125316,9.87216316 13.1791105,10.3602158 13.8722684,10.3589526 C14.5700053,10.3575316 15.0498474,9.85700526 15.0354789,9.0699 C14.9877947,6.46984737 16.2973737,4.78211053 18.5723211,3.72421579 C20.4931105,2.83116316 22.5462158,2.59321579 24.6256895,2.54537368 C27.4753737,2.47984737 30.2836895,2.71542632 32.9426368,3.8799 C36.5669526,5.46721579 38.4537947,8.68511053 37.9251632,12.6091105 C37.7036368,14.2539 37.2711632,15.8702684 36.9343737,17.4994263 C36.8461105,17.4833211 36.7578474,17.4672158 36.6695842,17.4511105 C35.6355316,13.7510053 33.4921105,11.8550053 29.6175316,11.6568474 C25.7947421,11.4613737 21.9577421,11.5101632 18.1272158,11.5179 C16.8777947,11.5204263 15.7911632,12.1141105 15.2053737,13.2312158 C14.7007421,14.1932684 14.3756368,15.2617421 14.0727947,16.3122158 C13.9024263,16.9035316 14.2251632,17.4045316 14.8360579,17.5957421 C15.4657421,17.7926368 16.0100053,17.5968474 16.2785842,16.9809 C16.5496895,16.3595842 16.7412158,15.7017947 16.9428474,15.0522158 C17.1841105,14.2737947 17.6829,13.8894789 18.5085316,13.8964263 C22.0261105,13.9259526 25.5443211,13.9172684 29.0611105,13.9865842 C29.8306895,14.0019 30.6212684,14.2029 31.3569,14.4520579 C33.3547421,15.1289526 34.2620053,16.4393211 34.2457421,18.5344263 C34.2252158,21.1845316 34.3335316,23.8472684 34.1126368,26.4817421 C33.6762158,31.6861105 28.9854789,35.6773737 23.7646895,35.4803211 C18.1913211,35.2700053 13.9638474,30.9307421 13.9074789,25.3553211 M47.9750053,52.1639526 C47.9702684,47.4803211 45.3811105,43.8591632 40.9336895,42.3391105 C38.6301632,41.5518474 36.3237947,40.7720053 34.0087421,40.0194789 C33.1916368,39.7539 32.8077947,39.2606368 32.8322684,38.3980579 C32.8599,37.4270053 32.8826368,36.4521632 32.8250053,35.4837947 C32.7765316,34.6703211 32.9739,34.0362158 33.5898474,33.4627421 C34.0423737,33.0416368 34.3850053,32.4866368 34.7172158,31.9542158 C36.0727421,29.7815842 36.7332158,27.4081105 36.6127421,24.8462684 C36.5620579,23.7675316 36.7880053,22.8305842 37.3325842,21.8707421 C38.8829526,19.1386895 39.9244263,16.2196895 40.3403211,13.0769526 C40.9257947,8.65037368 39.0189,4.58395263 35.1705316,2.33174211 C32.1479526,0.562847368 28.7994789,0.195742105 24.7932158,0.100373684 C23.9709,0.178689474 22.5479526,0.228110526 21.1569,0.464636842 C18.3511105,0.941794737 15.8026895,1.95184737 14.0199,4.35042632 C13.8825316,4.53516316 13.6109526,4.65326842 13.3777421,4.72921579 C10.4879526,5.67026842 8.67216316,7.64600526 7.9749,10.5648474 C7.15416316,14.0004789 8.08337368,17.1803211 10.0475842,19.9557947 C11.1691105,21.5405842 11.5689,23.0854263 11.4964263,24.9580579 C11.3934789,27.6136895 11.9350579,30.2543211 13.6818474,32.2662158 C15.1456895,33.9523737 15.4257947,35.7155842 15.2740579,37.7363211 C15.2642684,37.8669 15.2731105,37.9989 15.2724789,38.1301105 C15.2666368,39.4475842 15.0852158,39.7076368 13.8383211,40.1222684 C12.6129,40.5297947 11.3859,40.9325842 10.1595316,41.3371105 C10.1521105,41.3214789 10.1454789,41.3058474 10.1380579,41.2903737 C9.10700526,41.6374263 8.07674211,41.9873211 7.04726842,42.3391105 C2.59984737,43.8591632 0.0108473684,47.4803211 0.00595263158,52.1639526 C0.00516315789,52.8992684 -0.0104684211,53.6350579 0.0121105263,54.3699 C0.0340578947,55.0867421 0.540584211,55.5839526 1.19442632,55.5789382 C1.84716316,55.5738474 2.32700526,55.0733211 2.36205789,54.3515842 C2.42821579,52.9905316 2.31311053,51.5920579 2.59084737,50.2761632 C3.16053158,47.5766368 4.83421579,45.6964263 7.44421579,44.7313737 C7.76379474,44.6132684 8.08542632,44.5006895 8.40800526,44.3907947 C8.53179474,44.3756368 8.66032105,44.3486368 8.79358421,44.3061632 C9.76637368,43.9957421 10.7424789,43.6897421 11.6947421,43.3235842 C12.2064789,43.1268474 12.5247947,43.2271105 12.9260053,43.5997421 C15.9954789,46.4497421 19.6526368,47.9412158 23.8306895,47.9931632 C28.2159,48.0479526 32.0476895,46.5384789 35.2684263,43.5436895 C35.5925842,43.2422684 35.8542158,43.1334789 36.2975842,43.2926368 C37.7015842,43.7975842 39.1376368,44.2139526 40.5367421,44.7313737 C43.1467421,45.6964263 44.8204263,47.5766368 45.3901105,50.2761632 C45.6678474,51.5920579 45.5527421,52.9905316 45.6189,54.3515842 C45.6539526,55.0733211 46.1337947,55.5738474 46.7865316,55.5789382 C47.4405316,55.5839526 47.9470579,55.0867421 47.9690053,54.3699 C47.9914263,53.6350579 47.9757947,52.8992684 47.9750053,52.1639526" id="Fill-7" fill="#787878" mask="url(#mask-2)"></path>
                    </g>
                </g>
                <g id="Group-8" transform="translate(43.000000, 0.000000)">
                    <g id="Group-3" transform="translate(0.000000, 0.078512)">
                        <mask id="mask-4" fill="white">
                            <use xlink:href="#path-3"></use>
                        </mask>
                        <g id="Clip-2"></g>
                        <path d="M22.4131737,2.77322375 C21.9535112,2.43676125 21.3083612,2.53658625 20.9718987,2.99624875 C20.6355737,3.45591125 20.7353987,4.10106125 21.1950612,4.43738625 C24.2848237,6.69871125 26.1293862,10.3314613 26.1293862,14.1547863 C26.1293862,20.7899863 20.7312737,26.1882363 14.0959362,26.1882363 C13.5166487,26.1882363 12.9304862,26.1458863 12.3540862,26.0622863 C12.0086863,26.0125113 11.6621862,26.1399738 11.4320113,26.4017738 C10.6433113,27.2981363 9.75478625,28.0976988 8.79104875,28.7787363 C7.57582375,29.6372863 6.23657375,30.3133738 4.81042375,30.7882988 C4.77068625,30.8013613 4.67842375,30.8320238 4.59949875,30.7203738 C4.52538625,30.6150488 4.57983625,30.5456113 4.60596125,30.5121988 C5.55553625,29.3017863 6.31329875,27.9680363 6.85834875,26.5477988 C7.05456125,26.0364363 7.22671125,25.5000488 7.36998625,24.9534863 C7.47723625,24.5442863 7.32378625,24.1111613 6.98278625,23.8607738 C3.90182375,21.5987613 2.06248625,17.9702738 2.06248625,14.1547863 C2.06262375,7.51972375 7.46073625,2.12147375 14.0959362,2.12147375 C15.3936612,2.12147375 16.6696612,2.32648625 17.8883237,2.73101125 C18.4288362,2.91086125 19.0125237,2.61771125 19.1918237,2.07706125 C19.3711237,1.53641125 19.0783863,0.95286125 18.5378737,0.77356125 C17.1093862,0.29932375 15.6148987,0.05897375 14.0959362,0.05897375 C6.32347375,0.05897375 -1.375e-05,6.38232375 -1.375e-05,14.1549238 C-1.375e-05,18.3818113 1.92677375,22.4126238 5.18786125,25.0783363 C5.10921125,25.3272113 5.02409875,25.5712738 4.93293625,25.8088738 C4.46158625,27.0368863 3.80571125,28.1910613 2.98332375,29.2393613 C2.36883625,30.0225613 2.34092375,31.0950613 2.91333625,31.9080988 C3.34453625,32.5202488 4.02777375,32.8624863 4.74277375,32.8624863 C4.98188625,32.8624863 5.22429875,32.8242613 5.46217375,32.7450613 C7.08027375,32.2061988 8.60074875,31.4383988 9.98124875,30.4629738 C10.9276612,29.7943113 11.8098613,29.0252738 12.6095612,28.1723613 C13.1041487,28.2243363 13.6020362,28.2505988 14.0959362,28.2505988 C21.8683987,28.2505988 28.1918862,21.9272488 28.1918862,14.1546488 C28.1918862,9.67627375 26.0316237,5.42147375 22.4131737,2.77322375" id="Fill-1" fill="#787878" mask="url(#mask-4)"></path>
                    </g>
                    <path d="M14.0959087,20.7574262 C14.6655712,20.7574262 15.1271587,21.2191512 15.1271587,21.7886762 C15.1271587,22.3582012 14.6655712,22.8199262 14.0959087,22.8199262 C13.5263837,22.8199262 13.0646587,22.3582012 13.0646587,21.7886762 C13.0646587,21.2191512 13.5263837,20.7574262 14.0959087,20.7574262" id="Fill-4" fill="#787878"></path>
                    <path d="M18.8360287,10.4188012 C18.7077412,7.94833875 16.6684787,5.97425125 14.1933412,5.92433875 C14.1608912,5.92365125 14.1287163,5.92323875 14.0961287,5.92323875 C11.7345663,5.92323875 9.72239125,7.66412625 9.39514125,10.0090513 C9.36461625,10.2265763 9.34935375,10.4489137 9.34935375,10.6698762 C9.34935375,11.2395387 9.81094125,11.7011262 10.3806038,11.7011262 C10.9499912,11.7011262 11.4118538,11.2395387 11.4118538,10.6698762 C11.4118538,10.5440637 11.4203787,10.4175638 11.4377037,10.2942262 C11.6252537,8.95112625 12.7869912,7.96332625 14.1518162,7.98642625 C15.5508787,8.01461375 16.7036787,9.13001375 16.7761412,10.5257762 C16.8147787,11.2707512 16.5539412,11.9780513 16.0421662,12.5170512 C15.5298412,13.0567387 14.8386287,13.3538763 14.0957162,13.3538763 C13.5263287,13.3538763 13.0644662,13.8154638 13.0644662,14.3851262 L13.0644662,18.2701887 C13.0644662,18.8398512 13.5263287,19.3014387 14.0957162,19.3014387 C14.6653787,19.3014387 15.1269662,18.8398512 15.1269662,18.2701887 L15.1269662,15.3017013 C16.0403787,15.0969638 16.8857287,14.6239638 17.5378912,13.9372888 C18.4433287,12.9838637 18.9042287,11.7344013 18.8360287,10.4188012" id="Fill-6" fill="#787878"></path>
                </g>
            </g>
        </g>
    </g>
</svg>