<?xml version="1.0" encoding="UTF-8"?>
<svg width="68px" height="93px" viewBox="0 0 68 93" version="1.1" xmlns="http://www.w3.org/2000/svg" xmlns:xlink="http://www.w3.org/1999/xlink">
    <title>Group 3</title>
    <g id="Page-1" stroke="none" stroke-width="1" fill="none" fill-rule="evenodd">
        <g id="Personality-Finder-1" transform="translate(-313.000000, -407.000000)" fill="#787878">
            <g id="Group-3" transform="translate(313.000000, 406.000000)">
                <path d="M42.4434235,41.239819 L52.5791701,41.239819 L52.5791701,26.0361991 L42.4434235,26.0361991 L42.4434235,41.239819 Z M42.4434235,81.4660633 L52.5791701,81.4660633 L52.5791701,43.7737557 L42.4434235,43.7737557 L42.4434235,81.4660633 Z M14.5701203,21.60181 L24.705867,21.60181 L24.705867,16.5339367 L14.5701203,16.5339367 L14.5701203,21.60181 Z M14.5701203,81.4660633 L24.705867,81.4660633 L24.705867,24.1357466 L14.5701203,24.1357466 L14.5701203,81.4660633 Z M66.2055728,81.4660633 L55.1131068,81.4660633 L55.1131068,43.7737557 C55.8732878,43.7737557 56.3800751,43.2669683 56.3800751,42.5067873 C56.3800751,41.7466063 55.8732878,41.239819 55.1131068,41.239819 L55.1131068,24.7692308 C55.1131068,24.0695475 54.5458217,23.5022624 53.8461384,23.5022624 L41.1764552,23.5022624 C40.4767719,23.5022624 39.9094869,24.0695475 39.9094869,24.7692308 L39.9094869,41.239819 C39.1493059,41.239819 38.6425185,41.7466063 38.6425185,42.5067873 C38.6425185,43.2669683 39.1493059,43.7737557 39.9094869,43.7737557 L39.9094869,81.4660633 L27.2398036,81.4660633 L27.2398036,24.1357466 C27.9999846,24.1357466 28.5067719,23.6289593 28.5067719,22.8687783 C28.5067719,22.1085973 27.9999846,21.60181 27.2398036,21.60181 L27.2398036,15.2669683 C27.2398036,14.5672851 26.6725185,14 25.9728353,14 L13.303152,14 C12.6034688,14 12.0361837,14.5672851 12.0361837,15.2669683 L12.0361837,21.60181 C11.2760027,21.60181 10.7692154,22.1085973 10.7692154,22.8687783 C10.7692154,23.6289593 11.2760027,24.1357466 12.0361837,24.1357466 L12.0361837,81.4660633 L1.26695293,81.4660633 C0.591342066,81.4660633 0.0248488534,81.996448 0.00109319727,82.6715837 C-0.0269384769,83.4656561 0.486500437,84 1.26695293,84 L66.2055728,84 C66.9054145,84 67.4725412,83.4327149 67.4725412,82.7330317 C67.4725412,82.03319 66.9054145,81.4660633 66.2055728,81.4660633 L66.2055728,81.4660633 Z" id="Fill-1"></path>
                <text id="12L" font-family="Roboto-Bold, Roboto" font-size="10" font-weight="bold">
                    <tspan x="11.0551758" y="9">12L</tspan>
                </text>
                <text id="11L" font-family="Roboto-Bold, Roboto" font-size="10" font-weight="bold">
                    <tspan x="40.0551758" y="19">11L</tspan>
                </text>
                <text id="Best" font-family="Roboto-Regular, Roboto" font-size="8" font-weight="normal">
                    <tspan x="12.0214844" y="93">Best</tspan>
                </text>
                <text id="Worst" font-family="Roboto-Regular, Roboto" font-size="8" font-weight="normal">
                    <tspan x="37.4472656" y="93">Worst</tspan>
                </text>
            </g>
        </g>
    </g>
</svg>