<?xml version="1.0" encoding="UTF-8"?>
<svg width="71px" height="70px" viewBox="0 0 71 70" version="1.1" xmlns="http://www.w3.org/2000/svg" xmlns:xlink="http://www.w3.org/1999/xlink">
    <title>Group 14</title>
    <defs>
        <polygon id="path-1" points="0.112093062 0.113421875 22.1481641 0.113421875 22.1481641 22.487582 0.112093062 22.487582"></polygon>
        <polygon id="path-3" points="0.0504343002 0 22.1717891 0 22.1717891 28.9977871 0.0504343002 28.9977871"></polygon>
        <polygon id="path-5" points="0 0.0723892127 22.1096463 0.0723892127 22.1096463 47.2335391 0 47.2335391"></polygon>
    </defs>
    <g id="Page-1" stroke="none" stroke-width="1" fill="none" fill-rule="evenodd">
        <g id="Personality-Finder-2" transform="translate(-312.000000, -442.000000)">
            <g id="Group-14" transform="translate(312.000000, 442.000000)">
                <g id="Group-3" transform="translate(47.851562, 35.957031)">
                    <mask id="mask-2" fill="white">
                        <use xlink:href="#path-1"></use>
                    </mask>
                    <g id="Clip-2"></g>
                    <path d="M12.6232422,19.747875 L2.67285156,9.79775781 C4.22583984,7.55762109 5.27337891,5.00726953 5.74136719,2.32744531 L19.8398047,2.32744531 C19.1980469,8.75869531 16.72125,14.7372695 12.6232422,19.747875 M21.84875,0.463285156 C21.6394336,0.240023438 21.3471289,0.113421875 21.0410156,0.113421875 L4.78611328,0.113421875 C4.22597656,0.113421875 3.75429687,0.531644531 3.68703125,1.08767969 C3.329375,4.04941797 2.17328125,6.8656875 0.3434375,9.23242578 C0.0024609375,9.67320703 0.0425195312,10.2985586 0.43640625,10.6924453 L11.9076563,22.1634219 C12.1156055,22.3712344 12.3972461,22.487582 12.6905078,22.487582 C12.7024023,22.487582 12.7144336,22.487582 12.7263281,22.4870352 C13.032168,22.4773281 13.3202344,22.3411563 13.5223047,22.1109219 C18.6634766,16.2549844 21.6455859,9.05592188 22.1458398,1.29152734 C22.1658008,0.986371094 22.0580664,0.686273438 21.84875,0.463285156" id="Fill-1" fill="#787878" mask="url(#mask-2)"></path>
                </g>
                <path d="M53.5701113,31.6423379 C52.168334,23.9096621 46.0952871,17.8589004 38.3576895,16.4856973 L38.3576895,2.3094668 C53.809916,3.86395898 66.1362051,16.1903848 67.6906973,31.6423379 L53.5701113,31.6423379 Z M69.997416,32.6782559 C68.8697598,15.177709 54.8223184,1.1304043 37.3219082,0.00274804688 C37.0159316,-0.0184433594 36.7166543,0.0906582031 36.4935293,0.299974609 C36.2702676,0.509154297 36.143666,0.801595703 36.143666,1.10743555 L36.143666,17.4379434 C36.143666,17.996166 36.5595645,18.4672988 37.1138223,18.5362051 C44.6322598,19.4728652 50.5579238,25.3754238 51.5235684,32.8903066 C51.5943887,33.4425137 52.0647012,33.8562246 52.6215566,33.8562246 L68.8925918,33.8562246 C69.1985684,33.8562246 69.4910098,33.7297598 69.7000527,33.5063613 C69.9095059,33.283373 70.0171035,32.9834121 69.997416,32.6782559 L69.997416,32.6782559 Z" id="Fill-4" fill="#787878"></path>
                <g id="Group-8" transform="translate(11.757812, 0.000000)">
                    <mask id="mask-4" fill="white">
                        <use xlink:href="#path-3"></use>
                    </mask>
                    <g id="Clip-7"></g>
                    <path d="M21.8219258,0.299837891 C21.5986641,0.0905214844 21.2993867,-0.0187167969 20.9935469,0.00261132812 C13.3554805,0.494662109 6.24665234,3.39802148 0.435421875,8.39864648 C-0.0280546875,8.79731836 -0.0804179688,9.49636133 0.318390625,9.95970117 C0.717472656,10.4234512 1.41637891,10.4756777 1.87958203,10.0768691 C7.02335156,5.65087305 13.2518477,2.9788418 19.9579023,2.30891992 L19.9579023,16.486791 C13.8375508,17.5816348 8.55870313,21.7089004 6.03200391,27.4441152 C5.7855,28.0035684 6.03925,28.6569473 6.59883984,28.9034512 C6.74389844,28.9675723 6.89551953,28.9977871 7.04440625,28.9977871 C7.46973828,28.9977871 7.87551953,28.7511465 8.05803906,28.3366152 C10.4049531,23.0092324 15.441125,19.254252 21.2016328,18.5364785 C21.7558906,18.4674355 22.1717891,17.9964395 22.1717891,17.4380801 L22.1717891,1.10743555 C22.1717891,0.801458984 22.0451875,0.509017578 21.8219258,0.299837891" id="Fill-6" fill="#787878" mask="url(#mask-4)"></path>
                </g>
                <g id="Group-11" transform="translate(0.000000, 11.210938)">
                    <mask id="mask-6" fill="white">
                        <use xlink:href="#path-5"></use>
                    </mask>
                    <g id="Clip-10"></g>
                    <path d="M21.8785273,33.9782461 C19.6115938,31.0465859 18.4131172,27.5338711 18.4131172,23.820043 C18.4131172,22.8754531 18.4929609,21.9279922 18.6503242,21.0047305 C18.753,20.4019375 18.3477656,19.8303164 17.7451094,19.7275039 C17.1425898,19.6260586 16.5706953,20.0300625 16.4677461,20.632582 C16.2894648,21.6786172 16.1990938,22.7509023 16.1990938,23.8203164 C16.1990938,27.7010781 17.3538203,31.3879727 19.548293,34.5443984 L9.59899609,44.4936953 C4.82792188,38.6476016 2.21399609,31.3291836 2.21399609,23.7527773 C2.21399609,15.6854141 5.16835156,7.93045312 10.5325117,1.91619531 C10.9396602,1.45996484 10.8994648,0.760375 10.4433711,0.353363281 C9.98714063,-0.0537851563 9.28755078,-0.0135898438 8.88040234,0.442367187 C3.15366406,6.86240625 -2.734375e-05,15.1408633 -2.734375e-05,23.7525039 C-2.734375e-05,32.2617422 3.08954297,40.4673281 8.69952344,46.8568789 C8.90145703,47.0871133 9.18952344,47.222875 9.4955,47.2329922 C9.50739453,47.2335391 9.51942578,47.2335391 9.53132031,47.2335391 C9.82444531,47.2335391 10.1060859,47.1173281 10.3141719,46.9093789 L21.7854219,35.4382656 C22.1793086,35.0443789 22.2190938,34.4191641 21.8785273,33.9782461" id="Fill-9" fill="#787878" mask="url(#mask-6)"></path>
                </g>
                <path d="M35.0366406,67.7860859 C27.4600977,67.7860859 20.1416797,65.1720234 14.2955859,60.4010859 L24.2323047,50.4643672 C27.4051367,52.6949336 31.1197852,53.8686641 35.0365039,53.8686641 C38.9530859,53.8686641 42.6678711,52.6949336 45.8408398,50.4643672 L55.7774219,60.4010859 C49.931875,65.1720234 42.6131836,67.7860859 35.0366406,67.7860859 M58.1936523,59.6857734 L46.7315625,48.2235469 C46.3358984,47.828293 45.7078125,47.7897383 45.2667578,48.1344062 C42.3215625,50.4372969 38.7838281,51.6546406 35.0365039,51.6546406 C31.289043,51.6546406 27.7518555,50.4374336 24.8063867,48.1344062 C24.3657422,47.7900117 23.7375195,47.828293 23.341582,48.2235469 L11.8793555,59.6857734 C11.6629297,59.9023359 11.5457617,60.1987422 11.5557422,60.5044453 C11.5657227,60.8104219 11.7017578,61.0983516 11.9318555,61.3004219 C18.3216797,66.9106758 26.5271289,69.9999727 35.0363672,69.9999727 C43.5456055,69.9999727 51.7511914,66.9104023 58.1408789,61.3004219 C58.3709766,61.0984883 58.506875,60.8105586 58.5169922,60.5044453 C58.5271094,60.1986055 58.4098047,59.9021992 58.1936523,59.6857734" id="Fill-12" fill="#787878"></path>
            </g>
        </g>
    </g>
</svg>