<?xml version="1.0" encoding="UTF-8"?>
<svg width="29px" height="24px" viewBox="0 0 29 24" version="1.1" xmlns="http://www.w3.org/2000/svg" xmlns:xlink="http://www.w3.org/1999/xlink">
    <title>Group</title>
    <g id="light-version" stroke="none" stroke-width="1" fill="none" fill-rule="evenodd">
        <g id="Screen-size_-1366" transform="translate(-79.000000, -166.000000)">
            <g id="Group-5" transform="translate(60.000000, 147.000000)">
                <g id="Group" transform="translate(20.000000, 19.000000)">
                    <path d="M7.11170784,3.10051916 L7.11170784,3.97977086 C7.11170784,5.252372 8.17508056,6.29359112 9.47475832,6.29359112 C10.7744361,6.29359112 11.8378088,5.252372 11.8378088,3.97977086 L11.8378088,3.97977086 L11.8378088,3.10051916 L16.1385607,3.10051916 L16.1385607,3.97977086 C16.1385607,5.252372 17.2019334,6.29359112 18.5016112,6.29359112 C19.8012889,6.29359112 20.8646617,5.252372 20.8646617,3.97977086 L20.8646617,3.97977086 L20.8646617,3.10051916 L21.9752954,3.10051916 C23.6530612,3.10051916 24.9763695,4.41939671 25,6.03907089 L25,6.03907089 L25,19.0427408 C25,20.662415 23.6530612,21.9812925 21.9989259,21.9812925 L21.9989259,21.9812925 L6.00107411,21.9812925 C4.34693878,21.9812925 3,20.662415 3,19.0427408 L3,19.0427408 L3,6.03907089 C3,4.41939671 4.34693878,3.10051916 6.00107411,3.10051916 L6.00107411,3.10051916 L7.11170784,3.10051916 Z M22.9914071,9.13959005 L5.00859291,9.13959005 L5.00859291,19.0427408 C5.00859291,19.5749194 5.4575725,20.0145453 6.00107411,20.0145453 L6.00107411,20.0145453 L21.9989259,20.0145453 C22.5424275,20.0145453 22.9914071,19.5749194 22.9914071,19.0427408 L22.9914071,19.0427408 L22.9914071,9.13959005 Z M10.207304,15.5488722 C10.4199785,15.5488722 10.6090226,15.7339778 10.6090226,15.9422216 L10.6090226,15.9422216 L10.6090226,17.6775868 C10.6090226,17.8858306 10.4199785,18.0709363 10.207304,18.0709363 L10.207304,18.0709363 L7.44253491,18.0709363 C7.22986037,18.0709363 7.04081633,17.8858306 7.04081633,17.6775868 L7.04081633,17.6775868 L7.04081633,15.9422216 C7.04081633,15.7339778 7.22986037,15.5488722 7.44253491,15.5488722 L7.44253491,15.5488722 Z M15.3823845,15.5488722 C15.5950591,15.5488722 15.7841031,15.7339778 15.7841031,15.9422216 L15.7841031,15.9422216 L15.7841031,17.6775868 C15.7841031,17.8858306 15.5950591,18.0709363 15.3823845,18.0709363 L15.3823845,18.0709363 L12.6176155,18.0709363 C12.3813104,18.0709363 12.2158969,17.8858306 12.2158969,17.6775868 L12.2158969,17.6775868 L12.2158969,15.9422216 C12.2158969,15.7339778 12.4049409,15.5488722 12.6176155,15.5488722 L12.6176155,15.5488722 Z M20.5338346,15.5488722 C20.7465091,15.5488722 20.9355532,15.7339778 20.9355532,15.9422216 L20.9355532,15.9422216 L20.9355532,17.6775868 C20.9355532,17.8858306 20.7465091,18.0709363 20.5338346,18.0709363 L20.5338346,18.0709363 L17.7690655,18.0709363 C17.556391,18.0709363 17.3673469,17.8858306 17.3673469,17.6775868 L17.3673469,17.6775868 L17.3673469,15.9422216 C17.3673469,15.7339778 17.556391,15.5488722 17.7690655,15.5488722 L17.7690655,15.5488722 Z M10.207304,11.0831991 C10.4199785,11.0831991 10.6090226,11.2683047 10.6090226,11.4765485 L10.6090226,11.4765485 L10.6090226,13.2119137 C10.6090226,13.4201575 10.4199785,13.6052632 10.207304,13.6052632 L10.207304,13.6052632 L7.44253491,13.6052632 C7.22986037,13.6052632 7.04081633,13.4201575 7.04081633,13.2119137 L7.04081633,13.2119137 L7.04081633,11.4765485 C7.04081633,11.2683047 7.22986037,11.0831991 7.44253491,11.0831991 L7.44253491,11.0831991 Z M15.3823845,11.0831991 C15.5950591,11.0831991 15.7841031,11.2683047 15.7841031,11.4765485 L15.7841031,11.4765485 L15.7841031,13.2119137 C15.7841031,13.4201575 15.5950591,13.6052632 15.3823845,13.6052632 L15.3823845,13.6052632 L12.6176155,13.6052632 C12.3813104,13.6052632 12.2158969,13.4201575 12.2158969,13.2119137 L12.2158969,13.2119137 L12.2158969,11.4765485 C12.2158969,11.2683047 12.4049409,11.0831991 12.6176155,11.0831991 L12.6176155,11.0831991 Z M20.5338346,11.0831991 C20.7465091,11.0831991 20.9355532,11.2683047 20.9355532,11.4765485 L20.9355532,11.4765485 L20.9355532,13.2119137 C20.9355532,13.4201575 20.7465091,13.6052632 20.5338346,13.6052632 L20.5338346,13.6052632 L17.7690655,13.6052632 C17.556391,13.6052632 17.3673469,13.4201575 17.3673469,13.2119137 L17.3673469,13.2119137 L17.3673469,11.4765485 C17.3673469,11.2683047 17.556391,11.0831991 17.7690655,11.0831991 L17.7690655,11.0831991 Z M9.47475832,0 C10.2309345,0 10.8453276,0.601593269 10.8453276,1.34201575 L10.8453276,1.34201575 L10.8453276,3.97977086 C10.8453276,4.72019334 10.2309345,5.32178661 9.47475832,5.32178661 C8.71858217,5.32178661 8.10418904,4.72019334 8.10418904,3.97977086 L8.10418904,3.97977086 L8.10418904,1.34201575 C8.10418904,0.601593269 8.71858217,0 9.47475832,0 Z M18.5016112,0 C19.2577873,0 19.8721805,0.601593269 19.8721805,1.34201575 L19.8721805,1.34201575 L19.8721805,3.97977086 C19.8721805,4.72019334 19.2577873,5.32178661 18.5016112,5.32178661 C17.745435,5.32178661 17.1310419,4.72019334 17.1310419,3.97977086 L17.1310419,3.97977086 L17.1310419,1.34201575 C17.1310419,0.601593269 17.745435,0 18.5016112,0 Z" id="Combined-Shape" fill="#9B1E26"></path>
                    <line x1="0.5" y1="2.5" x2="26" y2="22" id="Line" stroke="#9B1E26" stroke-width="2" stroke-linecap="square"></line>
                </g>
            </g>
        </g>
    </g>
</svg>