<?xml version="1.0" encoding="UTF-8"?>
<svg width="28px" height="28px" viewBox="0 0 28 28" version="1.1" xmlns="http://www.w3.org/2000/svg" xmlns:xlink="http://www.w3.org/1999/xlink">
    <title>ic_24/INR2</title>
    <defs>
        <linearGradient x1="0.532670455%" y1="0.478525153%" x2="100%" y2="100%" id="linearGradient-1">
            <stop stop-color="#FFDD93" offset="0%"></stop>
            <stop stop-color="#F6AA00" offset="100%"></stop>
        </linearGradient>
        <linearGradient x1="0.532670455%" y1="0.478525153%" x2="100%" y2="100%" id="linearGradient-2">
            <stop stop-color="#9D1D27" offset="0%"></stop>
            <stop stop-color="#9D1D27" offset="100%"></stop>
        </linearGradient>
    </defs>
    <g id="light-version" stroke="none" stroke-width="1" fill="none" fill-rule="evenodd">
        <g id="Screen-size_-1366" transform="translate(-1026.000000, -277.000000)" fill="url(#linearGradient-2)">
            <g id="Group-9" transform="translate(1008.000000, 147.000000)">
                <g id="ic_24/INR2" transform="translate(16.000000, 128.000000)">
                    <path d="M16,2.66666667 C23.352,2.66666667 29.3333333,8.648 29.3333333,16 C29.3333333,23.352 23.352,29.3333333 16,29.3333333 C8.648,29.3333333 2.66666667,23.352 2.66666667,16 C2.66666667,8.648 8.648,2.66666667 16,2.66666667 Z M16,4.71794872 C9.77907692,4.71794872 4.71794872,9.77907692 4.71794872,16 C4.71794872,22.2209231 9.77907692,27.2820513 16,27.2820513 C22.2209231,27.2820513 27.2820513,22.2209231 27.2820513,16 C27.2820513,9.77907692 22.2209231,4.71794872 16,4.71794872 Z M21.7723577,7.78861789 L21.7723577,9.19947798 L18.303523,9.19947798 C19.1870779,9.79993332 19.7694572,10.6741027 19.9927996,11.8219862 L20.0379404,12.0917412 L21.7723577,12.0917412 L21.7723577,13.5026013 L20.0620295,13.5026013 C19.8167584,16.0906032 17.9066165,17.7057293 14.7599193,17.8012392 L14.4613068,17.8057246 L13.6061427,17.8057246 L20.519723,24.0487805 L17.6049383,24.0487805 L10.7154472,17.8057246 L10.7154472,15.9245778 L14.1963264,15.9245778 C16.2740139,15.9245778 17.4446368,15.1687307 17.7611996,13.6984282 L17.7976513,13.5026013 L10.7154472,13.5026013 L10.7154472,12.0917412 L17.7976513,12.0917412 C17.5548329,10.5341516 16.4683939,9.73504047 14.4530842,9.67360372 L14.1963264,9.66976468 L10.7154472,9.66976468 L10.7154472,7.78861789 L21.7723577,7.78861789 Z" id="Shape"></path>
                </g>
            </g>
        </g>
    </g>
</svg>