<?xml version="1.0" encoding="UTF-8"?>
<svg width="24px" height="25px" viewBox="0 0 24 25" version="1.1" xmlns="http://www.w3.org/2000/svg" xmlns:xlink="http://www.w3.org/1999/xlink">
    <title>avatar copy 7</title>
    <g id="Page-1" stroke="none" stroke-width="1" fill="none" fill-rule="evenodd">
        <g id="Service-Request02" transform="translate(-131.000000, -784.000000)">
            <g id="Group-84" transform="translate(131.000000, 785.000000)">
                <rect id="Rectangle-Copy-11" x="0" y="0" width="24" height="24"></rect>
                <g id="Group-23" transform="translate(3.000000, 0.000000)" fill="#FFFFFF" fill-rule="nonzero" stroke="#FFFFFF" stroke-width="0.679799947">
                    <path d="M17.9667179,14.9310127 L17.5250477,14.9310127 C16.7772837,14.9316248 16.0420704,15.1232757 15.3891826,15.4878149 L12.1636911,17.2913881 L11.2437181,17.2913881 C11.0226006,16.0830185 9.97021971,15.2048323 8.74178634,15.2035871 L2.93226445,15.2035871 C2.79830982,15.2036608 2.67117229,15.2626686 2.58464402,15.3649266 L0.824458395,17.4511688 L0.0479094818,17.4511688 L7.73781e-13,23.0406636 C0.0803889736,23.0406636 0.392360696,23.0241997 0.935915168,22.9912719 L10.2078716,22.5657097 C10.2169648,22.5657097 10.2257982,22.5657097 10.2338522,22.5636312 C11.6920285,22.4081124 13.0558207,21.7677055 14.1067802,20.7449892 L18.5642717,16.3986947 C18.8138107,16.1563556 18.8911281,15.7867331 18.7596458,15.4646922 C18.6292974,15.1414273 18.3152719,14.9300878 17.9667179,14.9310127 Z M13.4728535,20.0952144 C12.5715114,20.9719478 11.4028356,21.5220366 10.1527927,21.6579475 L0.936954391,22.0811715 L0.936954391,18.7296741 L3.14530536,16.1131679 L8.74178634,16.1131679 C9.50927264,16.1148321 10.1725352,16.6495471 10.3369952,17.3992076 L5.72985542,18.5301431 C5.50688747,18.5851803 5.35997269,18.7978545 5.38740859,19.02587 C5.41484449,19.2538855 5.60801545,19.4256391 5.83767491,19.426214 C5.87436626,19.4262623 5.91092517,19.4218124 5.94653362,19.4129639 L10.8844064,18.2007091 L12.2821627,18.2007091 C12.3598347,18.2007623 12.4362238,18.1809047 12.504037,18.1430322 L15.833191,16.2815222 C16.3503329,15.9924001 16.9328321,15.8403583 17.5253075,15.839852 L17.8370747,15.839852 L13.4728535,20.0952144 Z" id="Shape"></path>
                    <path d="M9.87843758,13.4766567 C13.5999136,13.4766567 16.6167659,10.4598043 16.6167659,6.73832833 C16.6167659,3.01685236 13.5999136,-8.33573168e-13 9.87843758,-8.33573168e-13 C6.1569616,-8.33573168e-13 3.14010924,3.01685236 3.14010924,6.73832833 C3.14440434,10.4580238 6.15874214,13.4723616 9.87843758,13.4766567 L9.87843758,13.4766567 Z M9.87843758,0.909320989 C13.0977094,0.909320989 15.7074449,3.51905647 15.7074449,6.73832833 C15.7074449,9.95760019 13.0977094,12.5673357 9.87843758,12.5673357 C6.65916571,12.5673357 4.04943023,9.95760019 4.04943023,6.73832833 C4.05315264,3.5205996 6.66070885,0.913043393 9.87843758,0.909320989 Z" id="Shape"></path>
                </g>
                <path d="M15.0516289,9.8565479 L13.2186164,7.5353031 C13.0216104,7.28690421 12.8845627,7.13272559 12.8160389,7.07276723 C13.2700093,6.97854697 13.6383249,6.79867191 13.9124202,6.52457658 C14.1179917,6.31043961 14.2379084,6.05347524 14.2893013,5.745118 L15.2058075,5.745118 L15.3856826,5.2140583 L14.3064322,5.2140583 C14.2636048,4.83717723 14.1351226,4.52881998 13.9295511,4.27185562 L15.2058075,4.27185562 L15.3771171,3.74079592 L11.351342,3.74079592 L11.1714669,4.27185562 L12.0622767,4.27185562 C12.4905507,4.27185562 12.8160389,4.36607588 13.0387413,4.5630819 C13.2186164,4.71726052 13.3299676,4.9313975 13.372795,5.2140583 L11.3599075,5.2140583 L11.1885979,5.745118 L13.3556641,5.745118 C13.3042712,5.96782045 13.1843545,6.15626099 12.9959139,6.29330865 C12.7218186,6.48174919 12.3106756,6.58453493 11.7710505,6.58453493 L11.2485562,6.58453493 L11.2485562,7.2098149 C11.4541277,7.2098149 11.6425683,7.26977325 11.8138778,7.38112448 C11.959491,7.48391022 12.1051041,7.62952337 12.2507173,7.82652938 L13.783938,9.8565479 L15.0516289,9.8565479 Z" id="₹" fill="#FFFFFF" fill-rule="nonzero"></path>
            </g>
        </g>
    </g>
</svg>
