<svg width="24" height="24" viewBox="0 0 24 24" fill="none" xmlns="http://www.w3.org/2000/svg">
<path fill-rule="evenodd" clip-rule="evenodd" d="M22.89 11.7325L19.8881 8.72972V4.48382C19.8881 4.27625 19.7198 4.10825 19.5126 4.10825H15.2673L12.2656 1.10572C12.1247 0.964759 11.8753 0.964759 11.7347 1.10572L8.73273 4.10825H4.48743C4.28016 4.10825 4.11194 4.27625 4.11194 4.48382V8.72972L1.11002 11.7325C0.963327 11.879 0.963327 12.1171 1.11002 12.2636L4.11194 15.2661V19.512C4.11194 19.7196 4.28016 19.8876 4.48743 19.8876H8.73273L11.7344 22.8901C11.8047 22.9604 11.9004 23 12 23C12.0996 23 12.195 22.9604 12.2656 22.8901L15.2673 19.8876H19.5126C19.7198 19.8876 19.8881 19.7196 19.8881 19.512V15.2661L22.89 12.2636C23.0367 12.1168 23.0367 11.879 22.89 11.7325Z" stroke="#787878"/>
<path fill-rule="evenodd" clip-rule="evenodd" d="M19.247 14.845C19.1766 14.9153 19.1371 15.011 19.1371 15.1106V19.1364H15.1118C15.0124 19.1364 14.9168 19.176 14.8462 19.2463L12 22.0934L9.15378 19.2463C9.08343 19.176 8.98781 19.1364 8.88818 19.1364H4.86292V15.1106C4.86292 15.011 4.82337 14.9156 4.75303 14.845L1.90656 11.9979L4.75303 9.15087C4.82337 9.08051 4.86292 8.98487 4.86292 8.88522V4.8594H8.88818C8.98756 4.8594 9.08318 4.81984 9.15378 4.74948L12 1.90244L14.8462 4.74948C14.9166 4.81984 15.0122 4.8594 15.1118 4.8594H19.1371V8.88547C19.1371 8.98512 19.1766 9.08051 19.247 9.15112L22.0934 11.9982L19.247 14.845Z" stroke="#787878"/>
<path fill-rule="evenodd" clip-rule="evenodd" d="M15.7394 8.63358L7.80202 14.7678C7.63805 14.8945 7.60776 15.1306 7.73443 15.2946C7.80827 15.3905 7.91942 15.4406 8.03182 15.4406C8.11192 15.4406 8.19303 15.4151 8.26112 15.3622L16.1985 9.22798C16.3625 9.10129 16.3927 8.86518 16.2661 8.70118C16.1392 8.53669 15.9031 8.50689 15.7394 8.63358Z" stroke="#787878"/>
<path fill-rule="evenodd" clip-rule="evenodd" d="M10.3163 10.5019C10.7987 10.5019 11.2518 10.3141 11.5927 9.97284C11.9336 9.63183 12.1214 9.17839 12.1216 8.69642C12.1216 8.21394 11.9339 7.7605 11.593 7.41974C11.252 7.07848 10.7987 6.89044 10.3163 6.89044C9.83415 6.89044 9.38081 7.07823 9.03962 7.41949C8.69867 7.7605 8.51093 8.21394 8.51093 8.69617C8.51093 9.17839 8.69867 9.63183 9.03962 9.97284C9.38081 10.3139 9.83415 10.5019 10.3163 10.5019Z" stroke="#787878"/>
<path fill-rule="evenodd" clip-rule="evenodd" d="M9.57083 7.95054C9.77009 7.75124 10.0349 7.64157 10.3166 7.64157C10.5982 7.64157 10.8628 7.75124 11.062 7.95079C11.2613 8.14984 11.3709 8.41474 11.3709 8.69616C11.3709 8.97784 11.2613 9.24249 11.0618 9.44204C10.8628 9.64134 10.5979 9.751 10.3166 9.751C10.0349 9.751 9.77009 9.64134 9.57083 9.44179C9.37157 9.24274 9.26218 8.97809 9.26218 8.69641C9.26218 8.41474 9.37157 8.14984 9.57083 7.95054Z" stroke="#787878"/>
<path fill-rule="evenodd" clip-rule="evenodd" d="M13.6837 13.4942C13.2013 13.4942 12.7482 13.682 12.4073 14.0232C12.0663 14.3642 11.8786 14.8177 11.8783 15.2996C11.8783 15.7821 12.0661 16.2356 12.407 16.5763C12.748 16.9176 13.2013 17.1056 13.6837 17.1056C14.1661 17.1056 14.6194 16.9178 14.9604 16.5766C15.3013 16.2356 15.489 15.7821 15.489 15.2999C15.489 14.8177 15.3013 14.3642 14.9604 14.0235C14.6192 13.682 14.1658 13.4942 13.6837 13.4942Z" stroke="#787878"/>
<path fill-rule="evenodd" clip-rule="evenodd" d="M14.4292 16.0452C14.2299 16.2445 13.9651 16.3542 13.6834 16.3542C13.4018 16.3542 13.1372 16.2445 12.938 16.045C12.7387 15.8459 12.6291 15.581 12.6291 15.2996C12.6291 15.0179 12.7387 14.7533 12.9382 14.5537C13.1372 14.3544 13.4021 14.2448 13.6834 14.2448C13.9651 14.2448 14.2299 14.3544 14.4292 14.554C14.6284 14.753 14.7378 15.0177 14.7378 15.2994C14.7381 15.5813 14.6282 15.8462 14.4292 16.0452Z" stroke="#787878"/>
</svg>
