<?xml version="1.0" encoding="UTF-8"?>
<svg width="48px" height="48px" viewBox="0 0 48 48" version="1.1" xmlns="http://www.w3.org/2000/svg" xmlns:xlink="http://www.w3.org/1999/xlink">
    <title>Group 10</title>
    <defs>
        <polygon id="path-1" points="0.0001 0 48 0 48 48 0.0001 48"></polygon>
    </defs>
    <g id="Page-1" stroke="none" stroke-width="1" fill="none" fill-rule="evenodd">
        <g id="Schedule_of_Charges_Desktop-Copy" transform="translate(-514.000000, -1988.000000)">
            <g id="Group-30" transform="translate(0.000000, 1949.000000)">
                <g id="Support-Section" transform="translate(114.000000, 0.000000)">
                    <g id="Group-10" transform="translate(400.000000, 39.000000)">
                        <path d="M34.2598,28.8052 C33.9188,28.5002 33.4808,28.3452 33.0238,28.3722 C32.5678,28.3972 32.1488,28.5992 31.8448,28.9392 C29.8638,31.1522 27.0048,32.4222 23.9998,32.4222 C20.9948,32.4222 18.1368,31.1522 16.1548,28.9382 C15.5248,28.2372 14.4428,28.1782 13.7408,28.8052 C13.0388,29.4322 12.9788,30.5152 13.6078,31.2202 C16.2368,34.1572 20.0248,35.8422 23.9998,35.8422 C27.9758,35.8422 31.7638,34.1572 34.3938,31.2192 C35.0208,30.5162 34.9608,29.4332 34.2598,28.8052" id="Fill-1" fill="#787878"></path>
                        <g id="Group-5">
                            <mask id="mask-2" fill="white">
                                <use xlink:href="#path-1"></use>
                            </mask>
                            <g id="Clip-4"></g>
                            <path d="M44.5801,24 C44.5801,35.348 35.3481,44.581 24.0001,44.581 C12.6521,44.581 3.4201,35.348 3.4201,24 C3.4201,12.652 12.6521,3.419 24.0001,3.419 C35.3481,3.419 44.5801,12.652 44.5801,24 M24.0001,0 C10.7671,0 0.0001,10.766 0.0001,24 C0.0001,37.233 10.7671,48 24.0001,48 C37.2331,48 48.0001,37.233 48.0001,24 C48.0001,10.766 37.2331,0 24.0001,0" id="Fill-3" fill="#787878" mask="url(#mask-2)"></path>
                        </g>
                        <path d="M32.1055,16.2109 C28.9275,16.2109 26.3425,18.7959 26.3425,21.9739 C26.3425,22.9169 27.1105,23.6839 28.0525,23.6839 C28.9955,23.6839 29.7625,22.9169 29.7625,21.9739 C29.7625,20.6819 30.8135,19.6299 32.1055,19.6299 C33.3975,19.6299 34.4485,20.6819 34.4485,21.9739 C34.4485,22.9169 35.2155,23.6839 36.1585,23.6839 C37.1015,23.6839 37.8685,22.9169 37.8685,21.9739 C37.8685,18.7959 35.2835,16.2109 32.1055,16.2109" id="Fill-6" fill="#787878"></path>
                        <path d="M15.8945,19.6304 C17.1865,19.6304 18.2375,20.6814 18.2375,21.9734 C18.2375,22.9164 19.0045,23.6834 19.9475,23.6834 C20.8895,23.6834 21.6575,22.9164 21.6575,21.9734 C21.6575,18.7964 19.0725,16.2114 15.8945,16.2114 C12.7165,16.2114 10.1315,18.7964 10.1315,21.9734 C10.1315,22.9164 10.8985,23.6834 11.8415,23.6834 C12.7845,23.6834 13.5515,22.9164 13.5515,21.9734 C13.5515,20.6814 14.6025,19.6304 15.8945,19.6304" id="Fill-8" fill="#787878"></path>
                    </g>
                </g>
            </g>
        </g>
    </g>
</svg>