<?xml version="1.0" encoding="UTF-8"?>
<svg width="48px" height="48px" viewBox="0 0 48 48" version="1.1" xmlns="http://www.w3.org/2000/svg" xmlns:xlink="http://www.w3.org/1999/xlink">
    <title>Group 9</title>
    <g id="Page-1" stroke="none" stroke-width="1" fill="none" fill-rule="evenodd">
        <g id="Schedule_of_Charges_Desktop-Copy" transform="translate(-223.000000, -1988.000000)" fill="#787878">
            <g id="Group-30" transform="translate(0.000000, 1949.000000)">
                <g id="Support-Section" transform="translate(114.000000, 0.000000)">
                    <g id="Group-34" transform="translate(109.000000, 39.000000)">
                        <g id="Group-9">
                            <path d="M23.9998375,28.5 C20.1505485,28.5 16.4818611,30.1702222 13.9336594,33.0832986 C13.3069884,33.8015366 13.3667004,34.9093932 14.0661493,35.5523825 C14.3793627,35.8410026 14.7848916,35.999875 15.2078823,35.999875 C15.6947368,35.999875 16.1592451,35.7871285 16.4814947,35.4171347 C18.3810455,33.2455459 21.1213269,31.9999417 23.9998375,31.9999417 C26.8792028,31.9999417 29.6194842,33.2454209 31.5175696,35.4165097 C31.8217469,35.7648789 32.2402195,35.9712505 32.6963022,35.99725 C32.7287836,35.999 32.761265,36 32.7937463,36 C33.2149054,35.999875 33.6159163,35.8433776 33.9321824,35.5536324 C34.6335851,34.9106432 34.6935413,33.8024116 34.065405,33.0826736 C31.5180581,30.1702222 27.8492485,28.5 23.9998375,28.5" id="Fill-1"></path>
                            <path d="M24,44.4631579 C12.7165895,44.4631579 3.53684211,35.2834105 3.53684211,24 C3.53684211,12.7165895 12.7165895,3.53684211 24,3.53684211 C35.2834105,3.53684211 44.4631579,12.7165895 44.4631579,24 C44.4631579,35.2834105 35.2834105,44.4631579 24,44.4631579 M24,0 C10.7664,0 0,10.7664 0,24 C0,37.2337263 10.7664,48 24,48 C37.2337263,48 48,37.2337263 48,24 C48,10.7664 37.2337263,0 24,0" id="Fill-3"></path>
                            <path d="M35.673913,16.5 C34.6669565,16.5 33.8478261,17.285 33.8478261,18.25 C33.8478261,19.490625 32.7945652,20.5 31.5,20.5 C30.2054348,20.5 29.1521739,19.490625 29.1521739,18.25 C29.1521739,17.285 28.3330435,16.5 27.326087,16.5 C26.3191304,16.5 25.5,17.285 25.5,18.25 C25.5,21.4205 28.1916522,24 31.5,24 C34.8083478,24 37.5,21.4205 37.5,18.25 C37.5,17.285 36.6808696,16.5 35.673913,16.5" id="Fill-5"></path>
                            <path d="M22.5,18.25 C22.5,17.285 21.6808696,16.5 20.673913,16.5 C19.6669565,16.5 18.8478261,17.285 18.8478261,18.25 C18.8478261,19.490625 17.7945652,20.5 16.5,20.5 C15.2054348,20.5 14.1521739,19.490625 14.1521739,18.25 C14.1521739,17.285 13.3330435,16.5 12.326087,16.5 C11.3191304,16.5 10.5,17.285 10.5,18.25 C10.5,21.4205 13.1916522,24 16.5,24 C19.8083478,24 22.5,21.4205 22.5,18.25" id="Fill-7"></path>
                        </g>
                    </g>
                </g>
            </g>
        </g>
    </g>
</svg>