<?xml version="1.0" encoding="UTF-8"?>
<svg width="52px" height="46px" viewBox="0 0 52 46" version="1.1" xmlns="http://www.w3.org/2000/svg" xmlns:xlink="http://www.w3.org/1999/xlink">
    <title>Group 13</title>
    <defs>
        <polygon id="path-1" points="0 0.620093023 38.4962651 0.620093023 38.4962651 39.9996279 0 39.9996279"></polygon>
        <polygon id="path-3" points="0.101908108 0 33.8979081 0 33.8979081 28.0001485 0.101908108 28.0001485"></polygon>
    </defs>
    <g id="Page-1" stroke="none" stroke-width="1" fill="none" fill-rule="evenodd">
        <g id="Schedule_of_Charges_Desktop-Copy" transform="translate(-1094.000000, -1989.000000)">
            <g id="Group-30" transform="translate(0.000000, 1949.000000)">
                <g id="Support-Section" transform="translate(114.000000, 0.000000)">
                    <g id="Group-13" transform="translate(980.000000, 40.000000)">
                        <path d="M28.5,9 C29.3278344,9 30,9.67126575 30,10.5 C30,11.3287343 29.3278344,12 28.5,12 C27.6712657,12 27,11.3287343 27,10.5 C27,9.67126575 27.6712657,9 28.5,9" id="Fill-1" fill="#787878"></path>
                        <path d="M35.50045,9 C36.3285329,9 37,9.67126575 37,10.5 C37,11.3287343 36.3285329,12 35.50045,12 C34.6714671,12 34,11.3287343 34,10.5 C34,9.67126575 34.6714671,9 35.50045,9" id="Fill-3" fill="#787878"></path>
                        <path d="M41.49955,9 C42.3285329,9 43,9.67126575 43,10.5 C43,11.3287343 42.3285329,12 41.49955,12 C40.6714671,12 40,11.3287343 40,10.5 C40,9.67126575 40.6714671,9 41.49955,9" id="Fill-5" fill="#787878"></path>
                        <g id="Group-9" transform="translate(0.000000, 6.000000)">
                            <mask id="mask-2" fill="white">
                                <use xlink:href="#path-1"></use>
                            </mask>
                            <g id="Clip-8"></g>
                            <path d="M4.53452093,3.72055814 L9.49296279,3.72055814 L11.9363581,11.2219535 L9.32335814,15.2424186 C9.04763721,15.6666047 8.9932186,16.2033488 9.17824186,16.6777674 C10.1840791,19.2545116 12.1948465,22.1540465 14.8423116,24.8405581 C17.4725442,27.5084651 20.3122884,29.5503256 22.8400326,30.5866047 C23.3016837,30.7763721 23.8259163,30.7196279 24.2404047,30.4377674 L28.1594512,27.7577674 L35.4724047,30.263814 L35.4724047,35.3484651 C35.4724047,36.2182326 34.8184744,36.8991628 33.9831488,36.8991628 C18.0693349,36.8991628 3.02349767,21.5177674 3.02349767,5.24986047 C3.02349767,4.39218605 3.68649767,3.72055814 4.53452093,3.72055814 M33.9831488,39.9996279 C36.470986,39.9996279 38.4962651,37.9140465 38.4962651,35.3484651 L38.4962651,29.1475349 C38.4962651,28.4796279 38.0799628,27.888 37.4641256,27.6768372 L28.4152186,24.5763721 C27.972614,24.4247442 27.4864744,24.4907907 27.0973814,24.755907 L23.249986,27.3875349 C19.1205209,25.3773023 14.2391721,20.4154419 12.2982419,16.2563721 L14.8622651,12.3103256 C15.1216605,11.9131163 15.1860558,11.4135814 15.0382186,10.9596279 L12.0152651,1.67962791 C11.8093814,1.04613953 11.2316372,0.620093023 10.5813349,0.620093023 L4.53452093,0.620093023 C2.03398605,0.620093023 -0.000362790698,2.69637209 -0.000362790698,5.24986047 C-0.000362790698,13.8154419 3.79805581,22.6070698 10.418986,29.3698605 C17.0335674,36.1252093 25.6217302,39.9996279 33.9831488,39.9996279" id="Fill-7" fill="#787878" mask="url(#mask-2)"></path>
                        </g>
                        <g id="Group-12" transform="translate(18.000000, 0.000000)">
                            <mask id="mask-4" fill="white">
                                <use xlink:href="#path-3"></use>
                            </mask>
                            <g id="Clip-11"></g>
                            <path d="M3.16558378,10.8888267 C3.16558378,6.60016 6.6005027,3.11136 10.8229351,3.11136 L23.0748811,3.11136 C27.3533676,3.11136 30.8342324,6.60016 30.8342324,10.8888267 C30.8342324,15.1774933 27.3533676,18.6662933 23.0748811,18.6662933 L16.9493676,18.6662933 C16.5432054,18.6662933 16.1535838,18.83056 15.8659622,19.12176 L12.354773,22.68896 L12.354773,20.22216 C12.354773,19.36256 11.6683405,18.6662933 10.8229351,18.6662933 C6.6005027,18.6662933 3.16558378,15.1774933 3.16558378,10.8888267 M10.2366649,27.8810933 C10.8082324,28.1228267 11.4680162,27.98936 11.9063405,27.5450933 L17.5825027,21.7780267 L23.0748811,21.7780267 C29.0423405,21.7780267 33.8979081,16.89296 33.8979081,10.8888267 C33.8979081,4.88469333 29.0423405,-0.000373333333 23.0748811,-0.000373333333 L10.8229351,-0.000373333333 C4.91061081,-0.000373333333 0.101908108,4.88469333 0.101908108,10.8888267 C0.101908108,16.3646933 4.10288108,20.9090933 9.2910973,21.66696 L9.2910973,26.4446933 C9.2910973,27.07376 9.66417838,27.6402933 10.2366649,27.8810933" id="Fill-10" fill="#787878" mask="url(#mask-4)"></path>
                        </g>
                    </g>
                </g>
            </g>
        </g>
    </g>
</svg>