<?xml version="1.0" encoding="UTF-8"?>
<svg width="29px" height="32px" viewBox="0 0 29 32" version="1.1" xmlns="http://www.w3.org/2000/svg" xmlns:xlink="http://www.w3.org/1999/xlink">
    <title>Group 12</title>
    <defs>
        <polygon id="path-1" points="0.0541228702 0.0015015263 14.8149891 0.0015015263 14.8149891 14.9999937 0.0541228702 14.9999937"></polygon>
    </defs>
    <g id="Page-1" stroke="none" stroke-width="1" fill="none" fill-rule="evenodd">
        <g id="Complaints-" transform="translate(-140.000000, -2032.000000)">
            <g id="Group-12" transform="translate(140.000000, 2032.000000)">
                <path d="M19.879939,13.75 C19.879939,13.059625 19.3337255,12.5 18.6598954,12.5 L6.09344662,12.5 C5.41961656,12.5 4.87340305,13.059625 4.87340305,13.75 C4.87340305,14.440375 5.41961656,15 6.09344662,15 L18.6598954,15 C19.3337255,15 19.879939,14.440375 19.879939,13.75" id="Fill-1" fill="#FFFFFF"></path>
                <path d="M6.09344662,17.5 C5.41961656,17.5 4.87340305,18.059625 4.87340305,18.75 C4.87340305,19.440375 5.41961656,20 6.09344662,20 L13.7254902,20 C14.3993203,20 14.9455338,19.440375 14.9455338,18.75 C14.9455338,18.059625 14.3993203,17.5 13.7254902,17.5 L6.09344662,17.5 Z" id="Fill-3" fill="#FFFFFF"></path>
                <path d="M8.96054902,29.5 L4.88017429,29.5 C3.53471024,29.5 2.44008715,28.3785 2.44008715,27 L2.44008715,5 C2.44008715,3.6215 3.53471024,2.5 4.88017429,2.5 L19.879939,2.5 C21.2254031,2.5 22.3200261,3.6215 22.3200261,5 L22.3200261,12.6875 C22.3200261,13.377875 22.8662397,13.9375 23.5400697,13.9375 C24.2138998,13.9375 24.7601133,13.377875 24.7601133,12.6875 L24.7601133,5 C24.7601133,2.243 22.5708671,0 19.879939,0 L4.88017429,0 C2.18924619,0 0,2.243 0,5 L0,27 C0,29.757 2.18924619,32 4.88017429,32 L8.96054902,32 C9.63437908,32 10.1805926,31.440375 10.1805926,30.75 C10.1805926,30.059625 9.63437908,29.5 8.96054902,29.5" id="Fill-5" fill="#FFFFFF"></path>
                <g id="Group-9" transform="translate(13.176471, 17.000000)">
                    <mask id="mask-2" fill="white">
                        <use xlink:href="#path-1"></use>
                    </mask>
                    <g id="Clip-8"></g>
                    <path d="M12.0201865,4.63311875 L11.7838031,4.87480625 L10.0583564,3.10699375 L10.2939468,2.86618125 C10.7696418,2.37874375 11.5436375,2.37874375 12.0192715,2.86618125 C12.4950275,3.35349375 12.4950275,4.14649375 12.0201865,4.63311875 L12.0201865,4.63311875 Z M5.56377691,11.2354938 L3.08635643,11.9386188 L3.81136732,9.49305625 L8.33089673,4.87274375 L10.0566484,6.64086875 L5.56377691,11.2354938 Z M13.7446571,1.09824375 C12.3175721,-0.36388125 9.99558519,-0.36394375 8.56941525,1.09724375 L1.87119303,7.94474375 C1.72893595,8.09018125 1.6240122,8.26930625 1.56557211,8.46630625 L0.106827015,13.3866188 C-0.0224976035,13.8228687 0.0901734205,14.2965562 0.400918519,14.6228687 C0.633702832,14.8673062 0.949877124,14.9999937 1.27428671,14.9999937 C1.38280959,14.9999937 1.4923695,14.9851187 1.59991634,14.9546187 L6.52431721,13.5569938 C6.72696645,13.4994937 6.91168105,13.3893062 7.06052636,13.2370562 L13.7447181,6.40161875 C15.1718031,4.93949375 15.1718031,2.56049375 13.7446571,1.09824375 L13.7446571,1.09824375 Z" id="Fill-7" fill="#FFFFFF" mask="url(#mask-2)"></path>
                </g>
                <path d="M18.6598954,7.5 L6.09344662,7.5 C5.41961656,7.5 4.87340305,8.059625 4.87340305,8.75 C4.87340305,9.440375 5.41961656,10 6.09344662,10 L18.6598954,10 C19.3337255,10 19.879939,9.440375 19.879939,8.75 C19.879939,8.059625 19.3337255,7.5 18.6598954,7.5" id="Fill-10" fill="#FFFFFF"></path>
            </g>
        </g>
    </g>
</svg>