<svg width="26" height="24" viewBox="0 0 26 24" fill="none" xmlns="http://www.w3.org/2000/svg">
<path d="M12.3582 1.84314V0.84314H11.3582V1.84314H12.3582ZM12.3582 19.1568H11.3582V20.1568H12.3582V19.1568ZM13.3582 1.84314H14.3582V0.84314H13.3582V1.84314ZM13.3582 19.1568V20.1568H14.3582V19.1568H13.3582ZM1.35815 21.5V20.5H0.358154V21.5H1.35815ZM24.3582 21.5H25.3582V20.5H24.3582V21.5ZM24.3582 22.5V23.5H25.3582V22.5H24.3582ZM1.35815 22.5H0.358154V23.5H1.35815V22.5ZM11.3582 1.84314V19.1568H13.3582V1.84314H11.3582ZM13.3582 0.84314H12.3582V2.84314H13.3582V0.84314ZM14.3582 19.1568V1.84314H12.3582V19.1568H14.3582ZM12.3582 20.1568H13.3582V18.1568H12.3582V20.1568ZM1.85815 20.5H1.35815V22.5H1.85815V20.5ZM23.8582 20.5H1.85815V22.5H23.8582V20.5ZM24.3582 20.5H23.8582V22.5H24.3582V20.5ZM25.3582 22.5V21.5H23.3582V22.5H25.3582ZM23.8582 23.5H24.3582V21.5H23.8582V23.5ZM1.85815 23.5H23.8582V21.5H1.85815V23.5ZM1.35815 23.5H1.85815V21.5H1.35815V23.5ZM0.358154 21.5V22.5H2.35815V21.5H0.358154Z" fill="#787878"/>
<path d="M18.8582 13.5L12.8582 19.5L6.85815 13.5" stroke="#787878" stroke-width="2"/>
</svg>
