<svg width="24" height="24" viewBox="0 0 24 24" fill="none" xmlns="http://www.w3.org/2000/svg">
<path d="M12.0001 8.79971C14.4261 8.79971 16.4 6.82583 16.4 4.39985C16.4 1.97388 14.4261 0 12.0001 0C9.5741 0 7.60022 1.97388 7.60022 4.39985C7.60022 6.82583 9.5741 8.79971 12.0001 8.79971ZM12.0001 0.799974C13.9849 0.799974 15.6 2.4151 15.6 4.39985C15.6 6.38461 13.9849 7.99974 12.0001 7.99974C10.0153 7.99974 8.4002 6.38461 8.4002 4.39985C8.4002 2.4151 10.0153 0.799974 12.0001 0.799974Z" fill="#787878"/>
<path d="M12.0001 15.1998C9.5741 15.1998 7.60022 17.1737 7.60022 19.5997C7.60022 22.0257 9.5741 23.9996 12.0001 23.9996C14.4261 23.9996 16.4 22.0257 16.4 19.5997C16.4 17.1737 14.4261 15.1998 12.0001 15.1998ZM12.0001 23.1996C10.0153 23.1996 8.4002 21.5845 8.4002 19.5997C8.4002 17.6149 10.0153 15.9998 12.0001 15.9998C13.9849 15.9998 15.6 17.6149 15.6 19.5997C15.6 21.5845 13.9849 23.1996 12.0001 23.1996Z" fill="#787878"/>
<path d="M19.5996 7.59949C17.1737 7.59949 15.1998 9.57336 15.1998 11.9993C15.1998 14.4253 17.1737 16.3992 19.5996 16.3992C22.0256 16.3992 23.9995 14.4253 23.9995 11.9993C23.9995 9.57336 22.0256 7.59949 19.5996 7.59949ZM19.5996 15.5992C17.6149 15.5992 15.9997 13.9841 15.9997 11.9993C15.9997 10.0146 17.6149 8.39946 19.5996 8.39946C21.5844 8.39946 23.1995 10.0146 23.1995 11.9993C23.1995 13.9841 21.5844 15.5992 19.5996 15.5992Z" fill="#787878"/>
<path d="M4.40059 16.3992C6.82658 16.3992 8.80046 14.4253 8.80046 11.9993C8.80046 9.57336 6.82658 7.59949 4.40059 7.59949C1.97461 7.59949 0.000732422 9.57336 0.000732422 11.9993C0.000732422 14.4253 1.97461 16.3992 4.40059 16.3992ZM4.40059 8.39946C6.38535 8.39946 8.00048 10.0146 8.00048 11.9993C8.00048 13.9841 6.38535 15.5992 4.40059 15.5992C2.41583 15.5992 0.800707 13.9841 0.800707 11.9993C0.800707 10.0146 2.41583 8.39946 4.40059 8.39946Z" fill="#787878"/>
<path d="M12 5.59973C11.7796 5.59973 11.6 5.42009 11.6 5.19974H10.8C10.8 5.72046 11.1356 6.16045 11.6 6.32615V7.19968H12.4V6.32615C12.8644 6.16062 13.1999 5.72064 13.1999 5.19974C13.1999 4.53814 12.6616 3.99978 12 3.99978C11.7796 3.99978 11.6 3.82014 11.6 3.59979C11.6 3.37944 11.7796 3.1998 12 3.1998C12.2203 3.1998 12.4 3.37944 12.4 3.59979H13.1999C13.1999 3.07908 12.8644 2.63909 12.4 2.47338V1.59985H11.6V2.47338C11.1356 2.63909 10.8 3.07908 10.8 3.59979C10.8 4.26139 11.3384 4.79976 12 4.79976C12.2203 4.79976 12.4 4.97939 12.4 5.19974C12.4 5.42009 12.2203 5.59973 12 5.59973Z" fill="#FFCB05"/>
<path d="M2.80008 14.3988H5.99998V13.5988H3.75525C3.97363 13.3528 4.15649 13.0833 4.30847 12.7989H5.20005V11.9989H4.6365C4.74328 11.6273 4.80007 11.2389 4.80007 10.8418C4.80007 10.627 4.94489 10.4351 5.13006 10.4047C5.25077 10.3854 5.36845 10.417 5.45934 10.4943C5.5488 10.5702 5.60005 10.6813 5.60005 10.799H6.40002C6.40002 10.4467 6.2461 10.1135 5.97718 9.88453C5.70879 9.65579 5.35237 9.55687 5.00166 9.6149C4.43043 9.70829 4.00009 10.2354 4.00009 10.8418C4.00009 11.2434 3.92652 11.6331 3.79206 11.9989H3.20013V12.7989H3.3678C3.26227 12.9457 3.14709 13.0869 3.01656 13.2173L2.51783 13.716C2.40337 13.8304 2.36909 14.0024 2.43105 14.152C2.49248 14.3011 2.63855 14.3988 2.80015 14.3988L2.80008 14.3988Z" fill="#FFCB05"/>
<path d="M13.8823 17.8826L13.3166 17.3169L11.9995 18.6342L10.6825 17.3169L10.1168 17.8826L11.5996 19.3653V20.3997H10.3996V21.1997H11.5996V22.3996H12.3996V21.1997H13.5996V20.3997H12.3996V19.3653L13.8823 17.8826Z" fill="#FFCB05"/>
<path d="M19.5995 10.3986H19.9995C20.2199 10.3986 20.3995 10.5782 20.3995 10.7986H21.1995C21.1995 10.137 20.6611 9.59863 19.9995 9.59863H19.5995C18.9379 9.59863 18.3996 10.137 18.3996 10.7986H17.9996V11.5986H18.3996V12.3985H17.9996V13.1985H18.3996C18.3996 13.8601 18.9379 14.3985 19.5995 14.3985H19.9995C20.6611 14.3985 21.1995 13.8601 21.1995 13.1985H20.3995C20.3995 13.4189 20.2199 13.5985 19.9995 13.5985H19.5995C19.3792 13.5985 19.1995 13.4189 19.1995 13.1985H19.9995V12.3985H19.1995V11.5986H19.9995V10.7986H19.1995C19.1995 10.5782 19.3792 10.3986 19.5995 10.3986Z" fill="#FFCB05"/>
<path d="M19.6314 4.93345C19.465 4.75381 19.2921 4.57989 19.1134 4.41223L18.5662 4.9958C18.7314 5.15062 18.891 5.31097 19.0446 5.47702L19.6314 4.93345Z" fill="#787878"/>
<path d="M18.562 3.92927C18.372 3.77446 18.1768 3.62696 17.9759 3.48572L17.5163 4.14051C17.7015 4.27051 17.8818 4.40728 18.057 4.54978L18.562 3.92927Z" fill="#787878"/>
<path d="M19.897 6.5343L20.5547 6.07824C20.4147 5.87663 20.2679 5.68022 20.1147 5.4895L19.4911 5.99074C19.6326 6.16717 19.7683 6.34877 19.897 6.53432L19.897 6.5343Z" fill="#787878"/>
<path d="M6.53685 4.10769L6.08044 3.45056C5.87919 3.59056 5.68277 3.73734 5.49207 3.89055L5.99276 4.51444C6.16936 4.37248 6.35096 4.23695 6.53683 4.10767L6.53685 4.10769Z" fill="#787878"/>
<path d="M5.47339 4.9564L4.92951 4.37C4.74988 4.53677 4.57596 4.70963 4.40881 4.88801L4.99237 5.43515C5.14664 5.26998 5.30735 5.11034 5.47339 4.9564Z" fill="#787878"/>
<path d="M4.54771 5.94743L3.92738 5.44189C3.77292 5.63189 3.62507 5.82742 3.48383 6.0283L4.13862 6.48794C4.26862 6.30295 4.40504 6.12259 4.54771 5.94743H4.54771Z" fill="#787878"/>
<path d="M18.5662 18.8049L19.1134 19.3885C19.2917 19.2208 19.4646 19.0472 19.631 18.8677L19.0446 18.3239C18.891 18.4894 18.7314 18.6497 18.5662 18.8049Z" fill="#787878"/>
<path d="M20.5464 17.7225L19.8893 17.2661C19.76 17.4522 19.6244 17.6333 19.4828 17.8097L20.1064 18.311C20.26 18.1204 20.4064 17.9242 20.5464 17.7226L20.5464 17.7225Z" fill="#787878"/>
<path d="M17.5163 19.6611L17.976 20.3159C18.1767 20.1746 18.372 20.0271 18.562 19.8723L18.0568 19.252C17.882 19.3948 17.7015 19.5311 17.5163 19.6611V19.6611Z" fill="#787878"/>
<path d="M3.48383 17.773C3.62507 17.9737 3.77257 18.1694 3.92738 18.3594L4.54771 17.8542C4.40539 17.679 4.26843 17.4982 4.13843 17.313L3.48383 17.773Z" fill="#787878"/>
<path d="M5.47359 18.8429C5.30752 18.689 5.14717 18.5293 4.99238 18.3645L4.40881 18.9116C4.57649 19.0904 4.75041 19.2632 4.93002 19.4296L5.47359 18.8429Z" fill="#787878"/>
<path d="M6.53665 19.6946C6.35058 19.5653 6.16898 19.4298 5.99276 19.2878L5.49207 19.9117C5.68277 20.0649 5.8792 20.2117 6.08044 20.3517L6.53665 19.6946Z" fill="#787878"/>
</svg>
