<?xml version="1.0" encoding="UTF-8"?>
<svg width="40px" height="121px" viewBox="0 0 40 121" version="1.1" xmlns="http://www.w3.org/2000/svg" xmlns:xlink="http://www.w3.org/1999/xlink">
    <title>Group 27</title>
    <g id="Page-1" stroke="none" stroke-width="1" fill="none" fill-rule="evenodd">
        <g id="Annoucements-2" transform="translate(-1326.000000, -332.000000)">
            <g id="Group-27" transform="translate(1326.000000, 332.000000)">
                <path d="M14,0 L40,0 L40,0 L40,121 L14,121 C6.2680135,121 9.46895252e-16,114.731986 0,107 L0,14 C-9.46895252e-16,6.2680135 6.2680135,1.42034288e-15 14,0 Z" id="Rectangle" fill="#9B1E26"></path>
                <path d="M-21.640625,66 L-21.640625,61.3515625 L-17.140625,61.3515625 L-17.140625,59.4609375 L-21.640625,59.4609375 L-21.640625,56.5234375 L-16.578125,56.5234375 L-16.578125,54.625 L-23.984375,54.625 L-23.984375,66 L-21.640625,66 Z M-5.89375,66 L-5.89375,64.1171875 L-11.175,64.1171875 L-11.175,61.0703125 L-6.675,61.0703125 L-6.675,59.234375 L-11.175,59.234375 L-11.175,56.5234375 L-5.909375,56.5234375 L-5.909375,54.625 L-13.51875,54.625 L-13.51875,66 L-5.89375,66 Z M4.80625,66 L4.80625,64.1171875 L-0.475,64.1171875 L-0.475,61.0703125 L4.025,61.0703125 L4.025,59.234375 L-0.475,59.234375 L-0.475,56.5234375 L4.790625,56.5234375 L4.790625,54.625 L-2.81875,54.625 L-2.81875,66 L4.80625,66 Z M11.4046875,66 C12.3994792,65.9947917 13.2927083,65.765625 14.084375,65.3125 C14.8760417,64.859375 15.4893229,64.2213542 15.9242187,63.3984375 C16.3591146,62.5755208 16.5765625,61.6354167 16.5765625,60.578125 L16.5765625,60.578125 L16.5765625,60.0546875 C16.5765625,58.9973958 16.3552083,58.0533854 15.9125,57.2226562 C15.4697917,56.3919271 14.8539062,55.7513021 14.0648437,55.3007812 C13.2757812,54.8502604 12.38125,54.625 11.38125,54.625 L11.38125,54.625 L7.88125,54.625 L7.88125,66 L11.4046875,66 Z M11.3578125,64.1171875 L10.225,64.1171875 L10.225,56.5234375 L11.38125,56.5234375 C12.303125,56.5234375 13.0036458,56.8216146 13.4828125,57.4179688 C13.9619792,58.0143229 14.2015625,58.890625 14.2015625,60.046875 L14.2015625,60.046875 L14.2015625,60.6484375 C14.1911458,61.7630208 13.94375,62.6197917 13.459375,63.21875 C12.975,63.8177083 12.2744792,64.1171875 11.3578125,64.1171875 L11.3578125,64.1171875 Z M24.4015625,66 C25.6932292,65.9895833 26.6880208,65.703125 27.3859375,65.140625 C28.0838542,64.578125 28.4328125,63.75 28.4328125,62.65625 C28.4328125,62.015625 28.2648437,61.4739583 27.9289062,61.03125 C27.5929687,60.5885417 27.1333333,60.2942708 26.55,60.1484375 C27.0604167,59.9505208 27.4588542,59.6393229 27.7453125,59.2148438 C28.0317708,58.7903646 28.175,58.2994792 28.175,57.7421875 C28.175,56.7213542 27.8182292,55.9466146 27.1046875,55.4179688 C26.3911458,54.8893229 25.3442708,54.625 23.9640625,54.625 L23.9640625,54.625 L19.9796875,54.625 L19.9796875,66 L24.4015625,66 Z M24.0578125,59.390625 L22.3234375,59.390625 L22.3234375,56.5234375 L23.9640625,56.5234375 C24.6098958,56.5234375 25.0825521,56.6367188 25.3820312,56.8632812 C25.6815104,57.0898438 25.83125,57.4609375 25.83125,57.9765625 C25.83125,58.8984375 25.2401042,59.3697917 24.0578125,59.390625 L24.0578125,59.390625 Z M24.33125,64.1171875 L22.3234375,64.1171875 L22.3234375,61.046875 L24.471875,61.046875 C25.55,61.0625 26.0890625,61.5911458 26.0890625,62.6328125 C26.0890625,63.0963542 25.9341146,63.4596354 25.6242187,63.7226562 C25.3143229,63.9856771 24.8833333,64.1171875 24.33125,64.1171875 L24.33125,64.1171875 Z M33.421875,66 L34.203125,63.65625 L38.3125,63.65625 L39.1015625,66 L41.59375,66 L37.3359375,54.625 L35.1640625,54.625 L30.9296875,66 L33.421875,66 Z M37.6796875,61.7578125 L34.8359375,61.7578125 L36.25,57.5 L37.6796875,61.7578125 Z M48.54375,66.15625 C49.8770833,66.15625 50.9513021,65.8046875 51.7664063,65.1015625 C52.5815104,64.3984375 53.0333333,63.4348958 53.121875,62.2109375 L53.121875,62.2109375 L50.778125,62.2109375 C50.7260417,62.9036458 50.5216146,63.4153646 50.1648438,63.7460938 C49.8080729,64.0768229 49.2677083,64.2421875 48.54375,64.2421875 C47.7416667,64.2421875 47.1544271,63.9583333 46.7820313,63.390625 C46.4096354,62.8229167 46.2234375,61.9244792 46.2234375,60.6953125 L46.2234375,60.6953125 L46.2234375,59.8359375 C46.2338542,58.6588542 46.4330729,57.7903646 46.8210938,57.2304688 C47.2091146,56.6705729 47.79375,56.390625 48.575,56.390625 C49.29375,56.390625 49.8289063,56.5559896 50.1804688,56.8867188 C50.5320313,57.2174479 50.7364583,57.75 50.79375,58.484375 L50.79375,58.484375 L53.1375,58.484375 C53.0125,57.2135417 52.5489583,56.2265625 51.746875,55.5234375 C50.9447917,54.8203125 49.8875,54.46875 48.575,54.46875 C47.6270833,54.46875 46.7950521,54.6914062 46.0789063,55.1367188 C45.3627604,55.5820312 44.8119792,56.2213542 44.4265625,57.0546875 C44.0411458,57.8880208 43.8484375,58.8515625 43.8484375,59.9453125 L43.8484375,59.9453125 L43.8484375,60.640625 C43.8484375,62.3541667 44.2664063,63.7018229 45.1023438,64.6835938 C45.9382813,65.6653646 47.0854167,66.15625 48.54375,66.15625 Z M58.7046875,66 L58.7046875,62.75 L59.9234375,61.4375 L62.8453125,66 L65.634375,66 L61.478125,59.6796875 L65.5171875,54.625 L62.634375,54.625 L59.7359375,58.3671875 L58.7046875,59.78125 L58.7046875,54.625 L56.3609375,54.625 L56.3609375,66 L58.7046875,66 Z" id="FEEDBACK" fill="#FFFFFF" fill-rule="nonzero" transform="translate(20.825000, 60.312500) rotate(-90.000000) translate(-20.825000, -60.312500) "></path>
            </g>
        </g>
    </g>
</svg>