<?xml version="1.0" encoding="UTF-8"?>
<svg width="19px" height="20px" viewBox="0 0 19 20" version="1.1" xmlns="http://www.w3.org/2000/svg" xmlns:xlink="http://www.w3.org/1999/xlink">
    <title>icon / filter</title>
    <g id="Page-1" stroke="none" stroke-width="1" fill="none" fill-rule="evenodd">
        <g id="branch_locater_desktop_01" transform="translate(-1218.000000, -518.000000)" fill="#ffffff" fill-rule="nonzero">
            <g id="Group-12" transform="translate(1165.000000, 500.000000)">
                <g id="noun_filter_1844669" transform="translate(53.000000, 18.000000)">
                    <path d="M6.51679356,10.4407598 C6.51891904,10.4438268 6.52114339,10.4468938 6.52336774,10.4499106 C6.75326645,10.7641535 6.87995542,11.1537645 6.87995542,11.5468447 L6.87995542,18.9781627 C6.87995542,19.2603277 7.01727183,19.5206717 7.24731883,19.674525 C7.38117514,19.7640214 7.53569317,19.8095238 7.69233669,19.8095238 C7.80014342,19.8095238 7.90893875,19.7879542 8.01254393,19.7443624 L11.5871698,18.3579728 C11.9074265,18.2585714 12.1200247,17.9511664 12.1200247,17.5810636 L12.1200247,11.5468447 C12.1200247,11.1537645 12.2467137,10.7641535 12.4766124,10.4499106 C12.4788367,10.4468436 12.4810611,10.4438268 12.4831866,10.4407598 L18.8443766,1.32575331 C19.0258834,1.06520819 19.0504501,0.729848113 18.9084378,0.450448419 C18.767167,0.172607369 18.4886293,0 18.1814221,0 L0.818558032,0 C0.511350876,0 0.232763662,0.172607369 0.0915422867,0.450448419 C-0.0504699676,0.729848113 -0.0259032811,1.06520819 0.155850655,1.32605498 L6.51679356,10.4407598 Z M17.8554316,1.00557745 L11.6800487,9.85430706 C11.3262291,10.3401015 11.1313762,10.940934 11.1313762,11.546895 L11.1313762,17.458534 L7.86850505,18.724003 L7.86850505,11.5468447 C7.86850505,10.940934 7.6737016,10.3400512 7.31983257,9.85425678 L1.14454857,1.00557745 L17.8554316,1.00557745 Z" id="Shape"></path>
                </g>
            </g>
        </g>
    </g>
</svg>