<?xml version="1.0" encoding="UTF-8"?>
<svg width="38px" height="40px" viewBox="0 0 38 40" version="1.1" xmlns="http://www.w3.org/2000/svg" xmlns:xlink="http://www.w3.org/1999/xlink">
    <title>Group 3</title>
    <defs>
        <polygon id="path-1" points="6.53699317e-13 -1.63424829e-13 37.998032 -1.63424829e-13 37.998032 39.9457716 6.53699317e-13 39.9457716"></polygon>
    </defs>
    <g id="Page-1" stroke="none" stroke-width="1" fill="none" fill-rule="evenodd">
        <g id="Complaints-" transform="translate(-140.000000, -1135.000000)">
            <g id="Group-3" transform="translate(140.000000, 1135.000000)">
                <g id="Clip-3" transform="translate(0.000000, 0.000034)">
                    <mask id="mask-2" fill="white">
                        <use xlink:href="#path-1"></use>
                    </mask>
                    <g id="Clip-2"></g>
                </g>
                <path d="M16.5594264,5.77677624 C21.5478686,6.27863762 26.6983603,6.79689505 30.7653025,3.07420198 C30.2704388,6.63697426 29.5585669,10.1978455 28.6473521,13.668103 C28.4845959,14.2597861 28.6655669,14.8813307 29.1170917,15.2879842 C31.2140008,17.224697 33.5557901,18.8734099 36.0806702,20.190796 C36.0578231,20.2603406 36.0248479,20.3264 35.9822942,20.3867564 C32.4081744,24.6908356 27.4598521,24.1918257 22.2213479,23.6633505 C17.0066331,23.1373307 11.6191124,22.5939644 7.48394298,26.8751525 L2.60981488,9.27919208 C6.19987273,4.73313267 11.2288273,5.23974653 16.5506331,5.77590495 L16.5594264,5.77677624 Z M37.9584512,19.5585584 L37.9575876,19.5542812 C37.8808025,19.1588752 37.6191992,18.8203406 37.2631455,18.6513901 C34.8115174,17.420895 32.541724,15.8567762 30.5142983,14.0010139 C31.5593769,9.98445941 32.3444223,5.86057822 32.8480008,1.74097426 C32.9912074,0.576934653 32.3119182,0.184617822 32.1002488,0.0921029703 L32.088786,0.087429703 C31.5057529,-0.136570297 30.8398107,0.0818851485 30.4982033,0.606954455 C26.9237694,4.90905347 21.9776455,4.40861782 16.7411041,3.87919208 C11.4524306,3.34556832 5.98781074,2.79412277 1.82421983,7.29067723 L1.66507521,6.86327129 C1.58051736,6.64006337 1.40637686,6.46002376 1.18724876,6.36933069 C0.968120661,6.27863762 0.718922314,6.28354851 0.503327273,6.38255842 C0.110058678,6.56331089 -0.0902264463,7.01376634 0.0391619835,7.43546931 L0.664591736,9.34034059 L4.85212893,24.4578059 L4.85417025,24.4653307 L9.86333967,39.2570139 C9.93290165,39.5001822 10.0917322,39.7016079 10.3111744,39.8249347 C10.4537529,39.9050931 10.6106207,39.9458059 10.7692942,39.9458059 C10.8576992,39.9458059 10.9466537,39.9331327 11.033881,39.9076277 C11.5292157,39.7626772 11.8192405,39.2370535 11.6805091,38.7359842 L11.6773686,38.7245782 L8.10238512,29.0646178 C11.7002157,24.5192713 16.7206909,25.0250931 22.0332322,25.5603802 C27.5343603,26.1149149 33.2230545,26.6880634 37.4394058,21.6010139 L37.4449802,21.5939644 C37.8996455,21.022004 38.086819,20.2801426 37.9584512,19.5585584 L37.9584512,19.5585584 Z" id="Fill-1" fill="#FFFFFF"></path>
            </g>
        </g>
    </g>
</svg>