<svg width="46" height="55" viewBox="0 0 46 55" fill="none" xmlns="http://www.w3.org/2000/svg">
<mask id="mask0" mask-type="alpha" maskUnits="userSpaceOnUse" x="0" y="0" width="46" height="55">
<path fill-rule="evenodd" clip-rule="evenodd" d="M0 0.107013H45.1753V54.9788H0V0.107013Z" fill="white"/>
</mask>
<g mask="url(#mask0)">
<path fill-rule="evenodd" clip-rule="evenodd" d="M43.0354 11.692C42.7767 11.6211 42.613 11.5686 42.4458 11.5317C35.4187 9.97765 28.923 7.21032 23.0598 3.01223C22.6933 2.74975 22.4671 2.77736 22.1163 3.02197C18.0126 5.88197 13.6674 8.28271 8.877 9.7951C6.68449 10.4873 4.46491 11.0941 2.20852 11.754C2.20852 11.8603 2.20478 12.031 2.20906 12.2015C2.29701 15.697 2.71476 19.1561 3.40493 22.5807C4.67582 28.8871 6.8145 34.8609 10.2708 40.3242C13.3546 45.1985 17.2723 49.2401 22.1869 52.2911C22.4303 52.4421 22.6146 52.5414 22.9247 52.3489C25.8226 50.5512 28.4209 48.3961 30.7074 45.8692C35.6544 40.4021 38.7699 33.9613 40.7459 26.9192C41.7082 23.4892 42.3489 19.9973 42.6964 16.4543C42.8504 14.8845 42.9231 13.307 43.0354 11.692ZM22.9078 0.189365C26.4686 2.82444 30.256 5.06136 34.3711 6.72388C37.5772 8.01905 40.9 8.9272 44.2601 9.71153C45.0237 9.8897 45.1735 10.0661 45.1752 10.8363C45.1859 15.7585 44.4925 20.5959 43.3375 25.3672C41.7714 31.8378 39.2867 37.917 35.439 43.3906C32.1449 48.0767 28.0607 51.9163 23.1096 54.8183C23.1089 54.8187 23.1082 54.819 23.1076 54.8195C22.9458 54.9156 22.7666 54.9789 22.5784 54.9789H22.5633C22.3724 54.9789 22.1861 54.9213 22.0279 54.8145C20.6957 53.9163 19.3282 53.0639 18.0543 52.0896C12.8183 48.0841 8.92034 42.9882 6.02899 37.0963C3.64013 32.2279 2.06524 27.0955 1.07942 21.7717C0.4329 18.281 0.031635 14.7671 0.000924845 11.2144C-0.00977554 9.97048 0.0523938 9.8974 1.27887 9.61652C5.86688 8.56563 10.3499 7.20925 14.5433 5.02059C17.2434 3.61135 19.837 2.03005 22.2703 0.192896C22.4189 0.103334 22.6922 0.0573223 22.9078 0.189365Z" fill="#8B8B8B"/>
</g>
<path fill-rule="evenodd" clip-rule="evenodd" d="M19.6193 38.1199C20.0247 38.1156 20.3512 37.7705 20.3419 37.3565C20.3323 36.9348 20.0077 36.6318 19.5787 36.6442C19.1874 36.6554 18.8601 36.9886 18.8625 37.3735C18.8646 37.7647 19.2292 38.1241 19.6193 38.1199ZM32.0721 31.752C31.6703 31.7516 31.3212 32.1072 31.3319 32.5059C31.3427 32.9056 31.7023 33.248 32.1005 33.2377C32.4922 33.2276 32.8148 32.8965 32.8154 32.5039C32.8159 32.0948 32.4773 31.7523 32.0721 31.752ZM16.5822 32.1658C16.5906 31.7765 16.2408 31.4146 15.847 31.4054C15.4439 31.3959 15.1054 31.7273 15.0985 32.1384C15.0914 32.565 15.3949 32.8799 15.8191 32.8863C16.2302 32.8923 16.5737 32.5681 16.5822 32.1658ZM27.0497 16.275C26.6558 16.2396 26.2845 16.5616 26.2496 16.9691C26.2158 17.3622 26.5116 17.7123 26.9068 17.7471C27.3341 17.7848 27.6806 17.5066 27.7265 17.0891C27.77 16.6932 27.4524 16.3112 27.0497 16.275ZM30.6457 21.0416C30.6489 21.459 30.9734 21.7824 31.3841 21.7779C31.7874 21.7735 32.1288 21.4294 32.1256 21.0307C32.1223 20.6288 31.7838 20.3027 31.3713 20.3042C30.9431 20.3059 30.6424 20.6116 30.6457 21.0416ZM16.8492 16.8829C16.8484 16.4658 16.5253 16.1394 16.116 16.1418C15.7169 16.1444 15.3711 16.4904 15.3719 16.8865C15.3727 17.2802 15.7239 17.6301 16.1184 17.6306C16.521 17.631 16.85 17.2945 16.8492 16.8829ZM26.223 36.6611C26.6253 36.6546 26.9551 36.3113 26.9513 35.9031C26.9476 35.4853 26.6267 35.1743 26.2038 35.1785C25.7799 35.1827 25.4743 35.496 25.4791 35.9217C25.4836 36.3293 25.8241 36.6676 26.223 36.6611ZM32.1746 25.4291C31.7772 25.426 31.4267 25.7821 31.431 26.1846C31.4351 26.5835 31.7514 26.9045 32.1498 26.9145C32.558 26.9248 32.9102 26.5917 32.9182 26.1876C32.926 25.7926 32.5729 25.4324 32.1746 25.4291ZM14.4096 22.2468C14.417 21.8238 14.1031 21.5049 13.6784 21.5038C13.2706 21.5028 12.956 21.8019 12.9422 22.2035C12.9283 22.6122 13.255 22.9688 13.656 22.9823C14.0565 22.9959 14.4027 22.658 14.4096 22.2468ZM12.3033 27.1586C12.3055 26.7482 11.9762 26.4103 11.5704 26.4071C11.1647 26.4039 10.8329 26.7368 10.8307 27.1493C10.8285 27.5662 11.1487 27.8944 11.5611 27.898C11.9705 27.9017 12.3008 27.5724 12.3033 27.1586ZM22.8991 14.8307C22.911 14.4309 22.5772 14.0846 22.1727 14.0773C21.7511 14.0696 21.4313 14.375 21.4209 14.7953C21.4105 15.2153 21.7198 15.542 22.1351 15.5492C22.5429 15.5566 22.8871 15.2329 22.8991 14.8307ZM27.5209 26.3223C27.5248 23.6764 25.3913 21.5299 22.7558 21.5279C20.1139 21.5259 17.963 23.6654 17.9578 26.3005C17.9523 28.9313 20.099 31.0837 22.734 31.0898C25.3775 31.0958 27.5171 28.965 27.5209 26.3223ZM25.8485 21.0301C26.4624 21.5791 27.0417 22.097 27.6617 22.6513C28.219 22.3233 28.8293 21.9642 29.4319 21.6095C29.0984 19.912 30.3649 19.0283 31.3457 19.0243C32.1708 19.021 32.9373 19.5296 33.2427 20.2961C33.5509 21.0696 33.3469 21.9435 32.7246 22.5153C32.1211 23.0699 31.241 23.2175 30.5122 22.8244C30.2299 22.6722 30.0385 22.6908 29.7875 22.8519C29.29 23.1716 28.7745 23.4628 28.2844 23.755C28.4674 24.4483 28.6443 25.1181 28.8311 25.8256C29.2703 25.7697 29.7345 25.7108 30.2238 25.6486C30.2669 25.5464 30.3081 25.436 30.3584 25.3299C30.7554 24.4932 31.6426 24.0445 32.5704 24.2092C33.3895 24.3545 34.0838 25.116 34.147 25.9384C34.2241 26.942 33.7178 27.7612 32.8308 28.0679C31.9616 28.3682 30.9743 28.0521 30.5011 27.2533C30.3242 26.9548 30.1325 26.9197 29.8522 26.9613C29.4933 27.0145 29.1338 27.0635 28.7965 27.1111C28.5857 27.7813 28.3811 28.4314 28.1609 29.131C28.21 29.1659 28.2998 29.239 28.3979 29.2982C29.1362 29.7431 29.8813 30.1767 30.6121 30.6334C30.8361 30.7734 31.005 30.8059 31.2645 30.6852C32.3127 30.1966 33.5155 30.6947 33.9377 31.76C34.356 32.8154 33.8011 34.0235 32.7305 34.3883C31.6318 34.7629 30.4468 34.1522 30.1606 33.0198C30.0681 32.654 30.1145 32.2532 30.0936 31.7832C29.2576 31.2836 28.3369 30.7335 27.472 30.2166C26.8077 30.7478 26.1801 31.2496 25.4978 31.7953C25.7271 32.4094 25.9756 33.1011 26.2522 33.7814C26.2861 33.8648 26.465 33.9074 26.5845 33.9352C27.5097 34.1496 28.1499 34.8752 28.2237 35.8054C28.288 36.6168 27.7372 37.4671 26.9448 37.7792C26.0854 38.1178 25.0686 37.7966 24.5519 37.0231C24.0194 36.2262 24.105 35.1714 24.8045 34.5088C25.0366 34.2888 25.0431 34.121 24.9313 33.859C24.7306 33.3894 24.5682 32.9035 24.3705 32.4325C24.3301 32.3362 24.1881 32.1967 24.121 32.2107C23.1998 32.404 22.2802 32.4037 21.3281 32.1918C21.1079 33.3249 20.8886 34.4171 20.6954 35.5137C20.6785 35.6088 20.8135 35.7556 20.9104 35.842C21.7516 36.5908 21.8529 37.8225 21.1347 38.6737C20.4395 39.4978 19.1828 39.6139 18.3374 38.9187C17.7152 38.4071 17.5149 37.7193 17.6635 36.956C17.8113 36.1969 18.2863 35.6663 19.0434 35.4713C19.3672 35.388 19.4665 35.2341 19.5128 34.9351C19.5946 34.4038 19.7192 33.8792 19.8224 33.3512C19.9233 32.8363 20.02 32.3207 20.1164 31.8169C19.5429 31.408 18.9773 31.0048 18.3738 30.5744C18.1504 30.7565 17.8934 30.966 17.6381 31.1738C17.6993 31.4381 17.7804 31.6807 17.8082 31.9294C17.9089 32.8263 17.4462 33.6266 16.6353 33.9937C15.8517 34.3486 14.9368 34.1565 14.3422 33.5121C13.7612 32.8826 13.6486 31.9323 14.0665 31.1841C14.5001 30.4077 15.3416 29.9906 16.2207 30.2087C16.6216 30.3082 16.8832 30.2236 17.1469 29.9531C17.2865 29.8098 17.4553 29.6946 17.6183 29.5606C17.4543 29.2109 17.2809 28.8797 17.1426 28.5346C17.0084 28.1993 16.9103 27.8498 16.7867 27.4779C15.7627 27.5508 14.7301 27.6137 13.7007 27.7114C13.5766 27.7231 13.4332 27.9032 13.3621 28.0384C12.9436 28.8335 12.1504 29.2519 11.2449 29.1312C10.467 29.0276 9.80483 28.3994 9.61757 27.5873C9.39939 26.6412 9.89589 25.6706 10.7845 25.3067C11.684 24.9382 12.7214 25.258 13.2402 26.0667C13.3194 26.1901 13.3859 26.3216 13.4661 26.4632C14.5255 26.3785 15.5846 26.2938 16.6522 26.2085C16.7566 25.6089 16.8593 25.018 16.9684 24.3908C16.419 24.1647 15.8531 23.9191 15.2752 23.7063C15.1769 23.67 15.0047 23.7436 14.9043 23.8176C13.7212 24.6898 12.0474 24.0999 11.7296 22.6915C11.4724 21.5526 12.2104 20.4282 13.3315 20.2505C14.5328 20.0602 15.6167 20.914 15.672 22.1318C15.6853 22.4261 15.7767 22.5587 16.039 22.6547C16.5305 22.8345 17.0105 23.0453 17.4796 23.2367C17.9038 22.7262 18.3152 22.2313 18.7601 21.696C18.1319 20.7978 17.4849 19.8585 16.8136 18.937C16.7529 18.8536 16.5324 18.8554 16.3905 18.8679C15.5307 18.9423 14.8474 18.6423 14.4024 17.8999C13.9853 17.2038 14.0078 16.4827 14.4371 15.7959C14.988 14.9147 16.1556 14.6237 17.0698 15.1191C18.0035 15.6251 18.3998 16.7694 17.9289 17.7232C17.7906 18.0032 17.8273 18.1759 17.9937 18.4069C18.5371 19.1614 19.0723 19.9224 19.5854 20.6976C19.7649 20.9688 19.9139 21.0055 20.1968 20.8477C20.4757 20.6924 20.7884 20.5752 21.1005 20.5091C21.3827 20.4492 21.4296 20.3132 21.4232 20.0616C21.3976 19.0505 21.3791 18.0389 21.3812 17.0274C21.3817 16.765 21.298 16.6268 21.0733 16.4876C20.2969 16.007 19.973 15.0986 20.2333 14.2384C20.4855 13.4057 21.2759 12.8083 22.1348 12.8017C23.0084 12.7949 23.81 13.3976 24.0648 14.2529C24.3445 15.1921 23.9017 16.2071 22.99 16.61C22.6997 16.7384 22.6343 16.8929 22.6417 17.1834C22.6669 18.1674 22.6642 19.1522 22.6739 20.1366C22.6741 20.1613 22.6926 20.1859 22.7025 20.2103C23.3485 20.315 23.9942 20.4201 24.6876 20.5328C24.9691 19.9198 25.2759 19.2792 25.5495 18.6247C25.587 18.535 25.4842 18.3579 25.4047 18.2525C24.9082 17.5935 24.8448 16.7147 25.2576 16.0098C25.6563 15.3291 26.458 14.9222 27.2008 15.0235C28.0614 15.141 28.7121 15.7005 28.9295 16.5101C29.2564 17.7268 28.3548 18.9677 27.0922 19.0104C26.8355 19.0191 26.7123 19.1039 26.6155 19.3317C26.3682 19.9136 26.0964 20.4851 25.8485 21.0301Z" fill="#FFCB05"/>
<path fill-rule="evenodd" clip-rule="evenodd" d="M21.7112 22.9916C22.0562 22.9831 22.3386 23.2599 22.3386 23.6065C22.3386 23.9426 22.08 24.211 21.7455 24.2219C21.4045 24.2331 21.1149 23.9493 21.1158 23.6046C21.1164 23.2695 21.3784 22.9998 21.7112 22.9916Z" fill="#8B8B8B"/>
<path fill-rule="evenodd" clip-rule="evenodd" d="M20.116 26.4423C19.7803 26.4399 19.5219 26.1801 19.52 25.8431C19.5178 25.4869 19.783 25.2302 20.1423 25.2404C20.484 25.25 20.7256 25.506 20.7198 25.8522C20.7141 26.1899 20.4533 26.4447 20.116 26.4423Z" fill="#8B8B8B"/>
<path fill-rule="evenodd" clip-rule="evenodd" d="M25.7823 26.9925C25.7881 27.3113 25.5091 27.5997 25.1855 27.6098C24.8647 27.6198 24.5718 27.3471 24.5568 27.0248C24.5416 26.6953 24.8395 26.3852 25.1699 26.3868C25.4868 26.3884 25.7766 26.675 25.7823 26.9925Z" fill="#8B8B8B"/>
<path fill-rule="evenodd" clip-rule="evenodd" d="M20.9027 27.7759C21.2505 27.7742 21.5036 28.0203 21.5082 28.3646C21.513 28.7209 21.2442 28.9916 20.893 28.9842C20.5637 28.9773 20.2976 28.7033 20.2991 28.3728C20.3009 28.0382 20.5645 27.7775 20.9027 27.7759Z" fill="#8B8B8B"/>
<path fill-rule="evenodd" clip-rule="evenodd" d="M24.6365 24.911C24.2927 24.9146 24.0377 24.6666 24.0312 24.3221C24.0248 23.9822 24.2753 23.7117 24.6076 23.6997C24.9508 23.6872 25.2363 23.9657 25.2348 24.3112C25.2333 24.6491 24.9758 24.9073 24.6365 24.911Z" fill="#8B8B8B"/>
<path fill-rule="evenodd" clip-rule="evenodd" d="M23.3307 26.0074C23.3373 26.34 23.0817 26.6199 22.7556 26.6372C22.4251 26.6546 22.1295 26.3642 22.1296 26.0222C22.1297 25.6907 22.3983 25.4134 22.7223 25.4101C23.0457 25.4069 23.3243 25.6803 23.3307 26.0074Z" fill="#8B8B8B"/>
<path fill-rule="evenodd" clip-rule="evenodd" d="M23.4547 29.4831C23.1114 29.4876 22.8446 29.2325 22.8394 28.8949C22.8342 28.5624 23.1015 28.2876 23.4351 28.2826C23.7774 28.2774 24.0389 28.5317 24.0442 28.8749C24.0497 29.2228 23.8019 29.4785 23.4547 29.4831Z" fill="#8B8B8B"/>
</svg>
