<svg width="24" height="24" xmlns="http://www.w3.org/2000/svg"><path d="M24 14.892V24h-5.212v-8.492c0-2.154-.727-3.57-2.667-3.57-1.454 0-2.303.985-2.666 1.908-.122.37-.182.8-.182 1.292V24H8.06s.06-14.4 0-15.877h5.212V10.4s0 .062-.06.062h.06V10.4c.666-1.108 1.94-2.646 4.666-2.646 3.455 0 6.061 2.277 6.061 7.138zM0 24h5.212V8.123H0V24zM5.333 2.708c0 1.477-1.212 2.707-2.666 2.707C1.212 5.415 0 4.246 0 2.708 0 1.169 1.212 0 2.667 0 4.12 0 5.333 1.23 5.333 2.708z" fill="#FFF" fill-rule="nonzero"/></svg>