<?xml version="1.0" encoding="UTF-8"?>
<svg width="22px" height="23px" viewBox="0 0 22 23" version="1.1" xmlns="http://www.w3.org/2000/svg" xmlns:xlink="http://www.w3.org/1999/xlink">
    <title>icons / cash</title>
    <g id="Symbols" stroke="none" stroke-width="1" fill="none" fill-rule="evenodd">
        <g id="Branch-/-card-01-Copy-8" transform="translate(-95.000000, -328.000000)" stroke-width="2">
            <g id="Group-9" transform="translate(94.000000, 227.000000)">
                <g id="Group" transform="translate(0.000000, 100.000000)">
                    <path d="M22,2 L16.2857143,2 L2,2 L2,21 L22,21 L22,5.8 L22,2 Z M3,23 L7,23 M17,23 L21,23" id="Path-2" stroke="#787878"></path>
                    <path d="M12,15 C13.6568542,15 15,13.6568542 15,12 C15,10.3431458 13.6568542,9 12,9 C10.3431458,9 9,10.3431458 9,12 C9,13.6568542 10.3431458,15 12,15 Z M6,12 L9,12 M15,12 L18,12 M9,6.80384758 L10.5,9.40192379 M13.5,14.5980762 L15,17.1961524 M15,6.80384758 L13.5,9.40192379 M10.5,14.5980762 L9,17.1961524" id="Oval-2" stroke="#FFCB05"></path>
                </g>
            </g>
        </g>
    </g>
</svg>