<?xml version="1.0" encoding="UTF-8"?>
<svg width="22px" height="17px" viewBox="0 0 22 17" version="1.1" xmlns="http://www.w3.org/2000/svg" xmlns:xlink="http://www.w3.org/1999/xlink">
    <title>icons / ATM Copy 4</title>
    <g id="Page-1" stroke="none" stroke-width="1" fill="none" fill-rule="evenodd">
        <g id="Financial-Reports" transform="translate(-152.000000, -2207.000000)" fill="#737373" fill-rule="nonzero" stroke="#737373" stroke-width="0.5">
            <g id="Group-54" transform="translate(116.000000, 1885.000000)">
                <g id="Group-66" transform="translate(0.000000, 68.000000)">
                    <g id="Group" transform="translate(35.000000, 250.000000)">
                        <g id="contact" transform="translate(2.000000, 5.000000)">
                            <path d="M19.5454545,0 L0.454545455,0 C0.203181818,0 0,0.20953125 0,0.46875 L0,14.53125 C0,14.7904687 0.203181818,15 0.454545455,15 L19.5454545,15 C19.7963636,15 20,14.7904687 20,14.53125 L20,0.46875 C20,0.20953125 19.7963636,0 19.5454545,0 Z M19.0909091,12.9285938 L13.46,7.1221875 L12.8172727,7.785 L18.9045455,14.0625 L1.09545455,14.0625 L7.18272727,7.785 L6.54,7.1221875 L0.909090909,12.9285938 L0.909090909,0.9375 L19.0909091,0.9375 L19.0909091,12.9285938 Z" id="Shape"></path>
                            <path d="M18.240375,0.833333333 L10,8.91480637 L1.759625,0.833333333 L0.833333333,0.833333333 L0.833333333,1.19607591 L9.67595833,9.86818555 C9.85516667,10.0439381 10.1448333,10.0439381 10.3240417,9.86818555 L19.1666667,1.19607591 L19.1666667,0.833333333 L18.240375,0.833333333 Z" id="Path"></path>
                        </g>
                    </g>
                </g>
            </g>
        </g>
    </g>
</svg>