<?xml version="1.0" encoding="utf-8"?>
<!-- Generator: Adobe Illustrator 24.3.0, SVG Export Plug-In . SVG Version: 6.00 Build 0)  -->
<svg version="1.1" id="Layer_1" xmlns="http://www.w3.org/2000/svg" xmlns:xlink="http://www.w3.org/1999/xlink" x="0px" y="0px"
	 viewBox="0 0 26 22" style="enable-background:new 0 0 26 22;" xml:space="preserve">
<style type="text/css">
	.st0{fill:#787878;}
</style>
<g id="Page-1">
	<g id="_x31_" transform="translate(-466.000000, -395.000000)">
		<g id="Group-69" transform="translate(181.000000, 190.000000)">
			<g id="Group-79" transform="translate(271.000000, 0.000000)">
				<g id="icons-_x2F_close" transform="translate(13.000000, 13.000000)">
					<g id="Path-2">
						<path class="st0" d="M6,213.4l-4.3-14.9l20.4-5.9l4.3,14.9L6,213.4z M4.2,199.9l3.2,11l16.5-4.8l-3.2-11L4.2,199.9z"/>
					</g>
					<g id="Path-Copy">
						
							<rect x="6.6" y="201.4" transform="matrix(0.961 -0.2767 0.2767 0.961 -55.5914 10.4207)" class="st0" width="5" height="1.5"/>
					</g>
					<g id="Path-Copy-2">
						
							<rect x="7.7" y="204.7" transform="matrix(0.9575 -0.2885 0.2885 0.9575 -58.8933 11.383)" class="st0" width="3" height="1.5"/>
					</g>
					<g id="Shape">
						<path class="st0" d="M13,206.8l-0.3-2.4l1.8-1.5l-0.7-0.4l-0.4-1.3c-0.3-1.1,0.2-2.5,1.7-2.9c1.4-0.4,2.7,0.5,3,1.7l0.4,1.3
							l-0.4,0.7l2.3,0.3l1,2.2l-1.4,0.6l-0.7-1.5l-2.6-0.3l-0.4-1.4l0.5-0.8l-0.2-0.7c-0.1-0.4-0.6-0.8-1.1-0.6
							c-0.6,0.2-0.7,0.7-0.6,1.1l0.2,0.7l0.8,0.5l0.4,1.4l-2,1.7l0.2,1.6L13,206.8z"/>
					</g>
				</g>
			</g>
		</g>
	</g>
</g>
</svg>
