<svg width="36" height="36" viewBox="0 0 36 36" fill="none" xmlns="http://www.w3.org/2000/svg">
<path fill-rule="evenodd" clip-rule="evenodd" d="M22.5 9V3L7.5 3L7.5 33H28.5L28.5 9H22.5Z" stroke="#787878" stroke-width="2"/>
<path fill-rule="evenodd" clip-rule="evenodd" d="M23.6602 17.8564V21.5522H22.4253V17.8564H21.7397V16.8853H22.4253V16.5337C22.4253 16.1411 22.467 15.8481 22.5505 15.6548C22.634 15.4614 22.7878 15.304 23.012 15.1824C23.2361 15.0608 23.5195 15 23.8623 15C24.2139 15 24.5581 15.0527 24.895 15.1582L24.728 16.0195C24.5317 15.9727 24.3428 15.9492 24.1611 15.9492C23.9824 15.9492 23.8542 15.991 23.7766 16.0745C23.699 16.158 23.6602 16.3184 23.6602 16.5557V16.8853H24.583V17.8564H23.6602ZM19.2415 21.4622C18.9822 21.5925 18.7207 21.6577 18.457 21.6577C17.9209 21.6577 17.4617 21.4417 17.0793 21.0095C16.697 20.5774 16.5059 19.9746 16.5059 19.2012C16.5059 18.4102 16.6919 17.8088 17.064 17.3972C17.436 16.9856 17.9062 16.7798 18.4746 16.7798C18.9961 16.7798 19.4473 16.9966 19.8281 17.4302V15.1099H21.063V21.5522H19.916V20.8667C19.7256 21.1333 19.5007 21.3318 19.2415 21.4622ZM12.4849 23.3276V20.9766C12.7163 21.2256 12.9368 21.4014 13.1462 21.5039C13.3557 21.6064 13.5894 21.6577 13.8472 21.6577C14.3892 21.6577 14.8506 21.4417 15.2314 21.0095C15.6123 20.5774 15.8027 19.9717 15.8027 19.1924C15.8027 18.4336 15.6138 17.8418 15.2358 17.417C14.8579 16.9922 14.3979 16.7798 13.856 16.7798C13.5454 16.7798 13.2627 16.853 13.0078 16.9995C12.7529 17.146 12.5508 17.3364 12.4014 17.5708V16.8853H11.25V23.3276H12.4849ZM13.5439 20.6777C13.2451 20.6777 12.9917 20.5525 12.7837 20.302C12.5757 20.0515 12.4717 19.6641 12.4717 19.1396C12.4717 18.6826 12.5713 18.3376 12.7705 18.1047C12.9697 17.8718 13.2202 17.7554 13.522 17.7554C13.812 17.7554 14.0552 17.874 14.2515 18.1113C14.4478 18.3486 14.5459 18.7119 14.5459 19.2012C14.5459 19.7256 14.4507 20.1028 14.2603 20.3328C14.0698 20.5627 13.8311 20.6777 13.5439 20.6777ZM18.8086 20.6821C18.4512 20.6821 18.1729 20.521 17.9736 20.1987C17.8359 19.9761 17.7671 19.6157 17.7671 19.1177C17.7671 18.6548 17.866 18.3069 18.0637 18.074C18.2615 17.8411 18.5068 17.7246 18.7998 17.7246C19.1016 17.7246 19.3491 17.8425 19.5425 18.0784C19.7358 18.3142 19.8325 18.7002 19.8325 19.2363C19.8325 19.7168 19.7329 20.0779 19.5337 20.3196C19.3345 20.5613 19.0928 20.6821 18.8086 20.6821Z" fill="#787878"/>
</svg>
