<?xml version="1.0" encoding="UTF-8"?>
<svg width="22px" height="30px" viewBox="0 0 22 30" version="1.1" xmlns="http://www.w3.org/2000/svg" xmlns:xlink="http://www.w3.org/1999/xlink">
    <title>Annual report</title>
    <g id="Investors" stroke="none" stroke-width="1" fill="none" fill-rule="evenodd">
        <g id="Annual-report" fill-rule="nonzero">
            <g id="icons-/-ATM">
                <path d="M16,0.666666667 L0.666666667,0.666666667 L0.666666667,29.3333333 L21.3333333,29.3333333 L21.3333333,6 L16,5.999 L16,0.666666667 Z M2.666,2.666 L14,2.666 L14,8 L19.333,8 L19.333,27.333 L2.666,27.333 L2.666,2.666 Z" id="Path-2" fill="#787878"></path>
                <path d="M6.09765625,19.7356771 L6.09765625,17.6458333 C6.30338542,17.8671875 6.49934896,18.0234375 6.68554688,18.1145833 C6.87174479,18.2057292 7.07942708,18.2513021 7.30859375,18.2513021 C7.79036458,18.2513021 8.20052083,18.0592448 8.5390625,17.6751302 C8.87760417,17.2910156 9.046875,16.7526042 9.046875,16.0598958 C9.046875,15.3854167 8.87890625,14.859375 8.54296875,14.4817708 C8.20703125,14.1041667 7.79817708,13.9153646 7.31640625,13.9153646 C7.04036458,13.9153646 6.7890625,13.9804687 6.5625,14.1106771 C6.3359375,14.2408854 6.15625,14.4101562 6.0234375,14.6184896 L6.0234375,14.6184896 L6.0234375,14.0091146 L5,14.0091146 L5,19.7356771 L6.09765625,19.7356771 Z M7.0390625,17.3802083 C6.7734375,17.3802083 6.54817708,17.2688802 6.36328125,17.046224 C6.17838542,16.8235677 6.0859375,16.4791667 6.0859375,16.0130208 C6.0859375,15.6067708 6.17447917,15.3001302 6.3515625,15.093099 C6.52864583,14.8860677 6.75130208,14.7825521 7.01953125,14.7825521 C7.27734375,14.7825521 7.49348958,14.8880208 7.66796875,15.0989583 C7.84244792,15.3098958 7.9296875,15.6328125 7.9296875,16.0677083 C7.9296875,16.5338542 7.84505208,16.8691406 7.67578125,17.0735677 C7.50651042,17.2779948 7.29427083,17.3802083 7.0390625,17.3802083 Z M11.40625,18.2513021 C11.640625,18.2513021 11.8730469,18.1933594 12.1035156,18.077474 C12.3339844,17.9615885 12.5338542,17.7851562 12.703125,17.5481771 L12.703125,17.5481771 L12.703125,18.1575521 L13.7226562,18.1575521 L13.7226562,12.4309896 L12.625,12.4309896 L12.625,14.4934896 C12.2864583,14.1080729 11.8854167,13.9153646 11.421875,13.9153646 C10.9166667,13.9153646 10.4986979,14.0983073 10.1679688,14.4641927 C9.83723958,14.8300781 9.671875,15.3645833 9.671875,16.0677083 C9.671875,16.7552083 9.84179688,17.2910156 10.1816406,17.6751302 C10.5214844,18.0592448 10.9296875,18.2513021 11.40625,18.2513021 Z M11.71875,17.3841146 C11.4010417,17.3841146 11.1536458,17.2408854 10.9765625,16.9544271 C10.8541667,16.7565104 10.7929688,16.4361979 10.7929688,15.9934896 C10.7929688,15.5820312 10.8808594,15.2727865 11.0566406,15.0657552 C11.2324219,14.858724 11.4505208,14.7552083 11.7109375,14.7552083 C11.9791667,14.7552083 12.1992188,14.860026 12.3710938,15.0696615 C12.5429688,15.2792969 12.6289062,15.6223958 12.6289062,16.0989583 C12.6289062,16.5260417 12.5403646,16.8470052 12.3632812,17.061849 C12.1861979,17.2766927 11.9713542,17.3841146 11.71875,17.3841146 Z M16.03125,18.1575521 L16.03125,14.8723958 L16.8515625,14.8723958 L16.8515625,14.0091146 L16.03125,14.0091146 L16.03125,13.7161458 C16.03125,13.5052083 16.0657552,13.3626302 16.1347656,13.2884115 C16.203776,13.2141927 16.3177083,13.1770833 16.4765625,13.1770833 C16.6380208,13.1770833 16.8059896,13.1979167 16.9804688,13.2395833 L16.9804688,13.2395833 L17.1289062,12.4739583 C16.8294271,12.3802083 16.5234375,12.3333333 16.2109375,12.3333333 C15.90625,12.3333333 15.6542969,12.3873698 15.4550781,12.4954427 C15.2558594,12.6035156 15.1191406,12.7434896 15.0449219,12.9153646 C14.9707031,13.0872396 14.9335938,13.3476562 14.9335938,13.6966146 L14.9335938,13.6966146 L14.9335938,14.0091146 L14.3242188,14.0091146 L14.3242188,14.8723958 L14.9335938,14.8723958 L14.9335938,18.1575521 L16.03125,18.1575521 Z" id="pdf" fill="#787878"></path>
            </g>
        </g>
    </g>
</svg>