<?xml version="1.0" encoding="UTF-8"?>
<svg width="48px" height="37px" viewBox="0 0 48 37" version="1.1" xmlns="http://www.w3.org/2000/svg" xmlns:xlink="http://www.w3.org/1999/xlink">
    <title>icons / ATM</title>
    <g id="Page-1" stroke="none" stroke-width="1" fill="none" fill-rule="evenodd">
        <g id="Schedule_of_Charges_Desktop-Copy" transform="translate(-270.000000, -336.000000)">
            <g id="Group-7" transform="translate(111.000000, 241.000000)">
                <g id="Group-Copy-2" transform="translate(2.000000, 57.000000)">
                    <g id="Quick-Link-Single-Card-Copy-2">
                        <g id="Group" transform="translate(121.000000, 32.000000)">
                            <g id="icons-/-manage-payee" transform="translate(36.000000, 0.000000)">
                                <g id="Group-14" transform="translate(0.000000, 6.000000)">
                                    <g id="Group" transform="translate(0.000000, -0.000000)" fill-rule="nonzero">
                                        <path d="M37.3264171,4.11428571 C40.4146094,4.11428571 42.784199,6.68114263 42.9249747,9.61757166 L42.9315966,9.89387755 L42.9315966,13.088249 L41.247233,14.8539429 L41.247233,15.1789714 L47.005896,17.7626968 L47.9639146,23.7845279 L45.2551229,24.2154721 L44.5290616,19.6594286 L38.5056226,16.9528778 L38.5056226,13.7525673 L40.1884901,11.9890286 L40.1887395,9.89387755 C40.1887395,8.3600846 39.0260176,6.98209292 37.5321069,6.86516698 L37.3264171,6.85714286 C35.7875498,6.85714286 34.621268,8.07110451 34.5227612,9.56192718 L34.5160122,9.76684925 L34.5148901,11.9890286 L36.1991291,13.7525673 L36.1991291,16.9528778 L30.1743187,19.6594286 L29.4496289,24.2154721 L26.7408372,23.7845279 L27.6988557,17.7626968 L33.4561473,15.1789714 L33.4561473,14.8539429 L31.7731551,13.088249 L31.7731551,9.76684925 C31.7731551,6.72646112 34.1387643,4.11428571 37.3264171,4.11428571 Z" id="Shape-Copy" fill="#FFCB05"></path>
                                        <path d="M19.8147441,-1.70530257e-14 C25.2550384,-1.70530257e-14 29.4782362,4.38001393 29.6483458,9.38440567 L29.6536746,9.69795918 L29.6536746,15.2662198 L26.2863187,18.5979429 L26.2863187,20.4466286 L37.9253317,25.3818947 L39.7333231,36.1150505 L37.0285714,36.5706638 L35.4694044,27.3202286 L23.5445837,22.2631973 L23.5445837,17.4521476 L26.9103187,14.1229714 L26.9108174,9.69795918 C26.9108174,6.13566105 23.9702996,2.91227437 20.1205256,2.74931457 L19.8147441,2.74285714 C15.8948204,2.74285714 12.9793642,5.67575836 12.8286338,9.17324627 L12.8225057,9.45801684 L12.821633,14.1229714 L16.1887395,17.4521476 L16.1887395,22.2631973 L4.26254729,27.3202286 L2.70475172,36.5706638 L-3.14262901e-13,36.1150505 L1.80799149,25.3818947 L13.445633,20.4466286 L13.445633,18.5979429 L10.0796486,15.2662198 L10.0796486,9.45801684 C10.0796486,4.34676473 14.2476744,-1.70530257e-14 19.8147441,-1.70530257e-14 Z" id="Shape-Copy-2" fill="#787878"></path>
                                    </g>
                                </g>
                            </g>
                        </g>
                    </g>
                </g>
            </g>
        </g>
    </g>
</svg>