<?xml version="1.0" encoding="UTF-8"?>
<svg width="22px" height="28px" viewBox="0 0 22 28" version="1.1" xmlns="http://www.w3.org/2000/svg" xmlns:xlink="http://www.w3.org/1999/xlink">
    <title>icons /close copy</title>
    <g id="Page-1" stroke="none" stroke-width="1" fill="none" fill-rule="evenodd">
        <g id="Homepage-Default" transform="translate(-982.000000, -2639.000000)">
            <g id="Group-41" transform="translate(957.000000, 2509.000000)">
                <g id="Group-38" transform="translate(0.000000, 109.000000)">
                    <g id="Group-45">
                        <g id="icons-/-loan" transform="translate(22.000000, 22.000000)">
                            <rect id="Rectangle-Copy-11" x="0" y="0" width="27" height="27"></rect>
                            <g id="Group-23" stroke-width="1" fill-rule="evenodd" transform="translate(3.375000, 0.000000)" fill="#777777" stroke="#777777">
                                <path d="M20.2125576,16.7973893 L19.7156786,16.7973893 C18.8744441,16.7980779 18.0473292,17.0136851 17.3128304,17.4237917 L13.6841525,19.4528116 L12.6491829,19.4528116 C12.4004257,18.0933958 11.2164972,17.1054364 9.83450963,17.1040355 L3.2987975,17.1040355 C3.14809854,17.1041184 3.00506883,17.1705022 2.90772453,17.2855425 L0.927515694,19.6325649 L0.0538981671,19.6325649 L6.51478871e-13,25.9207465 C0.0904375953,25.9207465 0.441405783,25.9022247 1.05290456,25.8651809 L11.4838555,25.3864234 C11.4940854,25.3864234 11.504023,25.3864234 11.5130837,25.3840851 C13.1535321,25.2091264 14.6877983,24.4886687 15.8701277,23.3381129 L20.8848056,18.4485315 C21.165537,18.1759001 21.2525191,17.7600747 21.1046015,17.3977787 C20.9579596,17.0341058 20.6046809,16.7963488 20.2125576,16.7973893 Z M15.1569602,22.6071162 C14.1429503,23.5934412 12.8281901,24.2122911 11.4218918,24.3651909 L1.05407369,24.8413179 L1.05407369,21.0708834 L3.53846853,18.1273139 L9.83450963,18.1273139 C10.6979317,18.1291861 11.4441021,18.7307405 11.6291196,19.5741086 L6.44608735,20.846411 C6.19524841,20.9083278 6.02996927,21.1475864 6.06083466,21.4041038 C6.09170006,21.6606212 6.30901738,21.8538439 6.56738427,21.8544907 C6.60866205,21.8545451 6.64979082,21.8495389 6.68985032,21.8395844 L12.2449572,20.4757977 L13.817433,20.4757977 C13.904814,20.4758575 13.9907518,20.4535177 14.0670416,20.4109112 L17.8123399,18.3167125 C18.3941245,17.9914502 19.0494361,17.8204031 19.7159709,17.8198335 L20.066709,17.8198335 L15.1569602,22.6071162 Z" id="Shape" stroke-width="0.679799947" fill-rule="nonzero"></path>
                                <path d="M11.1132423,15.1612387 C15.2999027,15.1612387 18.6938616,11.7672798 18.6938616,7.58061937 C18.6938616,3.3939589 15.2999027,-9.70223901e-13 11.1132423,-9.70223901e-13 C6.9265818,-9.70223901e-13 3.5326229,3.3939589 3.5326229,7.58061937 C3.53745489,11.7652767 6.92858491,15.1564068 11.1132423,15.1612387 L11.1132423,15.1612387 Z M11.1132423,1.02298611 C14.7349231,1.02298611 17.6708755,3.95893853 17.6708755,7.58061937 C17.6708755,11.2023002 14.7349231,14.1382526 11.1132423,14.1382526 C7.49156143,14.1382526 4.55560901,11.2023002 4.55560901,7.58061937 C4.55979672,3.96067455 7.49329745,1.02717382 11.1132423,1.02298611 Z" id="Shape" stroke-width="0.679799947" fill-rule="nonzero"></path>
                            </g>
                            <path d="M16.9330825,11.0886164 L14.8709434,8.47721599 C14.6493117,8.19776723 14.4951331,8.02431629 14.4180437,7.95686314 C14.9287604,7.85086534 15.3431155,7.6485059 15.6514727,7.34014865 C15.8827406,7.09924456 16.0176469,6.81015964 16.0754639,6.46325775 L17.1065335,6.46325775 L17.3088929,5.86581559 L16.0947362,5.86581559 C16.0465554,5.44182438 15.902013,5.09492248 15.670745,4.80583757 L17.1065335,4.80583757 L17.2992567,4.20839541 L12.7702597,4.20839541 L12.5679003,4.80583757 L13.5700613,4.80583757 C14.0518695,4.80583757 14.4180437,4.91183537 14.668584,5.13346714 C14.8709434,5.30691809 14.9962136,5.54782218 15.0443944,5.86581559 L12.7798959,5.86581559 L12.5871726,6.46325775 L15.0251221,6.46325775 C14.9673051,6.71379801 14.8323988,6.92579361 14.6204032,7.07997223 C14.3120459,7.29196784 13.8495101,7.4076018 13.2424318,7.4076018 L12.6546258,7.4076018 L12.6546258,8.11104176 C12.8858937,8.11104176 13.0978893,8.17849491 13.2906126,8.30376504 C13.4544274,8.419399 13.6182421,8.58321379 13.7820569,8.80484556 L15.5069303,11.0886164 L16.9330825,11.0886164 Z" id="₹" fill="#FFCB05" fill-rule="nonzero"></path>
                        </g>
                    </g>
                </g>
            </g>
        </g>
    </g>
</svg>