<?xml version="1.0" encoding="UTF-8"?>
<svg width="24px" height="24px" viewBox="0 0 24 24" version="1.1" xmlns="http://www.w3.org/2000/svg" xmlns:xlink="http://www.w3.org/1999/xlink">
    <title>icons / ATM Copy 3</title>
    <g id="Page-1" stroke="none" stroke-width="1" fill="none" fill-rule="evenodd">
        <g id="Financial-Reports" transform="translate(-536.000000, -2239.000000)" stroke="#787878" stroke-width="2">
            <g id="Group-54" transform="translate(116.000000, 1885.000000)">
                <g id="Group-65" transform="translate(420.000000, 106.000000)">
                    <g id="call-icon" transform="translate(0.000000, 248.000000)">
                        <path d="M5.45810931,15.6242521 C7.63636484,18.2180751 10.2583709,20.2603567 13.2510842,21.7053963 C14.3903755,22.2434327 15.9141591,22.8815887 17.6118279,22.9911106 C17.7170743,22.9955553 17.8178019,23 17.9230482,23 C19.0623395,23 19.9775249,22.6080119 20.7233437,21.8011283 C20.7280341,21.7966836 20.7371859,21.7875662 20.7417046,21.7784489 C21.0071084,21.4592284 22.0597431,20.4473189 22.2701786,20.228503 C23.2447938,19.2164226 23.2447938,17.9309362 22.2610267,16.9508804 L19.5107803,14.2110092 C19.0440358,13.7277338 18.4858872,13.4724486 17.9000541,13.4724486 C17.3144499,13.4724486 16.7516109,13.7277338 16.270967,14.2065645 L14.633014,15.8383384 C14.4819513,15.7517807 13.8275365,15.4236709 13.6764737,15.3279389 C12.184836,14.3841814 10.8303617,13.153456 9.53537444,11.5715425 C8.88090252,10.7463673 8.44167075,10.0534503 8.13508366,9.34691435 C8.56522077,8.95942789 9.63587323,7.87452276 9.77778416,7.73314719 C10.2720414,7.24081144 10.5374452,6.6709784 10.5374452,6.09197105 C10.5374452,5.51302068 10.2767318,4.94318765 9.77778416,4.4508519 C8.14566549,2.80973275 7.22594234,1.89346022 7.01861473,1.7020343 C6.54712268,1.24149524 5.99349274,1 5.40783132,1 C4.82668862,1 4.26836836,1.24149524 3.77880139,1.706479 L2.06729039,3.41153342 C1.44502155,4.03145478 1.0926752,4.78357741 1.01963196,5.65439626 C0.93246056,6.74397402 1.13403013,7.90187475 1.65551419,9.30132771 C2.45630137,11.4666933 3.66440323,13.4771212 5.45810931,15.6242521 Z"></path>
                    </g>
                </g>
            </g>
        </g>
    </g>
</svg>