<svg width="171" height="270" viewBox="0 0 171 270" fill="none" xmlns="http://www.w3.org/2000/svg">
<path opacity="0.240932" fill-rule="evenodd" clip-rule="evenodd" d="M112.548 161.249C110.248 167.232 108.978 174.815 108.736 184H56.8185C56.8185 166.355 58.8153 152.427 62.8089 142.215C66.8026 132.003 73.2771 123.15 82.2325 115.657C91.1879 108.164 97.9952 101.306 102.654 95.0818C107.314 88.8578 109.643 81.9993 109.643 74.5064C109.643 56.2575 101.777 47.133 86.0446 47.133C78.7834 47.133 72.914 49.7918 68.4363 55.1094C63.9586 60.4269 61.5987 67.6177 61.3567 76.6818H0C0.242038 52.511 7.86624 33.688 22.8726 20.2128C37.879 6.7376 58.9363 0 86.0446 0C113.032 0 133.938 6.22397 148.763 18.6719C163.588 31.1199 171 48.825 171 71.7872C171 81.8181 169.003 90.9425 165.01 99.1606C161.016 107.379 154.602 115.778 145.768 124.359L124.892 143.756C118.962 149.436 114.847 155.267 112.548 161.249ZM107.273 261.428C100.788 267.143 92.697 270 83 270C73.303 270 65.2121 267.143 58.7273 261.428C52.2424 255.713 49 248.403 49 239.5C49 230.597 52.2424 223.287 58.7273 217.572C65.2121 211.857 73.303 209 83 209C92.697 209 100.788 211.857 107.273 217.572C113.758 223.287 117 230.597 117 239.5C117 248.403 113.758 255.713 107.273 261.428Z" fill="url(#paint0_linear)"/>
<defs>
<linearGradient id="paint0_linear" x1="1.1141" y1="0" x2="1.1141" y2="266.482" gradientUnits="userSpaceOnUse">
<stop stop-color="white"/>
<stop offset="1" stop-color="white" stop-opacity="0.01"/>
</linearGradient>
</defs>
</svg>
