<?xml version="1.0" encoding="UTF-8"?>
<svg width="18px" height="18px" viewBox="0 0 18 18" version="1.1" xmlns="http://www.w3.org/2000/svg" xmlns:xlink="http://www.w3.org/1999/xlink">
    <title>icons / alert copy</title>
    <g id="Page-1" stroke="none" stroke-width="1" fill="none" fill-rule="evenodd">
        <g id="Step2-Aadhar" transform="translate(-1139.000000, -649.000000)" fill-rule="nonzero" stroke="#9D1D27">
            <g id="Group-5" transform="translate(961.000000, 137.000000)">
                <g id="Group-15" transform="translate(177.000000, 511.000000)">
                    <g id="Group" transform="translate(1.666667, 1.666667)">
                        <path d="M12.3262774,1.20980453 L13.9144222,0.907288599 C14.0656741,0.882078938 14.1413,0.756030635 14.1160914,0.604772672 C14.0908827,0.478724369 13.9648395,0.377885726 13.8135876,0.403095387 L11.5700179,0.856869278 C11.494392,0.882078938 11.4439747,0.907288599 11.418766,0.95770792 C11.3935574,1.00812724 11.3683487,1.08375622 11.3935574,1.1593852 L11.847313,3.403045 C11.8725217,3.5290933 11.9985649,3.62993194 12.1498168,3.60472228 C12.2758601,3.57951262 12.3766947,3.45346432 12.351486,3.30220636 L12.0237736,1.58794944 C14.3681778,3.02490009 15.7798621,5.67191445 15.6034016,8.5206061 C15.3765237,12.3272648 12.2758601,15.4028434 8.46935423,15.6297304 C4.13346681,15.8566173 0.503421516,12.3776842 0.503421516,8.06683221 C0.503421516,3.98286719 3.75533709,0.629982332 7.81392939,0.503934029 C7.93997263,0.503934029 8.06601587,0.377885726 8.06601587,0.251837423 L8.06601587,0.251837423 C8.06601587,0.10057946 7.93997263,-0.000259182502 7.81392939,-0.000259182502 C3.30158143,0.150998781 -0.303255215,4.00807685 0.0244572073,8.6466544 C0.301752334,12.6045711 3.50325061,15.8314077 7.48621697,16.1087139 C12.2002341,16.4364395 16.1327832,12.7054098 16.1327832,8.06683221 C16.1327832,5.24335022 14.6958903,2.6971745 12.3262774,1.20980453 Z" id="Path"></path>
                    </g>
                </g>
            </g>
        </g>
    </g>
</svg>