<?xml version="1.0" encoding="UTF-8"?>
<svg width="23px" height="24px" viewBox="0 0 23 24" version="1.1" xmlns="http://www.w3.org/2000/svg" xmlns:xlink="http://www.w3.org/1999/xlink">
    <title>icons /close copy 2</title>
    <g id="Page-1" stroke="none" stroke-width="1" fill="none" fill-rule="evenodd">
        <g id="Homepage-Default" transform="translate(-981.000000, -2751.000000)">
            <g id="Group-41" transform="translate(957.000000, 2509.000000)">
                <g id="Group-39" transform="translate(0.000000, 219.000000)">
                    <g id="icons-/-saving" transform="translate(23.000000, 23.000000)">
                        <path d="M21.1052365,12.2383 C20.6702365,11.0423 19.8472365,9.9458 18.7012365,9.0348 L19.6792365,5.7723 C19.7177365,5.6453 19.7037365,5.5088 19.6407365,5.3918 C19.5777365,5.2748 19.4712365,5.1878 19.3437365,5.1498 C17.4007365,4.5673 15.2932365,5.3508 14.1907365,7.0228 C13.4102365,6.8693 12.6817365,6.7938 11.9747365,6.7938 C7.75223651,6.7938 4.16823651,8.9843 2.93323651,12.0028 C2.62456985,12.6450287 2.47023651,13.4146954 2.47023651,14.3118 C2.47023651,16.4537494 3.61723651,18.4793 5.62773651,19.9058 L5.62773651,22.4998 C5.62773651,22.7763 5.85173651,22.9998 6.12773651,22.9998 L9.63573651,22.9998 C9.85123651,22.9998 10.0422365,22.8623 10.1102365,22.6583 L10.4202365,21.7273 C11.4587365,21.8643 12.4907365,21.8643 13.5292365,21.7273 L13.8392365,22.6583 C13.9072365,22.8623 14.0982365,22.9998 14.3132365,22.9998 L17.8217365,22.9998 C18.0977365,22.9998 18.3217365,22.7763 18.3217365,22.4998 L18.3217365,19.9058 C18.9742365,19.4423 19.5407365,18.9113 20.0107365,18.3213 L22.4992365,18.3213 C22.7752365,18.3213 22.9992365,18.0978 22.9992365,17.8208 L22.9992365,13.6138 C22.9992365,12.8553 22.3822365,12.2383 21.6242365,12.2383 L21.1052365,12.2383 Z" id="Fill-7" stroke="#787878" stroke-width="2"></path>
                        <path d="M11,5 C12.1027027,5 13,4.10248199 13,2.99959968 C13,1.89711769 12.1027027,1 11,1 C9.8972973,1 9,1.89711769 9,2.99959968 C9,4.10248199 9.8972973,5 11,5" id="Path" stroke="#FFCB05" stroke-width="2"></path>
                        <path d="M16.6574365,10.8965 C16.2304365,10.8965 15.8824365,11.244 15.8824365,11.6715 C15.8824365,12.099 16.2304365,12.447 16.6574365,12.447 C17.0844365,12.447 17.4319365,12.099 17.4319365,11.6715 C17.4319365,11.244 17.0844365,10.8965 16.6574365,10.8965" id="Path" fill="#787878" fill-rule="evenodd"></path>
                        <path d="M12.8838998,9.06776248 C11.6638998,8.93326248 10.5218998,9.00576248 9.4033998,9.22526248 C9.1328998,9.27926248 8.9563998,9.54176248 9.0093998,9.81276248 C9.0563998,10.0512625 9.2653998,10.2167625 9.4993998,10.2167625 C9.5313998,10.2167625 9.5638998,10.2137625 9.5968998,10.2072625 C10.6153998,10.0057625 11.6548998,9.93726248 12.7738998,10.0617625 C13.0498998,10.0922625 13.2958998,9.89426248 13.3258998,9.61976248 C13.3563998,9.34526248 13.1583998,9.09826248 12.8838998,9.06776248" id="Path" fill="#787878" fill-rule="evenodd"></path>
                        <path d="M3.8085231,9.74636867 C2.96306223,9.61186867 2.17165542,9.68436867 1.39653413,9.90386867 C1.20907744,9.95786867 1.08676281,10.2203687 1.12349185,10.4913687 C1.15606288,10.7298687 1.30090003,10.8953687 1.4630622,10.8953687 C1.48523822,10.8953687 1.50776074,10.8923687 1.53062976,10.8858687 C2.23645099,10.6843687 2.95682522,10.6158687 3.73229302,10.7403687 C3.92356121,10.7708687 4.09403939,10.5728687 4.11482941,10.2983687 C4.13596593,10.0238687 3.99875179,9.77686867 3.8085231,9.74636867" id="Path-Copy" fill="#787878" fill-rule="evenodd" transform="translate(2.616978, 10.286987) rotate(-140.000000) translate(-2.616978, -10.286987) "></path>
                    </g>
                </g>
            </g>
        </g>
    </g>
</svg>