<svg width="22" height="18" viewBox="0 0 22 18" fill="none" xmlns="http://www.w3.org/2000/svg">
<path d="M19.75 0.115723H2.25C1.78592 0.115723 1.3408 0.302935 1.01248 0.636087C0.684356 0.969417 0.5 1.42143 0.5 1.89265V16.108C0.5 16.5793 0.684376 17.0312 1.01248 17.3646C1.34076 17.6978 1.78592 17.885 2.25 17.885H19.75C20.2141 17.885 20.6592 17.6977 20.9875 17.3646C21.3156 17.0313 21.5 16.5793 21.5 16.108V1.89265C21.5 1.42143 21.3156 0.969458 20.9875 0.636087C20.6592 0.302915 20.2141 0.115723 19.75 0.115723ZM9.95 1.89265C10.1356 1.89265 10.3138 1.96753 10.445 2.1008C10.5762 2.23407 10.65 2.41494 10.65 2.60342C10.65 2.79189 10.5762 2.97276 10.445 3.10603C10.3138 3.2393 10.1356 3.31418 9.95 3.31418C9.76438 3.31418 9.58625 3.2393 9.455 3.10603C9.32375 2.97276 9.25 2.79189 9.25 2.60342C9.25 2.41494 9.32375 2.23407 9.455 2.1008C9.58625 1.96753 9.76438 1.89265 9.95 1.89265ZM6.8 1.89265C6.98562 1.89265 7.16375 1.96753 7.295 2.1008C7.42625 2.23407 7.5 2.41494 7.5 2.60342C7.5 2.79189 7.42625 2.97276 7.295 3.10603C7.16375 3.2393 6.98562 3.31418 6.8 3.31418C6.61438 3.31418 6.43625 3.2393 6.305 3.10603C6.17375 2.97276 6.1 2.79189 6.1 2.60342C6.1 2.41494 6.17375 2.23407 6.305 2.1008C6.43625 1.96753 6.61438 1.89265 6.8 1.89265ZM3.65 1.89265C3.83562 1.89265 4.01375 1.96753 4.145 2.1008C4.27625 2.23407 4.35 2.41494 4.35 2.60342C4.35 2.79189 4.27625 2.97276 4.145 3.10603C4.01375 3.2393 3.83562 3.31418 3.65 3.31418C3.46438 3.31418 3.28625 3.2393 3.155 3.10603C3.02375 2.97276 2.95 2.79189 2.95 2.60342C2.95 2.41494 3.02375 2.23407 3.155 2.1008C3.28625 1.96753 3.46438 1.89265 3.65 1.89265ZM20.8 16.108C20.8 16.3908 20.6894 16.6621 20.4925 16.8619C20.2956 17.0618 20.0284 17.1742 19.75 17.1742H2.25002C1.97158 17.1742 1.70438 17.0618 1.50754 16.8619C1.3107 16.662 1.20004 16.3907 1.20004 16.108V4.73572H20.8L20.8 16.108Z" fill="#787878"/>
<path d="M16.1695 14.4833H15.5233V7.05257C15.5233 6.9669 15.4893 6.88468 15.4287 6.82411C15.3681 6.76353 15.2859 6.72949 15.2003 6.72949H13.2618C13.0834 6.72949 12.9387 6.87416 12.9387 7.05257V14.4833H12.2926V8.66795C12.2926 8.58228 12.2585 8.50007 12.1979 8.43949C12.1374 8.37892 12.0552 8.34488 11.9695 8.34488H10.031C9.85261 8.34488 9.70794 8.48954 9.70794 8.66795V14.4833H9.06179V10.2833C9.06179 10.1977 9.02775 10.1155 8.96717 10.0549C8.9066 9.9943 8.82438 9.96026 8.73871 9.96026H6.80025C6.62183 9.96026 6.47717 10.1049 6.47717 10.2833V14.4833H5.83101C5.6526 14.4833 5.50793 14.628 5.50793 14.8064C5.50793 14.9848 5.6526 15.1295 5.83101 15.1295H16.1695C16.3479 15.1295 16.4926 14.9848 16.4926 14.8064C16.4926 14.628 16.3479 14.4833 16.1695 14.4833Z" fill="#FFCB05"/>
</svg>
