<svg width="24" height="24" viewBox="0 0 24 24" fill="none" xmlns="http://www.w3.org/2000/svg">
<path d="M2.84879 2.25082C2.69022 2.25109 2.53834 2.31417 2.42612 2.42614C2.31388 2.5381 2.25053 2.68997 2.25 2.84854V7.5395C2.25 7.75406 2.36437 7.95227 2.55027 8.05955C2.73603 8.16682 2.96506 8.16682 3.15082 8.05955C3.33671 7.95227 3.45108 7.75406 3.45108 7.5395V3.45094H7.53862C7.74983 3.44625 7.94309 3.33094 8.04729 3.14718C8.15162 2.96343 8.15162 2.73843 8.04729 2.55469C7.94309 2.37094 7.74983 2.25563 7.53862 2.25094L2.84879 2.25082ZM16.105 2.25082C15.8941 2.26569 15.7064 2.39024 15.611 2.57895C15.5156 2.76765 15.5263 2.99264 15.6393 3.1713C15.7524 3.35009 15.951 3.45617 16.1625 3.45081H20.25V7.53938C20.25 7.75393 20.3644 7.95214 20.5503 8.05942C20.736 8.1667 20.9651 8.1667 21.1508 8.05942C21.3367 7.95215 21.4511 7.75393 21.4511 7.53938V2.84841C21.4506 2.68917 21.3867 2.53689 21.2738 2.42481C21.1607 2.31271 21.0079 2.25003 20.8488 2.2507H16.1626C16.1435 2.24977 16.1242 2.24989 16.105 2.25082ZM5.54159 4.92151C5.38248 4.92097 5.22967 4.98352 5.11675 5.09561C5.00372 5.20771 4.93997 5.36012 4.9393 5.51921V9.64309C4.93863 9.80301 5.00198 9.95662 5.11501 10.0696C5.22818 10.1828 5.38166 10.246 5.54156 10.2455H9.26567C9.42505 10.2451 9.57759 10.1815 9.68996 10.0684C9.80232 9.9554 9.86514 9.80245 9.86447 9.64309V5.51921C9.8638 5.36063 9.80045 5.20889 9.68835 5.09681C9.57612 4.98484 9.42411 4.92189 9.26568 4.92149L5.54159 4.92151ZM10.896 4.92151C10.685 4.93637 10.4974 5.06106 10.4021 5.24963C10.3066 5.43834 10.3173 5.66332 10.4303 5.84198C10.5434 6.02078 10.7421 6.12685 10.9535 6.12149H12.0878V10.1658C12.0842 10.3272 12.1458 10.4832 12.2587 10.5987C12.3716 10.7141 12.5263 10.7792 12.6878 10.7792C12.8494 10.7792 13.0039 10.7141 13.1168 10.5987C13.2297 10.4832 13.2915 10.3272 13.2879 10.1658V5.51944C13.2872 5.36113 13.224 5.20939 13.1121 5.09755C13.0002 4.98559 12.8484 4.92237 12.6901 4.9217H10.9535C10.9343 4.92076 10.9151 4.92057 10.896 4.92151ZM14.4703 4.92151C14.312 4.92218 14.1604 4.98539 14.0484 5.09735C13.9366 5.20918 13.8733 5.36093 13.8727 5.51924V9.64312C13.8721 9.80223 13.9347 9.95504 14.0468 10.0681C14.1589 10.181 14.3111 10.2449 14.4704 10.2455H18.2003C18.3594 10.2449 18.5118 10.181 18.6238 10.0681C18.7359 9.95506 18.7986 9.80225 18.7979 9.64312V5.51924C18.7974 5.36094 18.7342 5.20919 18.6222 5.09735C18.5102 4.98539 18.3586 4.92218 18.2003 4.92151H14.4703ZM6.13953 6.12151H8.66368V9.04529H6.13953V6.12151ZM15.0727 6.12151H17.5982V9.04542H15.0728L15.0727 6.12151ZM5.44456 11.1982C5.23362 11.2131 5.04612 11.3377 4.95077 11.5263C4.85528 11.715 4.86613 11.94 4.97903 12.1187C5.09207 12.2975 5.29082 12.4035 5.50216 12.3982H10.4276V18.1777C10.4271 18.3376 10.4903 18.4912 10.6034 18.6044C10.7165 18.7174 10.87 18.7806 11.03 18.7801H12.9871C13.1487 18.7837 13.3046 18.722 13.42 18.6091C13.5355 18.4962 13.6005 18.3415 13.6005 18.1801C13.6005 18.0186 13.5354 17.8639 13.42 17.751C13.3046 17.6381 13.1485 17.5765 12.987 17.5801H11.6276V11.7957C11.627 11.6374 11.5639 11.4857 11.4519 11.3739C11.34 11.2619 11.1884 11.1987 11.03 11.198H5.50217C5.48302 11.1971 5.46371 11.1973 5.44456 11.1982ZM12.8369 11.3037C12.6775 11.304 12.5251 11.3677 12.4127 11.4806C12.3004 11.5937 12.2376 11.7468 12.2382 11.906V14.6834C12.2381 14.8428 12.3013 14.9956 12.414 15.1082C12.5266 15.221 12.6794 15.2844 12.8388 15.2844C12.9982 15.2844 13.151 15.221 13.2636 15.1082C13.3763 14.9956 13.4395 14.8428 13.4395 14.6834V12.5049H18.2007C18.4153 12.5049 18.6135 12.3904 18.7208 12.2045C18.828 12.0188 18.828 11.7897 18.7208 11.604C18.6135 11.4181 18.4153 11.3037 18.2007 11.3037L12.8369 11.3037ZM14.4707 13.4482C14.3114 13.4489 14.1592 13.5127 14.0471 13.6256C13.935 13.7385 13.8724 13.8915 13.873 14.0506V18.1731C13.8694 18.3346 13.931 18.4907 14.044 18.6061C14.1569 18.7216 14.3115 18.7867 14.473 18.7867C14.6345 18.7867 14.7892 18.7216 14.9021 18.6061C15.015 18.4907 15.0766 18.3346 15.073 18.1731V14.6482H17.5983V18.1731C17.5949 18.3346 17.6565 18.4907 17.7694 18.6061C17.8823 18.7216 18.037 18.7867 18.1984 18.7867C18.3599 18.7867 18.5146 18.7216 18.6275 18.6061C18.7404 18.4907 18.802 18.3346 18.7984 18.1731V14.0506C18.799 13.8915 18.7364 13.7386 18.6243 13.6256C18.5123 13.5127 18.3599 13.4489 18.2008 13.4482H14.4707ZM5.47994 13.4564C5.33168 13.4711 5.19441 13.5407 5.09464 13.6511C4.99473 13.7616 4.93955 13.9052 4.93969 14.0541V18.178C4.93902 18.3379 5.00236 18.4915 5.1154 18.6047C5.22857 18.7177 5.38205 18.7809 5.54195 18.7804H9.26606C9.42543 18.78 9.57798 18.7163 9.69035 18.6033C9.80271 18.4904 9.86552 18.3373 9.86485 18.178V14.0541C9.86418 13.8955 9.80083 13.7438 9.68874 13.6318C9.57651 13.5199 9.4245 13.4568 9.26606 13.4565H5.54195C5.52133 13.4554 5.50057 13.4553 5.47994 13.4564ZM6.13967 14.6565H8.66381V17.5803H6.13967V14.6565ZM2.83967 15.5565C2.68137 15.5592 2.53056 15.6245 2.42022 15.738C2.30973 15.8514 2.24866 16.0039 2.25026 16.1623V20.8488C2.24959 21.008 2.31241 21.1611 2.42477 21.274C2.537 21.387 2.68968 21.4508 2.84906 21.451H7.539C7.70051 21.4546 7.85654 21.393 7.97199 21.2801C8.08744 21.1672 8.15253 21.0125 8.15253 20.851C8.15253 20.6895 8.08744 20.5348 7.97199 20.4219C7.85654 20.309 7.70052 20.2474 7.539 20.251H3.45146V16.1624C3.45306 16.0002 3.38891 15.8444 3.27373 15.7303C3.15855 15.6162 3.00185 15.5533 2.83967 15.5565ZM20.8397 15.5565C20.6814 15.5592 20.5306 15.6245 20.4202 15.738C20.3097 15.8514 20.2486 16.0039 20.2503 16.1623V20.2508H16.1627C15.9515 20.2555 15.7582 20.3708 15.6541 20.5546C15.5497 20.7383 15.5497 20.9633 15.6541 21.1471C15.7582 21.3308 15.9515 21.4461 16.1627 21.4508H20.8489C21.0088 21.4515 21.1624 21.3881 21.2754 21.2751C21.3886 21.1619 21.4518 21.0084 21.4511 20.8486V16.162C21.4528 15.9999 21.3886 15.844 21.2734 15.7299C21.1582 15.6158 21.0018 15.5533 20.8397 15.5565Z" fill="#787878"/>
<path d="M5.54151 4.92176C5.3824 4.92122 5.22959 4.98376 5.11667 5.09586C5.00364 5.20796 4.93989 5.36037 4.93922 5.51946V9.64334C4.93855 9.80325 5.00189 9.95687 5.11493 10.0699C5.2281 10.1831 5.38158 10.2463 5.54148 10.2457H9.26559C9.42496 10.2453 9.57751 10.1817 9.68988 10.0687C9.80224 9.95565 9.86506 9.8027 9.86438 9.64334V5.51945C9.86371 5.36088 9.80037 5.20914 9.68827 5.09705C9.57604 4.98509 9.42403 4.92214 9.2656 4.92174L5.54151 4.92176ZM10.8959 4.92176C10.685 4.93662 10.4973 5.06131 10.402 5.24988C10.3065 5.43858 10.3172 5.66357 10.4302 5.84223C10.5433 6.02103 10.742 6.1271 10.9534 6.12174H12.0878V10.1661C12.0841 10.3275 12.1457 10.4835 12.2586 10.5989C12.3715 10.7144 12.5262 10.7795 12.6878 10.7795C12.8493 10.7795 13.0038 10.7144 13.1167 10.5989C13.2297 10.4835 13.2914 10.3275 13.2878 10.1661V5.51968C13.2871 5.36138 13.2239 5.20964 13.1121 5.0978C13.0001 4.98584 12.8484 4.92262 12.69 4.92195H10.9534C10.9342 4.92101 10.9151 4.92082 10.8959 4.92176ZM14.4702 4.92176C14.3119 4.92243 14.1603 4.98564 14.0483 5.0976C13.9365 5.20943 13.8733 5.36117 13.8726 5.51949V9.64337C13.872 9.80248 13.9346 9.95529 14.0467 10.0683C14.1588 10.1812 14.3111 10.2451 14.4703 10.2458H18.2002C18.3593 10.2451 18.5117 10.1812 18.6237 10.0683C18.7358 9.95531 18.7985 9.80249 18.7978 9.64337V5.51949C18.7973 5.36119 18.7341 5.20944 18.6221 5.0976C18.5102 4.98564 18.3585 4.92242 18.2002 4.92176H14.4702ZM6.13945 6.12175H8.6636V9.04553H6.13945V6.12175ZM15.0726 6.12175H17.5981V9.04567H15.0727L15.0726 6.12175ZM5.44448 11.1984C5.23354 11.2133 5.04604 11.338 4.95069 11.5266C4.8552 11.7153 4.86605 11.9403 4.97895 12.1189C5.09199 12.2977 5.29074 12.4038 5.50208 12.3984H10.4276V18.178C10.427 18.3379 10.4902 18.4915 10.6033 18.6046C10.7164 18.7177 10.8699 18.7809 11.03 18.7804H12.9871C13.1486 18.784 13.3045 18.7222 13.4199 18.6093C13.5354 18.4964 13.6005 18.3417 13.6005 18.1803C13.6005 18.0188 13.5354 17.8641 13.4199 17.7512C13.3045 17.6383 13.1484 17.5767 12.9869 17.5803H11.6276V11.796C11.6269 11.6377 11.5638 11.486 11.4519 11.3741C11.3399 11.2621 11.1883 11.1989 11.03 11.1983H5.50209C5.48293 11.1973 5.46363 11.1975 5.44448 11.1984ZM12.8368 11.304C12.6774 11.3042 12.525 11.368 12.4127 11.4809C12.3003 11.5939 12.2375 11.747 12.2382 11.9062V14.6837C12.238 14.843 12.3012 14.9958 12.4139 15.1085C12.5265 15.2213 12.6793 15.2846 12.8387 15.2846C12.9981 15.2846 13.1509 15.2213 13.2635 15.1085C13.3762 14.9959 13.4394 14.843 13.4394 14.6837V12.5052H18.2006C18.4152 12.5052 18.6134 12.3907 18.7207 12.2048C18.828 12.019 18.828 11.79 18.7207 11.6042C18.6134 11.4183 18.4152 11.304 18.2006 11.304L12.8368 11.304ZM14.4706 13.4484C14.3114 13.4491 14.1591 13.513 14.047 13.6259C13.9349 13.7388 13.8724 13.8917 13.8729 14.0509V18.1734C13.8693 18.3349 13.9309 18.4909 14.0439 18.6064C14.1568 18.7218 14.3114 18.7869 14.4729 18.7869C14.6344 18.7869 14.7891 18.7218 14.902 18.6064C15.0149 18.4909 15.0765 18.3349 15.0729 18.1734V14.6485H17.5983V18.1734C17.5948 18.3349 17.6564 18.4909 17.7693 18.6064C17.8822 18.7218 18.0369 18.7869 18.1983 18.7869C18.3598 18.7869 18.5145 18.7218 18.6274 18.6064C18.7403 18.4909 18.8019 18.3349 18.7983 18.1734V14.0509C18.799 13.8918 18.7363 13.7388 18.6242 13.6259C18.5122 13.513 18.3598 13.4491 18.2007 13.4484H14.4706ZM5.47986 13.4566C5.3316 13.4713 5.19433 13.541 5.09456 13.6513C4.99465 13.7618 4.93947 13.9054 4.9396 14.0543V18.1782C4.93893 18.3381 5.00228 18.4917 5.11532 18.6049C5.22849 18.7179 5.38197 18.7811 5.54187 18.7806H9.26598C9.42535 18.7802 9.5779 18.7166 9.69026 18.6036C9.80263 18.4907 9.86544 18.3376 9.86477 18.1782V14.0543C9.8641 13.8958 9.80075 13.744 9.68866 13.6321C9.57643 13.5201 9.42442 13.457 9.26598 13.4568H5.54187C5.52125 13.4557 5.50049 13.4555 5.47986 13.4566ZM6.13959 14.6567H8.66373V17.5805H6.13959V14.6567Z" fill="#FFCB05"/>
</svg>
