<svg width="16" height="15" xmlns="http://www.w3.org/2000/svg" xmlns:xlink="http://www.w3.org/1999/xlink"><defs><path id="a" d="M0 .042h14.62v14.635H0z"/></defs><g fill="none" fill-rule="evenodd"><g transform="translate(.23 .004)"><mask id="b" fill="#fff"><use xlink:href="#a"/></mask><path d="M3.942 12.384l.223.136a6.05 6.05 0 003.154.884 6.069 6.069 0 006.062-6.062A6.069 6.069 0 007.32 1.28a6.069 6.069 0 00-6.062 6.062 6.04 6.04 0 00.957 3.271l.15.235-.589 2.094 2.167-.558zM0 14.678l1.024-3.637A7.278 7.278 0 01.019 7.342c0-4.025 3.275-7.3 7.3-7.3 4.026 0 7.3 3.275 7.3 7.3 0 4.026-3.274 7.3-7.3 7.3a7.29 7.29 0 01-3.569-.93L0 14.678z" fill="#FFF" mask="url(#b)"/></g><path d="M5.5 3.949l-.474-.026a.573.573 0 00-.408.139c-.23.2-.596.585-.71 1.087-.167.75.092 1.667.765 2.584.673.918 1.927 2.385 4.144 3.012.714.202 1.276.066 1.71-.211.343-.22.58-.573.665-.971l.076-.353a.245.245 0 00-.138-.275l-1.6-.738a.245.245 0 00-.298.073l-.628.815a.18.18 0 01-.203.06c-.43-.151-1.872-.755-2.663-2.279a.182.182 0 01.023-.202l.6-.695a.245.245 0 00.04-.257l-.69-1.615A.245.245 0 005.5 3.95" fill="#FFF"/></g></svg>