<?xml version="1.0" encoding="UTF-8"?>
<svg width="26px" height="27px" viewBox="0 0 26 27" version="1.1" xmlns="http://www.w3.org/2000/svg" xmlns:xlink="http://www.w3.org/1999/xlink">
    <title>Icons/24/Identity@3x</title>
    <g id="Mobile" stroke="none" stroke-width="1" fill="none" fill-rule="evenodd">
        <g id="Screen-6" transform="translate(-142.000000, -967.000000)">
            <g id="Group-9" transform="translate(129.000000, 726.000000)">
                <g id="noun_Face-scanner_385357" transform="translate(13.000000, 241.000000)">
                    <path d="M13.3224434,3.69690909 C15.4351641,3.69690909 17.1306225,4.57192758 18.1007134,6.1617499 C19.7063811,8.79208716 19.1905252,12.9682317 16.6446967,17.9208011 C16.0408107,19.0968823 15.9457383,20.1462003 16.3559582,21.0405854 C17.1634061,22.7914723 19.6744956,23.4427061 22.3869524,24.089299 L22.6782749,24.158609 L23.0286344,23.3381691 L22.8244047,24.193821 L23.9071741,24.4420657 C25.5543677,24.8126417 25.6489168,24.8336266 25.6455554,26.4098028 L25.6448869,26.5847166 L1,26.5847166 L1.00014813,26.0951605 C1.01501855,24.8794977 1.19143353,24.7915437 2.55875932,24.4820092 L2.73595217,24.4420657 L4.07929041,24.1322 C6.85751812,23.466693 9.48257358,22.8399192 10.304774,21.02474 C10.7132334,20.1285943 10.6075973,19.0810369 9.99314774,17.9119981 C7.46140411,13.0985162 6.91913914,8.83082037 8.50544026,6.20400431 C9.48257358,4.58777298 11.1921167,3.69690909 13.3224434,3.69690909 Z M3.24557134,15.8454052 L3.24557134,19.3407152 L6.63339366,19.3407152 L6.63339366,21.1272069 L1.35159194,21.1272069 L1.35159194,15.8454052 L3.24557134,15.8454052 Z M26,15.8454052 L26,21.1272069 L20.7181983,21.1272069 L20.7181983,19.3407152 L24.1060206,19.3407152 L24.1060206,15.8454052 L26,15.8454052 Z M26,0 L26,5.28180173 L24.1060206,5.28180173 L24.1060206,1.71807045 L20.7181983,1.71807045 L20.7181983,0 L26,0 Z M6.63339366,0 L6.63339366,1.71807045 L3.24557134,1.71807045 L3.24557134,5.28180173 L1.35159194,5.28180173 L1.35159194,0 L6.63339366,0 Z" id="Combined-Shape" fill="#25243B"></path>
                    <g id="Group-3" transform="translate(0.000000, 3.281250)"></g>
                </g>
            </g>
        </g>
    </g>
</svg>