<?xml version="1.0" encoding="UTF-8"?>
<svg width="31px" height="16px" viewBox="0 0 31 16" version="1.1" xmlns="http://www.w3.org/2000/svg" xmlns:xlink="http://www.w3.org/1999/xlink">
    <title>Icons/24/Arrow-CTA@3x</title>
    <g id="Mobile" stroke="none" stroke-width="1" fill="none" fill-rule="evenodd">
        <g id="Screen-7" transform="translate(-618.000000, -518.000000)" fill="#9B1E26">
            <g id="Banner" transform="translate(0.000000, 80.000000)">
                <g id="Icons/24/Arrow-CTA" transform="translate(613.000000, 425.000000)">
                    <path d="M30.3371016,13.5550098 L30.4377038,13.6668012 L35.4363689,20.3334679 C35.547183,20.4812595 35.5998173,20.6460214 35.6041866,20.8079273 C35.6088507,20.9409385 35.5811173,21.0779063 35.515212,21.2070916 L35.4363689,21.3332479 L30.4377038,27.9999145 L30.3371016,28.111706 C30.0836468,28.3468185 29.7081464,28.4005106 29.3989585,28.2458491 L29.2710585,28.1667307 L29.1592671,28.0661285 C28.9241545,27.8126737 28.8704625,27.4371733 29.025124,27.1279854 L29.1042423,27.0000855 L33.1033333,21.6666667 L5.83333333,21.6666667 L5.68354061,21.6532406 C5.29479193,21.5826806 5,21.2424331 5,20.8333333 C5,20.4242335 5.29479193,20.083986 5.68354061,20.0134261 L5.83333333,20 L33.1033333,20.0000491 L29.1042423,14.6666303 C28.8588244,14.339319 28.890567,13.89025 29.1592671,13.6005872 L29.2710585,13.499985 C29.5983698,13.2545671 30.0474389,13.2863097 30.3371016,13.5550098 Z" id="Path"></path>
                </g>
            </g>
        </g>
    </g>
</svg>