<?xml version="1.0" encoding="UTF-8"?>
<svg width="30px" height="51px" viewBox="0 0 30 51" version="1.1" xmlns="http://www.w3.org/2000/svg" xmlns:xlink="http://www.w3.org/1999/xlink">
    <title>ic_48/Email@3x</title>
    <defs>
        <linearGradient x1="33.5724697%" y1="0.478525153%" x2="66.604424%" y2="100%" id="linearGradient-1">
            <stop stop-color="#FFDF66" offset="0%"></stop>
            <stop stop-color="#BA5B03" offset="100%"></stop>
        </linearGradient>
    </defs>
    <g id="Mobile" stroke="none" stroke-width="1" fill="none" fill-rule="evenodd">
        <g id="Screen-1" transform="translate(-873.000000, -686.000000)" fill="url(#linearGradient-1)">
            <g id="Text-Field/Multiline/Active" transform="translate(500.000000, 676.000000)">
                <g id="ic_48/Email" transform="translate(357.000000, 6.000000)">
                    <path d="M40.9583333,4.91666667 C43.1791346,4.91904017 44.9933486,6.5726776 45.1181513,8.65682696 L45.125,8.88172043 L45.125,50.1182796 C45.1225058,52.2316227 43.3847851,53.9580522 41.1946621,54.076816 L40.9583333,54.0833333 L20.9583333,54.0833333 C18.7375321,54.0809598 16.9233181,52.4273224 16.7985154,50.343173 L16.7916667,50.1182796 L16.7916667,8.88172043 C16.7941609,6.7683773 18.5318815,5.04194782 20.7220046,4.92318397 L20.9583333,4.91666667 L40.9583333,4.91666667 Z M23.6084375,6.50268817 L20.9583333,6.50268817 C19.6439816,6.5040929 18.5669891,7.46947997 18.4660599,8.69588924 L18.4583333,8.88172043 L18.4583333,50.1182796 C18.4598095,51.3690337 19.474284,52.3939136 20.7630531,52.4899591 L20.9583333,52.4973118 L40.9583333,52.4973118 C42.2726851,52.4959071 43.3496775,51.53052 43.4506068,50.3041108 L43.4583333,50.1182796 L43.4583333,8.88172043 C43.4568572,7.63096634 42.4423826,6.60608644 41.1536136,6.51004088 L40.9583333,6.50268817 L38.3082292,6.50268817 L37.6088542,9.83026042 C37.539601,10.159756 37.2616588,10.4071845 36.9217504,10.4580886 L36.7916667,10.4677419 L25.125,10.4677419 C24.7718926,10.4677574 24.4624111,10.2569413 24.3432782,9.94975083 L24.3078125,9.83026042 L23.6084375,6.50268817 Z M25.9583333,49.3252688 C26.4185706,49.3252688 26.7916667,49.6803118 26.7916667,50.1182796 C26.7916667,50.5164321 26.4833228,50.8460517 26.0814772,50.902692 L25.9583333,50.9112903 L20.9583333,50.9112903 C20.498096,50.9112903 20.125,50.5562473 20.125,50.1182796 C20.125,49.7201271 20.4333438,49.3905074 20.8351894,49.3338671 L20.9583333,49.3252688 L25.9583333,49.3252688 Z M29.2916667,49.3252688 C29.751904,49.3252688 30.125,49.6803118 30.125,50.1182796 C30.125,50.5164321 29.8166562,50.8460517 29.4148106,50.902692 L29.2916667,50.9112903 L28.4583333,50.9112903 C27.998096,50.9112903 27.625,50.5562473 27.625,50.1182796 C27.625,49.7201271 27.9333438,49.3905074 28.3351894,49.3338671 L28.4583333,49.3252688 L29.2916667,49.3252688 Z M36.6085417,6.50268817 L25.3082292,6.50268817 L25.8082292,8.88172043 L36.1085417,8.88172043 L36.6085417,6.50268817 Z" id="Shape"></path>
                </g>
            </g>
        </g>
    </g>
</svg>