<?xml version="1.0" encoding="UTF-8"?>
<svg width="38px" height="38px" viewBox="0 0 38 38" version="1.1" xmlns="http://www.w3.org/2000/svg" xmlns:xlink="http://www.w3.org/1999/xlink">
    <title>Group@3x</title>
    <g id="Mobile" stroke="none" stroke-width="1" fill="none" fill-rule="evenodd">
        <g id="Screen-8" transform="translate(-135.000000, -847.000000)" fill="#FFFFFF" fill-rule="nonzero">
            <g id="Group-9" transform="translate(129.000000, 726.000000)">
                <g id="Group" transform="translate(6.000000, 121.000000)">
                    <path d="M20,2 C15.7564875,2 11.6869165,3.68570224 8.68636653,6.68636653 C5.68570224,9.68680224 4,13.7566017 4,18 C4,22.2433983 5.68570224,26.3130835 8.68636653,29.3136335 C11.6868022,32.3142978 15.7566017,34 20,34 C24.2433983,34 28.3130835,32.3142978 31.3136335,29.3136335 C34.3142978,26.3131978 36,22.2433983 36,18 C35.9953125,13.7580874 34.3080692,9.69091649 31.3084907,6.69150935 C28.3089692,3.69198791 24.2422554,2.00468568 20,2 Z M20,31.7673302 C16.3487118,31.7673302 12.8469082,30.3167692 10.2652124,27.7349019 C7.68328798,25.1529775 6.23289834,21.6515168 6.23289834,18.0001143 C6.23289834,14.3487118 7.68334512,10.8470225 10.2652124,8.26532668 C12.8471368,5.68340226 16.3485975,4.23301262 20,4.23301262 C23.6514025,4.23301262 27.1530918,5.6834594 29.7347876,8.26532668 C32.316712,10.8472511 33.7671017,14.3487118 33.7671017,18.0001143 C33.7628606,21.6500882 32.3108835,25.1492061 29.7301019,27.7303305 C27.1490918,30.3111121 23.6495739,31.7631017 19.9998857,31.7673302 L20,31.7673302 Z" id="Shape"></path>
                    <path d="M16.5023107,10.4090828 L16.6511953,10.4090828 C17.2266198,10.4090828 17.6931308,10.9845073 17.6931308,11.4510182 L17.6931308,24.2509268 C17.6931308,24.8263512 17.2266141,25.2928622 16.6511953,25.2928622 L16.5023107,25.2928622 C15.9268862,25.2928622 15.4603753,24.7174377 15.4603753,24.2509268 L15.4603753,11.4510182 C15.4603753,10.8755937 15.926892,10.4090828 16.5023107,10.4090828 Z" id="Path"></path>
                    <path d="M23.7211163,10.4090828 L23.8700009,10.4090828 C24.4454254,10.4090828 24.9119363,10.9845073 24.9119363,11.4510182 L24.9119363,24.2509268 C24.9119363,24.8263512 24.4454197,25.2928622 23.8700009,25.2928622 L23.7211163,25.2928622 C23.1456918,25.2928622 22.6791809,24.7174377 22.6791809,24.2509268 L22.6791809,11.4510182 C22.6791809,10.8755937 23.1456975,10.4090828 23.7211163,10.4090828 Z" id="Path"></path>
                </g>
            </g>
        </g>
    </g>
</svg>