<svg width="18" height="18" viewBox="0 0 18 18" fill="none" xmlns="http://www.w3.org/2000/svg">
<path fill-rule="evenodd" clip-rule="evenodd" d="M16.2698 13.9567C16.2465 13.7752 16.1521 13.6103 16.0074 13.4982L16.0073 13.4983C15.8619 13.3844 15.6769 13.3336 15.4937 13.3569C15.3104 13.3804 15.144 13.476 15.0318 13.6227C13.9781 14.9981 12.4866 15.9728 10.8039 16.3856C9.12122 16.7983 7.34803 16.6246 5.77743 15.8931C4.20682 15.1615 2.93277 13.9158 2.16598 12.3622C1.39924 10.8085 1.18566 9.03968 1.56047 7.34801C1.93526 5.65643 2.87591 4.14331 4.22722 3.05886C5.57853 1.97442 7.2594 1.38342 8.99198 1.38372C9.23922 1.38372 9.46762 1.25184 9.59117 1.03779C9.71472 0.823751 9.71472 0.559978 9.59117 0.345931C9.46762 0.131885 9.23923 0 8.99198 0C6.94466 0.00047442 4.95882 0.699414 3.36259 1.98138C1.76636 3.26314 0.655076 5.05131 0.2126 7.05016C-0.229875 9.04901 0.0227928 11.1389 0.928856 12.9749C1.83492 14.8106 3.34017 16.2823 5.19587 17.147C7.05164 18.0115 9.14688 18.2171 11.1352 17.7298C13.1237 17.2424 14.8864 16.0915 16.132 14.4668C16.2435 14.3216 16.2931 14.1383 16.2698 13.9567ZM16.1666 4.75312C16.049 4.83512 15.9087 4.87867 15.7653 4.87759L15.7652 4.87761C15.5237 4.87869 15.299 4.75375 15.1725 4.5479C15.0461 4.34204 15.0362 4.08504 15.1464 3.87007C15.2567 3.65509 15.4711 3.51317 15.712 3.49572C15.9529 3.47811 16.1856 3.58761 16.3257 3.78451C16.4336 3.93385 16.4775 4.1201 16.4477 4.30187C16.4177 4.48363 16.3166 4.6461 16.1666 4.75312ZM13.9249 3.0026C14.1653 3.00199 14.3882 2.87659 14.5136 2.6715C14.6388 2.46641 14.6487 2.21099 14.5397 1.99679C14.4305 1.78259 14.218 1.64036 13.9785 1.62121C13.7388 1.60191 13.5064 1.70846 13.3646 1.90259C13.2635 2.04096 13.2173 2.21192 13.2351 2.38243C13.2528 2.55293 13.3331 2.71075 13.4607 2.82534C13.5881 2.93992 13.7536 3.00309 13.9249 3.00263L13.9249 3.0026ZM16.2634 6.74562H16.2633L16.2635 6.74584C16.3092 6.89153 16.4017 7.01808 16.5269 7.1056C16.652 7.19317 16.8027 7.23687 16.9553 7.22992C17.0217 7.24058 17.0895 7.24058 17.1559 7.22992C17.3313 7.17587 17.4781 7.05433 17.5638 6.89202C17.6495 6.72971 17.6672 6.54007 17.613 6.36462C17.559 6.18934 17.4373 6.04263 17.2751 5.95694C17.1128 5.87123 16.923 5.85362 16.7477 5.90783C16.5723 5.96203 16.4257 6.08357 16.34 6.24588C16.2545 6.40835 16.2369 6.59799 16.2911 6.77328L16.2635 6.74584L16.2634 6.74562ZM17.066 11.07C16.8926 11.008 16.7017 11.0176 16.5354 11.0968C16.3692 11.1761 16.2415 11.3183 16.1804 11.492C16.0988 11.7255 16.1481 11.985 16.3096 12.1723C16.471 12.3598 16.7203 12.4469 16.9633 12.4007C17.2064 12.3545 17.4064 12.1822 17.488 11.9487C17.5479 11.7762 17.5371 11.587 17.458 11.4224C17.3789 11.2577 17.2381 11.1311 17.066 11.07ZM16.8189 8.6435C16.9487 8.51377 17.1246 8.44088 17.3082 8.44088C17.5553 8.44088 17.7837 8.57276 17.9072 8.78681C18.0309 9.00085 18.0309 9.26463 17.9072 9.47867C17.7837 9.69272 17.5553 9.8246 17.3082 9.8246C17.1246 9.8246 16.9487 9.75171 16.8189 9.62199C16.6892 9.49226 16.6163 9.31621 16.6163 9.13274C16.6163 8.94928 16.6892 8.77322 16.8189 8.6435ZM11.5934 1.799C11.762 1.79066 11.9219 1.72086 12.0426 1.60272C12.1634 1.48473 12.2368 1.32643 12.2491 1.15795C12.2613 0.989616 12.2114 0.822518 12.1089 0.688154C12.0065 0.553952 11.8584 0.461753 11.6927 0.429168C11.527 0.396583 11.355 0.425616 11.2093 0.511017C11.0635 0.596421 10.954 0.732168 10.9015 0.892621C10.8306 1.10914 10.8708 1.34664 11.009 1.52779C11.1472 1.70879 11.3658 1.81025 11.5934 1.79898L11.5934 1.799ZM9.3379 3.14398C9.55194 3.26753 9.68383 3.49592 9.68383 3.74317L9.68383 8.50298L12.9079 9.63079C13.1195 9.70015 13.2847 9.86725 13.3519 10.0796C13.4191 10.2919 13.3799 10.5236 13.2466 10.7021C13.1133 10.8805 12.9022 10.984 12.6795 10.9799C12.6017 10.979 12.5245 10.965 12.4513 10.9384L8.76371 9.64453C8.62858 9.59743 8.51152 9.50956 8.42859 9.39296C8.3455 9.27651 8.30072 9.13722 8.3001 8.99421V3.74317C8.3001 3.49593 8.43199 3.26753 8.64603 3.14398C8.86008 3.02043 9.12385 3.02043 9.3379 3.14398Z" fill="#DA6835"/>
</svg>
