<?xml version="1.0" encoding="UTF-8"?>
<svg width="16px" height="16px" viewBox="0 0 16 16" version="1.1" xmlns="http://www.w3.org/2000/svg" xmlns:xlink="http://www.w3.org/1999/xlink">
    <title>71E30C2E-A22B-401C-84F8-B9DCF5920A00@1x</title>
    <g id="CC-landing-page" stroke="none" stroke-width="1" fill="none" fill-rule="evenodd">
        <g id="05--Digi" transform="translate(-247.000000, -667.000000)">
            <g id="edit" transform="translate(247.000000, 667.000000)">
                <polygon id="Path" points="0 0 16 0 16 16 0 16"></polygon>
                <path d="M2,11.6403277 L2,13.666713 C2,13.8533537 2.1466463,14 2.33328704,14 L4.35967227,14 C4.4463269,14 4.53298153,13.9666713 4.5929732,13.9000139 L11.8719622,6.6276906 L9.3723094,4.12803777 L2.09998611,11.4003611 C2.0333287,11.4670185 2,11.5470074 2,11.6403277 Z M13.8050271,4.69462575 C14.064991,4.43466185 14.064991,4.01472018 13.8050271,3.75475628 L12.2452437,2.19497292 C11.9852798,1.93500903 11.5653381,1.93500903 11.3053743,2.19497292 L10.0855437,3.4148035 L12.5851965,5.91445633 L13.8050271,4.69462575 Z" id="Shape" fill="#DA3442" fill-rule="nonzero"></path>
            </g>
        </g>
    </g>
</svg>