<svg width="32" height="32" viewBox="0 0 32 32" fill="none" xmlns="http://www.w3.org/2000/svg">
<path d="M16.5261 1.33337C14.4046 1.33337 12.6657 3.01266 12.6657 5.06753V7.26866H14.4724V5.06753C14.4724 3.95195 15.3743 3.08336 16.5261 3.08336H19.4795C20.6312 3.08336 21.528 3.9517 21.528 5.06753L21.5282 7.26866H23.3349V5.06753C23.3349 3.01266 21.6012 1.33337 19.4797 1.33337H16.5261ZM23.3347 7.26881V9.83733C23.3621 11.0301 21.5006 11.0301 21.528 9.83733V7.26881H14.4721V9.83733C14.4461 10.9785 12.6914 10.9785 12.6654 9.83733V7.26881H8.70987C8.68103 7.26744 8.6522 7.26744 8.62336 7.26881C8.18762 7.30963 7.84483 7.64752 7.80994 8.07015L6.00325 28.3849C5.95889 28.8953 6.37447 29.3332 6.90319 29.3334H29.095C29.6245 29.3342 30.0411 28.8959 29.9968 28.3849L28.1883 8.07015C28.1487 7.61723 27.7578 7.26901 27.2883 7.26881H23.3347Z" fill="#9D1D27"/>
</svg>
