<svg width="32" height="32" viewBox="0 0 32 32" fill="none" xmlns="http://www.w3.org/2000/svg">
<path d="M16.4957 18.4079C15.672 18.4079 14.8486 18.286 14.0554 18.0723L7.22266 16.0286V20.6956C7.22266 21.5497 7.7716 22.2818 8.59524 22.5259L11.5845 23.4104C14.8788 24.3866 18.3562 24.3866 21.6505 23.4104L24.6398 22.5259C25.4634 22.2818 26.0124 21.5497 26.0124 20.6956L26.0126 15.9678L18.9358 18.0725C18.1427 18.3164 17.3192 18.4079 16.4955 18.4079H16.4957Z" fill="#9D1D27"/>
<path d="M30.3757 10.8433L18.3269 7.27448C17.1373 6.90851 15.8562 6.90851 14.636 7.27448L2.61773 10.8433C1.79409 11.0874 1.79409 12.277 2.61773 12.5211L14.6665 16.0899C15.8561 16.4559 17.1372 16.4559 18.3575 16.0899L28.6675 13.0396V15.7544C28.4539 15.8763 28.3015 16.0899 28.3015 16.334V17.0661C28.3015 17.3406 28.4541 17.5847 28.6981 17.6761L28.0575 19.1709C27.966 19.3845 28.0879 19.5979 28.3319 19.6283L29.003 19.6894H29.3996L30.0707 19.6283C30.2843 19.5979 30.4062 19.3843 30.3452 19.1709L29.7045 17.6761C29.9485 17.5542 30.1011 17.3406 30.1011 17.0661V16.334C30.1011 16.09 29.9485 15.8766 29.7351 15.7544V12.7345L30.4062 12.5209C31.1992 12.2466 31.1992 11.0875 30.3756 10.8434L30.3757 10.8433Z" fill="#9D1D27"/>
</svg>
