<svg width="47" height="47" viewBox="0 0 47 47" fill="none" xmlns="http://www.w3.org/2000/svg">
    <path d="M40.2578 29.5881H39.4098C37.9741 29.5893 36.5625 29.9573 35.309 30.6572L29.116 34.1201H27.3497C26.9251 31.8 24.9045 30.1139 22.5459 30.1115H11.3917C11.1345 30.1116 10.8904 30.2249 10.7242 30.4213L7.34468 34.4268H5.8537L5.76172 45.1587C5.91607 45.1587 6.51505 45.1271 7.55868 45.0638L25.3608 44.2468C25.3783 44.2468 25.3953 44.2468 25.4107 44.2428C28.2104 43.9442 30.8289 42.7146 32.8467 40.751L41.4051 32.4061C41.8842 31.9408 42.0327 31.2311 41.7802 30.6128C41.53 29.9921 40.927 29.5864 40.2578 29.5881ZM31.6296 39.5034C29.899 41.1867 27.6552 42.2429 25.2551 42.5039L7.56067 43.3164V36.8816L11.8007 31.8579H22.5459C24.0195 31.8611 25.293 32.8877 25.6087 34.3271L16.763 36.4985C16.3349 36.6041 16.0529 37.0125 16.1055 37.4503C16.1582 37.8881 16.5291 38.2178 16.9701 38.2189C17.0405 38.219 17.1107 38.2105 17.1791 38.1935L26.6598 35.866H29.3435C29.4926 35.8661 29.6393 35.8279 29.7695 35.7552L36.1614 32.1811C37.1544 31.626 38.2728 31.3341 39.4103 31.3331H40.0089L31.6296 39.5034Z" fill="#777777" stroke="#777777" stroke-width="0.6798" />
    <path d="M24.7306 26.7952C31.8758 26.7952 37.6682 21.0029 37.6682 13.8576C37.6682 6.7124 31.8758 0.920044 24.7306 0.920044C17.5853 0.920044 11.793 6.7124 11.793 13.8576C11.8012 20.9994 17.5887 26.787 24.7306 26.7952ZM24.7306 2.66594C30.9116 2.66594 35.9223 7.67663 35.9223 13.8576C35.9223 20.0386 30.9116 25.0493 24.7306 25.0493C18.5496 25.0493 13.5389 20.0386 13.5389 13.8576C13.546 7.6796 18.5525 2.67309 24.7306 2.66594Z" fill="#777777" stroke="#777777" stroke-width="0.6798" />
    <path d="M28.8995 19.8441L25.3801 15.3873C25.0019 14.9103 24.7387 14.6143 24.6072 14.4992C25.4788 14.3183 26.186 13.9729 26.7122 13.4467C27.1069 13.0355 27.3372 12.5422 27.4358 11.9501H29.1955L29.5409 10.9305H27.4687C27.3865 10.2069 27.1398 9.61481 26.7451 9.12144H29.1955L29.5244 8.10181H21.7949L21.4496 9.12144H23.1599C23.9822 9.12144 24.6072 9.30234 25.0348 9.6806C25.3801 9.97662 25.5939 10.3878 25.6761 10.9305H21.8114L21.4825 11.9501H25.6432C25.5446 12.3777 25.3143 12.7395 24.9525 13.0026C24.4263 13.3644 23.6369 13.5618 22.6008 13.5618H21.5976V14.7623C21.9923 14.7623 22.3541 14.8774 22.683 15.0912C22.9626 15.2886 23.2422 15.5682 23.5217 15.9464L26.4655 19.8441H28.8995Z" fill="#9C1D26" />
</svg>
