<svg width="64" height="64" viewBox="0 0 64 64" fill="none" xmlns="http://www.w3.org/2000/svg">
<path d="M54.9897 13.6478C54.9721 13.575 54.9447 13.5049 54.9084 13.4394C54.8928 13.403 54.8714 13.3693 54.8452 13.3397C54.8231 13.3026 54.7957 13.269 54.7638 13.24L44.8237 3.27305C44.7948 3.24107 44.7613 3.21359 44.7243 3.1915C44.6947 3.16518 44.6612 3.14377 44.6249 3.12808C44.5505 3.07571 44.4681 3.03592 44.3809 3.01029C44.3032 2.99657 44.2237 2.99657 44.146 3.01029H8.90365C8.66399 3.01029 8.43414 3.10575 8.26467 3.27567C8.09521 3.4456 8 3.67607 8 3.91638V60.0939C8 60.3342 8.09521 60.5647 8.26467 60.7346C8.43414 60.9045 8.66399 61 8.90365 61H54.0861C54.3258 61 54.5556 60.9045 54.7251 60.7346C54.8945 60.5647 54.9897 60.3342 54.9897 60.0939V13.8834C55.0034 13.8054 55.0034 13.7257 54.9897 13.6478ZM45.0496 6.10005L51.9083 12.9773H45.0496V6.10005ZM53.1824 59.1878H9.8073V4.82246H43.2423V13.8834C43.2423 14.1237 43.3375 14.3541 43.507 14.5241C43.6764 14.694 43.9063 14.7894 44.146 14.7894H53.1824V59.1878Z" fill="#9B1E26"/>
<path d="M20.8705 24.0833C19.1697 24.0842 17.5289 24.7305 16.2615 25.8988C14.9941 27.0671 14.189 28.6755 14 30.4167H27.741C27.5521 28.6755 26.747 27.0671 25.4795 25.8988C24.2121 24.7305 22.5713 24.0842 20.8705 24.0833ZM20.8705 22.5C21.6742 22.498 22.474 22.6154 23.2452 22.8483C24.583 21.1907 25.3337 19.1136 25.374 16.9583C25.374 13 21.9849 13 20.8705 13C19.7562 13 16.367 13 16.367 16.9583C16.4074 19.1136 17.1581 21.1907 18.4958 22.8483C19.267 22.6154 20.0668 22.498 20.8705 22.5ZM27.7871 21.7083C27.7871 21.9183 27.8681 22.1197 28.0122 22.2681C28.1564 22.4166 28.3518 22.5 28.5557 22.5H46.2315C46.4353 22.5 46.6308 22.4166 46.7749 22.2681C46.919 22.1197 47 21.9183 47 21.7083C47 21.4984 46.919 21.297 46.7749 21.1485C46.6308 21.0001 46.4353 20.9167 46.2315 20.9167H28.5557C28.3518 20.9167 28.1564 21.0001 28.0122 21.1485C27.8681 21.297 27.7871 21.4984 27.7871 21.7083ZM43.1574 25.6667C43.3613 25.6667 43.5567 25.5833 43.7009 25.4348C43.845 25.2863 43.9259 25.085 43.9259 24.875C43.9259 24.665 43.845 24.4637 43.7009 24.3152C43.5567 24.1667 43.3613 24.0833 43.1574 24.0833H29.3242C29.1203 24.0833 28.9249 24.1667 28.7808 24.3152C28.6366 24.4637 28.5557 24.665 28.5557 24.875C28.5557 25.085 28.6366 25.2863 28.7808 25.4348C28.9249 25.5833 29.1203 25.6667 29.3242 25.6667H43.1574ZM20.8705 44.6667C19.1697 44.6675 17.5289 45.3138 16.2615 46.4821C14.9941 47.6504 14.189 49.2588 14 51H27.741C27.5521 49.2588 26.747 47.6504 25.4795 46.4821C24.2121 45.3138 22.5713 44.6675 20.8705 44.6667ZM23.2452 43.4317C24.583 41.774 25.3337 39.6969 25.374 37.5417C25.374 33.5833 21.9849 33.5833 20.8705 33.5833C19.7562 33.5833 16.367 33.5833 16.367 37.5417C16.4074 39.6969 17.1581 41.774 18.4958 43.4317C20.0468 42.9672 21.6942 42.9672 23.2452 43.4317ZM46.2315 41.5H28.5557C28.3518 41.5 28.1564 41.5834 28.0122 41.7319C27.8681 41.8803 27.7871 42.0817 27.7871 42.2917C27.7871 42.5016 27.8681 42.703 28.0122 42.8515C28.1564 42.9999 28.3518 43.0833 28.5557 43.0833H46.2315C46.4353 43.0833 46.6308 42.9999 46.7749 42.8515C46.919 42.703 47 42.5016 47 42.2917C47 42.0817 46.919 41.8803 46.7749 41.7319C46.6308 41.5834 46.4353 41.5 46.2315 41.5ZM43.1574 44.6667H29.3242C29.1203 44.6667 28.9249 44.7501 28.7808 44.8985C28.6366 45.047 28.5557 45.2484 28.5557 45.4583C28.5557 45.6683 28.6366 45.8697 28.7808 46.0181C28.9249 46.1666 29.1203 46.25 29.3242 46.25H43.1574C43.3613 46.25 43.5567 46.1666 43.7009 46.0181C43.845 45.8697 43.9259 45.6683 43.9259 45.4583C43.9259 45.2484 43.845 45.047 43.7009 44.8985C43.5567 44.7501 43.3613 44.6667 43.1574 44.6667Z" fill="#9B1E26"/>
</svg>
