<svg width="64" height="64" viewBox="0 0 64 64" fill="none" xmlns="http://www.w3.org/2000/svg">
<path d="M49.9197 51.1999H14.0797C12.3823 51.1999 10.7544 50.5256 9.5542 49.3254C8.35397 48.1252 7.67969 46.4973 7.67969 44.7999V24.3199C7.67969 22.6225 8.35397 20.9947 9.5542 19.7944C10.7544 18.5942 12.3823 17.9199 14.0797 17.9199H19.1997C19.5392 17.9199 19.8647 18.0548 20.1048 18.2948C20.3448 18.5349 20.4797 18.8604 20.4797 19.1999C20.4797 19.5394 20.3448 19.865 20.1048 20.105C19.8647 20.3451 19.5392 20.4799 19.1997 20.4799H14.0797C13.0613 20.4799 12.0845 20.8845 11.3644 21.6046C10.6443 22.3248 10.2397 23.3015 10.2397 24.3199V44.7999C10.2397 45.8184 10.6443 46.7951 11.3644 47.5152C12.0845 48.2353 13.0613 48.6399 14.0797 48.6399H49.9197C50.9381 48.6399 51.9148 48.2353 52.635 47.5152C53.3551 46.7951 53.7597 45.8184 53.7597 44.7999V24.3199C53.7597 23.3015 53.3551 22.3248 52.635 21.6046C51.9148 20.8845 50.9381 20.4799 49.9197 20.4799H44.7997C44.4602 20.4799 44.1346 20.3451 43.8946 20.105C43.6545 19.865 43.5197 19.5394 43.5197 19.1999C43.5197 18.8604 43.6545 18.5349 43.8946 18.2948C44.1346 18.0548 44.4602 17.9199 44.7997 17.9199H49.9197C51.6171 17.9199 53.2449 18.5942 54.4452 19.7944C55.6454 20.9947 56.3197 22.6225 56.3197 24.3199V44.7999C56.3197 46.4973 55.6454 48.1252 54.4452 49.3254C53.2449 50.5256 51.6171 51.1999 49.9197 51.1999Z" fill="#9B1E26"/>
<path d="M32.0003 43.5208C31.8321 43.5211 31.6654 43.4882 31.5099 43.4241C31.3544 43.36 31.2131 43.2658 31.094 43.147L18.294 30.347C18.1145 30.168 17.9923 29.9397 17.9427 29.6911C17.8931 29.4425 17.9185 29.1848 18.0155 28.9506C18.1126 28.7165 18.277 28.5164 18.4879 28.3758C18.6988 28.2352 18.9468 28.1603 19.2003 28.1608H25.6003V14.0808C25.6003 13.7413 25.7351 13.4157 25.9752 13.1757C26.2152 12.9356 26.5408 12.8008 26.8803 12.8008H37.1203C37.4597 12.8008 37.7853 12.9356 38.0254 13.1757C38.2654 13.4157 38.4003 13.7413 38.4003 14.0808V28.1608H44.8003C45.0538 28.1603 45.3017 28.2352 45.5126 28.3758C45.7235 28.5164 45.8879 28.7165 45.985 28.9506C46.0821 29.1848 46.1074 29.4425 46.0578 29.6911C46.0082 29.9397 45.886 30.168 45.7065 30.347L32.9065 43.147C32.7874 43.2658 32.6461 43.36 32.4906 43.4241C32.3351 43.4882 32.1685 43.5211 32.0003 43.5208ZM22.2902 30.7208L32.0003 40.4309L41.7103 30.7208H37.1203C36.7808 30.7208 36.4552 30.5859 36.2152 30.3459C35.9751 30.1058 35.8403 29.7803 35.8403 29.4408V15.3608H28.1603V29.4408C28.1603 29.7803 28.0254 30.1058 27.7854 30.3459C27.5453 30.5859 27.2197 30.7208 26.8803 30.7208H22.2902Z" fill="#9B1E26"/>
</svg>
