<?xml version="1.0" encoding="UTF-8"?>
<svg width="56px" height="56px" viewBox="0 0 56 56" version="1.1" xmlns="http://www.w3.org/2000/svg" xmlns:xlink="http://www.w3.org/1999/xlink">
    <title>icons / 3</title>
    <g id="icons-/-3" stroke="none" stroke-width="1" fill="none" fill-rule="evenodd">
        <path d="M25.841366,53 L30.3730043,53 C30.8929322,51.9161487 32.017043,49.0429615 32.9169182,46.5680406 L33.0982264,46.0754552 L37.2243209,44.3719878 L37.6679927,44.5641697 C40.1271184,45.6362992 43.0336487,46.8245557 44.1662916,47.1895649 L47.35065,44.0053429 C46.9461728,42.8590666 45.7199428,40.0543016 44.6139629,37.68842 L44.3907938,37.2075564 L46.0980237,33.0408898 L46.5627593,32.857431 C49.0466815,31.8798931 51.9246824,30.6731 53,30.1227238 L53,25.6493839 C51.9121508,25.1265402 49.045615,24.0113401 46.5752909,23.1158543 L46.0916246,22.9392106 L44.3731963,18.7684549 L44.5782345,18.2982227 C45.6354212,15.8592847 46.8112582,12.9822811 47.1880059,11.8231927 L43.9951153,8.63215571 C42.9645916,8.99989096 40.0788584,10.2642024 37.6447959,11.3998473 L37.1915254,11.6124741 L33.0654309,9.91200523 L32.8811898,9.44286337 C31.9058584,6.95403991 30.6940264,4.06831316 30.1474356,3 L25.6189968,3 C25.096136,4.08085269 23.975758,6.9551303 23.0780158,9.42923345 L22.8996406,9.91909279 L18.7850111,11.6282848 L18.3413393,11.4341947 C15.8766144,10.3639734 12.9642183,9.17762512 11.8278425,8.81288845 L8.64908333,11.9990186 C9.04796135,13.1433868 10.2779241,15.9462436 11.3801713,18.3121252 L11.6062733,18.7940792 L9.89051118,22.9588376 L9.42870855,23.141206 C6.94878577,24.1176535 4.07558419,25.3236288 3,25.8718242 L3,30.3508887 C4.08784915,30.8756406 6.95145207,31.9938393 9.4201764,32.8931414 L9.90010985,33.0716934 L11.6188049,37.2285465 L11.4137666,37.6976884 C10.3565799,40.1347181 9.18180946,43.0079054 8.80399518,44.164813 L12.0035515,47.3656635 C13.0311423,46.9949297 15.9131427,45.7306183 18.3501381,44.5938829 L18.8063415,44.3801657 L22.9239039,46.0912659 L23.108145,46.5604078 C24.0864094,49.0500491 25.2945085,51.930869 25.841366,53 Z" id="Shape" stroke="#787878" stroke-width="3"></path>
        <path d="M28.0275093,34.8476062 C24.2668892,34.8476062 21.2045694,31.7879455 21.2045694,28.0269995 C21.2045694,24.2689633 24.2663183,21.2112426 28.0275093,21.2112426 C31.7860359,21.2112426 34.840933,24.2695453 34.840933,28.0269995 C34.840933,31.7879455 31.7860359,34.8476062 28.0275093,34.8476062 Z" id="Path" stroke="#9C1D26" stroke-width="3"></path>
    </g>
</svg>