<?xml version="1.0" encoding="UTF-8"?>
<svg width="56px" height="56px" viewBox="0 0 56 56" version="1.1" xmlns="http://www.w3.org/2000/svg" xmlns:xlink="http://www.w3.org/1999/xlink">
    <title>icons / 1</title>
    <g id="icons-/-1" stroke="none" stroke-width="1" fill="none" fill-rule="evenodd">
        <path d="M34,30 C30.6862915,30 28,32.6862915 28,36 C28,39.3137085 30.6862915,42 34,42 C37.3137085,42 40,39.3137085 40,36 C40,32.6862915 37.3137085,30 34,30 Z M34,34 C35.1045695,34 36,34.8954305 36,36 C36,37.1045695 35.1045695,38 34,38 C32.8954305,38 32,37.1045695 32,36 C32,34.8954305 32.8954305,34 34,34 Z" id="Oval" fill="#9C1D26" fill-rule="nonzero"></path>
        <path d="M23,15 C19.6862915,15 17,17.6862915 17,21 C17,24.3137085 19.6862915,27 23,27 C26.3137085,27 29,24.3137085 29,21 C29,17.6862915 26.3137085,15 23,15 Z M23,19 C24.1045695,19 25,19.8954305 25,21 C25,22.1045695 24.1045695,23 23,23 C21.8954305,23 21,22.1045695 21,21 C21,19.8954305 21.8954305,19 23,19 Z" id="Oval" fill="#9C1D26" fill-rule="nonzero"></path>
        <path d="M28.5,5 C15.5213084,5 5,15.5213084 5,28.5 C5,41.4786916 15.5213084,52 28.5,52 C41.4786916,52 52,41.4786916 52,28.5 C52,15.5213084 41.4786916,5 28.5,5 Z M28.5,9 C39.2695526,9 48,17.7304474 48,28.5 C48,39.2695526 39.2695526,48 28.5,48 C17.7304474,48 9,39.2695526 9,28.5 C9,17.7304474 17.7304474,9 28.5,9 Z" id="Oval" fill="#787878" fill-rule="nonzero"></path>
        <polygon id="Line-2" fill="#9C1D26" fill-rule="nonzero" points="35.8301887 16 39 18.3636364 21.1698113 42 18 39.6363636"></polygon>
    </g>
</svg>