<?xml version="1.0" encoding="UTF-8"?>
<svg width="56px" height="56px" viewBox="0 0 56 56" version="1.1" xmlns="http://www.w3.org/2000/svg" xmlns:xlink="http://www.w3.org/1999/xlink">
    <title>icons / 8</title>
    <g id="icons-/-8" stroke="none" stroke-width="1" fill="none" fill-rule="evenodd">
        <path d="M17.1100031,41.5182249 L21.9645229,46.145799 L18.9693187,49 L9,39.5 L18.9693187,30 L21.9645229,32.854201 L17.1100031,37.4817751 L35.292425,37.4817751 C40.9846147,37.4817751 43.5986944,35.9340648 43.7565156,31.8320749 L43.7641417,31.4271005 L48,31.4271005 C48,38.3244292 43.4504732,41.3751338 35.841133,41.5132968 L35.292425,41.5182249 L17.1100031,41.5182249 Z" id="Line-5" fill="#9C1D26" fill-rule="nonzero"></path>
        <path d="M16.281576,18.0078661 L21.1360958,22.6354402 L18.1408916,25.4896412 L8.17157288,15.9896412 L18.1408916,6.48964121 L21.1360958,9.3438422 L16.281576,13.9714163 L34.4639979,13.9714163 C40.1561876,13.9714163 42.7702673,12.423706 42.9280885,8.32171608 L42.9357145,7.9167417 L47.1715729,7.9167417 C47.1715729,14.8140704 42.6220461,17.8647751 35.0127058,18.002938 L34.4639979,18.0078661 L16.281576,18.0078661 Z" id="Line-5" fill="#787878" fill-rule="nonzero" transform="translate(28.085786, 15.744821) scale(-1, -1) translate(-28.085786, -15.744821) "></path>
    </g>
</svg>