<?xml version="1.0" encoding="UTF-8"?>
<svg width="15px" height="15px" viewBox="0 0 15 15" version="1.1" xmlns="http://www.w3.org/2000/svg" xmlns:xlink="http://www.w3.org/1999/xlink">
    <title>Icons/24/thumb-up@3x</title>
    <g id="Mobile" stroke="none" stroke-width="1" fill="none" fill-rule="evenodd">
        <g id="Screen-6" transform="translate(-22.000000, -649.000000)" fill="#686873">
            <g id="Group-9" transform="translate(17.000000, 404.000000)">
                <g id="Icons/24/thumb-up" transform="translate(5.000000, 245.000000)">
                    <path d="M13.448801,7.36112305 C12.9699135,7.12162737 12.3451042,6.98976313 11.6894531,6.98976313 C11.033802,6.98976313 10.4089928,7.12162737 9.9301052,7.36112305 C9.33278084,7.65967963 9.00390625,8.10006636 9.00390625,8.60108754 C9.00390625,8.61703294 9.00422097,8.63287344 9.00485038,8.64860901 C9.00422097,8.65962395 9.00390625,8.67053396 9.00390625,8.68165376 L9.00390625,9.34527605 C8.54463579,9.14186732 7.97993661,9.03077405 7.39257812,9.03077405 C6.73692705,9.03077405 6.11211775,9.16263828 5.6332302,9.40213397 C5.03590584,9.70069055 4.70703125,10.1410773 4.70703125,10.6420985 C4.70703125,10.6484976 4.70734597,10.6547918 4.70745087,10.661191 C4.70734597,10.6638136 4.70703125,10.6663313 4.70703125,10.6689539 L4.70703125,12.7636756 C4.70703125,12.9485163 4.75203513,13.1251746 4.8385811,13.289559 C2.89617537,13.15203 1.69921875,11.7641509 1.69921875,9.621593 C1.69921875,8.13237677 2.50330924,6.7512116 4.08925057,5.5165972 C4.10624503,5.50337931 4.1231346,5.49058102 4.14012909,5.47746804 C3.32240104,6.66718353 2.90771484,7.88868492 2.90771484,9.11134027 C2.90771484,9.40800859 3.14815521,9.6484484 3.44482422,9.6484484 C3.74149323,9.6484484 3.98193359,9.40800859 3.98193359,9.11134027 C3.98193359,7.44798351 4.94631767,5.76563915 6.84844016,4.1108845 C6.85704232,4.10343634 6.86511993,4.09640777 6.87309265,4.0893792 L8.49428178,4.0893792 C8.8522148,4.24211932 10.2263546,4.86755656 11.4117718,5.93568841 C11.6320705,6.13427155 11.9717503,6.11654279 12.1703339,5.89624454 C12.3689175,5.67584138 12.3511887,5.33616243 12.130785,5.13768419 C11.0691547,4.18106522 9.89968301,3.55720155 9.26585197,3.25812043 L9.98759269,1.4113916 C10.0119305,1.34907868 10.0244141,1.28277939 10.0244141,1.21585067 L10.0244141,1.16213986 C10.0244141,0.985691454 9.93776323,0.820467753 9.79257585,0.720179593 C9.64749337,0.619996331 9.46233748,0.597441979 9.29732322,0.659754928 C8.08746338,1.11734587 6.91169739,1.11734587 5.70288657,0.659754928 C5.53787231,0.597337081 5.35261153,0.619891434 5.20742415,0.720179593 C5.06223677,0.820467753 4.97558594,0.985691454 4.97558594,1.16213986 L4.97558594,1.21585067 C4.97558594,1.28277939 4.98806954,1.34907868 5.01240731,1.4113916 L5.73425293,3.25833025 C5.21518707,3.50328092 4.3365097,3.96643179 3.45164298,4.65155938 C2.64356612,5.27741623 1.99693681,5.96034084 1.52958871,6.68176518 C0.929327004,7.60827672 0.625,8.59741589 0.625,9.621593 C0.625,11.0264665 1.05049133,12.2163918 1.85531616,13.0626518 C2.64083862,13.8886654 3.73509408,14.3418504 5.01985551,14.3733215 C5.02415658,14.3735313 5.02845764,14.3735313 5.03265381,14.3735313 L7.38922119,14.375 L7.39257812,14.375 L7.39562034,14.375 L7.45940208,14.375 L7.4597168,14.375 C7.467165,14.375 7.47450828,14.3741608 7.48185158,14.3738461 C8.10477256,14.3624115 8.69485856,14.2322258 9.15192605,14.0036401 C9.29795266,13.9306269 9.42792891,13.8490117 9.54101562,13.760263 C9.65410234,13.8491166 9.78397369,13.9306269 9.93000031,14.0036401 C10.4089928,14.2431358 11.033802,14.375 11.6894531,14.375 C12.3451042,14.375 12.9699135,14.2431358 13.448801,14.0036401 C14.0461254,13.7050835 14.375,13.2646968 14.375,12.7636756 L14.375,8.60108754 C14.375,8.10006636 14.0461254,7.65967963 13.448801,7.36112305 Z M8.75,1.875 L8.29162363,3.125 L6.70837637,3.125 L6.25,1.87512508 C7.08223776,2.04611978 7.91764487,2.04599471 8.75,1.875 Z M8.42773438,12.8728498 C8.110555,13.0327775 7.65981039,13.1245897 7.19065349,13.125 L7.18404135,13.125 C6.71498617,13.1245897 6.264445,13.0327775 5.94726562,12.8728498 C5.68105063,12.7386707 5.625,12.6180325 5.625,12.5998753 L5.625,11.8044431 C6.0675049,11.996069 6.6151937,12.1009093 7.1875,12.1009093 C7.20692953,12.1009093 7.22635906,12.1008067 7.24568685,12.1006015 C7.53336589,12.0971137 7.76377359,11.8592227 7.76041667,11.5692192 C7.75705974,11.2791132 7.52054849,11.0457358 7.23347982,11.0501469 C7.21822104,11.0503521 7.20286052,11.0504546 7.1875,11.0504546 C6.71722411,11.0504546 6.26515706,10.9585399 5.94726562,10.7982019 C5.68105063,10.6640227 5.625,10.5433846 5.625,10.5252273 C5.625,10.5070701 5.68105063,10.3864319 5.94726562,10.2521501 C6.26515706,10.0919148 6.71722411,10 7.1875,10 C7.65228271,10 8.1020101,10.0955052 8.42132568,10.2619981 C8.67207844,10.3928947 8.75,10.5199956 8.75,10.5514887 L8.75,12.5998753 C8.75,12.6180325 8.69394937,12.7386707 8.42773438,12.8728498 Z M13.125,12.6121795 C13.125,12.6299078 13.0689494,12.7476963 12.8027344,12.8787059 C12.4848429,13.0352564 12.0327759,13.125 11.5625,13.125 C11.0922241,13.125 10.6401571,13.0352564 10.3222656,12.8787059 C10.0560506,12.7476963 10,12.6299078 10,12.6121795 L10,11.8355369 C10.4425049,12.0226362 10.9901937,12.125 11.5625,12.125 C11.5822347,12.125 11.6018677,12.1248998 11.6215007,12.1245994 C11.909078,12.1208934 12.1391805,11.8882212 12.1353149,11.6050681 C12.1315511,11.3241186 11.8992106,11.0990585 11.6146851,11.0990585 C11.6123454,11.0990585 11.6100057,11.0990585 11.607666,11.0990585 C11.5927124,11.0992588 11.5775553,11.099359 11.5625,11.099359 C11.0922241,11.099359 10.6401571,11.0096154 10.3222656,10.8530649 C10.0560506,10.7220553 10,10.6042668 10,10.5865385 L10,9.88721954 C10.4424032,10.0742187 10.9903971,10.1762821 11.5625,10.1762821 C11.5822347,10.1762821 11.6018677,10.1761819 11.6215007,10.1758814 C11.909078,10.1721755 12.1391805,9.93950321 12.1353149,9.65635015 C12.1315511,9.37309695 11.8963623,9.14593349 11.607666,9.15034054 C11.5927124,9.15054087 11.5775553,9.15064103 11.5625,9.15064103 C11.0922241,9.15064103 10.6401571,9.06089744 10.3222656,8.90434695 C10.0560506,8.77333733 10,8.65554887 10,8.63782051 C10,8.62009215 10.0560506,8.50230369 10.3222656,8.3711939 C10.6401571,8.21474359 11.0922241,8.125 11.5625,8.125 C12.0327759,8.125 12.4848429,8.21474359 12.8027344,8.3711939 C13.0689494,8.50230369 13.125,8.619992 13.125,8.63782051 L13.125,12.6121795 Z" id="MF"></path>
                </g>
            </g>
        </g>
    </g>
</svg>