<?xml version="1.0" encoding="UTF-8"?>
<svg width="28px" height="12px" viewBox="0 0 28 12" version="1.1" xmlns="http://www.w3.org/2000/svg" xmlns:xlink="http://www.w3.org/1999/xlink">
    <title>Icons/24/Arrow-CTA@3x</title>
    <g id="Mobile" stroke="none" stroke-width="1" fill="none" fill-rule="evenodd">
        <g id="Screen-6" transform="translate(-1247.000000, -1013.000000)" fill="#FFFFFF">
            <g id="Loan-track-box-1-Copy-2" transform="translate(790.000000, 896.000000)">
                <g id="Icons/24/Arrow-CTA" transform="translate(453.051643, 107.000000)">
                    <path d="M26.7051951,10.1662574 L26.7937534,10.2501009 L31.1939867,15.2501009 C31.2915343,15.3609446 31.3378673,15.484516 31.3417136,15.6059455 C31.3458192,15.7057039 31.321406,15.8084298 31.2633908,15.9053187 L31.1939867,15.9999359 L26.7937534,20.9999359 L26.7051951,21.0837795 C26.4820834,21.2601139 26.1515373,21.3003829 25.8793649,21.1843868 L25.7667769,21.1250481 L25.668369,21.0495964 C25.4614036,20.8595053 25.4141395,20.57788 25.5502852,20.3459891 L25.6199316,20.2500641 L29.1402582,16.25 L5.13497653,16.25 L5.00311674,16.2399304 C4.66090839,16.1870105 4.40140845,15.9318249 4.40140845,15.625 C4.40140845,15.3181751 4.66090839,15.0629895 5.00311674,15.0100696 L5.13497653,15 L29.1402582,15.0000368 L25.6199316,10.9999728 C25.4038947,10.7544893 25.4318372,10.4176875 25.668369,10.2004404 L25.7667769,10.1249888 C26.054903,9.94092533 26.4502103,9.9647323 26.7051951,10.1662574 Z" id="Path"></path>
                </g>
            </g>
        </g>
    </g>
</svg>