<?xml version="1.0" encoding="UTF-8"?>
<svg width="16px" height="16px" viewBox="0 0 16 16" version="1.1" xmlns="http://www.w3.org/2000/svg" xmlns:xlink="http://www.w3.org/1999/xlink">
    <title>Shape@3x</title>
    <g id="Mobile" stroke="none" stroke-width="1" fill="none" fill-rule="evenodd">
        <g id="Screen-6" transform="translate(-21.000000, -468.000000)" fill="#FFFFFF" fill-rule="nonzero">
            <g id="Group-9" transform="translate(17.000000, 404.000000)">
                <path d="M18.2288087,75.998395 C18.3574363,76.0980548 18.4413102,76.2446646 18.4620371,76.4059744 C18.4827653,76.5674107 18.4387005,76.7303546 18.3395875,76.8593792 C17.2323267,78.3035133 15.665476,79.3266085 13.8979632,79.7598418 C12.1305559,80.1929344 10.268124,80.01023 8.61854854,79.2417752 C6.96904335,78.4731799 5.63103872,77.1649407 4.82564948,75.5332175 C4.02026024,73.9012834 3.79566636,72.0435606 4.18897801,70.2668054 C4.58228966,68.4900503 5.57010213,66.900568 6.98896898,65.7612223 C8.40783583,64.6217009 10.1730292,64.0004217 11.9928687,64 C12.2126446,64 12.4156647,64.1172309 12.5254841,64.3074944 C12.6353035,64.4977578 12.6353035,64.7322232 12.5254841,64.9224831 C12.4156647,65.112743 12.2126376,65.2299775 11.9928687,65.2299775 C10.4527964,65.2297029 8.95869003,65.7550373 7.75752918,66.7189882 C6.55636834,67.6829391 5.72022966,69.027937 5.38708148,70.5315669 C5.05391573,72.035267 5.24376802,73.6075999 5.92531962,74.9886538 C6.60690284,76.3696373 7.7393958,77.4768982 9.1354905,78.1271697 C10.5315852,78.7774412 12.1077486,78.9318561 13.6034715,78.5649362 C15.0991943,78.1980164 16.4250046,77.3316554 17.3615797,76.1090929 C17.4613766,75.9786837 17.6092234,75.8937098 17.7721814,75.8728424 C17.9349882,75.8521141 18.0994432,75.8972771 18.228749,75.9984477 L18.2288087,75.998395 Z M18.0135627,68.3356354 C18.1410903,68.3365963 18.2657362,68.2978856 18.3703264,68.2249937 C18.5036208,68.1298637 18.5935357,67.9854503 18.6201665,67.8238804 C18.6466605,67.6623071 18.6076745,67.4967556 18.5117211,67.3640094 C18.3872123,67.1889836 18.1803406,67.0916573 17.9662086,67.1073061 C17.7520589,67.1228182 17.5615108,67.2489714 17.4634992,67.4400607 C17.3654876,67.63115 17.3742696,67.8595884 17.4866987,68.0425739 C17.5991256,68.2255594 17.7988599,68.3366159 18.0135507,68.3356592 L18.0135627,68.3356354 Z M16.3776575,66.6689808 C16.5913925,66.6684317 16.7894891,66.556965 16.9009602,66.3746648 C17.0122907,66.1923645 17.0210763,65.9653283 16.9241597,65.7749278 C16.8271074,65.5845272 16.6382181,65.4580996 16.425316,65.4410767 C16.2122663,65.4239175 16.0056828,65.5186356 15.8796628,65.6911909 C15.789748,65.8141886 15.7487019,65.9661506 15.7644913,66.1177119 C15.7802807,66.2692733 15.8516615,66.4095575 15.9650479,66.5114101 C16.0783007,66.6132663 16.2254587,66.6694131 16.3776877,66.6690041 L16.3776575,66.6689808 Z M18.4562491,69.996105 L18.4563864,69.996105 C18.4970178,70.1256919 18.5792471,70.2382559 18.6905776,70.3160924 C18.8017711,70.3939254 18.9357508,70.4327751 19.0713787,70.4265971 C19.130407,70.436069 19.1906689,70.436069 19.2496973,70.4265971 C19.4056408,70.3785506 19.5360501,70.2705165 19.6122243,70.1262401 C19.6884127,69.9819637 19.7041985,69.8133936 19.6560151,69.657443 C19.6079686,69.5016365 19.4997974,69.3712272 19.3556581,69.2950565 C19.2113817,69.2188682 19.0426745,69.2032193 18.8868609,69.2514028 C18.7309174,69.2995863 18.6006452,69.4076205 18.5244744,69.5518969 C18.4484232,69.6963103 18.4327744,69.8648804 18.4809578,70.020694 L18.4562491,69.996105 Z M19.1698118,73.8399602 C19.0156534,73.7849135 18.8459833,73.7934249 18.698133,73.8638461 C18.5504268,73.9342675 18.4368998,74.0606987 18.3825383,74.2151311 C18.3100575,74.4226881 18.3538479,74.6533194 18.4974358,74.8198232 C18.6408863,74.9864746 18.862458,75.0638964 19.0785123,75.0228503 C19.2945807,74.9818042 19.4723511,74.8286087 19.5448495,74.6210342 C19.598111,74.4676982 19.5885031,74.2995392 19.5182184,74.1532211 C19.4479339,74.0068854 19.3227398,73.8943214 19.1698149,73.8399599 L19.1698118,73.8399602 Z M19.3850578,71.5030031 C19.2218398,71.5030031 19.0654816,71.5677983 18.9501729,71.6831069 C18.8348643,71.7984155 18.7700691,71.9549108 18.7700691,72.1179918 C18.7700691,72.2810728 18.8348643,72.4375681 18.9501729,72.5528767 C19.0654816,72.6681853 19.2218398,72.7329805 19.3850578,72.7329805 C19.6046967,72.7329805 19.8077132,72.6157496 19.9175326,72.4254862 C20.0274891,72.2352227 20.0274891,72.0007574 19.9175326,71.8104974 C19.8077132,71.620234 19.6046861,71.5030031 19.3850578,71.5030031 Z M14.3052509,65.5991113 C14.4551536,65.5916984 14.5972335,65.5296492 14.7045719,65.4246372 C14.8119208,65.3197588 14.8771272,65.1790529 14.8881091,65.0292873 C14.8989537,64.8796588 14.8546144,64.7311267 14.7634632,64.6116924 C14.6724519,64.4924021 14.5408057,64.410447 14.3935211,64.3814828 C14.2462261,64.3525179 14.0933012,64.3783255 13.9638373,64.4542377 C13.8342504,64.5301519 13.736924,64.6508162 13.6902481,64.7934409 C13.6272382,64.9859007 13.6629307,65.1970141 13.7857928,65.3580357 C13.9086535,65.5189202 14.102895,65.6091092 14.3052298,65.5990902 L14.3052509,65.5991113 Z M12.6078469,67.3272647 C12.6078469,67.1074889 12.490616,66.9044688 12.3003525,66.7946494 C12.1100891,66.6848299 11.8756237,66.6848299 11.6853638,66.7946494 C11.4951039,66.9044688 11.3778694,67.1074959 11.3778694,67.3272647 L11.3778694,71.9948535 C11.3784185,72.1219699 11.4182268,72.24579 11.4920816,72.3492978 C11.5657994,72.4529393 11.669852,72.5310499 11.7899681,72.5729183 L15.0677878,73.7230175 C15.1328571,73.7466288 15.2014933,73.7591191 15.2706778,73.7599449 C15.4686269,73.763514 15.6562933,73.6715412 15.7747577,73.5129901 C15.8932256,73.3543019 15.9280937,73.1483896 15.8683801,72.9596408 C15.8086664,72.7708919 15.6617825,72.6223564 15.473733,72.5607064 L12.6078504,71.5582045 L12.6078469,67.3272647 Z" id="Shape"></path>
            </g>
        </g>
    </g>
</svg>