<?xml version="1.0" encoding="UTF-8"?>
<svg width="32px" height="32px" viewBox="0 0 32 32" version="1.1" xmlns="http://www.w3.org/2000/svg" xmlns:xlink="http://www.w3.org/1999/xlink">
    <title>Shape@3x</title>
    <g id="Mobile" stroke="none" stroke-width="1" fill="none" fill-rule="evenodd">
        <g id="Screen-8" transform="translate(-68.000000, -380.000000)" fill="#050505" fill-rule="nonzero">
            <g id="Banner" transform="translate(0.000000, 80.000000)">
                <path d="M96.4576175,323.99679 C96.7148725,324.19611 96.8826204,324.489329 96.9240741,324.811949 C96.9655307,325.134821 96.8774011,325.460709 96.6791751,325.718758 C94.4646534,328.607027 91.3309519,330.653217 87.7959264,331.519684 C84.2611118,332.385869 80.5362481,332.02046 77.2370971,330.48355 C73.9380867,328.94636 71.2620774,326.329881 69.651299,323.066435 C68.0405205,319.802567 67.5913327,316.087121 68.377956,312.533611 C69.1645793,308.980101 71.1402043,305.801136 73.977938,303.522445 C76.8156717,301.243402 80.3460584,300.000843 83.9857374,300 C84.4252892,300 84.8313293,300.234462 85.0509682,300.614989 C85.270607,300.995516 85.270607,301.464446 85.0509682,301.844966 C84.8313293,302.225486 84.4252751,302.459955 83.9857374,302.459955 C80.9055927,302.459406 77.9173801,303.510075 75.5150584,305.437976 C73.1127367,307.365878 71.4404593,310.055874 70.774163,313.063134 C70.1078315,316.070534 70.487536,319.2152 71.8506392,321.977308 C73.2138057,324.739275 75.4787916,326.953796 78.270981,328.254339 C81.0631704,329.554882 84.2154972,329.863712 87.2069429,329.129872 C90.1983887,328.396033 92.8500092,326.663311 94.7231595,324.218186 C94.9227532,323.957367 95.2184468,323.78742 95.5443627,323.745685 C95.8699764,323.704228 96.1988864,323.794554 96.457498,323.996895 L96.4576175,323.99679 Z M96.0271254,308.671271 C96.2821805,308.673193 96.5314724,308.595771 96.7406529,308.449987 C97.0072417,308.259727 97.1870714,307.970901 97.240333,307.647761 C97.2933211,307.324614 97.215349,306.993511 97.0234422,306.728019 C96.7744245,306.377967 96.3606812,306.183315 95.9324171,306.214612 C95.5041179,306.245636 95.1230216,306.497943 94.9269984,306.880121 C94.7309751,307.2623 94.7485392,307.719177 94.9733974,308.085148 C95.1982513,308.451119 95.5977199,308.673232 96.0271015,308.671318 L96.0271254,308.671271 Z M92.755315,305.337962 C93.1827849,305.336863 93.5789782,305.11393 93.8019204,304.74933 C94.0245815,304.384729 94.0421526,303.930657 93.8483194,303.549856 C93.6542149,303.169054 93.2764361,302.916199 92.850632,302.882153 C92.4245326,302.847835 92.0113656,303.037271 91.7593257,303.382382 C91.5794959,303.628377 91.4974037,303.932301 91.5289825,304.235424 C91.5605613,304.538547 91.7033231,304.819115 91.9300958,305.02282 C92.1566014,305.226533 92.4509174,305.338826 92.7553755,305.338008 L92.755315,305.337962 Z M96.9124983,311.99221 L96.9127728,311.99221 C96.9940357,312.251384 97.1584942,312.476512 97.3811553,312.632185 C97.6035422,312.787851 97.8715016,312.86555 98.1427573,312.853194 C98.2608141,312.872138 98.3813378,312.872138 98.4993945,312.853194 C98.8112817,312.757101 99.0721002,312.541033 99.2244487,312.25248 C99.3768253,311.963927 99.4083971,311.626787 99.3120301,311.314886 C99.2159372,311.003273 98.9995947,310.742454 98.7113161,310.590113 C98.4227634,310.437736 98.085349,310.406439 97.7737219,310.502806 C97.4618348,310.599173 97.2012904,310.815241 97.0489489,311.103794 C96.8968464,311.392621 96.8655487,311.729761 96.9619157,312.041388 L96.9124983,311.99221 Z M98.3396236,319.67992 C98.0313069,319.569827 97.6919666,319.58685 97.396266,319.727692 C97.1008535,319.868535 96.8737997,320.121397 96.7650767,320.430262 C96.6201151,320.845376 96.7076958,321.306639 96.9948716,321.639646 C97.2817727,321.972949 97.724916,322.127793 98.1570246,322.045701 C98.5891614,321.963608 98.9447022,321.657217 99.089699,321.242068 C99.196222,320.935396 99.1770063,320.599078 99.0364367,320.306442 C98.8958679,320.013771 98.6454796,319.788643 98.3396299,319.67992 L98.3396236,319.67992 Z M98.7701157,315.006006 C98.4436797,315.006006 98.1309632,315.135597 97.9003459,315.366214 C97.6697286,315.596831 97.5401382,315.909822 97.5401382,316.235984 C97.5401382,316.562146 97.6697286,316.875136 97.9003459,317.105753 C98.1309632,317.336371 98.4436797,317.465961 98.7701157,317.465961 C99.2093933,317.465961 99.6154265,317.231499 99.8350653,316.850972 C100.054978,316.470445 100.054978,316.001515 99.8350653,315.620995 C99.6154265,315.240468 99.2093722,315.006006 98.7701157,315.006006 Z M88.6105019,303.198223 C88.9103071,303.183397 89.194467,303.059298 89.4091438,302.849274 C89.6238416,302.639518 89.7542544,302.358106 89.7762183,302.058575 C89.7979073,301.759318 89.7092288,301.462253 89.5269264,301.223385 C89.3449038,300.984804 89.0816113,300.820894 88.7870423,300.762966 C88.4924521,300.705036 88.1866024,300.756651 87.9276746,300.908475 C87.6685008,301.060304 87.4738481,301.301632 87.3804963,301.586882 C87.2544763,301.971801 87.3258614,302.394028 87.5715856,302.716071 C87.817307,303.03784 88.2057901,303.218218 88.6104597,303.19818 L88.6105019,303.198223 Z M85.2156938,306.654529 C85.2156938,306.214978 84.981232,305.808938 84.6007051,305.589299 C84.2201781,305.36966 83.7512475,305.36966 83.3707276,305.589299 C82.9902077,305.808938 82.7557389,306.214992 82.7557389,306.654529 L82.7557389,315.989707 C82.7568371,316.24394 82.8364535,316.49158 82.9841633,316.698596 C83.1315989,316.905879 83.3397041,317.0621 83.5799362,317.145837 L90.1355755,319.446035 C90.2657142,319.493258 90.4029867,319.518238 90.5413556,319.51989 C90.9372537,319.527028 91.3125866,319.343082 91.5495154,319.02598 C91.7864513,318.708604 91.8561875,318.296779 91.7367602,317.919282 C91.6173329,317.541784 91.3235651,317.244713 90.9474661,317.121413 L85.2157008,315.116409 L85.2156938,306.654529 Z" id="Shape"></path>
            </g>
        </g>
    </g>
</svg>