<svg width="16" height="22" xmlns="http://www.w3.org/2000/svg" xmlns:xlink="http://www.w3.org/1999/xlink">
    <defs>
        <path id="a" d="M0 .043h15.053v21.328H0z" />
    </defs>
    <g fill="none" fill-rule="evenodd">
        <g transform="translate(0 .262)">
            <mask id="b" fill="#fff">
                <use xlink:href="#a" />
            </mask>
            <path d="M7.487 19.587c.095-.106.134-.146.168-.19 1.3-1.63 2.524-3.316 3.62-5.093.911-1.478 1.74-2.999 2.275-4.664.726-2.26.362-4.351-1.16-6.141C10.66 1.462 8.414.802 5.831 1.45c-2.814.707-4.825 3.507-4.669 6.423.059 1.091.416 2.099.84 3.086.733 1.705 1.678 3.293 2.733 4.812.886 1.275 1.815 2.52 2.752 3.815m-.007 1.784c-.687-.859-1.39-1.701-2.053-2.574-1.417-1.866-2.718-3.81-3.79-5.9-.686-1.334-1.303-2.7-1.54-4.2-.311-1.962.135-3.76 1.242-5.382C2.45 1.688 3.99.682 5.898.227c2.769-.66 5.92.499 7.618 2.803 1.088 1.475 1.614 3.122 1.527 4.954-.054 1.152-.416 2.235-.86 3.287-.94 2.221-2.197 4.261-3.594 6.213-.805 1.124-1.662 2.21-2.507 3.305-.155.2-.365.356-.602.582" fill="#787878" mask="url(#b)" />
        </g>
        <path d="M7.19 9.806c.956.028 1.707-.687 1.74-1.655.033-.935-.715-1.708-1.673-1.728-.95-.02-1.707.716-1.725 1.675-.018.94.7 1.68 1.658 1.708m2.867-1.676a2.802 2.802 0 01-2.824 2.818A2.81 2.81 0 014.4 8.107a2.807 2.807 0 012.828-2.816 2.799 2.799 0 012.83 2.839" fill="#FFCB05" />
    </g>
</svg>
