<?xml version="1.0" encoding="UTF-8"?>
<svg width="32px" height="32px" viewBox="0 0 32 32" version="1.1" xmlns="http://www.w3.org/2000/svg" xmlns:xlink="http://www.w3.org/1999/xlink">
    <title>Group 3</title>
    <defs>
        <polygon id="path-1" points="6.25e-06 -1.77635684e-15 31.9475 -1.77635684e-15 31.9475 31.944 6.25e-06 31.944"></polygon>
        <path d="M2.63938125,5.30025 L29.3042562,5.30025 C29.2505687,5.1825625 29.2113812,5.089 29.1661937,4.998375 C28.7351312,4.135 28.2913187,3.27775 27.8776312,2.4061875 C27.7314437,2.0981875 27.5411937,1.99385959 27.2023187,1.994375 C20.7987562,2.00375 14.3951938,2.00125 7.99156875,2.00125 C6.90006875,2.00125 5.80831875,2.01325 4.71713125,1.9940625 C4.38544375,1.9881875 4.21050625,2.1095625 4.07106875,2.401 C3.65475625,3.271375 3.21244375,4.129375 2.78113125,4.992625 C2.73575625,5.083375 2.69594375,5.1769375 2.63938125,5.30025 L2.63938125,5.30025 Z M23.2569437,29.932125 C23.2690687,29.8898125 23.2843187,29.8613125 23.2843187,29.8328125 C23.2836937,27.733375 23.2986938,25.63375 23.2722562,23.534625 C23.2608812,22.63125 22.5455688,21.9699375 21.6208812,21.9676875 C17.8575687,21.9585625 14.0942562,21.9581875 10.3310062,21.9675 C9.34081875,21.9699375 8.65863125,22.6860625 8.65769375,23.6753125 C8.65581875,25.6605 8.65688125,27.6456875 8.65794375,29.630875 C8.65800625,29.7301875 8.66913125,29.8295625 8.67525625,29.932125 L23.2569437,29.932125 Z M2.03525625,7.322875 C2.01663125,7.3705625 2.00300625,7.3891875 2.00300625,7.4078125 C2.00213125,9.2165 1.96731875,11.026 2.01331875,12.8335 C2.04975625,14.265625 3.25444375,15.3084375 4.74250625,15.2985625 C6.09913125,15.2895625 7.25669375,14.166125 7.30456875,12.784 C7.33044375,12.036375 7.31238125,11.28725 7.31625625,10.538875 C7.31688125,10.4144375 7.31656875,10.288125 7.33694375,10.166125 C7.40950625,9.7315 7.67144375,9.4576875 8.09144375,9.348125 C8.50981875,9.239 8.87488125,9.37825 9.10144375,9.725375 C9.23350625,9.92775 9.29150625,10.206 9.30363125,10.454 C9.34125625,11.221375 9.28781875,11.996125 9.36638125,12.7580625 C9.53269375,14.371 11.2000688,15.561875 12.7961938,15.2595625 C14.2922563,14.97625 15.2773813,13.809125 15.2998188,12.2819375 C15.3095063,11.627125 15.2891313,10.97175 15.3081313,10.317375 C15.3250688,9.7343125 15.7840063,9.2998125 16.3270063,9.3135 C16.8628813,9.3270625 17.2815688,9.7556875 17.2940688,10.3323125 C17.3073188,10.945375 17.2856313,11.5593125 17.3038188,12.1720625 C17.3136313,12.50225 17.3417563,12.8389375 17.4189438,13.158875 C17.7038813,14.341 18.7081313,15.2355 19.7778188,15.2909375 C21.1863188,15.3638125 22.4408188,14.2755 22.5779438,12.7894375 C22.6550062,11.9538125 22.6160063,11.1076875 22.6393812,10.266625 C22.6510688,9.849 22.9116313,9.5030625 23.2995687,9.3725 C23.7055063,9.235875 24.0946313,9.313 24.3394438,9.65175 C24.5031938,9.8784375 24.6031938,10.1953125 24.6173188,10.4775 C24.6563188,11.2553125 24.6250688,12.0363125 24.6410063,12.8156875 C24.6540688,13.4559375 24.9141313,14.007 25.3438188,14.4713125 C26.0667563,15.252375 27.2338188,15.5199375 28.2074438,15.144875 C29.2426313,14.746 29.9343188,13.80075 29.9435063,12.708375 C29.9581937,10.9725 29.9485688,9.236375 29.9474438,7.500375 C29.9473813,7.44275 29.9270063,7.3851875 29.9151938,7.322875 L2.03525625,7.322875 Z M1.99663125,16.48875 L1.99663125,16.8791875 L1.99663125,23.05475 C1.99663125,24.7805625 1.99325625,26.506375 1.99800625,28.2321875 C2.00069375,29.2169375 2.69513125,29.926 3.67981875,29.9449375 C4.36594375,29.958125 5.05244375,29.9476875 5.73881875,29.9478125 C6.03656875,29.947875 6.33444375,29.9478125 6.66031875,29.9478125 C6.66031875,29.7861875 6.66025625,29.663625 6.66031875,29.541125 C6.66119375,27.545 6.64425625,25.548625 6.66794375,23.55275 C6.69150625,21.5614375 8.28900625,19.977875 10.2798188,19.971 C14.0753813,19.957875 17.8709438,19.9580625 21.6665063,19.971 C23.6129438,19.977625 25.2199438,21.5200625 25.2651313,23.469 C25.3120688,25.4953125 25.2816938,27.5233125 25.2851313,29.5505625 C25.2853188,29.6724375 25.2851313,29.7943125 25.2851313,29.9478125 L25.6233188,29.9478125 C26.4552563,29.9478125 27.2871313,29.949125 28.1190688,29.9475 C29.2590688,29.9451875 29.9485688,29.2585625 29.9488188,28.123875 C29.9495688,24.36025 29.949232,20.59675 29.949232,16.833125 L29.949232,16.5228125 C27.5266313,17.8389375 25.4046938,17.498875 23.5587563,15.4985 C22.5931313,16.65775 21.3956937,17.318 19.8730062,17.293 C18.3508188,17.2680625 17.1853188,16.549625 16.2728188,15.3691875 C14.2692563,17.8690625 10.4788188,17.992 8.38538125,15.4363125 C7.62213125,16.4068125 6.65063125,17.0298125 5.42100625,17.2325625 C4.19825625,17.4341875 3.07563125,17.165375 1.99663125,16.48875 L1.99663125,16.48875 Z M28.7635687,31.944 L3.30688125,31.944 C3.25850625,31.927125 3.21138125,31.901625 3.16163125,31.89475 C2.13381875,31.7533125 1.32281875,31.254375 0.69963125,30.4290625 C0.32325625,29.9306875 0.15650625,29.3501875 6.25e-06,28.7625625 L6.25e-06,5.993625 C0.02350625,5.9653125 0.05350625,5.9401875 0.06975625,5.908125 C0.81494375,4.436875 1.57588125,2.97325 2.29719375,1.49025 C2.79344375,0.4699375 3.57813125,-3.54021859e-06 4.70331875,0.0013125 C12.2095063,0.0085625 19.7157562,0.009875 27.2218812,-3.54021859e-06 C28.3632562,-0.0015 29.1525687,0.473625 29.6530062,1.5025625 C30.3561937,2.9485 31.1006937,4.3743125 31.8136937,5.8155625 C31.9011312,5.99225 31.9400687,6.21075 31.9403187,6.41 C31.9475229,10.6508125 31.9456937,14.8916875 31.9456937,19.1325 C31.9456937,22.1571875 31.9511312,25.1819375 31.9432562,28.206625 C31.9395687,29.6163125 31.3439437,30.721625 30.1196312,31.43175 C29.7072562,31.670875 29.2178187,31.7770625 28.7635687,31.944 L28.7635687,31.944 Z" id="path-3"></path>
    </defs>
    <g id="Page-1" stroke="none" stroke-width="1" fill="none" fill-rule="evenodd">
        <g id="Offer-Onboarding" transform="translate(-387.000000, -523.000000)">
            <g id="Group-3" transform="translate(387.000000, 523.000000)">
                <mask id="mask-2" fill="white">
                    <use xlink:href="#path-1"></use>
                </mask>
                <g id="Clip-2"></g>
                <mask id="mask-4" fill="white">
                    <use xlink:href="#path-3"></use>
                </mask>
                <use id="Fill-1" fill="#787878" xlink:href="#path-3"></use>
                <rect id="Rectangle" fill="#FFCB05" mask="url(#mask-4)" x="4" y="19" width="23" height="11"></rect>
            </g>
        </g>
    </g>
</svg>