<svg xmlns="http://www.w3.org/2000/svg" xmlns:xlink="http://www.w3.org/1999/xlink" width="56" height="56" viewBox="0 0 56 56">
  <defs>
    <clipPath id="clip-path">
      <rect id="Rectangle_546" data-name="Rectangle 546" width="56" height="56" transform="translate(718 308)" fill="#fff"/>
    </clipPath>
    <linearGradient id="linear-gradient" x1="0.5" x2="0.5" y2="1" gradientUnits="objectBoundingBox">
      <stop offset="0" stop-color="#6c9ff3"/>
      <stop offset="1" stop-color="#25499b"/>
    </linearGradient>
  </defs>
  <g id="Customer_suppot" data-name="Customer suppot" transform="translate(-718 -308)" clip-path="url(#clip-path)">
    <g id="noun_customer_support_350413" data-name="noun_customer support_350413" transform="translate(720.844 311.5)">
      <g id="Group_1007" data-name="Group 1007" transform="translate(6.155 0.5)">
        <path id="Path_543" data-name="Path 543" d="M39.665,50.384a3.7,3.7,0,0,1-2.975-2.69c-.09-.36-.176-2.379-.209-3.567a.4.4,0,0,0-.415-.392.4.4,0,0,0-.392.415c.009.323.093,3.177.233,3.738a4.5,4.5,0,0,0,3.6,3.288c2.694.543,6.17,2.429,9.539,5.173a.4.4,0,1,0,.51-.626C46.087,52.9,42.483,50.952,39.665,50.384Z" transform="translate(-11.834 -8.818)" fill="url(#linear-gradient)"/>
        <path id="Path_544" data-name="Path 544" d="M15.039,28.271a1.852,1.852,0,0,0-.984-.976,3.67,3.67,0,0,1-1.395-2.59,3.472,3.472,0,0,1,.523-2.986,1.661,1.661,0,0,0,.57-1.321c-.011-7.847-.021-14.624,11.742-14.644v-.4l.128.4c11.763.021,11.753,6.8,11.742,14.644a1.661,1.661,0,0,0,.57,1.321,3.465,3.465,0,0,1,.523,2.98,3.677,3.677,0,0,1-1.4,2.6,1.849,1.849,0,0,0-.984.976,19.921,19.921,0,0,1-1.085,2.314.4.4,0,1,0,.707.389,20.618,20.618,0,0,0,1.129-2.409,1.068,1.068,0,0,1,.582-.543,4.4,4.4,0,0,0,1.841-3.187c.274-1.661-.046-3.133-.814-3.747a.88.88,0,0,1-.267-.69c.011-7.935.022-15.431-12.548-15.453h-.13c-12.57.022-12.559,7.517-12.548,15.453a.88.88,0,0,1-.267.69c-.768.615-1.088,2.086-.814,3.754a4.4,4.4,0,0,0,1.841,3.18,1.068,1.068,0,0,1,.582.543,20.387,20.387,0,0,0,5.673,8.021.555.555,0,0,1,.208.449,24.851,24.851,0,0,1-.21,3.2,3.7,3.7,0,0,1-2.974,2.687c-2.829.571-6.446,2.527-9.924,5.367a.4.4,0,0,0,.511.625c3.379-2.759,6.869-4.655,9.572-5.2a4.5,4.5,0,0,0,3.6-3.286,22.487,22.487,0,0,0,.233-3.367,1.366,1.366,0,0,0-.5-1.093A19.559,19.559,0,0,1,15.039,28.271Z" transform="translate(-6.3 -1.355)" fill="url(#linear-gradient)"/>
        <path id="Path_545" data-name="Path 545" d="M43.166,20.3H42.151C42.154,10.076,41.946.529,25.5.5h-.172C8.879.529,8.67,10.076,8.673,20.3H7.659a1.506,1.506,0,0,0-1.5,1.5v5.289a1.506,1.506,0,0,0,1.5,1.5H9.077a.4.4,0,0,0,.4-.4V20.7h0C9.474,8.652,10.537,1.334,25.327,1.308h.17C40.287,1.334,41.35,8.652,41.344,20.7h0v7.489a3.886,3.886,0,0,1-3.881,3.881h-8.52a1.662,1.662,0,0,0-1.608-1.259H23.49a1.663,1.663,0,0,0,0,3.326h3.845a1.662,1.662,0,0,0,1.608-1.26h8.52A4.693,4.693,0,0,0,42.131,28.6h1.035a1.506,1.506,0,0,0,1.5-1.5V21.8A1.506,1.506,0,0,0,43.166,20.3ZM8.673,27.788H7.659a.7.7,0,0,1-.7-.7V21.8a.7.7,0,0,1,.7-.7H8.673Zm18.661,5.545H23.49a.856.856,0,0,1,0-1.711h3.845a.856.856,0,0,1,0,1.711Zm16.528-6.241a.7.7,0,0,1-.7.7H42.151V21.107h1.014a.7.7,0,0,1,.7.7Z" transform="translate(-6.155 -0.5)" fill="url(#linear-gradient)"/>
      </g>
    </g>
  </g>
</svg>
