<svg xmlns="http://www.w3.org/2000/svg" xmlns:xlink="http://www.w3.org/1999/xlink" width="80" height="80" viewBox="0 0 80 80">
  <defs>
    <clipPath id="clip-path">
      <rect id="Rectangle_554" data-name="Rectangle 554" width="80" height="80" transform="translate(764 325)" fill="#fff"/>
    </clipPath>
    <linearGradient id="linear-gradient" x1="0.5" x2="0.5" y2="1" gradientUnits="objectBoundingBox">
      <stop offset="0" stop-color="#6c9ff3"/>
      <stop offset="1" stop-color="#25499b"/>
    </linearGradient>
  </defs>
  <g id="icon_exclusive_banking" data-name="icon exclusive banking" transform="translate(-764 -325)" clip-path="url(#clip-path)">
    <g id="noun_premium_3578989" transform="translate(769.515 334.819)">
      <g id="Group_970" data-name="Group 970" transform="translate(0 0)">
        <path id="Path_522" data-name="Path 522" d="M50.793,973.364a1.082,1.082,0,0,0-.705,1.7l4.1,5.127a1.026,1.026,0,1,0,1.6-1.282l-4.1-5.127A1.046,1.046,0,0,0,50.793,973.364Zm28.8,0a1.041,1.041,0,0,0-.77.416l-4.1,5.127a1.026,1.026,0,1,0,1.6,1.282l4.1-5.127a1.083,1.083,0,0,0-.834-1.7ZM65.032,977.5a1.041,1.041,0,0,0-.673.513l-3.848,6.921-7.7,1.09a1.083,1.083,0,0,0-.577,1.762l5.74,5.543-1.347,7.563a1.083,1.083,0,0,0,1.475,1.089l7.151-3.845,7.119,3.845a1.083,1.083,0,0,0,1.475-1.089l-1.347-7.53,5.772-5.544a1.082,1.082,0,0,0-.545-1.762L70,984.931l-3.848-6.921a1.057,1.057,0,0,0-1.122-.513Zm.224,3.109,3.207,5.768a1.043,1.043,0,0,0,.738.545l6.157.9-4.65,4.454a1.044,1.044,0,0,0-.321.929l1.058,5.928-5.708-3.076a1.047,1.047,0,0,0-.994,0l-5.708,3.076,1.058-5.928a1.044,1.044,0,0,0-.289-.929l-4.65-4.486,6.157-.9a1.043,1.043,0,0,0,.738-.513ZM50.89,994.9a1.039,1.039,0,0,0-.641.257l-5.131,4.1a1.026,1.026,0,1,0,1.283,1.6l5.131-4.1A1.082,1.082,0,0,0,50.89,994.9Zm28.7,0a1.082,1.082,0,0,0-.609,1.858l5.131,4.1a1.026,1.026,0,1,0,1.283-1.6l-5.131-4.1A1.037,1.037,0,0,0,79.59,994.9Zm-14.463,9.228a1.064,1.064,0,0,0-.9,1.058v6.152a1.026,1.026,0,1,0,2.052,0v-6.152a1.072,1.072,0,0,0-1.154-1.058Zm-42.971,3.108A6.164,6.164,0,0,0,16,1013.385v13.33a6.155,6.155,0,0,0,12.218,1.057c10,1.7,20.125,4.069,29.855,4.069,9.248,0,17.8-4.939,23.922-10.542a1.069,1.069,0,0,0,.128-.128,2.569,2.569,0,0,0,.481-2.243,3.1,3.1,0,0,0-1.251-1.666,4.326,4.326,0,0,0-3.508-.654c-.464.146-.8.224-1.292.368a33.412,33.412,0,0,0-9.726,4.869c-.257.167-.519.26-.77.417-.014-.049-.016-.078-.032-.128a7.794,7.794,0,0,0-.962-1.987,5.86,5.86,0,0,0-4.938-2.659,8.687,8.687,0,0,1-4.586-.865,21.419,21.419,0,0,1-4.233-3.941,1.043,1.043,0,0,0-.834-.352,1.082,1.082,0,0,0-.673,1.73,23.022,23.022,0,0,0,4.618,4.262,10.138,10.138,0,0,0,5.708,1.218,3.628,3.628,0,0,1,3.239,1.762,5.751,5.751,0,0,1,.705,1.442,2.2,2.2,0,0,1,.1.545,13.027,13.027,0,0,1-6.093,1.378c-4.5,0-7.662-2.621-11.993-4.069a1.029,1.029,0,1,0-.641,1.955c3.871,1.295,7.372,4.165,12.635,4.165a16.441,16.441,0,0,0,9.877-3.14,30.078,30.078,0,0,1,9.877-4.838,1.028,1.028,0,0,0,.16-.063,2.445,2.445,0,0,1,2.181.256,1.278,1.278,0,0,1,.481.577c.031.109.007.2-.1.352-5.848,5.335-14,9.933-22.479,9.933-9.475,0-19.59-2.389-29.759-4.1v-10.381c4.564-1.859,7.421-5,13.34-5a11.505,11.505,0,0,1,3.784.545,1.029,1.029,0,1,0,.641-1.954,13.5,13.5,0,0,0-4.425-.641c-6.224,0-9.615,3.091-13.34,4.839a6.18,6.18,0,0,0-6.157-5.864Zm0,2.051a4.072,4.072,0,0,1,4.1,4.1v13.33a4.1,4.1,0,0,1-8.209,0v-13.33A4.072,4.072,0,0,1,22.157,1009.284Z" transform="translate(-16 -973.362)" fill="url(#linear-gradient)"/>
      </g>
    </g>
  </g>
</svg>
