<svg xmlns="http://www.w3.org/2000/svg" width="56" height="56"><defs><linearGradient id="b" x1=".459" y1=".409" x2="1.107" y2="1.167" gradientUnits="objectBoundingBox"><stop offset="0" stop-color="#ffdf66"/><stop offset="1" stop-color="#ba5b03"/></linearGradient><clipPath id="a"><path data-name="Rectangle 502" transform="translate(139 375)" fill="#fff" stroke="#707070" d="M0 0h56v56H0z"/></clipPath></defs><g data-name="Icon 1 Section 1" transform="translate(-139 -375)" clip-path="url(#a)"><g data-name="Group 970"><path data-name="Path 522" d="M42.019 973.364a.809.809 0 0 0-.528 1.27l3.07 3.834a.768.768 0 1 0 1.2-.958l-3.07-3.834a.782.782 0 0 0-.672-.312Zm21.535 0a.779.779 0 0 0-.576.311l-3.07 3.834a.768.768 0 1 0 1.2.958l3.07-3.834a.81.81 0 0 0-.623-1.27Zm-10.887 3.091a.779.779 0 0 0-.5.383l-2.878 5.176-5.755.815a.81.81 0 0 0-.432 1.318l4.293 4.145-1.007 5.655a.81.81 0 0 0 1.1.815l5.348-2.876 5.324 2.876a.81.81 0 0 0 1.1-.815l-1.007-5.631 4.317-4.145a.809.809 0 0 0-.408-1.318l-5.779-.839-2.878-5.176a.79.79 0 0 0-.839-.383Zm.168 2.325 2.4 4.313a.779.779 0 0 0 .552.407l4.6.671-3.476 3.329a.781.781 0 0 0-.24.695l.791 4.433-4.269-2.3a.783.783 0 0 0-.743 0l-4.269 2.3.791-4.433a.781.781 0 0 0-.216-.695l-3.477-3.355 4.6-.671a.78.78 0 0 0 .552-.383Zm-10.744 10.686a.777.777 0 0 0-.48.192l-3.837 3.067a.767.767 0 1 0 .959 1.2l3.837-3.067a.809.809 0 0 0-.479-1.392Zm21.463 0a.809.809 0 0 0-.456 1.39l3.837 3.067a.767.767 0 1 0 .959-1.2l-3.837-3.067a.775.775 0 0 0-.503-.19Zm-10.815 6.9a.8.8 0 0 0-.671.791v4.6a.767.767 0 1 0 1.535 0v-4.6a.8.8 0 0 0-.863-.791ZM20.6 998.691a4.609 4.609 0 0 0-4.6 4.6v9.968a4.6 4.6 0 0 0 9.137.791c7.474 1.268 15.05 3.043 22.326 3.043 6.916 0 13.314-3.693 17.89-7.883a.806.806 0 0 0 .1-.1 1.921 1.921 0 0 0 .36-1.677 2.318 2.318 0 0 0-.935-1.246 3.235 3.235 0 0 0-2.624-.489c-.347.109-.6.167-.966.275a24.987 24.987 0 0 0-7.274 3.641c-.192.125-.388.194-.576.311-.011-.036-.012-.058-.024-.1a5.828 5.828 0 0 0-.719-1.486 4.382 4.382 0 0 0-3.695-1.98 6.5 6.5 0 0 1-3.429-.647 16.014 16.014 0 0 1-3.165-2.947.78.78 0 0 0-.624-.263.809.809 0 0 0-.5 1.294 17.215 17.215 0 0 0 3.453 3.187 7.581 7.581 0 0 0 4.269.911 2.713 2.713 0 0 1 2.422 1.318 4.3 4.3 0 0 1 .528 1.078 1.648 1.648 0 0 1 .072.407 9.742 9.742 0 0 1-4.556 1.03c-3.362 0-5.73-1.96-8.969-3.043a.769.769 0 1 0-.48 1.462c2.895.968 5.513 3.115 9.448 3.115a12.3 12.3 0 0 0 7.386-2.348 22.5 22.5 0 0 1 7.386-3.618.762.762 0 0 0 .12-.047 1.828 1.828 0 0 1 1.631.191.954.954 0 0 1 .36.432c.023.082 0 .148-.072.263-4.373 3.99-10.469 7.428-16.811 7.428-7.086 0-14.649-1.786-22.254-3.067v-7.763c3.413-1.39 5.549-3.738 9.976-3.738a8.6 8.6 0 0 1 2.83.407.769.769 0 1 0 .48-1.462 10.1 10.1 0 0 0-3.309-.479c-4.654 0-7.19 2.311-9.976 3.619a4.622 4.622 0 0 0-4.6-4.385Zm0 1.534a3.045 3.045 0 0 1 3.07 3.067v9.968a3.07 3.07 0 0 1-6.139 0v-9.968a3.045 3.045 0 0 1 3.069-3.067Z" transform="translate(125 -592.362)" fill="url(#b)"/></g></g></svg>