<svg xmlns="http://www.w3.org/2000/svg" width="56" height="56"><defs><linearGradient id="b" x1=".459" y1=".409" x2="1.107" y2="1.167" gradientUnits="objectBoundingBox"><stop offset="0" stop-color="#ffdf66"/><stop offset="1" stop-color="#ba5b03"/></linearGradient><clipPath id="a"><path data-name="Rectangle 506" transform="translate(445 385)" fill="#fff" d="M0 0h56v56H0z"/></clipPath></defs><g data-name="Icon 3 Section 1" transform="translate(-445 -385)" clip-path="url(#a)"><path data-name="Path 673" d="M55.651 42.939a1 1 0 0 0-.043-.17.974.974 0 0 0-.039-.155.95.95 0 0 0-.059-.079c-.008-.014-.009-.03-.018-.043l-1.127-1.663a6.817 6.817 0 0 0-4.527-2.9 6.125 6.125 0 0 0 .1-1.964 29.718 29.718 0 0 0-8.994-18.377l2.264-7.765a1.035 1.035 0 0 0-.99-1.323 3.553 3.553 0 0 0-2.469.981 1.564 1.564 0 0 1-2.31 0 3.6 3.6 0 0 0-4.938 0 1.558 1.558 0 0 1-2.3 0 3.545 3.545 0 0 0-2.47-.981 1.035 1.035 0 0 0-.993 1.324L29 17.6a29.668 29.668 0 0 0-7.95 13.121l-8.31-2.227-.136-.035a9.285 9.285 0 0 0-2.338-.3H7.035a1.035 1.035 0 0 0 0 2.07h3.231a7.2 7.2 0 0 1 1.809.229l22.8 6.1a2.421 2.421 0 0 1 1.889 2.473 1.439 1.439 0 0 1-1.076 1.256 12.2 12.2 0 0 1-3.586-.26l-7.72-1.771a1.035 1.035 0 1 0-.463 2.017l7.72 1.771a14.272 14.272 0 0 0 4.178.306c.02 0 .038.009.057.009s.067-.013.1-.016a14.021 14.021 0 0 0 1.783-.249l9.92-2.1a4.885 4.885 0 0 1 .761-.1h.012a4.772 4.772 0 0 1 4.2 2.1l.444.656-13.47 6.421a19.088 19.088 0 0 1-11.082 1.658l-15.77-6.37a9.265 9.265 0 0 0-3.484-.677H7.035a1.035 1.035 0 1 0 0 2.07h2.252a7.211 7.211 0 0 1 2.71.526l15.821 6.383a2 2 0 0 0 .341.085 21.333 21.333 0 0 0 3.263.254 21.094 21.094 0 0 0 9.095-2.064l14.416-6.871a1.036 1.036 0 0 0 .282-.134 1378.929 1378.929 0 0 1 .215-.219 1.36 1.36 0 0 0 .189-.362 1.009 1.009 0 0 0 .032-.217.985.985 0 0 0 0-.194Zm-24.3-30.88a3.553 3.553 0 0 0 2.469-.981 1.562 1.562 0 0 1 2.308 0 3.553 3.553 0 0 0 2.469.981 3.332 3.332 0 0 0 1.987-.608l-1.553 5.327h-8.11c-1.094-5.009-.483-4.72.428-4.72Zm7.379 27.715c.042-.163-.873-4.247-2.718-5.013 1.2-.429-3.865-1.494-3.427-.959l-9.53-2.549a27.842 27.842 0 0 1 7.605-12.406h8.629a27.482 27.482 0 0 1 8.6 17.358 4.016 4.016 0 0 1-.166 1.7c-.156.022-.312.03-.467.063Z" transform="translate(442 382.501)" fill="url(#b)"/></g></svg>