<svg xmlns="http://www.w3.org/2000/svg" xmlns:xlink="http://www.w3.org/1999/xlink" width="78.841" height="80" viewBox="0 0 78.841 80">
  <defs>
    <clipPath id="clip-path">
      <rect id="Rectangle_555" data-name="Rectangle 555" width="78.841" height="80" transform="translate(1175.847 330.811)" fill="#fff"/>
    </clipPath>
    <linearGradient id="linear-gradient" x1="0.5" x2="0.5" y2="1" gradientUnits="objectBoundingBox">
      <stop offset="0" stop-color="#6c9ff3"/>
      <stop offset="1" stop-color="#25499b"/>
    </linearGradient>
  </defs>
  <g id="Mask_Group_177" data-name="Mask Group 177" transform="translate(-1175.847 -330.811)" clip-path="url(#clip-path)">
    <g id="Group_1491" data-name="Group 1491" transform="translate(1184.691 340.239)">
      <path id="Path_524" data-name="Path 524" d="M55.415,64.149a1.431,1.431,0,0,1-.221-.017,1.456,1.456,0,0,1-1.07-.764L40.2,36.682,23.384,51.7v8.085a1.456,1.456,0,0,1-.648,1.211L18.368,63.9a1.456,1.456,0,0,1-2.207-.812L13.47,53.679,4.056,50.99a1.456,1.456,0,0,1-.811-2.209l2.912-4.368a1.456,1.456,0,0,1,1.211-.648h8.084L30.468,26.946,3.784,13.026A1.456,1.456,0,0,1,3.427,10.7L7.795,6.337a1.456,1.456,0,0,1,1.383-.383l32.729,8.183,7.411-8.3a8.5,8.5,0,1,1,12,12l-8.3,7.411L61.2,57.974a1.456,1.456,0,0,1-.383,1.382l-4.368,4.368A1.456,1.456,0,0,1,55.415,64.149ZM6.774,48.738,15.048,51.1a1.456,1.456,0,0,1,1,1l2.364,8.273L20.472,59V51.045a1.456,1.456,0,0,1,.486-1.086l18.7-16.7a1.456,1.456,0,0,1,2.261.412L55.788,60.26l2.383-2.382L49.974,25.1a1.456,1.456,0,0,1,.437-1.44l8.963-7.99a5.584,5.584,0,1,0-7.89-7.89l-8,8.957a1.456,1.456,0,0,1-1.44.437L9.271,8.978,6.888,11.36,33.474,25.231a1.456,1.456,0,0,1,.412,2.26l-16.7,18.7a1.456,1.456,0,0,1-1.086.486H8.147Z" transform="translate(-3 -3.003)" fill="url(#linear-gradient)"/>
      <path id="Path_525" data-name="Path 525" d="M34.456,48.472a1.456,1.456,0,0,1-1.029-2.485l14.56-14.56a1.456,1.456,0,1,1,2.059,2.059L35.485,48.045A1.456,1.456,0,0,1,34.456,48.472Z" transform="translate(10.68 9.762)" fill="url(#linear-gradient)"/>
      <path id="Path_526" data-name="Path 526" d="M26.956,46.972a1.456,1.456,0,0,1-1.029-2.485l14.56-14.56a1.456,1.456,0,1,1,2.059,2.059L27.985,46.545A1.456,1.456,0,0,1,26.956,46.972Z" transform="translate(7.26 9.078)" fill="url(#linear-gradient)"/>
      <path id="Path_527" data-name="Path 527" d="M4.456,22.472a1.456,1.456,0,0,1-.98-2.533L19.492,5.379A1.456,1.456,0,1,1,21.45,7.533L5.435,22.093a1.456,1.456,0,0,1-.978.379Z" transform="translate(-3 -2.093)" fill="url(#linear-gradient)"/>
      <path id="Path_528" data-name="Path 528" d="M13.956,25.832a1.456,1.456,0,0,1-1.029-2.485l10.92-10.92a1.456,1.456,0,1,1,2.059,2.059l-10.92,10.92a1.456,1.456,0,0,1-1.029.427Z" transform="translate(1.332 1.099)" fill="url(#linear-gradient)"/>
    </g>
  </g>
</svg>
