<?xml version="1.0" encoding="UTF-8"?>
<svg width="29px" height="24px" viewBox="0 0 29 24" version="1.1" xmlns="http://www.w3.org/2000/svg" xmlns:xlink="http://www.w3.org/1999/xlink">
    <title>Icons/24/Add Copy 12</title>
    <defs>
        <linearGradient x1="0.532670455%" y1="0.56270954%" x2="132.022738%" y2="139.555939%" id="linearGradient-1">
            <stop stop-color="#FFDF66" offset="0%"></stop>
            <stop stop-color="#BA5B03" offset="100%"></stop>
        </linearGradient>
        <linearGradient x1="0.532670455%" y1="20.6973522%" x2="132.022738%" y2="103.081917%" id="linearGradient-2">
            <stop stop-color="#BA5B03" offset="0%"></stop>
            <stop stop-color="#FFDF66" offset="100%"></stop>
        </linearGradient>
    </defs>
    <g id="Page-1" stroke="none" stroke-width="1" fill="none" fill-rule="evenodd">
        <g id="1366_normal-size" transform="translate(-78.000000, -166.000000)">
            <g id="Group-5" transform="translate(60.000000, 147.000000)">
                <g id="Group" transform="translate(19.000000, 19.000000)">
                    <path d="M8.11170784,3.10051916 L8.11170784,3.97977086 C8.11170784,5.252372 9.17508056,6.29359112 10.4747583,6.29359112 C11.7744361,6.29359112 12.8378088,5.252372 12.8378088,3.97977086 L12.8378088,3.97977086 L12.8378088,3.10051916 L17.1385607,3.10051916 L17.1385607,3.97977086 C17.1385607,5.252372 18.2019334,6.29359112 19.5016112,6.29359112 C20.8012889,6.29359112 21.8646617,5.252372 21.8646617,3.97977086 L21.8646617,3.97977086 L21.8646617,3.10051916 L22.9752954,3.10051916 C24.6530612,3.10051916 25.9763695,4.41939671 26,6.03907089 L26,6.03907089 L26,19.0427408 C26,20.662415 24.6530612,21.9812925 22.9989259,21.9812925 L22.9989259,21.9812925 L7.00107411,21.9812925 C5.34693878,21.9812925 4,20.662415 4,19.0427408 L4,19.0427408 L4,6.03907089 C4,4.41939671 5.34693878,3.10051916 7.00107411,3.10051916 L7.00107411,3.10051916 L8.11170784,3.10051916 Z M23.9914071,9.13959005 L6.00859291,9.13959005 L6.00859291,19.0427408 C6.00859291,19.5749194 6.4575725,20.0145453 7.00107411,20.0145453 L7.00107411,20.0145453 L22.9989259,20.0145453 C23.5424275,20.0145453 23.9914071,19.5749194 23.9914071,19.0427408 L23.9914071,19.0427408 L23.9914071,9.13959005 Z M11.207304,15.5488722 C11.4199785,15.5488722 11.6090226,15.7339778 11.6090226,15.9422216 L11.6090226,15.9422216 L11.6090226,17.6775868 C11.6090226,17.8858306 11.4199785,18.0709363 11.207304,18.0709363 L11.207304,18.0709363 L8.44253491,18.0709363 C8.22986037,18.0709363 8.04081633,17.8858306 8.04081633,17.6775868 L8.04081633,17.6775868 L8.04081633,15.9422216 C8.04081633,15.7339778 8.22986037,15.5488722 8.44253491,15.5488722 L8.44253491,15.5488722 Z M16.3823845,15.5488722 C16.5950591,15.5488722 16.7841031,15.7339778 16.7841031,15.9422216 L16.7841031,15.9422216 L16.7841031,17.6775868 C16.7841031,17.8858306 16.5950591,18.0709363 16.3823845,18.0709363 L16.3823845,18.0709363 L13.6176155,18.0709363 C13.3813104,18.0709363 13.2158969,17.8858306 13.2158969,17.6775868 L13.2158969,17.6775868 L13.2158969,15.9422216 C13.2158969,15.7339778 13.4049409,15.5488722 13.6176155,15.5488722 L13.6176155,15.5488722 Z M21.5338346,15.5488722 C21.7465091,15.5488722 21.9355532,15.7339778 21.9355532,15.9422216 L21.9355532,15.9422216 L21.9355532,17.6775868 C21.9355532,17.8858306 21.7465091,18.0709363 21.5338346,18.0709363 L21.5338346,18.0709363 L18.7690655,18.0709363 C18.556391,18.0709363 18.3673469,17.8858306 18.3673469,17.6775868 L18.3673469,17.6775868 L18.3673469,15.9422216 C18.3673469,15.7339778 18.556391,15.5488722 18.7690655,15.5488722 L18.7690655,15.5488722 Z M11.207304,11.0831991 C11.4199785,11.0831991 11.6090226,11.2683047 11.6090226,11.4765485 L11.6090226,11.4765485 L11.6090226,13.2119137 C11.6090226,13.4201575 11.4199785,13.6052632 11.207304,13.6052632 L11.207304,13.6052632 L8.44253491,13.6052632 C8.22986037,13.6052632 8.04081633,13.4201575 8.04081633,13.2119137 L8.04081633,13.2119137 L8.04081633,11.4765485 C8.04081633,11.2683047 8.22986037,11.0831991 8.44253491,11.0831991 L8.44253491,11.0831991 Z M16.3823845,11.0831991 C16.5950591,11.0831991 16.7841031,11.2683047 16.7841031,11.4765485 L16.7841031,11.4765485 L16.7841031,13.2119137 C16.7841031,13.4201575 16.5950591,13.6052632 16.3823845,13.6052632 L16.3823845,13.6052632 L13.6176155,13.6052632 C13.3813104,13.6052632 13.2158969,13.4201575 13.2158969,13.2119137 L13.2158969,13.2119137 L13.2158969,11.4765485 C13.2158969,11.2683047 13.4049409,11.0831991 13.6176155,11.0831991 L13.6176155,11.0831991 Z M21.5338346,11.0831991 C21.7465091,11.0831991 21.9355532,11.2683047 21.9355532,11.4765485 L21.9355532,11.4765485 L21.9355532,13.2119137 C21.9355532,13.4201575 21.7465091,13.6052632 21.5338346,13.6052632 L21.5338346,13.6052632 L18.7690655,13.6052632 C18.556391,13.6052632 18.3673469,13.4201575 18.3673469,13.2119137 L18.3673469,13.2119137 L18.3673469,11.4765485 C18.3673469,11.2683047 18.556391,11.0831991 18.7690655,11.0831991 L18.7690655,11.0831991 Z M10.4747583,0 C11.2309345,0 11.8453276,0.601593269 11.8453276,1.34201575 L11.8453276,1.34201575 L11.8453276,3.97977086 C11.8453276,4.72019334 11.2309345,5.32178661 10.4747583,5.32178661 C9.71858217,5.32178661 9.10418904,4.72019334 9.10418904,3.97977086 L9.10418904,3.97977086 L9.10418904,1.34201575 C9.10418904,0.601593269 9.71858217,0 10.4747583,0 Z M19.5016112,0 C20.2577873,0 20.8721805,0.601593269 20.8721805,1.34201575 L20.8721805,1.34201575 L20.8721805,3.97977086 C20.8721805,4.72019334 20.2577873,5.32178661 19.5016112,5.32178661 C18.745435,5.32178661 18.1310419,4.72019334 18.1310419,3.97977086 L18.1310419,3.97977086 L18.1310419,1.34201575 C18.1310419,0.601593269 18.745435,0 19.5016112,0 Z" id="Combined-Shape" fill="url(#linearGradient-1)"></path>
                    <line x1="0.5" y1="2.5" x2="26" y2="22" id="Line" stroke="url(#linearGradient-2)" stroke-width="2" stroke-linecap="square"></line>
                </g>
            </g>
        </g>
    </g>
</svg>