<svg width="30" height="30" viewBox="0 0 30 30" fill="none" xmlns="http://www.w3.org/2000/svg">
<path d="M29.0256 21.1544L16.5586 27.2962C15.7794 27.6629 14.9086 27.7087 14.1752 27.4337C7.62084 25.2337 7.575 25.0503 6.88748 25.0503H6.3833V16.2959H8.35419C10.5543 16.2959 12.571 18.4043 14.496 18.4043H18.117C19.4003 18.4043 20.317 19.4585 20.2712 20.6502L25.2214 18.1751C26.8256 17.3501 28.7965 18.0376 29.5298 19.6877C29.8507 20.1918 29.5756 20.8794 29.0256 21.1544Z" fill="#005899"/>
<path d="M5.46649 15.7003V25.6005C5.46649 26.1506 5.00814 26.6089 4.45813 26.6089H1.34137C0.791355 26.6089 0.333008 26.1506 0.333008 25.6005V15.7003C0.333008 15.1502 0.791355 14.6919 1.34137 14.6919H4.50396C5.05398 14.6919 5.46649 15.1502 5.46649 15.7003Z" fill="#005899"/>
<path d="M26 9.5C26 13.6421 22.6421 17 18.5 17C14.3579 17 11 13.6421 11 9.5C11 5.35786 14.3579 2 18.5 2C22.6421 2 26 5.35786 26 9.5Z" fill="#D7DF23"/>
<path fill-rule="evenodd" clip-rule="evenodd" d="M27 9.5C27 14.1944 23.1944 18 18.5 18C13.8056 18 10 14.1944 10 9.5C10 4.80558 13.8056 1 18.5 1C23.1944 1 27 4.80558 27 9.5ZM18.5 17C22.6421 17 26 13.6421 26 9.5C26 5.35786 22.6421 2 18.5 2C14.3579 2 11 5.35786 11 9.5C11 13.6421 14.3579 17 18.5 17Z" fill="white"/>
<path fill-rule="evenodd" clip-rule="evenodd" d="M18.6555 9.17052C18.5762 9.26391 18.4806 9.34054 18.3687 9.4004C18.0547 9.57234 17.5987 9.65831 17.0006 9.65831H16.7539V10.1517L18.8733 13.8522H20.0171L17.8753 10.3199C18.137 10.2839 18.3758 10.2272 18.5917 10.1497C18.8691 10.0501 19.1088 9.9162 19.3106 9.74802C19.6769 9.44152 19.8862 9.0154 19.9386 8.46968H21.3963V7.75201H19.9161C19.8926 7.57657 19.8511 7.41398 19.7918 7.26422C19.6817 6.98642 19.5101 6.7528 19.277 6.56337H21.3963V5.8457H16.7539V6.56337H17.0006C17.5688 6.56337 18.0098 6.65682 18.3238 6.84371C18.4236 6.9017 18.5114 6.97085 18.5874 7.05116C18.7563 7.22966 18.8666 7.46327 18.9181 7.75201H16.7539V8.46968H18.9293C18.8952 8.76206 18.8039 8.99567 18.6555 9.17052Z" fill="#005899"/>
</svg>
