<svg width="30" height="30" viewBox="0 0 30 30" fill="none" xmlns="http://www.w3.org/2000/svg">
<path d="M17.3486 2.24561V6.50917H21.6122L17.3486 2.24561Z" fill="#D7DF23"/>
<path d="M16.5286 7.32946V2H3V26.5975H21.8581V7.32946H16.5286Z" fill="#D7DF23"/>
<circle cx="19.3519" cy="21.7967" r="6.9232" fill="#005899"/>
<path fill-rule="evenodd" clip-rule="evenodd" d="M22.6397 18.8766C22.9592 19.1402 23.0046 19.6129 22.741 19.9324L18.8766 24.6165C18.7341 24.7892 18.5219 24.8892 18.2981 24.8892C18.0742 24.8892 17.862 24.7892 17.7195 24.6165L15.963 22.4873C15.6994 22.1678 15.7447 21.6951 16.0642 21.4315C16.3838 21.1679 16.8565 21.2133 17.1201 21.5328L18.2981 22.9607L21.5839 18.9778C21.8475 18.6583 22.3202 18.613 22.6397 18.8766Z" fill="#D7DF23"/>
<path fill-rule="evenodd" clip-rule="evenodd" d="M12.2613 10.5444H4.2373V10.0444H12.2613V10.5444Z" fill="#333333"/>
<path fill-rule="evenodd" clip-rule="evenodd" d="M18.6 12.8857H4.2373V12.3857H18.6V12.8857Z" fill="#333333"/>
</svg>
